<svg xmlns="http://www.w3.org/2000/svg" viewBox="0 0 767.04 170.37"><defs><style>.cls-1,.cls-10,.cls-11,.cls-12,.cls-13,.cls-14,.cls-15,.cls-16,.cls-17,.cls-18,.cls-19,.cls-2,.cls-20,.cls-21,.cls-22,.cls-23,.cls-24,.cls-25,.cls-26,.cls-27,.cls-28,.cls-29,.cls-3,.cls-30,.cls-31,.cls-32,.cls-33,.cls-34,.cls-35,.cls-36,.cls-37,.cls-38,.cls-39,.cls-4,.cls-40,.cls-41,.cls-42,.cls-43,.cls-44,.cls-45,.cls-46,.cls-47,.cls-48,.cls-49,.cls-5,.cls-50,.cls-51,.cls-52,.cls-53,.cls-54,.cls-55,.cls-56,.cls-57,.cls-58,.cls-59,.cls-6,.cls-60,.cls-61,.cls-62,.cls-63,.cls-64,.cls-7,.cls-8,.cls-9{isolation:isolate;}.cls-10,.cls-11,.cls-12,.cls-13,.cls-14,.cls-15,.cls-16,.cls-17,.cls-18,.cls-19,.cls-2,.cls-20,.cls-21,.cls-22,.cls-23,.cls-24,.cls-25,.cls-26,.cls-27,.cls-28,.cls-29,.cls-3,.cls-30,.cls-31,.cls-32,.cls-33,.cls-34,.cls-35,.cls-36,.cls-37,.cls-38,.cls-39,.cls-4,.cls-40,.cls-41,.cls-42,.cls-43,.cls-44,.cls-45,.cls-46,.cls-47,.cls-48,.cls-49,.cls-5,.cls-50,.cls-51,.cls-52,.cls-53,.cls-54,.cls-55,.cls-56,.cls-57,.cls-58,.cls-59,.cls-6,.cls-60,.cls-61,.cls-62,.cls-63,.cls-64,.cls-7,.cls-8,.cls-9{fill:none;stroke:#000;opacity:0.7;}.cls-2{stroke-width:0.78px;}.cls-3{stroke-width:0.34px;}.cls-4{stroke-width:0.32px;}.cls-5{stroke-width:0.31px;}.cls-6{stroke-width:0.49px;}.cls-7{stroke-width:0.5px;}.cls-8{stroke-width:1.58px;}.cls-9{stroke-width:1.59px;}.cls-10{stroke-width:0.25px;}.cls-11{stroke-width:0.27px;}.cls-12{stroke-width:0.31px;}.cls-13{stroke-width:0.09px;}.cls-14{stroke-width:1.61px;}.cls-15{stroke-width:0.5px;}.cls-16{stroke-width:0.56px;}.cls-17{stroke-width:0.38px;}.cls-18{stroke-width:0.54px;}.cls-19{stroke-width:0.35px;}.cls-20{stroke-width:0.79px;}.cls-21{stroke-width:0.56px;}.cls-22{stroke-width:0.34px;}.cls-23{stroke-width:1.11px;}.cls-24{stroke-width:0.13px;}.cls-25{stroke-width:0.76px;}.cls-26{stroke-width:1.13px;}.cls-27{stroke-width:0.63px;}.cls-28{stroke-width:0.66px;}.cls-29{stroke-width:0.7px;}.cls-30{stroke-width:0.35px;}.cls-31{stroke-width:0.16px;}.cls-32{stroke-width:0.72px;}.cls-33{stroke-width:0.11px;}.cls-34{stroke-width:0.75px;}.cls-35{stroke-width:0.51px;}.cls-36{stroke-width:0.98px;}.cls-37{stroke-width:0.12px;}.cls-38{stroke-width:0.2px;}.cls-39{stroke-width:0.9px;}.cls-40{stroke-width:0.7px;}.cls-41{stroke-width:0.5px;}.cls-42{stroke-width:0.27px;}.cls-43{stroke-width:1.2px;}.cls-44{stroke-width:0.99px;}.cls-45{stroke-width:0.09px;}.cls-46{stroke-width:0.17px;}.cls-47{stroke-width:0.19px;}.cls-48{stroke-width:1.64px;}.cls-49{stroke-width:1.62px;}.cls-50{stroke-width:0.95px;}.cls-51{stroke-width:0.95px;}.cls-52{stroke-width:0.74px;}.cls-53{stroke-width:0.56px;}.cls-54{stroke-width:0.26px;}.cls-55{stroke-width:1.15px;}.cls-56{stroke-width:0.73px;}.cls-57{stroke-width:0.35px;}.cls-58{stroke-width:1.07px;}.cls-59{stroke-width:0.93px;}.cls-60{stroke-width:0.38px;}.cls-61{stroke-width:0.38px;}.cls-62{stroke-width:0.51px;}.cls-63{stroke-width:0.15px;}.cls-64{stroke-width:0.5px;}</style></defs><title>Asset 16artifact-radials-names-below</title><g id="Layer_2" data-name="Layer 2"><g id="Layer_1-2" data-name="Layer 1"><g id="Head" class="cls-1"><g class="cls-1"><path d="M10,156.36v9.23l.08.09h1.28v.76H7.26v-.76H8.54l.09-.09v-4.65H2.82v4.65l.08.09H4.19v.76H.09v-.76H1.37l.08-.09v-9.23L0,155.51v-.17H4.36v.17l-1.54.85v3.81H8.63v-3.81l-1.54-.85v-.17h4.36v.17Z"/><path d="M18.76,162.63H14c0,2.24,1.18,3.06,2.72,3.06a3.91,3.91,0,0,0,1.76-.42l.19.35a3.94,3.94,0,0,1-2.65,1,3.28,3.28,0,0,1-3.33-3.51,3.57,3.57,0,0,1,3.36-3.85,2.55,2.55,0,0,1,2.7,2.8A5.78,5.78,0,0,1,18.76,162.63ZM14.08,162h3.38c0-1.42-.56-2.07-1.49-2.07S14.25,160.48,14.08,162Z"/><path d="M26.26,165.68v.76H24v-.7a4,4,0,0,1-2.25.87A1.59,1.59,0,0,1,20,165c0-1.57,1.66-2.15,4-2.25v-.53c0-1.35-.3-2-1.55-2a3.45,3.45,0,0,0-2,.65l-.22-.41a3.61,3.61,0,0,1,2.66-1.16,2.09,2.09,0,0,1,2.29,2.24v4.08l.09.09ZM24,165.44v-2.17c-1.45.1-2.75.34-2.75,1.48,0,.67.46,1,1.11,1A5.23,5.23,0,0,0,24,165.44Z"/><path d="M35.16,165.68v.76H32.77v-.82a5.31,5.31,0,0,1-2.65,1c-1.69,0-2.68-1.7-2.68-3.46,0-2,1.13-3.88,3.55-3.88a4,4,0,0,1,1.78.36v-3.78l-1.14-.55v-.08l2.23-1.08.11.05v11.4l.08.09Zm-2.39-.33V161a2,2,0,0,0-2-1.06c-1.5,0-2.06,1.09-2.06,2.82s.59,2.84,2.08,2.84A7.44,7.44,0,0,0,32.77,165.35Z"/></g></g><g id="Arms" class="cls-1"><g class="cls-1"><path d="M129.07,165.68v.76h-3.44v-.76h.82l.09-.09-1-3h-3.74l-1.1,3,.09.09H122v.76h-3.55v-.76h1.18l.08-.09,3.88-10.34h.65L128,165.59l.09.09Zm-3.83-3.9-1.55-4.55h0L122,161.78Z"/><path d="M135.05,159.39v1.24a4.6,4.6,0,0,0-.87-.08,7.84,7.84,0,0,0-1.8.24v4.8l.09.09h1.28v.76h-3.67v-.76h1l.09-.09v-4.65L130,160.4v-.09l2.07-1.06.1.05.17,1.16a5.46,5.46,0,0,1,2.24-1.19A.78.78,0,0,1,135.05,159.39Z"/><path d="M148.09,165.68v.76h-3.42v-.76h1l.09-.09v-3.25c0-1.47-.29-2-1.49-2a7.58,7.58,0,0,0-1.86.26l0,0a3,3,0,0,1,.07.69v4.32l.09.09h1v.76h-3.42v-.76h1l.08-.09v-3.25c0-1.47-.29-2-1.48-2a8.11,8.11,0,0,0-1.81.24v5l.08.09h1v.76h-3.42v-.76h1l.08-.09V161l-1.14-.55v-.08l2.06-1.06.11,0,.13,1a4.77,4.77,0,0,1,2.4-1c1.09,0,1.72.37,2,1.09a5.09,5.09,0,0,1,2.5-1.09c1.48,0,2.13.72,2.13,2v4.32l.09.09Z"/><path d="M149.33,166.2v-1.79h.09l.85.94a2,2,0,0,0,1.37.62c.7,0,1.18-.36,1.18-1,0-.85-.82-1.13-1.71-1.6-1-.57-1.68-1.17-1.68-2.16s.93-2,2.43-2a5.12,5.12,0,0,1,1.81.32v1.75h-.08l-.89-1a1.66,1.66,0,0,0-1.13-.44,1,1,0,0,0-1.11,1c0,.8.8,1.18,1.61,1.6s1.81,1,1.81,2.16a2.12,2.12,0,0,1-2.36,2A6.06,6.06,0,0,1,149.33,166.2Z"/></g></g><g id="Hands" class="cls-1"><g class="cls-1"><path d="M277.46,156.36v9.23l.08.09h1.28v.76h-4.1v-.76H276l.09-.09v-4.65h-5.81v4.65l.09.09h1.28v.76h-4.1v-.76h1.28l.08-.09v-9.23l-1.45-.85v-.17h4.36v.17l-1.54.85v3.81h5.81v-3.81l-1.54-.85v-.17h4.36v.17Z"/><path d="M286.72,165.68v.76h-2.31v-.7a4,4,0,0,1-2.26.87,1.59,1.59,0,0,1-1.7-1.64c0-1.57,1.65-2.15,4-2.25v-.53c0-1.35-.31-2-1.56-2a3.47,3.47,0,0,0-2,.65l-.22-.41a3.63,3.63,0,0,1,2.67-1.16,2.09,2.09,0,0,1,2.29,2.24v4.08l.08.09Zm-2.31-.24v-2.17c-1.45.1-2.75.34-2.75,1.48,0,.67.46,1,1.11,1A5.28,5.28,0,0,0,284.41,165.44Z"/><path d="M295.87,165.68v.76h-3.5v-.76h1.11l.09-.09v-3.25c0-1.47-.31-2-1.57-2a8.91,8.91,0,0,0-1.9.24v5l.08.09h1.11v.76h-3.5v-.76h1l.08-.09v-4.65l-1.14-.54v-.09l2.07-1.06.1.05.13,1a5,5,0,0,1,2.48-1c1.54,0,2.22.72,2.22,2v4.32l.09.09Z"/><path d="M304.78,165.68v.76h-2.4v-.82a5.27,5.27,0,0,1-2.64,1c-1.7,0-2.69-1.7-2.69-3.46,0-2,1.13-3.88,3.56-3.88a4,4,0,0,1,1.77.36v-3.78l-1.14-.55v-.08l2.24-1.08.1.05v11.4l.09.09Zm-2.4-.33V161a2,2,0,0,0-1.94-1.06c-1.51,0-2.07,1.09-2.07,2.82s.6,2.84,2.08,2.84A7.44,7.44,0,0,0,302.38,165.35Z"/><path d="M306,166.2v-1.79h.09l.85.94a1.94,1.94,0,0,0,1.37.62c.7,0,1.18-.36,1.18-1,0-.85-.82-1.13-1.71-1.6-1.05-.57-1.68-1.17-1.68-2.16s.93-2,2.43-2a5.16,5.16,0,0,1,1.81.32v1.75h-.09l-.88-1a1.66,1.66,0,0,0-1.13-.44,1,1,0,0,0-1.11,1c0,.8.8,1.18,1.6,1.6s1.81,1,1.81,2.16a2.11,2.11,0,0,1-2.35,2A6.06,6.06,0,0,1,306,166.2Z"/></g></g><g id="Torso" class="cls-1"><g class="cls-1"><path d="M406.78,161.65h1.28l.08-.09v-9.48h-2.73l-1.21,2.14h-.09v-2.91h9.43v2.91h-.1l-1.2-2.14h-2.73v9.48l.09.09h1.28v.77h-4.1Z"/><path d="M413.63,159.05a3.58,3.58,0,0,1,3.6-3.81,3.29,3.29,0,0,1,3.4,3.54,3.6,3.6,0,0,1-3.57,3.81A3.29,3.29,0,0,1,413.63,159.05Zm5.67.15c0-1.87-1-3.28-2.34-3.28-1.13,0-2,.84-2,2.69s1,3.29,2.34,3.29C418.46,161.9,419.3,161,419.3,159.2Z"/><path d="M426.87,155.36v1.25a4.48,4.48,0,0,0-.87-.09,8.43,8.43,0,0,0-1.8.24v4.8l.09.09h1.28v.77H421.9v-.77h1l.09-.09v-4.64l-1.15-.55v-.09l2.07-1.06.1.06.17,1.16a5.5,5.5,0,0,1,2.24-1.2A.78.78,0,0,1,426.87,155.36Z"/><path d="M427.76,162.18v-1.8h.08l.86.94a1.92,1.92,0,0,0,1.36.62c.7,0,1.18-.36,1.18-1,0-.85-.82-1.12-1.71-1.6s-1.67-1.16-1.67-2.15c0-1.15.92-2,2.43-2a4.94,4.94,0,0,1,1.81.33v1.74H432l-.89-1a1.59,1.59,0,0,0-1.12-.45,1,1,0,0,0-1.12,1c0,.8.81,1.18,1.61,1.61s1.81,1,1.81,2.15a2.12,2.12,0,0,1-2.36,2A6,6,0,0,1,427.76,162.18Z"/><path d="M433.69,159.05a3.58,3.58,0,0,1,3.6-3.81,3.29,3.29,0,0,1,3.4,3.54,3.6,3.6,0,0,1-3.57,3.81A3.29,3.29,0,0,1,433.69,159.05Zm5.67.15c0-1.87-1-3.28-2.34-3.28-1.13,0-2,.84-2,2.69s1,3.29,2.34,3.29C438.52,161.9,439.36,161,439.36,159.2Z"/></g></g><g id="Legs" class="cls-1"><g class="cls-1"><path d="M542.65,165.68h1.28l.09-.09v-9.23l-1.46-.85v-.17h4.36v.17l-1.54.85v9.32h3.76l1.08-2.06h.17v2.82h-7.74Z"/><path d="M557.87,162.63h-4.71c0,2.24,1.17,3.06,2.71,3.06a3.91,3.91,0,0,0,1.76-.42l.19.35a3.94,3.94,0,0,1-2.65,1,3.28,3.28,0,0,1-3.33-3.51,3.58,3.58,0,0,1,3.37-3.85,2.56,2.56,0,0,1,2.7,2.8C557.91,162.24,557.89,162.43,557.87,162.63Zm-4.68-.61h3.38c0-1.42-.56-2.07-1.48-2.07S553.36,160.48,553.19,162Z"/><path d="M566.16,160.62l-1.62-.16a2.89,2.89,0,0,1,.37,1.47,2.81,2.81,0,0,1-3,2.77,3,3,0,0,1-1.13-.2,1.53,1.53,0,0,0-.36.87c0,.48.31.7,1.85.7h.44c2,0,2.8.49,2.8,1.54,0,2-2.17,2.76-4.1,2.76-1.48,0-2.53-.46-2.53-1.47,0-.8.65-1.24,1.2-1.74a1,1,0,0,1-.84-1c0-.68.67-1.32,1.25-1.76a2.37,2.37,0,0,1-1.23-2.17,2.83,2.83,0,0,1,2.94-2.92,2.66,2.66,0,0,1,1.95.73l2-.82Zm-5.67,6.61a2.38,2.38,0,0,0-.4,1.26c0,.91.62,1.29,1.57,1.29,1.18,0,2.79-.6,2.79-1.64,0-.59-.5-.84-1.57-.84h-1.27A7.46,7.46,0,0,1,560.49,167.23Zm3.16-5c0-1.52-.67-2.39-1.56-2.39s-1.52.63-1.52,2,.58,2.31,1.54,2.31S563.65,163.56,563.65,162.22Z"/><path d="M567.08,166.2v-1.79h.09l.85.94a1.94,1.94,0,0,0,1.37.62c.7,0,1.18-.36,1.18-1,0-.85-.82-1.13-1.71-1.6s-1.68-1.17-1.68-2.16.93-2,2.43-2a5.12,5.12,0,0,1,1.81.32v1.75h-.08l-.89-1a1.66,1.66,0,0,0-1.13-.44,1,1,0,0,0-1.11,1c0,.8.8,1.18,1.6,1.6s1.82,1,1.82,2.16a2.12,2.12,0,0,1-2.36,2A6.06,6.06,0,0,1,567.08,166.2Z"/></g></g><g id="Feet" class="cls-1"><g class="cls-1"><path d="M707,155.34v2.82h-.09l-1.18-2H702v4.4H705l.08-.08v-1.28h.77v3.5H705v-1.28l-.08-.09H702v4.29l.12.11h1.62v.76h-4.47v-.76h1.28l.08-.09v-9.23l-1.45-.85v-.17Z"/><path d="M713.61,162.63h-4.72c0,2.24,1.18,3.06,2.72,3.06a3.91,3.91,0,0,0,1.76-.42l.19.35a3.94,3.94,0,0,1-2.65,1,3.27,3.27,0,0,1-3.33-3.51,3.57,3.57,0,0,1,3.36-3.85,2.55,2.55,0,0,1,2.7,2.8A5.78,5.78,0,0,1,713.61,162.63Zm-4.68-.61h3.38c0-1.42-.56-2.07-1.49-2.07S709.1,160.48,708.93,162Z"/><path d="M721,162.63h-4.72c0,2.24,1.18,3.06,2.72,3.06a3.91,3.91,0,0,0,1.76-.42l.18.35a3.9,3.9,0,0,1-2.64,1,3.28,3.28,0,0,1-3.34-3.51,3.58,3.58,0,0,1,3.37-3.85,2.55,2.55,0,0,1,2.7,2.8C721,162.24,721,162.43,721,162.63Zm-4.69-.61h3.39c0-1.42-.57-2.07-1.49-2.07S716.44,160.48,716.27,162Z"/><path d="M723,164.44v-4l-.08-.09h-1v-.09l2.22-2.92h.09v2.24h2.3v.77h-2.3v3.19c0,1.73.25,2.31,1.24,2.31a3.3,3.3,0,0,0,1.13-.19l.19.36a3.62,3.62,0,0,1-2,.63C723.55,166.61,723,166.07,723,164.44Z"/></g></g><path class="cls-2" d="M705.71,73.16l.14-.17c.14-.17.42-.51.72-.83a10.27,10.27,0,0,1,1-.87,8,8,0,0,1,1.11-.7,8.57,8.57,0,0,1,1.2-.53,9.11,9.11,0,0,1,1.27-.33,9.52,9.52,0,0,1,1.31-.12,8.16,8.16,0,0,1,1.31.08A9.43,9.43,0,0,1,715,70a8.59,8.59,0,0,1,1.22.48,8.41,8.41,0,0,1,1.13.67,8.13,8.13,0,0,1,1,.84,9.08,9.08,0,0,1,.87,1,8,8,0,0,1,.7,1.11,8.57,8.57,0,0,1,.53,1.2,8.08,8.08,0,0,1,.45,2.58,8.5,8.5,0,0,1-.36,2.59,8.59,8.59,0,0,1-.48,1.22,9.21,9.21,0,0,1-.67,1.14,8.82,8.82,0,0,1-.84,1,8.12,8.12,0,0,1-1,.87,8,8,0,0,1-1.11.7,7.55,7.55,0,0,1-1.2.53c-.42.14-.84.25-1.21,4S713.43,101,713,101s-1-7.35-1.51-11.08-.92-3.82-1.34-4a8.59,8.59,0,0,1-1.22-.48,8.11,8.11,0,0,1-1.14-.67,9.89,9.89,0,0,1-1-.83,9.06,9.06,0,0,1-.87-1,8,8,0,0,1-.7-1.11,7.55,7.55,0,0,1-.53-1.2,9.11,9.11,0,0,1-.33-1.27,8.55,8.55,0,0,1,.24-3.9,8.59,8.59,0,0,1,.48-1.22,10.77,10.77,0,0,1,.53-1l.11-.19"/><path class="cls-3" d="M703.62,71.69l.18-.22c.18-.22.55-.66,1-1.07A10.74,10.74,0,0,1,706,69.26a10.71,10.71,0,0,1,3-1.6,10.73,10.73,0,0,1,3.36-.59,10.76,10.76,0,0,1,1.71.1,10.93,10.93,0,0,1,3.27,1,10.92,10.92,0,0,1,1.47.87,10.61,10.61,0,0,1,1.32,1.09,10.74,10.74,0,0,1,1.14,1.28,12.1,12.1,0,0,1,.92,1.44,11.45,11.45,0,0,1,.68,1.57c.19.54.33,1.1,2,1.63s4.92,1,4.93,1.62-3.2,1.2-4.87,1.8-1.8,1.15-2,1.7a11.43,11.43,0,0,1-.63,1.59,10.33,10.33,0,0,1-.87,1.47,10.61,10.61,0,0,1-1.09,1.32,9.23,9.23,0,0,1-1.28,1.14,12.1,12.1,0,0,1-1.44.92,10.34,10.34,0,0,1-1.57.68,10.66,10.66,0,0,1-1.66.43,11,11,0,0,1-5.09-.31,11.94,11.94,0,0,1-1.59-.63,10.33,10.33,0,0,1-1.47-.87A9.8,9.8,0,0,1,705,85.82a9.23,9.23,0,0,1-1.14-1.28A11.35,11.35,0,0,1,703,83.1a10.34,10.34,0,0,1-.68-1.57,10.73,10.73,0,0,1-.59-3.36,10.83,10.83,0,0,1,.1-1.71,10.35,10.35,0,0,1,.37-1.67,11.55,11.55,0,0,1,.63-1.6c.25-.51.54-1,.69-1.25l.14-.25"/><path class="cls-4" d="M703.21,71.4l.19-.23c.19-.23.57-.69,1-1.12a11.73,11.73,0,0,1,1.35-1.19,10.72,10.72,0,0,1,1.51-1,11.47,11.47,0,0,1,1.64-.72c.56-.19,1.14-.34,1.71-2s1.1-4.66,1.7-4.67,1.25,3,1.87,4.61,1.2,1.72,1.77,1.89a12.6,12.6,0,0,1,1.67.66,10.92,10.92,0,0,1,1.54.91,10.71,10.71,0,0,1,1.38,1.14,10.85,10.85,0,0,1,1.19,1.34,10.72,10.72,0,0,1,1,1.51,12.55,12.55,0,0,1,.72,1.64,11.86,11.86,0,0,1,.44,1.73,10.75,10.75,0,0,1,.18,1.79,11.82,11.82,0,0,1-.11,1.78,11.43,11.43,0,0,1-1,3.42,10.38,10.38,0,0,1-.91,1.54,10.71,10.71,0,0,1-1.14,1.38,10.85,10.85,0,0,1-1.34,1.19,10.72,10.72,0,0,1-1.51,1,12,12,0,0,1-1.64.72,12.93,12.93,0,0,1-1.73.45,11.46,11.46,0,0,1-3.57.06,11.37,11.37,0,0,1-1.75-.39,10.35,10.35,0,0,1-1.67-.66,11.26,11.26,0,0,1-1.54-.9,12.66,12.66,0,0,1-1.38-1.14,11.73,11.73,0,0,1-1.19-1.35,10.72,10.72,0,0,1-1-1.51,11.47,11.47,0,0,1-.72-1.64,12.55,12.55,0,0,1-.45-1.73,11.45,11.45,0,0,1-.06-3.57,13,13,0,0,1,.39-1.75,10.35,10.35,0,0,1,.66-1.67c.26-.53.56-1,.71-1.31l.16-.26"/><path class="cls-5" d="M702,70.58l.22-.26c.21-.26.64-.78,1.11-1.26a12.63,12.63,0,0,1,3.21-2.42,12.54,12.54,0,0,1,1.84-.81c.64-.21,1.29-.38,1.93-2s1.25-4.63,1.93-4.64,1.39,3,2.09,4.57,1.35,1.72,2,1.92a12.49,12.49,0,0,1,1.87.73,12.64,12.64,0,0,1,1.74,1,11.84,11.84,0,0,1,1.55,1.28A12.63,12.63,0,0,1,723.93,72a12.2,12.2,0,0,1,.81,1.85,13.93,13.93,0,0,1,.5,2,13,13,0,0,1,.07,4,12,12,0,0,1-.44,2,12.11,12.11,0,0,1-1.76,3.61,12.49,12.49,0,0,1-2.79,2.89,11.11,11.11,0,0,1-1.7,1.08,12.54,12.54,0,0,1-1.84.81,12,12,0,0,1-2,.5,13.42,13.42,0,0,1-2,.2,12.27,12.27,0,0,1-2-.13,13,13,0,0,1-2-.43,12.77,12.77,0,0,1-5.17-3.05,12,12,0,0,1-1.33-1.51,11.11,11.11,0,0,1-1.08-1.7,12.54,12.54,0,0,1-.81-1.84,12.13,12.13,0,0,1-.5-2,13.69,13.69,0,0,1-.2-2,12.27,12.27,0,0,1,.13-2,13,13,0,0,1,.43-2,13.72,13.72,0,0,1,.74-1.87c.3-.61.64-1.19.81-1.48l.17-.29"/><path class="cls-6" d="M700.58,69.56l.24-.3c.24-.29.73-.88,1.26-1.43a15.46,15.46,0,0,1,1.72-1.52,15.07,15.07,0,0,1,1.93-1.24,15.79,15.79,0,0,1,2.11-.91,13.9,13.9,0,0,1,2.22-.57,13.34,13.34,0,0,1,2.28-.22,13.55,13.55,0,0,1,2.29.14,14.45,14.45,0,0,1,2.24.49,16.25,16.25,0,0,1,2.13.84A14.4,14.4,0,0,1,721,66a13.73,13.73,0,0,1,1.77,1.46,14.55,14.55,0,0,1,2.76,3.65,15.66,15.66,0,0,1,.91,2.1c.25.72.44,1.47,2.91,2.18s7.2,1.39,7.21,2.16-4.7,1.61-7.13,2.41-2.61,1.55-2.83,2.28a16.25,16.25,0,0,1-.84,2.13,15.14,15.14,0,0,1-1.17,2,14.44,14.44,0,0,1-1.46,1.77,15.47,15.47,0,0,1-1.71,1.52,14.7,14.7,0,0,1-4,2.14,15.41,15.41,0,0,1-2.22.58,14.59,14.59,0,0,1-4.57.08,15.44,15.44,0,0,1-2.24-.5,15,15,0,0,1-2.13-.84,15.14,15.14,0,0,1-2-1.17,14.36,14.36,0,0,1-1.77-1.45,15.36,15.36,0,0,1-1.51-1.72,14.06,14.06,0,0,1-1.24-1.93,14.59,14.59,0,0,1-.91-2.11,15.08,15.08,0,0,1-.58-2.22,14.43,14.43,0,0,1-.21-2.28,13.55,13.55,0,0,1,.14-2.29,14.45,14.45,0,0,1,.49-2.24,16.25,16.25,0,0,1,.84-2.13c.34-.69.73-1.35.92-1.68l.2-.33"/><path class="cls-7" d="M700.51,69.51l.24-.3c.25-.29.74-.89,1.27-1.44a14.68,14.68,0,0,1,1.73-1.53A15.18,15.18,0,0,1,705.69,65a14.76,14.76,0,0,1,2.12-.92A15.54,15.54,0,0,1,710,63.5a14.8,14.8,0,0,1,2.3-.22,16.05,16.05,0,0,1,2.3.14,15.57,15.57,0,0,1,2.25.5,14.79,14.79,0,0,1,2.15.85,14.1,14.1,0,0,1,2,1.17,14.45,14.45,0,0,1,3.31,3.19,15.29,15.29,0,0,1,1.24,2,14.64,14.64,0,0,1,.92,2.11,15.89,15.89,0,0,1,.58,2.23,14.79,14.79,0,0,1,.08,4.6,15.57,15.57,0,0,1-.5,2.25,14.79,14.79,0,0,1-.85,2.15,14.21,14.21,0,0,1-1.17,2,14.14,14.14,0,0,1-3.19,3.3,14.26,14.26,0,0,1-2,1.24,14.71,14.71,0,0,1-4.34,1.5,14.79,14.79,0,0,1-4.6.08,14.34,14.34,0,0,1-2.25-.5,14.74,14.74,0,0,1-2.15-.84,14.27,14.27,0,0,1-2-1.18,14.61,14.61,0,0,1-1.77-1.46,13.92,13.92,0,0,1-1.53-1.73,13.58,13.58,0,0,1-1.24-1.94,14.76,14.76,0,0,1-.92-2.12c-.25-.73-.45-1.47-2.94-2.19s-7.28-1.4-7.29-2.17,4.75-1.63,7.21-2.43,2.63-1.56,2.86-2.29a13.73,13.73,0,0,1,.85-2.15c.33-.69.72-1.35.92-1.69l.2-.33"/><path class="cls-8" d="M694,65l.38-.46c.37-.46,1.13-1.37,2-2.22a22.75,22.75,0,0,1,8.89-5.67c1.12-.38,2.27-.68,3.37-4.47s2.16-11.07,3.34-11.09,2.49,7.22,3.72,11,2.4,4,3.53,4.35a22.73,22.73,0,0,1,3.29,1.3,22.31,22.31,0,0,1,3.06,1.8,21.76,21.76,0,0,1,2.73,2.25,22.25,22.25,0,0,1,4.25,5.64A23.35,23.35,0,0,1,734,70.62a22.71,22.71,0,0,1,.88,3.43,22.09,22.09,0,0,1,.34,3.53,23.29,23.29,0,0,1-.21,3.54,22.75,22.75,0,0,1-.77,3.46,22.17,22.17,0,0,1-1.3,3.3,22.81,22.81,0,0,1-1.8,3.05,21.76,21.76,0,0,1-2.25,2.73A22.72,22.72,0,0,1,726.19,96a24,24,0,0,1-3,1.91A24.55,24.55,0,0,1,720,99.33a24,24,0,0,1-3.43.89,22.46,22.46,0,0,1-7.07.12,21.61,21.61,0,0,1-3.46-.77,22.17,22.17,0,0,1-3.3-1.3,22.7,22.7,0,0,1-8.13-6.7,22.64,22.64,0,0,1-4.21-9.67,22.46,22.46,0,0,1-.12-7.07,22.75,22.75,0,0,1,.77-3.46,21.64,21.64,0,0,1,1.3-3.29c.51-1.07,1.12-2.09,1.42-2.6L694,65"/><path class="cls-9" d="M693.88,64.87l.38-.46c.38-.46,1.14-1.38,2-2.24a22.1,22.1,0,0,1,2.67-2.36,22.84,22.84,0,0,1,6.29-3.35,6.09,6.09,0,0,0,3.43-2.16c1.15-1.48,2.3-4.15,3.49-4.17s2.43,2.6,3.63,4a6.15,6.15,0,0,0,3.51,2,22,22,0,0,1,3.32,1.31,22.48,22.48,0,0,1,3.07,1.81,22.2,22.2,0,0,1,2.76,2.27,23.08,23.08,0,0,1,2.37,2.67,23.54,23.54,0,0,1,1.91,3,23.25,23.25,0,0,1,1.43,3.28A23.72,23.72,0,0,1,735,74a22.23,22.23,0,0,1,.34,3.55,23.55,23.55,0,0,1-.21,3.56,23.15,23.15,0,0,1-.78,3.49,23,23,0,0,1-3.12,6.4,23.07,23.07,0,0,1-4.94,5.12,23.61,23.61,0,0,1-3,1.92A24.42,24.42,0,0,1,720,99.49a21.58,21.58,0,0,1-3.45.89,23.19,23.19,0,0,1-7.12.13,23.15,23.15,0,0,1-3.49-.78,22,22,0,0,1-3.32-1.3,23.28,23.28,0,0,1-3.08-1.82,22.86,22.86,0,0,1-2.75-2.27,22.25,22.25,0,0,1-4.28-5.68,22.76,22.76,0,0,1-1.43-3.28,21.58,21.58,0,0,1-.89-3.45,23.19,23.19,0,0,1-.13-7.12,23.15,23.15,0,0,1,.78-3.49,22,22,0,0,1,1.3-3.32c.53-1.07,1.13-2.1,1.44-2.61l.3-.52"/><path class="cls-10" d="M693.66,64.72l.38-.47c.39-.47,1.16-1.4,2-2.27a23.64,23.64,0,0,1,2.71-2.39,21.55,21.55,0,0,1,3-1.94,22.09,22.09,0,0,1,3.31-1.44,23.37,23.37,0,0,1,3.5-.91,23.28,23.28,0,0,1,7.2-.12,22.76,22.76,0,0,1,10,3.94,22.49,22.49,0,0,1,5.18,5,21.55,21.55,0,0,1,1.94,3,22.09,22.09,0,0,1,1.44,3.31,23.37,23.37,0,0,1,.91,3.5,23.28,23.28,0,0,1,.12,7.2,23.94,23.94,0,0,1-.78,3.53,23,23,0,0,1-1.32,3.36,23.62,23.62,0,0,1-4.13,5.9,22.72,22.72,0,0,1-2.71,2.39,21.55,21.55,0,0,1-3.05,1.94,22.09,22.09,0,0,1-3.31,1.44,21.37,21.37,0,0,0-3.49,1.35c-1.18.65-2.37,1.65-3.57,1.67s-2.43-.94-3.63-1.54a20.17,20.17,0,0,0-3.54-1.23,23,23,0,0,1-3.36-1.32,22.69,22.69,0,0,1-3.11-1.84,23.59,23.59,0,0,1-2.79-2.29,22.72,22.72,0,0,1-2.39-2.71,21.55,21.55,0,0,1-1.94-3A23.19,23.19,0,0,1,689.92,82a22.73,22.73,0,0,1-.34-3.59,21.81,21.81,0,0,1,.22-3.61,22.73,22.73,0,0,1,.78-3.53,23,23,0,0,1,1.32-3.36c.53-1.08,1.14-2.12,1.45-2.64l.31-.52"/><path class="cls-11" d="M692.84,64.14l.4-.48c.4-.49,1.2-1.46,2.08-2.37a24,24,0,0,1,2.82-2.5,24.42,24.42,0,0,1,3.18-2,23.37,23.37,0,0,1,3.45-1.5,24.17,24.17,0,0,1,3.65-1,23.7,23.7,0,0,1,3.76-.36,25,25,0,0,1,3.76.23,24.72,24.72,0,0,1,3.68.82,23.35,23.35,0,0,1,3.5,1.38,24.05,24.05,0,0,1,3.25,1.91,23.78,23.78,0,0,1,2.91,2.4,24.82,24.82,0,0,1,2.5,2.82,25.11,25.11,0,0,1,2,3.18,23,23,0,0,1,1.5,3.46c.41,1.19.73,2.41,3.92,3.59s9.25,2.34,9.27,3.6-6,2.62-9.14,3.92-3.42,2.53-3.79,3.73a23.85,23.85,0,0,1-3.29,6.75,23,23,0,0,1-2.4,2.91,23.89,23.89,0,0,1-2.82,2.5,23.4,23.4,0,0,1-3.18,2,23.75,23.75,0,0,1-7.1,2.45,24.12,24.12,0,0,1-7.52.13,24.41,24.41,0,0,1-3.68-.81,24.24,24.24,0,0,1-6.75-3.3,24.22,24.22,0,0,1-5.41-5.22,23.4,23.4,0,0,1-2-3.18,24.54,24.54,0,0,1-1.51-3.45,24.14,24.14,0,0,1-.94-3.65,24.11,24.11,0,0,1-.13-7.52,24.69,24.69,0,0,1,.81-3.68,23.39,23.39,0,0,1,1.39-3.5c.55-1.13,1.19-2.22,1.51-2.76l.32-.55"/><path class="cls-12" d="M690.47,62.48l.45-.54c.45-.55,1.34-1.64,2.32-2.65a28,28,0,0,1,3.16-2.8,26.6,26.6,0,0,1,7.44-4,27.49,27.49,0,0,1,4.08-1.06,27,27,0,0,1,4.2-.4,25.93,25.93,0,0,1,4.22.26,26.7,26.7,0,0,1,8,2.46A26,26,0,0,1,728,55.94a27.17,27.17,0,0,1,3.26,2.68,26.34,26.34,0,0,1,2.8,3.17,25.87,25.87,0,0,1,2.27,3.56A27.1,27.1,0,0,1,738,69.22a27.49,27.49,0,0,1,1.06,4.08,27,27,0,0,1,.4,4.21,25.81,25.81,0,0,1-.26,4.21,26.7,26.7,0,0,1-2.46,8,26.09,26.09,0,0,1-2.14,3.64A27.87,27.87,0,0,1,732,96.66a26.34,26.34,0,0,1-3.17,2.8,25.87,25.87,0,0,1-3.56,2.27,27.1,27.1,0,0,1-3.87,1.68,13.92,13.92,0,0,0-4.07,1.81c-1.38,1-2.76,2.62-4.16,2.65s-2.85-1.56-4.26-2.51a14,14,0,0,0-4.13-1.66,26.42,26.42,0,0,1-7.57-3.69,26.91,26.91,0,0,1-8.32-9.4A27.1,27.1,0,0,1,686,74.23a27.84,27.84,0,0,1,.92-4.12,26.52,26.52,0,0,1,1.55-3.93c.61-1.26,1.33-2.48,1.69-3.09l.36-.61"/><path class="cls-13" d="M690.06,62.2l.46-.55c.46-.56,1.37-1.67,2.37-2.7a27.23,27.23,0,0,1,3.22-2.85,28.07,28.07,0,0,1,3.62-2.31,27.07,27.07,0,0,1,3.95-1.71,6,6,0,0,0,4.12-3.45c1.37-2.61,2.72-7.49,4.15-7.51s2.95,4.8,4.42,7.36a6,6,0,0,0,4.23,3.3,27.48,27.48,0,0,1,4,1.58,27.35,27.35,0,0,1,9.87,8.13,27.5,27.5,0,0,1,2.31,3.63,26.5,26.5,0,0,1,1.71,3.94,27,27,0,0,1,1.08,4.16,27.58,27.58,0,0,1,.15,8.57A27.26,27.26,0,0,1,737.21,90a27.15,27.15,0,0,1-4.91,7,27.13,27.13,0,0,1-3.22,2.85,27.5,27.5,0,0,1-3.63,2.31,26.5,26.5,0,0,1-3.94,1.71,27,27,0,0,1-4.16,1.08,27.58,27.58,0,0,1-8.57.15,27.26,27.26,0,0,1-4.19-.93,28.14,28.14,0,0,1-4-1.57,27.47,27.47,0,0,1-15-19.87,27.58,27.58,0,0,1-.15-8.57A27.26,27.26,0,0,1,688,66c.62-1.29,1.35-2.53,1.72-3.15l.36-.62"/><path class="cls-14" d="M685.85,59.25l.54-.66c.54-.66,1.63-2,2.81-3.2A32.37,32.37,0,0,1,693,52a32.72,32.72,0,0,1,4.31-2.74,31.81,31.81,0,0,1,4.68-2,44.61,44.61,0,0,0,4.93-1.78c1.67-.79,3.35-2,5-2s3.43,1.08,5.12,1.81a44.31,44.31,0,0,0,5,1.61,31.24,31.24,0,0,1,4.75,1.87,32.42,32.42,0,0,1,8.33,5.83,34,34,0,0,1,3.39,3.82,33.39,33.39,0,0,1,2.74,4.31,31.81,31.81,0,0,1,2,4.68,32.46,32.46,0,0,1,1.77,10,33.29,33.29,0,0,1-.31,5.09,32.31,32.31,0,0,1-1.11,5,31.24,31.24,0,0,1-1.87,4.75,31.91,31.91,0,0,1-2.59,4.4,32.93,32.93,0,0,1-3.24,3.94,34.06,34.06,0,0,1-3.82,3.38,33.39,33.39,0,0,1-4.31,2.74,31.81,31.81,0,0,1-4.68,2,31.17,31.17,0,0,1-4.94,1.28,32.53,32.53,0,0,1-10.17.18,33.5,33.5,0,0,1-5-1.1,32.36,32.36,0,0,1-4.75-1.88,31.91,31.91,0,0,1-4.4-2.59,32.3,32.3,0,0,1-10.06-11.37,31.81,31.81,0,0,1-2-4.68,31.17,31.17,0,0,1-1.28-4.94,32.53,32.53,0,0,1-.18-10.17,32.57,32.57,0,0,1,1.11-5,31.24,31.24,0,0,1,1.87-4.75c.74-1.53,1.61-3,2-3.74l.44-.73"/><path class="cls-15" d="M683.81,57.82l.58-.71c.59-.71,1.76-2.13,3-3.45A35.45,35.45,0,0,1,691.53,50a36.31,36.31,0,0,1,4.63-3,35.71,35.71,0,0,1,5-2.19,10.83,10.83,0,0,0,5.29-3c1.78-1.93,3.55-5.34,5.38-5.37s3.72,3.31,5.57,5.18a10.92,10.92,0,0,0,5.39,2.81,34.75,34.75,0,0,1,9.84,4.8,34.62,34.62,0,0,1,7.87,7.6,34.7,34.7,0,0,1,3,4.64,35.1,35.1,0,0,1,2.19,5,35.38,35.38,0,0,1,1.9,10.79,34.7,34.7,0,0,1-.34,5.48,34,34,0,0,1-1.19,5.36,34.75,34.75,0,0,1-4.8,9.84,35,35,0,0,1-17.27,13,35.8,35.8,0,0,1-5.32,1.37,34.67,34.67,0,0,1-10.95.19,34.89,34.89,0,0,1-15.2-6,34.94,34.94,0,0,1-7.88-7.6,36.24,36.24,0,0,1-2.95-4.63,34.84,34.84,0,0,1-3.56-10.36,34.61,34.61,0,0,1-.19-10.94,34.11,34.11,0,0,1,1.19-5.37,35,35,0,0,1,2-5.11c.8-1.64,1.73-3.23,2.2-4l.47-.79"/><path class="cls-16" d="M683.74,57.77l.59-.71c.59-.71,1.76-2.13,3-3.45A35.81,35.81,0,0,1,691.49,50a35,35,0,0,1,4.64-3,34.64,34.64,0,0,1,5-2.2A8.4,8.4,0,0,0,706.46,41c1.77-2.74,3.52-7.75,5.35-7.78s3.76,4.91,5.62,7.59a8.33,8.33,0,0,0,5.42,3.6,35,35,0,0,1,17.76,12.44,35,35,0,0,1,2.95,4.64,34.29,34.29,0,0,1,2.2,5.05,35.3,35.3,0,0,1,1.57,16.3,36.51,36.51,0,0,1-1.19,5.37,35.26,35.26,0,0,1-4.81,9.86A35.2,35.2,0,0,1,729.06,109a35.33,35.33,0,0,1-5,2.19,34.94,34.94,0,0,1-5.32,1.38,36.06,36.06,0,0,1-5.48.53,34.88,34.88,0,0,1-5.5-.34,35.27,35.27,0,0,1-5.37-1.19,35.26,35.26,0,0,1-9.86-4.81,35.77,35.77,0,0,1-4.25-3.5,36.57,36.57,0,0,1-3.65-4.12,36.94,36.94,0,0,1-3-4.65,35.71,35.71,0,0,1-2.19-5,35.07,35.07,0,0,1-1.38-5.33,36.06,36.06,0,0,1-.53-5.48,34.88,34.88,0,0,1,.34-5.5,35.54,35.54,0,0,1,1.19-5.37,34.69,34.69,0,0,1,2-5.12c.8-1.65,1.74-3.24,2.21-4l.46-.8"/><path class="cls-17" d="M683.28,57.45l.6-.72c.59-.72,1.78-2.17,3.08-3.51a36.08,36.08,0,0,1,4.19-3.71,36.78,36.78,0,0,1,4.71-3A35.84,35.84,0,0,1,701,44.28a35.07,35.07,0,0,1,5.42-1.4,37,37,0,0,1,5.56-.54,35.82,35.82,0,0,1,5.58.34A35,35,0,0,1,723,43.9a35.85,35.85,0,0,1,5.21,2A36.47,36.47,0,0,1,733,48.78a35.73,35.73,0,0,1,4.31,3.56,35.51,35.51,0,0,1,6.71,8.9,35.84,35.84,0,0,1,2.23,5.13,35.07,35.07,0,0,1,1.4,5.42,35.53,35.53,0,0,1,.2,11.15,36.74,36.74,0,0,1-1.21,5.46,37.44,37.44,0,0,1-2,5.2,35.84,35.84,0,0,1-2.84,4.82,35,35,0,0,1-3.56,4.31,36.92,36.92,0,0,1-4.19,3.71,35.62,35.62,0,0,1-9.84,5.23,35.07,35.07,0,0,1-5.42,1.4,34.56,34.56,0,0,1-5.56.54,36,36,0,0,1-5.59-.34,36.74,36.74,0,0,1-5.46-1.21,36.23,36.23,0,0,1-5.2-2,35.84,35.84,0,0,1-4.82-2.84,35,35,0,0,1-4.31-3.56,35.58,35.58,0,0,1-8.94-14c-.61-1.77-1.08-3.58-9-5.28s-23.4-3.3-23.43-5.17,15.35-4,23.24-6,8.3-3.81,8.84-5.59a35.9,35.9,0,0,1,2-5.21c.82-1.67,1.77-3.29,2.25-4.09l.47-.81"/><path class="cls-18" d="M679.82,55l.67-.81c.67-.8,2-2.42,3.45-3.92a38.38,38.38,0,0,1,4.68-4.14,39.18,39.18,0,0,1,5.27-3.36,39.86,39.86,0,0,1,5.73-2.49c2-.68,4-1.21,6-4.08s4-8.09,6.09-8.13S716,33.21,718.1,36s4.15,3.26,6.14,3.87a39.93,39.93,0,0,1,11.21,5.46,40.75,40.75,0,0,1,4.82,4A39.14,39.14,0,0,1,744.41,54a39.82,39.82,0,0,1,3.36,5.27A38.43,38.43,0,0,1,750.26,65a39.25,39.25,0,0,1,1.57,6,40.44,40.44,0,0,1,.6,6.22,39.47,39.47,0,0,1-1.74,12.34,39.93,39.93,0,0,1-5.46,11.21,40,40,0,0,1-4,4.82,39.14,39.14,0,0,1-4.68,4.14,39.53,39.53,0,0,1-17.06,7.42,40.44,40.44,0,0,1-6.22.6A39.85,39.85,0,0,1,701,116.08a40.32,40.32,0,0,1-11.21-5.47,40,40,0,0,1-4.82-4,38.38,38.38,0,0,1-4.14-4.68,39.18,39.18,0,0,1-3.36-5.27,39.91,39.91,0,0,1-2.5-5.73,40.18,40.18,0,0,1-2.16-12.28,39.6,39.6,0,0,1,4-18.16c.91-1.87,2-3.68,2.5-4.58l.53-.9"/><path class="cls-19" d="M679.75,55l.67-.81c.67-.81,2-2.43,3.45-3.93a41.15,41.15,0,0,1,4.7-4.15,39.35,39.35,0,0,1,5.28-3.37,40.14,40.14,0,0,1,5.75-2.5,40.58,40.58,0,0,1,12.3-2.17,40.83,40.83,0,0,1,6.25.39,40,40,0,0,1,6.12,1.35,39.45,39.45,0,0,1,5.83,2.3c1.88.92,3.68,2,9.93-1.52S757,29,758.48,30.46,752.3,42.88,749,49.25s-2.15,8.14-1.17,10a40.14,40.14,0,0,1,2.5,5.75,40.58,40.58,0,0,1,2.17,12.3,40.83,40.83,0,0,1-.39,6.25,40,40,0,0,1-1.35,6.12,39.45,39.45,0,0,1-2.3,5.83,40.66,40.66,0,0,1-3.18,5.4,40.05,40.05,0,0,1-4,4.83,39.31,39.31,0,0,1-4.7,4.15,39.72,39.72,0,0,1-11,5.87,39.78,39.78,0,0,1-12.3,2.17,39.6,39.6,0,0,1-6.25-.39,40,40,0,0,1-6.12-1.35,40.1,40.1,0,0,1-11.23-5.48,39.63,39.63,0,0,1-9-8.68,38.73,38.73,0,0,1-3.37-5.28,40.14,40.14,0,0,1-2.5-5.75,39.78,39.78,0,0,1-2.17-12.3,39.6,39.6,0,0,1,.39-6.25,40,40,0,0,1,1.35-6.12,39.45,39.45,0,0,1,2.3-5.83c.91-1.88,2-3.68,2.51-4.59l.53-.9"/><path class="cls-20" d="M677.56,53.45l.71-.87c.72-.86,2.14-2.59,3.69-4.19a42.29,42.29,0,0,1,10.64-8,41.59,41.59,0,0,1,6.13-2.66A42.42,42.42,0,0,1,705.2,36a43.53,43.53,0,0,1,6.65-.64,42.53,42.53,0,0,1,6.67.41,43,43,0,0,1,6.53,1.45,42,42,0,0,1,6.21,2.45A41,41,0,0,1,737,43.09a42.07,42.07,0,0,1,5.16,4.25,42.92,42.92,0,0,1,4.43,5A43.72,43.72,0,0,1,750.2,58a41.59,41.59,0,0,1,2.66,6.13c.73,2.11,1.29,4.27,4.54,6.42s9.21,4.27,9.25,6.5-5.83,4.56-9,6.82-3.67,4.45-4.32,6.58a42.51,42.51,0,0,1-2.45,6.22,41.5,41.5,0,0,1-3.39,5.75,42.67,42.67,0,0,1-9.25,9.59,43.72,43.72,0,0,1-5.64,3.59,42.73,42.73,0,0,1-6.13,2.67,43.58,43.58,0,0,1-6.47,1.67,42.51,42.51,0,0,1-13.32.23,41.61,41.61,0,0,1-6.53-1.45,43.61,43.61,0,0,1-6.22-2.44,42.58,42.58,0,0,1-5.75-3.4,42.67,42.67,0,0,1-9.59-9.25A43,43,0,0,1,675,98a41.59,41.59,0,0,1-2.66-6.13,42.44,42.44,0,0,1-1.91-19.79,42.53,42.53,0,0,1,3.9-12.74c1-2,2.11-3.94,2.68-4.9l.56-1"/><path class="cls-21" d="M677.05,53.09l.72-.88c.72-.87,2.17-2.62,3.74-4.25a42.92,42.92,0,0,1,10.8-8.14,42.82,42.82,0,0,1,6.22-2.7c2.14-.74,4.33-1.31,6.53-3.24s4.41-5.24,6.67-5.28,4.58,3.19,6.85,5,4.48,2.35,6.65,3a43.38,43.38,0,0,1,12.15,5.93,44,44,0,0,1,5.23,4.31,42.92,42.92,0,0,1,8.14,10.8,43.51,43.51,0,0,1,4.4,12.78,43.1,43.1,0,0,1-1.23,20.14,42.21,42.21,0,0,1-2.49,6.31,43.31,43.31,0,0,1-12.83,15.57,43.18,43.18,0,0,1-11.94,6.34,42.43,42.43,0,0,1-6.56,1.7A43.1,43.1,0,0,1,700,119.3a43.27,43.27,0,0,1-6.31-2.48,43.9,43.9,0,0,1-5.84-3.45,43.35,43.35,0,0,1-9.73-9.39,43.22,43.22,0,0,1-3.64-5.72A43.51,43.51,0,0,1,670,85.48,43.38,43.38,0,0,1,669.8,72a44.23,44.23,0,0,1,1.47-6.62A42.64,42.64,0,0,1,673.76,59c1-2,2.14-4,2.71-5l.58-1"/><path class="cls-22" d="M673.54,50.63l.79-1c.79-1,2.38-2.89,4.11-4.68A46.81,46.81,0,0,1,684,40.05a48.36,48.36,0,0,1,6.28-4,47.49,47.49,0,0,1,6.83-3c2.36-.81,4.77-1.44,7.17-4.48s4.8-8.5,7.28-8.54,5.07,5.33,7.58,8.28,4.94,3.5,7.32,4.23a46.82,46.82,0,0,1,6.93,2.73,47.53,47.53,0,0,1,17.11,14.1,48.36,48.36,0,0,1,4,6.28,47.35,47.35,0,0,1,5.55,21.47,48.61,48.61,0,0,1-.45,7.43A47.56,47.56,0,0,1,758,91.86,47.46,47.46,0,0,1,746.75,111a47.61,47.61,0,0,1-5.58,4.94,48.36,48.36,0,0,1-6.28,4A47.59,47.59,0,0,1,706,125a48.74,48.74,0,0,1-7.28-1.61,47.54,47.54,0,0,1-6.93-2.74,47.53,47.53,0,0,1-17.11-14.1,48.36,48.36,0,0,1-4-6.28,47.59,47.59,0,0,1-5.1-28.9,49,49,0,0,1,1.61-7.28,48,48,0,0,1,2.74-6.93c1.09-2.23,2.35-4.38,3-5.46l.64-1.07"/><path class="cls-23" d="M387.41,59.41l.71-.86c.71-.86,2.13-2.57,3.67-4.17a41,41,0,0,1,5-4.41,41.64,41.64,0,0,1,5.61-3.58,42.28,42.28,0,0,1,6.1-2.65c2.1-.73,4.26-1.29,6.4-4.22s4.28-8.23,6.5-8.27,4.53,5.19,6.78,8,4.41,3.34,6.54,4a42.51,42.51,0,0,1,21.48,15,42.58,42.58,0,0,1,3.57,5.61,43.47,43.47,0,0,1,2.66,6.1,42.41,42.41,0,0,1,1.89,19.72,42.31,42.31,0,0,1-3.88,12.69,42.69,42.69,0,0,1-12.59,15.29A43.07,43.07,0,0,1,436.12,124a42.4,42.4,0,0,1-19.72,1.89,41.47,41.47,0,0,1-6.5-1.44A42.87,42.87,0,0,1,398,118.6a42.62,42.62,0,0,1-5.13-4.24,41.66,41.66,0,0,1-4.41-5,42.35,42.35,0,0,1-6.23-11.72,41,41,0,0,1-1.67-6.45,42.19,42.19,0,0,1-.23-13.27,42.63,42.63,0,0,1,1.44-6.5,42.11,42.11,0,0,1,2.44-6.19c1-2,2.1-3.92,2.67-4.88l.56-1"/><path class="cls-24" d="M539.39,67.6l.35-.43c.36-.43,1.06-1.29,1.83-2.09a22.64,22.64,0,0,1,2.49-2.2,21.12,21.12,0,0,1,2.81-1.78,21.54,21.54,0,0,1,3-1.33,21.14,21.14,0,0,1,3.22-.83,21.27,21.27,0,0,1,6.63-.12,22.6,22.6,0,0,1,3.24.72,21.32,21.32,0,0,1,6,2.91,21.41,21.41,0,0,1,2.56,2.11,20.84,20.84,0,0,1,2.2,2.49,20.75,20.75,0,0,1,3.11,5.85,5.76,5.76,0,0,0,2,3.2c1.36,1.07,3.79,2.14,3.81,3.24s-2.38,2.26-3.7,3.38A5.88,5.88,0,0,0,577.06,86a20.45,20.45,0,0,1-1.22,3.09,21,21,0,0,1-1.68,2.86,21.16,21.16,0,0,1-4.61,4.77,20.39,20.39,0,0,1-2.8,1.78,21,21,0,0,1-6.26,2.16,21.27,21.27,0,0,1-6.63.12,22.3,22.3,0,0,1-3.24-.72,21,21,0,0,1-6-2.91,21.06,21.06,0,0,1-4.76-4.6,21.09,21.09,0,0,1-1.79-2.8A21,21,0,0,1,536,83.47a21.57,21.57,0,0,1-.32-3.31,20.45,20.45,0,0,1,.21-3.31,20.07,20.07,0,0,1,.72-3.25,21.52,21.52,0,0,1,1.21-3.09c.49-1,1.05-2,1.34-2.43l.28-.48"/><path class="cls-25" d="M536.14,65.32l.42-.5c.42-.51,1.26-1.53,2.18-2.48a25.25,25.25,0,0,1,3-2.61A25.58,25.58,0,0,1,545,57.61,25.21,25.21,0,0,1,548.63,56a24.92,24.92,0,0,1,3.82-1,25.64,25.64,0,0,1,3.92-.38,24.75,24.75,0,0,1,3.94.25,23.93,23.93,0,0,1,3.84.85,25.18,25.18,0,0,1,3.67,1.44,24.91,24.91,0,0,1,6.44,4.51,25.15,25.15,0,0,1,2.61,3A26.39,26.39,0,0,1,579,68a23.71,23.71,0,0,1,1.57,3.62c.43,1.24.76,2.52,6.06,3.72S602.18,77.69,602.2,79,592,81.81,586.76,83.2s-5.54,2.68-5.93,3.94a24.09,24.09,0,0,1-1.44,3.67,26.33,26.33,0,0,1-2,3.4,27,27,0,0,1-2.51,3,25.25,25.25,0,0,1-3,2.61A25.69,25.69,0,0,1,568.6,102a25.19,25.19,0,0,1-7.43,2.56,24.54,24.54,0,0,1-3.92.37,23.56,23.56,0,0,1-3.94-.24,24.29,24.29,0,0,1-3.85-.85,25.63,25.63,0,0,1-3.67-1.44,26.22,26.22,0,0,1-3.39-2,25.32,25.32,0,0,1-5.66-5.47,24.5,24.5,0,0,1-2.11-3.32A24.79,24.79,0,0,1,533.05,88a25.06,25.06,0,0,1-1-3.81,24.67,24.67,0,0,1-.38-3.93,25.84,25.84,0,0,1,.24-3.93,24.84,24.84,0,0,1,2.3-7.52c.57-1.18,1.24-2.32,1.58-2.89l.33-.57"/><path class="cls-26" d="M533.77,63.66l.47-.56c.47-.57,1.4-1.71,2.42-2.76A27.5,27.5,0,0,1,540,57.43a27.13,27.13,0,0,1,3.71-2.37,28.86,28.86,0,0,1,4-1.75c1.39-.48,2.81-.84,4.21-3.75s2.77-8.34,4.23-8.36,3,5.36,4.53,8.21S563.6,52.58,565,53a28.7,28.7,0,0,1,4.09,1.61,28,28,0,0,1,10.09,8.32,28.61,28.61,0,0,1,2.36,3.7,28.32,28.32,0,0,1,1.75,4,27.9,27.9,0,0,1,1.52,8.63,27.92,27.92,0,0,1-.26,4.38,28.32,28.32,0,0,1-1,4.29A25.74,25.74,0,0,1,582,92.07a27.9,27.9,0,0,1-8.31,10.09,28.41,28.41,0,0,1-3.71,2.37,29.92,29.92,0,0,1-4,1.75,28.34,28.34,0,0,1-4.26,1.1,29.12,29.12,0,0,1-4.37.42,26.83,26.83,0,0,1-4.39-.27,27.39,27.39,0,0,1-4.29-1,28.7,28.7,0,0,1-4.09-1.61,27.68,27.68,0,0,1-3.79-2.23,28,28,0,0,1-8.66-9.8,27.77,27.77,0,0,1-1.76-4,28,28,0,0,1-1.25-13,28.3,28.3,0,0,1,.95-4.29,27.8,27.8,0,0,1,1.61-4.09c.65-1.32,1.39-2.59,1.77-3.22l.37-.64"/><path class="cls-27" d="M532.69,62.91l.49-.6c.49-.59,1.47-1.78,2.53-2.89A30,30,0,0,1,543,53.9a29.72,29.72,0,0,1,4.22-1.83c1.45-.5,2.94-.89,4.4-4.55s2.86-10.59,4.4-10.62,3.19,6.85,4.77,10.46,3.08,3.94,4.55,4.39a28.62,28.62,0,0,1,4.28,1.69,28.93,28.93,0,0,1,7.52,5.26,30.34,30.34,0,0,1,3.05,3.45A29,29,0,0,1,582.7,66a29.28,29.28,0,0,1,1.84,4.22,29.67,29.67,0,0,1,1.15,4.45,30.61,30.61,0,0,1,.44,4.58,29.45,29.45,0,0,1-.28,4.6,30,30,0,0,1-1,4.49,28.83,28.83,0,0,1-4,8.24,29.48,29.48,0,0,1-10.25,9.08,29.72,29.72,0,0,1-4.22,1.83,28.92,28.92,0,0,1-4.46,1.15,29.38,29.38,0,0,1-9.17.16,28.91,28.91,0,0,1-4.5-1,30.21,30.21,0,0,1-4.28-1.69,29.14,29.14,0,0,1-4-2.33,29.38,29.38,0,0,1-6.6-6.38,28,28,0,0,1-2.47-3.88,29.28,29.28,0,0,1-1.84-4.22,29.39,29.39,0,0,1-1.31-13.63,29.72,29.72,0,0,1,2.68-8.77c.67-1.38,1.46-2.71,1.85-3.37l.39-.66"/><path class="cls-28" d="M531.72,62.23l.51-.62c.51-.62,1.53-1.85,2.64-3a30.55,30.55,0,0,1,35.31-6.23,31.58,31.58,0,0,1,4.12,2.43,30.83,30.83,0,0,1,6.86,6.63,30,30,0,0,1,2.58,4,30.46,30.46,0,0,1,1.9,4.39,29.71,29.71,0,0,1,1.2,4.63A30.52,30.52,0,0,1,587,84a30,30,0,0,1-1,4.67,29.37,29.37,0,0,1-1.75,4.45,30,30,0,0,1-2.43,4.13,30.72,30.72,0,0,1-3,3.69,30.77,30.77,0,0,1-7.62,5.74A30.53,30.53,0,0,1,552.56,110a31.17,31.17,0,0,1-4.67-1,30.26,30.26,0,0,1-8.57-4.18,30.39,30.39,0,0,1-9.44-10.67A30.51,30.51,0,0,1,528,89.72a7.9,7.9,0,0,0-3-4.6c-2.09-1.54-5.87-3.07-5.9-4.67s3.7-3.26,5.73-4.87a7.83,7.83,0,0,0,2.85-4.7,30.5,30.5,0,0,1,1.76-4.45c.7-1.44,1.51-2.82,1.92-3.51l.4-.69"/><path class="cls-29" d="M529.9,61l.55-.67c.55-.66,1.64-2,2.83-3.22a32.67,32.67,0,0,1,8.17-6.16,32.2,32.2,0,0,1,4.71-2,32.46,32.46,0,0,1,10.08-1.78,33.76,33.76,0,0,1,5.12.31,32.44,32.44,0,0,1,9.79,3,32.73,32.73,0,0,1,14.54,14,33.37,33.37,0,0,1,2,4.71,24,24,0,0,0,2,4.95c1,1.68,2.57,3.36,2.6,5.07s-1.48,3.46-2.42,5.16a24.46,24.46,0,0,0-1.81,5,32.59,32.59,0,0,1-1.88,4.77,32.88,32.88,0,0,1-5.87,8.39,33,33,0,0,1-8.18,6.16,33.2,33.2,0,0,1-4.7,2,32.69,32.69,0,0,1-5,1.29,32.91,32.91,0,0,1-10.23.18,31.57,31.57,0,0,1-5-1.12,32.72,32.72,0,0,1-9.2-4.48,32.77,32.77,0,0,1-10.12-11.44,32.25,32.25,0,0,1-2-4.71,31.53,31.53,0,0,1-1.28-5,32.11,32.11,0,0,1-.18-10.23,33.21,33.21,0,0,1,1.11-5,32.59,32.59,0,0,1,1.88-4.77c.75-1.54,1.62-3,2.06-3.76l.43-.74"/><path class="cls-30" d="M529.77,60.86l.55-.66c.55-.67,1.65-2,2.84-3.24a33,33,0,0,1,8.22-6.19,32.48,32.48,0,0,1,4.73-2.05,7.49,7.49,0,0,0,4.95-3.83c1.65-2.83,3.28-8,5-8.08s3.53,5.13,5.28,7.9a7.45,7.45,0,0,0,5.08,3.65,32.67,32.67,0,0,1,9.24,4.51,32.87,32.87,0,0,1,4,3.28A33.83,33.83,0,0,1,583.06,60a32.78,32.78,0,0,1,6.12,14.08,32.8,32.8,0,0,1-.94,15.32,32.92,32.92,0,0,1-7.79,13.22,33,33,0,0,1-3.86,3.42,33.36,33.36,0,0,1-4.35,2.77,32.48,32.48,0,0,1-4.73,2.05,33.28,33.28,0,0,1-5,1.3,34.13,34.13,0,0,1-5.14.49,32.91,32.91,0,0,1-5.15-.32,32,32,0,0,1-5-1.11,32.91,32.91,0,0,1-9.25-4.51,32.67,32.67,0,0,1-7.39-7.14,32,32,0,0,1-2.77-4.35,32.65,32.65,0,0,1-3.35-9.73,32.43,32.43,0,0,1-.18-10.28,33.59,33.59,0,0,1,1.11-5,34,34,0,0,1,1.89-4.79c.76-1.55,1.64-3,2.07-3.78l.44-.75"/><path class="cls-31" d="M529.29,60.52l.56-.67c.55-.68,1.67-2,2.89-3.3a34.19,34.19,0,0,1,3.93-3.48,33.53,33.53,0,0,1,4.43-2.82,34.11,34.11,0,0,1,4.81-2.09,9.92,9.92,0,0,0,5.06-3c1.7-1.94,3.39-5.38,5.14-5.41s3.56,3.35,5.33,5.23a10,10,0,0,0,5.15,2.78A33,33,0,0,1,576,52.39a33.39,33.39,0,0,1,10.35,11.7A33,33,0,0,1,589.76,74a34,34,0,0,1,.5,5.23,32.78,32.78,0,0,1-.32,5.24,33.31,33.31,0,0,1-1.13,5.13A34.05,34.05,0,0,1,584.22,99a33.59,33.59,0,0,1-7.27,7.53,34.2,34.2,0,0,1-4.43,2.82,33.74,33.74,0,0,1-4.82,2.09,33.45,33.45,0,0,1-15.55,1.5,32.08,32.08,0,0,1-5.12-1.14,33.62,33.62,0,0,1-13.47-7.93,32.41,32.41,0,0,1-3.47-3.93,33.14,33.14,0,0,1-4.92-9.24,33.24,33.24,0,0,1-1.31-5.08,32.85,32.85,0,0,1-.51-5.23,34,34,0,0,1,.32-5.24A34.55,34.55,0,0,1,524.81,70a34.1,34.1,0,0,1,1.92-4.88c.77-1.58,1.66-3.09,2.11-3.85l.45-.76"/><path class="cls-32" d="M527.62,59.36l.59-.72c.59-.72,1.78-2.16,3.07-3.5a36.55,36.55,0,0,1,4.17-3.69,34.9,34.9,0,0,1,4.7-3,35.44,35.44,0,0,1,5.1-2.22,34.8,34.8,0,0,1,5.4-1.39,34.31,34.31,0,0,1,5.54-.54,35.64,35.64,0,0,1,5.56.34,35.91,35.91,0,0,1,10.62,3.25,35.26,35.26,0,0,1,9.09,6.37,35.52,35.52,0,0,1,6.68,8.86,34,34,0,0,1,2.22,5.11c.61,1.76,1.08,3.56,9.15,5.26s23.76,3.28,23.79,5.13-15.58,4-23.6,6-8.41,3.79-9,5.57a35.49,35.49,0,0,1-12.58,18,35.54,35.54,0,0,1-4.7,3,36.2,36.2,0,0,1-5.11,2.22,35.53,35.53,0,0,1-5.39,1.39,34.31,34.31,0,0,1-5.54.54,35.64,35.64,0,0,1-5.56-.34,35.67,35.67,0,0,1-10.62-3.25,36.12,36.12,0,0,1-4.8-2.82,35.62,35.62,0,0,1-4.29-3.55,34,34,0,0,1-3.69-4.17,35.88,35.88,0,0,1-3-4.69,36.7,36.7,0,0,1-2.22-5.11,35.48,35.48,0,0,1-1.92-10.94,34.4,34.4,0,0,1,.34-5.55,35,35,0,0,1,1.2-5.44,35.49,35.49,0,0,1,2-5.18c.82-1.67,1.76-3.28,2.24-4.08l.47-.8"/><path class="cls-33" d="M527.3,59.14l.6-.73c.6-.73,1.8-2.18,3.1-3.53a36.43,36.43,0,0,1,4.22-3.73,35.61,35.61,0,0,1,9.91-5.27c1.78-.61,3.6-1.09,5.36-6.8s3.44-16.68,5.32-16.71,3.94,10.86,5.9,16.51,3.79,6.06,5.59,6.61A35.88,35.88,0,0,1,588.48,63a37.07,37.07,0,0,1,2.25,5.17,35.84,35.84,0,0,1,.38,22.16,36.3,36.3,0,0,1-2.06,5.24,35.26,35.26,0,0,1-2.86,4.85,34.53,34.53,0,0,1-3.58,4.34,35.85,35.85,0,0,1-9,6.76,36.24,36.24,0,0,1-5.16,2.24,36.66,36.66,0,0,1-5.45,1.41,35.17,35.17,0,0,1-5.61.54,36.35,36.35,0,0,1-5.61-.34,35.78,35.78,0,0,1-5.5-1.22,36.3,36.3,0,0,1-5.24-2.06,36.94,36.94,0,0,1-4.85-2.86,35.93,35.93,0,0,1-11.09-12.54,34.84,34.84,0,0,1-2.25-5.17A36.34,36.34,0,0,1,521.48,86a37.52,37.52,0,0,1-.54-5.6,35.21,35.21,0,0,1,.35-5.62,36.57,36.57,0,0,1,1.21-5.49,35.23,35.23,0,0,1,2.07-5.24c.82-1.69,1.78-3.31,2.26-4.12l.47-.81"/><path class="cls-34" d="M526.74,58.74l.61-.74c.61-.74,1.83-2.22,3.16-3.6a36.07,36.07,0,0,1,4.3-3.8,37,37,0,0,1,4.84-3.08,36.07,36.07,0,0,1,5.26-2.29,36.51,36.51,0,0,1,17-1.64,37.12,37.12,0,0,1,5.6,1.25,36.62,36.62,0,0,1,21.59,17.79,37.14,37.14,0,0,1,2.28,5.26,35.47,35.47,0,0,1,1.44,5.56,36.52,36.52,0,0,1,.2,11.43,36.82,36.82,0,0,1-1.24,5.6,37.7,37.7,0,0,1-2.1,5.34,37.29,37.29,0,0,1-6.56,9.37,36.07,36.07,0,0,1-4.3,3.8,37,37,0,0,1-4.84,3.08,36.07,36.07,0,0,1-5.26,2.29,36.51,36.51,0,0,1-17,1.64,37.12,37.12,0,0,1-5.6-1.25,36.54,36.54,0,0,1-5.34-2.1,47.94,47.94,0,0,0-5.34-2.5c-2-.68-4.24-1.08-5.62-2.41s-1.85-3.59-2.6-5.53A48.64,48.64,0,0,0,524.53,97a37.19,37.19,0,0,1-2.29-5.26,36.58,36.58,0,0,1-1.43-5.56,36.52,36.52,0,0,1-.2-11.43,35.66,35.66,0,0,1,1.24-5.6,36.54,36.54,0,0,1,2.1-5.34c.84-1.72,1.82-3.38,2.3-4.2l.49-.83"/><path class="cls-35" d="M514.64,50.27l.85-1c.86-1,2.57-3.12,4.44-5a51.33,51.33,0,0,1,20.19-12.86c2.53-.88,5.14-1.55,7.72-5.54S553,14.5,555.67,14.45s5.49,7.16,8.21,11.05,5.35,4.48,7.92,5.27a51,51,0,0,1,14.42,7,52.27,52.27,0,0,1,6.2,5.11,51.66,51.66,0,0,1,5.33,6,50.06,50.06,0,0,1,4.33,6.79,50.66,50.66,0,0,1,3.2,7.37,51.25,51.25,0,0,1-2.39,39.17,51.17,51.17,0,0,1-15.23,18.47,51.4,51.4,0,0,1-21.95,9.55,51.37,51.37,0,0,1-16,.28,51.46,51.46,0,0,1-28.48-13.89,52.6,52.6,0,0,1-5.33-6,51.63,51.63,0,0,1-4.32-6.79,52.32,52.32,0,0,1-3.21-7.37,51.21,51.21,0,0,1-2-7.79,51.2,51.2,0,0,1,4.41-31.38c1.17-2.41,2.54-4.73,3.22-5.89l.69-1.16"/><path class="cls-36" d="M280.52,70.71l.17-.21c.18-.21.53-.64.91-1a10.75,10.75,0,0,1,1.24-1.09,11.29,11.29,0,0,1,1.39-.89,10.74,10.74,0,0,1,1.52-.66,9.63,9.63,0,0,1,1.6-.41,10,10,0,0,1,1.64-.16,10.16,10.16,0,0,1,1.65.1,10.91,10.91,0,0,1,3.15,1,11.78,11.78,0,0,1,1.42.84,10.84,10.84,0,0,1,1.28,1,11.65,11.65,0,0,1,1.09,1.24,11.29,11.29,0,0,1,.89,1.39,10.74,10.74,0,0,1,.66,1.52,9.89,9.89,0,0,1,.41,1.6,10.47,10.47,0,0,1,.06,3.29,10.74,10.74,0,0,1-.36,1.61,10.38,10.38,0,0,1-1.44,3,11.6,11.6,0,0,1-1.05,1.27,9.87,9.87,0,0,1-1.24,1.09,10.23,10.23,0,0,1-1.39.89,10.74,10.74,0,0,1-1.52.66,9.63,9.63,0,0,1-1.6.41,10,10,0,0,1-1.64.16,10.16,10.16,0,0,1-1.65-.1,8.73,8.73,0,0,1-1.61-.36,10.67,10.67,0,0,1-1.54-.6,9.64,9.64,0,0,1-1.42-.84,10.84,10.84,0,0,1-1.28-1.05,9.87,9.87,0,0,1-1.09-1.24,10.59,10.59,0,0,1-.89-1.39,10.27,10.27,0,0,1-.66-1.52c-.18-.52-.32-1-5.06-1.51s-14.09-.85-14.09-1.41,9.31-1.26,14-1.89,4.85-1.16,5-1.69a10.67,10.67,0,0,1,.6-1.54c.24-.49.52-1,.66-1.21l.15-.24"/><path class="cls-37" d="M280.35,70.6l.18-.22c.18-.21.54-.65.93-1a10.29,10.29,0,0,1,1.26-1.12,10.88,10.88,0,0,1,3-1.57,3.12,3.12,0,0,0,1.62-1c.55-.65,1.09-1.8,1.65-1.81s1.14,1.13,1.71,1.76a3.06,3.06,0,0,0,1.65.91,10,10,0,0,1,1.57.62,10.57,10.57,0,0,1,1.45.85,10.17,10.17,0,0,1,1.29,1.07,10.29,10.29,0,0,1,1.12,1.26,10.6,10.6,0,0,1,.9,1.42,10,10,0,0,1,.67,1.54,10.59,10.59,0,0,1,.43,1.63,11.94,11.94,0,0,1,.16,1.68,10.54,10.54,0,0,1-.11,1.68,10.21,10.21,0,0,1-.36,1.64,10,10,0,0,1-.62,1.57,10.57,10.57,0,0,1-.85,1.45,10.87,10.87,0,0,1-3.75,3.32,12.36,12.36,0,0,1-1.54.67,11.47,11.47,0,0,1-1.63.42,10.61,10.61,0,0,1-1.68.16,11.84,11.84,0,0,1-1.68-.1A10.49,10.49,0,0,1,286,87a11.08,11.08,0,0,1-1.57-.61,11.77,11.77,0,0,1-1.45-.86,10.17,10.17,0,0,1-1.29-1.07,10.29,10.29,0,0,1-1.12-1.26,10,10,0,0,1-.9-1.42,10.59,10.59,0,0,1-.68-1.54,11.47,11.47,0,0,1-.42-1.63,11.66,11.66,0,0,1-.16-1.68,10.37,10.37,0,0,1,.47-3.32,9.56,9.56,0,0,1,.62-1.56c.24-.51.53-1,.67-1.24l.14-.24"/><path class="cls-38" d="M280.28,70.55l.18-.22c.19-.22.55-.65.94-1.06a10.47,10.47,0,0,1,1.27-1.13,11.16,11.16,0,0,1,1.43-.91,10.78,10.78,0,0,1,1.56-.67,2.37,2.37,0,0,0,1.62-1.37c.54-1,1.07-3,1.64-3s1.17,1.91,1.74,2.92a2.37,2.37,0,0,0,1.68,1.31,10.84,10.84,0,0,1,3,1.48A10.6,10.6,0,0,1,296.68,69a10.47,10.47,0,0,1,1.13,1.27,11.16,11.16,0,0,1,.91,1.43,10.78,10.78,0,0,1,.67,1.56,10.14,10.14,0,0,1,.43,1.64,11.06,11.06,0,0,1,.06,3.38,10.48,10.48,0,0,1-.37,1.66,9.67,9.67,0,0,1-.62,1.57A12,12,0,0,1,298,83a11.28,11.28,0,0,1-1.08,1.3,10.47,10.47,0,0,1-1.27,1.13,11.16,11.16,0,0,1-1.43.91,10.82,10.82,0,0,1-1.56.68,11.26,11.26,0,0,1-1.64.42,10.75,10.75,0,0,1-5-.31,10,10,0,0,1-1.57-.62,10.17,10.17,0,0,1-1.46-.86,9.77,9.77,0,0,1-1.31-1.08,10.47,10.47,0,0,1-1.13-1.27,11.16,11.16,0,0,1-.91-1.43A12.55,12.55,0,0,1,279,80.3a11.73,11.73,0,0,1-.42-1.65,10.5,10.5,0,0,1-.16-1.68,10.71,10.71,0,0,1,.1-1.7,10.36,10.36,0,0,1,.37-1.65,9.78,9.78,0,0,1,.62-1.58c.25-.51.54-1,.68-1.24l.14-.25"/><path class="cls-39" d="M276.79,68.1l.25-.3c.25-.31.76-.92,1.3-1.48a14.83,14.83,0,0,1,3.77-2.84,15.33,15.33,0,0,1,2.16-.94c.75-.26,1.51-.46,2.22-4.85s1.34-13,2.12-13,1.73,8.55,2.59,12.92,1.62,4.55,2.38,4.78a14.65,14.65,0,0,1,4.23,2.06,15.17,15.17,0,0,1,3.39,3.27,15.37,15.37,0,0,1,1.27,2,15.17,15.17,0,0,1,1.76,6.8,14.61,14.61,0,0,1-.66,4.67,15.92,15.92,0,0,1-.86,2.2,15.25,15.25,0,0,1-1.2,2,14.62,14.62,0,0,1-3.27,3.39A15.23,15.23,0,0,1,294.08,91a15.13,15.13,0,0,1-2.29.6,15.44,15.44,0,0,1-2.35.22,14.32,14.32,0,0,1-2.36-.14,15.38,15.38,0,0,1-2.31-.51,14.79,14.79,0,0,1-2.2-.87,15.92,15.92,0,0,1-2-1.2,13.82,13.82,0,0,1-1.82-1.5,14.61,14.61,0,0,1-1.57-1.77,16,16,0,0,1-1.27-2,14.82,14.82,0,0,1-.94-2.17,14,14,0,0,1-.59-2.29,14.28,14.28,0,0,1-.23-2.35,15.5,15.5,0,0,1,.14-2.36,14.27,14.27,0,0,1,.52-2.31,15.31,15.31,0,0,1,.86-2.19c.35-.71.75-1.39.95-1.74l.2-.34"/><path class="cls-40" d="M271.74,64.57l.35-.43c.36-.43,1.07-1.29,1.84-2.09a20.84,20.84,0,0,1,2.49-2.2,20.75,20.75,0,0,1,5.85-3.11c1.05-.37,2.13-.64,3.18-3.18s2.08-7.33,3.19-7.35,2.3,4.74,3.44,7.23,2.23,2.74,3.29,3.07a20.57,20.57,0,0,1,3.1,1.22,21,21,0,0,1,5.43,3.8A20.84,20.84,0,0,1,306.1,64a21.19,21.19,0,0,1,1.79,2.81,22.33,22.33,0,0,1,1.33,3,20.85,20.85,0,0,1,.83,3.22,21.57,21.57,0,0,1,.32,3.31,20.5,20.5,0,0,1-.21,3.32,20,20,0,0,1-.72,3.24,21.64,21.64,0,0,1-1.21,3.1,22.15,22.15,0,0,1-1.69,2.86,21.76,21.76,0,0,1-2.12,2.57,20,20,0,0,1-2.49,2.2,21,21,0,0,1-9.07,4,21.34,21.34,0,0,1-6.64.12,22.6,22.6,0,0,1-3.24-.72,22.93,22.93,0,0,1-3.1-1.22A21.34,21.34,0,0,1,274.45,92a20,20,0,0,1-2.2-2.49,20.46,20.46,0,0,1-1.79-2.8,21,21,0,0,1-2.16-6.27,21.69,21.69,0,0,1-.32-3.31,20.5,20.5,0,0,1,.21-3.32,20.07,20.07,0,0,1,.72-3.25,21.64,21.64,0,0,1,1.21-3.1c.49-1,1.06-2,1.34-2.43l.28-.48"/><path class="cls-41" d="M270,63.36l.39-.48c.39-.47,1.17-1.41,2-2.29a23.25,23.25,0,0,1,2.74-2.42,23.76,23.76,0,0,1,3.09-2,23.72,23.72,0,0,1,6.89-2.37,23.46,23.46,0,0,1,7.29-.13,24.2,24.2,0,0,1,3.57.79,24.74,24.74,0,0,1,3.4,1.34,23.68,23.68,0,0,1,3.15,1.86A23.26,23.26,0,0,1,305.36,60a22.39,22.39,0,0,1,2.42,2.73,22.75,22.75,0,0,1,2,3.09,23,23,0,0,1,2.37,6.89,23.46,23.46,0,0,1,.13,7.29,23.21,23.21,0,0,1-2.13,7,23.68,23.68,0,0,1-1.86,3.15,23.34,23.34,0,0,1-5.06,5.25,23.73,23.73,0,0,1-6.44,3.42c-1.15.4-2.34.7-3.45,6.25s-2.14,16.33-3.36,16.35-2.62-10.72-3.92-16.22-2.5-5.77-3.67-6.13a24.74,24.74,0,0,1-3.4-1.34,23.68,23.68,0,0,1-3.15-1.86,23.46,23.46,0,0,1-7.21-8.14,23.14,23.14,0,0,1-2.37-6.9,23.46,23.46,0,0,1-.13-7.29,24.49,24.49,0,0,1,.79-3.57,24.74,24.74,0,0,1,1.34-3.4c.54-1.09,1.16-2.15,1.47-2.68l.31-.52"/><path class="cls-42" d="M268.07,62l.43-.52c.43-.52,1.29-1.56,2.22-2.53a25.54,25.54,0,0,1,3-2.66,25,25,0,0,1,3.39-2.17,26.2,26.2,0,0,1,3.69-1.6,25.11,25.11,0,0,1,3.9-1,26.83,26.83,0,0,1,4-.39,25.76,25.76,0,0,1,4,.25,26.52,26.52,0,0,1,3.93.87,26,26,0,0,1,7.21,3.52A26.27,26.27,0,0,1,307,58.32a24.67,24.67,0,0,1,2.66,3,25.65,25.65,0,0,1,2.17,3.39,25.08,25.08,0,0,1,1.6,3.69c.44,1.27.78,2.58,4.32,3.84s10.3,2.49,10.32,3.84-6.68,2.8-10.18,4.19-3.79,2.7-4.18,4A25.08,25.08,0,0,1,312.23,88a25.65,25.65,0,0,1-2,3.47,26.27,26.27,0,0,1-2.56,3.11,25.62,25.62,0,0,1-3,2.67,26,26,0,0,1-3.39,2.16,25.87,25.87,0,0,1-7.59,2.61,25.35,25.35,0,0,1-8,.14,25.31,25.31,0,0,1-3.93-.87,26.63,26.63,0,0,1-3.74-1.47,25.71,25.71,0,0,1-3.47-2,26.27,26.27,0,0,1-3.11-2.56,25.34,25.34,0,0,1-2.66-3,25.75,25.75,0,0,1-2.17-3.4,25.87,25.87,0,0,1-2.61-7.59,26.83,26.83,0,0,1-.39-4,25.64,25.64,0,0,1,.25-4,26.25,26.25,0,0,1,.87-3.93,25.19,25.19,0,0,1,1.48-3.75c.58-1.21,1.27-2.37,1.61-3l.34-.58"/><path class="cls-43" d="M263.88,59.07l.52-.62c.51-.63,1.54-1.87,2.66-3a31.29,31.29,0,0,1,3.61-3.2,30.42,30.42,0,0,1,4.07-2.59,31,31,0,0,1,4.42-1.93,8,8,0,0,0,4.64-3c1.56-2.06,3.1-5.79,4.71-5.81s3.29,3.64,4.91,5.64a8.1,8.1,0,0,0,4.74,2.83,31,31,0,0,1,4.49,1.77,31.51,31.51,0,0,1,4.16,2.45,29.59,29.59,0,0,1,3.72,3.07,31.29,31.29,0,0,1,3.2,3.61,31,31,0,0,1,4.52,8.5,29.91,29.91,0,0,1,1.2,4.67,30.85,30.85,0,0,1,.47,4.8,29.94,29.94,0,0,1-.3,4.82,30.47,30.47,0,0,1-1,4.71,29.8,29.8,0,0,1-1.77,4.48,31.51,31.51,0,0,1-2.45,4.16,29.59,29.59,0,0,1-3.07,3.72,31.29,31.29,0,0,1-3.61,3.2,30.42,30.42,0,0,1-4.07,2.59,31,31,0,0,1-4.42,1.93,31.53,31.53,0,0,1-4.68,1.21,30.84,30.84,0,0,1-4.8.46,30.82,30.82,0,0,1-25.09-12.24A30.42,30.42,0,0,1,262,91.21a31,31,0,0,1-1.93-4.42,30.49,30.49,0,0,1-1.2-4.67,31.1,31.1,0,0,1-.47-4.81,29.74,29.74,0,0,1,.3-4.81,30.53,30.53,0,0,1,2.81-9.2c.71-1.45,1.53-2.84,1.94-3.54l.4-.69"/><path class="cls-44" d="M262.16,57.86l.55-.67c.55-.66,1.64-2,2.84-3.23a32.21,32.21,0,0,1,3.86-3.42,32.42,32.42,0,0,1,9.07-4.82,17.28,17.28,0,0,0,5-2.2c1.67-1.21,3.36-3.2,5.08-3.23s3.47,1.9,5.19,3.05a17.47,17.47,0,0,0,5,2,32.83,32.83,0,0,1,4.79,1.88A32.35,32.35,0,0,1,308,49.87a33,33,0,0,1,7.4,7.14,32.85,32.85,0,0,1,6.11,14.06,32.43,32.43,0,0,1,.18,10.28,33.2,33.2,0,0,1-1.11,5,34.66,34.66,0,0,1-1.89,4.8,33.59,33.59,0,0,1-2.62,4.44,33.23,33.23,0,0,1-7.14,7.39,33.93,33.93,0,0,1-4.34,2.77,33,33,0,0,1-4.73,2,32.08,32.08,0,0,1-5,1.29,32.43,32.43,0,0,1-10.28.18,33.47,33.47,0,0,1-5-1.11,34,34,0,0,1-4.79-1.89,33.07,33.07,0,0,1-4.45-2.62,31.86,31.86,0,0,1-4-3.28,32.21,32.21,0,0,1-3.42-3.86,33.25,33.25,0,0,1-2.77-4.34,33.61,33.61,0,0,1-2.05-4.73,33.25,33.25,0,0,1-1.29-5,32.37,32.37,0,0,1-.18-10.27,33.32,33.32,0,0,1,1.11-5,34,34,0,0,1,1.89-4.79c.76-1.55,1.63-3,2.07-3.78l.44-.74"/><path class="cls-45" d="M259.65,56.1l.6-.73c.6-.72,1.8-2.18,3.1-3.53a36.43,36.43,0,0,1,4.22-3.73,35.7,35.7,0,0,1,4.75-3,37.07,37.07,0,0,1,5.17-2.25,36.34,36.34,0,0,1,5.45-1.41,37.65,37.65,0,0,1,5.61-.54,36.41,36.41,0,0,1,5.62.35,35.78,35.78,0,0,1,5.5,1.22,36.3,36.3,0,0,1,5.24,2.06,35.37,35.37,0,0,1,4.86,2.86,35.84,35.84,0,0,1,8.07,7.8,34.72,34.72,0,0,1,3,4.75,35.92,35.92,0,0,1,2.25,5.17,35.87,35.87,0,0,1,1.95,11.06,35.21,35.21,0,0,1-.35,5.62,37,37,0,0,1-1.21,5.5,36.35,36.35,0,0,1-2.07,5.24,35.37,35.37,0,0,1-2.86,4.86,36.36,36.36,0,0,1-3.58,4.34,35.5,35.5,0,0,1-9,6.76,34.84,34.84,0,0,1-5.17,2.25,36.34,36.34,0,0,1-5.45,1.41,35.17,35.17,0,0,1-5.61.54,36.41,36.41,0,0,1-5.62-.34,37,37,0,0,1-5.5-1.22,35.9,35.9,0,0,1-14.44-8.51,37.48,37.48,0,0,1-3.74-4.22,36.19,36.19,0,0,1-5.27-9.92A50.36,50.36,0,0,0,253.28,83c-.88-1.84-2.15-3.7-2.18-5.58s1.17-3.78,2-5.65a47.3,47.3,0,0,0,1.76-5.51A36.35,36.35,0,0,1,256.91,61c.82-1.69,1.78-3.31,2.26-4.13l.48-.81"/><path class="cls-46" d="M257.18,54.37l.65-.79c.65-.79,1.94-2.36,3.36-3.83a39,39,0,0,1,4.57-4,38,38,0,0,1,5.15-3.28,39.2,39.2,0,0,1,5.6-2.44c1.93-.66,3.9-1.17,5.74-11S285.8.12,287.84.08s4.4,19,6.58,28.72S298.6,39,300.55,39.57a39.66,39.66,0,0,1,5.68,2.24,38.59,38.59,0,0,1,5.26,3.1,39.79,39.79,0,0,1,4.71,3.88,38.84,38.84,0,0,1,4,4.57A39.14,39.14,0,0,1,326,64.11,40.07,40.07,0,0,1,327.49,70a39.22,39.22,0,0,1,.21,12.17,39.14,39.14,0,0,1-1.32,6,39.66,39.66,0,0,1-2.24,5.68,38.59,38.59,0,0,1-3.1,5.26,38.08,38.08,0,0,1-3.88,4.71,38.68,38.68,0,0,1-9.72,7.33,39.15,39.15,0,0,1-11.51,4,38.75,38.75,0,0,1-6.08.58A38.84,38.84,0,0,1,277.8,114a39,39,0,0,1-10.94-5.34,39,39,0,0,1-8.76-8.45A40.06,40.06,0,0,1,254.82,95a39.15,39.15,0,0,1-2.43-5.6,39.75,39.75,0,0,1-1.53-5.91,39.21,39.21,0,0,1-.21-12.17,39.14,39.14,0,0,1,1.32-6,39.66,39.66,0,0,1,2.24-5.68c.89-1.83,1.93-3.59,2.45-4.47l.52-.88"/><path class="cls-47" d="M256.44,53.85l.66-.8c.67-.81,2-2.42,3.44-3.92a39.76,39.76,0,0,1,15.68-10,39.39,39.39,0,0,1,6-1.56,40.68,40.68,0,0,1,6.22-.6,39.85,39.85,0,0,1,12.33,1.73A39.82,39.82,0,0,1,312,44.17a40.84,40.84,0,0,1,4.82,4,39.76,39.76,0,0,1,10,15.68,39.39,39.39,0,0,1,1.56,6,40.68,40.68,0,0,1,.6,6.22,39.88,39.88,0,0,1-7.19,23.53,41.66,41.66,0,0,1-4,4.82,40.78,40.78,0,0,1-4.68,4.13,39.68,39.68,0,0,1-11,5.85,39.39,39.39,0,0,1-6,1.56,38.31,38.31,0,0,1-6.22.6,39.85,39.85,0,0,1-12.33-1.73,39.84,39.84,0,0,1-5.81-2.29,39.93,39.93,0,0,1-10.2-7.14,39.93,39.93,0,0,1-4.14-4.68,39.68,39.68,0,0,1-5.85-11c-.68-2-1.2-4-8.06-5.93s-20-3.79-20.08-5.88,13.08-4.39,19.86-6.57,7.24-4.22,7.85-6.21a40.3,40.3,0,0,1,2.29-5.81c.91-1.87,2-3.68,2.51-4.58l.53-.9"/><path class="cls-48" d="M246.34,46.78l.87-1.05c.87-1.06,2.61-3.17,4.5-5.13a52.48,52.48,0,0,1,6.13-5.41,52.16,52.16,0,0,1,14.38-7.65,51.77,51.77,0,0,1,16-2.83A52,52,0,0,1,319,34.12a50.68,50.68,0,0,1,6.31,5.2,51.59,51.59,0,0,1,5.41,6.12,50.53,50.53,0,0,1,4.39,6.89,52.11,52.11,0,0,1,5.31,15.4,52.91,52.91,0,0,1,.78,8.14A52.09,52.09,0,0,1,339,92a50.6,50.6,0,0,1-3,7.6,51.91,51.91,0,0,1-4.15,7.05,51.32,51.32,0,0,1-5.2,6.3,52.58,52.58,0,0,1-6.12,5.42,51.51,51.51,0,0,1-6.89,4.39,50.75,50.75,0,0,1-7.49,3.25,51.77,51.77,0,0,1-16.05,2.83A51.69,51.69,0,0,1,274,126.58a51.74,51.74,0,0,1-7.6-3,50.78,50.78,0,0,1-7-4.15,51.5,51.5,0,0,1-6.31-5.19,53.21,53.21,0,0,1-5.41-6.12,51.26,51.26,0,0,1-4.39-6.9,49.76,49.76,0,0,1-3.26-7.49c-.89-2.58-1.58-5.23-6.69-7.83s-14.66-5.16-14.7-7.89,9.4-5.62,14.42-8.4,5.61-5.45,6.4-8.06a51.74,51.74,0,0,1,3-7.6c1.2-2.45,2.58-4.81,3.28-6l.69-1.18"/><path class="cls-49" d="M245.86,46.45l.88-1.07c.88-1.07,2.64-3.2,4.56-5.18a51.85,51.85,0,0,1,6.18-5.48,54,54,0,0,1,7-4.44A52.92,52.92,0,0,1,280,24.92a51.66,51.66,0,0,1,8.23-.79,52.86,52.86,0,0,1,8.24.5,52.68,52.68,0,0,1,15.76,4.82,52.93,52.93,0,0,1,7.12,4.19,51.73,51.73,0,0,1,6.37,5.26,51.17,51.17,0,0,1,5.48,6.19,52.23,52.23,0,0,1,4.44,7A52.93,52.93,0,0,1,339,59.63a51.66,51.66,0,0,1,2.07,8,52.17,52.17,0,0,1,.29,16.48,52.8,52.8,0,0,1-9,22.87,52.72,52.72,0,0,1-26,19.59,52.53,52.53,0,0,1-16.23,2.86,52.85,52.85,0,0,1-16.31-2.3A52.12,52.12,0,0,1,259,119.91a52.17,52.17,0,0,1-11.85-11.44,52.34,52.34,0,0,1-4.44-7,53.63,53.63,0,0,1-3.3-7.58c-.89-2.61-1.59-5.28-3.57-8s-5.24-5.39-5.29-8.15,3.12-5.57,5-8.33S238,64,238.82,61.38a51.82,51.82,0,0,1,3-7.69c1.2-2.48,2.61-4.86,3.31-6l.7-1.19"/><path class="cls-50" d="M127.34,72.84l.18-.22c.18-.22.54-.65.93-1.05a10.15,10.15,0,0,1,2.67-2,10.54,10.54,0,0,1,1.54-.67,11.34,11.34,0,0,1,1.62-.42A10.61,10.61,0,0,1,136,68.3a11.61,11.61,0,0,1,1.67.1,10.24,10.24,0,0,1,1.64.37,10.52,10.52,0,0,1,1.56.61,10.36,10.36,0,0,1,2.74,1.92,10.29,10.29,0,0,1,1.12,1.26,11,11,0,0,1,1.57,3c.18.53.32,1.08,4.93,1.55s13.67.88,13.68,1.44-9,1.27-13.63,1.91-4.7,1.18-4.87,1.72a11.45,11.45,0,0,1-.61,1.56,10.89,10.89,0,0,1-.85,1.44,11.2,11.2,0,0,1-1.07,1.3,10.21,10.21,0,0,1-1.26,1.11,10,10,0,0,1-1.42.9,9.86,9.86,0,0,1-1.53.67,9.29,9.29,0,0,1-1.63.42,10.39,10.39,0,0,1-1.67.17,11.85,11.85,0,0,1-1.68-.11,11.72,11.72,0,0,1-1.64-.36,10.34,10.34,0,0,1-1.56-.62,9.9,9.9,0,0,1-1.44-.85,10.27,10.27,0,0,1-1.3-1.07,10.91,10.91,0,0,1-1.11-1.25,10,10,0,0,1-.9-1.42,9.56,9.56,0,0,1-.67-1.54,9.19,9.19,0,0,1-.42-1.62,10.63,10.63,0,0,1-.17-1.68,11.62,11.62,0,0,1,.11-1.67,11.42,11.42,0,0,1,.36-1.64,9.56,9.56,0,0,1,.62-1.56c.24-.51.53-1,.67-1.23l.14-.24"/><path class="cls-51" d="M123.67,70.27l.26-.31c.25-.31.76-.92,1.31-1.49A15.7,15.7,0,0,1,127,66.89a15.48,15.48,0,0,1,2-1.27,14.53,14.53,0,0,1,2.18-1c.75-.26,1.52-.46,2.22-5.1s1.34-13.7,2.13-13.71,1.75,9,2.61,13.63,1.64,4.78,2.4,5a17.62,17.62,0,0,1,2.22.87,16.22,16.22,0,0,1,2.05,1.21,15.62,15.62,0,0,1,1.83,1.51,15.8,15.8,0,0,1,1.58,1.79,15.37,15.37,0,0,1,1.27,2,14.53,14.53,0,0,1,.95,2.18,15.07,15.07,0,0,1,.6,2.31,15.59,15.59,0,0,1,.23,2.36,15.77,15.77,0,0,1-.15,2.38,15.5,15.5,0,0,1-.51,2.32,16.91,16.91,0,0,1-.87,2.21,15.54,15.54,0,0,1-1.21,2,15.72,15.72,0,0,1-1.51,1.84,14.79,14.79,0,0,1-1.79,1.57,14.44,14.44,0,0,1-2,1.28,15.62,15.62,0,0,1-2.18,1,14,14,0,0,1-2.31.59,14.4,14.4,0,0,1-2.36.23A14.56,14.56,0,0,1,134,94a15.54,15.54,0,0,1-2.32-.52,15,15,0,0,1-4.26-2.08A14.8,14.8,0,0,1,124,88.12a14.54,14.54,0,0,1-1.28-2,15.62,15.62,0,0,1-1-2.18,14.12,14.12,0,0,1-.59-2.3,15.28,15.28,0,0,1-.09-4.74,15.26,15.26,0,0,1,.52-2.32,15,15,0,0,1,.87-2.22c.35-.71.75-1.4,1-1.74l.2-.34"/><path class="cls-52" d="M122.34,69.33l.28-.34c.28-.34.84-1,1.45-1.65a17.14,17.14,0,0,1,2-1.74,17.38,17.38,0,0,1,2.22-1.42,17.87,17.87,0,0,1,2.42-1.05,18.35,18.35,0,0,1,2.55-.66,16.91,16.91,0,0,1,5.25-.09,16.16,16.16,0,0,1,2.57.57,17.23,17.23,0,0,1,4.72,2.3,16.89,16.89,0,0,1,3.77,3.65A16.08,16.08,0,0,1,151,71.12a17.75,17.75,0,0,1,1,2.41,19.11,19.11,0,0,1,.66,2.55,16.92,16.92,0,0,1,.09,5.25,16.16,16.16,0,0,1-.57,2.57,17.23,17.23,0,0,1-2.3,4.72,17.24,17.24,0,0,1-1.68,2,16.32,16.32,0,0,1-2,1.75A16,16,0,0,1,144,93.81a15.56,15.56,0,0,1-2.41,1,6.22,6.22,0,0,0-2.54,1.3c-.86.78-1.71,2.13-2.59,2.15s-1.78-1.31-2.66-2.06A6.27,6.27,0,0,0,131.24,95a16.5,16.5,0,0,1-4.72-2.3,16.88,16.88,0,0,1-3.78-3.64,17.3,17.3,0,0,1-1.41-2.22,15.67,15.67,0,0,1-1-2.42,15.92,15.92,0,0,1-.66-2.55,16.13,16.13,0,0,1-.09-5.25,16.16,16.16,0,0,1,.57-2.57,16.6,16.6,0,0,1,1-2.45c.39-.79.83-1.55,1.06-1.93l.22-.38"/><path class="cls-53" d="M118.45,66.61l.36-.44c.36-.43,1.08-1.3,1.86-2.11a21.55,21.55,0,0,1,2.53-2.24A20.66,20.66,0,0,1,126,60a21.85,21.85,0,0,1,3.1-1.35c1.06-.37,2.16-.65,3.17-6.28s1.95-16.62,3.08-16.64,2.44,10.92,3.65,16.52,2.31,5.84,3.39,6.17a21.06,21.06,0,0,1,6,3,20.47,20.47,0,0,1,2.6,2.15,21.46,21.46,0,0,1,2.24,2.52,20.76,20.76,0,0,1,1.81,2.85,21.7,21.7,0,0,1,2.2,6.36,22.35,22.35,0,0,1,.32,3.36,21,21,0,0,1-.21,3.37,20.68,20.68,0,0,1-.73,3.3,22.22,22.22,0,0,1-1.23,3.14,22.46,22.46,0,0,1-1.72,2.91,20.47,20.47,0,0,1-2.15,2.6,21.46,21.46,0,0,1-2.52,2.24A22.86,22.86,0,0,1,146.24,98a21.3,21.3,0,0,1-6.36,2.19,20,20,0,0,1-3.36.32,21,21,0,0,1-3.37-.2,21.84,21.84,0,0,1-3.3-.73,21.36,21.36,0,0,1-8.65-5.1A21.55,21.55,0,0,1,119,91.94a22.75,22.75,0,0,1-1.81-2.84A21.85,21.85,0,0,1,115.8,86a21.49,21.49,0,0,1-.84-3.27,19.91,19.91,0,0,1-.32-3.36,21.18,21.18,0,0,1,.2-3.37,21.4,21.4,0,0,1,2-6.43c.49-1,1.07-2,1.35-2.47l.29-.49"/><path class="cls-54" d="M118.14,66.39l.36-.44c.37-.45,1.1-1.33,1.9-2.16a22.09,22.09,0,0,1,5.47-4.12A21,21,0,0,1,129,58.3a22.17,22.17,0,0,1,3.32-.86,21.86,21.86,0,0,1,6.85-.12,22.59,22.59,0,0,1,6.55,2,22.56,22.56,0,0,1,3,1.75,22.08,22.08,0,0,1,2.65,2.18,23.05,23.05,0,0,1,2.27,2.57,22.59,22.59,0,0,1,1.85,2.9,21.43,21.43,0,0,1,1.37,3.15,22.61,22.61,0,0,1,.86,3.33,21.8,21.8,0,0,1,.12,6.84,21.46,21.46,0,0,1-.75,3.36,21.75,21.75,0,0,1-1.25,3.19,22.56,22.56,0,0,1-1.75,3,21.33,21.33,0,0,1-2.18,2.65,22.17,22.17,0,0,1-2.57,2.28,21.46,21.46,0,0,1-6,3.21c-1.09.38-2.2.67-3.27,4.3s-2.09,10.63-3.24,10.65-2.41-6.93-3.6-10.53-2.32-3.84-3.42-4.18a21.8,21.8,0,0,1-3.19-1.26,21.6,21.6,0,0,1-5.61-3.93,20.63,20.63,0,0,1-2.28-2.57,21.28,21.28,0,0,1-1.85-2.9,22,22,0,0,1-1.36-3.15,20,20,0,0,1-.86-3.32,21.86,21.86,0,0,1-.12-6.85,21.8,21.8,0,0,1,2-6.55c.5-1,1.08-2,1.38-2.51l.29-.5"/><path class="cls-55" d="M116.37,65.15l.4-.48c.4-.49,1.21-1.47,2.08-2.37a23.89,23.89,0,0,1,2.82-2.5,23.57,23.57,0,0,1,3.19-2A24.44,24.44,0,0,1,132,55.32a24.11,24.11,0,0,1,7.52-.13,24.3,24.3,0,0,1,7.19,2.2,24.21,24.21,0,0,1,6.16,4.32,23.83,23.83,0,0,1,6,9.46,24.17,24.17,0,0,1,.95,3.65,24.12,24.12,0,0,1,.13,7.52,24.57,24.57,0,0,1-.82,3.69,25.06,25.06,0,0,1-1.38,3.51,23.11,23.11,0,0,1-1.92,3.25,23.78,23.78,0,0,1-2.4,2.91,24.82,24.82,0,0,1-2.82,2.5,25.11,25.11,0,0,1-3.18,2,23.68,23.68,0,0,1-7.11,2.45,23.7,23.7,0,0,1-3.76.36,22.48,22.48,0,0,1-3.76-.23,24.54,24.54,0,0,1-3.69-.81,24.48,24.48,0,0,1-6.76-3.3,23.72,23.72,0,0,1-7.43-8.41,24.15,24.15,0,0,1-1.51-3.46c-.41-1.19-.72-2.41-4.06-3.59s-9.69-2.34-9.71-3.59,6.29-2.63,9.58-3.93,3.57-2.54,3.93-3.74a23.51,23.51,0,0,1,1.39-3.51c.55-1.13,1.19-2.22,1.51-2.76l.32-.55"/><path class="cls-56" d="M115.86,64.8l.41-.5c.41-.5,1.24-1.5,2.14-2.43a23.41,23.41,0,0,1,2.89-2.56,23.78,23.78,0,0,1,3.27-2.08,24.19,24.19,0,0,1,3.54-1.55c1.23-.42,2.48-.74,3.62-8.56S133.89,24,135.18,24s2.85,15.24,4.26,23,2.68,8,3.91,8.43a24.26,24.26,0,0,1,3.6,1.42,23.64,23.64,0,0,1,3.33,2,24.35,24.35,0,0,1,5.55,5.36,23.67,23.67,0,0,1,2.08,3.26,24.07,24.07,0,0,1,2.51,7.3,24.92,24.92,0,0,1,.14,7.71,24.68,24.68,0,0,1-2.26,7.38,24.75,24.75,0,0,1-4.42,6.32,26.15,26.15,0,0,1-2.9,2.56,24.66,24.66,0,0,1-3.26,2.08,25.38,25.38,0,0,1-3.55,1.54,24.3,24.3,0,0,1-3.75,1,24.52,24.52,0,0,1-7.71.13,24.28,24.28,0,0,1-7.38-2.25,25.27,25.27,0,0,1-3.33-2,24.36,24.36,0,0,1-3-2.47,25.18,25.18,0,0,1-2.56-2.89,24.76,24.76,0,0,1-2.08-3.27A25.26,25.26,0,0,1,112.83,87a24.6,24.6,0,0,1-1-3.75,24.52,24.52,0,0,1-.13-7.71A24.28,24.28,0,0,1,114,68.19c.57-1.16,1.22-2.28,1.55-2.83l.33-.56"/><path class="cls-57" d="M113.92,63.44l.45-.55c.45-.55,1.36-1.64,2.34-2.66a26.43,26.43,0,0,1,3.17-2.81,26.7,26.7,0,0,1,3.58-2.27,26.29,26.29,0,0,1,3.89-1.69,6.59,6.59,0,0,0,4.07-2.88c1.36-2,2.71-5.81,4.12-5.83s2.9,3.68,4.33,5.69A6.54,6.54,0,0,0,144,53.16,27.83,27.83,0,0,1,148,54.72a26.78,26.78,0,0,1,3.66,2.15,27.32,27.32,0,0,1,6.08,5.87A26.7,26.7,0,0,1,160,66.32a27.19,27.19,0,0,1,2.76,8,27,27,0,0,1,.4,4.22,26.05,26.05,0,0,1-.26,4.23A26.84,26.84,0,0,1,162,86.9a27.83,27.83,0,0,1-1.56,3.94,27.29,27.29,0,0,1-2.15,3.65,25.63,25.63,0,0,1-2.7,3.27,26.43,26.43,0,0,1-3.17,2.81,26.76,26.76,0,0,1-3.58,2.28,27.26,27.26,0,0,1-3.88,1.69,26.38,26.38,0,0,1-4.11,1.06,26.93,26.93,0,0,1-12.59-.77,26.63,26.63,0,0,1-3.94-1.55,27.29,27.29,0,0,1-3.65-2.15,27.32,27.32,0,0,1-6.08-5.87,26.76,26.76,0,0,1-2.28-3.58,27.38,27.38,0,0,1-1.69-3.89,26.26,26.26,0,0,1-1.06-4.1,26.82,26.82,0,0,1-.15-8.45,27.17,27.17,0,0,1,2.47-8.08c.62-1.28,1.34-2.5,1.7-3.11l.36-.61"/><path class="cls-58" d="M109.34,60.23l.54-.66c.55-.66,1.64-2,2.82-3.21A34.25,34.25,0,0,1,116.53,53a33.39,33.39,0,0,1,4.31-2.74,32.45,32.45,0,0,1,4.69-2c1.62-.56,3.27-1,4.95-1.71s3.36-1.75,5.06-1.78,3.43.94,5.13,1.6,3.37,1,5,1.54a32.11,32.11,0,0,1,9.16,4.47,32.33,32.33,0,0,1,3.95,3.25,33.39,33.39,0,0,1,3.39,3.83,32.8,32.8,0,0,1,4.78,9,31.29,31.29,0,0,1,1.28,5,32.66,32.66,0,0,1,.18,10.19,32.7,32.7,0,0,1-1.11,5,32,32,0,0,1-1.87,4.76,32.5,32.5,0,0,1-2.6,4.41,31.5,31.5,0,0,1-3.25,3.94,32.46,32.46,0,0,1-3.83,3.39,31.78,31.78,0,0,1-4.31,2.75,32.62,32.62,0,0,1-19.83,3.5,32.7,32.7,0,0,1-5-1.11,32,32,0,0,1-4.76-1.88,31.43,31.43,0,0,1-4.41-2.59,32.4,32.4,0,0,1-3.94-3.25,33.28,33.28,0,0,1-3.39-3.83,32.42,32.42,0,0,1-2.75-4.31,33.59,33.59,0,0,1-2-4.69,34,34,0,0,1-1.28-5,32.71,32.71,0,0,1-.18-10.2,32.56,32.56,0,0,1,3-9.75c.74-1.53,1.61-3,2-3.74l.43-.74"/><path class="cls-59" d="M109.18,60.12l.54-.67c.55-.66,1.65-2,2.84-3.23a33.14,33.14,0,0,1,8.19-6.17,34,34,0,0,1,4.72-2,32.88,32.88,0,0,1,15.23-1.47,33.22,33.22,0,0,1,5,1.12,32.71,32.71,0,0,1,4.78,1.88A34,34,0,0,1,155,52.14a33.56,33.56,0,0,1,4,3.28,32.74,32.74,0,0,1,3.4,3.85,32.23,32.23,0,0,1,2.77,4.34,33.37,33.37,0,0,1,2,4.71,32.94,32.94,0,0,1,1.29,5,33,33,0,0,1,.18,10.25,33.33,33.33,0,0,1-3,9.81A33.86,33.86,0,0,1,163,97.8,33,33,0,0,1,146.82,110a32.91,32.91,0,0,1-5,1.28,32.24,32.24,0,0,1-10.25.18,33.07,33.07,0,0,1-5-1.11A32.84,32.84,0,0,1,110,98.73a33.26,33.26,0,0,1-4.82-9.06,20.79,20.79,0,0,0-2.07-5c-1.08-1.67-2.81-3.36-2.84-5.08s1.64-3.46,2.66-5.17a20.58,20.58,0,0,0,1.9-5,31.67,31.67,0,0,1,1.89-4.78c.75-1.55,1.62-3,2.06-3.77l.44-.74"/><path class="cls-60" d="M107.48,58.93l.58-.71c.58-.7,1.75-2.12,3-3.43a34.37,34.37,0,0,1,4.09-3.62,35.26,35.26,0,0,1,4.61-2.94,33.85,33.85,0,0,1,5-2.18A7.92,7.92,0,0,0,130,42c1.75-3,3.48-8.48,5.31-8.51s3.74,5.4,5.6,8.32a7.93,7.93,0,0,0,5.38,3.84,35.19,35.19,0,0,1,9.8,4.78A34.67,34.67,0,0,1,164,58a34.61,34.61,0,0,1,2.94,4.61,34.2,34.2,0,0,1,2.18,5,35.86,35.86,0,0,1,1.37,5.3,34.2,34.2,0,0,1,.52,5.44,35.66,35.66,0,0,1-.33,5.46,35.13,35.13,0,0,1-1.18,5.34,35.56,35.56,0,0,1-4.78,9.8,35,35,0,0,1-3.48,4.21,34.9,34.9,0,0,1-8.71,6.57,36.48,36.48,0,0,1-5,2.18,35.86,35.86,0,0,1-5.3,1.37,34.69,34.69,0,0,1-16.24-1,34.57,34.57,0,0,1-5.08-2,35,35,0,0,1-4.72-2.78,34.12,34.12,0,0,1-4.21-3.48,33.59,33.59,0,0,1-3.63-4.09,35.26,35.26,0,0,1-2.94-4.61,36.08,36.08,0,0,1-2.18-5,35,35,0,0,1-1.56-16.19,35.3,35.3,0,0,1,3.19-10.43c.8-1.64,1.73-3.21,2.2-4l.46-.79"/><path class="cls-61" d="M106.83,58.47l.6-.72c.59-.72,1.78-2.16,3.08-3.51a35.09,35.09,0,0,1,4.19-3.7,35.29,35.29,0,0,1,9.84-5.24,8.62,8.62,0,0,0,5.37-3.76c1.8-2.68,3.58-7.59,5.45-7.62s3.81,4.81,5.7,7.43,3.72,3,5.5,3.57a35.67,35.67,0,0,1,10,4.89,36.72,36.72,0,0,1,4.32,3.55,35.89,35.89,0,0,1,3.7,4.19,35.54,35.54,0,0,1,5.24,9.85,37,37,0,0,1,1.4,5.41A36,36,0,0,1,171.43,84a35.55,35.55,0,0,1-3.26,10.66,35.74,35.74,0,0,1-6.39,9.13,36.92,36.92,0,0,1-4.19,3.71,35.86,35.86,0,0,1-9.85,5.23,34.66,34.66,0,0,1-5.41,1.4,35.55,35.55,0,0,1-11.15.2,36.46,36.46,0,0,1-5.46-1.21,37.44,37.44,0,0,1-5.2-2,35.84,35.84,0,0,1-4.82-2.84,35,35,0,0,1-4.31-3.56,35.58,35.58,0,0,1-8.94-14,35,35,0,0,1-1.4-5.41,35.58,35.58,0,0,1,1-16.61,37,37,0,0,1,2-5.2c.82-1.68,1.77-3.29,2.25-4.1l.47-.81"/><path class="cls-62" d="M106.7,58.38l.6-.72c.6-.73,1.79-2.18,3.1-3.52a35,35,0,0,1,8.94-6.74,35.64,35.64,0,0,1,5.15-2.24,8.24,8.24,0,0,0,5.39-4.07c1.8-3,3.58-8.5,5.45-8.53s3.84,5.41,5.75,8.33a8.21,8.21,0,0,0,5.53,3.88,36.06,36.06,0,0,1,5.22,2.06A35.73,35.73,0,0,1,161,53.25a35.53,35.53,0,0,1,3.73,4.21,36.5,36.5,0,0,1,3,4.74A35.17,35.17,0,0,1,170,67.35a36.4,36.4,0,0,1,1.41,5.43,37.52,37.52,0,0,1,.54,5.59,35.08,35.08,0,0,1-.35,5.61,35.51,35.51,0,0,1-1.21,5.48,36.64,36.64,0,0,1-2.06,5.23,35.82,35.82,0,0,1-15.37,15.91,35.17,35.17,0,0,1-5.15,2.24,35.22,35.22,0,0,1-11,1.94,35.08,35.08,0,0,1-5.61-.34,35.76,35.76,0,0,1-15.55-6.12,36.24,36.24,0,0,1-8-7.78,35.82,35.82,0,0,1-5.26-9.89,35.35,35.35,0,0,1-1.94-11,35,35,0,0,1,.34-5.6,36.84,36.84,0,0,1,1.21-5.49A36.06,36.06,0,0,1,104,63.31c.82-1.69,1.78-3.31,2.26-4.12l.47-.81"/><path class="cls-63" d="M105.33,57.42l.62-.76c.63-.76,1.88-2.28,3.24-3.69a37.88,37.88,0,0,1,4.41-3.89,37.36,37.36,0,0,1,21.89-7.54,38.48,38.48,0,0,1,5.87.36,37.72,37.72,0,0,1,5.74,1.27,38.26,38.26,0,0,1,5.46,2.16,36.79,36.79,0,0,1,5.07,3,37.46,37.46,0,0,1,11.59,13.1,36.74,36.74,0,0,1,2.34,5.39A37.47,37.47,0,0,1,173,72.49a37,37,0,0,1,.56,5.85,38.32,38.32,0,0,1-.36,5.87A37.46,37.46,0,0,1,172,90a37.92,37.92,0,0,1-2.16,5.47,37.39,37.39,0,0,1-3,5.07,38.61,38.61,0,0,1-3.74,4.53,37.3,37.3,0,0,1-14.75,9.4,37.44,37.44,0,0,1-5.69,1.47,37.16,37.16,0,0,1-11.72.21,37.48,37.48,0,0,1-5.74-1.28,36.75,36.75,0,0,1-5.47-2.15,37.06,37.06,0,0,1-9.6-6.72,38,38,0,0,1-3.9-4.41,37.07,37.07,0,0,1-3.16-5,38,38,0,0,1-2.34-5.4,14.09,14.09,0,0,0-2.88-5.66c-1.74-1.91-4.74-3.82-4.77-5.78s2.89-4,4.57-5.94A14.18,14.18,0,0,0,100.32,68a37.07,37.07,0,0,1,2.15-5.46c.86-1.77,1.86-3.46,2.36-4.31l.5-.85"/><path class="cls-64" d="M92.92,48.73l.87-1.06c.88-1.07,2.64-3.2,4.55-5.18a52.37,52.37,0,0,1,13.13-9.89A51.14,51.14,0,0,1,119,29.31a52.38,52.38,0,0,1,8-2.07,53.7,53.7,0,0,1,8.2-.79,51.6,51.6,0,0,1,8.24.51,52.83,52.83,0,0,1,8,1.78A52.45,52.45,0,0,1,166.29,36a53.17,53.17,0,0,1,6.36,5.24,52.66,52.66,0,0,1,9.89,13.14,51.14,51.14,0,0,1,3.29,7.56,51.7,51.7,0,0,0,3,8c1.45,2.69,3.65,5.4,3.7,8.15s-2.06,5.54-3.41,8.29a49.9,49.9,0,0,0-2.75,8.06,54.41,54.41,0,0,1-3,7.68,52.71,52.71,0,0,1-4.19,7.1A51.63,51.63,0,0,1,174,115.5a52.66,52.66,0,0,1-20.7,13.19,52.23,52.23,0,0,1-8,2.06,51.41,51.41,0,0,1-8.21.79,52.66,52.66,0,0,1-8.23-.5,51.43,51.43,0,0,1-8.05-1.79A52.3,52.3,0,0,1,99.64,116.8,52.56,52.56,0,0,1,86.45,96.11a52.35,52.35,0,0,1-2.06-8,51.28,51.28,0,0,1-.79-8.2,52.78,52.78,0,0,1,.5-8.24A52.8,52.8,0,0,1,88.91,56c1.2-2.47,2.6-4.85,3.3-6l.71-1.19"/></g></g></svg>