<svg xmlns="http://www.w3.org/2000/svg" viewBox="0 0 614.94 202.39"><defs><style>.cls-1,.cls-10,.cls-11,.cls-12,.cls-13,.cls-14,.cls-15,.cls-16,.cls-17,.cls-18,.cls-19,.cls-2,.cls-20,.cls-21,.cls-22,.cls-23,.cls-24,.cls-25,.cls-26,.cls-27,.cls-28,.cls-29,.cls-3,.cls-30,.cls-31,.cls-32,.cls-33,.cls-34,.cls-35,.cls-36,.cls-37,.cls-38,.cls-39,.cls-4,.cls-40,.cls-41,.cls-42,.cls-43,.cls-44,.cls-45,.cls-46,.cls-47,.cls-48,.cls-49,.cls-5,.cls-50,.cls-51,.cls-52,.cls-53,.cls-54,.cls-55,.cls-56,.cls-57,.cls-58,.cls-59,.cls-6,.cls-60,.cls-61,.cls-62,.cls-63,.cls-64,.cls-7,.cls-8,.cls-9{isolation:isolate;}.cls-10,.cls-11,.cls-12,.cls-13,.cls-14,.cls-15,.cls-16,.cls-17,.cls-18,.cls-19,.cls-2,.cls-20,.cls-21,.cls-22,.cls-23,.cls-24,.cls-25,.cls-26,.cls-27,.cls-28,.cls-29,.cls-3,.cls-30,.cls-31,.cls-32,.cls-33,.cls-34,.cls-35,.cls-36,.cls-37,.cls-38,.cls-39,.cls-4,.cls-40,.cls-41,.cls-42,.cls-43,.cls-44,.cls-45,.cls-46,.cls-47,.cls-48,.cls-49,.cls-5,.cls-50,.cls-51,.cls-52,.cls-53,.cls-54,.cls-55,.cls-56,.cls-57,.cls-58,.cls-59,.cls-6,.cls-60,.cls-61,.cls-62,.cls-63,.cls-64,.cls-7,.cls-8,.cls-9{fill:none;stroke:#000;opacity:0.7;}.cls-2{stroke-width:0.78px;}.cls-3{stroke-width:0.34px;}.cls-4{stroke-width:0.32px;}.cls-5{stroke-width:0.31px;}.cls-6{stroke-width:0.49px;}.cls-7{stroke-width:0.5px;}.cls-8{stroke-width:1.58px;}.cls-9{stroke-width:1.59px;}.cls-10{stroke-width:0.25px;}.cls-11{stroke-width:0.27px;}.cls-12{stroke-width:0.31px;}.cls-13{stroke-width:0.09px;}.cls-14{stroke-width:1.61px;}.cls-15{stroke-width:0.5px;}.cls-16{stroke-width:0.56px;}.cls-17{stroke-width:0.38px;}.cls-18{stroke-width:0.54px;}.cls-19{stroke-width:0.35px;}.cls-20{stroke-width:0.79px;}.cls-21{stroke-width:0.56px;}.cls-22{stroke-width:0.34px;}.cls-23{stroke-width:1.11px;}.cls-24{stroke-width:0.13px;}.cls-25{stroke-width:0.76px;}.cls-26{stroke-width:1.13px;}.cls-27{stroke-width:0.63px;}.cls-28{stroke-width:0.66px;}.cls-29{stroke-width:0.7px;}.cls-30{stroke-width:0.35px;}.cls-31{stroke-width:0.16px;}.cls-32{stroke-width:0.72px;}.cls-33{stroke-width:0.11px;}.cls-34{stroke-width:0.75px;}.cls-35{stroke-width:0.51px;}.cls-36{stroke-width:0.98px;}.cls-37{stroke-width:0.12px;}.cls-38{stroke-width:0.2px;}.cls-39{stroke-width:0.9px;}.cls-40{stroke-width:0.7px;}.cls-41{stroke-width:0.5px;}.cls-42{stroke-width:0.27px;}.cls-43{stroke-width:1.2px;}.cls-44{stroke-width:0.99px;}.cls-45{stroke-width:0.09px;}.cls-46{stroke-width:0.17px;}.cls-47{stroke-width:0.19px;}.cls-48{stroke-width:1.64px;}.cls-49{stroke-width:1.62px;}.cls-50{stroke-width:0.95px;}.cls-51{stroke-width:0.95px;}.cls-52{stroke-width:0.74px;}.cls-53{stroke-width:0.56px;}.cls-54{stroke-width:0.26px;}.cls-55{stroke-width:1.15px;}.cls-56{stroke-width:0.73px;}.cls-57{stroke-width:0.35px;}.cls-58{stroke-width:1.07px;}.cls-59{stroke-width:0.93px;}.cls-60{stroke-width:0.38px;}.cls-61{stroke-width:0.38px;}.cls-62{stroke-width:0.51px;}.cls-63{stroke-width:0.15px;}.cls-64{stroke-width:0.5px;}.cls-65{fill:#fff;opacity:0.67;}</style></defs><title>Asset 37artifact-radials-names-below-illus-white-blobs</title><g id="Layer_2" data-name="Layer 2"><g id="Layer_1-2" data-name="Layer 1"><g id="Head" class="cls-1"><g class="cls-1"><path d="M21,194.91v5.38l.06.05h.74v.45H19.42v-.45h.75l0-.05v-2.71H16.83v2.71l.05.05h.75v.45H15.24v-.45H16l.05-.05v-5.38l-.84-.49v-.1h2.54v.1l-.9.49v2.23h3.39v-2.23l-.9-.49v-.1h2.54v.1Z"/><path d="M26.13,198.57H23.38c0,1.31.68,1.78,1.58,1.78a2.37,2.37,0,0,0,1-.24l.11.2a2.32,2.32,0,0,1-1.55.58,1.91,1.91,0,0,1-1.94-2,2.09,2.09,0,0,1,2-2.24,1.49,1.49,0,0,1,1.58,1.63C26.15,198.34,26.14,198.45,26.13,198.57Zm-2.73-.36h2c0-.83-.33-1.2-.87-1.2S23.5,197.32,23.4,198.21Z"/><path d="M30.5,200.34v.45H29.16v-.41a2.36,2.36,0,0,1-1.32.51.93.93,0,0,1-1-.95c0-.92,1-1.26,2.32-1.32v-.31c0-.79-.18-1.16-.91-1.16a2.08,2.08,0,0,0-1.16.37l-.13-.23a2.12,2.12,0,0,1,1.56-.68,1.21,1.21,0,0,1,1.33,1.3v2.38l0,.05Zm-1.34-.13v-1.27c-.85.06-1.61.2-1.61.87,0,.39.27.56.65.56A3.39,3.39,0,0,0,29.16,200.21Z"/><path d="M35.69,200.34v.45H34.3v-.48a3.15,3.15,0,0,1-1.55.58c-1,0-1.56-1-1.56-2a2.07,2.07,0,0,1,2.07-2.26,2.4,2.4,0,0,1,1,.21v-2.21l-.67-.31v-.05l1.31-.63.06,0v6.64l0,.05Zm-1.39-.18v-2.54a1.21,1.21,0,0,0-1.14-.61c-.87,0-1.2.63-1.2,1.64s.35,1.65,1.21,1.65A4.52,4.52,0,0,0,34.3,200.16Z"/></g></g><g id="Arms" class="cls-1"><g class="cls-1"><path d="M116.37,199.7v.45h-2v-.45h.48l.05,0-.61-1.78h-2.18l-.64,1.78,0,0h.74v.45h-2.08v-.45h.69l0,0,2.26-6h.38l2.18,6,.05,0Zm-2.23-2.28-.91-2.65h0l-.94,2.65Z"/><path d="M119.86,196v.73a2.59,2.59,0,0,0-.51,0,4.75,4.75,0,0,0-1,.14v2.8l0,0h.75v.45H117v-.45h.6l0,0v-2.71l-.67-.32v-.05l1.21-.62,0,0,.1.68a3.19,3.19,0,0,1,1.31-.7A.46.46,0,0,1,119.86,196Z"/><path d="M127.46,199.7v.45h-2v-.45h.6l.05,0v-1.9c0-.85-.17-1.15-.87-1.15a4.61,4.61,0,0,0-1.09.15v0a1.7,1.7,0,0,1,0,.4v2.52l0,0h.6v.45h-2v-.45h.6l0,0v-1.9c0-.85-.17-1.15-.87-1.15a4.9,4.9,0,0,0-1.06.14v2.91l.05,0h.6v.45h-2v-.45h.6l0,0V197l-.67-.32v0l1.2-.62.06,0,.08.57a2.8,2.8,0,0,1,1.4-.6c.64,0,1,.22,1.16.64a2.94,2.94,0,0,1,1.46-.64c.87,0,1.24.42,1.24,1.17v2.52l0,0Z"/><path d="M128.19,200v-1h.05l.5.55a1.14,1.14,0,0,0,.8.36c.4,0,.68-.21.68-.57s-.48-.66-1-.94-1-.68-1-1.25.54-1.15,1.41-1.15a2.94,2.94,0,0,1,1.06.19v1h-.05l-.52-.58a.94.94,0,0,0-.65-.26.57.57,0,0,0-.65.56c0,.46.47.68.93.93s1.06.57,1.06,1.26a1.23,1.23,0,0,1-1.37,1.16A3.57,3.57,0,0,1,128.19,200Z"/></g></g><g id="Hands" class="cls-1"><g class="cls-1"><path d="M233.39,194.91v5.38l.05.05h.75v.45h-2.4v-.45h.75l.05-.05v-2.71H229.2v2.71l.05.05H230v.45h-2.39v-.45h.75l0-.05v-5.38l-.85-.49v-.1h2.54v.1l-.9.49v2.23h3.39v-2.23l-.9-.49v-.1h2.55v.1Z"/><path d="M238.79,200.34v.45h-1.35v-.41a2.31,2.31,0,0,1-1.31.51.93.93,0,0,1-1-.95c0-.92,1-1.26,2.31-1.32v-.31c0-.79-.18-1.16-.9-1.16a2.08,2.08,0,0,0-1.16.37l-.13-.23a2.12,2.12,0,0,1,1.56-.68,1.22,1.22,0,0,1,1.33,1.3v2.38l.05.05Zm-1.35-.13v-1.27c-.84.06-1.6.2-1.6.87,0,.39.27.56.65.56A3.32,3.32,0,0,0,237.44,200.21Z"/><path d="M244.13,200.34v.45h-2v-.45h.65l0-.05V198.4c0-.86-.18-1.15-.92-1.15a6.1,6.1,0,0,0-1.11.13v2.91l.05.05h.65v.45h-2v-.45H240l.05-.05v-2.71l-.66-.31v-.05l1.2-.62.06,0,.08.57a2.93,2.93,0,0,1,1.45-.59c.89,0,1.29.42,1.29,1.16v2.52l.05.05Z"/><path d="M249.32,200.34v.45h-1.39v-.48a3.15,3.15,0,0,1-1.55.58c-1,0-1.56-1-1.56-2a2.07,2.07,0,0,1,2.07-2.26,2.4,2.4,0,0,1,1,.21v-2.21l-.67-.31v-.05l1.3-.63.06,0v6.64l0,.05Zm-1.39-.18v-2.54a1.21,1.21,0,0,0-1.14-.61c-.88,0-1.2.63-1.2,1.64s.34,1.65,1.21,1.65A4.52,4.52,0,0,0,247.93,200.16Z"/><path d="M250.06,200.65v-1h.05l.5.55a1.17,1.17,0,0,0,.8.35c.4,0,.68-.21.68-.56s-.48-.66-1-.94-1-.68-1-1.26.54-1.14,1.41-1.14a2.94,2.94,0,0,1,1.06.19v1h-.05l-.52-.57a1,1,0,0,0-.66-.26.57.57,0,0,0-.64.55c0,.47.47.69.93.94s1.06.57,1.06,1.26a1.24,1.24,0,0,1-1.37,1.16A3.56,3.56,0,0,1,250.06,200.65Z"/></g></g><g id="Torso" class="cls-1"><g class="cls-1"><path d="M335.72,199.65h.75l0-.05v-5.53h-1.6l-.7,1.24h-.05v-1.69h5.5v1.69h-.06l-.7-1.24h-1.59v5.53l.05.05h.74v.45h-2.39Z"/><path d="M339.72,198.13a2.08,2.08,0,0,1,2.1-2.22,1.91,1.91,0,0,1,2,2.06,2.09,2.09,0,0,1-2.08,2.23A1.92,1.92,0,0,1,339.72,198.13Zm3.31.09c0-1.09-.59-1.91-1.37-1.91s-1.18.49-1.18,1.56.56,1.93,1.37,1.93S343,199.29,343,198.22Z"/><path d="M347.44,196v.73a2.59,2.59,0,0,0-.51-.05,4.6,4.6,0,0,0-1,.14v2.8l.05.05h.74v.45h-2.14v-.45h.6l.05-.05v-2.71l-.67-.32v0l1.21-.62.06,0,.1.68a3.1,3.1,0,0,1,1.3-.7A.46.46,0,0,1,347.44,196Z"/><path d="M348,200v-1.05H348l.5.55a1.12,1.12,0,0,0,.79.36c.41,0,.69-.21.69-.57s-.48-.66-1-.94-1-.68-1-1.25.54-1.15,1.41-1.15a2.94,2.94,0,0,1,1.06.19v1h-.05l-.52-.58a1,1,0,0,0-.66-.26.57.57,0,0,0-.64.56c0,.47.46.68.93.93s1.06.57,1.06,1.26a1.24,1.24,0,0,1-1.38,1.17A3.55,3.55,0,0,1,348,200Z"/><path d="M351.42,198.13a2.08,2.08,0,0,1,2.1-2.22,1.92,1.92,0,0,1,2,2.06,2.1,2.1,0,0,1-2.08,2.23A1.92,1.92,0,0,1,351.42,198.13Zm3.3.09c0-1.09-.58-1.91-1.36-1.91s-1.18.49-1.18,1.56.56,1.93,1.37,1.93S354.72,199.29,354.72,198.22Z"/></g></g><g id="Legs" class="cls-1"><g class="cls-1"><path d="M441.31,199.65h.75l.05-.05v-5.38l-.85-.5v-.1h2.54v.1l-.89.5v5.43h2.19l.63-1.2h.1v1.65h-4.52Z"/><path d="M450.19,197.87h-2.75c0,1.31.69,1.79,1.59,1.79a2.23,2.23,0,0,0,1-.25l.11.21a2.31,2.31,0,0,1-1.54.58,1.92,1.92,0,0,1-1.95-2.06,2.09,2.09,0,0,1,2-2.24,1.49,1.49,0,0,1,1.57,1.63C450.21,197.64,450.2,197.75,450.19,197.87Zm-2.73-.36h2c0-.82-.32-1.2-.86-1.2S447.56,196.62,447.46,197.51Z"/><path d="M455,196.7l-.94-.09a1.65,1.65,0,0,1-1.52,2.47,1.6,1.6,0,0,1-.65-.12.92.92,0,0,0-.21.51c0,.28.18.41,1.07.41H453c1.17,0,1.64.29,1.64.89,0,1.15-1.27,1.62-2.4,1.62-.86,0-1.47-.27-1.47-.86s.38-.73.7-1a.59.59,0,0,1-.49-.6c0-.4.39-.77.73-1a1.38,1.38,0,0,1-.72-1.27,1.65,1.65,0,0,1,1.71-1.7,1.55,1.55,0,0,1,1.14.43l1.15-.48Zm-3.3,3.85a1.44,1.44,0,0,0-.23.74c0,.53.36.75.91.75s1.63-.35,1.63-1c0-.34-.29-.49-.92-.49h-.74A4.19,4.19,0,0,1,451.72,200.55Zm1.84-2.92c0-.88-.39-1.39-.91-1.39s-.88.37-.88,1.15.33,1.35.89,1.35S453.56,198.41,453.56,197.63Z"/><path d="M455.56,200v-1.05h.05l.5.55a1.14,1.14,0,0,0,.8.36c.41,0,.69-.21.69-.57s-.48-.66-1-.94-1-.68-1-1.25.54-1.15,1.42-1.15a2.89,2.89,0,0,1,1,.19v1h0l-.51-.58a1,1,0,0,0-.66-.26.57.57,0,0,0-.65.56c0,.47.47.68.94.93s1,.57,1,1.26a1.23,1.23,0,0,1-1.37,1.17A3.56,3.56,0,0,1,455.56,200Z"/></g></g><g id="Feet" class="cls-1"><g class="cls-1"><path d="M568.06,193.62v1.64h0l-.69-1.19h-2.14v2.57h1.69l0,0v-.75h.45v2h-.45v-.74l0,0h-1.69v2.5l.06.06h1v.45h-2.61v-.45h.75l0-.05v-5.38l-.85-.5v-.1Z"/><path d="M571.93,197.87h-2.75c0,1.31.69,1.79,1.59,1.79a2.23,2.23,0,0,0,1-.25l.11.21a2.31,2.31,0,0,1-1.54.58,1.92,1.92,0,0,1-2-2.06,2.09,2.09,0,0,1,2-2.24,1.49,1.49,0,0,1,1.57,1.63C572,197.64,571.94,197.75,571.93,197.87Zm-2.73-.36h2c0-.82-.32-1.2-.86-1.2S569.3,196.62,569.2,197.51Z"/><path d="M576.22,197.87h-2.75c0,1.31.68,1.79,1.58,1.79a2.24,2.24,0,0,0,1-.25l.11.21a2.32,2.32,0,0,1-1.55.58,1.92,1.92,0,0,1-1.94-2.06,2.08,2.08,0,0,1,2-2.24,1.49,1.49,0,0,1,1.58,1.63C576.24,197.64,576.23,197.75,576.22,197.87Zm-2.73-.36h2c0-.82-.33-1.2-.87-1.2S573.59,196.62,573.49,197.51Z"/><path d="M577.39,198.93v-2.36l0,0h-.6v-.05l1.3-1.71h.05v1.31h1.34v.45h-1.34v1.86c0,1,.15,1.35.73,1.35a1.84,1.84,0,0,0,.65-.11l.11.21a2.09,2.09,0,0,1-1.14.37C577.73,200.2,577.39,199.88,577.39,198.93Z"/></g></g><path class="cls-2" d="M566.91,128.83l.11-.13a7.15,7.15,0,0,1,.56-.64,6.15,6.15,0,0,1,.77-.68,5.56,5.56,0,0,1,.87-.55,5.25,5.25,0,0,1,.94-.41,5.55,5.55,0,0,1,1-.26,6.6,6.6,0,0,1,2.05,0,6.9,6.9,0,0,1,1,.23,6.56,6.56,0,0,1,1,.37,7.81,7.81,0,0,1,.88.52,6.28,6.28,0,0,1,.79.66,5.43,5.43,0,0,1,.68.76,6.68,6.68,0,0,1,.55.87,5.58,5.58,0,0,1,.41.94,5.89,5.89,0,0,1,.26,1,6.91,6.91,0,0,1,.1,1,7,7,0,0,1-.06,1,7.25,7.25,0,0,1-.6,2,7,7,0,0,1-.52.88,6.38,6.38,0,0,1-.66.8,7.08,7.08,0,0,1-.76.68,7.94,7.94,0,0,1-.87.55,6.52,6.52,0,0,1-.94.41c-.33.11-.66.2-.95,3.12s-.53,8.69-.87,8.7-.78-5.75-1.17-8.66-.73-3-1.06-3.09a7,7,0,0,1-1-.38,6,6,0,0,1-.88-.52,6.3,6.3,0,0,1-.8-.65,8.32,8.32,0,0,1-.68-.77,6.41,6.41,0,0,1-.55-.87,6.07,6.07,0,0,1-.41-.94,6.54,6.54,0,0,1-.26-1,7,7,0,0,1-.09-1,5.88,5.88,0,0,1,.06-1,6.86,6.86,0,0,1,.22-1,6.61,6.61,0,0,1,.38-1c.15-.3.32-.6.41-.75l.09-.15"/><path class="cls-3" d="M565.27,127.69l.14-.17c.15-.18.43-.52.74-.84a9.35,9.35,0,0,1,1-.89,9,9,0,0,1,1.13-.72,8.89,8.89,0,0,1,2.53-.87,8.1,8.1,0,0,1,2.66,0,7.29,7.29,0,0,1,1.31.29,8.36,8.36,0,0,1,2.4,1.17,7.63,7.63,0,0,1,1,.85,8.48,8.48,0,0,1,.89,1,8.31,8.31,0,0,1,.72,1.13,7.48,7.48,0,0,1,.53,1.23c.15.42.26.85,1.58,1.27s3.85.82,3.86,1.27-2.51.93-3.81,1.4-1.4.9-1.54,1.33a8.19,8.19,0,0,1-.49,1.24,7.4,7.4,0,0,1-.68,1.15,7.71,7.71,0,0,1-.85,1,7.59,7.59,0,0,1-1,.88,8.31,8.31,0,0,1-1.13.72,8.48,8.48,0,0,1-1.23.54,9.38,9.38,0,0,1-1.29.33,8.51,8.51,0,0,1-4-.24,9.4,9.4,0,0,1-1.24-.49,8.28,8.28,0,0,1-1.15-.68,8.56,8.56,0,0,1-1-.85,8.29,8.29,0,0,1-.88-1,9,9,0,0,1-.72-1.13,8.14,8.14,0,0,1-.87-2.53,8.48,8.48,0,0,1,0-2.66,8.27,8.27,0,0,1,.29-1.31,9,9,0,0,1,.49-1.25c.2-.4.42-.78.54-1l.11-.19"/><path class="cls-4" d="M565,127.46l.15-.18c.15-.18.44-.54.77-.88a8.43,8.43,0,0,1,1-.92,8.17,8.17,0,0,1,1.18-.76,8.51,8.51,0,0,1,1.28-.55c.44-.16.9-.27,1.34-1.53s.86-3.65,1.33-3.65,1,2.36,1.46,3.6.94,1.34,1.39,1.48a10.3,10.3,0,0,1,1.3.51,11.26,11.26,0,0,1,1.21.71,8.64,8.64,0,0,1,2,1.94,9.86,9.86,0,0,1,.76,1.18,9.09,9.09,0,0,1,.55,1.29,7.88,7.88,0,0,1,.35,1.35,8.2,8.2,0,0,1,.14,1.4,8.12,8.12,0,0,1-.09,1.39,8,8,0,0,1-.3,1.37,9.74,9.74,0,0,1-.51,1.3,10.36,10.36,0,0,1-.71,1.21,10.21,10.21,0,0,1-.89,1.08,9.19,9.19,0,0,1-1.05.93,9.78,9.78,0,0,1-1.18.75,9.15,9.15,0,0,1-1.29.56,8.92,8.92,0,0,1-1.35.35,8.19,8.19,0,0,1-1.4.13,9.26,9.26,0,0,1-1.39-.08,10.44,10.44,0,0,1-1.37-.3,8.6,8.6,0,0,1-1.3-.52,8.15,8.15,0,0,1-1.21-.71,9.11,9.11,0,0,1-1.08-.89,7.76,7.76,0,0,1-.93-1.05,9.05,9.05,0,0,1-.75-1.18,8.56,8.56,0,0,1-.56-1.28,9,9,0,0,1-.35-1.36,8.08,8.08,0,0,1-.13-1.39,9.32,9.32,0,0,1,.08-1.4,10.8,10.8,0,0,1,.3-1.37,9,9,0,0,1,.52-1.3c.2-.42.44-.82.56-1l.12-.21"/><path class="cls-5" d="M564,126.82l.17-.2c.17-.21.5-.61.87-1a9.83,9.83,0,0,1,1.18-1,10.15,10.15,0,0,1,1.32-.84,9.78,9.78,0,0,1,1.45-.63c.5-.17,1-.3,1.5-1.55s1-3.62,1.51-3.63,1.09,2.34,1.63,3.57,1.06,1.35,1.56,1.5a10.45,10.45,0,0,1,1.47.58,10.31,10.31,0,0,1,1.36.8,10.53,10.53,0,0,1,1.21,1,10.67,10.67,0,0,1,1,1.18,10.43,10.43,0,0,1,1.47,2.77,10.09,10.09,0,0,1,.39,1.53,9.19,9.19,0,0,1,.16,1.57,11.82,11.82,0,0,1-.1,1.57,10.34,10.34,0,0,1-.34,1.54,10.82,10.82,0,0,1-.58,1.46,9.7,9.7,0,0,1-.8,1.36,10.64,10.64,0,0,1-1,1.22,11.7,11.7,0,0,1-1.18,1,9.68,9.68,0,0,1-1.33.85,10.77,10.77,0,0,1-1.44.62,9.07,9.07,0,0,1-1.53.4,10.3,10.3,0,0,1-1.57.15,10.26,10.26,0,0,1-3.11-.44,9.6,9.6,0,0,1-1.46-.57,9.7,9.7,0,0,1-1.36-.8,10.07,10.07,0,0,1-2.26-2.19,10.22,10.22,0,0,1-.85-1.32,10.9,10.9,0,0,1-.62-1.45,9.21,9.21,0,0,1-.4-1.52,10.43,10.43,0,0,1-.15-1.57,9.32,9.32,0,0,1,.1-1.58,8.9,8.9,0,0,1,.34-1.53,9.32,9.32,0,0,1,.57-1.47,13.16,13.16,0,0,1,.64-1.15l.13-.23"/><path class="cls-6" d="M562.89,126l.19-.23c.19-.23.58-.69,1-1.12a12.53,12.53,0,0,1,1.34-1.19,11.6,11.6,0,0,1,3.16-1.68,12.93,12.93,0,0,1,1.73-.45,11.52,11.52,0,0,1,3.58-.06,10.53,10.53,0,0,1,1.75.39,10.35,10.35,0,0,1,1.67.66,11.9,11.9,0,0,1,1.54.9,11.69,11.69,0,0,1,1.38,1.15,10.85,10.85,0,0,1,1.19,1.34,11.33,11.33,0,0,1,1,1.51,12.55,12.55,0,0,1,.72,1.64c.19.57.34,1.15,2.27,1.71s5.63,1.09,5.64,1.69-3.67,1.26-5.58,1.88-2,1.21-2.21,1.78a11.4,11.4,0,0,1-1.57,3.21,11.39,11.39,0,0,1-2.48,2.58,12.44,12.44,0,0,1-1.51,1,11.28,11.28,0,0,1-1.64.71,11.42,11.42,0,0,1-5.31.51,11.61,11.61,0,0,1-1.75-.38,12.6,12.6,0,0,1-1.67-.66,11.33,11.33,0,0,1-1.54-.91,11.7,11.7,0,0,1-1.39-1.14,12.53,12.53,0,0,1-1.19-1.34,11.44,11.44,0,0,1-1-1.52,11.61,11.61,0,0,1-1.16-3.37A11.52,11.52,0,0,1,561,131a11.61,11.61,0,0,1,.38-1.75,12.6,12.6,0,0,1,.66-1.67c.26-.53.57-1,.72-1.31l.15-.26"/><path class="cls-7" d="M562.84,126l.19-.23c.19-.23.57-.7,1-1.13a11.73,11.73,0,0,1,1.35-1.19,10.57,10.57,0,0,1,1.52-1,10.16,10.16,0,0,1,1.66-.72,10.59,10.59,0,0,1,1.74-.45,11,11,0,0,1,1.8-.18,12.08,12.08,0,0,1,1.8.11,13.51,13.51,0,0,1,1.76.39,11.41,11.41,0,0,1,1.67.67,11,11,0,0,1,1.56.91,11.48,11.48,0,0,1,2.58,2.5,10.57,10.57,0,0,1,1,1.52,10.06,10.06,0,0,1,.72,1.65,10.45,10.45,0,0,1,.45,1.75,10.75,10.75,0,0,1,.18,1.79,12,12,0,0,1-.11,1.8,12.82,12.82,0,0,1-.39,1.76,11.1,11.1,0,0,1-.67,1.68,11.44,11.44,0,0,1-.91,1.55,11.81,11.81,0,0,1-2.5,2.59,12.63,12.63,0,0,1-1.52,1,12.11,12.11,0,0,1-1.65.72,12.83,12.83,0,0,1-1.75.45,11.58,11.58,0,0,1-3.59.06,10.42,10.42,0,0,1-1.76-.39,12.21,12.21,0,0,1-1.68-.66,10.54,10.54,0,0,1-1.55-.92,10.16,10.16,0,0,1-1.39-1.14,10.93,10.93,0,0,1-1.2-1.35,12.63,12.63,0,0,1-1-1.52,12.24,12.24,0,0,1-.72-1.66c-.19-.57-.34-1.15-2.29-1.71s-5.69-1.1-5.7-1.7,3.71-1.27,5.64-1.89,2-1.22,2.23-1.8a12.6,12.6,0,0,1,.66-1.67c.26-.55.57-1.07.72-1.33l.16-.26"/><path class="cls-8" d="M557.77,122.43l.29-.35c.3-.36.89-1.08,1.53-1.74a17.23,17.23,0,0,1,2.07-1.84A18.92,18.92,0,0,1,564,117a18.38,18.38,0,0,1,2.54-1.1c.87-.3,1.77-.53,2.63-3.5s1.69-8.65,2.61-8.67,2,5.65,2.92,8.58,1.87,3.13,2.75,3.4a18.4,18.4,0,0,1,2.58,1,17.74,17.74,0,0,1,2.38,1.41,17.54,17.54,0,0,1,4,3.84,19.58,19.58,0,0,1,1.49,2.33,18.38,18.38,0,0,1,1.1,2.54,19.34,19.34,0,0,1,.7,2.69,18.15,18.15,0,0,1,.26,2.75,17.11,17.11,0,0,1-.17,2.77,17.94,17.94,0,0,1-1.61,5.28,18.5,18.5,0,0,1-1.41,2.39,18,18,0,0,1-1.76,2.14,18.16,18.16,0,0,1-4.41,3.32A18.43,18.43,0,0,1,578,149.3a18.1,18.1,0,0,1-5.44,1,19.72,19.72,0,0,1-2.77-.17,17.84,17.84,0,0,1-2.7-.6,16.88,16.88,0,0,1-2.58-1,16.47,16.47,0,0,1-2.39-1.41A18,18,0,0,1,560,145.3a17.15,17.15,0,0,1-1.83-2.07,16.84,16.84,0,0,1-1.49-2.34,18.43,18.43,0,0,1-1.11-2.54,17.57,17.57,0,0,1-.69-2.68,18.3,18.3,0,0,1-.27-2.76,19.81,19.81,0,0,1,.17-2.77,17.84,17.84,0,0,1,.6-2.7,17.3,17.3,0,0,1,1-2.58c.4-.83.87-1.63,1.11-2l.24-.4"/><path class="cls-9" d="M557.66,122.36,558,122c.3-.36.9-1.08,1.54-1.75a18.31,18.31,0,0,1,2.09-1.85,17.11,17.11,0,0,1,2.36-1.5,18.21,18.21,0,0,1,2.56-1.12,4.75,4.75,0,0,0,2.68-1.69c.9-1.16,1.8-3.24,2.73-3.25s1.9,2,2.84,3.15a4.76,4.76,0,0,0,2.74,1.6,17.42,17.42,0,0,1,5,2.44,18.3,18.3,0,0,1,2.15,1.78,16.75,16.75,0,0,1,1.85,2.09,17,17,0,0,1,1.5,2.35,18.21,18.21,0,0,1,1.12,2.56,19.47,19.47,0,0,1,.7,2.7,18.15,18.15,0,0,1,.09,5.57,18.09,18.09,0,0,1-.6,2.72,18.69,18.69,0,0,1-1,2.6,18,18,0,0,1-1.42,2.4,17.61,17.61,0,0,1-1.78,2.16,16.75,16.75,0,0,1-2.09,1.85,18,18,0,0,1-2.35,1.5,17.07,17.07,0,0,1-2.56,1.11,18.16,18.16,0,0,1-2.7.7,17.74,17.74,0,0,1-5.57.1,18.12,18.12,0,0,1-2.72-.61,17.53,17.53,0,0,1-2.6-1,17,17,0,0,1-2.4-1.42,17.54,17.54,0,0,1-2.16-1.77,18.31,18.31,0,0,1-1.85-2.09,18.1,18.1,0,0,1-1.5-2.36,17.07,17.07,0,0,1-1.11-2.56,17.84,17.84,0,0,1-.7-2.7,17.68,17.68,0,0,1-.1-5.56,18,18,0,0,1,.61-2.73,17.53,17.53,0,0,1,1-2.6c.41-.83.88-1.64,1.12-2l.24-.4"/><path class="cls-10" d="M557.48,122.24l.3-.37c.3-.36.91-1.09,1.56-1.77a17.09,17.09,0,0,1,2.12-1.87,17.45,17.45,0,0,1,2.38-1.52,18.62,18.62,0,0,1,2.59-1.13,18.22,18.22,0,0,1,2.73-.7,16.61,16.61,0,0,1,2.81-.27,17.65,17.65,0,0,1,2.82.17,17.2,17.2,0,0,1,2.76.61,17.49,17.49,0,0,1,5.06,2.47,18.69,18.69,0,0,1,2.18,1.79,17.84,17.84,0,0,1,1.87,2.12,17.45,17.45,0,0,1,1.52,2.38,18.62,18.62,0,0,1,1.13,2.59,18.34,18.34,0,0,1,.7,2.74,16.51,16.51,0,0,1,.27,2.81,17.8,17.8,0,0,1-.17,2.82,17.32,17.32,0,0,1-.61,2.75,17.13,17.13,0,0,1-1,2.63,18.1,18.1,0,0,1-1.43,2.44,18.69,18.69,0,0,1-1.79,2.18,19.83,19.83,0,0,1-2.12,1.87,18.39,18.39,0,0,1-2.38,1.51,17.5,17.5,0,0,1-2.59,1.13,16.24,16.24,0,0,0-2.73,1c-.92.51-1.85,1.29-2.79,1.31s-1.9-.73-2.84-1.21a16.22,16.22,0,0,0-2.76-1,17.09,17.09,0,0,1-2.63-1,18.1,18.1,0,0,1-2.44-1.43,17.94,17.94,0,0,1-4.05-3.92,18.39,18.39,0,0,1-1.51-2.38,17.5,17.5,0,0,1-1.13-2.59,18.25,18.25,0,0,1-.71-2.73,18.12,18.12,0,0,1-.1-5.63,18.38,18.38,0,0,1,.62-2.76,17.92,17.92,0,0,1,1-2.63c.41-.85.89-1.66,1.13-2.07l.24-.4"/><path class="cls-11" d="M556.84,121.79l.32-.38c.31-.38.94-1.14,1.62-1.85a17.82,17.82,0,0,1,2.21-2,17.41,17.41,0,0,1,2.48-1.59,19,19,0,0,1,2.7-1.17,18.77,18.77,0,0,1,2.86-.74,18.84,18.84,0,0,1,5.87-.1,18.42,18.42,0,0,1,5.62,1.71,20.9,20.9,0,0,1,2.54,1.5,18.57,18.57,0,0,1,4.22,4.08,18.1,18.1,0,0,1,1.59,2.49,18.5,18.5,0,0,1,1.17,2.7c.32.93.57,1.88,3.06,2.81s7.24,1.83,7.25,2.81-4.69,2-7.14,3.07-2.68,2-3,2.91a19,19,0,0,1-1.08,2.74,19.48,19.48,0,0,1-1.5,2.54,18.59,18.59,0,0,1-1.87,2.28,20.41,20.41,0,0,1-2.21,1.95,19,19,0,0,1-2.49,1.58,18.54,18.54,0,0,1-2.7,1.18,19.88,19.88,0,0,1-2.85.74,19.25,19.25,0,0,1-2.93.28,20.77,20.77,0,0,1-3-.18,18.88,18.88,0,0,1-5.61-1.72,17.47,17.47,0,0,1-2.54-1.5,18.34,18.34,0,0,1-4.23-4.08,18.27,18.27,0,0,1-1.58-2.48,19,19,0,0,1-1.18-2.7,20,20,0,0,1-.74-2.86,19.25,19.25,0,0,1-.28-2.93,20.63,20.63,0,0,1,.18-2.94,18.82,18.82,0,0,1,1.72-5.62c.43-.88.93-1.73,1.18-2.16l.25-.42"/><path class="cls-12" d="M555,120.49l.35-.43c.35-.42,1-1.28,1.82-2.07a20.49,20.49,0,0,1,2.47-2.18,20.81,20.81,0,0,1,2.78-1.78,21.31,21.31,0,0,1,3-1.31,20.6,20.6,0,0,1,3.2-.83,21.19,21.19,0,0,1,3.28-.32,20.13,20.13,0,0,1,3.29.21,20.91,20.91,0,0,1,3.23.71,21.28,21.28,0,0,1,3.07,1.21,20.72,20.72,0,0,1,2.84,1.67,22.41,22.41,0,0,1,2.55,2.1,22.14,22.14,0,0,1,2.18,2.47,20.83,20.83,0,0,1,3.09,5.81,21.1,21.1,0,0,1,1.15,6.49,20.13,20.13,0,0,1-.21,3.29,20.79,20.79,0,0,1-.71,3.22,21.38,21.38,0,0,1-2.88,5.92,22.3,22.3,0,0,1-2.1,2.54,21.46,21.46,0,0,1-2.48,2.19,20.12,20.12,0,0,1-2.78,1.77,20.77,20.77,0,0,1-3,1.32A10.84,10.84,0,0,0,576,153.9c-1.07.78-2.15,2-3.25,2.07s-2.23-1.22-3.33-2a11.51,11.51,0,0,0-3.23-1.3,21.23,21.23,0,0,1-3.07-1.2,22.66,22.66,0,0,1-2.85-1.68,21.36,21.36,0,0,1-4.73-4.57,20.74,20.74,0,0,1-1.77-2.78,21.37,21.37,0,0,1-1.32-3,20.57,20.57,0,0,1-.82-3.2,20,20,0,0,1-.32-3.28,21.3,21.3,0,0,1,.2-3.29,20.91,20.91,0,0,1,.71-3.23,22.5,22.5,0,0,1,1.21-3.07c.49-1,1-1.94,1.33-2.41l.28-.48"/><path class="cls-13" d="M554.67,120.27l.36-.44c.36-.43,1.07-1.3,1.85-2.1a20.51,20.51,0,0,1,2.52-2.23,22.63,22.63,0,0,1,2.83-1.81,22.88,22.88,0,0,1,3.09-1.34,4.65,4.65,0,0,0,3.22-2.69c1.07-2,2.12-5.85,3.24-5.87s2.31,3.75,3.46,5.76a4.65,4.65,0,0,0,3.31,2.57,21,21,0,0,1,3.13,1.24,22.09,22.09,0,0,1,2.89,1.7,20.44,20.44,0,0,1,2.59,2.14,21.18,21.18,0,0,1,2.23,2.51,21.38,21.38,0,0,1,4,9.17,22.21,22.21,0,0,1,.32,3.35,20.87,20.87,0,0,1-.21,3.35,21.56,21.56,0,0,1-.72,3.28,20.59,20.59,0,0,1-1.24,3.13,20.85,20.85,0,0,1-1.7,2.89,21.27,21.27,0,0,1-2.14,2.6,22,22,0,0,1-2.51,2.22,21.38,21.38,0,0,1-9.17,4,21,21,0,0,1-3.35.32,22.08,22.08,0,0,1-3.35-.2,21.65,21.65,0,0,1-6.41-2,20.62,20.62,0,0,1-2.9-1.71,21.87,21.87,0,0,1-2.59-2.13,21.29,21.29,0,0,1-2.22-2.52,21.38,21.38,0,0,1-4-9.17,20.76,20.76,0,0,1-.32-3.34,22.13,22.13,0,0,1,.2-3.36,21.59,21.59,0,0,1,.73-3.28,22.1,22.1,0,0,1,1.23-3.13c.49-1,1.06-2,1.35-2.46l.28-.48"/><path class="cls-14" d="M551.38,118l.42-.52c.43-.51,1.27-1.54,2.2-2.5a24.23,24.23,0,0,1,3-2.64,26.23,26.23,0,0,1,3.36-2.15,27,27,0,0,1,3.66-1.59,32.78,32.78,0,0,0,3.86-1.39c1.3-.62,2.62-1.53,4-1.55s2.67.84,4,1.42a35.82,35.82,0,0,0,3.9,1.25,25.75,25.75,0,0,1,3.71,1.46,24.27,24.27,0,0,1,3.44,2,25.46,25.46,0,0,1,7.87,8.89,26.86,26.86,0,0,1,1.59,3.65,27.14,27.14,0,0,1,1,3.87,26.42,26.42,0,0,1,.38,4,25.26,25.26,0,0,1-.25,4,24.92,24.92,0,0,1-.86,3.9,26.21,26.21,0,0,1-1.46,3.71,24.73,24.73,0,0,1-2,3.43,24.24,24.24,0,0,1-2.53,3.08,25.87,25.87,0,0,1-3,2.65,25.76,25.76,0,0,1-7,3.73,25.87,25.87,0,0,1-3.87,1,25.64,25.64,0,0,1-8,.14,27.42,27.42,0,0,1-3.9-.86,25.11,25.11,0,0,1-3.71-1.47,25.7,25.7,0,0,1-3.43-2A25.63,25.63,0,0,1,552,147.9a25.12,25.12,0,0,1-2.14-3.36,24.69,24.69,0,0,1-1.59-3.66,25.75,25.75,0,0,1-1-3.86,25.7,25.7,0,0,1-.14-8,27.29,27.29,0,0,1,.86-3.89,24.68,24.68,0,0,1,1.47-3.71c.58-1.2,1.26-2.35,1.6-2.93l.34-.57"/><path class="cls-15" d="M549.78,116.84l.46-.55c.46-.56,1.37-1.66,2.37-2.69a27.13,27.13,0,0,1,3.21-2.85,29.18,29.18,0,0,1,3.62-2.31,28.6,28.6,0,0,1,3.94-1.71,8.39,8.39,0,0,0,4.13-2.34c1.39-1.51,2.78-4.17,4.21-4.2s2.91,2.59,4.35,4a8.51,8.51,0,0,0,4.22,2.2,27.26,27.26,0,0,1,7.69,3.75,27.9,27.9,0,0,1,3.31,2.73,27.23,27.23,0,0,1,2.85,3.22,27.25,27.25,0,0,1,4,7.55,28.54,28.54,0,0,1,1.07,4.16,27.51,27.51,0,0,1,.15,8.56,27.63,27.63,0,0,1-2.5,8.19,28.7,28.7,0,0,1-2.18,3.7,27.9,27.9,0,0,1-2.73,3.31,27.15,27.15,0,0,1-3.22,2.84,25.81,25.81,0,0,1-3.62,2.31,26.84,26.84,0,0,1-3.93,1.71,27.35,27.35,0,0,1-4.16,1.08,27.51,27.51,0,0,1-8.56.15A27.67,27.67,0,0,1,556.59,155a28,28,0,0,1-3.31-2.74,27.47,27.47,0,0,1-5.15-6.83,27.43,27.43,0,0,1-1.71-3.94,27,27,0,0,1-1.08-4.16,27.51,27.51,0,0,1-.15-8.56,27.08,27.08,0,0,1,2.51-8.18c.62-1.29,1.35-2.53,1.72-3.15l.36-.62"/><path class="cls-16" d="M549.73,116.81l.46-.56c.46-.55,1.37-1.66,2.37-2.7a29,29,0,0,1,3.22-2.85,27.62,27.62,0,0,1,7.58-4,6.48,6.48,0,0,0,4.13-3c1.38-2.14,2.75-6.06,4.19-6.08s2.94,3.84,4.39,5.93a6.55,6.55,0,0,0,4.24,2.82,27.48,27.48,0,0,1,4,1.58,27.09,27.09,0,0,1,3.71,2.18,27.92,27.92,0,0,1,3.32,2.74,27.29,27.29,0,0,1,5.16,6.85,26.84,26.84,0,0,1,2.79,8.11,26.84,26.84,0,0,1,.15,8.58,27.2,27.2,0,0,1-2.51,8.2,27.09,27.09,0,0,1-2.18,3.71,27.38,27.38,0,0,1-9.59,8.48,27.23,27.23,0,0,1-8.11,2.8,27.94,27.94,0,0,1-4.28.41,26.85,26.85,0,0,1-4.3-.26,27.36,27.36,0,0,1-11.91-4.7,26.33,26.33,0,0,1-3.32-2.73,28,28,0,0,1-2.85-3.22,27.49,27.49,0,0,1-5.11-11.75,27.58,27.58,0,0,1-.15-8.57,27.15,27.15,0,0,1,2.51-8.21c.63-1.29,1.36-2.53,1.73-3.15l.36-.62"/><path class="cls-17" d="M549.37,116.56l.47-.57c.46-.56,1.39-1.69,2.41-2.74a28.13,28.13,0,0,1,3.27-2.9,28.43,28.43,0,0,1,3.69-2.35,28.23,28.23,0,0,1,8.24-2.84,27.72,27.72,0,0,1,8.72-.15,28.19,28.19,0,0,1,8.33,2.55,28,28,0,0,1,3.77,2.22,28.93,28.93,0,0,1,3.37,2.78,28.13,28.13,0,0,1,2.9,3.27,28.43,28.43,0,0,1,2.35,3.69,27.92,27.92,0,0,1,1.74,4,28.28,28.28,0,0,1,1.1,4.23,27.73,27.73,0,0,1,.15,8.72,27.4,27.4,0,0,1-1,4.27,27.72,27.72,0,0,1-1.6,4.07,27.29,27.29,0,0,1-2.22,3.76,28.22,28.22,0,0,1-2.78,3.38,27.91,27.91,0,0,1-7,5.24,27.47,27.47,0,0,1-8.24,2.84,29,29,0,0,1-4.36.42,26.53,26.53,0,0,1-4.36-.27,28.56,28.56,0,0,1-4.27-.94,28.93,28.93,0,0,1-4.07-1.61,28.27,28.27,0,0,1-3.76-2.21,27.91,27.91,0,0,1-8.62-9.75,28,28,0,0,1-1.75-4c-.47-1.38-.84-2.79-7.06-4.13s-18.3-2.58-18.32-4,12-3.13,18.17-4.68,6.49-3,6.91-4.37a28,28,0,0,1,1.61-4.07c.64-1.31,1.38-2.57,1.75-3.2l.37-.63"/><path class="cls-18" d="M546.67,114.66l.52-.63c.52-.63,1.56-1.89,2.69-3.06a31.18,31.18,0,0,1,3.66-3.24,32.4,32.4,0,0,1,4.13-2.63,31.78,31.78,0,0,1,4.48-1.95,7.79,7.79,0,0,0,4.69-3.18c1.58-2.25,3.14-6.33,4.77-6.36s3.33,4,5,6.19a7.8,7.8,0,0,0,4.8,3,31.17,31.17,0,0,1,15.77,11,31,31,0,0,1,4.58,8.6,31,31,0,0,1,1.22,4.73,31.87,31.87,0,0,1,.47,4.87,30.68,30.68,0,0,1-.3,4.88,31.27,31.27,0,0,1-1.06,4.77,30.05,30.05,0,0,1-1.79,4.55,30.77,30.77,0,0,1-2.48,4.21,30.23,30.23,0,0,1-3.11,3.77,31.29,31.29,0,0,1-3.66,3.24,31.37,31.37,0,0,1-8.6,4.57,32.23,32.23,0,0,1-4.73,1.23,30.64,30.64,0,0,1-4.87.46,31.89,31.89,0,0,1-4.88-.29,31.27,31.27,0,0,1-4.77-1.06,32.31,32.31,0,0,1-4.55-1.79,33,33,0,0,1-4.21-2.48,31.28,31.28,0,0,1-7-6.77,31.27,31.27,0,0,1-2.62-4.13,30.66,30.66,0,0,1-1.95-4.48,31.91,31.91,0,0,1-1.23-4.73,30.52,30.52,0,0,1-.46-4.86,31.82,31.82,0,0,1,.29-4.88,31,31,0,0,1,1.06-4.77,31.84,31.84,0,0,1,1.79-4.55c.72-1.47,1.55-2.88,2-3.58l.42-.71"/><path class="cls-19" d="M546.61,114.62l.52-.63c.53-.63,1.57-1.9,2.7-3.07a31.09,31.09,0,0,1,7.8-5.88,30.89,30.89,0,0,1,4.5-2,31.07,31.07,0,0,1,9.61-1.7,30.73,30.73,0,0,1,4.89.3,31.09,31.09,0,0,1,9.34,2.86c1.47.71,2.88,1.55,7.77-1.19s13.25-9,14.42-7.91-4.83,9.71-7.4,14.69-1.68,6.36-.91,7.81a30.31,30.31,0,0,1,1.95,4.49,31.07,31.07,0,0,1,1.7,9.62,30.81,30.81,0,0,1-.3,4.89,31.09,31.09,0,0,1-2.86,9.34,31.93,31.93,0,0,1-2.48,4.22,31.32,31.32,0,0,1-3.12,3.78,30.59,30.59,0,0,1-3.67,3.24,29.16,29.16,0,0,1-4.13,2.63,31.45,31.45,0,0,1-4.49,2,31.11,31.11,0,0,1-4.74,1.22,31.19,31.19,0,0,1-9.77.17,30,30,0,0,1-4.78-1.06,31.26,31.26,0,0,1-4.56-1.79,31.05,31.05,0,0,1-11.24-9.27,30.34,30.34,0,0,1-2.63-4.13,32.07,32.07,0,0,1-2-4.5,31.23,31.23,0,0,1-1.39-14.5,30,30,0,0,1,1.06-4.78,30.82,30.82,0,0,1,1.79-4.56c.72-1.47,1.55-2.88,2-3.59l.41-.71"/><path class="cls-20" d="M544.9,113.43l.56-.68c.55-.67,1.67-2,2.88-3.28a33.82,33.82,0,0,1,3.91-3.46,33.18,33.18,0,0,1,9.2-4.89,32.7,32.7,0,0,1,5.06-1.31,33.25,33.25,0,0,1,10.41-.18,32.68,32.68,0,0,1,5.1,1.13,32.3,32.3,0,0,1,4.86,1.92,32.88,32.88,0,0,1,4.51,2.65,34.5,34.5,0,0,1,4,3.32,33.29,33.29,0,0,1,6.27,8.32,33.33,33.33,0,0,1,2.08,4.79,8.07,8.07,0,0,0,3.55,5c2.55,1.68,7.2,3.34,7.23,5.08s-4.56,3.57-7,5.34a8,8,0,0,0-3.37,5.14,33.16,33.16,0,0,1-1.92,4.86,33.26,33.26,0,0,1-9.88,12,33.91,33.91,0,0,1-4.41,2.81,32.25,32.25,0,0,1-4.79,2.08,33.28,33.28,0,0,1-15.48,1.49,33.2,33.2,0,0,1-5.1-1.13,34.27,34.27,0,0,1-4.86-1.91,33.82,33.82,0,0,1-4.5-2.65,33.38,33.38,0,0,1-10.3-11.65,32.25,32.25,0,0,1-2.08-4.79,32.7,32.7,0,0,1-1.31-5.06,33.25,33.25,0,0,1-.18-10.41,32.68,32.68,0,0,1,1.13-5.1,33.36,33.36,0,0,1,1.91-4.86c.77-1.57,1.65-3.08,2.1-3.83l.44-.75"/><path class="cls-21" d="M544.5,113.15l.56-.69c.57-.68,1.7-2,2.93-3.33a33.21,33.21,0,0,1,4-3.51,33.58,33.58,0,0,1,9.33-5,13.46,13.46,0,0,0,5.11-2.53c1.72-1.52,3.45-4.1,5.21-4.13s3.59,2.49,5.36,3.94a13.4,13.4,0,0,0,5.2,2.36,33.77,33.77,0,0,1,9.5,4.63,33.65,33.65,0,0,1,7.6,7.34,33.58,33.58,0,0,1,5,9.33,33.74,33.74,0,0,1,1.33,5.14,34.45,34.45,0,0,1,.51,5.27,33.41,33.41,0,0,1-.33,5.29A33.82,33.82,0,0,1,600,152a33,33,0,0,1-3.37,4.09,33.9,33.9,0,0,1-4,3.51,33.58,33.58,0,0,1-9.33,5,32.61,32.61,0,0,1-5.14,1.33,33.24,33.24,0,0,1-5.27.51,34.63,34.63,0,0,1-5.29-.32,33.72,33.72,0,0,1-5.18-1.15,33.77,33.77,0,0,1-9.5-4.63,34,34,0,0,1-4.09-3.38,32.35,32.35,0,0,1-3.51-4,33.58,33.58,0,0,1-5-9.33,32.49,32.49,0,0,1-1.33-5.13,33.36,33.36,0,0,1-.51-5.28,34.63,34.63,0,0,1,.32-5.29,34.25,34.25,0,0,1,1.15-5.18,34.8,34.8,0,0,1,1.94-4.93c.78-1.59,1.68-3.12,2.13-3.88l.45-.76"/><path class="cls-22" d="M541.75,111.22l.62-.75c.62-.75,1.86-2.26,3.21-3.66A37.11,37.11,0,0,1,560.2,97.5c1.84-.63,3.73-1.12,5.61-3.5s3.74-6.64,5.69-6.68,4,4.17,5.92,6.48,3.86,2.73,5.72,3.3a36.55,36.55,0,0,1,5.42,2.14,37.08,37.08,0,0,1,5,3,37.14,37.14,0,0,1,11.49,13,37.43,37.43,0,0,1,3.78,11,38.74,38.74,0,0,1,.56,5.79,37.75,37.75,0,0,1-.36,5.82,36.89,36.89,0,0,1-3.4,11.11,38.35,38.35,0,0,1-2.95,5,38,38,0,0,1-3.71,4.49,36.92,36.92,0,0,1-14.62,9.31,37.14,37.14,0,0,1-11.43,2,37.75,37.75,0,0,1-5.82-.36,37.07,37.07,0,0,1-5.69-1.26A38.1,38.1,0,0,1,556,166a37.33,37.33,0,0,1-5-3,36.93,36.93,0,0,1-4.49-3.7,37.39,37.39,0,0,1-7-9.28,37.24,37.24,0,0,1-3.78-11,36.51,36.51,0,0,1-.56-5.8,37.62,37.62,0,0,1,.36-5.81,36.81,36.81,0,0,1,1.26-5.69,37.63,37.63,0,0,1,2.13-5.42c.85-1.75,1.84-3.43,2.34-4.27l.49-.84"/><path class="cls-23" d="M318.06,118.09l.56-.67c.55-.67,1.66-2,2.86-3.27a34.49,34.49,0,0,1,3.9-3.45,33.55,33.55,0,0,1,4.39-2.79,33.1,33.1,0,0,1,4.77-2.08,8.53,8.53,0,0,0,5-3.29c1.67-2.29,3.34-6.44,5.07-6.47s3.55,4.06,5.3,6.29a8.6,8.6,0,0,0,5.12,3.12,32.4,32.4,0,0,1,4.84,1.9,33.32,33.32,0,0,1,8.5,6,34.49,34.49,0,0,1,3.45,3.9,33.55,33.55,0,0,1,2.79,4.39,33.1,33.1,0,0,1,2.08,4.77,32.72,32.72,0,0,1,1.3,5,33.4,33.4,0,0,1,.5,5.18,32.28,32.28,0,0,1-.32,5.2,32.66,32.66,0,0,1-1.12,5.08,33.09,33.09,0,0,1-16.15,19.58,33.1,33.1,0,0,1-4.77,2.08,33.35,33.35,0,0,1-10.22,1.8,32.16,32.16,0,0,1-5.19-.32,33.86,33.86,0,0,1-5.08-1.12,33.12,33.12,0,0,1-9.33-4.55,34.49,34.49,0,0,1-4-3.31,32.95,32.95,0,0,1-6.24-8.29A33.1,33.1,0,0,1,314,148a33.12,33.12,0,0,1-1.48-15.41,33.07,33.07,0,0,1,1.13-5.09,32.4,32.4,0,0,1,1.9-4.84c.76-1.56,1.65-3.06,2.09-3.81l.44-.75"/><path class="cls-24" d="M436.88,124.49l.27-.34c.28-.33.83-1,1.44-1.63a16.68,16.68,0,0,1,1.94-1.72,16.18,16.18,0,0,1,2.19-1.39,16.66,16.66,0,0,1,2.38-1,17,17,0,0,1,2.52-.65,17.21,17.21,0,0,1,2.59-.25,16.09,16.09,0,0,1,2.59.16,16.93,16.93,0,0,1,2.54.56,16.52,16.52,0,0,1,2.41,1,16.25,16.25,0,0,1,2.24,1.32,16.21,16.21,0,0,1,3.73,3.6,16.92,16.92,0,0,1,2.43,4.57,4.48,4.48,0,0,0,1.56,2.5c1.06.84,3,1.67,3,2.54s-1.86,1.77-2.89,2.64a4.54,4.54,0,0,0-1.47,2.55,16.43,16.43,0,0,1-2.27,4.66,16.21,16.21,0,0,1-3.6,3.73,16.92,16.92,0,0,1-4.57,2.43,17,17,0,0,1-2.52.65,16.47,16.47,0,0,1-5.18.09,16.93,16.93,0,0,1-2.54-.56,17.73,17.73,0,0,1-2.41-1,17.32,17.32,0,0,1-2.24-1.32,16.78,16.78,0,0,1-3.73-3.6,16.78,16.78,0,0,1-2.43-4.58,16.83,16.83,0,0,1-.65-2.51,16.47,16.47,0,0,1-.09-5.18,16.93,16.93,0,0,1,.56-2.54,17.23,17.23,0,0,1,.95-2.41c.38-.78.83-1.53,1.05-1.91l.22-.37"/><path class="cls-25" d="M434.34,122.71l.33-.4c.33-.39,1-1.19,1.7-1.93a19.39,19.39,0,0,1,2.3-2,20.4,20.4,0,0,1,2.6-1.66,20.87,20.87,0,0,1,2.83-1.23,20.37,20.37,0,0,1,3-.77,18.66,18.66,0,0,1,3.07-.29,19.82,19.82,0,0,1,3.08.18,20.75,20.75,0,0,1,3,.67,20.11,20.11,0,0,1,2.87,1.13,19.58,19.58,0,0,1,2.65,1.56,19.47,19.47,0,0,1,4.42,4.27,20.1,20.1,0,0,1,1.66,2.6,20.87,20.87,0,0,1,1.23,2.83c.33,1,.59,2,4.73,2.91S486,132.38,486,133.4s-8,2.2-12.07,3.29-4.33,2.09-4.63,3.08a19.54,19.54,0,0,1-1.13,2.86,19.15,19.15,0,0,1-1.57,2.66,19.72,19.72,0,0,1-4.26,4.42,21.57,21.57,0,0,1-2.6,1.66,20.87,20.87,0,0,1-2.83,1.23,20.37,20.37,0,0,1-3,.77,19.81,19.81,0,0,1-3.07.29,18.67,18.67,0,0,1-3.08-.19,19.48,19.48,0,0,1-3-.66,20.11,20.11,0,0,1-2.87-1.13,19.65,19.65,0,0,1-2.65-1.57,19.36,19.36,0,0,1-2.38-2,18.72,18.72,0,0,1-2-2.31,19.28,19.28,0,0,1-2.89-5.42,20.18,20.18,0,0,1-.77-3,18.43,18.43,0,0,1-.29-3.06,19.82,19.82,0,0,1,.18-3.08,20.46,20.46,0,0,1,.67-3,20.11,20.11,0,0,1,1.13-2.87c.45-.92,1-1.81,1.24-2.25l.26-.45"/><path class="cls-26" d="M432.48,121.41l.37-.44c.37-.45,1.1-1.33,1.89-2.16a22.29,22.29,0,0,1,2.58-2.27,21.81,21.81,0,0,1,2.89-1.85,21.55,21.55,0,0,1,3.16-1.37,4.67,4.67,0,0,0,3.29-2.93c1.09-2.27,2.16-6.52,3.31-6.54s2.37,4.19,3.54,6.42a4.64,4.64,0,0,0,3.39,2.81,23,23,0,0,1,3.19,1.26,21,21,0,0,1,3,1.75,22.9,22.9,0,0,1,2.65,2.18,22.29,22.29,0,0,1,2.27,2.58,21.59,21.59,0,0,1,3.22,6,22.61,22.61,0,0,1,.86,3.33,21.86,21.86,0,0,1,.12,6.85,22.63,22.63,0,0,1-.74,3.36,23,23,0,0,1-1.26,3.19,22.56,22.56,0,0,1-1.75,3,21.16,21.16,0,0,1-4.76,4.93,21.81,21.81,0,0,1-2.89,1.85,21.55,21.55,0,0,1-3.16,1.37,22.17,22.17,0,0,1-3.32.86,21.86,21.86,0,0,1-6.85.12,22.63,22.63,0,0,1-3.36-.74,23,23,0,0,1-3.19-1.26,21.93,21.93,0,0,1-3-1.75,23.19,23.19,0,0,1-2.66-2.18A22.29,22.29,0,0,1,433,147.2a21.28,21.28,0,0,1-1.85-2.9,21,21,0,0,1-1.37-3.15,22.17,22.17,0,0,1-.86-3.32,21.86,21.86,0,0,1-.12-6.85,22.63,22.63,0,0,1,.74-3.36,23.61,23.61,0,0,1,1.26-3.2c.51-1,1.09-2,1.38-2.51l.29-.5"/><path class="cls-27" d="M431.64,120.82l.38-.46c.38-.47,1.15-1.4,2-2.26a23.54,23.54,0,0,1,2.7-2.39,23.9,23.9,0,0,1,3-1.93,23.49,23.49,0,0,1,3.3-1.43c1.14-.39,2.3-.7,3.44-3.56s2.24-8.28,3.44-8.3,2.49,5.36,3.73,8.18,2.41,3.08,3.56,3.43a22.41,22.41,0,0,1,3.35,1.32,23.39,23.39,0,0,1,3.09,1.82,22.71,22.71,0,0,1,2.78,2.29,23.46,23.46,0,0,1,2.38,2.7,22.91,22.91,0,0,1,1.94,3,23.1,23.1,0,0,1,2.33,6.78,22.73,22.73,0,0,1,.35,3.58,23.87,23.87,0,0,1-.22,3.59,23.53,23.53,0,0,1-.78,3.52,22.3,22.3,0,0,1-1.32,3.34,22.94,22.94,0,0,1-1.83,3.1A21.75,21.75,0,0,1,467,150a23.46,23.46,0,0,1-2.7,2.38,22.91,22.91,0,0,1-3,1.94,23.1,23.1,0,0,1-6.78,2.33,22.73,22.73,0,0,1-3.58.35,24.09,24.09,0,0,1-3.6-.22,23.68,23.68,0,0,1-3.51-.78,21.88,21.88,0,0,1-3.34-1.32,22.94,22.94,0,0,1-3.1-1.83,21.75,21.75,0,0,1-2.78-2.28,23.46,23.46,0,0,1-2.38-2.7,22.91,22.91,0,0,1-1.94-3,23.1,23.1,0,0,1-2.33-6.78,22.85,22.85,0,0,1-.35-3.59,24,24,0,0,1,.22-3.59,23.41,23.41,0,0,1,.78-3.51,22.41,22.41,0,0,1,1.32-3.35c.53-1.07,1.14-2.11,1.44-2.63l.31-.52"/><path class="cls-28" d="M430.88,120.29l.4-.48c.4-.48,1.2-1.45,2.06-2.35a23.63,23.63,0,0,1,2.81-2.48,24,24,0,0,1,3.15-2,24.86,24.86,0,0,1,3.43-1.49,24.08,24.08,0,0,1,3.62-.94,24.53,24.53,0,0,1,3.73-.35,23.21,23.21,0,0,1,3.73.22,23.84,23.84,0,0,1,7.14,2.18,24.74,24.74,0,0,1,3.22,1.9,25.38,25.38,0,0,1,2.89,2.38,23.63,23.63,0,0,1,2.48,2.81,24,24,0,0,1,2,3.15,24.86,24.86,0,0,1,1.49,3.43,23.77,23.77,0,0,1,.94,3.62,24.53,24.53,0,0,1,.35,3.73,23.21,23.21,0,0,1-.22,3.73,25,25,0,0,1-.81,3.65,24.35,24.35,0,0,1-1.38,3.49A23.6,23.6,0,0,1,470,147.7a23.62,23.62,0,0,1-5.19,5.37,24,24,0,0,1-3.15,2,24.86,24.86,0,0,1-3.43,1.49,24,24,0,0,1-3.62.93,23.74,23.74,0,0,1-7.46.13,23,23,0,0,1-3.66-.81,23.49,23.49,0,0,1-3.48-1.37,22.67,22.67,0,0,1-3.22-1.9,23.42,23.42,0,0,1-2.89-2.38,22.77,22.77,0,0,1-2.48-2.8,24,24,0,0,1-2-3.15,24.86,24.86,0,0,1-1.49-3.43,6.15,6.15,0,0,0-2.35-3.6c-1.64-1.21-4.6-2.4-4.62-3.65s2.89-2.55,4.49-3.81a6.13,6.13,0,0,0,2.22-3.68,24.23,24.23,0,0,1,1.38-3.48c.54-1.12,1.18-2.2,1.5-2.74l.31-.54"/><path class="cls-29" d="M429.46,119.3l.43-.52c.43-.52,1.28-1.56,2.21-2.52a26.26,26.26,0,0,1,3-2.66,24.77,24.77,0,0,1,3.38-2.15,24.52,24.52,0,0,1,3.68-1.6,25.16,25.16,0,0,1,3.88-1,25.55,25.55,0,0,1,4-.38,24.28,24.28,0,0,1,4,.24,26.12,26.12,0,0,1,3.92.87,25.19,25.19,0,0,1,7.19,3.51,24.43,24.43,0,0,1,3.1,2.55,27,27,0,0,1,2.66,3,25.51,25.51,0,0,1,2.15,3.39,24.52,24.52,0,0,1,1.6,3.68,19.6,19.6,0,0,0,1.56,3.87c.78,1.31,2,2.63,2,4s-1.16,2.7-1.89,4A18.89,18.89,0,0,0,475,141.5a24.91,24.91,0,0,1-1.47,3.73,25.54,25.54,0,0,1-2,3.46,25.33,25.33,0,0,1-5.56,5.76,25.77,25.77,0,0,1-3.38,2.15,24.52,24.52,0,0,1-3.68,1.6,25.16,25.16,0,0,1-3.88,1,26,26,0,0,1-8,.14,26.12,26.12,0,0,1-3.92-.87,25.53,25.53,0,0,1-7.19-3.51,25.31,25.31,0,0,1-3.1-2.55,26.26,26.26,0,0,1-2.66-3,25.4,25.4,0,0,1-2.15-3.38,24.52,24.52,0,0,1-1.6-3.68,25,25,0,0,1-1-3.89,25.9,25.9,0,0,1-.14-8,26.12,26.12,0,0,1,.87-3.92,25.46,25.46,0,0,1,1.47-3.74c.59-1.2,1.27-2.36,1.61-2.94l.34-.57"/><path class="cls-30" d="M429.36,119.22l.43-.52c.43-.52,1.29-1.56,2.22-2.53a26.45,26.45,0,0,1,3-2.67,26.13,26.13,0,0,1,3.4-2.17,25.2,25.2,0,0,1,3.7-1.6,5.85,5.85,0,0,0,3.87-3c1.29-2.21,2.56-6.3,3.91-6.32s2.76,4,4.13,6.18a5.82,5.82,0,0,0,4,2.85,25.19,25.19,0,0,1,3.75,1.48,25.61,25.61,0,0,1,9.26,7.63,25.78,25.78,0,0,1,4.78,11,24.66,24.66,0,0,1,.39,4,25.76,25.76,0,0,1-.25,4,25.66,25.66,0,0,1-10,17,25.78,25.78,0,0,1-11,4.78,25.42,25.42,0,0,1-8,.14,26.65,26.65,0,0,1-3.94-.87,25.63,25.63,0,0,1-3.75-1.48,24.7,24.7,0,0,1-3.47-2.05,25.59,25.59,0,0,1-3.12-2.56,27.33,27.33,0,0,1-2.67-3,25.68,25.68,0,0,1-2.16-3.4,25.7,25.7,0,0,1-2.62-7.6,24.66,24.66,0,0,1-.39-4,25.76,25.76,0,0,1,.25-4,25.46,25.46,0,0,1,2.35-7.69c.59-1.21,1.27-2.37,1.62-3l.34-.59"/><path class="cls-31" d="M429,119l.44-.53c.43-.53,1.31-1.59,2.26-2.58a27.38,27.38,0,0,1,3.07-2.72,26.61,26.61,0,0,1,3.46-2.2,25.73,25.73,0,0,1,3.77-1.64,7.83,7.83,0,0,0,3.95-2.31c1.33-1.52,2.65-4.21,4-4.23s2.78,2.62,4.16,4.09a7.79,7.79,0,0,0,4,2.17,26.1,26.1,0,0,1,3.82,1.5,25.7,25.7,0,0,1,3.54,2.09,26.32,26.32,0,0,1,3.17,2.61,27.38,27.38,0,0,1,2.72,3.07,26.29,26.29,0,0,1,4.87,11.2,26.31,26.31,0,0,1,.14,8.18,26.39,26.39,0,0,1-2.39,7.83,25.7,25.7,0,0,1-2.09,3.54,26.32,26.32,0,0,1-2.61,3.17,27.38,27.38,0,0,1-3.07,2.72,26.34,26.34,0,0,1-7.23,3.84,26.2,26.2,0,0,1-12.16,1.17,26.44,26.44,0,0,1-7.82-2.39,25.7,25.7,0,0,1-3.54-2.09,26.32,26.32,0,0,1-3.17-2.61,25.87,25.87,0,0,1-4.92-6.53,26.18,26.18,0,0,1-2.81-15.93,26.44,26.44,0,0,1,2.39-7.82c.6-1.23,1.3-2.42,1.65-3L429,119"/><path class="cls-32" d="M427.67,118l.47-.56c.46-.56,1.39-1.68,2.4-2.73a27.86,27.86,0,0,1,3.26-2.88,27.13,27.13,0,0,1,3.67-2.34,26.62,26.62,0,0,1,4-1.74,28.12,28.12,0,0,1,4.22-1.09,27.47,27.47,0,0,1,8.68-.15,27.48,27.48,0,0,1,8.3,2.54,26.72,26.72,0,0,1,3.75,2.21,27.62,27.62,0,0,1,6.24,6A27.13,27.13,0,0,1,475,121a27.69,27.69,0,0,1,1.74,4c.47,1.37.84,2.79,7.15,4.11s18.58,2.56,18.6,4-12.18,3.12-18.45,4.66-6.58,3-7,4.36a28.17,28.17,0,0,1-1.6,4.05,26.72,26.72,0,0,1-2.21,3.75,27.62,27.62,0,0,1-6,6.24,27.13,27.13,0,0,1-3.67,2.34,28.84,28.84,0,0,1-4,1.74,28.12,28.12,0,0,1-4.22,1.09,28.28,28.28,0,0,1-8.68.15,27.48,27.48,0,0,1-8.3-2.54,28.81,28.81,0,0,1-3.75-2.21,27.62,27.62,0,0,1-6.24-6,27.13,27.13,0,0,1-2.34-3.67,27.69,27.69,0,0,1-1.74-4,28.12,28.12,0,0,1-1.09-4.22,27.47,27.47,0,0,1-.15-8.68,27.48,27.48,0,0,1,2.54-8.3c.64-1.3,1.37-2.56,1.74-3.19l.37-.63"/><path class="cls-33" d="M427.43,117.87l.47-.57c.47-.56,1.4-1.7,2.42-2.76a28.5,28.5,0,0,1,3.3-2.91,27.13,27.13,0,0,1,3.71-2.37,28.7,28.7,0,0,1,4-1.75c1.39-.48,2.82-.85,4.19-5.32s2.69-13,4.16-13.06,3.09,8.49,4.61,12.91,3,4.74,4.37,5.17a26.23,26.23,0,0,1,4.1,1.61,27.68,27.68,0,0,1,3.79,2.23,28.41,28.41,0,0,1,3.4,2.8,27.7,27.7,0,0,1,2.91,3.3,27.13,27.13,0,0,1,2.37,3.71,28.21,28.21,0,0,1,1.75,4,27.48,27.48,0,0,1,1.1,4.26,27,27,0,0,1,.42,4.38,28.18,28.18,0,0,1-.26,4.4,28.6,28.6,0,0,1-2.57,8.39,27.68,27.68,0,0,1-2.23,3.79,28.41,28.41,0,0,1-2.8,3.4,27.7,27.7,0,0,1-3.3,2.91,28.12,28.12,0,0,1-3.71,2.37,29.92,29.92,0,0,1-4,1.75,27.31,27.31,0,0,1-4.27,1.1,26.74,26.74,0,0,1-4.38.42,28.12,28.12,0,0,1-4.39-.26,28.6,28.6,0,0,1-8.39-2.57,27.68,27.68,0,0,1-3.79-2.23,29.4,29.4,0,0,1-3.4-2.8,28.5,28.5,0,0,1-2.91-3.3,27.13,27.13,0,0,1-2.37-3.71,28.32,28.32,0,0,1-1.75-4,28,28,0,0,1-1.52-8.64,28.12,28.12,0,0,1,.26-4.39,29,29,0,0,1,1-4.3,28.7,28.7,0,0,1,1.61-4.09c.64-1.32,1.39-2.59,1.76-3.22l.38-.64"/><path class="cls-34" d="M427,117.56l.47-.58c.48-.57,1.44-1.73,2.48-2.81a28.72,28.72,0,0,1,7.14-5.38,29.36,29.36,0,0,1,4.11-1.79,28.52,28.52,0,0,1,4.34-1.12,28.73,28.73,0,0,1,8.94-.16,29.78,29.78,0,0,1,4.38,1,28.25,28.25,0,0,1,4.17,1.65,27.79,27.79,0,0,1,3.87,2.27,29.51,29.51,0,0,1,3.46,2.86,28.65,28.65,0,0,1,7.17,11.25,28.22,28.22,0,0,1,1.12,4.34,29,29,0,0,1,.43,4.47,27.88,27.88,0,0,1-.27,4.47,29.78,29.78,0,0,1-1,4.38,28.25,28.25,0,0,1-1.65,4.17,28.81,28.81,0,0,1-2.27,3.87,29.51,29.51,0,0,1-2.86,3.46,28.77,28.77,0,0,1-3.36,3,28.13,28.13,0,0,1-3.78,2.41,29.36,29.36,0,0,1-4.11,1.79,29.74,29.74,0,0,1-4.34,1.12,28.73,28.73,0,0,1-8.94.16,29.78,29.78,0,0,1-4.38-1,28.25,28.25,0,0,1-4.17-1.65,37.53,37.53,0,0,0-4.18-2c-1.54-.54-3.32-.85-4.39-1.89s-1.45-2.81-2-4.32a37.6,37.6,0,0,0-2.1-4.11,29.36,29.36,0,0,1-1.79-4.11,29.74,29.74,0,0,1-1.12-4.34,28.73,28.73,0,0,1-.16-8.94,29.5,29.5,0,0,1,1-4.38,28.25,28.25,0,0,1,1.65-4.17c.65-1.35,1.42-2.64,1.8-3.29l.38-.65"/><path class="cls-35" d="M417.53,110.94l.67-.81c.67-.82,2-2.44,3.46-3.95a41.42,41.42,0,0,1,4.71-4.17,40.77,40.77,0,0,1,5.31-3.38,39.89,39.89,0,0,1,5.77-2.5c2-.69,4-1.21,6-4.33s4-8.82,6.11-8.86,4.3,5.6,6.43,8.64,4.18,3.5,6.18,4.11a40.27,40.27,0,0,1,11.28,5.5,40.25,40.25,0,0,1,4.85,4,41.42,41.42,0,0,1,4.17,4.71,40.77,40.77,0,0,1,3.38,5.31A40.42,40.42,0,0,1,490,127.06a41.2,41.2,0,0,1,.6,6.26,40,40,0,0,1-1.74,12.42,41,41,0,0,1-2.31,5.86,40.38,40.38,0,0,1-7.19,10.27,41.42,41.42,0,0,1-4.71,4.17,39.67,39.67,0,0,1-5.31,3.37,38.87,38.87,0,0,1-5.77,2.51,39.94,39.94,0,0,1-6.08,1.58,41.21,41.21,0,0,1-6.27.6,39.92,39.92,0,0,1-6.27-.38,40.18,40.18,0,0,1-17.42-6.86,42.23,42.23,0,0,1-4.85-4,39.92,39.92,0,0,1-7.55-10A40.62,40.62,0,0,1,411,141a41,41,0,0,1-.6-6.26,40,40,0,0,1,1.74-12.41,41,41,0,0,1,2.31-5.86c.92-1.88,2-3.7,2.52-4.6l.54-.91"/><path class="cls-36" d="M234.49,126.92l.14-.16c.14-.17.41-.5.71-.81a8,8,0,0,1,1-.86,7.71,7.71,0,0,1,1.09-.69,7.29,7.29,0,0,1,1.18-.52,7.91,7.91,0,0,1,1.25-.32,8.06,8.06,0,0,1,1.29-.13,9.31,9.31,0,0,1,1.29.08,9.15,9.15,0,0,1,1.26.28,8.83,8.83,0,0,1,1.2.48,7.67,7.67,0,0,1,1.11.65,7.86,7.86,0,0,1,1.85,1.79,8.4,8.4,0,0,1,.7,1.09A8.75,8.75,0,0,1,249,129a9,9,0,0,1,.33,1.26,9.09,9.09,0,0,1,.12,1.28,8,8,0,0,1-.08,1.29,7.66,7.66,0,0,1-.28,1.26,7.29,7.29,0,0,1-.47,1.2,8.43,8.43,0,0,1-.66,1.12,7.69,7.69,0,0,1-.82,1,8,8,0,0,1-1,.86,7.18,7.18,0,0,1-1.09.69,8.28,8.28,0,0,1-1.18.52,8.2,8.2,0,0,1-2.54.44,7.79,7.79,0,0,1-1.28-.07,9.29,9.29,0,0,1-1.27-.28,8.83,8.83,0,0,1-1.2-.48,9.47,9.47,0,0,1-1.11-.65,9.91,9.91,0,0,1-1-.82,8.68,8.68,0,0,1-.85-1,9.61,9.61,0,0,1-.7-1.09,8.36,8.36,0,0,1-.51-1.19c-.14-.4-.25-.82-4-1.18s-11-.67-11-1.1,7.29-1,11-1.48,3.78-.91,3.91-1.32a8.3,8.3,0,0,1,.47-1.2c.19-.39.41-.76.52-1l.11-.19"/><path class="cls-37" d="M234.36,126.84l.14-.17c.14-.17.42-.51.73-.83a7.35,7.35,0,0,1,1-.87,9.45,9.45,0,0,1,1.11-.71,9.19,9.19,0,0,1,1.21-.52,2.51,2.51,0,0,0,1.27-.76c.42-.51.85-1.42,1.28-1.42s.9.88,1.34,1.37a2.42,2.42,0,0,0,1.29.72,8,8,0,0,1,1.23.48,7.63,7.63,0,0,1,1.13.67,8.11,8.11,0,0,1,1,.83,9.16,9.16,0,0,1,.88,1,8.95,8.95,0,0,1,1.23,2.31,9.62,9.62,0,0,1,.33,1.28,8.63,8.63,0,0,1,0,2.62,8,8,0,0,1-.28,1.29,8.59,8.59,0,0,1-.48,1.22,9.88,9.88,0,0,1-.67,1.13,8.45,8.45,0,0,1-1.82,1.89,9.94,9.94,0,0,1-1.11.71,8.65,8.65,0,0,1-1.21.52,9.11,9.11,0,0,1-1.27.33,8.31,8.31,0,0,1-1.31.13,9.74,9.74,0,0,1-1.32-.08,8.16,8.16,0,0,1-1.28-.29,8.59,8.59,0,0,1-1.22-.48,8.41,8.41,0,0,1-2.15-1.5,9.16,9.16,0,0,1-.88-1,8,8,0,0,1-.7-1.11,8.69,8.69,0,0,1-.53-1.21,9.11,9.11,0,0,1-.33-1.27,9.52,9.52,0,0,1-.12-1.31,8.16,8.16,0,0,1,.08-1.31,8,8,0,0,1,.28-1.29,7.58,7.58,0,0,1,.49-1.22c.19-.4.41-.77.52-1l.11-.19"/><path class="cls-38" d="M234.31,126.8l.14-.17c.14-.17.42-.52.73-.84a8.32,8.32,0,0,1,1-.87,8.11,8.11,0,0,1,1.11-.72,10.21,10.21,0,0,1,1.22-.53,1.81,1.81,0,0,0,1.27-1.06c.42-.81.84-2.32,1.28-2.33s.91,1.49,1.36,2.28a1.83,1.83,0,0,0,1.31,1,9.4,9.4,0,0,1,1.24.49,8.72,8.72,0,0,1,1.14.67,9.19,9.19,0,0,1,1,.85,8.3,8.3,0,0,1,.88,1,8.14,8.14,0,0,1,.71,1.12,7.65,7.65,0,0,1,.53,1.21,8.74,8.74,0,0,1,.46,2.61,8.36,8.36,0,0,1-.37,2.62,9.21,9.21,0,0,1-.48,1.23,8.17,8.17,0,0,1-.68,1.14,7.47,7.47,0,0,1-.84,1,8.2,8.2,0,0,1-1,.88,8.87,8.87,0,0,1-1.12.72,8.77,8.77,0,0,1-1.22.52,7.85,7.85,0,0,1-2.6.46,8.48,8.48,0,0,1-1.33-.08,9.57,9.57,0,0,1-1.29-.28,9,9,0,0,1-2.38-1.16,9.19,9.19,0,0,1-1-.85,8.3,8.3,0,0,1-.88-1,9.22,9.22,0,0,1-.71-1.12,8.08,8.08,0,0,1-.53-1.21,9.38,9.38,0,0,1-.33-1.29,8.35,8.35,0,0,1-.05-2.64,8.4,8.4,0,0,1,.29-1.3,8.08,8.08,0,0,1,.49-1.23,10.15,10.15,0,0,1,.53-1l.11-.19"/><path class="cls-39" d="M231.58,124.88l.19-.23c.2-.24.59-.72,1-1.16a10.82,10.82,0,0,1,1.39-1.23,12,12,0,0,1,1.55-1,12.14,12.14,0,0,1,1.7-.74c.58-.2,1.18-.35,1.73-3.79s1.05-10.16,1.66-10.17,1.35,6.69,2,10.11,1.27,3.55,1.86,3.73a11.74,11.74,0,0,1,6,4.17,10.54,10.54,0,0,1,1,1.56,11.54,11.54,0,0,1,.74,1.69,10.93,10.93,0,0,1,.46,1.79,11.36,11.36,0,0,1,.18,1.84,11.73,11.73,0,0,1-.51,3.65,11.49,11.49,0,0,1-.68,1.71,11.17,11.17,0,0,1-.94,1.6,11.31,11.31,0,0,1-1.17,1.42,12.37,12.37,0,0,1-1.38,1.23,12.8,12.8,0,0,1-1.56,1,11.6,11.6,0,0,1-1.7.73,11,11,0,0,1-1.79.47,12.45,12.45,0,0,1-1.83.17,10.39,10.39,0,0,1-1.85-.11,11.13,11.13,0,0,1-1.8-.4,10.61,10.61,0,0,1-1.72-.68,12,12,0,0,1-1.59-.93,12.45,12.45,0,0,1-1.43-1.18,12.29,12.29,0,0,1-1.22-1.38,12.1,12.1,0,0,1-1.73-3.25,11.2,11.2,0,0,1-.46-1.79,11.36,11.36,0,0,1-.18-1.84,11.73,11.73,0,0,1,.51-3.65,12.06,12.06,0,0,1,.68-1.72c.27-.55.58-1.08.74-1.35l.16-.27"/><path class="cls-40" d="M227.63,122.12l.28-.34c.27-.33.83-1,1.43-1.63a16.9,16.9,0,0,1,4.14-3.12,17.39,17.39,0,0,1,2.39-1c.82-.29,1.66-.5,2.48-2.49s1.63-5.73,2.49-5.74,1.8,3.7,2.69,5.65,1.75,2.14,2.58,2.4a15.68,15.68,0,0,1,2.41,1,17,17,0,0,1,2.25,1.32,16.43,16.43,0,0,1,3.72,3.6,16.45,16.45,0,0,1,2.44,4.58,16.64,16.64,0,0,1,.65,2.52,16.47,16.47,0,0,1,.09,5.18,16.93,16.93,0,0,1-.56,2.54,17.41,17.41,0,0,1-1,2.42,16.25,16.25,0,0,1-1.32,2.24,16.63,16.63,0,0,1-1.65,2,16,16,0,0,1-2,1.72,16.61,16.61,0,0,1-2.19,1.4,17.27,17.27,0,0,1-2.38,1,15.81,15.81,0,0,1-2.52.65,16.53,16.53,0,0,1-5.19.09,17.08,17.08,0,0,1-2.53-.56,16.43,16.43,0,0,1-4.66-2.27,16,16,0,0,1-2-1.66,16.68,16.68,0,0,1-1.72-1.94,16.35,16.35,0,0,1-1.4-2.2,15.74,15.74,0,0,1-1-2.38,16.64,16.64,0,0,1-.65-2.52,16.47,16.47,0,0,1-.09-5.18,16.93,16.93,0,0,1,.56-2.54,17.41,17.41,0,0,1,1-2.42c.38-.78.82-1.53,1-1.9l.22-.38"/><path class="cls-41" d="M226.28,121.17l.3-.37c.31-.37.91-1.1,1.58-1.79a17.43,17.43,0,0,1,2.14-1.89,18.09,18.09,0,0,1,5-2.68,18.79,18.79,0,0,1,2.77-.72,19.36,19.36,0,0,1,2.84-.27,17.11,17.11,0,0,1,2.86.18,18.06,18.06,0,0,1,2.79.61,18.38,18.38,0,0,1,2.66,1.05,19.59,19.59,0,0,1,2.46,1.45,18.33,18.33,0,0,1,2.2,1.82,17.51,17.51,0,0,1,1.9,2.14,18.36,18.36,0,0,1,3.39,7.8,17,17,0,0,1,.27,2.85,18.1,18.1,0,0,1-.17,2.85,17.83,17.83,0,0,1-.62,2.79,18.38,18.38,0,0,1-1.05,2.66,16.89,16.89,0,0,1-1.45,2.46,18.07,18.07,0,0,1-4,4.1,18.09,18.09,0,0,1-5,2.68c-.9.31-1.83.55-2.69,4.89s-1.68,12.77-2.63,12.78-2.05-8.38-3.07-12.69-2-4.51-2.87-4.79a16.75,16.75,0,0,1-2.65-1,19,19,0,0,1-2.47-1.45,18.63,18.63,0,0,1-4.1-4,17.83,17.83,0,0,1-1.53-2.41A18.37,18.37,0,0,1,224,137.6a19.11,19.11,0,0,1-.72-2.77,18.58,18.58,0,0,1-.1-5.7,17.58,17.58,0,0,1,.62-2.79,18.38,18.38,0,0,1,1-2.66c.42-.86.9-1.68,1.14-2.1l.25-.41"/><path class="cls-42" d="M224.76,120.11l.34-.4c.33-.41,1-1.22,1.73-2a20.3,20.3,0,0,1,2.36-2.08,19.44,19.44,0,0,1,5.54-3,19.79,19.79,0,0,1,3.05-.79,20.18,20.18,0,0,1,6.27-.11,21.28,21.28,0,0,1,3.07.68,20.06,20.06,0,0,1,2.93,1.16,20.55,20.55,0,0,1,2.72,1.59,20.32,20.32,0,0,1,2.42,2,19.4,19.4,0,0,1,2.09,2.35,19.92,19.92,0,0,1,1.69,2.66,21.66,21.66,0,0,1,1.26,2.88c.34,1,.6,2,3.37,3s8,1.94,8.07,3-5.22,2.2-8,3.28-3,2.11-3.27,3.12a20.94,20.94,0,0,1-1.15,2.93,20.51,20.51,0,0,1-1.6,2.71,19.72,19.72,0,0,1-4.36,4.51,20.48,20.48,0,0,1-2.65,1.69,19.45,19.45,0,0,1-2.89,1.26,21,21,0,0,1-3,.79,20.18,20.18,0,0,1-6.27.11,21.28,21.28,0,0,1-3.07-.68,20.06,20.06,0,0,1-2.93-1.16,18.91,18.91,0,0,1-2.71-1.6,19.42,19.42,0,0,1-2.43-2,20.18,20.18,0,0,1-2.09-2.35,20,20,0,0,1-2.94-5.55,18.87,18.87,0,0,1-.79-3,20.25,20.25,0,0,1-.11-6.28,18.91,18.91,0,0,1,.68-3.07,20.94,20.94,0,0,1,1.15-2.93c.46-.94,1-1.85,1.27-2.3l.26-.46"/><path class="cls-43" d="M221.49,117.82l.4-.49c.4-.48,1.21-1.46,2.08-2.36a23,23,0,0,1,2.82-2.5,23.57,23.57,0,0,1,3.19-2,24,24,0,0,1,3.45-1.5,6.34,6.34,0,0,0,3.63-2.34c1.22-1.62,2.43-4.53,3.68-4.55s2.57,2.85,3.84,4.42a6.35,6.35,0,0,0,3.71,2.21,24.59,24.59,0,0,1,3.51,1.38,24.05,24.05,0,0,1,3.25,1.91,25.76,25.76,0,0,1,2.91,2.4,24.92,24.92,0,0,1,2.5,2.83,23.4,23.4,0,0,1,2,3.18,23.08,23.08,0,0,1,1.51,3.46,24.14,24.14,0,0,1,.94,3.65,23.69,23.69,0,0,1,.36,3.75,22.66,22.66,0,0,1-.23,3.77,23,23,0,0,1-.81,3.68,24.13,24.13,0,0,1-1.38,3.51,25.22,25.22,0,0,1-1.92,3.25,23,23,0,0,1-2.4,2.91,24,24,0,0,1-6,4.53,24.6,24.6,0,0,1-3.46,1.5,24.3,24.3,0,0,1-3.66,1,23.46,23.46,0,0,1-3.75.36,24.82,24.82,0,0,1-3.76-.23,24.24,24.24,0,0,1-7.2-2.2,23.11,23.11,0,0,1-3.25-1.92,24.64,24.64,0,0,1-2.91-2.39,24.92,24.92,0,0,1-2.5-2.83,24.42,24.42,0,0,1-2-3.18,23.68,23.68,0,0,1-2.45-7.11,23.7,23.7,0,0,1-.36-3.76,22.61,22.61,0,0,1,.23-3.76,24.15,24.15,0,0,1,.81-3.68,23.09,23.09,0,0,1,1.39-3.51c.55-1.13,1.19-2.22,1.51-2.77l.32-.54"/><path class="cls-44" d="M220.14,116.87l.43-.52c.43-.52,1.28-1.56,2.22-2.52a24.75,24.75,0,0,1,3-2.67A25.65,25.65,0,0,1,229.2,109a26.37,26.37,0,0,1,3.7-1.61,13.19,13.19,0,0,0,3.89-1.72c1.31-.94,2.63-2.5,4-2.52s2.72,1.48,4.06,2.38a13.75,13.75,0,0,0,4,1.59,25.21,25.21,0,0,1,7.22,3.52,25.51,25.51,0,0,1,5.78,5.58,25.66,25.66,0,0,1,4.78,11,26.83,26.83,0,0,1,.39,4,25.76,25.76,0,0,1-.25,4,25.52,25.52,0,0,1-2.35,7.68,25.35,25.35,0,0,1-4.61,6.58,24.75,24.75,0,0,1-3,2.67,25.65,25.65,0,0,1-3.39,2.17,26.07,26.07,0,0,1-7.6,2.61,24.54,24.54,0,0,1-4,.39,25.64,25.64,0,0,1-11.71-2.6,25.22,25.22,0,0,1-3.47-2,26.27,26.27,0,0,1-3.11-2.56,27.33,27.33,0,0,1-2.67-3A25.95,25.95,0,0,1,217,140a24.82,24.82,0,0,1-1-3.9,25.56,25.56,0,0,1-.38-4,24.59,24.59,0,0,1,.24-4,25.52,25.52,0,0,1,2.35-7.68c.59-1.21,1.27-2.37,1.62-3l.34-.59"/><path class="cls-45" d="M218.18,115.5l.46-.57c.47-.57,1.41-1.7,2.43-2.76a27.68,27.68,0,0,1,3.3-2.92,28.79,28.79,0,0,1,3.71-2.37,28.32,28.32,0,0,1,4-1.75,27.31,27.31,0,0,1,4.27-1.1,27.89,27.89,0,0,1,4.38-.43,29.46,29.46,0,0,1,4.4.27,29,29,0,0,1,4.3,1,27.56,27.56,0,0,1,4.09,1.61,28,28,0,0,1,10.11,8.33,27.86,27.86,0,0,1,2.37,3.72,28,28,0,0,1,3.28,12.68,27,27,0,0,1-.27,4.4,27.51,27.51,0,0,1-.95,4.3,28.36,28.36,0,0,1-1.61,4.1,28.8,28.8,0,0,1-2.24,3.79,27.64,27.64,0,0,1-2.8,3.4,28.17,28.17,0,0,1-11,7,27.31,27.31,0,0,1-4.27,1.1,27.89,27.89,0,0,1-4.38.43,29.46,29.46,0,0,1-4.4-.27,28.6,28.6,0,0,1-8.39-2.57,27.44,27.44,0,0,1-3.8-2.24,28.41,28.41,0,0,1-3.4-2.8,27.7,27.7,0,0,1-2.91-3.3,27.13,27.13,0,0,1-2.37-3.71,28.38,28.38,0,0,1-1.76-4,37.56,37.56,0,0,0-1.52-4.25c-.69-1.44-1.68-2.9-1.71-4.37s.92-3,1.55-4.41a40.38,40.38,0,0,0,1.38-4.31,27.3,27.3,0,0,1,1.62-4.1c.64-1.32,1.39-2.59,1.76-3.22l.38-.64"/><path class="cls-46" d="M216.24,114.15l.51-.62c.51-.62,1.53-1.85,2.63-3a29.94,29.94,0,0,1,3.58-3.17,31.79,31.79,0,0,1,4-2.56,30.34,30.34,0,0,1,4.38-1.9c1.5-.52,3-.92,4.49-8.59s2.77-22.59,4.36-22.61,3.45,14.84,5.15,22.45,3.27,8,4.79,8.42a29.25,29.25,0,0,1,4.44,1.75,30.87,30.87,0,0,1,4.12,2.42,30.53,30.53,0,0,1,9.41,10.64,31.37,31.37,0,0,1,1.9,4.37,29.56,29.56,0,0,1,1.19,4.62,30.4,30.4,0,0,1,.17,9.52,31.29,31.29,0,0,1-1,4.66,30.28,30.28,0,0,1-7.21,12.23,29,29,0,0,1-3.58,3.16,30,30,0,0,1-8.4,4.47A30.46,30.46,0,0,1,237,161.78a29.58,29.58,0,0,1-4.66-1,30.48,30.48,0,0,1-8.55-4.17,29.8,29.8,0,0,1-3.69-3A30.66,30.66,0,0,1,217,150a29.19,29.19,0,0,1-2.56-4,30.28,30.28,0,0,1-1.91-4.37,29.85,29.85,0,0,1-1.19-4.62,30.4,30.4,0,0,1-.17-9.52,30.75,30.75,0,0,1,1-4.66,32,32,0,0,1,1.75-4.44c.7-1.43,1.51-2.81,1.92-3.49l.4-.69"/><path class="cls-47" d="M215.67,113.74l.52-.63c.52-.63,1.55-1.89,2.69-3.06a31.19,31.19,0,0,1,3.65-3.24A31.08,31.08,0,0,1,235.86,101a31.62,31.62,0,0,1,4.86-.47,30.48,30.48,0,0,1,4.87.3,31.27,31.27,0,0,1,4.77,1.06,29.53,29.53,0,0,1,4.54,1.79,31.13,31.13,0,0,1,4.21,2.47,32.94,32.94,0,0,1,3.77,3.11,31.2,31.2,0,0,1,3.23,3.66,31.61,31.61,0,0,1,2.63,4.12,31.11,31.11,0,0,1,1.94,4.47,32.23,32.23,0,0,1,1.23,4.73,31.81,31.81,0,0,1,.17,9.74,31.39,31.39,0,0,1-2.85,9.31,31.08,31.08,0,0,1-2.48,4.2,29.52,29.52,0,0,1-3.11,3.77,31.19,31.19,0,0,1-3.65,3.24,31.37,31.37,0,0,1-8.6,4.57,30.69,30.69,0,0,1-4.73,1.22,31.62,31.62,0,0,1-4.86.47,30.48,30.48,0,0,1-4.87-.3,31.27,31.27,0,0,1-4.77-1.06,29.53,29.53,0,0,1-4.54-1.79,30.77,30.77,0,0,1-4.21-2.48,31.84,31.84,0,0,1-3.77-3.1,31.2,31.2,0,0,1-3.23-3.66,31.5,31.5,0,0,1-4.57-8.59c-.53-1.55-.94-3.13-6.3-4.64s-15.68-3-15.7-4.6,10.22-3.44,15.53-5.14,5.66-3.3,6.13-4.85a32.31,32.31,0,0,1,1.79-4.55c.72-1.46,1.55-2.87,2-3.57l.42-.71"/><path class="cls-48" d="M207.77,108.22l.68-.83c.68-.82,2-2.47,3.52-4a41.77,41.77,0,0,1,4.79-4.23,40.94,40.94,0,0,1,5.39-3.43A40.09,40.09,0,0,1,228,93.17,40.54,40.54,0,0,1,240.55,91a40.74,40.74,0,0,1,12.61,1.77,41.05,41.05,0,0,1,6,2.34,41.53,41.53,0,0,1,5.5,3.24,41,41,0,0,1,4.93,4.07,40,40,0,0,1,4.23,4.78,40.63,40.63,0,0,1,3.44,5.39,41.06,41.06,0,0,1,4.14,12A41.14,41.14,0,0,1,282,131a42.46,42.46,0,0,1-.39,6.38,40.45,40.45,0,0,1-1.39,6.24,39.4,39.4,0,0,1-2.34,5.94,40.58,40.58,0,0,1-3.24,5.51,41.53,41.53,0,0,1-4.06,4.93,40.94,40.94,0,0,1-4.79,4.23,40.29,40.29,0,0,1-5.39,3.43,40.44,40.44,0,0,1-12,4.15,41.13,41.13,0,0,1-6.36.61,40.12,40.12,0,0,1-6.38-.39,41.5,41.5,0,0,1-6.23-1.38,42.23,42.23,0,0,1-6-2.34,41.15,41.15,0,0,1-5.5-3.25A40,40,0,0,1,213,161a40.45,40.45,0,0,1-10.21-16c-.7-2-1.23-4.09-5.23-6.12s-11.46-4-11.5-6.17,7.35-4.39,11.28-6.57,4.38-4.26,5-6.3a39.4,39.4,0,0,1,2.34-5.94c.93-1.92,2-3.76,2.56-4.68l.54-.92"/><path class="cls-49" d="M207.4,108l.69-.83c.68-.83,2.06-2.5,3.56-4.05a40.06,40.06,0,0,1,4.83-4.28,42.62,42.62,0,0,1,5.45-3.48,41.49,41.49,0,0,1,5.93-2.57,41,41,0,0,1,12.68-2.24,40.86,40.86,0,0,1,6.45.4,41.32,41.32,0,0,1,6.31,1.39,41.92,41.92,0,0,1,6,2.37,41.45,41.45,0,0,1,10.55,7.39,41.85,41.85,0,0,1,4.28,4.84,40.2,40.2,0,0,1,3.47,5.45,42.07,42.07,0,0,1,2.58,5.92,40.78,40.78,0,0,1,1.61,6.26,39.56,39.56,0,0,1,.62,6.43,41.11,41.11,0,0,1-11.55,29.31,40.06,40.06,0,0,1-4.83,4.28,41.32,41.32,0,0,1-11.38,6.05,41.29,41.29,0,0,1-31.45-1.92,42.47,42.47,0,0,1-5.56-3.28,41,41,0,0,1-5-4.11,41.85,41.85,0,0,1-4.28-4.84,40.2,40.2,0,0,1-3.47-5.45,40.89,40.89,0,0,1-2.57-5.92,21.23,21.23,0,0,0-2.8-6.24c-1.54-2.1-4.1-4.21-4.14-6.37s2.44-4.35,3.92-6.5a21.1,21.1,0,0,0,2.57-6.33,40.35,40.35,0,0,1,2.37-6c.94-1.94,2-3.8,2.59-4.73l.55-.94"/><path class="cls-50" d="M114.74,128.58l.14-.17c.14-.17.42-.5.72-.82a9.06,9.06,0,0,1,1-.87,8.5,8.5,0,0,1,1.1-.7,8.69,8.69,0,0,1,1.21-.53,9.11,9.11,0,0,1,1.27-.33,9.52,9.52,0,0,1,1.3-.12,8.16,8.16,0,0,1,1.31.08,8,8,0,0,1,1.29.28,9.64,9.64,0,0,1,1.22.48,9.88,9.88,0,0,1,1.13.67,8.11,8.11,0,0,1,1.88,1.82,9.82,9.82,0,0,1,.71,1.1,8.65,8.65,0,0,1,.52,1.21c.14.41.25.84,3.85,1.21s10.69.68,10.7,1.12-7.07,1-10.65,1.49-3.68.93-3.81,1.35a9.08,9.08,0,0,1-.48,1.22,8.61,8.61,0,0,1-.67,1.13,8.11,8.11,0,0,1-1.82,1.88,9.82,9.82,0,0,1-1.1.71,8.65,8.65,0,0,1-1.21.52,9.11,9.11,0,0,1-1.27.33,8.56,8.56,0,0,1-2.61,0,8,8,0,0,1-1.29-.28,9.64,9.64,0,0,1-1.22-.48,8.61,8.61,0,0,1-1.13-.67,8.91,8.91,0,0,1-1-.83,9.06,9.06,0,0,1-.87-1,7.87,7.87,0,0,1-.7-1.1,7.65,7.65,0,0,1-.53-1.21,9.11,9.11,0,0,1-.33-1.27,9.38,9.38,0,0,1-.12-1.3,8.16,8.16,0,0,1,.08-1.31,7.66,7.66,0,0,1,.28-1.28,9.21,9.21,0,0,1,.48-1.23c.19-.39.42-.77.53-1l.11-.19"/><path class="cls-51" d="M111.87,126.58l.2-.24c.2-.24.6-.72,1-1.17a10.82,10.82,0,0,1,1.39-1.23,10.7,10.7,0,0,1,1.57-1,12.14,12.14,0,0,1,1.7-.74c.59-.2,1.19-.36,1.74-4s1-10.72,1.67-10.73,1.36,7.06,2,10.66,1.28,3.74,1.87,3.92a11.3,11.3,0,0,1,1.73.68,12.3,12.3,0,0,1,1.61.94,11.72,11.72,0,0,1,1.43,1.19,10.82,10.82,0,0,1,1.23,1.39,11.26,11.26,0,0,1,1,1.57,12.14,12.14,0,0,1,.74,1.7,11.35,11.35,0,0,1,.47,1.8,11.54,11.54,0,0,1,.06,3.71,11.61,11.61,0,0,1-.4,1.82,12.18,12.18,0,0,1-.68,1.73,12.88,12.88,0,0,1-.94,1.6,12.21,12.21,0,0,1-2.58,2.66,10.7,10.7,0,0,1-1.57,1,11.7,11.7,0,0,1-1.7.75,12.5,12.5,0,0,1-1.8.46,11.48,11.48,0,0,1-1.85.18,12.9,12.9,0,0,1-1.86-.11,12.47,12.47,0,0,1-1.81-.41,11.3,11.3,0,0,1-1.73-.68,12.3,12.3,0,0,1-1.61-.94,13.37,13.37,0,0,1-1.43-1.18,11.63,11.63,0,0,1-1.23-1.4,10.7,10.7,0,0,1-1-1.57,11.2,11.2,0,0,1-.74-1.7,11.35,11.35,0,0,1-.47-1.8,11.48,11.48,0,0,1-.18-1.85,11.62,11.62,0,0,1,.12-1.86,11.83,11.83,0,0,1,1.08-3.54c.27-.56.59-1.1.75-1.37l.15-.26"/><path class="cls-52" d="M110.83,125.85l.22-.27c.22-.27.66-.8,1.13-1.29a13.44,13.44,0,0,1,1.55-1.37,13,13,0,0,1,1.73-1.1,13.16,13.16,0,0,1,1.89-.82,12.67,12.67,0,0,1,2-.52,14.09,14.09,0,0,1,2-.2,12.88,12.88,0,0,1,2.06.13,13.89,13.89,0,0,1,2,.45,13.51,13.51,0,0,1,1.91.75,12.13,12.13,0,0,1,1.77,1,12.51,12.51,0,0,1,1.59,1.3,13.44,13.44,0,0,1,1.37,1.55,13,13,0,0,1,1.1,1.73,12.13,12.13,0,0,1,.82,1.89,12.67,12.67,0,0,1,.52,2,14.23,14.23,0,0,1,.2,2,12.88,12.88,0,0,1-.13,2.06,12.65,12.65,0,0,1-.44,2,14.89,14.89,0,0,1-.76,1.91,13.78,13.78,0,0,1-1,1.78,13.59,13.59,0,0,1-2.85,2.95,13.08,13.08,0,0,1-1.74,1.1,13.21,13.21,0,0,1-1.89.83,4.73,4.73,0,0,0-2,1c-.67.61-1.34,1.67-2,1.68s-1.39-1-2.08-1.61a4.9,4.9,0,0,0-2-.94,13.56,13.56,0,0,1-1.91-.76,13,13,0,0,1-1.77-1,12.58,12.58,0,0,1-1.59-1.31,14.23,14.23,0,0,1-1.37-1.54,13.08,13.08,0,0,1-1.1-1.74,12.13,12.13,0,0,1-.82-1.89,12.39,12.39,0,0,1-.52-2,14.09,14.09,0,0,1-.2-2.05,12.76,12.76,0,0,1,.13-2,12.44,12.44,0,0,1,.45-2,13.17,13.17,0,0,1,.75-1.92c.3-.62.65-1.21.83-1.51l.17-.29"/><path class="cls-53" d="M107.79,123.72l.28-.34c.28-.35.84-1,1.45-1.66a18.22,18.22,0,0,1,2-1.75,17.19,17.19,0,0,1,2.23-1.42,16.84,16.84,0,0,1,2.42-1c.83-.29,1.68-.51,2.48-4.91s1.52-13,2.4-13,1.91,8.54,2.86,12.92,1.8,4.56,2.65,4.82a16.64,16.64,0,0,1,2.45,1,16.8,16.8,0,0,1,4.31,3,16.87,16.87,0,0,1,3.17,4.21,16.84,16.84,0,0,1,1.05,2.42,15.92,15.92,0,0,1,.66,2.55,16.61,16.61,0,0,1,.25,2.63,15.42,15.42,0,0,1-.16,2.63,16.28,16.28,0,0,1-.57,2.58,17.47,17.47,0,0,1-2.3,4.73,17.24,17.24,0,0,1-1.68,2,16.42,16.42,0,0,1-2,1.75,16.7,16.7,0,0,1-2.22,1.42,17.87,17.87,0,0,1-2.42,1.05,16.31,16.31,0,0,1-2.56.66,16.91,16.91,0,0,1-10.29-1.44,18.64,18.64,0,0,1-2.28-1.34,17,17,0,0,1-3.78-3.66,16.53,16.53,0,0,1-2.47-4.64,16.31,16.31,0,0,1-.66-2.56A16.73,16.73,0,0,1,106.51,126c.38-.79.83-1.55,1-1.93l.23-.38"/><path class="cls-54" d="M107.54,123.55l.29-.35c.29-.35.86-1,1.48-1.69a17.89,17.89,0,0,1,2-1.78,17.38,17.38,0,0,1,2.27-1.44,17,17,0,0,1,5.06-1.74,17.12,17.12,0,0,1,2.67-.26,18.45,18.45,0,0,1,2.68.16,16.57,16.57,0,0,1,2.62.59,16.84,16.84,0,0,1,2.5,1,17.38,17.38,0,0,1,2.32,1.36,18.79,18.79,0,0,1,2.07,1.71,17.89,17.89,0,0,1,1.78,2,17.38,17.38,0,0,1,1.44,2.27,17,17,0,0,1,1.74,5.06,16,16,0,0,1,.26,2.67,17.07,17.07,0,0,1-.16,2.68,17.73,17.73,0,0,1-.58,2.62,18.06,18.06,0,0,1-1,2.5,17.38,17.38,0,0,1-1.36,2.32,18.79,18.79,0,0,1-1.71,2.07,17.89,17.89,0,0,1-2,1.78,17.34,17.34,0,0,1-4.73,2.51c-.85.29-1.72.52-2.55,3.36s-1.64,8.31-2.53,8.32-1.89-5.41-2.82-8.22-1.82-3-2.67-3.27a16.88,16.88,0,0,1-2.5-1,17.38,17.38,0,0,1-2.32-1.36,17.73,17.73,0,0,1-2.07-1.71,17,17,0,0,1-1.78-2,17,17,0,0,1-2.51-4.73,16.26,16.26,0,0,1-.67-2.6,17.14,17.14,0,0,1-.1-5.35,16.57,16.57,0,0,1,.59-2.62,16.84,16.84,0,0,1,1-2.5c.39-.81.85-1.58,1.08-2l.22-.38"/><path class="cls-55" d="M106.16,122.58l.32-.38c.31-.38.94-1.15,1.62-1.85a17.9,17.9,0,0,1,2.21-2,19.23,19.23,0,0,1,5.19-2.76,18.77,18.77,0,0,1,2.86-.74,19.25,19.25,0,0,1,2.93-.28,18.19,18.19,0,0,1,2.95.18,19.27,19.27,0,0,1,2.88.64,19.49,19.49,0,0,1,2.74,1.08,19.24,19.24,0,0,1,4.82,3.37,19.51,19.51,0,0,1,1.95,2.21,19,19,0,0,1,1.58,2.49,18,18,0,0,1,1.18,2.7,18.77,18.77,0,0,1,.74,2.86,19.25,19.25,0,0,1,.28,2.93,18.19,18.19,0,0,1-.18,3,19.27,19.27,0,0,1-.64,2.88,17.93,17.93,0,0,1-1.08,2.74,18.57,18.57,0,0,1-3.37,4.82,18.68,18.68,0,0,1-2.21,1.95,20.2,20.2,0,0,1-2.49,1.59,19,19,0,0,1-2.7,1.17,18.77,18.77,0,0,1-2.86.74,19.25,19.25,0,0,1-2.93.28,18.19,18.19,0,0,1-3-.18,17.75,17.75,0,0,1-2.87-.64,18,18,0,0,1-2.75-1.08,19.62,19.62,0,0,1-2.54-1.49,18.73,18.73,0,0,1-2.27-1.88,17.9,17.9,0,0,1-2-2.21,18.38,18.38,0,0,1-1.58-2.49,17.52,17.52,0,0,1-1.18-2.7c-.32-.93-.57-1.89-3.17-2.81s-7.58-1.83-7.6-2.81,4.92-2.05,7.49-3.07,2.79-2,3.08-2.92a19.61,19.61,0,0,1,1.08-2.75c.43-.88.93-1.73,1.18-2.16l.25-.42"/><path class="cls-56" d="M105.76,122.3l.33-.39c.32-.39,1-1.17,1.66-1.9a18.67,18.67,0,0,1,2.27-2,19,19,0,0,1,2.55-1.63,20,20,0,0,1,2.77-1.21c1-.32,1.94-.58,2.83-6.69s1.69-18.08,2.7-18.1,2.23,11.92,3.33,18,2.09,6.3,3.06,6.6a18.23,18.23,0,0,1,2.81,1.11,19,19,0,0,1,2.61,1.53,20.31,20.31,0,0,1,2.33,1.92,19.66,19.66,0,0,1,2,2.27,20,20,0,0,1,1.62,2.55,19.63,19.63,0,0,1,1.21,2.78,18.4,18.4,0,0,1,.75,2.92,18,18,0,0,1,.29,3,19.45,19.45,0,0,1-1.94,8.79,20.09,20.09,0,0,1-1.54,2.61,19.48,19.48,0,0,1-1.92,2.33,18.86,18.86,0,0,1-2.27,2,19.29,19.29,0,0,1-2.55,1.62,18.77,18.77,0,0,1-5.7,2,17.94,17.94,0,0,1-3,.29,19.06,19.06,0,0,1-3-.18,20,20,0,0,1-3-.65,20.51,20.51,0,0,1-2.81-1.11,20.09,20.09,0,0,1-2.61-1.54,20.31,20.31,0,0,1-2.33-1.92,18,18,0,0,1-2-2.27,18.38,18.38,0,0,1-1.63-2.55,18.77,18.77,0,0,1-2-5.7,17.94,17.94,0,0,1-.29-3,19.06,19.06,0,0,1,.18-3,18.51,18.51,0,0,1,.66-3,18.94,18.94,0,0,1,1.1-2.82c.45-.91,1-1.78,1.22-2.21l.25-.44"/><path class="cls-57" d="M104.25,121.24l.35-.43c.35-.43,1.06-1.28,1.83-2.08a20.83,20.83,0,0,1,5.28-4,20.88,20.88,0,0,1,3-1.32,5.14,5.14,0,0,0,3.19-2.24c1.06-1.61,2.12-4.55,3.22-4.57s2.27,2.88,3.38,4.45a5.1,5.1,0,0,0,3.27,2.13,21.91,21.91,0,0,1,3.08,1.22,21.16,21.16,0,0,1,5.41,3.79,20.83,20.83,0,0,1,4,5.28,21.26,21.26,0,0,1,2.15,6.24,21.56,21.56,0,0,1,.32,3.3,20.3,20.3,0,0,1-.21,3.31,21,21,0,0,1-.71,3.24,21.44,21.44,0,0,1-1.22,3.08,20.71,20.71,0,0,1-3.79,5.41,21.55,21.55,0,0,1-2.48,2.2,22,22,0,0,1-2.79,1.78,21.49,21.49,0,0,1-3,1.32,21,21,0,0,1-3.21.83,21.14,21.14,0,0,1-6.61.12,22.17,22.17,0,0,1-3.23-.72,21.56,21.56,0,0,1-3.09-1.22,21.16,21.16,0,0,1-5.41-3.79,20.74,20.74,0,0,1-2.2-2.48,22,22,0,0,1-1.78-2.79,21.49,21.49,0,0,1-1.32-3,21,21,0,0,1-.83-3.21,21.44,21.44,0,0,1-.32-3.3,20.37,20.37,0,0,1,.21-3.31,20.91,20.91,0,0,1,.71-3.23,21.56,21.56,0,0,1,1.22-3.09c.48-1,1-2,1.33-2.42l.28-.48"/><path class="cls-58" d="M100.67,118.73l.42-.52c.43-.51,1.28-1.55,2.21-2.5a24.31,24.31,0,0,1,3-2.65,23.74,23.74,0,0,1,3.37-2.15,26,26,0,0,1,3.67-1.6c1.26-.43,2.55-.76,3.86-1.33s2.63-1.37,4-1.39,2.68.73,4,1.25,2.63.81,3.91,1.2a25.86,25.86,0,0,1,7.16,3.49,26,26,0,0,1,3.09,2.55,25,25,0,0,1,2.64,3,24.32,24.32,0,0,1,2.15,3.37,26,26,0,0,1,1.6,3.67,25.56,25.56,0,0,1,1,3.87,25.18,25.18,0,0,1,.38,4,26.64,26.64,0,0,1-.24,4A25.38,25.38,0,0,1,142.49,148a25.73,25.73,0,0,1-5.54,5.74,24.6,24.6,0,0,1-3.37,2.14,25.3,25.3,0,0,1-7.54,2.6,25.18,25.18,0,0,1-4,.38,26.71,26.71,0,0,1-4-.24A25.38,25.38,0,0,1,107,154.27a26.91,26.91,0,0,1-3.09-2.54,25.08,25.08,0,0,1-2.64-3,23.74,23.74,0,0,1-2.15-3.37,25.3,25.3,0,0,1-2.6-7.54,25.17,25.17,0,0,1-.38-4,26.56,26.56,0,0,1,.24-4,25.83,25.83,0,0,1,2.33-7.63c.59-1.19,1.27-2.35,1.61-2.92l.34-.58"/><path class="cls-59" d="M100.54,118.64l.43-.52c.43-.52,1.28-1.56,2.21-2.52a25.52,25.52,0,0,1,3-2.67,24.94,24.94,0,0,1,3.39-2.16,25.95,25.95,0,0,1,7.58-2.61,25.55,25.55,0,0,1,4-.38,24.59,24.59,0,0,1,4,.24,26.12,26.12,0,0,1,3.92.87A25.78,25.78,0,0,1,139.42,115a26.33,26.33,0,0,1,2.67,3,24.94,24.94,0,0,1,2.16,3.39,24.63,24.63,0,0,1,1.6,3.69,25,25,0,0,1,1,3.89,26.82,26.82,0,0,1,.39,4,25.69,25.69,0,0,1-.25,4,25.3,25.3,0,0,1-4.39,11.13,25.25,25.25,0,0,1-2.55,3.11,26.36,26.36,0,0,1-3,2.66,24.94,24.94,0,0,1-3.39,2.16,25.95,25.95,0,0,1-7.58,2.61,26.82,26.82,0,0,1-4,.39,25.76,25.76,0,0,1-4-.25,26.12,26.12,0,0,1-3.92-.87,25.15,25.15,0,0,1-3.75-1.47,26.16,26.16,0,0,1-3.46-2,26,26,0,0,1-5.77-5.57,25.68,25.68,0,0,1-2.16-3.4,25,25,0,0,1-1.6-3.68,16.77,16.77,0,0,0-1.62-3.89c-.85-1.31-2.2-2.63-2.23-4s1.29-2.71,2.09-4a16.11,16.11,0,0,0,1.48-3.93,25.7,25.7,0,0,1,1.47-3.74c.59-1.21,1.28-2.37,1.62-3l.34-.58"/><path class="cls-60" d="M99.21,117.71l.46-.55c.45-.55,1.36-1.66,2.35-2.68a27.05,27.05,0,0,1,3.21-2.84,27.42,27.42,0,0,1,3.6-2.29,27.84,27.84,0,0,1,3.92-1.71,6.18,6.18,0,0,0,4.1-3.15c1.37-2.33,2.72-6.63,4.15-6.65s2.93,4.22,4.38,6.5a6.19,6.19,0,0,0,4.21,3,27.61,27.61,0,0,1,7.66,3.74,26.61,26.61,0,0,1,3.29,2.71,27.86,27.86,0,0,1,2.84,3.21,27,27,0,0,1,2.29,3.6,27.84,27.84,0,0,1,1.71,3.92,28.28,28.28,0,0,1,1.07,4.14,27.27,27.27,0,0,1,.15,8.52,27.51,27.51,0,0,1-2.49,8.15,28.32,28.32,0,0,1-2.17,3.69,27.72,27.72,0,0,1-2.72,3.3,28.65,28.65,0,0,1-3.2,2.83,27.22,27.22,0,0,1-3.61,2.3,27.29,27.29,0,0,1-16.58,2.92,27,27,0,0,1-4.17-.93,26.72,26.72,0,0,1-4-1.56,26.87,26.87,0,0,1-7-4.89,26.66,26.66,0,0,1-5.13-6.81,27,27,0,0,1-2.78-8.06,27.25,27.25,0,0,1-.15-8.52,27,27,0,0,1,.93-4.17,26.72,26.72,0,0,1,1.56-4c.63-1.28,1.36-2.52,1.72-3.13l.36-.62"/><path class="cls-61" d="M98.71,117.36l.46-.57c.47-.56,1.4-1.69,2.41-2.74a28.13,28.13,0,0,1,3.27-2.9,28.43,28.43,0,0,1,3.69-2.35,27.92,27.92,0,0,1,4-1.74,6.75,6.75,0,0,0,4.2-2.94c1.4-2.1,2.8-5.93,4.26-6s3,3.76,4.46,5.81a6.76,6.76,0,0,0,4.3,2.79,28.29,28.29,0,0,1,4.06,1.6,28,28,0,0,1,3.77,2.22,28.93,28.93,0,0,1,3.37,2.78,28.11,28.11,0,0,1,5.25,7,27.92,27.92,0,0,1,1.74,4,28.28,28.28,0,0,1,1.1,4.23,27.73,27.73,0,0,1,.15,8.72,27.91,27.91,0,0,1-4.77,12.1,28.12,28.12,0,0,1-6.05,6.27A28.43,28.43,0,0,1,134.7,158a27.92,27.92,0,0,1-4,1.74,28.28,28.28,0,0,1-4.23,1.1,27.72,27.72,0,0,1-8.72.15,28.19,28.19,0,0,1-8.33-2.55,28,28,0,0,1-10-8.27A28.43,28.43,0,0,1,97,146.48a28.23,28.23,0,0,1-2.84-8.24,28.54,28.54,0,0,1-.15-8.72,28.19,28.19,0,0,1,2.55-8.33c.64-1.31,1.38-2.57,1.75-3.2l.38-.63"/><path class="cls-62" d="M98.6,117.29l.47-.57c.47-.57,1.4-1.7,2.42-2.76a29.37,29.37,0,0,1,3.29-2.91,27.51,27.51,0,0,1,3.7-2.35,28.76,28.76,0,0,1,4-1.76,6.41,6.41,0,0,0,4.22-3.18c1.4-2.33,2.79-6.64,4.26-6.67s3,4.23,4.49,6.52a6.43,6.43,0,0,0,4.32,3,28.7,28.7,0,0,1,4.09,1.61,28.18,28.18,0,0,1,3.78,2.23,29.22,29.22,0,0,1,3.39,2.79,28.1,28.1,0,0,1,5.27,7,28.11,28.11,0,0,1,2.85,8.28,28,28,0,0,1,.15,8.76,27.26,27.26,0,0,1-1,4.28,28.7,28.7,0,0,1-1.61,4.09,28,28,0,0,1-8.31,10.08,28.61,28.61,0,0,1-3.7,2.36,28.21,28.21,0,0,1-4,1.75,29.81,29.81,0,0,1-4.25,1.1,27.92,27.92,0,0,1-8.75.15,27.39,27.39,0,0,1-4.29-1,28.7,28.7,0,0,1-4.09-1.61,28.24,28.24,0,0,1-7.17-5,29.37,29.37,0,0,1-2.91-3.29,28.61,28.61,0,0,1-2.36-3.7,27.95,27.95,0,0,1-3-17,28.57,28.57,0,0,1,1-4.29,28.12,28.12,0,0,1,1.61-4.08c.64-1.32,1.39-2.59,1.76-3.22l.37-.63"/><path class="cls-63" d="M97.53,116.53l.49-.59c.49-.59,1.47-1.78,2.53-2.88a29.2,29.2,0,0,1,3.44-3,30.29,30.29,0,0,1,3.88-2.47,29.12,29.12,0,0,1,4.21-1.83,28.51,28.51,0,0,1,4.45-1.15,29.37,29.37,0,0,1,13.65.83,28.62,28.62,0,0,1,4.28,1.69,29.14,29.14,0,0,1,4,2.33,29.21,29.21,0,0,1,9.06,10.24,29.72,29.72,0,0,1,1.83,4.22,28.51,28.51,0,0,1,1.15,4.45,29.31,29.31,0,0,1,.16,9.16,29,29,0,0,1-2.68,8.76,29.14,29.14,0,0,1-2.33,4,29,29,0,0,1-6.36,6.59,29.32,29.32,0,0,1-8.09,4.3,28.51,28.51,0,0,1-4.45,1.15,28.6,28.6,0,0,1-9.17.16,28.67,28.67,0,0,1-4.48-1,29.69,29.69,0,0,1-4.28-1.68A29.24,29.24,0,0,1,98.23,151a29.61,29.61,0,0,1-2.47-3.88,29.12,29.12,0,0,1-1.83-4.21,11.09,11.09,0,0,0-2.25-4.43c-1.37-1.49-3.71-3-3.74-4.52s2.27-3.11,3.58-4.65a11,11,0,0,0,2.09-4.5,28.62,28.62,0,0,1,1.69-4.28c.67-1.38,1.45-2.7,1.84-3.36l.39-.67"/><path class="cls-64" d="M87.83,109.74l.68-.83c.69-.84,2.06-2.5,3.56-4a41.06,41.06,0,0,1,10.26-7.74,41.24,41.24,0,0,1,18.57-4.8,40.81,40.81,0,0,1,6.44.4,39.67,39.67,0,0,1,6.29,1.39,41.29,41.29,0,0,1,6,2.36,42,42,0,0,1,5.56,3.28,40.53,40.53,0,0,1,5,4.1,41.54,41.54,0,0,1,7.74,10.26,41.25,41.25,0,0,1,2.57,5.91,39,39,0,0,0,2.37,6.23c1.13,2.11,2.85,4.23,2.89,6.38s-1.61,4.33-2.67,6.48a40.14,40.14,0,0,0-2.15,6.3A41.14,41.14,0,0,1,155.28,157a42.44,42.44,0,0,1-4.1,5,41.56,41.56,0,0,1-4.83,4.27,40.73,40.73,0,0,1-5.44,3.47,40.84,40.84,0,0,1-12.16,4.18,41.12,41.12,0,0,1-12.85.23,41.43,41.43,0,0,1-12.29-3.76,42,42,0,0,1-5.56-3.27,42.44,42.44,0,0,1-5-4.1,41.35,41.35,0,0,1-7.74-10.27,40.91,40.91,0,0,1-4.18-12.15,41.91,41.91,0,0,1-.62-6.42,40.72,40.72,0,0,1,1.79-12.73,41.29,41.29,0,0,1,2.36-6c1-1.93,2-3.79,2.59-4.72l.55-.93"/><g id="Group_221" data-name="Group 221"><path id="Path_252" data-name="Path 252" d="M5.45,52.92,6,51.26l0-.11a2.11,2.11,0,0,0,1.1-2.1c0-3.38,1.37-6.34,3.1-9.17,0,1.83-1.08,3.31-1.58,5s-1.42,3.5.24,5.62A38.68,38.68,0,0,1,10.33,43c.87-2.35,1.46-4.81,2.24-7.19.37-1.12-.18-1.15-1-1a10.58,10.58,0,0,1,4.29-3.22l0-.05a42.05,42.05,0,0,1-2.69,10.11c-.73,1.81-1.59,3.7-1.18,5.63a4.11,4.11,0,0,1-.73,3.16c-1.82,3.36-4.56,6.19-5.84,9.87-1.38,1-3,1.65-4.09,3.09-.58.76-.59-.09-.61-.52A36.31,36.31,0,0,0,9.92,50.46l-2.29,1.7C6.75,52,6.21,52.77,5.45,52.92Zm6.18-11.25c2.24-3.11,3-6,2.43-8.56Z"/><path id="Path_253" data-name="Path 253" d="M24.38,18.18c-1-.76-2.08-1.52-3.4-.58A3.15,3.15,0,0,0,19.85,21c.47,2.79-.18,5-3,6.14a16.74,16.74,0,0,0,1.61-2.37c.45-1,.21-1.55-1-.83.55-.8,2-1.14,1.46-2.5-.33-.86-1-.77-1.59-.22a3.73,3.73,0,0,0,1.75-3.6c-.16-2,4-5,5.77-4.56.64.16,1.23,1.39,1.94.28a1.46,1.46,0,0,0-.49-1.84,1.28,1.28,0,0,0-1.78-.19,1.55,1.55,0,0,0-.24.27c-.24.25-.4.7-.94.37-.26-1.27.67-1.62,1.6-1.93a1.64,1.64,0,0,1,2.13.95l0,.06c.54,1.17,1,1.6,2.11.5.36-.36,1.25-.88,1.8-.1.38.55-.11,1.08-.46,1.55a31.87,31.87,0,0,1-4.83,5.79c-.06-1.21.71-2.39,0-3.64a2,2,0,0,0-2.06-1.21,2,2,0,0,0-1.94,1.44c-.34,1.25.93.89,1.46,1.26A2.54,2.54,0,0,1,24.38,18.18Z"/><path id="Path_254" data-name="Path 254" d="M15.87,31.61c-.11-1.18.86-1.29,1.78-1.77-.21,4.9-1.55,9.39-2.62,13.94-.32,1.37-1.11,3,.34,4.07,1.61,1.21,3.37.5,4.91-.39,1.25-.73,2.37-1.66,3.56-2.5a1.73,1.73,0,0,1,.18,2.3c.37,1.28-.9,1.55-1.4,2.3-.9-.81.62-1.56,0-2.38a.57.57,0,0,0-.75.26.59.59,0,0,0-.05.22,4.84,4.84,0,0,1-4.4,4.6c-.28.05-1.66.76-1.2-.8.22-.74,1.74-1.47.08-2.29-1.51-.74-2.73-.51-3.6,1a165.59,165.59,0,0,0,4-17.33c.17-1,.15-1.41-.94-1.29Z"/><path id="Path_255" data-name="Path 255" d="M22.89,40.8l-2.28.72C20.14,37.71,21.8,34.6,23,31.25c.94.72.07,1.35.19,2,2.67-.86,5.2-.87,7.41,1.19A25.86,25.86,0,0,0,22.89,40.8ZM28.09,34c-3.2.8-5,3-6.35,5.67Z"/><path id="Path_256" data-name="Path 256" d="M22.89,40.8a25.86,25.86,0,0,1,7.66-6.41c3.08,2.87,3.08,3.83.05,7.84L30.37,42c.51-1.24,1.06-2.47,1.5-3.74a1.54,1.54,0,0,0-.4-1.86,1.59,1.59,0,0,0-1.91.12c-1.59,1.1-3.16,2.24-4.76,3.33C24.22,40.26,23.89,41.24,22.89,40.8Z"/><path id="Path_257" data-name="Path 257" d="M15.85,22.45c-.75,2.64-3,4.07-4.75,5.91-1,1-2,2-3,3L3.73,35l.21.2Z"/><path id="Path_258" data-name="Path 258" d="M30.8,6.5C33.38,4.87,35,2,38.35.3L30.53,9.4l-.72-1.21Z"/><path id="Path_259" data-name="Path 259" d="M7.06,43.55Q6.52,47.36,6,51.15l0,.11C3.7,52.82,2.06,55,0,57.58a7.62,7.62,0,0,1,2.6-4.16c1.64-1.66,3.1-3.21,3-5.89A5.35,5.35,0,0,1,7.06,43.55Z"/><path id="Path_260" data-name="Path 260" d="M8.37,31.76l1.21-.22A32.18,32.18,0,0,0,6.35,35c-.77,1.07.52.34.75.61-1.61,1.77-3.6,3.18-5,5.16C2.72,36.77,6.09,34.64,8.37,31.76Z"/><path id="Path_261" data-name="Path 261" d="M30.6,42.23c-1.88,3.8-4.07,7.46-5.16,11.61A22.23,22.23,0,0,1,30.38,42Z"/><path id="Path_262" data-name="Path 262" d="M30.8,6.5l-1,1.69-1.1-.09c1.34-3.71,4.72-5.56,7.34-8.1C34.6,2.42,32,3.91,30.8,6.5Z"/><path id="Path_263" data-name="Path 263" d="M28.71,8.1l1.1.09.72,1.21c-1,.72-1.83,2.66-2.55-.35-.45-1.86-2.12-.47-3.73.23C25.73,6.41,27.18,7,28.71,8.1Z"/><path id="Path_264" data-name="Path 264" d="M7.9,28.54c2.28-2.95,5.34-5.12,7.75-7.94C13.77,23.94,10.88,26.28,7.9,28.54Z"/><path id="Path_265" data-name="Path 265" d="M7,35.72c2.89-2.33,4.95-5.67,8.6-7.09-1.95,1.88-3.88,3.79-5.87,5.64C8.94,35,8.18,35.8,7,35.72Z"/><path id="Path_266" data-name="Path 266" d="M5.27,64.44l6.88-6.18C10.87,60.16,8.07,62.34,5.27,64.44Z"/><path id="Path_267" data-name="Path 267" d="M24,47.26a1.72,1.72,0,0,0-.19-2.3,8.46,8.46,0,0,1,3.89-3.4C26.21,43.31,26.41,46.07,24,47.26Z"/><path id="Path_268" data-name="Path 268" d="M24.29,18.66h1.56c-.1.52-.78.87-.48,1.59,1.34-.43,1.86-1.8,3.52-2.83A10.26,10.26,0,0,1,24.21,22C24.2,20.87,25,19.77,24.29,18.66Z"/></g><g id="Group_260" data-name="Group 260"><path id="Path_252-3" data-name="Path 252-3" d="M336.56,52.92l.51-1.66,0-.11a2.09,2.09,0,0,0,1.1-2.1c0-3.38,1.37-6.34,3.1-9.17,0,1.83-1.08,3.31-1.57,5s-1.42,3.5.23,5.62A39.45,39.45,0,0,1,341.44,43c.87-2.35,1.46-4.81,2.24-7.19.37-1.12-.17-1.15-1-1A10.64,10.64,0,0,1,347,31.61l-.05-.05a42.05,42.05,0,0,1-2.69,10.11c-.73,1.81-1.59,3.7-1.18,5.63a4.11,4.11,0,0,1-.72,3.16c-1.83,3.36-4.56,6.19-5.85,9.87-1.38,1-3,1.65-4.09,3.09-.58.76-.59-.09-.6-.52A36.41,36.41,0,0,0,341,50.46l-2.28,1.7C337.86,52,337.32,52.77,336.56,52.92Zm6.18-11.25c2.24-3.11,3-6,2.44-8.56Z"/><path id="Path_253-3" data-name="Path 253-3" d="M355.49,18.18c-1-.76-2.08-1.52-3.4-.58A3.15,3.15,0,0,0,351,21c.47,2.79-.18,5-3,6.14a15.21,15.21,0,0,0,1.61-2.37c.45-1,.21-1.55-1-.83.54-.8,2-1.14,1.46-2.5-.33-.86-1-.77-1.6-.22a3.73,3.73,0,0,0,1.75-3.6c-.16-2,4-5,5.77-4.56.64.16,1.24,1.39,1.94.28a1.45,1.45,0,0,0-.49-1.84,1.28,1.28,0,0,0-1.78-.19,1.55,1.55,0,0,0-.24.27c-.24.25-.4.7-.94.37-.26-1.27.67-1.62,1.6-1.93a1.64,1.64,0,0,1,2.13.95l0,.06c.54,1.17,1,1.6,2.11.5.36-.36,1.25-.88,1.8-.1.38.55-.11,1.08-.45,1.55a32.34,32.34,0,0,1-4.84,5.79c-.06-1.21.71-2.39,0-3.64a2,2,0,0,0-2.06-1.21,2,2,0,0,0-1.94,1.44c-.33,1.25.93.89,1.46,1.26A2.54,2.54,0,0,1,355.49,18.18Z"/><path id="Path_254-3" data-name="Path 254-3" d="M347,31.61c-.11-1.18.86-1.29,1.78-1.77-.21,4.9-1.55,9.39-2.62,13.94-.32,1.37-1.11,3,.34,4.07,1.61,1.21,3.37.5,4.91-.39,1.25-.73,2.38-1.66,3.56-2.5a1.74,1.74,0,0,1,.19,2.3c.37,1.28-.91,1.55-1.41,2.3-.9-.81.62-1.56,0-2.38a.57.57,0,0,0-.75.26.59.59,0,0,0-.05.22,4.84,4.84,0,0,1-4.4,4.6c-.28.05-1.66.76-1.2-.8.22-.74,1.74-1.47.08-2.29s-2.73-.51-3.6,1a165.59,165.59,0,0,0,4-17.33c.17-1,.15-1.41-.94-1.29Z"/><path id="Path_255-3" data-name="Path 255-3" d="M354,40.8l-2.28.72c-.47-3.81,1.19-6.92,2.34-10.27.94.72.07,1.35.19,2,2.67-.86,5.21-.87,7.41,1.19A25.86,25.86,0,0,0,354,40.8ZM359.2,34c-3.2.8-5,3-6.35,5.67Z"/><path id="Path_256-3" data-name="Path 256-3" d="M354,40.8a26,26,0,0,1,7.66-6.41c3.08,2.87,3.09,3.83,0,7.84l-.22-.21c.5-1.24,1.05-2.47,1.49-3.74a1.54,1.54,0,0,0-.4-1.86,1.59,1.59,0,0,0-1.91.12c-1.59,1.1-3.15,2.24-4.76,3.33C355.33,40.26,355,41.24,354,40.8Z"/><path id="Path_257-3" data-name="Path 257-3" d="M347,22.45c-.75,2.64-3,4.07-4.75,5.91-1,1-2,2-3,3L334.84,35l.21.2Z"/><path id="Path_258-3" data-name="Path 258-3" d="M361.92,6.5c2.57-1.63,4.14-4.47,7.54-6.2l-7.82,9.1-.72-1.21Z"/><path id="Path_259-3" data-name="Path 259-3" d="M338.17,43.55c-.36,2.54-.71,5.07-1.07,7.6l0,.11c-2.26,1.56-3.9,3.73-6,6.32a7.62,7.62,0,0,1,2.6-4.16c1.64-1.66,3.1-3.21,3-5.89A5.35,5.35,0,0,1,338.17,43.55Z"/><path id="Path_260-3" data-name="Path 260-3" d="M339.48,31.76l1.21-.22A33.22,33.22,0,0,0,337.46,35c-.77,1.07.53.34.75.61-1.61,1.77-3.6,3.18-5,5.16C333.84,36.77,337.21,34.64,339.48,31.76Z"/><path id="Path_261-3" data-name="Path 261-3" d="M361.71,42.23c-1.88,3.8-4.07,7.46-5.16,11.61A22.23,22.23,0,0,1,361.49,42Z"/><path id="Path_262-3" data-name="Path 262-3" d="M361.92,6.5l-1,1.69-1.09-.09c1.33-3.71,4.71-5.56,7.33-8.1C365.71,2.42,363.13,3.91,361.92,6.5Z"/><path id="Path_263-3" data-name="Path 263-3" d="M359.82,8.1l1.1.09.72,1.21c-.94.72-1.83,2.66-2.55-.35-.44-1.86-2.12-.47-3.73.23C356.84,6.41,358.29,7,359.82,8.1Z"/><path id="Path_264-3" data-name="Path 264-3" d="M339,28.54c2.28-2.95,5.35-5.12,7.76-7.94C344.88,23.94,342,26.28,339,28.54Z"/><path id="Path_265-3" data-name="Path 265-3" d="M338.09,35.72c2.89-2.33,5-5.67,8.6-7.09-1.95,1.88-3.88,3.79-5.87,5.64C340.05,35,339.3,35.8,338.09,35.72Z"/><path id="Path_266-3" data-name="Path 266-3" d="M336.39,64.44l6.87-6.18C342,60.16,339.19,62.34,336.39,64.44Z"/><path id="Path_267-3" data-name="Path 267-3" d="M355.13,47.26A1.73,1.73,0,0,0,355,45a8.39,8.39,0,0,1,3.88-3.4C357.32,43.31,357.53,46.07,355.13,47.26Z"/><path id="Path_268-3" data-name="Path 268-3" d="M355.41,18.66H357c-.1.52-.78.87-.48,1.59,1.34-.43,1.86-1.8,3.52-2.83A10.26,10.26,0,0,1,355.32,22C355.32,20.87,356.12,19.77,355.41,18.66Z"/></g><g id="Group_263" data-name="Group 263"><path id="Path_252-6" data-name="Path 252-6" d="M446.93,52.92l.51-1.66,0-.11a2.09,2.09,0,0,0,1.1-2.1c0-3.38,1.37-6.34,3.1-9.17,0,1.83-1.08,3.31-1.57,5s-1.42,3.5.23,5.62A40.26,40.26,0,0,1,451.81,43c.87-2.35,1.46-4.81,2.24-7.19.37-1.12-.17-1.15-1-1a10.61,10.61,0,0,1,4.3-3.22l-.06-.05a42.05,42.05,0,0,1-2.69,10.11c-.73,1.81-1.59,3.7-1.18,5.63a4.11,4.11,0,0,1-.72,3.16c-1.83,3.36-4.56,6.19-5.85,9.87-1.38,1-3,1.65-4.09,3.09-.58.76-.59-.09-.6-.52a36.41,36.41,0,0,0,9.23-12.44l-2.28,1.7C448.23,52,447.69,52.77,446.93,52.92Zm6.18-11.25c2.24-3.11,3-6,2.44-8.56Z"/><path id="Path_253-6" data-name="Path 253-6" d="M465.86,18.18c-1-.76-2.08-1.52-3.4-.58A3.15,3.15,0,0,0,461.33,21c.47,2.79-.18,5-3,6.14A15.21,15.21,0,0,0,460,24.75c.45-1,.22-1.55-1-.83.54-.8,2-1.14,1.46-2.5-.33-.86-1-.77-1.6-.22a3.73,3.73,0,0,0,1.75-3.6c-.16-2,4-5,5.77-4.56.64.16,1.24,1.39,1.94.28a1.45,1.45,0,0,0-.49-1.84,1.26,1.26,0,0,0-2,.08c-.24.25-.4.7-.94.37-.26-1.27.67-1.62,1.6-1.93a1.64,1.64,0,0,1,2.13.95l0,.06c.54,1.17,1,1.6,2.11.5.36-.36,1.25-.88,1.8-.1.38.55-.11,1.08-.45,1.55a31.93,31.93,0,0,1-4.84,5.79c-.06-1.21.71-2.39,0-3.64a2,2,0,0,0-2.06-1.21,2,2,0,0,0-1.94,1.44c-.33,1.25.93.89,1.46,1.26A2.54,2.54,0,0,1,465.86,18.18Z"/><path id="Path_254-6" data-name="Path 254-6" d="M457.35,31.61c-.11-1.18.86-1.29,1.78-1.77-.21,4.9-1.55,9.39-2.62,13.94-.32,1.37-1.11,3,.34,4.07,1.61,1.21,3.37.5,4.91-.39,1.25-.73,2.38-1.66,3.56-2.5a1.74,1.74,0,0,1,.19,2.3c.37,1.28-.91,1.55-1.41,2.3-.9-.81.62-1.56,0-2.38a.57.57,0,0,0-.75.26.59.59,0,0,0-.05.22,4.84,4.84,0,0,1-4.4,4.6c-.28.05-1.66.76-1.2-.8.22-.74,1.74-1.47.08-2.29s-2.73-.51-3.6,1a168.2,168.2,0,0,0,4.05-17.33c.16-1,.14-1.41-.95-1.29Z"/><path id="Path_255-6" data-name="Path 255-6" d="M464.37,40.8l-2.28.72c-.47-3.81,1.19-6.92,2.34-10.27.94.72.07,1.35.19,2,2.67-.86,5.21-.87,7.41,1.19A25.86,25.86,0,0,0,464.37,40.8Zm5.2-6.83c-3.2.8-5,3-6.35,5.67Z"/><path id="Path_256-6" data-name="Path 256-6" d="M464.37,40.8A26,26,0,0,1,472,34.39c3.08,2.87,3.09,3.83.05,7.84l-.22-.21c.5-1.24,1.05-2.47,1.49-3.74a1.54,1.54,0,0,0-.4-1.86,1.59,1.59,0,0,0-1.91.12c-1.59,1.1-3.15,2.24-4.76,3.33C465.7,40.26,465.37,41.24,464.37,40.8Z"/><path id="Path_257-6" data-name="Path 257-6" d="M457.33,22.45c-.75,2.64-3,4.07-4.75,5.91-1,1-2,2-3.05,3L445.21,35l.21.2Z"/><path id="Path_258-6" data-name="Path 258-6" d="M472.29,6.5c2.57-1.63,4.14-4.47,7.54-6.2L472,9.4l-.72-1.21Z"/><path id="Path_259-6" data-name="Path 259-6" d="M448.54,43.55c-.36,2.54-.71,5.07-1.07,7.6l0,.11c-2.26,1.56-3.9,3.73-6,6.32a7.62,7.62,0,0,1,2.6-4.16c1.64-1.66,3.1-3.21,3-5.89A5.35,5.35,0,0,1,448.54,43.55Z"/><path id="Path_260-6" data-name="Path 260-6" d="M449.85,31.76l1.21-.22A33.22,33.22,0,0,0,447.83,35c-.77,1.07.53.34.75.61-1.61,1.77-3.6,3.18-5,5.16C444.21,36.77,447.58,34.64,449.85,31.76Z"/><path id="Path_261-6" data-name="Path 261-6" d="M472.08,42.23c-1.88,3.8-4.07,7.46-5.16,11.61A22.23,22.23,0,0,1,471.86,42Z"/><path id="Path_262-6" data-name="Path 262-6" d="M472.29,6.5l-1,1.69L470.2,8.1c1.33-3.71,4.71-5.56,7.33-8.1C476.08,2.42,473.5,3.91,472.29,6.5Z"/><path id="Path_263-6" data-name="Path 263-6" d="M470.19,8.1l1.1.09L472,9.4c-.94.72-1.83,2.66-2.55-.35-.44-1.86-2.12-.47-3.73.23C467.21,6.41,468.66,7,470.19,8.1Z"/><path id="Path_264-6" data-name="Path 264-6" d="M449.38,28.54c2.28-2.95,5.35-5.12,7.76-7.94C455.25,23.94,452.36,26.28,449.38,28.54Z"/><path id="Path_265-6" data-name="Path 265-6" d="M448.46,35.72c2.89-2.33,5-5.67,8.6-7.09-1.95,1.88-3.88,3.79-5.87,5.64C450.42,35,449.67,35.8,448.46,35.72Z"/><path id="Path_266-6" data-name="Path 266-6" d="M446.76,64.44l6.87-6.18C452.35,60.16,449.56,62.34,446.76,64.44Z"/><path id="Path_267-6" data-name="Path 267-6" d="M465.51,47.26a1.74,1.74,0,0,0-.19-2.3,8.39,8.39,0,0,1,3.88-3.4C467.69,43.31,467.9,46.07,465.51,47.26Z"/><path id="Path_268-6" data-name="Path 268-6" d="M465.78,18.66h1.55c-.1.52-.78.87-.48,1.59,1.34-.43,1.86-1.8,3.52-2.83A10.26,10.26,0,0,1,465.69,22C465.69,20.87,466.49,19.77,465.78,18.66Z"/></g><path class="cls-65" d="M115.39,15C156,32.56,182.72,14,156,32.56s-31.85,17.31-53.44,9.83S74.77-2.5,115.39,15Z"/><path d="M132.81,44c-1.71.07-.56-1.84-1.83-2.44A65,65,0,0,1,119.75,57c-1.86,2-2.23,4.62-2.71,7.19-.77,4.15-1.49,8.33-3.22,11.81-.4-13.48,7.52-23.62,16.3-33.69-6.32-1.06-6.32-1.06-10.07,4-.68-.66-.08-1.21.24-1.7,1.54-2.33.65-3-1.82-3-5.06,0-10.13.44-15.13-.87-2.67-.7-5.23-1.45-7-4,7.32,5,15.65,3.41,23.65,3.89,8.31.49,16.34-.57,23.85-4.71-.81,2.18-3.56,2-4.39,4.31-.31.87-3.06,1.17-4.27,2.52l-1.08-.3c-.19.54-.39,1.08-.58,1.63h-.76Z"/><path d="M136.93,24.36c-1.69,3.35-2.89,3.91-5,2.33l-.08.08c3.26-.93.88-2.3,0-2.83A14.37,14.37,0,0,0,124,22a12.06,12.06,0,0,1-8.92-3.47A9.3,9.3,0,0,0,113.17,17c-2.59-1.31-6.11-1.46-4.42-6.31.89-2.53-2.25-1.74-4.09-2,.89-1.73,2.07-1.7,3.39-1.09a3.51,3.51,0,0,1,2,4.09c-.75,2.29.43,2.7,2,3.52a31,31,0,0,1,4.3,3.12c1.88,1.46,3.87,2.68,6.32,2.66,3.88,0,7.68.05,10.87,2.73.8.68,1.49-.41,2.28-.38Z"/><path d="M100.91,23.1c-2.13,5.79,3.2,5.6,6.92,7.53-6.93-.58-7.63-1.16-8.62-6.55-.16-.86-.39-1.75-1.3-1.84a2.64,2.64,0,0,0-1.76.83c-1.59,1.61-2.35,4.24-1.29,5.65,3.28,4.34-1.47,3.16-2.48,4.67-1-1.65,2.19-1.29,1-2.63-2.15-2.35-4.2-1-6.21.53,1.65-1.08,1.6-4.89,5.27-2.68,1.08.65,1-1.77.46-2.62a24.81,24.81,0,0,0-3.15-3.17c.12-.12.23-.25.35-.38,1.67.07,2.19,1.9,3.58,2.41,2.62-4.76,3.92-5.05,7.29-1.69Z"/><path d="M129.78,30.28c1.15,1.41,1.44,3.15,2.19,5.85-3.58-4.27-7.06-2.7-10.58-1.49-4.12,1.41-8.17,1.93-11.54-2.12,6.37,4.7,12,0,17.82-1.22-4.88-.87-9.49,2.62-14.42.79,5.65.42,10.81-3.57,16.63-1.73Z"/><path d="M100.93,23.16c.37-1.44.83-2.87,1.09-4.33s.49-3.22-1.37-3.81c-1.63-.51-2.4.93-3.09,2.11a16.17,16.17,0,0,1-1.28,2.23c.32-2.56-1.17-4-3-5.7,3.46,2.27,5.8,1.53,7.34-2.07a2.51,2.51,0,0,1,3.12-1.34c1.3.3,2.67,1.22,2.45,2.38-.66,3.44,1.6,4.73,4,6.2-1.91-.37-3.7-1.08-6-.11,1-2.12,2-4,1-5.91-.54-1.13-1.53-2.08-3-1.24-.94.54-1.35,1.31-.47,2.33,2.89,3.36,1.06,6.27-.91,9.18A.45.45,0,0,0,100.93,23.16Z"/><path d="M159.27,16.15A74.14,74.14,0,0,0,147,28.51c-3.45,4.53-9.61,3.24-14,6.12C144.49,32.32,150,21.5,159.27,16.15Z"/><path d="M136.93,24.36l-1.11-1.06L151,8.37l1,1A110.12,110.12,0,0,0,136.93,24.36Z"/><path d="M118.79,48.75c-6.2,6.76-6.87,15.47-8.81,23.74C110.9,63.89,111.5,55.18,118.79,48.75Z"/><path d="M129.88,30.36c-2.71-2.61-5.95-2.21-9.18-1.52-4.26.91-8,.29-10.68-3.73,3.82,4.06,8.36,3.14,12.94,2.29a10.31,10.31,0,0,1,7.17,1.1c1.33.76.75,1.38-.36,1.77Z"/><path d="M132,26.69c-3.23-1.35-6.66-1.12-10-1.24-2.83-.09-5.7-.07-7.89-2.46,4.17,2,8.61,1.19,12.94,1.39,2,.1,4.21-.32,4.92,2.39Z"/><path d="M157.15,9.64c-6.4,2.53-10.58,7.88-16.28,13.15C144.82,16.08,152.14,10.31,157.15,9.64Z"/><path d="M75.67,48.16c5.41-5.08,12.18-7.85,18.27-11.76l.51.87Z"/><path d="M82.72,39l-9.6,3.94c5-3.36,10.64-5.55,15.1-9.83l-3.83,5Z"/><path d="M126,52.72a29.8,29.8,0,0,0-7.55,17.49C118.34,63.22,120.1,57,126,52.72Z"/><path d="M122.83,61.47c.73-3.55,3.54-5.57,5.19-8.27a1.09,1.09,0,0,1,1-.21,1.33,1.33,0,0,1,.28,1.82A15.71,15.71,0,0,1,122.83,61.47Z"/><path d="M82.72,39l1.67-.85A2.88,2.88,0,0,1,87.13,37C83.71,42,78,43,73.27,45.43,75.68,42.19,80.21,42.07,82.72,39Z"/><path d="M120.2,17.9c3.72,2.08,8-.16,11.75,1.78C127.94,19.75,123.8,20.76,120.2,17.9Z"/><path d="M155.4,13.13c-4.12,1.25-4.49,7-9.93,7.85C148.81,17.63,151.22,14.31,155.4,13.13Z"/><path d="M89.71,22.82A18.77,18.77,0,0,1,80.35,12.2c2.59,4,6.14,7.15,9.71,10.24C89.94,22.57,89.83,22.7,89.71,22.82Z"/><path d="M136.47,21.07l9-9.89-.08,0-9.56,9.33Z"/><path d="M149.17,31.16l7.62-8.67A16.55,16.55,0,0,1,149.17,31.16Z"/><path d="M132.81,44h.73c-.06,1.74,1.06.71,1.73.73-.61,1.73-1.1,3.54-3,4.4l.05-.22.08.21c-1.27-.4-1.31-1.08-.6-2.12C132.41,46.12,133.14,45.21,132.81,44Z"/><path d="M134.15,42.36c.21.68.37,1.35-.58,1.63C133.76,43.44,134,42.9,134.15,42.36Z"/><path class="cls-65" d="M256.51,11.23c-10.29,1.91-11-7.42-15.54,4.9s-12,3.61-13.16,21.75-9.52,35.81,5.34,18.5S253,34,253,34,266.81,9.31,256.51,11.23Z"/><g id="Group_261" data-name="Group 261"><path id="Path_252-4" data-name="Path 252-4" d="M226.19,52.92l.51-1.66,0-.11a2.09,2.09,0,0,0,1.1-2.1c0-3.38,1.37-6.34,3.1-9.17,0,1.83-1.08,3.31-1.57,5s-1.42,3.5.23,5.62A38.68,38.68,0,0,1,231.07,43c.87-2.35,1.46-4.81,2.24-7.19.37-1.12-.18-1.15-1-1a10.58,10.58,0,0,1,4.29-3.22l-.05-.05a42.05,42.05,0,0,1-2.69,10.11c-.73,1.81-1.59,3.7-1.18,5.63a4.11,4.11,0,0,1-.73,3.16c-1.82,3.36-4.56,6.19-5.84,9.87-1.38,1-3,1.65-4.09,3.09-.58.76-.59-.09-.61-.52a36.31,36.31,0,0,0,9.24-12.44l-2.28,1.7C227.49,52,227,52.77,226.19,52.92Zm6.18-11.25c2.24-3.11,3-6,2.44-8.56Z"/><path id="Path_253-4" data-name="Path 253-4" d="M245.12,18.18c-1-.76-2.08-1.52-3.4-.58A3.15,3.15,0,0,0,240.59,21c.47,2.79-.18,5-3,6.14a15.21,15.21,0,0,0,1.61-2.37c.45-1,.21-1.55-1-.83.55-.8,2-1.14,1.47-2.5-.33-.86-1-.77-1.6-.22a3.73,3.73,0,0,0,1.75-3.6c-.16-2,4-5,5.77-4.56.64.16,1.24,1.39,1.94.28a1.46,1.46,0,0,0-.49-1.84,1.28,1.28,0,0,0-1.78-.19,1.55,1.55,0,0,0-.24.27c-.24.25-.4.7-.94.37-.26-1.27.67-1.62,1.6-1.93a1.64,1.64,0,0,1,2.13.95l0,.06c.54,1.17,1,1.6,2.11.5.36-.36,1.25-.88,1.8-.1.38.55-.11,1.08-.46,1.55a31.87,31.87,0,0,1-4.83,5.79c-.06-1.21.71-2.39,0-3.64a2,2,0,0,0-2.06-1.21,2,2,0,0,0-1.94,1.44c-.33,1.25.93.89,1.46,1.26A2.54,2.54,0,0,1,245.12,18.18Z"/><path id="Path_254-4" data-name="Path 254-4" d="M236.61,31.61c-.11-1.18.86-1.29,1.78-1.77-.21,4.9-1.55,9.39-2.62,13.94-.32,1.37-1.11,3,.34,4.07,1.61,1.21,3.37.5,4.91-.39,1.25-.73,2.37-1.66,3.56-2.5a1.73,1.73,0,0,1,.18,2.3c.37,1.28-.9,1.55-1.4,2.3-.9-.81.62-1.56,0-2.38a.57.57,0,0,0-.75.26.59.59,0,0,0,0,.22,4.84,4.84,0,0,1-4.4,4.6c-.28.05-1.66.76-1.2-.8.22-.74,1.74-1.47.08-2.29-1.51-.74-2.73-.51-3.6,1a165.59,165.59,0,0,0,4-17.33c.17-1,.15-1.41-.94-1.29Z"/><path id="Path_255-4" data-name="Path 255-4" d="M243.63,40.8l-2.28.72c-.47-3.81,1.19-6.92,2.34-10.27.94.72.07,1.35.19,2,2.67-.86,5.21-.87,7.41,1.19A25.86,25.86,0,0,0,243.63,40.8Zm5.2-6.83c-3.2.8-5,3-6.35,5.67Z"/><path id="Path_256-4" data-name="Path 256-4" d="M243.63,40.8a25.86,25.86,0,0,1,7.66-6.41c3.08,2.87,3.09,3.83.05,7.84l-.22-.21c.5-1.24,1-2.47,1.49-3.74a1.54,1.54,0,0,0-.4-1.86,1.59,1.59,0,0,0-1.91.12c-1.59,1.1-3.15,2.24-4.76,3.33C245,40.26,244.63,41.24,243.63,40.8Z"/><path id="Path_257-4" data-name="Path 257-4" d="M236.59,22.45c-.75,2.64-3,4.07-4.75,5.91-1,1-2,2-3.05,3L224.47,35l.21.2Z"/><path id="Path_258-4" data-name="Path 258-4" d="M251.55,6.5c2.57-1.63,4.14-4.47,7.54-6.2l-7.82,9.1-.72-1.21Z"/><path id="Path_259-4" data-name="Path 259-4" d="M227.8,43.55c-.36,2.54-.71,5.07-1.07,7.6l0,.11c-2.26,1.56-3.9,3.73-6,6.32a7.62,7.62,0,0,1,2.6-4.16c1.64-1.66,3.1-3.21,3-5.89A5.35,5.35,0,0,1,227.8,43.55Z"/><path id="Path_260-4" data-name="Path 260-4" d="M229.11,31.76l1.21-.22A33.22,33.22,0,0,0,227.09,35c-.77,1.07.53.34.75.61-1.61,1.77-3.6,3.18-5,5.16C223.47,36.77,226.83,34.64,229.11,31.76Z"/><path id="Path_261-4" data-name="Path 261-4" d="M251.34,42.23c-1.88,3.8-4.07,7.46-5.16,11.61A22.23,22.23,0,0,1,251.12,42Z"/><path id="Path_262-4" data-name="Path 262-4" d="M251.54,6.5l-1,1.69-1.09-.09c1.33-3.71,4.71-5.56,7.33-8.1C255.34,2.42,252.76,3.91,251.54,6.5Z"/><path id="Path_263-4" data-name="Path 263-4" d="M249.45,8.1l1.1.09.72,1.21c-1,.72-1.83,2.66-2.55-.35-.44-1.86-2.12-.47-3.73.23C246.47,6.41,247.92,7,249.45,8.1Z"/><path id="Path_264-4" data-name="Path 264-4" d="M228.64,28.54c2.28-2.95,5.34-5.12,7.75-7.94C234.51,23.94,231.62,26.28,228.64,28.54Z"/><path id="Path_265-4" data-name="Path 265-4" d="M227.72,35.72c2.89-2.33,5-5.67,8.6-7.09-1.95,1.88-3.88,3.79-5.87,5.64C229.68,35,228.93,35.8,227.72,35.72Z"/><path id="Path_266-4" data-name="Path 266-4" d="M226,64.44l6.87-6.18C231.61,60.16,228.82,62.34,226,64.44Z"/><path id="Path_267-4" data-name="Path 267-4" d="M244.76,47.26a1.73,1.73,0,0,0-.18-2.3,8.39,8.39,0,0,1,3.88-3.4C247,43.31,247.16,46.07,244.76,47.26Z"/><path id="Path_268-4" data-name="Path 268-4" d="M245,18.66h1.55c-.1.52-.78.87-.48,1.59,1.34-.43,1.86-1.8,3.52-2.83A10.26,10.26,0,0,1,245,22C244.94,20.87,245.75,19.77,245,18.66Z"/></g><path class="cls-65" d="M564.91,49.64c13.8-14.83,25.88,4,13.8-14.83S561.93,10,554.83,15.92,551.1,64.46,564.91,49.64Z"/><path d="M575.4,15.63c4.73,1.55,9.52,3,11.38,8.38.28.82.4,2.12,1.75,1.68S589.91,24,589.7,23c-.71-3.44-3.06-5.84-5.58-8.4,5.41.52,5.67,5.09,7.07,8.79,2-3,.83-8.37-2.53-9.92-4.83-2.22-8.8-6.26-14.44-6.77,4.54-.58,17,5.86,19,9.68,1.6,3,1.39,6.28,1,9.5a69.77,69.77,0,0,1-1.59,8.73c-.71,2.77-.6,5.59-.93,8.37-1.3-6.27,1.2-12.19,1.64-18.32-2.87.41-2.87.41-2.87,2.75,0,6,0,12.08-.2,18.12-1.53-5.29-1.19-10.62-.62-16,.09-.86.78-2.43-1-2.36-1.6.07-1.27,1.42-1.08,2.48,1,5.58-.54,11.31.93,16.87-2.43-5.88-1-12.29-2.58-18.34-2.1,7.47-1.75,15-.68,22.59-2.32-4.58-1.83-9.72-2.87-14.55-.27-1.25.41-3.7-2.52-2.84-1.38.41-2.18.55-1.79,2.57,1.07,5.5,1.53,11.1,3,16.56.38,1.47,1.81,1.85,2.38,4.23-4.09-3.95-7.67-7.07-12.24-8.63a1.41,1.41,0,0,1-.81-.85,126.29,126.29,0,0,0-4.24-14.82c1.93.86,1.34,2.87,2.41,4.06.77.85,1.16,2.46,2.7,1.87a3.09,3.09,0,0,0,1.9-3.3,34.7,34.7,0,0,0-1.3-4.89c2.71,2.22,2.45,4.58,2.5,7a35.72,35.72,0,0,0,1.18,7.14c.55,2.36.41,5.18,3.89,6.64-1.8-7.57-.65-15.23-5.33-21.84,1.32-.21,1.61.6,2,1.16.88,1.23,1.82,2.75,3.53,1.7a2.59,2.59,0,0,0,.43-4.21c-2.34-1.82-2.57-4.55-4-7a6.46,6.46,0,0,1,4.52,4.8c.45,1.6.86,4.11,3.11,3.16,2.08-.88,1.53-3.3.55-5-1.67-2.86-3.26-5.89-6.92-6.81A6.82,6.82,0,0,1,575.4,15.63Zm-.32,33.24c-.24-3.8-.76-6.72-2.35-9.36C572.46,42.63,571.63,45.89,575.08,48.87Z"/><path d="M561.67,67.12a32.23,32.23,0,0,1,1.22-15.42c2.49-7.08.61-13.15-3.26-19a22.44,22.44,0,0,1-1.27-2c-.09-.16.09-.46.19-.91a67.67,67.67,0,0,1,4.89,6.06c2,3.15,3.65,6.7,1.77,10.94-1.34,3-1.8,6.43-2.36,9.72S562.1,63.06,561.67,67.12Z"/><path d="M558.33,41.1a6.82,6.82,0,0,1,1.81,6.79c-1.47,6.6-1.58,13.33-2.11,20C556.06,59.17,560.62,50.37,558.33,41.1Z"/><path d="M550.42,20.22c0,2.62-.12,5.34.63,7.9A72.5,72.5,0,0,0,554,35.31C550,31.29,548.42,24.94,550.42,20.22Z"/><path d="M553.06,15.88c3.57-4.05,7.64-2.54,11.83,4.7-2.32-2.12-3.83-3.68-5.53-5C557.34,14,555.2,13.85,553.06,15.88Z"/><path d="M567.13,52c-.9,4-1.8,8.08-2.88,13A26.63,26.63,0,0,1,567.13,52Z"/></g></g></svg>