<svg xmlns="http://www.w3.org/2000/svg" viewBox="0 0 192.45 771.47"><defs><style>.cls-1,.cls-10,.cls-11,.cls-12,.cls-13,.cls-14,.cls-15,.cls-16,.cls-17,.cls-18,.cls-19,.cls-2,.cls-20,.cls-21,.cls-22,.cls-23,.cls-24,.cls-25,.cls-26,.cls-27,.cls-28,.cls-29,.cls-3,.cls-30,.cls-31,.cls-32,.cls-33,.cls-34,.cls-35,.cls-36,.cls-37,.cls-38,.cls-39,.cls-4,.cls-40,.cls-41,.cls-42,.cls-43,.cls-44,.cls-45,.cls-46,.cls-47,.cls-48,.cls-49,.cls-5,.cls-50,.cls-51,.cls-52,.cls-53,.cls-54,.cls-55,.cls-56,.cls-57,.cls-58,.cls-59,.cls-6,.cls-60,.cls-61,.cls-62,.cls-63,.cls-64,.cls-7,.cls-8,.cls-9{isolation:isolate;}.cls-10,.cls-11,.cls-12,.cls-13,.cls-14,.cls-15,.cls-16,.cls-17,.cls-18,.cls-19,.cls-2,.cls-20,.cls-21,.cls-22,.cls-23,.cls-24,.cls-25,.cls-26,.cls-27,.cls-28,.cls-29,.cls-3,.cls-30,.cls-31,.cls-32,.cls-33,.cls-34,.cls-35,.cls-36,.cls-37,.cls-38,.cls-39,.cls-4,.cls-40,.cls-41,.cls-42,.cls-43,.cls-44,.cls-45,.cls-46,.cls-47,.cls-48,.cls-49,.cls-5,.cls-50,.cls-51,.cls-52,.cls-53,.cls-54,.cls-55,.cls-56,.cls-57,.cls-58,.cls-59,.cls-6,.cls-60,.cls-61,.cls-62,.cls-63,.cls-64,.cls-7,.cls-8,.cls-9{fill:none;stroke:#000;opacity:0.7;}.cls-2{stroke-width:0.78px;}.cls-3{stroke-width:0.34px;}.cls-4{stroke-width:0.32px;}.cls-5{stroke-width:0.31px;}.cls-6{stroke-width:0.49px;}.cls-7{stroke-width:0.5px;}.cls-8{stroke-width:1.58px;}.cls-9{stroke-width:1.59px;}.cls-10{stroke-width:0.25px;}.cls-11{stroke-width:0.27px;}.cls-12{stroke-width:0.31px;}.cls-13{stroke-width:0.09px;}.cls-14{stroke-width:1.61px;}.cls-15{stroke-width:0.5px;}.cls-16{stroke-width:0.56px;}.cls-17{stroke-width:0.38px;}.cls-18{stroke-width:0.54px;}.cls-19{stroke-width:0.35px;}.cls-20{stroke-width:0.79px;}.cls-21{stroke-width:0.56px;}.cls-22{stroke-width:0.34px;}.cls-23{stroke-width:1.11px;}.cls-24{stroke-width:0.13px;}.cls-25{stroke-width:0.76px;}.cls-26{stroke-width:1.13px;}.cls-27{stroke-width:0.63px;}.cls-28{stroke-width:0.66px;}.cls-29{stroke-width:0.7px;}.cls-30{stroke-width:0.35px;}.cls-31{stroke-width:0.16px;}.cls-32{stroke-width:0.72px;}.cls-33{stroke-width:0.11px;}.cls-34{stroke-width:0.75px;}.cls-35{stroke-width:0.51px;}.cls-36{stroke-width:0.98px;}.cls-37{stroke-width:0.12px;}.cls-38{stroke-width:0.2px;}.cls-39{stroke-width:0.9px;}.cls-40{stroke-width:0.7px;}.cls-41{stroke-width:0.5px;}.cls-42{stroke-width:0.27px;}.cls-43{stroke-width:1.2px;}.cls-44{stroke-width:0.99px;}.cls-45{stroke-width:0.09px;}.cls-46{stroke-width:0.17px;}.cls-47{stroke-width:0.19px;}.cls-48{stroke-width:1.64px;}.cls-49{stroke-width:1.62px;}.cls-50{stroke-width:0.95px;}.cls-51{stroke-width:0.95px;}.cls-52{stroke-width:0.74px;}.cls-53{stroke-width:0.56px;}.cls-54{stroke-width:0.26px;}.cls-55{stroke-width:1.15px;}.cls-56{stroke-width:0.73px;}.cls-57{stroke-width:0.35px;}.cls-58{stroke-width:1.07px;}.cls-59{stroke-width:0.93px;}.cls-60{stroke-width:0.38px;}.cls-61{stroke-width:0.38px;}.cls-62{stroke-width:0.51px;}.cls-63{stroke-width:0.15px;}.cls-64{stroke-width:0.5px;}</style></defs><title>Asset 17artifact-radials-vert-names-right</title><g id="Layer_2" data-name="Layer 2"><g id="Layer_1-2" data-name="Layer 1"><g id="Head" class="cls-1"><g class="cls-1"><path d="M159.32,2.22v9.23l.09.08h1.28v.77h-4.1v-.77h1.28l.08-.08V6.8h-5.81v4.65l.09.08h1.28v.77h-4.1v-.77h1.28l.09-.08V2.22l-1.45-.85V1.2h4.35v.17l-1.54.85V6H158V2.22l-1.53-.85V1.2h4.35v.17Z"/><path d="M168.09,8.49h-4.72c0,2.24,1.18,3.06,2.72,3.06a3.78,3.78,0,0,0,1.76-.43l.18.36a3.9,3.9,0,0,1-2.64,1A3.28,3.28,0,0,1,162.05,9a3.58,3.58,0,0,1,3.37-3.84,2.55,2.55,0,0,1,2.7,2.8C168.12,8.1,168.1,8.29,168.09,8.49Zm-4.69-.61h3.39c0-1.42-.57-2.07-1.49-2.07S163.58,6.34,163.4,7.88Z"/><path d="M175.59,11.53v.77h-2.31v-.7a4,4,0,0,1-2.25.87,1.59,1.59,0,0,1-1.71-1.64c0-1.57,1.65-2.15,4-2.25V8.05c0-1.35-.31-2-1.55-2a3.48,3.48,0,0,0-2,.65l-.22-.41a3.63,3.63,0,0,1,2.67-1.16,2.09,2.09,0,0,1,2.29,2.23v4.09l.08.08Zm-2.31-.24V9.12c-1.45.11-2.75.35-2.75,1.49,0,.67.46,1,1.11,1A5.28,5.28,0,0,0,173.28,11.29Z"/><path d="M184.49,11.53v.77H182.1v-.82a5.44,5.44,0,0,1-2.65,1c-1.69,0-2.68-1.71-2.68-3.47,0-1.94,1.12-3.87,3.55-3.87a4.17,4.17,0,0,1,1.78.35V1.71L181,1.16V1.08L183.19,0l.1.05v11.4l.09.08Zm-2.39-.32V6.87a2.06,2.06,0,0,0-1.95-1.06c-1.5,0-2.07,1.09-2.07,2.82s.6,2.83,2.09,2.83A7.6,7.6,0,0,0,182.1,11.21Z"/></g></g><g id="Arms" class="cls-1"><g class="cls-1"><path d="M159.94,134v.77H156.5V134h.82l.09-.08-1-3h-3.75l-1.09,3,.09.08h1.26v.77h-3.55V134h1.18l.08-.08,3.88-10.34h.65l3.74,10.34.09.08Zm-3.83-3.89-1.56-4.55h0l-1.62,4.55Z"/><path d="M165.92,127.66v1.25a4.6,4.6,0,0,0-.87-.08,7.84,7.84,0,0,0-1.8.24v4.8l.09.08h1.28v.77h-3.68V134h1l.08-.08v-4.65l-1.14-.55v-.08l2.07-1.06.1,0,.17,1.16a5.46,5.46,0,0,1,2.24-1.19A.88.88,0,0,1,165.92,127.66Z"/><path d="M179,134v.77h-3.41V134h1l.09-.08v-3.25c0-1.47-.29-2-1.49-2a7.51,7.51,0,0,0-1.86.26l0,0a3,3,0,0,1,.07.68v4.33l.08.08h1v.77H171V134h1l.08-.08v-3.25c0-1.47-.29-2-1.48-2a8.27,8.27,0,0,0-1.82.24v5l.09.08h1v.77h-3.42V134h1l.09-.08v-4.63l-1.15-.55v-.09l2.07-1,.1,0,.14,1a4.77,4.77,0,0,1,2.39-1c1.1,0,1.73.37,2,1.09a5,5,0,0,1,2.5-1.09c1.48,0,2.13.71,2.13,2v4.33l.09.08Z"/><path d="M180.2,134.48v-1.79h.08l.86.94a2,2,0,0,0,1.37.61c.7,0,1.18-.36,1.18-1,0-.86-.82-1.13-1.71-1.61-1-.56-1.68-1.16-1.68-2.15s.92-2,2.43-2a4.94,4.94,0,0,1,1.81.32v1.74h-.09l-.88-1a1.66,1.66,0,0,0-1.13-.44c-.69,0-1.11.39-1.11.95,0,.81.8,1.18,1.6,1.61s1.81,1,1.81,2.15a2.11,2.11,0,0,1-2.35,2A6.06,6.06,0,0,1,180.2,134.48Z"/></g></g><g id="Hands" class="cls-1"><g class="cls-1"><path d="M159.32,289.48v9.22l.09.09h1.28v.77h-4.1v-.77h1.28l.08-.09v-4.64h-5.81v4.64l.09.09h1.28v.77h-4.1v-.77h1.28l.09-.09v-9.22l-1.45-.86v-.17h4.35v.17l-1.54.86v3.81H158v-3.81l-1.53-.86v-.17h4.35v.17Z"/><path d="M168.58,298.79v.77h-2.31v-.7a4.06,4.06,0,0,1-2.25.87,1.6,1.6,0,0,1-1.71-1.64c0-1.57,1.66-2.15,4-2.26v-.53c0-1.35-.3-2-1.55-2a3.45,3.45,0,0,0-2,.65l-.22-.41a3.61,3.61,0,0,1,2.66-1.16,2.09,2.09,0,0,1,2.29,2.24v4.08l.09.09Zm-2.31-.24v-2.17c-1.45.1-2.75.34-2.75,1.49,0,.66.47,1,1.11,1A5.23,5.23,0,0,0,166.27,298.55Z"/><path d="M177.74,298.79v.77h-3.5v-.77h1.11l.08-.09v-3.24c0-1.47-.3-2-1.57-2a9.69,9.69,0,0,0-1.9.24v5l.09.09h1.11v.77h-3.5v-.77h1l.09-.09v-4.64l-1.15-.55v-.09l2.07-1.06.1.06.14,1a5,5,0,0,1,2.48-1c1.54,0,2.22.72,2.22,2v4.32l.08.09Z"/><path d="M186.64,298.79v.77h-2.39v-.82a5.4,5.4,0,0,1-2.65,1c-1.69,0-2.68-1.71-2.68-3.47,0-1.95,1.13-3.88,3.55-3.88a4.13,4.13,0,0,1,1.78.36V289l-1.15-.54v-.09l2.24-1.08.11.06V298.7l.08.09Zm-2.39-.33v-4.34a2.07,2.07,0,0,0-1.95-1.06c-1.5,0-2.07,1.1-2.07,2.82s.6,2.84,2.09,2.84A7.57,7.57,0,0,0,184.25,298.46Z"/><path d="M187.9,299.32v-1.8H188l.85.94a2,2,0,0,0,1.37.62c.7,0,1.18-.36,1.18-1,0-.85-.82-1.12-1.71-1.6-1-.56-1.67-1.16-1.67-2.15,0-1.15.92-2,2.42-2a4.87,4.87,0,0,1,1.81.33v1.74h-.08l-.89-1a1.6,1.6,0,0,0-1.13-.45,1,1,0,0,0-1.11,1c0,.8.81,1.18,1.61,1.61s1.81,1,1.81,2.15a2.12,2.12,0,0,1-2.36,2A6.1,6.1,0,0,1,187.9,299.32Z"/></g></g><g id="Torso" class="cls-1"><g class="cls-1"><path d="M152,425.53h1.28l.09-.08V416h-2.74l-1.21,2.13h-.08v-2.9h9.43v2.9h-.1l-1.2-2.13h-2.73v9.48l.08.08h1.28v.77H152Z"/><path d="M158.84,422.94a3.58,3.58,0,0,1,3.61-3.81,3.28,3.28,0,0,1,3.4,3.53,3.59,3.59,0,0,1-3.57,3.81A3.29,3.29,0,0,1,158.84,422.94Zm5.68.15c0-1.88-1-3.28-2.35-3.28-1.12,0-2,.84-2,2.68s1,3.3,2.34,3.3C163.68,425.79,164.52,424.92,164.52,423.09Z"/><path d="M172.08,419.25v1.24a4.52,4.52,0,0,0-.87-.08,7.69,7.69,0,0,0-1.79.24v4.8l.08.08h1.29v.77h-3.68v-.77h1l.08-.08V420.8l-1.14-.55v-.08l2.07-1.06.1.05.17,1.16a5.4,5.4,0,0,1,2.24-1.19A.72.72,0,0,1,172.08,419.25Z"/><path d="M173,426.06v-1.79h.09l.85.94a2,2,0,0,0,1.37.61c.7,0,1.18-.35,1.18-1,0-.85-.82-1.13-1.71-1.61-1-.56-1.67-1.16-1.67-2.15s.92-2,2.42-2a5.12,5.12,0,0,1,1.81.32v1.74h-.08l-.89-1a1.66,1.66,0,0,0-1.13-.44,1,1,0,0,0-1.11,1c0,.8.8,1.17,1.61,1.6s1.81,1,1.81,2.15a2.12,2.12,0,0,1-2.36,2A6.06,6.06,0,0,1,173,426.06Z"/><path d="M178.9,422.94a3.58,3.58,0,0,1,3.61-3.81,3.28,3.28,0,0,1,3.4,3.53,3.59,3.59,0,0,1-3.57,3.81A3.29,3.29,0,0,1,178.9,422.94Zm5.67.15c0-1.88-1-3.28-2.34-3.28-1.13,0-2,.84-2,2.68s.95,3.3,2.34,3.3C183.74,425.79,184.57,424.92,184.57,423.09Z"/></g></g><g id="Legs" class="cls-1"><g class="cls-1"><path d="M149.41,554.17h1.28l.09-.09v-9.23l-1.45-.85v-.17h4.35V544l-1.53.85v9.32h3.75l1.08-2.06h.17v2.82h-7.74Z"/><path d="M164.64,551.12h-4.72c0,2.24,1.18,3.06,2.72,3.06a3.94,3.94,0,0,0,1.76-.42l.18.35a3.91,3.91,0,0,1-2.64,1,3.28,3.28,0,0,1-3.34-3.51,3.58,3.58,0,0,1,3.37-3.85,2.55,2.55,0,0,1,2.7,2.8C164.67,550.73,164.65,550.92,164.64,551.12Zm-4.69-.61h3.39c0-1.42-.57-2.07-1.49-2.07S160.12,549,160,550.51Z"/><path d="M172.92,549.11,171.3,549a2.89,2.89,0,0,1,.37,1.47,2.81,2.81,0,0,1-3,2.77,3,3,0,0,1-1.13-.2,1.6,1.6,0,0,0-.36.87c0,.48.31.7,1.85.7h.44c2,0,2.81.49,2.81,1.54,0,2-2.17,2.76-4.1,2.76-1.49,0-2.53-.46-2.53-1.47,0-.8.65-1.24,1.19-1.74a1,1,0,0,1-.83-1c0-.68.66-1.32,1.24-1.76a2.37,2.37,0,0,1-1.23-2.17,2.83,2.83,0,0,1,2.94-2.92,2.66,2.66,0,0,1,1.95.73l2-.82Zm-5.67,6.61a2.46,2.46,0,0,0-.39,1.26c0,.91.61,1.29,1.57,1.29,1.18,0,2.78-.6,2.78-1.64,0-.58-.49-.84-1.57-.84h-1.26A7.51,7.51,0,0,1,167.25,555.72Zm3.16-5c0-1.52-.67-2.39-1.55-2.39s-1.53.63-1.53,2,.59,2.31,1.54,2.31S170.41,552.05,170.41,550.71Z"/><path d="M173.84,554.69V552.9h.09l.85.94a2,2,0,0,0,1.37.62c.7,0,1.18-.36,1.18-1,0-.85-.82-1.13-1.71-1.6-1-.57-1.67-1.17-1.67-2.16s.92-2,2.42-2a5.12,5.12,0,0,1,1.81.32v1.75h-.08l-.89-1a1.64,1.64,0,0,0-1.13-.44,1,1,0,0,0-1.11,1c0,.8.8,1.18,1.61,1.6s1.81,1,1.81,2.16a2.12,2.12,0,0,1-2.36,2A6.1,6.1,0,0,1,173.84,554.69Z"/></g></g><g id="Feet" class="cls-1"><g class="cls-1"><path d="M157.08,706.33v2.82H157l-1.18-2.06h-3.68v4.41h2.91l.08-.08v-1.28h.77v3.5h-.77v-1.28l-.08-.09h-2.91v4.29l.12.1h1.63v.77h-4.48v-.77h1.28l.09-.08v-9.23l-1.45-.85v-.17Z"/><path d="M163.71,713.62H159c0,2.24,1.18,3.06,2.71,3.06a3.78,3.78,0,0,0,1.76-.43l.19.36a3.94,3.94,0,0,1-2.65,1,3.28,3.28,0,0,1-3.33-3.52,3.57,3.57,0,0,1,3.37-3.84,2.56,2.56,0,0,1,2.7,2.8C163.75,713.23,163.73,713.42,163.71,713.62ZM159,713h3.38c0-1.42-.56-2.07-1.48-2.07S159.2,711.47,159,713Z"/><path d="M171.06,713.62h-4.72c0,2.24,1.18,3.06,2.72,3.06a3.78,3.78,0,0,0,1.76-.43l.19.36a3.94,3.94,0,0,1-2.65,1,3.27,3.27,0,0,1-3.33-3.52,3.57,3.57,0,0,1,3.36-3.84,2.55,2.55,0,0,1,2.7,2.8A5.78,5.78,0,0,1,171.06,713.62Zm-4.68-.61h3.38c0-1.42-.56-2.07-1.49-2.07S166.55,711.47,166.38,713Z"/><path d="M173.07,715.43v-4l-.08-.08h-1v-.09l2.22-2.92h.09v2.24h2.31v.77h-2.31v3.19c0,1.73.26,2.31,1.25,2.31a3.39,3.39,0,0,0,1.13-.19l.18.36a3.62,3.62,0,0,1-2,.63C173.66,717.6,173.07,717.06,173.07,715.43Z"/></g></g><path class="cls-2" d="M58.65,710.14l.16.14c.17.14.51.42.83.72a10.15,10.15,0,0,1,.87,1,8.61,8.61,0,0,1,.7,1.11,7.65,7.65,0,0,1,.53,1.21,9.11,9.11,0,0,1,.33,1.27,9.52,9.52,0,0,1,.12,1.3,8.36,8.36,0,0,1-.08,1.32,8.13,8.13,0,0,1-.28,1.28,8.59,8.59,0,0,1-.48,1.22,9.88,9.88,0,0,1-.67,1.13,8.48,8.48,0,0,1-2.93,2.59,7.5,7.5,0,0,1-1.2.52,7,7,0,0,1-1.27.33,8.16,8.16,0,0,1-3.9-.24,7.54,7.54,0,0,1-1.22-.48,7.42,7.42,0,0,1-1.13-.66,8.45,8.45,0,0,1-1.89-1.82,8,8,0,0,1-.7-1.11,9.12,9.12,0,0,1-.53-1.2c-.14-.42-.25-.84-4-1.21s-11.12-.68-11.13-1.12,7.35-1,11.08-1.5,3.82-.93,4-1.35a9.64,9.64,0,0,1,.48-1.22,9.88,9.88,0,0,1,.67-1.13,8.7,8.7,0,0,1,1.82-1.88,8,8,0,0,1,1.11-.71,8.52,8.52,0,0,1,1.2-.52,9.48,9.48,0,0,1,1.27-.33,8.19,8.19,0,0,1,1.31-.13,9.5,9.5,0,0,1,1.31.08,8.16,8.16,0,0,1,1.28.29,8.59,8.59,0,0,1,1.22.48,10.15,10.15,0,0,1,1,.53l.19.11"/><path class="cls-3" d="M60.11,708.05l.22.18c.22.18.66.55,1.07.94a11.06,11.06,0,0,1,2.06,2.73,9.93,9.93,0,0,1,.68,1.57,10.37,10.37,0,0,1,.43,1.66,10.75,10.75,0,0,1,.16,1.7,10.9,10.9,0,0,1-.1,1.71,10.6,10.6,0,0,1-.37,1.67,11,11,0,0,1-.63,1.59,10.44,10.44,0,0,1-.87,1.48,10.61,10.61,0,0,1-1.09,1.32,9.85,9.85,0,0,1-1.28,1.13,10,10,0,0,1-1.44.92,11.51,11.51,0,0,1-1.57.69c-.54.18-1.1.33-1.63,2s-1,4.93-1.62,4.94-1.2-3.21-1.8-4.88-1.15-1.79-1.69-2a10.38,10.38,0,0,1-1.6-.62,10.92,10.92,0,0,1-1.47-.87,10.61,10.61,0,0,1-1.32-1.09,12.56,12.56,0,0,1-1.14-1.28,11.46,11.46,0,0,1-.92-1.45,10.94,10.94,0,0,1-.68-1.57,10.54,10.54,0,0,1-.43-1.65A11.32,11.32,0,0,1,43,715.5a10.85,10.85,0,0,1,.37-1.67,11,11,0,0,1,.63-1.59,10.44,10.44,0,0,1,.87-1.48A11.4,11.4,0,0,1,46,709.44a9.85,9.85,0,0,1,1.28-1.13,11,11,0,0,1,1.44-.92,10.34,10.34,0,0,1,1.57-.68,10.66,10.66,0,0,1,1.66-.43,11,11,0,0,1,5.09.31,9.74,9.74,0,0,1,1.59.63c.51.25,1,.54,1.25.68l.25.15"/><path class="cls-4" d="M60.4,707.63l.23.19c.23.19.69.58,1.12,1a12.53,12.53,0,0,1,1.19,1.34,11.6,11.6,0,0,1,1.68,3.16c.19.56.34,1.14,1.95,1.7s4.66,1.11,4.67,1.71-3,1.25-4.61,1.86-1.72,1.21-1.89,1.78a9.9,9.9,0,0,1-.66,1.66,10.48,10.48,0,0,1-.91,1.55A11.52,11.52,0,0,1,62,725a11.73,11.73,0,0,1-1.35,1.19,10.72,10.72,0,0,1-1.51,1,10.41,10.41,0,0,1-1.64.71,10.23,10.23,0,0,1-1.73.45,11.92,11.92,0,0,1-1.79.17,10.64,10.64,0,0,1-1.78-.11,11.61,11.61,0,0,1-1.75-.38,12.6,12.6,0,0,1-1.67-.66,12,12,0,0,1-1.54-.91,10.71,10.71,0,0,1-1.38-1.14,10.85,10.85,0,0,1-1.19-1.34,11.33,11.33,0,0,1-1-1.51,12.55,12.55,0,0,1-.72-1.64,11.67,11.67,0,0,1-.44-1.74,10.64,10.64,0,0,1-.18-1.78,11.87,11.87,0,0,1,.11-1.79,13.37,13.37,0,0,1,.39-1.75,12,12,0,0,1,.66-1.66,10.48,10.48,0,0,1,.91-1.55,11.44,11.44,0,0,1,1.14-1.38,11.87,11.87,0,0,1,2.85-2.15,10.41,10.41,0,0,1,1.64-.71,11.27,11.27,0,0,1,1.73-.45,11.46,11.46,0,0,1,3.57-.06,10.31,10.31,0,0,1,1.75.39,11.32,11.32,0,0,1,1.67.65c.54.26,1.05.57,1.31.72l.26.15"/><path class="cls-5" d="M61.22,706.46l.26.21c.26.22.78.65,1.27,1.11a13.56,13.56,0,0,1,1.33,1.51,12.18,12.18,0,0,1,1.08,1.7,12.65,12.65,0,0,1,.81,1.85c.22.64.38,1.29,2,1.93s4.63,1.25,4.64,1.92-3,1.4-4.57,2.09-1.72,1.35-1.91,2a13.72,13.72,0,0,1-.74,1.87,13.26,13.26,0,0,1-1,1.74,11.84,11.84,0,0,1-1.28,1.55,12.05,12.05,0,0,1-1.51,1.34,12.89,12.89,0,0,1-1.7,1.08,13.64,13.64,0,0,1-1.84.8,13.32,13.32,0,0,1-1.95.51,13.67,13.67,0,0,1-2,.19,13.48,13.48,0,0,1-2-.12,13.06,13.06,0,0,1-2-.44,12.54,12.54,0,0,1-1.87-.74,11.65,11.65,0,0,1-1.74-1,13.6,13.6,0,0,1-1.56-1.28,12.72,12.72,0,0,1-1.33-1.51,13.18,13.18,0,0,1-1.08-1.7,12.2,12.2,0,0,1-.81-1.85,13,13,0,0,1-.5-2,12.2,12.2,0,0,1-.19-2,12.38,12.38,0,0,1,.12-2,12.06,12.06,0,0,1,.44-2,12.61,12.61,0,0,1,.73-1.88,13.15,13.15,0,0,1,1-1.73,11.3,11.3,0,0,1,1.28-1.56,12.72,12.72,0,0,1,1.51-1.33,12,12,0,0,1,1.7-1.09,13.64,13.64,0,0,1,1.84-.8,13.12,13.12,0,0,1,2-.51,13,13,0,0,1,4-.07,13.06,13.06,0,0,1,2,.44,12.54,12.54,0,0,1,1.87.74c.61.29,1.19.64,1.48.81l.29.17"/><path class="cls-6" d="M62.24,705l.3.25c.29.24.88.73,1.44,1.26a14.52,14.52,0,0,1,1.51,1.72,14.15,14.15,0,0,1,2.15,4,14.47,14.47,0,0,1,.57,2.22,13.56,13.56,0,0,1,.22,2.29,13.37,13.37,0,0,1-.14,2.28,14.2,14.2,0,0,1-.49,2.24,16.38,16.38,0,0,1-.84,2.14,15.71,15.71,0,0,1-1.17,2,13.65,13.65,0,0,1-1.45,1.77,15.46,15.46,0,0,1-1.72,1.52,14.45,14.45,0,0,1-1.94,1.23,14.06,14.06,0,0,1-2.1.92c-.72.25-1.46.44-2.18,2.9S55,740.94,54.24,741s-1.61-4.7-2.41-7.14-1.54-2.6-2.28-2.83a13.86,13.86,0,0,1-2.13-.84,14,14,0,0,1-2-1.16,15.32,15.32,0,0,1-1.76-1.46,13.85,13.85,0,0,1-1.52-1.72,14.4,14.4,0,0,1-1.24-1.93,15.66,15.66,0,0,1-.91-2.1,14.47,14.47,0,0,1-.57-2.22,14.59,14.59,0,0,1-.08-4.57,14.2,14.2,0,0,1,.49-2.24,15.71,15.71,0,0,1,.84-2.13,15.14,15.14,0,0,1,1.17-2,14.53,14.53,0,0,1,1.45-1.77A15.46,15.46,0,0,1,45,705.35,14.45,14.45,0,0,1,47,704.12a13.06,13.06,0,0,1,2.1-.91,13.93,13.93,0,0,1,2.22-.58,14.59,14.59,0,0,1,4.57-.08,14.22,14.22,0,0,1,2.24.5,13.86,13.86,0,0,1,2.13.84c.69.33,1.35.72,1.68.92l.33.19"/><path class="cls-7" d="M62.29,704.93l.3.25c.3.24.89.73,1.44,1.27a13.24,13.24,0,0,1,1.53,1.73,13.58,13.58,0,0,1,1.24,1.94,14.76,14.76,0,0,1,.92,2.12,14,14,0,0,1,.58,2.23,14.78,14.78,0,0,1,.08,4.6,15.87,15.87,0,0,1-.5,2.25,15.13,15.13,0,0,1-.85,2.14,12.81,12.81,0,0,1-1.17,2,14.71,14.71,0,0,1-1.46,1.78,15.65,15.65,0,0,1-1.73,1.53A15.18,15.18,0,0,1,60.73,730a14.76,14.76,0,0,1-2.12.92,14.3,14.3,0,0,1-2.23.57,14,14,0,0,1-4.6.08,14.32,14.32,0,0,1-2.25-.49,14.79,14.79,0,0,1-2.15-.85,15.14,15.14,0,0,1-2-1.17,15,15,0,0,1-3.31-3.19,14.26,14.26,0,0,1-1.24-2,15.14,15.14,0,0,1-.92-2.11,15.68,15.68,0,0,1-.58-2.24,14.56,14.56,0,0,1-.22-2.29,14.72,14.72,0,0,1,.14-2.3,15.7,15.7,0,0,1,.5-2.26,15.13,15.13,0,0,1,.85-2.14,14.21,14.21,0,0,1,1.17-2,15.52,15.52,0,0,1,1.46-1.78A16.75,16.75,0,0,1,45,705.28a16.48,16.48,0,0,1,2-1.24,15.84,15.84,0,0,1,2.11-.92c.73-.25,1.48-.44,2.19-2.93s1.4-7.28,2.17-7.3,1.63,4.75,2.43,7.22,1.56,2.63,2.29,2.86a13.69,13.69,0,0,1,2.15.84c.69.34,1.35.73,1.69.93l.33.19"/><path class="cls-8" d="M66.83,698.45l.46.37c.46.38,1.37,1.13,2.22,2a22.6,22.6,0,0,1,4.26,5.64,23.45,23.45,0,0,1,1.41,3.25c.38,1.12.68,2.26,4.47,3.37s11.07,2.15,11.09,3.34-7.22,2.49-11,3.72-4,2.39-4.35,3.52a21.75,21.75,0,0,1-1.3,3.3,22.2,22.2,0,0,1-1.8,3.05,21.85,21.85,0,0,1-2.25,2.74A22.25,22.25,0,0,1,64.43,737a22.81,22.81,0,0,1-6.68,2.3,22.46,22.46,0,0,1-7.07.12,22.14,22.14,0,0,1-6.75-2.06,22.31,22.31,0,0,1-3.06-1.8,22.47,22.47,0,0,1-5.08-4.91,21.6,21.6,0,0,1-1.9-3,22.36,22.36,0,0,1-1.42-3.25,23.34,23.34,0,0,1-.89-3.43,23,23,0,0,1-.33-3.52,22,22,0,0,1,.21-3.54,22.75,22.75,0,0,1,.77-3.46,21.75,21.75,0,0,1,1.3-3.3,22.81,22.81,0,0,1,1.8-3,21.85,21.85,0,0,1,2.25-2.74A22.63,22.63,0,0,1,40.23,699a22.64,22.64,0,0,1,9.67-4.21,23.31,23.31,0,0,1,3.53-.34,22.08,22.08,0,0,1,3.54.22,22.72,22.72,0,0,1,3.46.76,23.31,23.31,0,0,1,3.3,1.3c1.06.52,2.08,1.12,2.59,1.42l.51.31"/><path class="cls-9" d="M66.93,698.31l.46.38c.46.38,1.38,1.14,2.24,2A23.18,23.18,0,0,1,72,703.33a22.49,22.49,0,0,1,1.91,3,23.13,23.13,0,0,1,1.43,3.27,6.15,6.15,0,0,0,2.17,3.44c1.48,1.15,4.14,2.29,4.16,3.48s-2.6,2.43-4,3.64a6.13,6.13,0,0,0-2,3.5,22.28,22.28,0,0,1-3.12,6.4,22.2,22.2,0,0,1-2.27,2.76,24,24,0,0,1-2.67,2.36,22.56,22.56,0,0,1-3,1.92,21.66,21.66,0,0,1-3.28,1.42,22.72,22.72,0,0,1-3.45.9,23.7,23.7,0,0,1-3.56.34,22.33,22.33,0,0,1-3.56-.22,22,22,0,0,1-3.49-.77,23.13,23.13,0,0,1-3.32-1.31,22.48,22.48,0,0,1-3.07-1.81,22.59,22.59,0,0,1-5.13-4.95,23.54,23.54,0,0,1-1.91-3,23.13,23.13,0,0,1-1.43-3.27,22.81,22.81,0,0,1-.89-3.46,22.23,22.23,0,0,1-.34-3.55,23.68,23.68,0,0,1,.21-3.57,23,23,0,0,1,.78-3.48,23,23,0,0,1,3.12-6.4,21.4,21.4,0,0,1,2.27-2.75,23.08,23.08,0,0,1,2.67-2.37,22.56,22.56,0,0,1,3-1.92,23.2,23.2,0,0,1,3.28-1.42,22.72,22.72,0,0,1,3.45-.9,23.7,23.7,0,0,1,3.56-.34,22.33,22.33,0,0,1,3.56.22,22.53,22.53,0,0,1,6.81,2.08c1.07.52,2.1,1.13,2.61,1.43l.52.31"/><path class="cls-10" d="M67.08,698.08l.47.39c.47.38,1.4,1.15,2.27,2a23.35,23.35,0,0,1,4.33,5.75,22.66,22.66,0,0,1,1.44,3.32A22.39,22.39,0,0,1,76.5,713a22.85,22.85,0,0,1,.34,3.6,21.88,21.88,0,0,1-.22,3.61,22.93,22.93,0,0,1-3.94,10A23.49,23.49,0,0,1,70.39,733a22.88,22.88,0,0,1-5.76,4.34,22.79,22.79,0,0,1-6.81,2.34,22.88,22.88,0,0,1-7.2.13,23.94,23.94,0,0,1-3.53-.78,23,23,0,0,1-3.36-1.33,23.68,23.68,0,0,1-3.11-1.83,22.73,22.73,0,0,1-2.79-2.3,23.54,23.54,0,0,1-2.39-2.7,22.75,22.75,0,0,1-1.94-3,22.09,22.09,0,0,1-1.44-3.31A21.37,21.37,0,0,0,30.71,721c-.65-1.18-1.65-2.37-1.67-3.58s.94-2.42,1.55-3.63a21.17,21.17,0,0,0,1.22-3.53,22.53,22.53,0,0,1,1.32-3.36A23.11,23.11,0,0,1,35,703.82,22.85,22.85,0,0,1,43,696.69a24.35,24.35,0,0,1,3.31-1.44,23.34,23.34,0,0,1,3.5-.9,22.88,22.88,0,0,1,7.2-.13,23.94,23.94,0,0,1,3.53.78,24.2,24.2,0,0,1,3.36,1.33c1.08.53,2.12,1.14,2.64,1.45l.52.3"/><path class="cls-11" d="M67.66,697.26l.49.41c.48.4,1.46,1.2,2.36,2.07a24,24,0,0,1,2.5,2.83,24.31,24.31,0,0,1,2,3.17,24.65,24.65,0,0,1,1.51,3.46,24.14,24.14,0,0,1,.94,3.65,24,24,0,0,1,.13,7.51A24.15,24.15,0,0,1,76.8,724a23.09,23.09,0,0,1-1.39,3.51,24.05,24.05,0,0,1-1.91,3.25,23.89,23.89,0,0,1-5.22,5.4,23.47,23.47,0,0,1-3.18,2,24.48,24.48,0,0,1-3.45,1.5c-1.19.41-2.42.73-3.6,3.92s-2.34,9.25-3.6,9.27-2.62-6-3.92-9.14S48,740.36,46.8,740a24.47,24.47,0,0,1-3.5-1.38,23.84,23.84,0,0,1-6.16-4.31,24.82,24.82,0,0,1-2.5-2.82,25.11,25.11,0,0,1-2-3.18,24.15,24.15,0,0,1-1.51-3.46,25.39,25.39,0,0,1-.94-3.65,24,24,0,0,1-.13-7.51,23,23,0,0,1,.82-3.68,23.46,23.46,0,0,1,1.38-3.51,24.05,24.05,0,0,1,1.91-3.25,23,23,0,0,1,2.4-2.9,23.89,23.89,0,0,1,2.82-2.5,23.47,23.47,0,0,1,3.18-2,24.1,24.1,0,0,1,3.46-1.5,22.89,22.89,0,0,1,3.64-.94,23.7,23.7,0,0,1,3.76-.36,22.61,22.61,0,0,1,3.76.23,23.25,23.25,0,0,1,3.68.81,24.47,24.47,0,0,1,3.5,1.38c1.14.55,2.22,1.19,2.77,1.51l.54.32"/><path class="cls-12" d="M69.32,694.89l.54.45c.55.45,1.64,1.35,2.65,2.33a27,27,0,0,1,8,23.09,27.69,27.69,0,0,1-.92,4.13A26.4,26.4,0,0,1,78,728.81a25.53,25.53,0,0,1-2.14,3.64,26.24,26.24,0,0,1-2.68,3.26,26.49,26.49,0,0,1-6.72,5.06,26.6,26.6,0,0,1-8,2.74,26.63,26.63,0,0,1-8.42.15,26.7,26.7,0,0,1-8-2.46,27,27,0,0,1-3.63-2.14,26.94,26.94,0,0,1-8.33-9.41,27.1,27.1,0,0,1-1.68-3.87,13.92,13.92,0,0,0-1.81-4.07c-1-1.38-2.62-2.76-2.65-4.17s1.56-2.84,2.51-4.25a14.24,14.24,0,0,0,1.66-4.13,26.09,26.09,0,0,1,1.55-3.93,25.53,25.53,0,0,1,2.14-3.64,28.84,28.84,0,0,1,2.68-3.26,26.26,26.26,0,0,1,3.17-2.79,25.87,25.87,0,0,1,3.56-2.27,27.15,27.15,0,0,1,3.87-1.69,27.45,27.45,0,0,1,4.08-1.05,26.63,26.63,0,0,1,8.42-.15,26.7,26.7,0,0,1,8.05,2.46c1.26.62,2.48,1.34,3.09,1.69l.61.36"/><path class="cls-13" d="M69.6,694.49l.56.46c.55.46,1.66,1.37,2.69,2.37a26.46,26.46,0,0,1,2.85,3.22,27.12,27.12,0,0,1,4,7.56,6,6,0,0,0,3.45,4.12c2.61,1.37,7.49,2.72,7.51,4.16s-4.8,3-7.36,4.41A6,6,0,0,0,80,725a27.48,27.48,0,0,1-1.58,4,25.46,25.46,0,0,1-2.18,3.7,26.33,26.33,0,0,1-2.73,3.32,28.16,28.16,0,0,1-3.22,2.85,28.57,28.57,0,0,1-3.63,2.31,27.58,27.58,0,0,1-3.94,1.71A27,27,0,0,1,58.58,744a27.58,27.58,0,0,1-8.57.15,28.49,28.49,0,0,1-4.19-.93,27.48,27.48,0,0,1-4-1.58,28.16,28.16,0,0,1-3.71-2.18,28,28,0,0,1-6.16-6,27.56,27.56,0,0,1-5.1-11.73,27.58,27.58,0,0,1-.15-8.57,27.2,27.2,0,0,1,2.51-8.2,26.4,26.4,0,0,1,2.18-3.7A28.83,28.83,0,0,1,34.12,698a28,28,0,0,1,3.22-2.84,27.75,27.75,0,0,1,7.57-4,27,27,0,0,1,4.16-1.07,26.79,26.79,0,0,1,8.57-.15,27.63,27.63,0,0,1,8.19,2.5c1.29.63,2.53,1.36,3.15,1.73l.62.36"/><path class="cls-14" d="M72.55,690.27l.66.55c.66.54,2,1.63,3.21,2.81a32.51,32.51,0,0,1,6.12,8.12,32.28,32.28,0,0,1,2,4.68,46.9,46.9,0,0,0,1.78,4.94c.8,1.66,2,3.35,2,5s-1.08,3.42-1.81,5.12a43.67,43.67,0,0,0-1.61,5A32.49,32.49,0,0,1,73.4,743a30.77,30.77,0,0,1-4.31,2.74,33,33,0,0,1-4.68,2,33.49,33.49,0,0,1-4.94,1.28,33.11,33.11,0,0,1-5.08.49,32.15,32.15,0,0,1-5.09-.32,31.4,31.4,0,0,1-5-1.1,32.31,32.31,0,0,1-4.75-1.87,32.54,32.54,0,0,1-11.72-9.66,33.28,33.28,0,0,1-2.74-4.3,32.28,32.28,0,0,1-2-4.68,31.46,31.46,0,0,1-1.28-4.94,32.53,32.53,0,0,1-.18-10.17,32.7,32.7,0,0,1,1.11-5,31.12,31.12,0,0,1,1.87-4.74,30.77,30.77,0,0,1,2.59-4.4,32.15,32.15,0,0,1,3.24-3.94,33.09,33.09,0,0,1,3.82-3.38,31.72,31.72,0,0,1,4.31-2.74,33,33,0,0,1,4.68-2,32.06,32.06,0,0,1,10-1.76,32.07,32.07,0,0,1,5.09.31,31.4,31.4,0,0,1,5,1.1,33.46,33.46,0,0,1,4.75,1.87c1.53.75,3,1.62,3.74,2.05l.73.43"/><path class="cls-15" d="M74,688.23l.71.59c.71.58,2.13,1.75,3.45,3A36.5,36.5,0,0,1,81.78,696a34.94,34.94,0,0,1,5.14,9.67,10.83,10.83,0,0,0,3,5.29c1.93,1.77,5.34,3.55,5.37,5.38S92,720,90.1,721.86a11,11,0,0,0-2.81,5.39,34.1,34.1,0,0,1-2,5.11A35.06,35.06,0,0,1,74.89,745a36.24,36.24,0,0,1-4.63,2.95A35.13,35.13,0,0,1,49,751.68a35.41,35.41,0,0,1-5.36-1.19,34.75,34.75,0,0,1-9.84-4.8,35.42,35.42,0,0,1-4.24-3.49,36.6,36.6,0,0,1-3.64-4.12,34.89,34.89,0,0,1-2.95-4.63,35.59,35.59,0,0,1-2.19-5,36.44,36.44,0,0,1-1.37-5.32,34.68,34.68,0,0,1-.19-11,34,34,0,0,1,1.19-5.36,35,35,0,0,1,2-5.11A34.53,34.53,0,0,1,25.16,697a35.42,35.42,0,0,1,3.49-4.24,34.62,34.62,0,0,1,4.11-3.64,36.24,36.24,0,0,1,4.63-3,35.71,35.71,0,0,1,5-2.19,34.64,34.64,0,0,1,5.32-1.38,35.47,35.47,0,0,1,11-.19,36.38,36.38,0,0,1,5.36,1.19,35,35,0,0,1,5.11,2c1.64.8,3.23,1.73,4,2.2l.79.46"/><path class="cls-16" d="M74,688.17l.71.59c.71.58,2.13,1.75,3.45,3a35.06,35.06,0,0,1,6.61,8.76A35.83,35.83,0,0,1,87,705.6a8.4,8.4,0,0,0,3.79,5.29c2.74,1.76,7.75,3.51,7.78,5.35S93.65,720,91,721.86a8.35,8.35,0,0,0-3.61,5.42,35.13,35.13,0,0,1-2,5.12,34.64,34.64,0,0,1-2.79,4.74,36.59,36.59,0,0,1-3.5,4.25A34.81,34.81,0,0,1,74.93,745a34.07,34.07,0,0,1-4.64,3,35.38,35.38,0,0,1-5.05,2.2,36.12,36.12,0,0,1-5.32,1.37,34.83,34.83,0,0,1-5.48.53,36.1,36.1,0,0,1-5.5-.33,35.57,35.57,0,0,1-5.37-1.2,34.54,34.54,0,0,1-9.86-4.81,33.93,33.93,0,0,1-4.25-3.5,34.9,34.9,0,0,1-3.65-4.12,35.66,35.66,0,0,1-2.95-4.64,34.29,34.29,0,0,1-2.2-5,35.07,35.07,0,0,1-1.38-5.33,35.1,35.1,0,0,1,1-16.34,35.14,35.14,0,0,1,4.81-9.87,36.49,36.49,0,0,1,3.5-4.24,34.94,34.94,0,0,1,13.82-8.8,34.9,34.9,0,0,1,16.3-1.57,34.11,34.11,0,0,1,5.37,1.19,33.62,33.62,0,0,1,5.12,2c1.65.8,3.24,1.74,4,2.2l.8.47"/><path class="cls-17" d="M74.35,687.71l.72.59c.73.6,2.17,1.79,3.51,3.09a36,36,0,0,1,3.71,4.18,35.86,35.86,0,0,1,5.23,9.85,35.75,35.75,0,0,1,1.94,11,35.6,35.6,0,0,1-1.55,11,36.48,36.48,0,0,1-2,5.2A35.84,35.84,0,0,1,83,737.46a35.4,35.4,0,0,1-7.75,8,35.79,35.79,0,0,1-4.71,3,37,37,0,0,1-5.13,2.23,36.25,36.25,0,0,1-5.42,1.4,35.72,35.72,0,0,1-5.56.53,34.63,34.63,0,0,1-5.58-.34,35.73,35.73,0,0,1-10.67-3.26,35.74,35.74,0,0,1-9.13-6.39,36.92,36.92,0,0,1-3.71-4.19,35.86,35.86,0,0,1-5.23-9.85,34.66,34.66,0,0,1-1.4-5.41,35.55,35.55,0,0,1-.2-11.15,36.46,36.46,0,0,1,1.21-5.46,37.44,37.44,0,0,1,2.05-5.2,35.51,35.51,0,0,1,10.59-12.84,35.29,35.29,0,0,1,9.84-5.24c1.77-.6,3.58-1.07,5.28-9s3.3-23.4,5.17-23.44,4,15.35,6,23.25,3.81,8.29,5.59,8.84a35.9,35.9,0,0,1,5.21,2c1.68.82,3.29,1.77,4.09,2.24l.81.48"/><path class="cls-18" d="M76.77,684.25l.81.67c.81.66,2.42,2,3.92,3.44a40.12,40.12,0,0,1,10,15.69c.67,2,1.2,4,4.07,6s8.09,4,8.13,6.09-5.11,4.26-7.91,6.37-3.26,4.15-3.87,6.15a38.63,38.63,0,0,1-2.29,5.82,39.32,39.32,0,0,1-3.17,5.38,40.05,40.05,0,0,1-4,4.83,39.24,39.24,0,0,1-4.68,4.14,39.68,39.68,0,0,1-11,5.85,40.86,40.86,0,0,1-6.06,1.57,39.46,39.46,0,0,1-12.46.21,39.52,39.52,0,0,1-6.1-1.35,40.42,40.42,0,0,1-5.82-2.29A41.59,41.59,0,0,1,31,749.66,40,40,0,0,1,22,741a39.29,39.29,0,0,1-3.36-5.28A38.77,38.77,0,0,1,16.16,730a39.54,39.54,0,0,1-1.57-6,40.68,40.68,0,0,1-.6-6.22,39.39,39.39,0,0,1,.38-6.24,39.93,39.93,0,0,1,1.36-6.11,40,40,0,0,1,5.46-11.2,40,40,0,0,1,4-4.82,39.22,39.22,0,0,1,4.68-4.15,39.68,39.68,0,0,1,11-5.85,39.63,39.63,0,0,1,6.06-1.56,38.09,38.09,0,0,1,6.22-.6,39.85,39.85,0,0,1,12.34,1.73,40,40,0,0,1,5.82,2.29c1.88.92,3.68,2,4.58,2.51l.9.53"/><path class="cls-19" d="M76.82,684.18l.81.67c.81.66,2.43,2,3.93,3.45A40.22,40.22,0,0,1,85.71,693a39.46,39.46,0,0,1,3.37,5.29,40,40,0,0,1,2.5,5.74,39.73,39.73,0,0,1,1.78,18.56,39.6,39.6,0,0,1-3.65,11.94c-.91,1.88-2,3.69,1.52,9.94s11.57,16.95,10.11,18.45-12.42-6.18-18.79-9.46-8.13-2.16-10-1.18a40,40,0,0,1-11.81,4.07,40.05,40.05,0,0,1-12.49.22,40.06,40.06,0,0,1-6.12-1.36,39.93,39.93,0,0,1-20.21-14.15,39.72,39.72,0,0,1-5.87-11A41,41,0,0,1,14.5,724a39.64,39.64,0,0,1-.21-12.49,39.91,39.91,0,0,1,1.35-6.11,39.45,39.45,0,0,1,2.3-5.83,39.93,39.93,0,0,1,22.89-20.25,39.37,39.37,0,0,1,6.06-1.57,40.82,40.82,0,0,1,6.24-.6,39.59,39.59,0,0,1,6.25.38,40.06,40.06,0,0,1,6.12,1.36,40.54,40.54,0,0,1,5.83,2.29c1.88.92,3.68,2,4.59,2.52l.9.53"/><path class="cls-20" d="M78.35,682l.87.71c.86.71,2.59,2.14,4.19,3.68a42.58,42.58,0,0,1,8,10.65,41.59,41.59,0,0,1,2.66,6.13A42.44,42.44,0,0,1,96,723a42.72,42.72,0,0,1-7.29,18.5A42.34,42.34,0,0,1,79.46,751a42.09,42.09,0,0,1-5.64,3.6,43.83,43.83,0,0,1-6.13,2.66c-2.11.73-4.27,1.29-6.42,4.54S57,771,54.77,771.08s-4.56-5.84-6.82-9-4.44-3.66-6.58-4.31a42.68,42.68,0,0,1-17.13-10.09,43,43,0,0,1-4.43-5A43.61,43.61,0,0,1,16.22,737a41.59,41.59,0,0,1-2.66-6.13,42.72,42.72,0,0,1-1.68-6.47,43.78,43.78,0,0,1-.64-6.66,42.53,42.53,0,0,1,.41-6.67,41.74,41.74,0,0,1,1.45-6.52,42.45,42.45,0,0,1,10.09-17.13,42,42,0,0,1,5-4.43A42.89,42.89,0,0,1,40,676.75a43.58,43.58,0,0,1,6.47-1.67,42.51,42.51,0,0,1,13.32-.23,43,43,0,0,1,6.53,1.44,42.51,42.51,0,0,1,6.22,2.45c2,1,3.93,2.11,4.89,2.68l1,.57"/><path class="cls-21" d="M78.71,681.48l.88.72c.87.72,2.63,2.16,4.25,3.74A43.11,43.11,0,0,1,92,696.73a42.82,42.82,0,0,1,2.7,6.22c.74,2.14,1.31,4.34,3.24,6.54s5.24,4.41,5.28,6.67-3.18,4.58-5,6.85-2.35,4.48-3,6.65a42.09,42.09,0,0,1-2.49,6.3,43,43,0,0,1-12.83,15.57,42.86,42.86,0,0,1-11.94,6.35,43.07,43.07,0,0,1-13.31,2.35,43.76,43.76,0,0,1-13.39-1.88,45,45,0,0,1-6.31-2.49A42.79,42.79,0,0,1,29,752.42a43.24,43.24,0,0,1-5.23-4.31,45.15,45.15,0,0,1-4.5-5.08A43.18,43.18,0,0,1,13,731.09a42.55,42.55,0,0,1-1.7-6.57A43.31,43.31,0,0,1,11,711a44,44,0,0,1,1.47-6.62,43.38,43.38,0,0,1,5.93-12.15,43.06,43.06,0,0,1,15.11-13.37,42.87,42.87,0,0,1,6.22-2.71,44.82,44.82,0,0,1,6.56-1.7,43.24,43.24,0,0,1,20.14,1.24,43.72,43.72,0,0,1,6.31,2.48c2,1,4,2.15,5,2.72l1,.58"/><path class="cls-22" d="M81.17,678l1,.8c1,.79,2.88,2.38,4.67,4.1a47.16,47.16,0,0,1,8.94,11.87,47,47,0,0,1,3,6.83c.81,2.35,1.44,4.77,4.48,7.17s8.5,4.79,8.54,7.28-5.33,5.07-8.28,7.57-3.5,4.95-4.23,7.32a46.94,46.94,0,0,1-2.73,6.94A47.42,47.42,0,0,1,88,750a46.73,46.73,0,0,1-5.58,4.93,47.39,47.39,0,0,1-6.28,4,48.25,48.25,0,0,1-6.84,3A47.32,47.32,0,0,1,47.22,764a46.37,46.37,0,0,1-7.28-1.61A47.5,47.5,0,0,1,33,759.7a48,48,0,0,1-6.42-3.78,47.47,47.47,0,0,1-5.75-4.74,47.16,47.16,0,0,1-8.94-11.87,47.58,47.58,0,0,1-5.1-28.9,47.7,47.7,0,0,1,1.62-7.27,47.54,47.54,0,0,1,6.51-13.35A45.83,45.83,0,0,1,19.67,684a46.71,46.71,0,0,1,5.58-4.94,47.39,47.39,0,0,1,6.28-4,48.75,48.75,0,0,1,6.84-3,47.11,47.11,0,0,1,7.21-1.86,48.56,48.56,0,0,1,7.42-.72,47.38,47.38,0,0,1,7.43.46,46.37,46.37,0,0,1,7.28,1.61,47.5,47.5,0,0,1,6.93,2.73c2.24,1.09,4.38,2.36,5.46,3l1.07.63"/><path class="cls-23" d="M72.39,385.94l.86.71c.86.71,2.58,2.13,4.17,3.67a41.66,41.66,0,0,1,4.41,5,42.38,42.38,0,0,1,3.58,5.62,43.47,43.47,0,0,1,2.66,6.1c.72,2.1,1.28,4.26,4.21,6.4s8.23,4.28,8.27,6.5-5.19,4.53-8,6.77-3.34,4.42-4,6.55a42.87,42.87,0,0,1-5.81,11.93,42.62,42.62,0,0,1-4.24,5.13,41.66,41.66,0,0,1-5,4.41,42.38,42.38,0,0,1-5.62,3.58,43.47,43.47,0,0,1-6.1,2.66,42.4,42.4,0,0,1-19.72,1.89,42.63,42.63,0,0,1-6.5-1.44A42.11,42.11,0,0,1,29.36,459a42.34,42.34,0,0,1-10.87-7.61,41,41,0,0,1-4.41-5,41.64,41.64,0,0,1-3.58-5.61,43.47,43.47,0,0,1-2.66-6.1A42.4,42.4,0,0,1,6,414.93a42.63,42.63,0,0,1,1.44-6.5,42.4,42.4,0,0,1,10.05-17.06,41,41,0,0,1,5-4.41A41.64,41.64,0,0,1,28,383.38a43.47,43.47,0,0,1,6.1-2.66,42.41,42.41,0,0,1,19.72-1.89,42.63,42.63,0,0,1,6.5,1.44,41.67,41.67,0,0,1,6.19,2.44c2,1,3.92,2.1,4.88,2.67l1,.56"/><path class="cls-24" d="M64.2,535.31l.43.36c.43.35,1.29,1.06,2.09,1.83a20.84,20.84,0,0,1,2.2,2.49,21.46,21.46,0,0,1,1.79,2.8A21.11,21.11,0,0,1,72,545.84a20.85,20.85,0,0,1,.83,3.22,20.27,20.27,0,0,1,.32,3.3,21.69,21.69,0,0,1-.2,3.32,22.3,22.3,0,0,1-.72,3.24A21.23,21.23,0,0,1,71,562a21.69,21.69,0,0,1-1.69,2.86,19.93,19.93,0,0,1-2.11,2.56,20.92,20.92,0,0,1-2.49,2.21,21.39,21.39,0,0,1-2.8,1.78,21.16,21.16,0,0,1-3.05,1.33,5.83,5.83,0,0,0-3.2,2c-1.07,1.36-2.13,3.8-3.24,3.82s-2.26-2.38-3.38-3.7A5.73,5.73,0,0,0,45.81,573a22.8,22.8,0,0,1-3.09-1.22,21.69,21.69,0,0,1-2.86-1.69A20.8,20.8,0,0,1,37.3,568a21.73,21.73,0,0,1-2.21-2.49,22.81,22.81,0,0,1-1.78-2.8,21,21,0,0,1-2.16-6.27,21.21,21.21,0,0,1-.12-6.62,22.43,22.43,0,0,1,.72-3.25A22.8,22.8,0,0,1,33,543.45a20.47,20.47,0,0,1,1.69-2.86A20.74,20.74,0,0,1,36.77,538a21.48,21.48,0,0,1,5.29-4,21.31,21.31,0,0,1,6.27-2.15,20.39,20.39,0,0,1,3.31-.32,21.48,21.48,0,0,1,3.31.2,22.43,22.43,0,0,1,3.25.72,20.45,20.45,0,0,1,3.09,1.22c1,.48,2,1,2.43,1.33l.48.28"/><path class="cls-25" d="M66.48,532.07l.51.42c.5.42,1.52,1.26,2.47,2.17a24.37,24.37,0,0,1,2.61,3,25.69,25.69,0,0,1,2.12,3.33,25.19,25.19,0,0,1,2.56,7.43,25.06,25.06,0,0,1,.14,7.86,25.06,25.06,0,0,1-4.3,10.91,26.25,26.25,0,0,1-2.51,3.05,25.25,25.25,0,0,1-3,2.61,25.69,25.69,0,0,1-3.33,2.12,26.26,26.26,0,0,1-3.61,1.57c-1.25.43-2.53.76-3.73,6s-2.35,15.56-3.66,15.59-2.81-10.2-4.2-15.45-2.68-5.54-3.94-5.92A25.68,25.68,0,0,1,41,575.31a23.56,23.56,0,0,1-3.39-2,25.19,25.19,0,0,1-3.05-2.5,26.19,26.19,0,0,1-2.61-3,25.58,25.58,0,0,1-2.12-3.32,25.86,25.86,0,0,1-1.57-3.62,25.1,25.1,0,0,1-1-3.81,25.88,25.88,0,0,1-.37-3.93,23.51,23.51,0,0,1,.24-3.93,24.84,24.84,0,0,1,2.3-7.52,24.22,24.22,0,0,1,2-3.4,24.67,24.67,0,0,1,5.46-5.65,25.58,25.58,0,0,1,3.32-2.12A24.74,24.74,0,0,1,43.83,529a25.1,25.1,0,0,1,3.81-1,25.08,25.08,0,0,1,7.86-.14,25.61,25.61,0,0,1,7.52,2.3c1.18.58,2.32,1.25,2.89,1.58l.57.34"/><path class="cls-26" d="M68.14,529.69l.57.47c.56.47,1.7,1.41,2.75,2.42a27.78,27.78,0,0,1,2.92,3.3,27.8,27.8,0,0,1,4.11,7.73c.48,1.39.85,2.81,3.75,4.21s8.34,2.77,8.36,4.24-5.36,3-8.21,4.52-3.17,2.94-3.6,4.34A28.7,28.7,0,0,1,77.18,565,27.68,27.68,0,0,1,75,568.8a28.4,28.4,0,0,1-2.79,3.39,27.59,27.59,0,0,1-3.3,2.91,26.62,26.62,0,0,1-3.7,2.36,28.76,28.76,0,0,1-4,1.76,29.94,29.94,0,0,1-4.26,1.1,28,28,0,0,1-8.76.15,27.39,27.39,0,0,1-4.29-1,28.24,28.24,0,0,1-4.09-1.61,28,28,0,0,1-10.09-8.32,26.14,26.14,0,0,1-2.36-3.71,27.77,27.77,0,0,1-1.76-4,28,28,0,0,1-1.25-13,27.64,27.64,0,0,1,.95-4.29,28.7,28.7,0,0,1,1.61-4.09,28.18,28.18,0,0,1,2.23-3.78,27.55,27.55,0,0,1,2.8-3.39,28.49,28.49,0,0,1,3.29-2.92A28.05,28.05,0,0,1,38.86,528a27.72,27.72,0,0,1,4-1.75,27.9,27.9,0,0,1,8.63-1.52,26.77,26.77,0,0,1,4.38.27,27.95,27.95,0,0,1,8.39,2.56c1.31.64,2.58,1.39,3.21,1.76l.64.37"/><path class="cls-27" d="M68.9,528.61l.59.49c.59.49,1.78,1.47,2.89,2.54a31.12,31.12,0,0,1,3.05,3.44A29.72,29.72,0,0,1,77.9,539a28.76,28.76,0,0,1,1.83,4.22c.5,1.45.89,2.94,4.55,4.39s10.6,2.87,10.62,4.4-6.85,3.2-10.46,4.77-3.94,3.09-4.39,4.56a29.05,29.05,0,0,1-1.69,4.28,29.29,29.29,0,0,1-8.71,10.56,28.88,28.88,0,0,1-8.1,4.31,28.51,28.51,0,0,1-4.45,1.15,29.38,29.38,0,0,1-9.17.16,28.66,28.66,0,0,1-4.5-1,29.74,29.74,0,0,1-4.28-1.69,28.61,28.61,0,0,1-4-2.34,29.31,29.31,0,0,1-3.55-2.92,28.51,28.51,0,0,1-3.05-3.45,28.88,28.88,0,0,1-4.31-8.1,29.29,29.29,0,0,1-1.59-9,28.23,28.23,0,0,1,.28-4.59,28.79,28.79,0,0,1,1-4.49,29.74,29.74,0,0,1,1.69-4.28,28.31,28.31,0,0,1,2.34-4,30.94,30.94,0,0,1,2.92-3.55,30.34,30.34,0,0,1,3.45-3.05,29,29,0,0,1,3.88-2.47,29.86,29.86,0,0,1,8.67-3,29.44,29.44,0,0,1,9.18-.16,30,30,0,0,1,4.49,1,28.62,28.62,0,0,1,4.28,1.69c1.38.67,2.71,1.45,3.37,1.84l.67.39"/><path class="cls-28" d="M69.57,527.65l.62.51c.62.51,1.85,1.53,3,2.64a29.19,29.19,0,0,1,3.17,3.58,30.82,30.82,0,0,1,4.48,8.42,30.69,30.69,0,0,1,1.2,4.64,30.52,30.52,0,0,1,.17,9.54,31.17,31.17,0,0,1-1,4.67,30.46,30.46,0,0,1-1.75,4.45A31,31,0,0,1,77,570.23a31.61,31.61,0,0,1-3,3.69,29.19,29.19,0,0,1-3.58,3.17,31,31,0,0,1-4,2.57,30.39,30.39,0,0,1-4.38,1.91,31,31,0,0,1-4.64,1.2,31.58,31.58,0,0,1-4.76.46,30.54,30.54,0,0,1-4.78-.3,31.14,31.14,0,0,1-4.67-1,30.5,30.5,0,0,1-4.45-1.76,30,30,0,0,1-4.13-2.43,30.5,30.5,0,0,1-6.86-6.62,31,31,0,0,1-2.57-4,30.51,30.51,0,0,1-1.91-4.39A30.87,30.87,0,0,1,22,558a31.7,31.7,0,0,1-.46-4.76,30.54,30.54,0,0,1,.3-4.78,30.19,30.19,0,0,1,2.79-9.13A31.51,31.51,0,0,1,27,535.24,30.57,30.57,0,0,1,42.08,523.9a7.88,7.88,0,0,0,4.6-3c1.54-2.09,3.07-5.87,4.67-5.9s3.26,3.7,4.87,5.74a8,8,0,0,0,4.7,2.85,31,31,0,0,1,4.46,1.75c1.43.7,2.81,1.52,3.5,1.92l.69.41"/><path class="cls-29" d="M70.85,525.83l.66.54c.66.55,2,1.64,3.22,2.83a32.74,32.74,0,0,1,3.4,3.85,33.07,33.07,0,0,1,2.76,4.33,32.09,32.09,0,0,1,2,4.7,33,33,0,0,1,1.29,5,33,33,0,0,1,.18,10.24,32.62,32.62,0,0,1-3,9.78,33.75,33.75,0,0,1-2.61,4.42,32.71,32.71,0,0,1-7.11,7.37,32.63,32.63,0,0,1-4.33,2.75,32.14,32.14,0,0,1-4.7,2,24.48,24.48,0,0,0-5,2c-1.68,1-3.36,2.57-5.07,2.6s-3.46-1.48-5.16-2.42a24.51,24.51,0,0,0-5-1.82,33,33,0,0,1-4.77-1.88,32.61,32.61,0,0,1-4.42-2.6,33.65,33.65,0,0,1-4-3.27,32.32,32.32,0,0,1-6.15-8.17,32.25,32.25,0,0,1-2.05-4.71,32.69,32.69,0,0,1-1.29-5,33.5,33.5,0,0,1-.49-5.11,32.53,32.53,0,0,1,.32-5.12,31.79,31.79,0,0,1,1.11-5,32.73,32.73,0,0,1,11.59-16.56,33.75,33.75,0,0,1,4.33-2.76,32.2,32.2,0,0,1,4.71-2,32.69,32.69,0,0,1,5-1.29,32.91,32.91,0,0,1,10.23-.18,33.21,33.21,0,0,1,5,1.11,32.71,32.71,0,0,1,4.78,1.88c1.53.75,3,1.63,3.76,2.06l.74.44"/><path class="cls-30" d="M70.94,525.7l.66.55c.67.54,2,1.64,3.24,2.84A33,33,0,0,1,78.26,533,34,34,0,0,1,81,537.3,32.53,32.53,0,0,1,83.09,542a7.45,7.45,0,0,0,3.82,5c2.83,1.65,8,3.28,8.08,5s-5.13,3.53-7.9,5.28a7.47,7.47,0,0,0-3.65,5.08,32.55,32.55,0,0,1-1.89,4.8,32.87,32.87,0,0,1-5.9,8.43,33.32,33.32,0,0,1-8.21,6.19,33.61,33.61,0,0,1-4.73,2,33.06,33.06,0,0,1-5,1.29,32.43,32.43,0,0,1-10.28.18,33.2,33.2,0,0,1-5-1.11,33.7,33.7,0,0,1-4.8-1.89,33.07,33.07,0,0,1-4.45-2.62,33.83,33.83,0,0,1-4-3.28,33,33,0,0,1-3.41-3.87A32.41,32.41,0,0,1,23,568.16a33.61,33.61,0,0,1-2.05-4.73,31.52,31.52,0,0,1-1.29-5,32.43,32.43,0,0,1-.18-10.28,33.32,33.32,0,0,1,1.11-5,34.66,34.66,0,0,1,1.89-4.8,33,33,0,0,1,9.76-11.84,34.76,34.76,0,0,1,4.35-2.77,33,33,0,0,1,20-3.53,33.35,33.35,0,0,1,5,1.12,32.32,32.32,0,0,1,4.8,1.89c1.54.75,3,1.63,3.77,2.07l.75.44"/><path class="cls-31" d="M71.28,525.21l.68.56c.67.56,2,1.68,3.29,2.89a33.78,33.78,0,0,1,6.3,8.36,33.74,33.74,0,0,1,2.09,4.82,9.86,9.86,0,0,0,3,5c1.94,1.7,5.38,3.39,5.41,5.14s-3.35,3.57-5.23,5.33A10,10,0,0,0,84,562.52a33,33,0,0,1-1.92,4.88,34.22,34.22,0,0,1-2.66,4.53A35,35,0,0,1,76.08,576a34.29,34.29,0,0,1-3.94,3.48,35.19,35.19,0,0,1-4.42,2.82,33.74,33.74,0,0,1-4.82,2.09,33.24,33.24,0,0,1-5.08,1.31,32.85,32.85,0,0,1-5.23.51,34,34,0,0,1-5.24-.32,34.55,34.55,0,0,1-5.13-1.14,34.1,34.1,0,0,1-4.88-1.92,33.56,33.56,0,0,1-12.06-9.94,34.59,34.59,0,0,1-2.82-4.43,33.46,33.46,0,0,1-3.59-20.36A34.55,34.55,0,0,1,20,543a33.08,33.08,0,0,1,1.92-4.89,33.73,33.73,0,0,1,2.67-4.52,33.11,33.11,0,0,1,3.34-4A32.49,32.49,0,0,1,31.87,526a33.47,33.47,0,0,1,9.24-4.91,34.28,34.28,0,0,1,5.09-1.32,33.8,33.8,0,0,1,5.22-.5,32.78,32.78,0,0,1,5.24.32,33.31,33.31,0,0,1,5.13,1.13,34.14,34.14,0,0,1,4.88,1.93c1.58.77,3.09,1.66,3.85,2.1l.76.45"/><path class="cls-32" d="M72.45,523.54l.71.6c.72.59,2.16,1.77,3.5,3.06a35.71,35.71,0,0,1,3.69,4.18,35.33,35.33,0,0,1,5.21,9.8,35.45,35.45,0,0,1,1.59,16.49,35,35,0,0,1-1.21,5.44,34.4,34.4,0,0,1-2,5.18,35.5,35.5,0,0,1-15.23,15.78,36.2,36.2,0,0,1-5.11,2.22c-1.76.6-3.56,1.07-5.26,9.15S55,619.2,53.17,619.23s-4-15.59-6-23.6-3.79-8.42-5.57-9a35.49,35.49,0,0,1-5.18-2,34.54,34.54,0,0,1-4.8-2.83,35.47,35.47,0,0,1-4.3-3.54,36.55,36.55,0,0,1-3.69-4.17,35.92,35.92,0,0,1-3-4.7,36.58,36.58,0,0,1-2.22-5.1,35.5,35.5,0,0,1,1.66-27.11,34.54,34.54,0,0,1,2.83-4.8,35.37,35.37,0,0,1,7.71-8,34.9,34.9,0,0,1,4.7-3,35.44,35.44,0,0,1,5.1-2.22A35.49,35.49,0,0,1,57,517.59a35.73,35.73,0,0,1,10.61,3.25c1.67.81,3.28,1.76,4.08,2.23l.81.47"/><path class="cls-33" d="M72.67,523.23l.72.6c.73.6,2.18,1.79,3.53,3.1a34.75,34.75,0,0,1,3.73,4.22,35.6,35.6,0,0,1,3,4.74,36.24,36.24,0,0,1,2.24,5.16c.62,1.78,1.09,3.6,6.8,5.36s16.68,3.44,16.71,5.32-10.86,3.95-16.51,5.9-6.06,3.79-6.61,5.59a35.81,35.81,0,0,1-8.5,14.43,35.62,35.62,0,0,1-4.22,3.73,36.63,36.63,0,0,1-4.74,3,36.24,36.24,0,0,1-5.16,2.24,36.66,36.66,0,0,1-5.45,1.41,35.17,35.17,0,0,1-5.61.54A35.6,35.6,0,0,1,41.52,587,35.23,35.23,0,0,1,36.28,585a35.74,35.74,0,0,1-12.92-10.65,36.75,36.75,0,0,1-3-4.75,35.28,35.28,0,0,1-2.24-5.16A36.34,36.34,0,0,1,16.68,559a35.05,35.05,0,0,1-.54-5.6,35.6,35.6,0,0,1,1.56-11.11A35.23,35.23,0,0,1,19.77,537a36.24,36.24,0,0,1,2.85-4.85,35.61,35.61,0,0,1,7.8-8.08,35.64,35.64,0,0,1,4.75-3,35.28,35.28,0,0,1,5.16-2.24,34.08,34.08,0,0,1,5.45-1.41,35.73,35.73,0,0,1,16.71,1,36.3,36.3,0,0,1,5.24,2.06c1.69.83,3.31,1.78,4.12,2.26l.82.48"/><path class="cls-34" d="M73.06,522.66l.74.61c.74.62,2.22,1.84,3.6,3.17a36.62,36.62,0,0,1,9.17,14.39A36.79,36.79,0,0,1,88,546.38a36.58,36.58,0,0,1,.2,11.44,36.49,36.49,0,0,1-29.86,30.91,36.52,36.52,0,0,1-11.43.2,35.66,35.66,0,0,1-5.6-1.24A36.55,36.55,0,0,1,26.61,579a36.77,36.77,0,0,1-6.88-9.13A36.42,36.42,0,0,1,16,559.08a36.52,36.52,0,0,1-.2-11.43A36,36,0,0,1,17.05,542a36.42,36.42,0,0,1,2.1-5.33,48.8,48.8,0,0,0,2.5-5.34c.69-2,1.08-4.25,2.41-5.62s3.59-1.86,5.53-2.61a48.61,48.61,0,0,0,5.25-2.68,36.55,36.55,0,0,1,5.26-2.29,35.47,35.47,0,0,1,5.56-1.44,36.52,36.52,0,0,1,11.43-.2,36.82,36.82,0,0,1,5.6,1.24A36.15,36.15,0,0,1,68,519.88c1.72.84,3.38,1.81,4.2,2.3l.83.48"/><path class="cls-35" d="M81.53,510.56l1,.86c1,.85,3.12,2.57,5.05,4.43a50.86,50.86,0,0,1,5.33,6,51.59,51.59,0,0,1,4.33,6.78,50.78,50.78,0,0,1,3.2,7.38c.88,2.54,1.55,5.15,5.54,7.73s11.28,5.14,11.33,7.82-7.16,5.5-11,8.22-4.48,5.35-5.26,7.91a52.48,52.48,0,0,1-3,7.49,51.3,51.3,0,0,1-22,22.79,51.06,51.06,0,0,1-15.17,5.22A51.27,51.27,0,0,1,37,601.76a50.22,50.22,0,0,1-7.49-3,51.17,51.17,0,0,1-13.14-9.2,51.67,51.67,0,0,1-5.33-6,52.3,52.3,0,0,1-4.32-6.79,51.13,51.13,0,0,1-5.22-15.16,50.58,50.58,0,0,1-.28-16,51,51,0,0,1,4.69-15.34A49.58,49.58,0,0,1,10,523.33a51.41,51.41,0,0,1,11.14-11.54,51.4,51.4,0,0,1,22-9.55,52.6,52.6,0,0,1,8-.77,51.32,51.32,0,0,1,8,.49,51,51,0,0,1,15.34,4.69c2.41,1.18,4.73,2.55,5.89,3.23l1.16.68"/><path class="cls-36" d="M61.09,286.82l.21.17c.22.18.64.53,1,.91a11.65,11.65,0,0,1,1.09,1.24,11.29,11.29,0,0,1,.89,1.39,10.74,10.74,0,0,1,.66,1.52,9.89,9.89,0,0,1,.41,1.6,10.47,10.47,0,0,1,.06,3.29,10.74,10.74,0,0,1-.36,1.61,10.38,10.38,0,0,1-1.44,3,11.6,11.6,0,0,1-1,1.27,9.87,9.87,0,0,1-1.24,1.09,10.23,10.23,0,0,1-1.39.89,10.74,10.74,0,0,1-1.52.66,9.63,9.63,0,0,1-1.6.41,10,10,0,0,1-1.64.16,10.16,10.16,0,0,1-1.65-.1,8.73,8.73,0,0,1-1.61-.36,10.67,10.67,0,0,1-1.54-.6A9.64,9.64,0,0,1,49,304.1a10.84,10.84,0,0,1-1.28-1.05,9.87,9.87,0,0,1-1.09-1.24,10.59,10.59,0,0,1-.89-1.39,10.27,10.27,0,0,1-.66-1.52,9.63,9.63,0,0,1-.41-1.6,10,10,0,0,1-.16-1.64,10.16,10.16,0,0,1,.1-1.65A11.32,11.32,0,0,1,45,292.4a10.67,10.67,0,0,1,.6-1.54,10.19,10.19,0,0,1,.84-1.42,11.71,11.71,0,0,1,1.05-1.28,10.75,10.75,0,0,1,1.24-1.09,11.29,11.29,0,0,1,1.39-.89,10.74,10.74,0,0,1,1.52-.66c.52-.18,1-.32,1.52-5.06s.85-14.08,1.4-14.09,1.26,9.31,1.89,14,1.17,4.84,1.69,5a10.67,10.67,0,0,1,1.54.6c.5.25,1,.53,1.21.67l.24.14"/><path class="cls-37" d="M61.2,286.66l.22.17c.22.18.65.54,1,.93A10.29,10.29,0,0,1,63.59,289a10.6,10.6,0,0,1,.9,1.42,10,10,0,0,1,.67,1.54,3.08,3.08,0,0,0,1,1.62c.65.55,1.8,1.09,1.81,1.65s-1.12,1.14-1.75,1.71a3,3,0,0,0-.92,1.65,10,10,0,0,1-.62,1.57,10.57,10.57,0,0,1-.85,1.45A10.87,10.87,0,0,1,60.06,305a12.36,12.36,0,0,1-1.54.67,11.47,11.47,0,0,1-1.63.42,10.61,10.61,0,0,1-1.68.16,11.84,11.84,0,0,1-1.68-.1,10.49,10.49,0,0,1-1.64-.37,11.08,11.08,0,0,1-1.57-.61,11.77,11.77,0,0,1-1.45-.86,10.17,10.17,0,0,1-1.29-1.07,10.29,10.29,0,0,1-1.12-1.26,10,10,0,0,1-.9-1.42,10.59,10.59,0,0,1-.68-1.54,11.47,11.47,0,0,1-.42-1.63,11.66,11.66,0,0,1-.16-1.68,11.84,11.84,0,0,1,.1-1.68,10.49,10.49,0,0,1,.37-1.64,9.56,9.56,0,0,1,.62-1.56,10,10,0,0,1,.85-1.45,10.85,10.85,0,0,1,2.33-2.42,10.88,10.88,0,0,1,3-1.57,9.29,9.29,0,0,1,1.63-.42,10.15,10.15,0,0,1,3.36-.06,10.45,10.45,0,0,1,1.64.36,10,10,0,0,1,1.57.62c.5.24,1,.53,1.23.67l.24.15"/><path class="cls-38" d="M61.25,286.59l.22.18c.22.18.66.54,1.06.93A10.47,10.47,0,0,1,63.66,289a11.16,11.16,0,0,1,.91,1.43,10.78,10.78,0,0,1,.67,1.56,2.37,2.37,0,0,0,1.37,1.62c1,.54,3,1.08,3,1.64s-1.91,1.17-2.92,1.74a2.38,2.38,0,0,0-1.31,1.68,9.67,9.67,0,0,1-.62,1.57,12,12,0,0,1-.86,1.47A11.28,11.28,0,0,1,62.8,303a10.47,10.47,0,0,1-1.27,1.13,11.16,11.16,0,0,1-1.43.91,10.82,10.82,0,0,1-1.56.68,11.26,11.26,0,0,1-1.64.42,10.75,10.75,0,0,1-5-.31,10,10,0,0,1-1.57-.62,10.17,10.17,0,0,1-1.46-.86,9.77,9.77,0,0,1-1.31-1.08A10.47,10.47,0,0,1,46.39,302a11.16,11.16,0,0,1-.91-1.43A12.55,12.55,0,0,1,44.8,299a11.73,11.73,0,0,1-.42-1.65,10.5,10.5,0,0,1-.16-1.68,10.71,10.71,0,0,1,.1-1.7,10.36,10.36,0,0,1,.37-1.65,10.15,10.15,0,0,1,.62-1.58,11.18,11.18,0,0,1,.86-1.46A11.39,11.39,0,0,1,47.25,288a10.47,10.47,0,0,1,1.27-1.13,11.16,11.16,0,0,1,1.43-.91,10.78,10.78,0,0,1,1.56-.67,10.14,10.14,0,0,1,1.64-.43,10.75,10.75,0,0,1,5,.31,11.13,11.13,0,0,1,1.57.62c.51.25,1,.54,1.25.68l.24.15"/><path class="cls-39" d="M63.7,283.09l.3.25c.31.25.92.76,1.48,1.31a14.52,14.52,0,0,1,1.57,1.76,15.37,15.37,0,0,1,1.27,2,14.25,14.25,0,0,1,.94,2.16c.26.75.46,1.52,4.85,2.22s13,1.34,13,2.13-8.55,1.72-12.92,2.58-4.55,1.62-4.78,2.38a15.92,15.92,0,0,1-.86,2.2,15.25,15.25,0,0,1-1.2,2,14.62,14.62,0,0,1-3.27,3.39,15.23,15.23,0,0,1-4.16,2.21,15.13,15.13,0,0,1-2.29.6,15.44,15.44,0,0,1-2.35.22,14.32,14.32,0,0,1-2.36-.14,15.38,15.38,0,0,1-2.31-.51,14.79,14.79,0,0,1-2.2-.87,15.92,15.92,0,0,1-2-1.2,13.82,13.82,0,0,1-1.82-1.5A14.61,14.61,0,0,1,43,304.54a14.85,14.85,0,0,1-2.21-4.16,14,14,0,0,1-.59-2.29,14.28,14.28,0,0,1-.23-2.35,15.5,15.5,0,0,1,.14-2.36,14.27,14.27,0,0,1,.52-2.31,15.31,15.31,0,0,1,.86-2.19,16,16,0,0,1,1.2-2,14.66,14.66,0,0,1,1.5-1.82A14.83,14.83,0,0,1,48,282.18a15.33,15.33,0,0,1,2.16-.94,14,14,0,0,1,2.29-.59,15.15,15.15,0,0,1,7,.43,15.92,15.92,0,0,1,2.2.86c.7.35,1.39.75,1.73.95l.34.2"/><path class="cls-40" d="M67.23,278l.43.36c.43.35,1.29,1.06,2.09,1.83a20.84,20.84,0,0,1,2.2,2.49,21.19,21.19,0,0,1,1.79,2.81,22.33,22.33,0,0,1,1.33,3.05c.36,1.05.64,2.12,3.17,3.17s7.33,2.08,7.35,3.19-4.74,2.31-7.23,3.45-2.74,2.22-3.07,3.28a21.64,21.64,0,0,1-1.21,3.1,22.15,22.15,0,0,1-1.69,2.86,21.76,21.76,0,0,1-2.12,2.57,20,20,0,0,1-2.49,2.2,21.09,21.09,0,0,1-2.8,1.79,21.66,21.66,0,0,1-3.05,1.33,21.14,21.14,0,0,1-3.22.83,21.34,21.34,0,0,1-6.64.12,22.6,22.6,0,0,1-3.24-.72,22.93,22.93,0,0,1-3.1-1.22,21.34,21.34,0,0,1-5.43-3.81,20,20,0,0,1-2.2-2.49,20.46,20.46,0,0,1-1.79-2.8,21,21,0,0,1-2.16-6.27,21.69,21.69,0,0,1-.32-3.31,20.5,20.5,0,0,1,.21-3.32,21.16,21.16,0,0,1,.71-3.25,21,21,0,0,1,2.91-6,21.76,21.76,0,0,1,2.12-2.57,20.84,20.84,0,0,1,2.49-2.2,21.38,21.38,0,0,1,9.07-3.95,21.82,21.82,0,0,1,3.31-.32,20.43,20.43,0,0,1,3.32.21,20.07,20.07,0,0,1,3.25.72,20.57,20.57,0,0,1,3.1,1.22c1,.48,2,1.05,2.43,1.33l.48.28"/><path class="cls-41" d="M68.44,276.31l.48.39c.47.39,1.41,1.17,2.29,2a22.39,22.39,0,0,1,2.42,2.73,22.75,22.75,0,0,1,2,3.09A23,23,0,0,1,78,291.43a23.46,23.46,0,0,1,.13,7.29,23.21,23.21,0,0,1-2.13,7,23.68,23.68,0,0,1-1.86,3.15,23.34,23.34,0,0,1-2.32,2.82,24.28,24.28,0,0,1-2.74,2.43,23.73,23.73,0,0,1-6.44,3.42,22.7,22.7,0,0,1-3.54.91,23.46,23.46,0,0,1-7.29.13,23,23,0,0,1-3.57-.79,24.74,24.74,0,0,1-3.4-1.34,23.68,23.68,0,0,1-3.15-1.86,23.46,23.46,0,0,1-7.21-8.14A23.86,23.86,0,0,1,33,303.06c-.39-1.15-.7-2.34-6.25-3.44s-16.33-2.14-16.35-3.36,10.72-2.63,16.23-3.93,5.77-2.5,6.12-3.67a24.74,24.74,0,0,1,1.34-3.4,23.6,23.6,0,0,1,4.18-6A23.25,23.25,0,0,1,41,276.87a23.76,23.76,0,0,1,3.09-2A23.72,23.72,0,0,1,51,272.53a23.46,23.46,0,0,1,7.29-.13,24.2,24.2,0,0,1,3.57.79,24.74,24.74,0,0,1,3.4,1.34c1.1.54,2.15,1.16,2.68,1.47l.52.31"/><path class="cls-42" d="M69.8,274.37l.52.43c.52.43,1.56,1.29,2.53,2.22a24.67,24.67,0,0,1,2.66,3,25.65,25.65,0,0,1,2.17,3.39A25.87,25.87,0,0,1,80.29,291a27,27,0,0,1,.39,4,25.76,25.76,0,0,1-.25,4,26.52,26.52,0,0,1-.87,3.93,25.08,25.08,0,0,1-1.48,3.74,25.65,25.65,0,0,1-2,3.47,26.27,26.27,0,0,1-2.56,3.11,25.62,25.62,0,0,1-3,2.67,26,26,0,0,1-3.39,2.16,25.08,25.08,0,0,1-3.69,1.6c-1.27.44-2.58.78-3.84,4.32s-2.49,10.3-3.84,10.32-2.8-6.68-4.19-10.18-2.7-3.79-4-4.18a26.63,26.63,0,0,1-3.74-1.47,25.71,25.71,0,0,1-3.47-2.05,26.27,26.27,0,0,1-3.11-2.56,25.34,25.34,0,0,1-2.66-3,25.75,25.75,0,0,1-2.17-3.4,25.87,25.87,0,0,1-2.61-7.59,26.83,26.83,0,0,1-.39-4,25.64,25.64,0,0,1,.25-4,26.25,26.25,0,0,1,.87-3.93A25.19,25.19,0,0,1,32,284.23a24.64,24.64,0,0,1,2-3.47,26.27,26.27,0,0,1,2.56-3.11,25.54,25.54,0,0,1,3-2.66A25,25,0,0,1,43,272.82a26.2,26.2,0,0,1,3.69-1.6,25.11,25.11,0,0,1,3.9-1,26.83,26.83,0,0,1,4-.39,25.76,25.76,0,0,1,4,.25,26.52,26.52,0,0,1,3.93.87,25.51,25.51,0,0,1,3.74,1.48c1.21.59,2.37,1.27,3,1.61l.58.34"/><path class="cls-43" d="M72.73,270.19l.63.51c.62.51,1.87,1.54,3,2.66a31.29,31.29,0,0,1,3.2,3.61,31,31,0,0,1,4.52,8.5,8.06,8.06,0,0,0,3,4.64c2.06,1.55,5.79,3.1,5.82,4.71s-3.64,3.28-5.65,4.9a8.12,8.12,0,0,0-2.83,4.75A29.8,29.8,0,0,1,82.66,309a31.51,31.51,0,0,1-2.45,4.16,29.59,29.59,0,0,1-3.07,3.72,31.29,31.29,0,0,1-3.61,3.2,30.42,30.42,0,0,1-4.07,2.59A31,31,0,0,1,65,324.55a31.53,31.53,0,0,1-4.68,1.21,30.84,30.84,0,0,1-4.8.46,30.73,30.73,0,0,1-14-3.11A30.9,30.9,0,0,1,30.47,314a30.42,30.42,0,0,1-2.59-4.07A31,31,0,0,1,26,305.49a30.49,30.49,0,0,1-1.2-4.67,31.1,31.1,0,0,1-.47-4.81,29.74,29.74,0,0,1,.3-4.81,30.53,30.53,0,0,1,2.81-9.2,31.51,31.51,0,0,1,2.45-4.16,30.33,30.33,0,0,1,3.07-3.72,31.29,31.29,0,0,1,3.61-3.2,30.42,30.42,0,0,1,4.07-2.59A31,31,0,0,1,45,266.4a31.5,31.5,0,0,1,4.68-1.2A30.18,30.18,0,0,1,59.3,265a30.22,30.22,0,0,1,4.71,1,31,31,0,0,1,4.49,1.77c1.45.71,2.84,1.53,3.54,1.94l.69.41"/><path class="cls-44" d="M73.94,268.46l.67.55c.66.55,2,1.64,3.23,2.84a33,33,0,0,1,3.42,3.86,32.79,32.79,0,0,1,4.82,9.07,17.28,17.28,0,0,0,2.2,5c1.21,1.67,3.2,3.36,3.23,5.08s-1.9,3.47-3.05,5.19a17.26,17.26,0,0,0-2,5.05,34.66,34.66,0,0,1-1.89,4.8,33.59,33.59,0,0,1-2.62,4.44,33.23,33.23,0,0,1-7.14,7.39,33.93,33.93,0,0,1-4.34,2.77,33,33,0,0,1-4.73,2,32.08,32.08,0,0,1-5,1.29,32.43,32.43,0,0,1-10.28.18,33.47,33.47,0,0,1-5-1.11A34,34,0,0,1,40.63,325a33.07,33.07,0,0,1-4.45-2.62,31.86,31.86,0,0,1-4-3.28,32.21,32.21,0,0,1-3.42-3.86A33.25,33.25,0,0,1,26,310.9,33.61,33.61,0,0,1,24,306.17a33.25,33.25,0,0,1-1.29-5,32.37,32.37,0,0,1-.18-10.27,33.32,33.32,0,0,1,1.11-5,34,34,0,0,1,1.89-4.79,33,33,0,0,1,2.62-4.44,33,33,0,0,1,7.14-7.4,32.42,32.42,0,0,1,9.07-4.82,33.25,33.25,0,0,1,5-1.29A32.43,32.43,0,0,1,59.6,263a32.31,32.31,0,0,1,5,1.12A32.83,32.83,0,0,1,69.42,266c1.55.76,3,1.63,3.78,2.07l.74.44"/><path class="cls-45" d="M75.7,266l.73.6c.73.6,2.18,1.8,3.53,3.1a36.43,36.43,0,0,1,3.73,4.22,34.72,34.72,0,0,1,3,4.75A35.92,35.92,0,0,1,89,283.79a35.87,35.87,0,0,1,2,11.06,35.21,35.21,0,0,1-.35,5.62,37,37,0,0,1-1.21,5.5,36.35,36.35,0,0,1-2.07,5.24,35.37,35.37,0,0,1-2.86,4.86,36.36,36.36,0,0,1-3.58,4.34,35.5,35.5,0,0,1-9,6.76,34.84,34.84,0,0,1-5.17,2.25,36.34,36.34,0,0,1-5.45,1.41,35.17,35.17,0,0,1-5.61.54A36.41,36.41,0,0,1,50,331a37,37,0,0,1-5.5-1.22,35.9,35.9,0,0,1-14.44-8.51,37.48,37.48,0,0,1-3.74-4.22,36.19,36.19,0,0,1-5.27-9.92,35.87,35.87,0,0,1-1.95-11.06,35.21,35.21,0,0,1,.35-5.62,37,37,0,0,1,1.21-5.5,36.35,36.35,0,0,1,2.07-5.24,35.26,35.26,0,0,1,2.86-4.85,35.61,35.61,0,0,1,7.8-8.08,35.7,35.7,0,0,1,4.75-3,37.07,37.07,0,0,1,5.17-2.25,50.36,50.36,0,0,0,5.44-1.95c1.84-.87,3.7-2.14,5.58-2.18s3.78,1.18,5.65,2a49.4,49.4,0,0,0,5.51,1.77,36.3,36.3,0,0,1,5.24,2.06c1.69.82,3.32,1.78,4.13,2.26l.81.48"/><path class="cls-46" d="M77.43,263.48l.79.65c.79.65,2.36,1.95,3.83,3.36a38.84,38.84,0,0,1,4,4.57,39.14,39.14,0,0,1,5.72,10.75c.66,1.93,1.17,3.9,11,5.75s28.89,3.54,28.93,5.58-19,4.4-28.72,6.59-10.18,4.17-10.77,6.12A39.66,39.66,0,0,1,90,312.53a38.59,38.59,0,0,1-3.1,5.26A39,39,0,0,1,83,322.5a38.68,38.68,0,0,1-9.72,7.33,39.15,39.15,0,0,1-11.51,4,38.75,38.75,0,0,1-6.08.58,38.84,38.84,0,0,1-12.05-1.69,39,39,0,0,1-10.94-5.34A39,39,0,0,1,24,318.89a40.06,40.06,0,0,1-3.28-5.15,39.15,39.15,0,0,1-2.43-5.6,39.75,39.75,0,0,1-1.53-5.91,39.21,39.21,0,0,1-.21-12.17,39.14,39.14,0,0,1,1.32-6,39.66,39.66,0,0,1,2.24-5.68,38.81,38.81,0,0,1,11.55-14,38,38,0,0,1,5.15-3.28,39.2,39.2,0,0,1,5.6-2.44,40.07,40.07,0,0,1,5.91-1.53A39.22,39.22,0,0,1,60.44,257a39.14,39.14,0,0,1,6,1.32,39.66,39.66,0,0,1,5.68,2.24c1.83.89,3.59,1.93,4.47,2.45l.88.52"/><path class="cls-47" d="M78,262.74l.81.66c.8.67,2.41,2,3.91,3.44a39.76,39.76,0,0,1,10,15.68,39.39,39.39,0,0,1,1.56,6,40.68,40.68,0,0,1,.6,6.22,39.88,39.88,0,0,1-7.19,23.53,41.66,41.66,0,0,1-4,4.82A40.78,40.78,0,0,1,79,327.26a39.68,39.68,0,0,1-11,5.85,39.39,39.39,0,0,1-6,1.56,38.31,38.31,0,0,1-6.22.6,39.85,39.85,0,0,1-12.33-1.73,39.84,39.84,0,0,1-5.81-2.29,39.93,39.93,0,0,1-10.2-7.14,39.93,39.93,0,0,1-4.14-4.68A39.82,39.82,0,0,1,17,283.84,40.3,40.3,0,0,1,19.25,278a39.74,39.74,0,0,1,3.17-5.38,40.84,40.84,0,0,1,4-4.82,39.76,39.76,0,0,1,15.68-10c2-.68,4-1.2,5.93-8.06s3.79-20,5.88-20.08,4.39,13.08,6.57,19.87,4.22,7.23,6.21,7.84a40.3,40.3,0,0,1,5.81,2.29c1.88.92,3.68,2,4.58,2.51l.9.53"/><path class="cls-48" d="M85,252.64l1,.87c1.06.87,3.17,2.61,5.13,4.51a51.59,51.59,0,0,1,5.41,6.12A50.53,50.53,0,0,1,101,271a52.11,52.11,0,0,1,5.31,15.4,52.91,52.91,0,0,1,.78,8.14,52.09,52.09,0,0,1-2.27,16.13,50.6,50.6,0,0,1-3,7.6,51.91,51.91,0,0,1-4.15,7.05,51.32,51.32,0,0,1-5.2,6.3,52.58,52.58,0,0,1-6.12,5.42,51.51,51.51,0,0,1-6.89,4.39A50.75,50.75,0,0,1,72,344.71a51.77,51.77,0,0,1-16.05,2.83,51.69,51.69,0,0,1-16.13-2.26,51.74,51.74,0,0,1-7.6-3,50.78,50.78,0,0,1-7-4.15,51.5,51.5,0,0,1-6.31-5.19,53.21,53.21,0,0,1-5.41-6.12,52.34,52.34,0,0,1-4.4-6.9,50.75,50.75,0,0,1-3.25-7.49,52,52,0,0,1-2.33-24.2,53.11,53.11,0,0,1,1.76-8A52.43,52.43,0,0,1,17.56,259.3a52.48,52.48,0,0,1,6.13-5.41,52.16,52.16,0,0,1,14.38-7.65c2.58-.89,5.23-1.57,7.83-6.69s5.17-14.66,7.89-14.7,5.62,9.4,8.4,14.42,5.45,5.61,8.06,6.41a51.69,51.69,0,0,1,7.6,3c2.45,1.2,4.81,2.58,6,3.28l1.18.69"/><path class="cls-49" d="M85.35,252.16l1.07.88c1.07.88,3.2,2.64,5.18,4.56a51.17,51.17,0,0,1,5.48,6.19,52.23,52.23,0,0,1,4.44,7,52.93,52.93,0,0,1,3.29,7.58,51.66,51.66,0,0,1,2.07,8,52.17,52.17,0,0,1,.29,16.48,52.8,52.8,0,0,1-9,22.87,52.72,52.72,0,0,1-26,19.59,52.53,52.53,0,0,1-16.23,2.86,52.85,52.85,0,0,1-16.31-2.3,52.12,52.12,0,0,1-14.81-7.22A52.17,52.17,0,0,1,13,327.17a52.34,52.34,0,0,1-4.44-7,53.63,53.63,0,0,1-3.3-7.58,52.51,52.51,0,0,1-2.35-24.47,52.82,52.82,0,0,1,20.45-34.73,54,54,0,0,1,7-4.44,52.45,52.45,0,0,1,7.58-3.29c2.61-.9,5.29-1.59,8-3.57s5.39-5.25,8.15-5.3,5.57,3.12,8.33,5,5.45,2.48,8.09,3.29a51.82,51.82,0,0,1,7.69,3c2.48,1.21,4.86,2.61,6,3.31l1.19.7"/><path class="cls-50" d="M59,123.48l.21.18c.22.18.65.53,1.06.92a11.11,11.11,0,0,1,1.11,1.26,11,11,0,0,1,.9,1.42,10.54,10.54,0,0,1,.67,1.54,11.34,11.34,0,0,1,.42,1.62,10.38,10.38,0,0,1,.16,1.67,10.37,10.37,0,0,1-.47,3.32,11,11,0,0,1-.61,1.56,11.7,11.7,0,0,1-.85,1.45,10.93,10.93,0,0,1-1.07,1.29,10.21,10.21,0,0,1-1.26,1.11,11.68,11.68,0,0,1-1.41.91,12.36,12.36,0,0,1-1.54.67c-.53.18-1.08.32-1.55,4.92S53.86,161,53.3,161s-1.27-9-1.91-13.63-1.18-4.71-1.71-4.87a11.08,11.08,0,0,1-1.57-.61,11.65,11.65,0,0,1-1.44-.86,10.21,10.21,0,0,1-2.41-2.32,10,10,0,0,1-.9-1.42,9.56,9.56,0,0,1-.67-1.54,10.15,10.15,0,0,1-.42-1.62,10.85,10.85,0,0,1-.06-3.35,11.72,11.72,0,0,1,.36-1.64,11,11,0,0,1,.62-1.56,10.57,10.57,0,0,1,.85-1.45,10.17,10.17,0,0,1,1.07-1.29,11,11,0,0,1,1.25-1.12,13.08,13.08,0,0,1,1.42-.9,12.36,12.36,0,0,1,1.54-.67,11.13,11.13,0,0,1,1.63-.42,10.8,10.8,0,0,1,3.34-.06,10,10,0,0,1,1.64.37,10.52,10.52,0,0,1,1.56.61c.51.25,1,.53,1.23.68l.25.14"/><path class="cls-51" d="M61.53,119.81l.31.26c.31.25.92.75,1.49,1.31a14.89,14.89,0,0,1,1.58,1.78,15.43,15.43,0,0,1,1.28,2,14.48,14.48,0,0,1,.94,2.18c.26.75.46,1.53,5.1,2.23s13.7,1.34,13.71,2.13-9,1.75-13.63,2.61-4.78,1.64-5,2.4a15.33,15.33,0,0,1-3.59,6.1,14.7,14.7,0,0,1-1.78,1.57,15.16,15.16,0,0,1-2,1.28,15.62,15.62,0,0,1-2.18,1,15.25,15.25,0,0,1-2.3.6,15.83,15.83,0,0,1-2.37.22,14.56,14.56,0,0,1-2.38-.14,15.39,15.39,0,0,1-4.53-1.39,16.15,16.15,0,0,1-2-1.2,16.68,16.68,0,0,1-1.84-1.52,15.62,15.62,0,0,1-1.57-1.78,14.44,14.44,0,0,1-1.28-2,16.28,16.28,0,0,1-1-2.19,14.12,14.12,0,0,1-.59-2.3,15.28,15.28,0,0,1-.09-4.74,15.26,15.26,0,0,1,.52-2.32,14.71,14.71,0,0,1,2.08-4.26,14.77,14.77,0,0,1,1.51-1.84,15.7,15.7,0,0,1,1.78-1.58,16.18,16.18,0,0,1,2-1.27,14.53,14.53,0,0,1,2.18-1,15.25,15.25,0,0,1,2.3-.6,14.88,14.88,0,0,1,4.74-.08,15,15,0,0,1,2.32.51,16.27,16.27,0,0,1,2.22.88c.71.34,1.4.75,1.74,1l.34.2"/><path class="cls-52" d="M62.47,118.48l.34.28c.34.28,1,.84,1.65,1.45a16.24,16.24,0,0,1,1.74,2,16.7,16.7,0,0,1,1.42,2.22,17.87,17.87,0,0,1,1,2.42,15.92,15.92,0,0,1,.66,2.55,16.85,16.85,0,0,1-.48,7.82,17.78,17.78,0,0,1-1,2.45,18.4,18.4,0,0,1-1.34,2.26,18.2,18.2,0,0,1-1.68,2,16.79,16.79,0,0,1-6.6,4.21,17.33,17.33,0,0,1-2.55.65,16.61,16.61,0,0,1-2.62.26,17.78,17.78,0,0,1-2.63-.16,18.7,18.7,0,0,1-2.57-.57,16.64,16.64,0,0,1-2.45-1A15.73,15.73,0,0,1,43.18,146a16.88,16.88,0,0,1-3.78-3.64A16.63,16.63,0,0,1,38,140.16a15.67,15.67,0,0,1-1.05-2.42,6.34,6.34,0,0,0-1.3-2.54c-.78-.85-2.13-1.71-2.15-2.58s1.31-1.78,2.06-2.67a6.27,6.27,0,0,0,1.21-2.58,16.5,16.5,0,0,1,2.3-4.72,16.23,16.23,0,0,1,1.67-2,17.14,17.14,0,0,1,2-1.74,17.89,17.89,0,0,1,2.23-1.42,17.22,17.22,0,0,1,2.41-1,18.35,18.35,0,0,1,2.55-.66,16.91,16.91,0,0,1,5.25-.09,17.34,17.34,0,0,1,2.57.57,16.64,16.64,0,0,1,2.45,1c.79.38,1.55.83,1.93,1l.38.23"/><path class="cls-53" d="M65.19,114.59l.44.36c.43.36,1.31,1.07,2.12,1.86A21.37,21.37,0,0,1,70,119.33a21.83,21.83,0,0,1,1.82,2.85,23,23,0,0,1,1.34,3.1c.37,1.06.65,2.15,6.28,3.17s16.62,2,16.64,3.07S85.14,134,79.54,135.18s-5.84,2.31-6.17,3.39a21.76,21.76,0,0,1-1.23,3.14,22.46,22.46,0,0,1-1.72,2.91,21.27,21.27,0,0,1-2.14,2.6,22.39,22.39,0,0,1-2.53,2.24,21.11,21.11,0,0,1-2.85,1.81,21.05,21.05,0,0,1-6.36,2.19,21.11,21.11,0,0,1-6.73.12,21.84,21.84,0,0,1-3.3-.73,21.56,21.56,0,0,1-3.14-1.24,20.62,20.62,0,0,1-2.9-1.71,21.54,21.54,0,0,1-4.85-4.68,22.75,22.75,0,0,1-1.81-2.84,20.72,20.72,0,0,1-1.34-3.1,21.52,21.52,0,0,1-.85-3.27,20.89,20.89,0,0,1-.32-3.36,22.21,22.21,0,0,1,.2-3.36,21.63,21.63,0,0,1,3.68-9.35,22.31,22.31,0,0,1,2.15-2.6,21.47,21.47,0,0,1,5.37-4,22.36,22.36,0,0,1,3.1-1.35,20.65,20.65,0,0,1,3.27-.84A21.11,21.11,0,0,1,55.8,111a21.71,21.71,0,0,1,3.29.73A20.7,20.7,0,0,1,62.23,113c1,.49,2,1.06,2.48,1.35l.48.29"/><path class="cls-54" d="M65.41,114.27l.44.37c.45.37,1.33,1.1,2.16,1.89a21.38,21.38,0,0,1,2.27,2.58A21.81,21.81,0,0,1,72.13,122a21.43,21.43,0,0,1,1.37,3.15,22.61,22.61,0,0,1,.86,3.33,21.86,21.86,0,0,1,.12,6.85,22.78,22.78,0,0,1-.74,3.35,22.5,22.5,0,0,1-1.26,3.19,21.93,21.93,0,0,1-1.75,3,20.47,20.47,0,0,1-2.18,2.65A22.17,22.17,0,0,1,66,149.76a22.59,22.59,0,0,1-2.9,1.85A23.8,23.8,0,0,1,59.93,153a22.3,22.3,0,0,1-3.33.86,21.75,21.75,0,0,1-10.2-.63A20.73,20.73,0,0,1,43.21,152a21.44,21.44,0,0,1-3-1.74A22.25,22.25,0,0,1,37.6,148a21.47,21.47,0,0,1-2.28-2.58,20.77,20.77,0,0,1-1.84-2.89,21.91,21.91,0,0,1-1.37-3.15c-.38-1.09-.66-2.2-4.3-3.27s-10.62-2.09-10.64-3.24,6.92-2.41,10.52-3.61,3.85-2.31,4.18-3.41a22,22,0,0,1,3-6.16,23,23,0,0,1,2.19-2.65,21.39,21.39,0,0,1,2.57-2.27,21.83,21.83,0,0,1,6-3.22,22.17,22.17,0,0,1,3.32-.86,21.86,21.86,0,0,1,6.85-.12,21.34,21.34,0,0,1,3.35.75,20.45,20.45,0,0,1,3.2,1.26c1,.5,2,1.08,2.51,1.37l.5.29"/><path class="cls-55" d="M66.65,112.51l.49.4c.48.4,1.46,1.2,2.36,2.08a23.83,23.83,0,0,1,6,9.46,24.48,24.48,0,0,1,1,3.65,23.7,23.7,0,0,1,.36,3.76,24.82,24.82,0,0,1-.23,3.76,24.24,24.24,0,0,1-2.2,7.2,24.05,24.05,0,0,1-1.91,3.25A25.76,25.76,0,0,1,70.1,149a24.92,24.92,0,0,1-2.83,2.5,23.4,23.4,0,0,1-3.18,2A23.08,23.08,0,0,1,60.63,155,24.14,24.14,0,0,1,57,156a23.7,23.7,0,0,1-3.76.36,22.48,22.48,0,0,1-3.76-.23,23.37,23.37,0,0,1-3.69-.81,24.47,24.47,0,0,1-3.5-1.38A25.33,25.33,0,0,1,39,152a23.78,23.78,0,0,1-2.91-2.4,24.82,24.82,0,0,1-2.5-2.82,24.53,24.53,0,0,1-2-3.19,23.43,23.43,0,0,1-2.45-7.11,24.11,24.11,0,0,1-.13-7.52,23.54,23.54,0,0,1,2.2-7.19,24.05,24.05,0,0,1,1.91-3.25,24.73,24.73,0,0,1,2.4-2.91,24,24,0,0,1,2.83-2.5,23.47,23.47,0,0,1,3.18-2,24.1,24.1,0,0,1,3.46-1.5c1.19-.41,2.41-.73,3.59-4.06s2.34-9.69,3.6-9.71,2.62,6.29,3.92,9.58,2.54,3.56,3.74,3.93a24.13,24.13,0,0,1,3.51,1.38c1.13.55,2.22,1.2,2.76,1.52l.55.32"/><path class="cls-56" d="M67,112l.5.41c.5.41,1.5,1.24,2.43,2.13a24.25,24.25,0,0,1,2.56,2.9,23.67,23.67,0,0,1,2.08,3.26,24.3,24.3,0,0,1,1.55,3.55c.42,1.22.74,2.48,8.56,3.62s23.13,2.16,23.15,3.45-15.24,2.85-23,4.26-8,2.67-8.43,3.91a23.62,23.62,0,0,1-1.42,3.6,24.75,24.75,0,0,1-4.42,6.32,25.17,25.17,0,0,1-2.9,2.56,24.66,24.66,0,0,1-3.26,2.08,24.25,24.25,0,0,1-3.55,1.54,24,24,0,0,1-3.75,1,23.68,23.68,0,0,1-3.85.37,24.93,24.93,0,0,1-3.86-.23A24.68,24.68,0,0,1,42,154.44a25.27,25.27,0,0,1-3.33-2,24.34,24.34,0,0,1-3-2.46,25.25,25.25,0,0,1-2.57-2.9A24.76,24.76,0,0,1,31,143.85a24.62,24.62,0,0,1-2.51-7.29,24.52,24.52,0,0,1-.13-7.71,25.47,25.47,0,0,1,.83-3.78,25.88,25.88,0,0,1,1.42-3.6,24.7,24.7,0,0,1,2-3.33,24.28,24.28,0,0,1,2.46-3A23.41,23.41,0,0,1,38,112.59,24.81,24.81,0,0,1,48.52,108a24.92,24.92,0,0,1,7.71-.14,24.68,24.68,0,0,1,7.38,2.26c1.16.56,2.28,1.22,2.84,1.55L67,112"/><path class="cls-57" d="M68.36,110.06l.55.45c.55.45,1.64,1.35,2.66,2.34A26.43,26.43,0,0,1,74.38,116a27.14,27.14,0,0,1,4,7.46,6.52,6.52,0,0,0,2.87,4.08c2,1.36,5.81,2.71,5.83,4.12s-3.68,2.9-5.68,4.33a6.5,6.5,0,0,0-2.73,4.17,27.83,27.83,0,0,1-1.56,3.94,26.67,26.67,0,0,1-2.15,3.65,27.28,27.28,0,0,1-2.69,3.28,28.19,28.19,0,0,1-3.18,2.8,26.91,26.91,0,0,1-11.57,5,25.89,25.89,0,0,1-4.22.41A27.23,27.23,0,0,1,49,159,27.17,27.17,0,0,1,41,156.56a27.29,27.29,0,0,1-3.65-2.15,27.32,27.32,0,0,1-6.08-5.87A26.76,26.76,0,0,1,29,145a27.38,27.38,0,0,1-1.69-3.89A26.26,26.26,0,0,1,26.2,137a26.82,26.82,0,0,1-.15-8.45,27.82,27.82,0,0,1,.92-4.14,26.63,26.63,0,0,1,1.55-3.94,27.4,27.4,0,0,1,2.15-3.66,29.12,29.12,0,0,1,2.7-3.27,28.39,28.39,0,0,1,3.18-2.81,26.59,26.59,0,0,1,3.57-2.27,27.13,27.13,0,0,1,12.21-3.16,26,26,0,0,1,4.23.26,25.52,25.52,0,0,1,4.14.92,27.19,27.19,0,0,1,4,1.55c1.27.62,2.49,1.34,3.1,1.7l.61.36"/><path class="cls-58" d="M71.57,105.48l.66.54c.66.55,2,1.63,3.21,2.82A32.33,32.33,0,0,1,81.57,117a32.45,32.45,0,0,1,2,4.69c.56,1.61,1,3.27,1.71,4.94s1.75,3.36,1.78,5.07-.93,3.43-1.6,5.13-1,3.36-1.54,5a31.24,31.24,0,0,1-1.87,4.75,32.5,32.5,0,0,1-2.6,4.41,32.68,32.68,0,0,1-7.08,7.33,31.78,31.78,0,0,1-4.31,2.75,32.62,32.62,0,0,1-19.83,3.5,32.7,32.7,0,0,1-5-1.11A32.34,32.34,0,0,1,34.11,159a34,34,0,0,1-3.94-3.25,33.28,33.28,0,0,1-3.39-3.83A32.42,32.42,0,0,1,24,147.58a33.59,33.59,0,0,1-2-4.69,34,34,0,0,1-1.28-4.95,33.48,33.48,0,0,1-.49-5.09,32.33,32.33,0,0,1,.32-5.11,31.52,31.52,0,0,1,1.1-5A32.36,32.36,0,0,1,23.52,118a31.43,31.43,0,0,1,2.59-4.41,32.13,32.13,0,0,1,7.08-7.33,32.52,32.52,0,0,1,4.32-2.75,33,33,0,0,1,4.68-2,32.54,32.54,0,0,1,5-1.28A32.64,32.64,0,0,1,57.34,100a32.92,32.92,0,0,1,9.75,3c1.53.75,3,1.62,3.74,2.05l.74.44"/><path class="cls-59" d="M71.68,105.31l.67.55c.66.55,2,1.64,3.23,2.84A33.76,33.76,0,0,1,79,112.55a32.87,32.87,0,0,1,4.81,9.06,32.88,32.88,0,0,1,1.47,15.23,31.93,31.93,0,0,1-1.12,5,32.39,32.39,0,0,1-1.88,4.79,32.67,32.67,0,0,1-9.74,11.81,32.67,32.67,0,0,1-9.05,4.82,31.93,31.93,0,0,1-5,1.28,32.3,32.3,0,0,1-10.26.18,33.07,33.07,0,0,1-5-1.11,31.78,31.78,0,0,1-4.79-1.89A32.36,32.36,0,0,1,34,159.13a31.94,31.94,0,0,1-4-3.27A32.82,32.82,0,0,1,26.62,152a32.17,32.17,0,0,1-2.76-4.34A31.32,31.32,0,0,1,21.81,143a32.81,32.81,0,0,1-1.29-5,31.37,31.37,0,0,1-.49-5.12,32.65,32.65,0,0,1,.31-5.13,33.47,33.47,0,0,1,1.11-5,32.76,32.76,0,0,1,1.89-4.78,32.83,32.83,0,0,1,9.73-11.81,32.87,32.87,0,0,1,4.34-2.77,34,34,0,0,1,4.72-2,21.2,21.2,0,0,0,5-2.07c1.67-1.08,3.36-2.81,5.08-2.84S55.64,98,57.35,99a21.16,21.16,0,0,0,5,1.9,32.71,32.71,0,0,1,4.78,1.88c1.55.76,3,1.63,3.77,2.07l.74.43"/><path class="cls-60" d="M72.87,103.62l.71.58c.7.58,2.12,1.75,3.43,3a35.18,35.18,0,0,1,6.56,8.71,34.2,34.2,0,0,1,2.18,5,7.94,7.94,0,0,0,4,5.25c3,1.75,8.48,3.48,8.51,5.31s-5.4,3.74-8.32,5.59a7.94,7.94,0,0,0-3.84,5.39,35.3,35.3,0,0,1-2,5.08,34.47,34.47,0,0,1-6.25,8.94,35.27,35.27,0,0,1-4.1,3.62,34.61,34.61,0,0,1-4.61,2.94,36.48,36.48,0,0,1-5,2.18,35.86,35.86,0,0,1-5.3,1.37,35.29,35.29,0,0,1-5.44.52,35.66,35.66,0,0,1-5.46-.33,34.77,34.77,0,0,1-5.33-1.19A34.85,34.85,0,0,1,25,153.25,35.2,35.2,0,0,1,22,148.64a33.85,33.85,0,0,1-2.18-5,33.15,33.15,0,0,1-1.37-5.29,34.36,34.36,0,0,1-.19-10.9,34.61,34.61,0,0,1,6-15.14,35.94,35.94,0,0,1,3.48-4.22,34.37,34.37,0,0,1,4.09-3.62,35.26,35.26,0,0,1,4.61-2.94A35,35,0,0,1,46.75,98a35.17,35.17,0,0,1,10.9-.19A34.63,34.63,0,0,1,63,99a34.25,34.25,0,0,1,5.09,2c1.64.8,3.22,1.73,4,2.19l.79.47"/><path class="cls-61" d="M73.33,103l.72.59c.72.6,2.16,1.79,3.51,3.09a35.67,35.67,0,0,1,6.71,8.9,36.49,36.49,0,0,1,2.23,5.13,8.64,8.64,0,0,0,3.76,5.37c2.68,1.8,7.59,3.58,7.62,5.44s-4.81,3.82-7.43,5.71a8.69,8.69,0,0,0-3.57,5.5,35.1,35.1,0,0,1-2,5.2A35.74,35.74,0,0,1,78.44,157a35.68,35.68,0,0,1-14,8.94,35.76,35.76,0,0,1-11,1.94,36,36,0,0,1-5.59-.34,36.74,36.74,0,0,1-5.46-1.21,35.67,35.67,0,0,1-10-4.89,36,36,0,0,1-8-7.75,35.62,35.62,0,0,1-5.23-9.84,35,35,0,0,1-1.4-5.41,37.12,37.12,0,0,1-.54-5.57,36,36,0,0,1,.35-5.58,35.66,35.66,0,0,1,13.84-23.5,35.72,35.72,0,0,1,4.71-3,35.8,35.8,0,0,1,16.11-4.17,35.6,35.6,0,0,1,11,1.55,35.33,35.33,0,0,1,5.2,2c1.68.82,3.29,1.77,4.1,2.24l.81.48"/><path class="cls-62" d="M73.42,102.84l.72.6c.73.6,2.18,1.79,3.53,3.09a37.21,37.21,0,0,1,3.72,4.21,34.48,34.48,0,0,1,3,4.74,35.17,35.17,0,0,1,2.24,5.15A8.28,8.28,0,0,0,90.71,126c3,1.8,8.5,3.57,8.53,5.45s-5.41,3.84-8.33,5.74A8.29,8.29,0,0,0,87,142.74,36.18,36.18,0,0,1,85,148a35.73,35.73,0,0,1-6.42,9.17,34.58,34.58,0,0,1-4.21,3.72,35.42,35.42,0,0,1-4.73,3,36.13,36.13,0,0,1-5.15,2.24A36.85,36.85,0,0,1,59,167.53a36.22,36.22,0,0,1-5.59.53,35.08,35.08,0,0,1-5.61-.34,35.76,35.76,0,0,1-15.55-6.12A37,37,0,0,1,27.94,158a36.25,36.25,0,0,1-3.72-4.21A35.82,35.82,0,0,1,19,143.93a35.91,35.91,0,0,1-1.6-16.63,35.66,35.66,0,0,1,1.22-5.49,34.91,34.91,0,0,1,2.05-5.22,37.9,37.9,0,0,1,2.85-4.84,36.26,36.26,0,0,1,3.58-4.33,35.25,35.25,0,0,1,4.2-3.72A35.87,35.87,0,0,1,46.59,97a37.26,37.26,0,0,1,5.59-.54,36.16,36.16,0,0,1,5.6.35,35.38,35.38,0,0,1,5.49,1.21,36.06,36.06,0,0,1,5.22,2.06c1.69.82,3.31,1.78,4.12,2.25l.81.48"/><path class="cls-63" d="M74.38,101.46l.76.63c.76.63,2.28,1.88,3.69,3.24a37.65,37.65,0,0,1,9.4,14.75,38.65,38.65,0,0,1,1.47,5.69,37.59,37.59,0,0,1-1.07,17.46,37.87,37.87,0,0,1-2.15,5.47,36.85,36.85,0,0,1-3,5.07,37.64,37.64,0,0,1-3.74,4.53,37.06,37.06,0,0,1-4.4,3.9A37.32,37.32,0,0,1,65,167.7a37.14,37.14,0,0,1-5.69,1.47,37.16,37.16,0,0,1-11.72.21,39,39,0,0,1-5.74-1.27,37.32,37.32,0,0,1-22.12-18.24,36.79,36.79,0,0,1-2.35-5.39,37.3,37.3,0,0,1-.4-23.15A37.46,37.46,0,0,1,35.22,99.2a37.35,37.35,0,0,1,5.39-2.34A14,14,0,0,0,46.27,94c1.91-1.74,3.82-4.74,5.78-4.78s4,2.9,5.94,4.58a14.15,14.15,0,0,0,5.77,2.67,38.85,38.85,0,0,1,5.47,2.16c1.76.86,3.45,1.86,4.3,2.36l.85.49"/><path class="cls-64" d="M83.07,89.05l1.07.88c1.06.88,3.19,2.63,5.17,4.55a51.59,51.59,0,0,1,5.46,6.17,53.26,53.26,0,0,1,4.44,7,52.62,52.62,0,0,1,5.64,32,53.81,53.81,0,0,1-1.79,8,52.4,52.4,0,0,1-18.63,26.61,52.06,52.06,0,0,1-7,4.43A53.46,53.46,0,0,1,69.91,182a51.22,51.22,0,0,0-8,3c-2.7,1.45-5.41,3.65-8.16,3.7s-5.54-2.06-8.28-3.41a50.34,50.34,0,0,0-8.07-2.75,52.7,52.7,0,0,1-7.67-3,51.14,51.14,0,0,1-7.11-4.18A52.61,52.61,0,0,1,3.11,149.39a53.73,53.73,0,0,1-2.06-8A52.71,52.71,0,0,1,.76,125a52.75,52.75,0,0,1,4.81-15.73A52.51,52.51,0,0,1,15,95.77a52.85,52.85,0,0,1,13.13-9.89,52.61,52.61,0,0,1,15.55-5.36,53.7,53.7,0,0,1,8.21-.79A53,53,0,0,1,68.17,82a53.81,53.81,0,0,1,7.67,3c2.47,1.21,4.85,2.61,6,3.31l1.19.7"/></g></g></svg>