<svg xmlns="http://www.w3.org/2000/svg" viewBox="0 0 767.04 159.49"><defs><style>.cls-1,.cls-10,.cls-11,.cls-12,.cls-13,.cls-14,.cls-15,.cls-16,.cls-17,.cls-18,.cls-19,.cls-2,.cls-20,.cls-21,.cls-22,.cls-23,.cls-24,.cls-25,.cls-26,.cls-27,.cls-28,.cls-29,.cls-3,.cls-30,.cls-31,.cls-32,.cls-33,.cls-34,.cls-35,.cls-36,.cls-37,.cls-38,.cls-39,.cls-4,.cls-40,.cls-41,.cls-42,.cls-43,.cls-44,.cls-45,.cls-46,.cls-47,.cls-48,.cls-49,.cls-5,.cls-50,.cls-51,.cls-52,.cls-53,.cls-54,.cls-55,.cls-56,.cls-57,.cls-58,.cls-59,.cls-6,.cls-60,.cls-61,.cls-62,.cls-63,.cls-64,.cls-7,.cls-8,.cls-9{isolation:isolate;}.cls-10,.cls-11,.cls-12,.cls-13,.cls-14,.cls-15,.cls-16,.cls-17,.cls-18,.cls-19,.cls-2,.cls-20,.cls-21,.cls-22,.cls-23,.cls-24,.cls-25,.cls-26,.cls-27,.cls-28,.cls-29,.cls-3,.cls-30,.cls-31,.cls-32,.cls-33,.cls-34,.cls-35,.cls-36,.cls-37,.cls-38,.cls-39,.cls-4,.cls-40,.cls-41,.cls-42,.cls-43,.cls-44,.cls-45,.cls-46,.cls-47,.cls-48,.cls-49,.cls-5,.cls-50,.cls-51,.cls-52,.cls-53,.cls-54,.cls-55,.cls-56,.cls-57,.cls-58,.cls-59,.cls-6,.cls-60,.cls-61,.cls-62,.cls-63,.cls-64,.cls-7,.cls-8,.cls-9{fill:none;stroke:#000;opacity:0.7;}.cls-2{stroke-width:0.78px;}.cls-3{stroke-width:0.34px;}.cls-4{stroke-width:0.32px;}.cls-5{stroke-width:0.31px;}.cls-6{stroke-width:0.49px;}.cls-7{stroke-width:0.5px;}.cls-8{stroke-width:1.58px;}.cls-9{stroke-width:1.59px;}.cls-10{stroke-width:0.25px;}.cls-11{stroke-width:0.27px;}.cls-12{stroke-width:0.31px;}.cls-13{stroke-width:0.09px;}.cls-14{stroke-width:1.61px;}.cls-15{stroke-width:0.5px;}.cls-16{stroke-width:0.56px;}.cls-17{stroke-width:0.38px;}.cls-18{stroke-width:0.54px;}.cls-19{stroke-width:0.35px;}.cls-20{stroke-width:0.79px;}.cls-21{stroke-width:0.56px;}.cls-22{stroke-width:0.34px;}.cls-23{stroke-width:1.11px;}.cls-24{stroke-width:0.13px;}.cls-25{stroke-width:0.76px;}.cls-26{stroke-width:1.13px;}.cls-27{stroke-width:0.63px;}.cls-28{stroke-width:0.66px;}.cls-29{stroke-width:0.7px;}.cls-30{stroke-width:0.35px;}.cls-31{stroke-width:0.16px;}.cls-32{stroke-width:0.72px;}.cls-33{stroke-width:0.11px;}.cls-34{stroke-width:0.75px;}.cls-35{stroke-width:0.51px;}.cls-36{stroke-width:0.98px;}.cls-37{stroke-width:0.12px;}.cls-38{stroke-width:0.2px;}.cls-39{stroke-width:0.9px;}.cls-40{stroke-width:0.7px;}.cls-41{stroke-width:0.5px;}.cls-42{stroke-width:0.27px;}.cls-43{stroke-width:1.2px;}.cls-44{stroke-width:0.99px;}.cls-45{stroke-width:0.09px;}.cls-46{stroke-width:0.17px;}.cls-47{stroke-width:0.19px;}.cls-48{stroke-width:1.64px;}.cls-49{stroke-width:1.62px;}.cls-50{stroke-width:0.95px;}.cls-51{stroke-width:0.95px;}.cls-52{stroke-width:0.74px;}.cls-53{stroke-width:0.56px;}.cls-54{stroke-width:0.26px;}.cls-55{stroke-width:1.15px;}.cls-56{stroke-width:0.73px;}.cls-57{stroke-width:0.35px;}.cls-58{stroke-width:1.07px;}.cls-59{stroke-width:0.93px;}.cls-60{stroke-width:0.38px;}.cls-61{stroke-width:0.38px;}.cls-62{stroke-width:0.51px;}.cls-63{stroke-width:0.15px;}.cls-64{stroke-width:0.5px;}</style></defs><title>Asset 13artifact-body-radials</title><g id="Layer_2" data-name="Layer 2"><g id="Layer_1-2" data-name="Layer 1"><g id="Head" class="cls-1"><g class="cls-1"><path d="M7.45,3.76v6.88l.06.06h1v.57H5.41V10.7h1l.07-.06V7.18H2.1v3.46l.06.06h1v.57H.06V10.7H1l.06-.06V3.76L0,3.13V3H3.25v.13L2.1,3.76V6.6H6.43V3.76L5.28,3.13V3H8.53v.13Z"/><path d="M14,8.44H10.46c0,1.66.88,2.27,2,2.27a2.88,2.88,0,0,0,1.31-.31l.14.26a3,3,0,0,1-2,.74A2.44,2.44,0,0,1,9.48,8.78,2.67,2.67,0,0,1,12,5.91,1.9,1.9,0,0,1,14,8C14,8.14,14,8.28,14,8.44ZM10.49,8H13c0-1.06-.42-1.54-1.11-1.54S10.62,6.83,10.49,8Z"/><path d="M19.56,10.7v.57H17.85v-.52a3,3,0,0,1-1.68.65,1.19,1.19,0,0,1-1.28-1.22c0-1.17,1.24-1.6,3-1.68V8.1c0-1-.23-1.49-1.16-1.49a2.6,2.6,0,0,0-1.48.49L15,6.79a2.72,2.72,0,0,1,2-.86,1.56,1.56,0,0,1,1.71,1.66v3.05l.06.06Zm-1.71-.18V8.91C16.76,9,15.8,9.16,15.8,10c0,.5.34.73.82.73A3.88,3.88,0,0,0,17.85,10.52Z"/><path d="M26.2,10.7v.57H24.41v-.61a4,4,0,0,1-2,.74c-1.26,0-2-1.27-2-2.58a2.65,2.65,0,0,1,2.65-2.89,3,3,0,0,1,1.32.27V3.38L23.56,3V2.91l1.67-.8.07,0v8.49l.07.06Zm-1.79-.24V7.23A1.52,1.52,0,0,0,23,6.44c-1.12,0-1.54.81-1.54,2.1s.45,2.11,1.56,2.11A5.76,5.76,0,0,0,24.41,10.46Z"/></g></g><g id="Arms" class="cls-1"><g class="cls-1"><path d="M129.68,10.7v.57h-2.56V10.7h.61l.06-.06L127,8.37h-2.79l-.81,2.27.06.06h.94v.57h-2.65V10.7h.88l.07-.06,2.89-7.7h.48l2.79,7.7.06.06Zm-2.85-2.9-1.16-3.39h0L124.43,7.8Z"/><path d="M134.13,6V7a3.08,3.08,0,0,0-.65-.07,6.36,6.36,0,0,0-1.33.18v3.58l.06.06h1v.57h-2.74V10.7h.76l.07-.06V7.18l-.86-.41V6.7l1.54-.79L132,6l.13.87a3.94,3.94,0,0,1,1.66-.89A.58.58,0,0,1,134.13,6Z"/><path d="M143.85,10.7v.57H141.3V10.7h.76l.07-.06V8.22c0-1.1-.22-1.48-1.11-1.48a6.11,6.11,0,0,0-1.39.19v0a2.05,2.05,0,0,1,0,.51v3.22l.06.06h.77v.57H138V10.7h.77l.06-.06V8.22c0-1.1-.22-1.48-1.11-1.48a6.42,6.42,0,0,0-1.35.18v3.72l.07.06h.76v.57H134.6V10.7h.77l.06-.06V7.19l-.85-.41V6.72l1.54-.79.07,0,.11.72a3.54,3.54,0,0,1,1.78-.76,1.4,1.4,0,0,1,1.49.81,3.71,3.71,0,0,1,1.86-.81c1.1,0,1.59.53,1.59,1.49v3.22l.06.06Z"/><path d="M144.77,11.1V9.76h.07l.63.7a1.46,1.46,0,0,0,1,.46c.52,0,.88-.27.88-.73,0-.63-.61-.84-1.27-1.19s-1.25-.87-1.25-1.61.69-1.46,1.81-1.46a3.86,3.86,0,0,1,1.35.24v1.3h-.07l-.66-.74a1.19,1.19,0,0,0-.84-.33.73.73,0,0,0-.83.71c0,.6.6.88,1.2,1.2s1.35.72,1.35,1.6a1.58,1.58,0,0,1-1.76,1.49A4.78,4.78,0,0,1,144.77,11.1Z"/></g></g><g id="Hands" class="cls-1"><g class="cls-1"><path d="M278.22,3.76v6.88l.06.06h1v.57h-3.06V10.7h1l.06-.06V7.18h-4.33v3.46l.07.06h.95v.57h-3.05V10.7h1l.06-.06V3.76l-1.08-.63V3H274v.13l-1.15.63V6.6h4.33V3.76l-1.15-.63V3h3.25v.13Z"/><path d="M285.12,10.7v.57H283.4v-.52a3,3,0,0,1-1.68.65,1.19,1.19,0,0,1-1.27-1.22c0-1.17,1.23-1.6,2.95-1.68V8.1c0-1-.23-1.49-1.16-1.49a2.6,2.6,0,0,0-1.48.49l-.16-.31a2.68,2.68,0,0,1,2-.86,1.55,1.55,0,0,1,1.71,1.66v3.05l.06.06Zm-1.72-.18V8.91c-1.08.07-2,.25-2,1.1,0,.5.34.73.83.73A3.87,3.87,0,0,0,283.4,10.52Z"/><path d="M291.94,10.7v.57h-2.61V10.7h.83l.06-.06V8.22c0-1.1-.23-1.48-1.17-1.48a6.89,6.89,0,0,0-1.41.18v3.72l.06.06h.83v.57h-2.61V10.7h.76l.07-.06V7.18l-.86-.41V6.7l1.54-.79.08,0,.1.73a3.76,3.76,0,0,1,1.85-.75c1.14,0,1.65.53,1.65,1.49v3.22l.07.06Z"/><path d="M298.57,10.7v.57h-1.78v-.61a4,4,0,0,1-2,.74c-1.26,0-2-1.27-2-2.58a2.65,2.65,0,0,1,2.65-2.89,3,3,0,0,1,1.32.27V3.38L295.94,3V2.91l1.66-.8.08,0v8.49l.06.06Zm-1.78-.24V7.23a1.53,1.53,0,0,0-1.45-.79c-1.12,0-1.54.81-1.54,2.1s.44,2.11,1.55,2.11A5.78,5.78,0,0,0,296.79,10.46Z"/><path d="M299.51,11.1V9.76h.07l.63.7a1.46,1.46,0,0,0,1,.46c.52,0,.88-.27.88-.73,0-.63-.61-.84-1.27-1.19s-1.25-.87-1.25-1.61.69-1.46,1.81-1.46a3.86,3.86,0,0,1,1.35.24v1.3h-.07L302,6.73a1.19,1.19,0,0,0-.84-.33.73.73,0,0,0-.83.71c0,.6.6.88,1.2,1.2s1.35.72,1.35,1.6a1.58,1.58,0,0,1-1.76,1.49A4.78,4.78,0,0,1,299.51,11.1Z"/></g></g><g id="Torso" class="cls-1"><g class="cls-1"><path d="M411.06,7.7h1l.06-.06V.57h-2l-.91,1.59h-.06V0h7V2.16H416L415.14.57h-2V7.64l.06.06h1v.57h-3.06Z"/><path d="M416.17,5.77a2.66,2.66,0,0,1,2.68-2.84,2.45,2.45,0,0,1,2.54,2.63,2.68,2.68,0,0,1-2.66,2.84A2.45,2.45,0,0,1,416.17,5.77Zm4.22.11c0-1.4-.75-2.44-1.74-2.44-.84,0-1.5.62-1.5,2s.71,2.45,1.74,2.45S420.39,7.24,420.39,5.88Z"/><path d="M426,3V4a3.08,3.08,0,0,0-.65-.07,6.36,6.36,0,0,0-1.33.18V7.64l.06.06h1v.57h-2.74V7.7h.76l.07-.06V4.18l-.86-.41V3.7l1.54-.79.08,0,.13.87a3.94,3.94,0,0,1,1.66-.89A.58.58,0,0,1,426,3Z"/><path d="M426.69,8.1V6.76h.07l.63.7a1.46,1.46,0,0,0,1,.46c.53,0,.88-.27.88-.73,0-.63-.61-.84-1.27-1.19s-1.25-.87-1.25-1.61.69-1.46,1.81-1.46a3.86,3.86,0,0,1,1.35.24v1.3h-.07l-.66-.74a1.19,1.19,0,0,0-.84-.33.73.73,0,0,0-.83.71c0,.6.6.88,1.2,1.2s1.35.72,1.35,1.6a1.58,1.58,0,0,1-1.76,1.49A4.78,4.78,0,0,1,426.69,8.1Z"/><path d="M431.11,5.77a2.66,2.66,0,0,1,2.69-2.84,2.44,2.44,0,0,1,2.53,2.63,2.68,2.68,0,0,1-2.66,2.84A2.45,2.45,0,0,1,431.11,5.77Zm4.23.11c0-1.4-.75-2.44-1.75-2.44-.84,0-1.5.62-1.5,2s.71,2.45,1.75,2.45C434.71,7.89,435.34,7.24,435.34,5.88Z"/></g></g><g id="Legs" class="cls-1"><g class="cls-1"><path d="M545.81,10.7h1l.06-.06V3.76l-1.08-.63V3H549v.13l-1.14.63V10.7h2.8l.8-1.53h.13v2.1h-5.77Z"/><path d="M557.15,8.44h-3.51c0,1.66.88,2.27,2,2.27A2.82,2.82,0,0,0,557,10.4l.14.26a2.92,2.92,0,0,1-2,.74,2.44,2.44,0,0,1-2.48-2.62,2.67,2.67,0,0,1,2.51-2.87,1.91,1.91,0,0,1,2,2.09C557.18,8.14,557.16,8.28,557.15,8.44ZM553.66,8h2.52c0-1.06-.42-1.54-1.1-1.54S553.79,6.83,553.66,8Z"/><path d="M563.33,6.93l-1.21-.11A2.11,2.11,0,0,1,560.18,10a2.17,2.17,0,0,1-.84-.16,1.17,1.17,0,0,0-.27.65c0,.36.23.52,1.38.52h.33c1.49,0,2.09.37,2.09,1.15,0,1.46-1.62,2.06-3.06,2.06-1.1,0-1.88-.34-1.88-1.09,0-.6.48-.93.89-1.3a.75.75,0,0,1-.62-.78c0-.51.49-1,.92-1.31a1.77,1.77,0,0,1-.91-1.62,2.1,2.1,0,0,1,2.19-2.17,2,2,0,0,1,1.45.54l1.48-.61Zm-4.23,4.93a1.8,1.8,0,0,0-.29.94c0,.68.46,1,1.17,1,.88,0,2.07-.45,2.07-1.23,0-.43-.37-.62-1.17-.62h-.94A5.27,5.27,0,0,1,559.1,11.86Zm2.35-3.73c0-1.13-.49-1.78-1.15-1.78s-1.14.47-1.14,1.47.44,1.72,1.15,1.72S561.45,9.12,561.45,8.13Z"/><path d="M564,11.1V9.76h.07l.63.7a1.46,1.46,0,0,0,1,.46c.52,0,.88-.27.88-.73,0-.63-.61-.84-1.27-1.19s-1.25-.87-1.25-1.61.69-1.46,1.81-1.46a3.86,3.86,0,0,1,1.35.24v1.3h-.07l-.66-.74a1.19,1.19,0,0,0-.84-.33.73.73,0,0,0-.83.71c0,.6.6.88,1.2,1.2s1.35.72,1.35,1.6a1.58,1.58,0,0,1-1.76,1.49A4.78,4.78,0,0,1,564,11.1Z"/></g></g><g id="Feet" class="cls-1"><g class="cls-1"><path d="M707,3V5.1h-.06L706,3.57H703.3V6.86h2.16l.06-.07v-1h.58V8.45h-.58v-1l-.06-.06H703.3v3.19l.08.08h1.21v.57h-3.33V10.7h1l.07-.06V3.76l-1.08-.63V3Z"/><path d="M711.91,8.44H708.4c0,1.66.88,2.27,2,2.27a2.82,2.82,0,0,0,1.31-.31l.14.26a2.92,2.92,0,0,1-2,.74,2.44,2.44,0,0,1-2.48-2.62,2.67,2.67,0,0,1,2.51-2.87,1.91,1.91,0,0,1,2,2.09A3.49,3.49,0,0,1,711.91,8.44ZM708.42,8H711c0-1.06-.42-1.54-1.11-1.54S708.55,6.83,708.42,8Z"/><path d="M717.39,8.44h-3.52c0,1.66.88,2.27,2,2.27a2.88,2.88,0,0,0,1.31-.31l.14.26a3,3,0,0,1-2,.74,2.44,2.44,0,0,1-2.48-2.62,2.67,2.67,0,0,1,2.51-2.87,1.9,1.9,0,0,1,2,2.09C717.41,8.14,717.4,8.28,717.39,8.44ZM713.9,8h2.52c0-1.06-.42-1.54-1.11-1.54S714,6.83,713.9,8Z"/><path d="M718.89,9.78v-3l-.07-.07h-.76V6.64l1.66-2.18h.06V6.13h1.72V6.7h-1.72V9.08c0,1.29.19,1.72.93,1.72a2.47,2.47,0,0,0,.84-.14l.14.27a2.79,2.79,0,0,1-1.47.47C719.32,11.4,718.89,11,718.89,9.78Z"/></g></g><path class="cls-2" d="M705.71,100.85l.14-.17c.14-.17.42-.51.72-.83a10.27,10.27,0,0,1,1-.87,8,8,0,0,1,1.11-.7,8.57,8.57,0,0,1,1.2-.53,9.11,9.11,0,0,1,1.27-.33,9.52,9.52,0,0,1,1.31-.12,8.5,8.5,0,0,1,2.59.36,8.59,8.59,0,0,1,1.22.48,8.41,8.41,0,0,1,1.13.67,8.13,8.13,0,0,1,1,.84,9.08,9.08,0,0,1,.87,1,8,8,0,0,1,.7,1.11,8.57,8.57,0,0,1,.53,1.2,9.11,9.11,0,0,1,.33,1.27,9.52,9.52,0,0,1,.12,1.31,8.5,8.5,0,0,1-.36,2.59,8.59,8.59,0,0,1-.48,1.22,8.41,8.41,0,0,1-.67,1.13,8.13,8.13,0,0,1-.84,1,9.08,9.08,0,0,1-1,.87,8,8,0,0,1-1.11.7,8.57,8.57,0,0,1-1.2.53c-.42.14-.84.25-1.21,4s-.68,11.12-1.11,11.13-1-7.35-1.51-11.08-.92-3.82-1.34-4a8.59,8.59,0,0,1-1.22-.48,9.21,9.21,0,0,1-1.14-.67,8.82,8.82,0,0,1-1-.84,8.12,8.12,0,0,1-.87-1,8,8,0,0,1-.7-1.11,7.55,7.55,0,0,1-.53-1.2,9.11,9.11,0,0,1-.33-1.27,8.55,8.55,0,0,1,.24-3.9,8.59,8.59,0,0,1,.48-1.22c.19-.4.42-.78.53-1l.11-.18"/><path class="cls-3" d="M703.62,99.38l.18-.22c.18-.22.55-.66,1-1.07A10.74,10.74,0,0,1,706,97a10.71,10.71,0,0,1,3-1.6,10.73,10.73,0,0,1,3.36-.59,10.76,10.76,0,0,1,1.71.1,10.35,10.35,0,0,1,1.67.37,11.55,11.55,0,0,1,1.6.63,10.92,10.92,0,0,1,1.47.87,10.61,10.61,0,0,1,1.32,1.09,10.74,10.74,0,0,1,1.14,1.28,12.1,12.1,0,0,1,.92,1.44,11.45,11.45,0,0,1,.68,1.57c.19.54.33,1.1,2,1.63s4.92,1.05,4.93,1.62-3.2,1.2-4.87,1.8-1.8,1.15-2,1.69a11.55,11.55,0,0,1-.63,1.6,10.92,10.92,0,0,1-.87,1.47,10.61,10.61,0,0,1-1.09,1.32,10.74,10.74,0,0,1-1.28,1.14,12.1,12.1,0,0,1-1.44.92,11.45,11.45,0,0,1-1.57.68,10.66,10.66,0,0,1-1.66.43,11,11,0,0,1-5.09-.31,11.94,11.94,0,0,1-1.59-.63,10.33,10.33,0,0,1-1.47-.87,10.61,10.61,0,0,1-1.32-1.09,9.23,9.23,0,0,1-1.14-1.28,12.1,12.1,0,0,1-.92-1.44,10.34,10.34,0,0,1-.68-1.57,10.73,10.73,0,0,1-.59-3.36,10.76,10.76,0,0,1,.1-1.71,10.35,10.35,0,0,1,.37-1.67,11.55,11.55,0,0,1,.63-1.6c.25-.51.54-1,.69-1.25l.14-.25"/><path class="cls-4" d="M703.21,99.09l.19-.23c.19-.23.57-.69,1-1.12a11.73,11.73,0,0,1,1.35-1.19,10.72,10.72,0,0,1,1.51-1,11.47,11.47,0,0,1,1.64-.72c.56-.19,1.14-.34,1.71-2s1.1-4.66,1.7-4.67,1.25,3,1.87,4.61,1.2,1.72,1.77,1.89a11.36,11.36,0,0,1,1.67.66,10.92,10.92,0,0,1,1.54.91,10.71,10.71,0,0,1,1.38,1.14,10.85,10.85,0,0,1,1.19,1.34,10.72,10.72,0,0,1,1,1.51,11.47,11.47,0,0,1,.72,1.64,11.24,11.24,0,0,1,.44,1.73,10.75,10.75,0,0,1,.18,1.79,11.82,11.82,0,0,1-.11,1.78,11.43,11.43,0,0,1-1,3.42,10.38,10.38,0,0,1-.91,1.54,10.71,10.71,0,0,1-1.14,1.38,10.85,10.85,0,0,1-1.34,1.19,10.72,10.72,0,0,1-1.51,1,12,12,0,0,1-1.64.72,11.54,11.54,0,0,1-1.73.44,10.75,10.75,0,0,1-1.79.18A11.82,11.82,0,0,1,711,117a12.68,12.68,0,0,1-1.75-.39,11.36,11.36,0,0,1-1.67-.66,10.38,10.38,0,0,1-1.54-.91,10.71,10.71,0,0,1-1.38-1.14,10.85,10.85,0,0,1-1.19-1.34,10.72,10.72,0,0,1-1-1.51,11.47,11.47,0,0,1-.72-1.64,12.55,12.55,0,0,1-.45-1.73,11.46,11.46,0,0,1-.06-3.57,12.68,12.68,0,0,1,.39-1.75,10.35,10.35,0,0,1,.66-1.67c.26-.54.56-1,.71-1.31l.16-.26"/><path class="cls-5" d="M702,98.27l.22-.26c.21-.26.64-.78,1.11-1.27a12,12,0,0,1,1.51-1.33,11.11,11.11,0,0,1,1.7-1.08,12.54,12.54,0,0,1,1.84-.81c.64-.22,1.29-.38,1.93-2s1.25-4.63,1.93-4.64,1.39,3,2.09,4.57,1.35,1.72,2,1.91a13.72,13.72,0,0,1,1.87.74,12.64,12.64,0,0,1,1.74,1,11.84,11.84,0,0,1,1.55,1.28,11.3,11.3,0,0,1,1.34,1.51,11.93,11.93,0,0,1,1.08,1.7,12.54,12.54,0,0,1,.81,1.84,14.43,14.43,0,0,1,.5,2,13,13,0,0,1,.07,4,12,12,0,0,1-.44,2,12.49,12.49,0,0,1-.73,1.87,12.73,12.73,0,0,1-3.82,4.63,11.11,11.11,0,0,1-1.7,1.08,12.54,12.54,0,0,1-1.84.81,13.09,13.09,0,0,1-2,.5,13,13,0,0,1-4,.07,13,13,0,0,1-2-.43,13.72,13.72,0,0,1-1.87-.74,13.25,13.25,0,0,1-3.3-2.31,12,12,0,0,1-1.33-1.51,11.11,11.11,0,0,1-1.08-1.7,12.54,12.54,0,0,1-.81-1.84,12,12,0,0,1-.5-2,13.42,13.42,0,0,1-.2-2,12.27,12.27,0,0,1,.13-2,13,13,0,0,1,.43-2,13.72,13.72,0,0,1,.74-1.87c.3-.61.64-1.19.81-1.48l.17-.29"/><path class="cls-6" d="M700.58,97.25l.24-.3c.24-.29.73-.88,1.26-1.43A14.5,14.5,0,0,1,703.8,94a15.07,15.07,0,0,1,1.93-1.24,14.59,14.59,0,0,1,2.11-.91,13.9,13.9,0,0,1,2.22-.57,13.34,13.34,0,0,1,2.28-.22,13.55,13.55,0,0,1,2.29.14,14.45,14.45,0,0,1,2.24.49,16.25,16.25,0,0,1,2.13.84,14.4,14.4,0,0,1,2,1.17,13.65,13.65,0,0,1,1.77,1.45,15.46,15.46,0,0,1,1.52,1.72,14.51,14.51,0,0,1,1.24,1.94,15.12,15.12,0,0,1,.91,2.1c.25.72.44,1.46,2.91,2.18s7.2,1.39,7.21,2.16-4.7,1.61-7.13,2.41-2.61,1.55-2.83,2.28a16.25,16.25,0,0,1-.84,2.13,15.14,15.14,0,0,1-1.17,2,14.35,14.35,0,0,1-1.46,1.76,13.67,13.67,0,0,1-1.71,1.52,14.38,14.38,0,0,1-4,2.15,14.18,14.18,0,0,1-2.22.57,14.59,14.59,0,0,1-4.57.08,14.2,14.2,0,0,1-2.24-.49,16.25,16.25,0,0,1-2.13-.84,15.14,15.14,0,0,1-2-1.17,14.36,14.36,0,0,1-1.77-1.45,15.36,15.36,0,0,1-1.51-1.72,13.58,13.58,0,0,1-1.24-1.94,14,14,0,0,1-.91-2.1,15.08,15.08,0,0,1-.58-2.22,14.54,14.54,0,0,1-.21-2.28,13.55,13.55,0,0,1,.14-2.29,14.2,14.2,0,0,1,.49-2.24,16.25,16.25,0,0,1,.84-2.13c.34-.69.73-1.35.92-1.68l.2-.33"/><path class="cls-7" d="M700.51,97.2l.24-.3c.25-.3.74-.89,1.27-1.44a14.68,14.68,0,0,1,1.73-1.53,14.16,14.16,0,0,1,1.94-1.24,14.76,14.76,0,0,1,2.12-.92,15.54,15.54,0,0,1,2.23-.58,14.79,14.79,0,0,1,4.6-.08,15.57,15.57,0,0,1,2.25.5,14.79,14.79,0,0,1,2.15.85,13.2,13.2,0,0,1,2,1.17,14.59,14.59,0,0,1,4.55,5.14,14.17,14.17,0,0,1,.92,2.11,15.89,15.89,0,0,1,.58,2.23,14.79,14.79,0,0,1,.08,4.6,15.57,15.57,0,0,1-.5,2.25,14.79,14.79,0,0,1-.85,2.15,15,15,0,0,1-2.63,3.76,14.68,14.68,0,0,1-1.73,1.53,14.26,14.26,0,0,1-2,1.24,14.64,14.64,0,0,1-2.11.92,15.89,15.89,0,0,1-2.23.58,14.79,14.79,0,0,1-4.6.08,15.57,15.57,0,0,1-2.25-.5,14.79,14.79,0,0,1-2.15-.85,13.3,13.3,0,0,1-2-1.17,14.68,14.68,0,0,1-3.3-3.19,13.68,13.68,0,0,1-1.24-2,14.17,14.17,0,0,1-.92-2.11c-.25-.73-.45-1.48-2.94-2.19s-7.28-1.4-7.29-2.17,4.75-1.63,7.21-2.43,2.63-1.56,2.86-2.29a13.73,13.73,0,0,1,.85-2.15c.33-.69.72-1.35.92-1.69l.2-.33"/><path class="cls-8" d="M694,92.66l.38-.46c.37-.46,1.13-1.37,2-2.22a22.75,22.75,0,0,1,8.89-5.67c1.12-.38,2.27-.68,3.37-4.47s2.16-11.07,3.34-11.09,2.49,7.22,3.72,11,2.4,4,3.53,4.35a21.64,21.64,0,0,1,3.29,1.3,22.31,22.31,0,0,1,3.06,1.8,21.76,21.76,0,0,1,2.73,2.25,22.41,22.41,0,0,1,6.55,12.32,22.09,22.09,0,0,1,.34,3.53,23.29,23.29,0,0,1-.21,3.54,22.75,22.75,0,0,1-.77,3.46,21.64,21.64,0,0,1-1.3,3.29,22.31,22.31,0,0,1-1.8,3.06,21.76,21.76,0,0,1-2.25,2.73,22.25,22.25,0,0,1-5.64,4.25A23.35,23.35,0,0,1,720,127a24,24,0,0,1-3.43.89,23.29,23.29,0,0,1-3.53.33,22.07,22.07,0,0,1-3.54-.21,22.75,22.75,0,0,1-3.46-.77,22.17,22.17,0,0,1-3.3-1.3,22.81,22.81,0,0,1-3.05-1.8,21.76,21.76,0,0,1-2.73-2.25,22.72,22.72,0,0,1-2.35-2.65,22.64,22.64,0,0,1-4.21-9.67,22.46,22.46,0,0,1-.12-7.07,22.75,22.75,0,0,1,.77-3.46,21.64,21.64,0,0,1,1.3-3.29c.51-1.07,1.12-2.09,1.42-2.6l.3-.51"/><path class="cls-9" d="M693.88,92.56l.38-.46c.38-.46,1.14-1.38,2-2.24a23.08,23.08,0,0,1,2.67-2.37,23.54,23.54,0,0,1,3-1.91,22.76,22.76,0,0,1,3.28-1.43A6.11,6.11,0,0,0,708.62,82c1.15-1.48,2.3-4.14,3.49-4.16s2.43,2.6,3.63,4a6.15,6.15,0,0,0,3.51,2,22,22,0,0,1,3.32,1.31A21.5,21.5,0,0,1,725.64,87a22.2,22.2,0,0,1,2.76,2.27A23.08,23.08,0,0,1,730.77,92a23.54,23.54,0,0,1,1.91,3,23.25,23.25,0,0,1,1.43,3.28,23.93,23.93,0,0,1,.89,3.45,22.46,22.46,0,0,1,.34,3.56,23.55,23.55,0,0,1-.21,3.56,23.15,23.15,0,0,1-.78,3.49,23,23,0,0,1-3.12,6.4,23.07,23.07,0,0,1-4.94,5.12,23.54,23.54,0,0,1-3,1.91,23.25,23.25,0,0,1-3.28,1.43,22.69,22.69,0,0,1-3.45.89,22.46,22.46,0,0,1-3.56.34,23.55,23.55,0,0,1-3.56-.21,23.15,23.15,0,0,1-3.49-.78,23,23,0,0,1-6.4-3.12,23.07,23.07,0,0,1-5.12-4.94,22.49,22.49,0,0,1-1.91-3,23.25,23.25,0,0,1-1.43-3.28,21.58,21.58,0,0,1-.89-3.45,23.19,23.19,0,0,1-.13-7.12,23.15,23.15,0,0,1,.78-3.49,22,22,0,0,1,1.3-3.32c.53-1.07,1.13-2.1,1.44-2.61l.3-.52"/><path class="cls-10" d="M693.66,92.41l.38-.47c.39-.47,1.16-1.4,2-2.27a23.64,23.64,0,0,1,2.71-2.39,21.55,21.55,0,0,1,3-1.94A23.19,23.19,0,0,1,708.6,83a23.17,23.17,0,0,1,10.73.66A23,23,0,0,1,722.69,85a22.69,22.69,0,0,1,3.11,1.84,22.49,22.49,0,0,1,5.18,5,21.55,21.55,0,0,1,1.94,3,22.09,22.09,0,0,1,1.44,3.31,23.37,23.37,0,0,1,.91,3.5,23.28,23.28,0,0,1,.12,7.2,23.94,23.94,0,0,1-.78,3.53,23,23,0,0,1-1.32,3.36,22.86,22.86,0,0,1-6.84,8.29A21.55,21.55,0,0,1,723.4,126a22.09,22.09,0,0,1-3.31,1.44,21.37,21.37,0,0,0-3.49,1.35c-1.18.65-2.37,1.65-3.57,1.67s-2.43-.94-3.63-1.55a21,21,0,0,0-3.54-1.22,23,23,0,0,1-3.36-1.32,22.69,22.69,0,0,1-3.11-1.84,23.59,23.59,0,0,1-2.79-2.29,22.72,22.72,0,0,1-2.39-2.71,21.55,21.55,0,0,1-1.94-3,23.19,23.19,0,0,1-2.35-6.81,22.73,22.73,0,0,1-.34-3.59,21.75,21.75,0,0,1,.22-3.61,22.73,22.73,0,0,1,.78-3.53,23,23,0,0,1,1.32-3.36c.53-1.08,1.14-2.12,1.45-2.64l.31-.52"/><path class="cls-11" d="M692.84,91.83l.4-.49c.4-.48,1.2-1.46,2.08-2.36a24,24,0,0,1,2.82-2.5A24.59,24.59,0,0,1,704.77,83a24.14,24.14,0,0,1,3.65-.94,23.94,23.94,0,0,1,11.2.69,23.35,23.35,0,0,1,3.5,1.38A24.05,24.05,0,0,1,726.37,86a23.78,23.78,0,0,1,2.91,2.4,24.82,24.82,0,0,1,2.5,2.82,24.42,24.42,0,0,1,2,3.18,23,23,0,0,1,1.5,3.46c.41,1.18.73,2.41,3.92,3.59s9.25,2.34,9.27,3.6-6,2.62-9.14,3.92-3.42,2.52-3.79,3.73a23.35,23.35,0,0,1-1.38,3.5,24.05,24.05,0,0,1-1.91,3.25,23,23,0,0,1-2.4,2.91,24.82,24.82,0,0,1-2.82,2.5,24.42,24.42,0,0,1-3.18,2,23.75,23.75,0,0,1-7.1,2.45,24.12,24.12,0,0,1-7.52.13,23.28,23.28,0,0,1-3.68-.82,23.85,23.85,0,0,1-6.75-3.29,23,23,0,0,1-2.91-2.4,23.89,23.89,0,0,1-2.5-2.82,23.4,23.4,0,0,1-2-3.18,23.75,23.75,0,0,1-2.45-7.1,24.12,24.12,0,0,1-.13-7.52,24.69,24.69,0,0,1,.81-3.68,23.39,23.39,0,0,1,1.39-3.5c.55-1.13,1.19-2.22,1.51-2.77l.32-.54"/><path class="cls-12" d="M690.47,90.17l.45-.54c.45-.55,1.34-1.64,2.32-2.65a26.68,26.68,0,0,1,10.6-6.75,27.49,27.49,0,0,1,4.08-1.06,27.43,27.43,0,0,1,8.42-.15,27.84,27.84,0,0,1,4.12.92,26.52,26.52,0,0,1,3.93,1.55,27.17,27.17,0,0,1,6.89,4.82,26.34,26.34,0,0,1,2.8,3.17A25.87,25.87,0,0,1,736.35,93,26.61,26.61,0,0,1,738,96.91a27.49,27.49,0,0,1,1.06,4.08,27,27,0,0,1,.4,4.21,25.88,25.88,0,0,1-.26,4.21,27,27,0,0,1-4.6,11.69,27.87,27.87,0,0,1-2.68,3.25,26.34,26.34,0,0,1-3.17,2.8,25.87,25.87,0,0,1-3.56,2.27,27.1,27.1,0,0,1-3.87,1.68,13.92,13.92,0,0,0-4.07,1.81c-1.38,1-2.76,2.62-4.16,2.65s-2.85-1.56-4.26-2.51a14,14,0,0,0-4.13-1.66,27.13,27.13,0,0,1-7.57-3.69,26.9,26.9,0,0,1-3.25-2.68,26.34,26.34,0,0,1-2.8-3.17,25.87,25.87,0,0,1-2.27-3.56,26.61,26.61,0,0,1-1.68-3.87,27.49,27.49,0,0,1-1.06-4.08,27.44,27.44,0,0,1-.15-8.42,27.84,27.84,0,0,1,.92-4.12,26.52,26.52,0,0,1,1.55-3.93c.61-1.26,1.33-2.48,1.69-3.09l.36-.61"/><path class="cls-13" d="M690.06,89.89l.46-.56c.46-.55,1.37-1.66,2.37-2.69a27.23,27.23,0,0,1,3.22-2.85,28.07,28.07,0,0,1,3.62-2.31,27.07,27.07,0,0,1,3.95-1.71,6,6,0,0,0,4.12-3.45c1.37-2.61,2.72-7.49,4.15-7.51s2.95,4.8,4.42,7.36a6,6,0,0,0,4.23,3.3,27.48,27.48,0,0,1,4,1.58,26.11,26.11,0,0,1,3.71,2.18,27.45,27.45,0,0,1,6.16,6,27.5,27.5,0,0,1,2.31,3.63,26.5,26.5,0,0,1,1.71,3.94,27,27,0,0,1,1.08,4.16,27.58,27.58,0,0,1,.15,8.57,27.26,27.26,0,0,1-2.51,8.19,27.35,27.35,0,0,1-8.13,9.87,27.5,27.5,0,0,1-3.63,2.31,26.5,26.5,0,0,1-3.94,1.71,27,27,0,0,1-4.16,1.08,27.58,27.58,0,0,1-8.57.15,27.26,27.26,0,0,1-8.19-2.51,26.11,26.11,0,0,1-3.71-2.18,27.45,27.45,0,0,1-6.16-5.95,27.5,27.5,0,0,1-2.31-3.63,26.5,26.5,0,0,1-1.71-3.94,27,27,0,0,1-1.08-4.16,27.58,27.58,0,0,1-.15-8.57A27.26,27.26,0,0,1,688,93.66c.62-1.29,1.35-2.53,1.72-3.15l.36-.62"/><path class="cls-14" d="M685.85,86.94l.54-.66c.54-.66,1.63-2,2.81-3.21A33.2,33.2,0,0,1,693,79.69,32.72,32.72,0,0,1,697.33,77a31.81,31.81,0,0,1,4.68-2,46.75,46.75,0,0,0,4.93-1.78c1.67-.8,3.35-2,5-2s3.43,1.08,5.12,1.81a44.31,44.31,0,0,0,5,1.61,31.24,31.24,0,0,1,4.75,1.87,32.42,32.42,0,0,1,8.33,5.83,32.37,32.37,0,0,1,3.39,3.82,32.72,32.72,0,0,1,2.74,4.31,31.81,31.81,0,0,1,2,4.68,32.29,32.29,0,0,1,1.28,4.94,31.9,31.9,0,0,1,.49,5.08,33.37,33.37,0,0,1-.31,5.09,32.57,32.57,0,0,1-1.11,5,31.24,31.24,0,0,1-1.87,4.75,31.91,31.91,0,0,1-2.59,4.4,32.93,32.93,0,0,1-3.24,3.94,34.06,34.06,0,0,1-3.82,3.38,33.39,33.39,0,0,1-4.31,2.74,31.81,31.81,0,0,1-4.68,2,31.17,31.17,0,0,1-4.94,1.28,32.32,32.32,0,0,1-15.15-.93,31.24,31.24,0,0,1-4.75-1.87,31.91,31.91,0,0,1-4.4-2.59,32.3,32.3,0,0,1-10.06-11.37,31.81,31.81,0,0,1-2-4.68,31.17,31.17,0,0,1-1.28-4.94,32.53,32.53,0,0,1-.18-10.17,32.57,32.57,0,0,1,1.11-5,31.24,31.24,0,0,1,1.87-4.75c.74-1.53,1.61-3,2-3.74l.44-.73"/><path class="cls-15" d="M683.81,85.51l.58-.71c.59-.71,1.76-2.13,3-3.45a34.88,34.88,0,0,1,8.74-6.59,35.71,35.71,0,0,1,5-2.19,10.83,10.83,0,0,0,5.29-3c1.78-1.93,3.55-5.34,5.38-5.37s3.72,3.31,5.57,5.18a10.92,10.92,0,0,0,5.39,2.81,34.75,34.75,0,0,1,9.84,4.8,34.92,34.92,0,0,1,13,17.27,35.39,35.39,0,0,1,1.9,10.78,34.75,34.75,0,0,1-.34,5.49,34.24,34.24,0,0,1-1.19,5.36,34.75,34.75,0,0,1-4.8,9.84,35.42,35.42,0,0,1-3.49,4.24,36.5,36.5,0,0,1-4.11,3.64,35.66,35.66,0,0,1-4.64,2.95,35.1,35.1,0,0,1-5,2.19,35.8,35.8,0,0,1-5.32,1.37,34.67,34.67,0,0,1-10.95.19,34,34,0,0,1-5.36-1.19,34.75,34.75,0,0,1-9.84-4.8,34.94,34.94,0,0,1-7.88-7.6,36.24,36.24,0,0,1-2.95-4.63,34.84,34.84,0,0,1-3.56-10.36,35,35,0,0,1,1-16.31,35,35,0,0,1,2-5.11c.8-1.64,1.73-3.23,2.2-4l.47-.79"/><path class="cls-16" d="M683.74,85.46l.59-.71c.59-.71,1.76-2.13,3-3.45a35,35,0,0,1,13.81-8.8,8.4,8.4,0,0,0,5.29-3.79C708.23,66,710,61,711.81,60.93s3.76,4.91,5.62,7.58a8.35,8.35,0,0,0,5.42,3.61,35.26,35.26,0,0,1,9.86,4.81,34.88,34.88,0,0,1,7.9,7.63,35,35,0,0,1,2.95,4.64,34.29,34.29,0,0,1,2.2,5,35.3,35.3,0,0,1,1.57,16.3,36.51,36.51,0,0,1-1.19,5.37,35.26,35.26,0,0,1-4.81,9.86,35.2,35.2,0,0,1-12.27,10.86,35.33,35.33,0,0,1-5,2.19,34.94,34.94,0,0,1-5.32,1.38,34.86,34.86,0,0,1-11,.19,35.27,35.27,0,0,1-5.37-1.19,35.26,35.26,0,0,1-9.86-4.81,35.2,35.2,0,0,1-10.86-12.27,35.33,35.33,0,0,1-2.19-5,34.94,34.94,0,0,1-1.38-5.32,36.06,36.06,0,0,1-.53-5.48,34.88,34.88,0,0,1,.34-5.5,35.27,35.27,0,0,1,1.19-5.37,34.69,34.69,0,0,1,2-5.12c.8-1.65,1.74-3.24,2.21-4l.46-.8"/><path class="cls-17" d="M683.28,85.14l.6-.72c.59-.72,1.78-2.17,3.08-3.51A35.58,35.58,0,0,1,701,72a35.07,35.07,0,0,1,5.42-1.4A34.56,34.56,0,0,1,712,70a35.82,35.82,0,0,1,5.58.34A36.19,36.19,0,0,1,723,71.58a37.08,37.08,0,0,1,5.21,2A36.47,36.47,0,0,1,733,76.47,35.73,35.73,0,0,1,737.35,80a35.51,35.51,0,0,1,6.71,8.9,35.84,35.84,0,0,1,2.23,5.13,35.07,35.07,0,0,1,1.4,5.42,35.48,35.48,0,0,1,.2,11.14,36.19,36.19,0,0,1-1.21,5.46,37.08,37.08,0,0,1-2,5.21,36.47,36.47,0,0,1-2.84,4.82,35.73,35.73,0,0,1-3.56,4.31,36.92,36.92,0,0,1-4.19,3.71,35.62,35.62,0,0,1-9.84,5.23,35.07,35.07,0,0,1-5.42,1.4,34.56,34.56,0,0,1-5.56.54,36,36,0,0,1-5.59-.34,36.74,36.74,0,0,1-5.46-1.21,37.44,37.44,0,0,1-5.2-2.05,35.84,35.84,0,0,1-4.82-2.84,35,35,0,0,1-4.31-3.56,36.92,36.92,0,0,1-3.71-4.19,35.62,35.62,0,0,1-5.23-9.84c-.61-1.77-1.08-3.58-9-5.28s-23.4-3.3-23.43-5.17,15.35-4,23.24-6,8.3-3.81,8.84-5.59a35.9,35.9,0,0,1,2-5.21c.82-1.67,1.77-3.29,2.25-4.09l.47-.81"/><path class="cls-18" d="M679.82,82.72l.67-.81c.67-.81,2-2.42,3.45-3.92a38.38,38.38,0,0,1,4.68-4.14,39.18,39.18,0,0,1,5.27-3.36A38.77,38.77,0,0,1,699.62,68c2-.68,4-1.21,6-4.08s4-8.09,6.09-8.13S716,60.9,718.1,63.7s4.15,3.26,6.14,3.87A39.93,39.93,0,0,1,735.45,73a40.75,40.75,0,0,1,4.82,4,39.76,39.76,0,0,1,10,15.68,39.67,39.67,0,0,1,1.57,6.06,40.44,40.44,0,0,1,.6,6.22,40,40,0,0,1-7.2,23.55,40,40,0,0,1-4,4.82,39.14,39.14,0,0,1-4.68,4.14,39.82,39.82,0,0,1-5.27,3.36,38.77,38.77,0,0,1-5.73,2.49,39.67,39.67,0,0,1-6.06,1.57,40.44,40.44,0,0,1-6.22.6A39.47,39.47,0,0,1,701,143.76a39.93,39.93,0,0,1-11.21-5.46,40,40,0,0,1-4.82-4,39.93,39.93,0,0,1-7.5-9.95,39.91,39.91,0,0,1-2.5-5.73,40.18,40.18,0,0,1-2.16-12.28A39.85,39.85,0,0,1,674.49,94a38.91,38.91,0,0,1,2.3-5.82c.91-1.87,2-3.68,2.5-4.58l.53-.9"/><path class="cls-19" d="M679.75,82.67l.67-.81c.67-.81,2-2.43,3.45-3.93a41.15,41.15,0,0,1,4.7-4.15,39.35,39.35,0,0,1,5.28-3.37,40.14,40.14,0,0,1,5.75-2.5,39.69,39.69,0,0,1,18.55-1.78,40,40,0,0,1,6.12,1.35,39.45,39.45,0,0,1,5.83,2.3c1.88.92,3.68,2,9.93-1.52s17-11.57,18.45-10.11S752.3,70.57,749,76.94s-2.15,8.13-1.17,10a40.14,40.14,0,0,1,2.5,5.75,40.58,40.58,0,0,1,2.17,12.3,40.83,40.83,0,0,1-.39,6.25,40,40,0,0,1-1.35,6.12,39.45,39.45,0,0,1-2.3,5.83,40.66,40.66,0,0,1-3.18,5.4,40.05,40.05,0,0,1-4,4.83,41.15,41.15,0,0,1-4.7,4.15,39.72,39.72,0,0,1-11,5.87A39.69,39.69,0,0,1,707,145.2a40,40,0,0,1-6.12-1.35,39.45,39.45,0,0,1-5.83-2.3,40.66,40.66,0,0,1-5.4-3.18,39.63,39.63,0,0,1-9-8.68,39.35,39.35,0,0,1-3.37-5.28,40.14,40.14,0,0,1-2.5-5.75,39.78,39.78,0,0,1-2.17-12.3,39.6,39.6,0,0,1,.39-6.25A40,40,0,0,1,674.41,94a39.45,39.45,0,0,1,2.3-5.83c.91-1.88,2-3.68,2.51-4.59l.53-.9"/><path class="cls-20" d="M677.56,81.14l.71-.87c.72-.86,2.14-2.59,3.69-4.19a42.29,42.29,0,0,1,10.64-8,41.59,41.59,0,0,1,6.13-2.66,42.42,42.42,0,0,1,6.47-1.68,43.53,43.53,0,0,1,6.65-.64,42.53,42.53,0,0,1,6.67.41,42.53,42.53,0,0,1,12.74,3.9A41,41,0,0,1,737,70.78,42.07,42.07,0,0,1,742.18,75a42.29,42.29,0,0,1,8,10.64,41.59,41.59,0,0,1,2.66,6.13c.73,2.11,1.29,4.27,4.54,6.42s9.21,4.27,9.25,6.5-5.83,4.56-9,6.82-3.67,4.44-4.32,6.58a42.51,42.51,0,0,1-2.45,6.22,41.5,41.5,0,0,1-3.39,5.75,42.07,42.07,0,0,1-4.25,5.16,42.92,42.92,0,0,1-5,4.43,43.72,43.72,0,0,1-5.64,3.59,41.59,41.59,0,0,1-6.13,2.66,42.42,42.42,0,0,1-6.47,1.68,43.65,43.65,0,0,1-6.65.64,42.53,42.53,0,0,1-6.67-.41,41.61,41.61,0,0,1-6.53-1.45,42.51,42.51,0,0,1-6.22-2.45,41.5,41.5,0,0,1-5.75-3.39,42.67,42.67,0,0,1-9.59-9.25,43,43,0,0,1-3.59-5.64,41.59,41.59,0,0,1-2.66-6.13,42.44,42.44,0,0,1-1.91-19.79,41.86,41.86,0,0,1,1.45-6.53A42.51,42.51,0,0,1,674.32,87c1-2,2.11-3.93,2.68-4.89l.56-1"/><path class="cls-21" d="M677.05,80.78l.72-.88c.72-.87,2.17-2.63,3.74-4.25a42.92,42.92,0,0,1,10.8-8.14,42.82,42.82,0,0,1,6.22-2.7c2.14-.74,4.33-1.31,6.53-3.24s4.41-5.24,6.67-5.28,4.58,3.19,6.85,5,4.48,2.35,6.65,3a43.38,43.38,0,0,1,12.15,5.93,44,44,0,0,1,5.23,4.31,42.92,42.92,0,0,1,8.14,10.8,43.51,43.51,0,0,1,4.4,12.78,43.1,43.1,0,0,1-1.23,20.14A43.38,43.38,0,0,1,748,130.45a43.12,43.12,0,0,1-21.33,16.07,42.43,42.43,0,0,1-6.56,1.7A43.1,43.1,0,0,1,700,147a42.21,42.21,0,0,1-6.31-2.49,42.79,42.79,0,0,1-5.84-3.44,43.24,43.24,0,0,1-5.23-4.31,42.57,42.57,0,0,1-4.5-5.08,43.18,43.18,0,0,1-6.34-11.94,42.43,42.43,0,0,1-1.7-6.56A43.1,43.1,0,0,1,671.27,93a42.64,42.64,0,0,1,2.49-6.31c1-2,2.14-4,2.71-5l.58-1"/><path class="cls-22" d="M673.54,78.32l.79-1c.79-1,2.38-2.88,4.11-4.67A46.81,46.81,0,0,1,684,67.74a48.36,48.36,0,0,1,6.28-4,47.49,47.49,0,0,1,6.83-3c2.36-.81,4.77-1.44,7.17-4.48s4.8-8.5,7.28-8.54,5.07,5.33,7.58,8.28,4.94,3.5,7.32,4.23A46.82,46.82,0,0,1,733.41,63a47.59,47.59,0,0,1,6.42,3.78,47.59,47.59,0,0,1,10.69,10.32,48.36,48.36,0,0,1,4,6.28,47.35,47.35,0,0,1,5.55,21.47,48.61,48.61,0,0,1-.45,7.43,47.56,47.56,0,0,1-1.62,7.28,46.4,46.4,0,0,1-2.73,6.93,47.42,47.42,0,0,1-8.52,12.17,47.61,47.61,0,0,1-5.58,4.94,48.36,48.36,0,0,1-6.28,4,47.38,47.38,0,0,1-36.18,3.48,46.4,46.4,0,0,1-6.93-2.73,47.53,47.53,0,0,1-17.11-14.1,48.36,48.36,0,0,1-4-6.28,47.59,47.59,0,0,1-5.1-28.9,48.74,48.74,0,0,1,1.61-7.28,47.54,47.54,0,0,1,2.74-6.93c1.09-2.24,2.35-4.38,3-5.46l.64-1.07"/><path class="cls-23" d="M387.41,87.1l.71-.86c.71-.86,2.13-2.58,3.67-4.17a41,41,0,0,1,5-4.41,41.64,41.64,0,0,1,5.61-3.58,43.47,43.47,0,0,1,6.1-2.66c2.1-.72,4.26-1.28,6.4-4.21s4.28-8.23,6.5-8.27,4.53,5.19,6.78,8,4.41,3.34,6.54,4a42.4,42.4,0,0,1,17.06,10,42.64,42.64,0,0,1,4.42,5,43.07,43.07,0,0,1,6.23,11.72,42.4,42.4,0,0,1,1.89,19.72,42.31,42.31,0,0,1-3.88,12.69A41.69,41.69,0,0,1,452.82,141a41.66,41.66,0,0,1-5,4.41,42.38,42.38,0,0,1-5.62,3.58,43.47,43.47,0,0,1-6.1,2.66,42.4,42.4,0,0,1-19.72,1.89,42.63,42.63,0,0,1-6.5-1.44,42.11,42.11,0,0,1-6.19-2.44,42.54,42.54,0,0,1-18.86-18.21,42.28,42.28,0,0,1-2.65-6.1,41,41,0,0,1-1.67-6.45,42.19,42.19,0,0,1-.23-13.27,42.63,42.63,0,0,1,1.44-6.5,41.67,41.67,0,0,1,2.44-6.19c1-2,2.1-3.92,2.67-4.88l.56-1"/><path class="cls-24" d="M539.39,95.29l.35-.43c.36-.43,1.06-1.29,1.83-2.09a21.65,21.65,0,0,1,2.49-2.2,22.26,22.26,0,0,1,2.81-1.79,21.49,21.49,0,0,1,3-1.32,21.14,21.14,0,0,1,3.22-.83,21.27,21.27,0,0,1,6.63-.12,22.6,22.6,0,0,1,3.24.72,21.32,21.32,0,0,1,6,2.91,21.41,21.41,0,0,1,2.56,2.11,20.84,20.84,0,0,1,2.2,2.49,20.46,20.46,0,0,1,1.79,2.8,21.11,21.11,0,0,1,1.32,3,5.79,5.79,0,0,0,2,3.2c1.36,1.07,3.79,2.13,3.81,3.24s-2.38,2.26-3.7,3.38a5.88,5.88,0,0,0-1.88,3.27,20.45,20.45,0,0,1-1.22,3.09,21.1,21.1,0,0,1-6.29,7.63,21.39,21.39,0,0,1-2.8,1.78,21,21,0,0,1-6.26,2.16,21.27,21.27,0,0,1-6.63.12,22.3,22.3,0,0,1-3.24-.72,22.93,22.93,0,0,1-3.1-1.22,21.69,21.69,0,0,1-2.86-1.69,19.93,19.93,0,0,1-2.56-2.11,20.74,20.74,0,0,1-2.2-2.49,21.09,21.09,0,0,1-1.79-2.8,21,21,0,0,1-2.16-6.27,21.57,21.57,0,0,1-.32-3.31,20.3,20.3,0,0,1,.21-3.31,20.07,20.07,0,0,1,.72-3.25,21.52,21.52,0,0,1,1.21-3.09c.49-1,1.05-2,1.34-2.43l.28-.48"/><path class="cls-25" d="M536.14,93l.42-.51C537,92,537.82,91,538.74,90a24.37,24.37,0,0,1,3-2.61A25.58,25.58,0,0,1,545,85.3a25.21,25.21,0,0,1,3.62-1.57,24.92,24.92,0,0,1,3.82-1,25.64,25.64,0,0,1,3.92-.38,26,26,0,0,1,3.94.24,25.67,25.67,0,0,1,7.51,2.3,24.91,24.91,0,0,1,6.44,4.51,24.37,24.37,0,0,1,2.61,3A25.69,25.69,0,0,1,579,95.69a24,24,0,0,1,1.57,3.61c.43,1.25.76,2.53,6.06,3.73s15.56,2.35,15.58,3.66-10.19,2.81-15.44,4.2-5.54,2.68-5.93,3.94a24.51,24.51,0,0,1-1.44,3.67,25.56,25.56,0,0,1-2,3.39,26.25,26.25,0,0,1-2.51,3,25.25,25.25,0,0,1-3,2.61,25.69,25.69,0,0,1-3.33,2.12,26.26,26.26,0,0,1-3.61,1.57,25.22,25.22,0,0,1-3.82,1,25.75,25.75,0,0,1-3.92.37,23.56,23.56,0,0,1-3.94-.24,25.45,25.45,0,0,1-3.85-.85,24.55,24.55,0,0,1-3.67-1.45,25.38,25.38,0,0,1-6.43-4.5,26.28,26.28,0,0,1-2.62-3,24.5,24.5,0,0,1-2.11-3.32,24.79,24.79,0,0,1-1.58-3.62,25.06,25.06,0,0,1-1-3.81,24.67,24.67,0,0,1-.38-3.93,25.84,25.84,0,0,1,.24-3.93,24.84,24.84,0,0,1,2.3-7.52c.57-1.18,1.24-2.32,1.58-2.89l.33-.57"/><path class="cls-26" d="M533.77,91.35l.47-.57c.47-.56,1.4-1.7,2.42-2.75A28.49,28.49,0,0,1,540,85.11a28.05,28.05,0,0,1,3.71-2.36,27.72,27.72,0,0,1,4-1.75c1.39-.48,2.81-.85,4.21-3.75s2.77-8.34,4.23-8.36,3,5.36,4.53,8.21,2.94,3.17,4.34,3.6a28.7,28.7,0,0,1,4.09,1.61,28,28,0,0,1,10.09,8.32,27.8,27.8,0,0,1,4.11,7.73,27.48,27.48,0,0,1,1.1,4.26,26.72,26.72,0,0,1,.42,4.37,28,28,0,0,1-.26,4.39,28.6,28.6,0,0,1-1,4.29,26.12,26.12,0,0,1-1.61,4.09,27.9,27.9,0,0,1-8.31,10.09,27.33,27.33,0,0,1-3.71,2.36,28.76,28.76,0,0,1-4,1.76,28.34,28.34,0,0,1-4.26,1.1,29.12,29.12,0,0,1-4.37.42,28,28,0,0,1-4.39-.27,27.39,27.39,0,0,1-4.29-.95,28.7,28.7,0,0,1-4.09-1.61,27.68,27.68,0,0,1-3.79-2.23,28,28,0,0,1-8.66-9.8,27.77,27.77,0,0,1-1.76-4,28,28,0,0,1-1.25-13,28.69,28.69,0,0,1,.95-4.3,28.12,28.12,0,0,1,1.61-4.08c.65-1.32,1.39-2.59,1.77-3.22l.37-.64"/><path class="cls-27" d="M532.69,90.59l.49-.59c.49-.59,1.47-1.78,2.53-2.89A29.34,29.34,0,0,1,543,81.59a29.72,29.72,0,0,1,4.22-1.83c1.45-.5,2.94-.89,4.4-4.55s2.86-10.6,4.4-10.62,3.19,6.85,4.77,10.46,3.08,3.94,4.55,4.39a28.62,28.62,0,0,1,4.28,1.69,28.93,28.93,0,0,1,7.52,5.26,30.34,30.34,0,0,1,3.05,3.45,29.58,29.58,0,0,1,4.31,8.1,29.67,29.67,0,0,1,1.15,4.45,30.61,30.61,0,0,1,.44,4.58,29.32,29.32,0,0,1-.28,4.59,29.11,29.11,0,0,1-5,12.74,29.63,29.63,0,0,1-6.37,6.6,29.3,29.3,0,0,1-3.88,2.48,29.72,29.72,0,0,1-4.22,1.83,28.92,28.92,0,0,1-4.46,1.15,29.38,29.38,0,0,1-9.17.16,28.91,28.91,0,0,1-4.5-1,30.21,30.21,0,0,1-4.28-1.69,29.14,29.14,0,0,1-4-2.33,30.36,30.36,0,0,1-3.55-2.93,28.51,28.51,0,0,1-3.05-3.45,28,28,0,0,1-2.47-3.88,29.28,29.28,0,0,1-1.84-4.22,29.39,29.39,0,0,1-1.31-13.63,29.72,29.72,0,0,1,2.68-8.77c.67-1.38,1.46-2.71,1.85-3.37l.39-.67"/><path class="cls-28" d="M531.72,89.92l.51-.62c.51-.62,1.53-1.85,2.64-3a30.55,30.55,0,0,1,35.31-6.23,31.58,31.58,0,0,1,4.12,2.43,30.8,30.8,0,0,1,3.69,3,30.64,30.64,0,0,1,5.75,7.62,30.34,30.34,0,0,1,1.9,4.38,29.83,29.83,0,0,1,1.2,4.64,30.52,30.52,0,0,1,.17,9.54,30,30,0,0,1-1,4.67,29.37,29.37,0,0,1-1.75,4.45,30,30,0,0,1-2.43,4.13,31.53,31.53,0,0,1-3,3.69,30.77,30.77,0,0,1-7.62,5.74,30.48,30.48,0,0,1-9,3.11,31.58,31.58,0,0,1-4.76.46,30.61,30.61,0,0,1-4.78-.3,30,30,0,0,1-4.67-1,31,31,0,0,1-8.57-4.18,30.39,30.39,0,0,1-9.44-10.67,30.51,30.51,0,0,1-1.91-4.39,7.9,7.9,0,0,0-3-4.6c-2.09-1.54-5.87-3.07-5.9-4.67s3.7-3.26,5.73-4.87a7.86,7.86,0,0,0,2.85-4.7,31.07,31.07,0,0,1,1.76-4.46c.7-1.43,1.51-2.81,1.92-3.5l.4-.69"/><path class="cls-29" d="M529.9,88.65l.55-.67c.55-.66,1.64-2,2.83-3.22a32.67,32.67,0,0,1,8.17-6.16,32.2,32.2,0,0,1,4.71-2,32.72,32.72,0,0,1,25,1.52,33.75,33.75,0,0,1,4.42,2.61,32.77,32.77,0,0,1,10.12,11.44,33.76,33.76,0,0,1,2,4.7,23.86,23.86,0,0,0,2,5c1,1.68,2.57,3.36,2.6,5.07s-1.48,3.46-2.42,5.16a24.46,24.46,0,0,0-1.81,5,33,33,0,0,1-1.88,4.77,32.88,32.88,0,0,1-5.87,8.39,32.74,32.74,0,0,1-3.85,3.4,31.38,31.38,0,0,1-4.33,2.75,32.14,32.14,0,0,1-4.7,2,32.69,32.69,0,0,1-5,1.29,33.74,33.74,0,0,1-5.11.49,32.45,32.45,0,0,1-5.12-.32,31.54,31.54,0,0,1-5-1.11,32.72,32.72,0,0,1-9.2-4.48,32.77,32.77,0,0,1-10.12-11.44,32.25,32.25,0,0,1-2-4.71,31.53,31.53,0,0,1-1.28-5,32.12,32.12,0,0,1-.18-10.23,33.21,33.21,0,0,1,1.11-5,32.71,32.71,0,0,1,1.88-4.78c.75-1.53,1.62-3,2.06-3.75l.43-.74"/><path class="cls-30" d="M529.77,88.55l.55-.66c.55-.67,1.65-2,2.84-3.24a33,33,0,0,1,8.22-6.19,32.53,32.53,0,0,1,4.73-2.06,7.47,7.47,0,0,0,4.95-3.82c1.65-2.83,3.28-8,5-8.08s3.53,5.13,5.28,7.9a7.45,7.45,0,0,0,5.08,3.65,33.45,33.45,0,0,1,4.8,1.89,32.53,32.53,0,0,1,4.44,2.62,32.78,32.78,0,0,1,10.17,11.49,32.53,32.53,0,0,1,2.06,4.73,33.06,33.06,0,0,1,1.29,5,33.23,33.23,0,0,1,.18,10.28,32.06,32.06,0,0,1-1.12,5,31.48,31.48,0,0,1-1.89,4.8,32.87,32.87,0,0,1-5.9,8.43,33,33,0,0,1-3.86,3.42,32.66,32.66,0,0,1-9.08,4.82,32.08,32.08,0,0,1-5,1.29,33,33,0,0,1-15.32-.93,34.17,34.17,0,0,1-4.8-1.89,33.07,33.07,0,0,1-4.45-2.62,34.67,34.67,0,0,1-4-3.28,33.74,33.74,0,0,1-3.41-3.86,32.61,32.61,0,0,1-2.77-4.35,32.65,32.65,0,0,1-3.35-9.73,32.43,32.43,0,0,1-.18-10.28,33.32,33.32,0,0,1,1.11-5,34.66,34.66,0,0,1,1.89-4.8c.76-1.54,1.64-3,2.07-3.77l.44-.75"/><path class="cls-31" d="M529.29,88.21l.56-.68c.55-.67,1.67-2,2.89-3.29a34.19,34.19,0,0,1,3.93-3.48,33.53,33.53,0,0,1,4.43-2.82,34.11,34.11,0,0,1,4.81-2.09,9.92,9.92,0,0,0,5.06-3c1.7-1.94,3.39-5.38,5.14-5.41s3.56,3.35,5.33,5.23a10,10,0,0,0,5.15,2.78,33.08,33.08,0,0,1,4.89,1.92,33.31,33.31,0,0,1,8.57,6,33.36,33.36,0,0,1,3.48,3.94,32.53,32.53,0,0,1,2.82,4.43,33,33,0,0,1,3.41,9.89,34,34,0,0,1,.5,5.23,32.78,32.78,0,0,1-.32,5.24,33.31,33.31,0,0,1-1.13,5.13,34.05,34.05,0,0,1-4.59,9.41A33.39,33.39,0,0,1,572.52,137a33.74,33.74,0,0,1-4.82,2.09,33.34,33.34,0,0,1-20.67.36,33.62,33.62,0,0,1-13.47-7.93,32.41,32.41,0,0,1-3.47-3.93,33.14,33.14,0,0,1-4.92-9.24,33.06,33.06,0,0,1-1.31-5.09,32.62,32.62,0,0,1-.51-5.22,34,34,0,0,1,.32-5.24,34.55,34.55,0,0,1,1.14-5.13,34.1,34.1,0,0,1,1.92-4.88c.77-1.58,1.66-3.09,2.11-3.85l.45-.76"/><path class="cls-32" d="M527.62,87l.59-.71c.59-.72,1.78-2.16,3.07-3.5a35.61,35.61,0,0,1,4.17-3.69,34.9,34.9,0,0,1,4.7-3,35.44,35.44,0,0,1,5.1-2.22,36,36,0,0,1,5.4-1.4,35.62,35.62,0,0,1,11.1-.19,35.91,35.91,0,0,1,10.62,3.25,35.38,35.38,0,0,1,4.79,2.82,35.58,35.58,0,0,1,11,12.41,34,34,0,0,1,2.22,5.11c.61,1.76,1.08,3.56,9.15,5.26s23.76,3.28,23.79,5.13-15.58,4-23.6,6-8.41,3.79-9,5.57a35.43,35.43,0,0,1-17.28,21,36.2,36.2,0,0,1-5.11,2.22,35.45,35.45,0,0,1-16.49,1.59,36.21,36.21,0,0,1-5.44-1.21A35.43,35.43,0,0,1,532.16,133a34,34,0,0,1-3.69-4.17,35.33,35.33,0,0,1-3-4.7,36.58,36.58,0,0,1-2.22-5.1,35.48,35.48,0,0,1-1.92-10.94,35.62,35.62,0,0,1,1.54-11,35.49,35.49,0,0,1,2-5.18c.82-1.67,1.76-3.28,2.24-4.08l.47-.81"/><path class="cls-33" d="M527.3,86.82l.6-.72c.6-.73,1.8-2.18,3.1-3.53a35.79,35.79,0,0,1,14.13-9c1.78-.61,3.6-1.09,5.36-6.8s3.44-16.68,5.32-16.71,3.94,10.86,5.9,16.51,3.79,6.06,5.59,6.61a36,36,0,0,1,14.43,8.5,36,36,0,0,1,6.75,9,37.07,37.07,0,0,1,2.25,5.17,35.84,35.84,0,0,1,.38,22.16,36.3,36.3,0,0,1-2.06,5.24,35.26,35.26,0,0,1-2.86,4.85,34.53,34.53,0,0,1-3.58,4.34,35.53,35.53,0,0,1-4.21,3.73,36.75,36.75,0,0,1-4.75,3,36.24,36.24,0,0,1-5.16,2.24,36.66,36.66,0,0,1-5.45,1.41,35.17,35.17,0,0,1-5.61.54,36.35,36.35,0,0,1-5.61-.34,37,37,0,0,1-5.5-1.22,35.23,35.23,0,0,1-5.24-2.07,35.8,35.8,0,0,1-4.85-2.85,35.84,35.84,0,0,1-8.07-7.8,35.64,35.64,0,0,1-3-4.75,34.28,34.28,0,0,1-2.25-5.16,36.34,36.34,0,0,1-1.41-5.45,37.52,37.52,0,0,1-.54-5.6,35.21,35.21,0,0,1,.35-5.62A36.57,36.57,0,0,1,522.5,97a35.23,35.23,0,0,1,2.07-5.24c.82-1.69,1.78-3.31,2.26-4.12l.47-.82"/><path class="cls-34" d="M526.74,86.43l.61-.74c.61-.74,1.83-2.22,3.16-3.6a36.72,36.72,0,0,1,14.4-9.17,36.79,36.79,0,0,1,5.55-1.44,36.58,36.58,0,0,1,11.44-.2,37.09,37.09,0,0,1,5.6,1.24,36.49,36.49,0,0,1,14.7,8.67,36.65,36.65,0,0,1,6.89,9.13,37.14,37.14,0,0,1,2.28,5.26,35.47,35.47,0,0,1,1.44,5.56,36.52,36.52,0,0,1,.2,11.43,36.82,36.82,0,0,1-1.24,5.6,37.7,37.7,0,0,1-2.1,5.34,37.29,37.29,0,0,1-6.56,9.37,36.07,36.07,0,0,1-4.3,3.8,37,37,0,0,1-4.84,3.08,36.07,36.07,0,0,1-5.26,2.29,38,38,0,0,1-5.55,1.44,36.54,36.54,0,0,1-5.71.54,35.42,35.42,0,0,1-5.73-.35,35.91,35.91,0,0,1-5.6-1.24,36.54,36.54,0,0,1-5.34-2.1,47.94,47.94,0,0,0-5.34-2.5c-2-.68-4.24-1.08-5.62-2.41s-1.85-3.59-2.6-5.53a48.64,48.64,0,0,0-2.69-5.25,37.19,37.19,0,0,1-2.29-5.26,36.58,36.58,0,0,1-1.43-5.56,36.52,36.52,0,0,1-.2-11.43,35.66,35.66,0,0,1,1.24-5.6,36.54,36.54,0,0,1,2.1-5.34c.84-1.72,1.82-3.38,2.3-4.2l.49-.83"/><path class="cls-35" d="M514.64,78l.85-1c.86-1,2.57-3.12,4.44-5a51,51,0,0,1,12.81-9.65A49.76,49.76,0,0,1,540.12,59c2.53-.88,5.14-1.55,7.72-5.54s5.14-11.28,7.83-11.33,5.49,7.16,8.21,11,5.35,4.48,7.92,5.26a52.36,52.36,0,0,1,7.48,2.95,51.36,51.36,0,0,1,6.94,4.09,52.27,52.27,0,0,1,6.2,5.11,51.25,51.25,0,0,1,15.65,36,51.22,51.22,0,0,1-20.41,41.84A51.13,51.13,0,0,1,565.71,158a50.58,50.58,0,0,1-16,.28,51.24,51.24,0,0,1-28.48-13.89,51.67,51.67,0,0,1-5.33-6,51.66,51.66,0,0,1-7.53-14.16,51.21,51.21,0,0,1-2-7.79A51.2,51.2,0,0,1,510.73,85c1.17-2.41,2.54-4.73,3.22-5.89l.69-1.16"/><path class="cls-36" d="M280.52,98.4l.17-.21c.18-.21.53-.64.91-1a10.75,10.75,0,0,1,1.24-1.09,11.29,11.29,0,0,1,1.39-.89,10.74,10.74,0,0,1,1.52-.66,9.63,9.63,0,0,1,1.6-.41,10,10,0,0,1,1.64-.16,10.16,10.16,0,0,1,1.65.1,10.91,10.91,0,0,1,3.15,1,10.6,10.6,0,0,1,1.42.84,10.84,10.84,0,0,1,1.28,1,11.65,11.65,0,0,1,1.09,1.24,11.29,11.29,0,0,1,.89,1.39,10.74,10.74,0,0,1,.66,1.52,9.63,9.63,0,0,1,.41,1.6,10,10,0,0,1,.16,1.64,10.16,10.16,0,0,1-.1,1.65,10.74,10.74,0,0,1-.36,1.61,10.24,10.24,0,0,1-.6,1.54,9.64,9.64,0,0,1-.84,1.42,10.84,10.84,0,0,1-1.05,1.28,9.87,9.87,0,0,1-1.24,1.09,10.23,10.23,0,0,1-1.39.89,10.74,10.74,0,0,1-1.52.66,9.63,9.63,0,0,1-1.6.41,10,10,0,0,1-1.64.16,10.16,10.16,0,0,1-1.65-.1,10.91,10.91,0,0,1-3.15-1,9.64,9.64,0,0,1-1.42-.84,10.84,10.84,0,0,1-1.28-1,9.87,9.87,0,0,1-1.09-1.24,11.29,11.29,0,0,1-.89-1.39,10.74,10.74,0,0,1-.66-1.52c-.18-.52-.32-1-5.06-1.52s-14.09-.85-14.09-1.4,9.31-1.26,14-1.89,4.85-1.17,5-1.69a10.67,10.67,0,0,1,.6-1.54c.24-.5.52-1,.66-1.21l.15-.24"/><path class="cls-37" d="M280.35,98.29l.18-.22c.18-.22.54-.65.93-1a10.29,10.29,0,0,1,1.26-1.12,10.88,10.88,0,0,1,3-1.57,3.12,3.12,0,0,0,1.62-1c.55-.65,1.09-1.8,1.65-1.81s1.14,1.12,1.71,1.75a3,3,0,0,0,1.65.92,10,10,0,0,1,1.57.62,10.57,10.57,0,0,1,1.45.85,10.17,10.17,0,0,1,1.29,1.07A10.29,10.29,0,0,1,297.74,98a10.88,10.88,0,0,1,1.57,3,10.3,10.3,0,0,1,.43,1.63,11.94,11.94,0,0,1,.16,1.68,11.17,11.17,0,0,1-.47,3.32,10,10,0,0,1-.62,1.57,10.57,10.57,0,0,1-.85,1.45,10.52,10.52,0,0,1-2.33,2.41,10,10,0,0,1-1.42.9,11.09,11.09,0,0,1-1.54.68A11.47,11.47,0,0,1,291,115a10.93,10.93,0,0,1-3.36.06,10.49,10.49,0,0,1-1.64-.37,10,10,0,0,1-1.57-.62,10.57,10.57,0,0,1-1.45-.85,10.17,10.17,0,0,1-1.29-1.07,10.29,10.29,0,0,1-1.12-1.26,10,10,0,0,1-.9-1.42A11.09,11.09,0,0,1,279,108a11.47,11.47,0,0,1-.42-1.63,10.93,10.93,0,0,1-.06-3.36,11.76,11.76,0,0,1,.37-1.64,10,10,0,0,1,.62-1.57c.24-.5.53-1,.67-1.23l.14-.24"/><path class="cls-38" d="M280.28,98.24l.18-.22c.19-.22.55-.66.94-1.06a10.47,10.47,0,0,1,1.27-1.13,11.16,11.16,0,0,1,1.43-.91,10.78,10.78,0,0,1,1.56-.67,2.37,2.37,0,0,0,1.62-1.37c.54-1,1.07-3,1.64-3s1.17,1.91,1.74,2.92a2.37,2.37,0,0,0,1.68,1.31,10,10,0,0,1,1.57.62,11.18,11.18,0,0,1,1.46.86,10.6,10.6,0,0,1,1.31,1.08A10.47,10.47,0,0,1,297.81,98a11.16,11.16,0,0,1,.91,1.43,10.78,10.78,0,0,1,.67,1.56,10.14,10.14,0,0,1,.43,1.64,10.75,10.75,0,0,1-.31,5,9.67,9.67,0,0,1-.62,1.57,12,12,0,0,1-.86,1.47A11.28,11.28,0,0,1,297,112a10.47,10.47,0,0,1-1.27,1.13,11.16,11.16,0,0,1-1.43.91,12.06,12.06,0,0,1-1.56.68,11.26,11.26,0,0,1-1.64.42,10.75,10.75,0,0,1-5-.31,10,10,0,0,1-1.57-.62,11.18,11.18,0,0,1-1.46-.86,10.6,10.6,0,0,1-1.31-1.08,10.47,10.47,0,0,1-1.13-1.27,11.16,11.16,0,0,1-.91-1.43A12.06,12.06,0,0,1,279,108a11.26,11.26,0,0,1-.42-1.64,10.52,10.52,0,0,1-.16-1.69,10.65,10.65,0,0,1,.1-1.69,10.36,10.36,0,0,1,.37-1.65,9.78,9.78,0,0,1,.62-1.58c.25-.51.54-1,.68-1.25l.14-.24"/><path class="cls-39" d="M276.79,95.79l.25-.3c.25-.31.76-.92,1.3-1.48a14.61,14.61,0,0,1,1.77-1.57,15.23,15.23,0,0,1,4.16-2.21c.75-.26,1.51-.46,2.22-4.85s1.34-13,2.12-13,1.73,8.55,2.59,12.92,1.62,4.55,2.38,4.78a14.65,14.65,0,0,1,4.23,2.06,15.17,15.17,0,0,1,3.39,3.27,15.37,15.37,0,0,1,1.27,2,14.25,14.25,0,0,1,.94,2.16,14,14,0,0,1,.59,2.29,14.28,14.28,0,0,1,.23,2.35,14.61,14.61,0,0,1-.66,4.67,14.65,14.65,0,0,1-2.06,4.23,14.62,14.62,0,0,1-3.27,3.39,15.23,15.23,0,0,1-4.16,2.21,14,14,0,0,1-2.29.59,14.28,14.28,0,0,1-2.35.23,15,15,0,0,1-4.67-.65,17.34,17.34,0,0,1-2.2-.87,15.92,15.92,0,0,1-2-1.2,15.17,15.17,0,0,1-3.39-3.27,15.37,15.37,0,0,1-1.27-2,14.25,14.25,0,0,1-.94-2.16,14,14,0,0,1-.59-2.29,14.28,14.28,0,0,1-.23-2.35,15.5,15.5,0,0,1,.14-2.36,14.27,14.27,0,0,1,.52-2.31,15.92,15.92,0,0,1,.86-2.2c.35-.7.75-1.39.95-1.73l.2-.34"/><path class="cls-40" d="M271.74,92.26l.35-.43c.36-.43,1.07-1.29,1.84-2.09a20.84,20.84,0,0,1,2.49-2.2,21.09,21.09,0,0,1,2.8-1.79,22.33,22.33,0,0,1,3-1.33c1.05-.36,2.13-.64,3.18-3.17s2.08-7.33,3.19-7.35,2.3,4.74,3.44,7.23,2.23,2.74,3.29,3.07a21.64,21.64,0,0,1,3.1,1.21,22.85,22.85,0,0,1,2.86,1.69,21.76,21.76,0,0,1,2.57,2.12,20.84,20.84,0,0,1,2.2,2.49,21.09,21.09,0,0,1,1.79,2.8,22.88,22.88,0,0,1,1.33,3,21.14,21.14,0,0,1,.83,3.22,21.82,21.82,0,0,1,.32,3.32,20.5,20.5,0,0,1-.21,3.32,20.19,20.19,0,0,1-.72,3.24,21.64,21.64,0,0,1-1.21,3.1,22.85,22.85,0,0,1-1.69,2.86,21.76,21.76,0,0,1-2.12,2.57,20,20,0,0,1-2.49,2.2,21,21,0,0,1-9.07,4,21.34,21.34,0,0,1-6.64.12,22.6,22.6,0,0,1-3.24-.72,21,21,0,0,1-6-2.91,21.76,21.76,0,0,1-2.57-2.12,20,20,0,0,1-2.2-2.49,20.46,20.46,0,0,1-1.79-2.8,21,21,0,0,1-2.16-6.27,21.69,21.69,0,0,1-.32-3.31,20.43,20.43,0,0,1,.21-3.32,20.07,20.07,0,0,1,.72-3.25,21.64,21.64,0,0,1,1.21-3.1c.49-1,1.06-2,1.34-2.43l.28-.48"/><path class="cls-41" d="M270,91.05l.39-.48c.39-.47,1.17-1.41,2-2.29a23.25,23.25,0,0,1,2.74-2.42,22.75,22.75,0,0,1,3.09-2,23,23,0,0,1,6.89-2.37,23.46,23.46,0,0,1,7.29-.13,24.2,24.2,0,0,1,3.57.79,24.74,24.74,0,0,1,3.4,1.34,23.68,23.68,0,0,1,3.15,1.86,24.15,24.15,0,0,1,2.82,2.32,23.25,23.25,0,0,1,2.42,2.74,22.75,22.75,0,0,1,2,3.09,23,23,0,0,1,2.37,6.89,23.46,23.46,0,0,1,.13,7.29,24.2,24.2,0,0,1-.79,3.57,24.74,24.74,0,0,1-1.34,3.4,23.68,23.68,0,0,1-1.86,3.15,24.15,24.15,0,0,1-2.32,2.82,23.25,23.25,0,0,1-2.74,2.42,22.75,22.75,0,0,1-3.09,2,23.74,23.74,0,0,1-3.35,1.46c-1.15.39-2.34.7-3.45,6.25s-2.14,16.33-3.36,16.35-2.62-10.72-3.92-16.23-2.5-5.77-3.67-6.12a24.74,24.74,0,0,1-3.4-1.34,23.68,23.68,0,0,1-3.15-1.86,24.15,24.15,0,0,1-2.82-2.32,23.25,23.25,0,0,1-2.42-2.74,22.75,22.75,0,0,1-2-3.09,23.24,23.24,0,0,1-1.46-3.35,23.88,23.88,0,0,1-.91-3.54,23.46,23.46,0,0,1-.13-7.29,24.2,24.2,0,0,1,.79-3.57,24.74,24.74,0,0,1,1.34-3.4c.54-1.1,1.16-2.15,1.47-2.68l.31-.52"/><path class="cls-42" d="M268.07,89.69l.43-.52c.43-.52,1.29-1.56,2.22-2.53a24.67,24.67,0,0,1,3-2.66,25,25,0,0,1,3.39-2.17,26.2,26.2,0,0,1,3.69-1.6,25.11,25.11,0,0,1,3.9-1,26.83,26.83,0,0,1,4-.39,25.76,25.76,0,0,1,4,.25,26.52,26.52,0,0,1,3.93.87,26,26,0,0,1,7.21,3.52A26.27,26.27,0,0,1,307,86a24.67,24.67,0,0,1,2.66,3,25.13,25.13,0,0,1,3.77,7.08c.44,1.27.78,2.58,4.32,3.84s10.3,2.49,10.32,3.84-6.68,2.8-10.18,4.19-3.79,2.7-4.18,4a26,26,0,0,1-3.52,7.21,26.27,26.27,0,0,1-2.56,3.11,24.67,24.67,0,0,1-3,2.66,25.62,25.62,0,0,1-11,4.78,26.83,26.83,0,0,1-4,.39,25.76,25.76,0,0,1-4-.25,26.52,26.52,0,0,1-3.93-.87,25.51,25.51,0,0,1-3.74-1.48,24.64,24.64,0,0,1-3.47-2,26.27,26.27,0,0,1-3.11-2.56,25.34,25.34,0,0,1-2.66-3,25.75,25.75,0,0,1-2.17-3.4,25.87,25.87,0,0,1-2.61-7.59,26.83,26.83,0,0,1-.39-4,25.84,25.84,0,0,1,.25-4,26.52,26.52,0,0,1,.87-3.93,25.51,25.51,0,0,1,1.48-3.74c.58-1.21,1.27-2.37,1.61-3l.34-.58"/><path class="cls-43" d="M263.88,86.76l.52-.63c.51-.62,1.54-1.86,2.66-3a31.29,31.29,0,0,1,3.61-3.2,30.42,30.42,0,0,1,4.07-2.59,31,31,0,0,1,4.42-1.93,8,8,0,0,0,4.64-3c1.56-2.06,3.1-5.79,4.71-5.82s3.29,3.64,4.91,5.65a8.1,8.1,0,0,0,4.74,2.83,29.92,29.92,0,0,1,4.49,1.77,31.51,31.51,0,0,1,4.16,2.45,29.59,29.59,0,0,1,3.72,3.07,31.29,31.29,0,0,1,3.2,3.61,31,31,0,0,1,4.52,8.5,29.91,29.91,0,0,1,1.2,4.67,30.85,30.85,0,0,1,.47,4.8,30.73,30.73,0,0,1-3.11,14,31.51,31.51,0,0,1-2.45,4.16,29.59,29.59,0,0,1-3.07,3.72,31.29,31.29,0,0,1-3.61,3.2,30.42,30.42,0,0,1-4.07,2.59,31,31,0,0,1-4.42,1.93,31.53,31.53,0,0,1-4.68,1.21,32.1,32.1,0,0,1-4.8.46,30.73,30.73,0,0,1-14-3.11,30.45,30.45,0,0,1-4.16-2.45,29.59,29.59,0,0,1-3.72-3.07A30.46,30.46,0,0,1,262,118.9a31,31,0,0,1-1.93-4.42,30.32,30.32,0,0,1-1.2-4.68,30.85,30.85,0,0,1-.47-4.8,29.74,29.74,0,0,1,.3-4.81,30.53,30.53,0,0,1,2.81-9.2c.71-1.45,1.53-2.84,1.94-3.54l.4-.69"/><path class="cls-44" d="M262.16,85.55l.55-.67c.55-.66,1.64-2,2.84-3.23a32.21,32.21,0,0,1,3.86-3.42,32.42,32.42,0,0,1,9.07-4.82,17.28,17.28,0,0,0,5-2.2c1.67-1.21,3.36-3.2,5.08-3.23s3.47,1.9,5.19,3a17.15,17.15,0,0,0,5,2,34,34,0,0,1,4.79,1.89A32.35,32.35,0,0,1,308,77.56a32.87,32.87,0,0,1,4,3.28,32.21,32.21,0,0,1,3.42,3.86,32.42,32.42,0,0,1,4.82,9.07,33.25,33.25,0,0,1,1.29,5A32.43,32.43,0,0,1,321.7,109a33.47,33.47,0,0,1-1.11,5,34,34,0,0,1-1.89,4.79,32.59,32.59,0,0,1-5.9,8.42,32.21,32.21,0,0,1-3.86,3.42,32.42,32.42,0,0,1-9.07,4.82,33.25,33.25,0,0,1-5,1.29,32.43,32.43,0,0,1-10.28.18,33.47,33.47,0,0,1-5-1.11,34,34,0,0,1-4.79-1.89,33.07,33.07,0,0,1-4.45-2.62,31.86,31.86,0,0,1-4-3.28,32.21,32.21,0,0,1-3.42-3.86,32.42,32.42,0,0,1-4.82-9.07,33.25,33.25,0,0,1-1.29-5,32.43,32.43,0,0,1-.18-10.28,33.47,33.47,0,0,1,1.11-5,34,34,0,0,1,1.89-4.79c.76-1.55,1.63-3,2.07-3.78l.44-.74"/><path class="cls-45" d="M259.65,83.79l.6-.73c.6-.72,1.8-2.18,3.1-3.53a36.43,36.43,0,0,1,4.22-3.73,34.72,34.72,0,0,1,4.75-3,35.92,35.92,0,0,1,5.17-2.25,35.87,35.87,0,0,1,11.06-2,35.21,35.21,0,0,1,5.62.35,35.78,35.78,0,0,1,5.5,1.22,35.85,35.85,0,0,1,10.1,4.92,35.84,35.84,0,0,1,8.07,7.8,34.72,34.72,0,0,1,3,4.75,35.92,35.92,0,0,1,2.25,5.17,35.87,35.87,0,0,1,1.95,11.06,35.21,35.21,0,0,1-.35,5.62,37,37,0,0,1-1.21,5.5,36.35,36.35,0,0,1-2.07,5.24,35.37,35.37,0,0,1-2.86,4.86A36.36,36.36,0,0,1,315,129.4a37.48,37.48,0,0,1-4.22,3.74,36.19,36.19,0,0,1-9.92,5.27,36.34,36.34,0,0,1-5.45,1.41,35.66,35.66,0,0,1-11.23.19,35.76,35.76,0,0,1-5.5-1.21,36.24,36.24,0,0,1-10.1-4.93,36.36,36.36,0,0,1-4.34-3.58,37.48,37.48,0,0,1-3.74-4.22,36.19,36.19,0,0,1-5.27-9.92,50.36,50.36,0,0,0-1.95-5.44c-.88-1.84-2.15-3.7-2.18-5.58s1.17-3.78,2-5.65A47.3,47.3,0,0,0,254.84,94a36.35,36.35,0,0,1,2.07-5.24c.82-1.69,1.78-3.32,2.26-4.13l.48-.81"/><path class="cls-46" d="M257.18,82.06l.65-.79c.65-.79,1.94-2.36,3.36-3.83a39,39,0,0,1,4.57-4,39.14,39.14,0,0,1,10.75-5.72c1.93-.66,3.9-1.17,5.74-11s3.55-28.89,5.59-28.93,4.4,19,6.58,28.72,4.18,10.18,6.13,10.77a39.66,39.66,0,0,1,5.68,2.24,38.59,38.59,0,0,1,5.26,3.1,39.79,39.79,0,0,1,4.71,3.88,38.84,38.84,0,0,1,4,4.57A39.14,39.14,0,0,1,326,91.8a40.07,40.07,0,0,1,1.53,5.91,39.22,39.22,0,0,1,.21,12.17,39.14,39.14,0,0,1-1.32,6,39.66,39.66,0,0,1-2.24,5.68,38.59,38.59,0,0,1-3.1,5.26,38.08,38.08,0,0,1-3.88,4.71,38.68,38.68,0,0,1-9.72,7.33,39.15,39.15,0,0,1-5.6,2.43,40.07,40.07,0,0,1-5.91,1.53,39.22,39.22,0,0,1-12.17.21,39.14,39.14,0,0,1-6-1.32,39.66,39.66,0,0,1-5.68-2.24,38.59,38.59,0,0,1-5.26-3.1,39,39,0,0,1-8.76-8.45,40.06,40.06,0,0,1-3.28-5.15,39.15,39.15,0,0,1-2.43-5.6,39.75,39.75,0,0,1-1.53-5.91,39.22,39.22,0,0,1-.21-12.17,39.14,39.14,0,0,1,1.32-6,39.66,39.66,0,0,1,2.24-5.68c.89-1.83,1.93-3.59,2.45-4.47l.52-.88"/><path class="cls-47" d="M256.44,81.54l.66-.8c.67-.81,2-2.42,3.44-3.92a39.76,39.76,0,0,1,15.68-10,39.39,39.39,0,0,1,6-1.56,40.68,40.68,0,0,1,6.22-.6,39.85,39.85,0,0,1,12.33,1.73,39.84,39.84,0,0,1,5.81,2.29A39.14,39.14,0,0,1,312,71.86a40.84,40.84,0,0,1,4.82,4,39.76,39.76,0,0,1,10,15.68,39.39,39.39,0,0,1,1.56,6,40.68,40.68,0,0,1,.6,6.22,39.85,39.85,0,0,1-1.73,12.33,40,40,0,0,1-5.46,11.2,40.73,40.73,0,0,1-4,4.81,39.76,39.76,0,0,1-15.68,10,39.39,39.39,0,0,1-6,1.56,38.31,38.31,0,0,1-6.22.6,39.85,39.85,0,0,1-12.33-1.73,39.84,39.84,0,0,1-5.81-2.29,38.15,38.15,0,0,1-5.38-3.17,39.76,39.76,0,0,1-14.81-19.65c-.68-2-1.2-4-8.06-5.93s-20-3.79-20.08-5.88,13.08-4.39,19.86-6.57,7.24-4.22,7.85-6.21A40.3,40.3,0,0,1,253.4,87c.91-1.88,2-3.68,2.51-4.58l.53-.9"/><path class="cls-48" d="M246.34,74.47l.87-1c.87-1.06,2.61-3.17,4.5-5.13a52.48,52.48,0,0,1,6.13-5.41,51.51,51.51,0,0,1,6.89-4.39,50.79,50.79,0,0,1,7.49-3.26,51.64,51.64,0,0,1,7.91-2,52.91,52.91,0,0,1,8.14-.78A52,52,0,0,1,319,61.81a50.68,50.68,0,0,1,6.31,5.2,51.59,51.59,0,0,1,5.41,6.12A50.53,50.53,0,0,1,335.15,80a52.11,52.11,0,0,1,5.31,15.4,52.91,52.91,0,0,1,.78,8.14A52.09,52.09,0,0,1,339,119.69a50.6,50.6,0,0,1-3,7.6,51.8,51.8,0,0,1-4.15,7,50.68,50.68,0,0,1-5.2,6.31,51.59,51.59,0,0,1-6.12,5.41,51.46,51.46,0,0,1-14.38,7.65,52,52,0,0,1-24.2,2.33,53.11,53.11,0,0,1-8-1.76,51.74,51.74,0,0,1-7.6-3,50.78,50.78,0,0,1-7-4.15,51.5,51.5,0,0,1-6.31-5.19,53.21,53.21,0,0,1-5.41-6.12,51.26,51.26,0,0,1-4.39-6.9,49.76,49.76,0,0,1-3.26-7.49c-.89-2.58-1.58-5.23-6.69-7.83s-14.66-5.17-14.7-7.89,9.4-5.62,14.42-8.4,5.61-5.45,6.4-8.06a51.74,51.74,0,0,1,3-7.6c1.2-2.45,2.58-4.81,3.28-6l.69-1.18"/><path class="cls-49" d="M245.86,74.14l.88-1.07c.88-1.07,2.64-3.2,4.56-5.18a51.85,51.85,0,0,1,6.18-5.48,53,53,0,0,1,7-4.44,52.93,52.93,0,0,1,23.81-6.16,54.12,54.12,0,0,1,8.24.51,52.82,52.82,0,0,1,34.73,20.45,53,53,0,0,1,4.44,7A52.45,52.45,0,0,1,339,87.32a51.66,51.66,0,0,1,2.07,8,52.11,52.11,0,0,1,.29,16.47,52.78,52.78,0,0,1-9,22.88,52.59,52.59,0,0,1-50.46,21.94,51.93,51.93,0,0,1-8.07-1.79A52.12,52.12,0,0,1,259,147.6a52.72,52.72,0,0,1-19.59-26c-.89-2.61-1.59-5.29-3.57-8s-5.24-5.39-5.29-8.15,3.12-5.57,5-8.33,2.48-5.45,3.29-8.09a51.82,51.82,0,0,1,3-7.69c1.2-2.48,2.61-4.86,3.31-6l.7-1.19"/><path class="cls-50" d="M127.34,100.53l.18-.22c.18-.22.54-.65.93-1a10.15,10.15,0,0,1,2.67-2,10.54,10.54,0,0,1,1.54-.67,11.34,11.34,0,0,1,1.62-.42A10.61,10.61,0,0,1,136,96a10.36,10.36,0,0,1,3.31.47,10.52,10.52,0,0,1,1.56.61,11,11,0,0,1,1.45.85A10.17,10.17,0,0,1,143.57,99a10.29,10.29,0,0,1,1.12,1.26,11.6,11.6,0,0,1,.9,1.41,11,11,0,0,1,.67,1.54c.18.53.32,1.08,4.93,1.55s13.67.88,13.68,1.44-9,1.27-13.63,1.91-4.7,1.18-4.87,1.72a11.45,11.45,0,0,1-.61,1.56,11.58,11.58,0,0,1-.85,1.44,10.52,10.52,0,0,1-2.33,2.41,10,10,0,0,1-1.42.9,9.86,9.86,0,0,1-1.53.67,9.29,9.29,0,0,1-1.63.42,10.38,10.38,0,0,1-1.67.16,10.53,10.53,0,0,1-1.68-.1,11.72,11.72,0,0,1-1.64-.36,11.51,11.51,0,0,1-1.56-.62,9.9,9.9,0,0,1-1.44-.85,10.27,10.27,0,0,1-1.3-1.07,10.91,10.91,0,0,1-1.11-1.25,10.6,10.6,0,0,1-.9-1.42,9.56,9.56,0,0,1-.67-1.54,9.07,9.07,0,0,1-.42-1.63,10.39,10.39,0,0,1-.17-1.67,11.62,11.62,0,0,1,.11-1.67,11.13,11.13,0,0,1,.36-1.64,9.56,9.56,0,0,1,.62-1.56c.24-.51.53-1,.67-1.23l.14-.24"/><path class="cls-51" d="M123.67,98l.26-.31c.25-.31.76-.92,1.31-1.49A15.7,15.7,0,0,1,127,94.58a15.54,15.54,0,0,1,2-1.28,14.48,14.48,0,0,1,2.18-.94c.75-.26,1.52-.46,2.22-5.1s1.34-13.7,2.13-13.71,1.75,9,2.61,13.63,1.64,4.78,2.4,5a14.93,14.93,0,0,1,4.27,2.08,15.62,15.62,0,0,1,1.83,1.51,15.8,15.8,0,0,1,1.58,1.79,15.37,15.37,0,0,1,1.27,2,14.53,14.53,0,0,1,.95,2.18,15.07,15.07,0,0,1,.6,2.31,15.59,15.59,0,0,1,.23,2.36,15.77,15.77,0,0,1-.15,2.38,15.5,15.5,0,0,1-.51,2.32,16.91,16.91,0,0,1-.87,2.21,16.22,16.22,0,0,1-1.21,2,14.57,14.57,0,0,1-3.3,3.41,14.44,14.44,0,0,1-2,1.28,15.62,15.62,0,0,1-2.18,1,14,14,0,0,1-2.31.59,14.4,14.4,0,0,1-2.36.23,14.56,14.56,0,0,1-2.38-.14,15.54,15.54,0,0,1-2.32-.52,15,15,0,0,1-4.26-2.08,14.8,14.8,0,0,1-3.41-3.29,14.54,14.54,0,0,1-1.28-2,15.62,15.62,0,0,1-1-2.18,14.12,14.12,0,0,1-.59-2.3,15.28,15.28,0,0,1-.09-4.74,15.58,15.58,0,0,1,1.39-4.54c.35-.71.75-1.4,1-1.74l.2-.34"/><path class="cls-52" d="M122.34,97l.28-.34c.28-.34.84-1,1.45-1.65a16.24,16.24,0,0,1,2-1.74,17.38,17.38,0,0,1,2.22-1.42,17.87,17.87,0,0,1,2.42-1.05,17,17,0,0,1,2.55-.66,16.91,16.91,0,0,1,5.25-.09,16.16,16.16,0,0,1,2.57.57,17.23,17.23,0,0,1,4.72,2.3,16.89,16.89,0,0,1,3.77,3.65A16.08,16.08,0,0,1,151,98.81a17.75,17.75,0,0,1,1,2.41,18.72,18.72,0,0,1,.66,2.55,16.91,16.91,0,0,1,.09,5.25,16.16,16.16,0,0,1-.57,2.57,17.23,17.23,0,0,1-2.3,4.72,17.24,17.24,0,0,1-1.68,2,16.32,16.32,0,0,1-2,1.75A16,16,0,0,1,144,121.5a15.56,15.56,0,0,1-2.41,1,6.22,6.22,0,0,0-2.54,1.3c-.86.78-1.71,2.13-2.59,2.15s-1.78-1.31-2.66-2.06a6.27,6.27,0,0,0-2.58-1.21,16.5,16.5,0,0,1-4.72-2.3,16.88,16.88,0,0,1-3.78-3.64,16.74,16.74,0,0,1-1.41-2.23,15.15,15.15,0,0,1-1-2.41,15.92,15.92,0,0,1-.66-2.55,16.13,16.13,0,0,1-.09-5.25,16.16,16.16,0,0,1,.57-2.57,16.6,16.6,0,0,1,1-2.45c.39-.79.83-1.55,1.06-1.93l.22-.38"/><path class="cls-53" d="M118.45,94.3l.36-.44c.36-.43,1.08-1.3,1.86-2.12a21.47,21.47,0,0,1,2.53-2.23A21.72,21.72,0,0,1,126,87.69a23,23,0,0,1,3.1-1.34c1.06-.37,2.16-.65,3.17-6.28s1.95-16.62,3.08-16.64S137.83,74.35,139,80s2.31,5.84,3.39,6.17a21.06,21.06,0,0,1,6,2.95,21.27,21.27,0,0,1,2.6,2.14,22.39,22.39,0,0,1,2.24,2.53,20.17,20.17,0,0,1,1.81,2.85,21.44,21.44,0,0,1,2.2,6.36,22.35,22.35,0,0,1,.32,3.36,21,21,0,0,1-.21,3.37,20.68,20.68,0,0,1-.73,3.3,22.7,22.7,0,0,1-1.23,3.14,21.7,21.7,0,0,1-1.72,2.9,19.88,19.88,0,0,1-2.15,2.61,21.46,21.46,0,0,1-2.52,2.24,22.86,22.86,0,0,1-2.85,1.81,21.37,21.37,0,0,1-3.1,1.35,22.6,22.6,0,0,1-3.26.84,21.11,21.11,0,0,1-3.36.32,22.26,22.26,0,0,1-3.37-.2,21.84,21.84,0,0,1-3.3-.73,21.36,21.36,0,0,1-8.65-5.1,21.55,21.55,0,0,1-2.24-2.53,22.75,22.75,0,0,1-1.81-2.84,22.36,22.36,0,0,1-1.35-3.1,21.49,21.49,0,0,1-.84-3.27,19.91,19.91,0,0,1-.32-3.36,21.18,21.18,0,0,1,.2-3.37,21.4,21.4,0,0,1,2-6.43c.49-1,1.07-2,1.35-2.47l.29-.49"/><path class="cls-54" d="M118.14,94.08l.36-.44c.37-.45,1.1-1.33,1.9-2.16a22.09,22.09,0,0,1,5.47-4.12A21,21,0,0,1,129,86a22.17,22.17,0,0,1,3.32-.86,21.86,21.86,0,0,1,6.85-.12,21.72,21.72,0,0,1,9.51,3.75,22.08,22.08,0,0,1,2.65,2.18,23.05,23.05,0,0,1,2.27,2.57,22.59,22.59,0,0,1,1.85,2.9,21.43,21.43,0,0,1,1.37,3.15,22.3,22.3,0,0,1,.86,3.33,22,22,0,0,1-1.88,13.39,22.56,22.56,0,0,1-1.75,3,21.33,21.33,0,0,1-2.18,2.65,22.17,22.17,0,0,1-2.57,2.28,22.16,22.16,0,0,1-6,3.21c-1.09.38-2.2.66-3.27,4.3s-2.09,10.63-3.24,10.65-2.41-6.93-3.6-10.53-2.32-3.84-3.42-4.18a23,23,0,0,1-3.19-1.26,21.6,21.6,0,0,1-5.61-3.93,20.63,20.63,0,0,1-2.28-2.57,21.28,21.28,0,0,1-1.85-2.9,22,22,0,0,1-1.36-3.15,20,20,0,0,1-.86-3.32,21.86,21.86,0,0,1-.12-6.85,21.8,21.8,0,0,1,2-6.55c.5-1,1.08-2,1.38-2.51l.29-.5"/><path class="cls-55" d="M116.37,92.84l.4-.49c.4-.48,1.21-1.46,2.08-2.36a23.89,23.89,0,0,1,2.82-2.5,23.57,23.57,0,0,1,3.19-2A24.44,24.44,0,0,1,132,83a23.57,23.57,0,0,1,3.75-.36,25,25,0,0,1,3.77.23,24.3,24.3,0,0,1,7.19,2.2A23.11,23.11,0,0,1,149.93,87a23.65,23.65,0,0,1,5.41,5.22,24.2,24.2,0,0,1,4.48,10.29A24.12,24.12,0,0,1,160,110a24.57,24.57,0,0,1-.82,3.69,25.06,25.06,0,0,1-1.38,3.51,24.21,24.21,0,0,1-4.32,6.16,24.82,24.82,0,0,1-2.82,2.5,25.11,25.11,0,0,1-3.18,2,23.68,23.68,0,0,1-7.11,2.45,24.12,24.12,0,0,1-7.52.13,24.54,24.54,0,0,1-3.69-.81,24.48,24.48,0,0,1-6.76-3.3,24.73,24.73,0,0,1-2.91-2.4,24.09,24.09,0,0,1-2.5-2.83,24.42,24.42,0,0,1-2-3.18,24.15,24.15,0,0,1-1.51-3.46c-.41-1.19-.72-2.41-4.06-3.59s-9.69-2.34-9.71-3.6,6.29-2.62,9.58-3.92,3.57-2.54,3.93-3.74a23.09,23.09,0,0,1,1.39-3.51c.55-1.13,1.19-2.22,1.51-2.76l.32-.55"/><path class="cls-56" d="M115.86,92.49l.41-.5c.41-.5,1.24-1.5,2.14-2.43A23.41,23.41,0,0,1,121.3,87a23.78,23.78,0,0,1,3.27-2.08,24.19,24.19,0,0,1,3.54-1.55c1.23-.42,2.48-.74,3.62-8.56s2.16-23.13,3.45-23.15,2.85,15.24,4.26,23,2.68,8,3.91,8.43a24.26,24.26,0,0,1,3.6,1.42,23.64,23.64,0,0,1,3.33,2,24.35,24.35,0,0,1,5.55,5.36,23.67,23.67,0,0,1,2.08,3.26,24.3,24.3,0,0,1,1.55,3.55,24,24,0,0,1,1,3.75,24.92,24.92,0,0,1,.14,7.71,24.68,24.68,0,0,1-2.26,7.38,24.75,24.75,0,0,1-4.42,6.32,26.15,26.15,0,0,1-2.9,2.56,24.66,24.66,0,0,1-3.26,2.08,24.81,24.81,0,0,1-7.3,2.51,24.52,24.52,0,0,1-7.71.13,24.28,24.28,0,0,1-7.38-2.25,25.12,25.12,0,0,1-6.32-4.43,25.18,25.18,0,0,1-2.56-2.89,25.44,25.44,0,0,1-2.08-3.27,24.88,24.88,0,0,1-1.54-3.55,24.18,24.18,0,0,1-1-3.74,24.52,24.52,0,0,1-.13-7.71A24.28,24.28,0,0,1,114,95.88c.57-1.16,1.22-2.28,1.55-2.84l.33-.55"/><path class="cls-57" d="M113.92,91.13l.45-.55c.45-.55,1.36-1.64,2.34-2.66a26.43,26.43,0,0,1,3.17-2.81,27.8,27.8,0,0,1,3.58-2.28,27.38,27.38,0,0,1,3.89-1.69,6.53,6.53,0,0,0,4.07-2.87c1.36-2,2.71-5.81,4.12-5.83s2.9,3.68,4.33,5.69A6.54,6.54,0,0,0,144,80.85,27.83,27.83,0,0,1,148,82.41a26.78,26.78,0,0,1,3.66,2.15A26.88,26.88,0,0,1,160,94a27.38,27.38,0,0,1,2.76,8,27,27,0,0,1,.4,4.22,26.05,26.05,0,0,1-.26,4.23,26.84,26.84,0,0,1-.91,4.14,27.83,27.83,0,0,1-1.56,3.94,27.29,27.29,0,0,1-2.15,3.65,25.63,25.63,0,0,1-2.7,3.27,26.43,26.43,0,0,1-3.17,2.81,26.76,26.76,0,0,1-3.58,2.28,27.26,27.26,0,0,1-3.88,1.69,26.38,26.38,0,0,1-4.11,1.06,26.82,26.82,0,0,1-8.45.15,28.1,28.1,0,0,1-4.14-.92A26.63,26.63,0,0,1,124.3,131a26.87,26.87,0,0,1-6.92-4.85,26.52,26.52,0,0,1-2.81-3.18,26,26,0,0,1-2.28-3.57,27.38,27.38,0,0,1-1.69-3.89,26.55,26.55,0,0,1-1.06-4.1,26.82,26.82,0,0,1-.15-8.45,26.62,26.62,0,0,1,.92-4.14,27.19,27.19,0,0,1,1.55-4c.62-1.27,1.34-2.49,1.7-3.1l.36-.61"/><path class="cls-58" d="M109.34,87.92l.54-.66c.55-.66,1.64-2,2.82-3.21a32.33,32.33,0,0,1,8.14-6.13,32.45,32.45,0,0,1,4.69-2c1.62-.56,3.27-1,4.95-1.71s3.36-1.75,5.06-1.78,3.43.94,5.13,1.6,3.37,1,5,1.54A32.11,32.11,0,0,1,154.83,80a31.44,31.44,0,0,1,3.95,3.25A32.64,32.64,0,0,1,167,96.08a31.29,31.29,0,0,1,1.28,5,32.66,32.66,0,0,1,.18,10.19,32.7,32.7,0,0,1-1.11,5,32,32,0,0,1-1.87,4.76,32.6,32.6,0,0,1-5.85,8.35,32.46,32.46,0,0,1-3.83,3.39,31.78,31.78,0,0,1-4.31,2.75,32.58,32.58,0,0,1-14.73,3.81,32.2,32.2,0,0,1-5.1-.32,31.52,31.52,0,0,1-5-1.1,32,32,0,0,1-4.76-1.88,31.43,31.43,0,0,1-4.41-2.59,32.4,32.4,0,0,1-3.94-3.25,33.28,33.28,0,0,1-3.39-3.83,32.52,32.52,0,0,1-2.75-4.32,33,33,0,0,1-2-4.68,34,34,0,0,1-1.28-5,32.71,32.71,0,0,1-.18-10.2,32.56,32.56,0,0,1,3-9.75c.74-1.53,1.61-3,2-3.74l.43-.74"/><path class="cls-59" d="M109.18,87.81l.54-.67c.55-.66,1.65-2,2.84-3.23a33.14,33.14,0,0,1,8.19-6.17,34,34,0,0,1,4.72-2,32.88,32.88,0,0,1,15.23-1.47,32.06,32.06,0,0,1,5,1.12A32.86,32.86,0,0,1,155,79.83a34.48,34.48,0,0,1,4,3.27,33.66,33.66,0,0,1,3.4,3.86,32.23,32.23,0,0,1,2.77,4.34,32.77,32.77,0,0,1,3.34,9.69,33.1,33.1,0,0,1,.18,10.26,33.33,33.33,0,0,1-3,9.81,34.53,34.53,0,0,1-2.61,4.43,32,32,0,0,1-3.28,4,32.82,32.82,0,0,1-3.85,3.41,32.17,32.17,0,0,1-4.34,2.76,31.21,31.21,0,0,1-4.71,2.05,32.94,32.94,0,0,1-5,1.29,32.24,32.24,0,0,1-10.25.18,32.56,32.56,0,0,1-9.81-3A32.83,32.83,0,0,1,110,126.42a33.26,33.26,0,0,1-4.82-9.06,20.79,20.79,0,0,0-2.07-5c-1.08-1.67-2.81-3.36-2.84-5.08s1.64-3.46,2.66-5.17a20.74,20.74,0,0,0,1.9-5,31.67,31.67,0,0,1,1.89-4.78c.75-1.55,1.62-3,2.06-3.77l.44-.74"/><path class="cls-60" d="M107.48,86.62l.58-.71c.58-.7,1.75-2.12,3-3.43a34.37,34.37,0,0,1,4.09-3.62,35.26,35.26,0,0,1,4.61-2.94,33.85,33.85,0,0,1,5-2.18,7.92,7.92,0,0,0,5.24-4c1.75-3,3.48-8.48,5.31-8.51s3.74,5.4,5.6,8.32a7.93,7.93,0,0,0,5.38,3.84,35.19,35.19,0,0,1,9.8,4.78A34.67,34.67,0,0,1,164,85.72a34.61,34.61,0,0,1,2.94,4.61,34.2,34.2,0,0,1,2.18,5,35.86,35.86,0,0,1,1.37,5.3,34.09,34.09,0,0,1,.52,5.44,35.66,35.66,0,0,1-.33,5.46,35.13,35.13,0,0,1-1.18,5.34,35.77,35.77,0,0,1-2,5.08,35.23,35.23,0,0,1-2.77,4.71,34.69,34.69,0,0,1-12.19,10.78,35.35,35.35,0,0,1-5,2.19,34.63,34.63,0,0,1-5.3,1.36,34.36,34.36,0,0,1-10.9.19A35.13,35.13,0,0,1,126,140a34.57,34.57,0,0,1-5.08-2,35,35,0,0,1-4.72-2.78,34.12,34.12,0,0,1-4.21-3.48,33.59,33.59,0,0,1-3.63-4.09,35.26,35.26,0,0,1-2.94-4.61,35,35,0,0,1-3.55-10.31,35.16,35.16,0,0,1-.19-10.9,34.63,34.63,0,0,1,1.19-5.34,34.25,34.25,0,0,1,2-5.09c.8-1.64,1.73-3.22,2.2-4l.46-.79"/><path class="cls-61" d="M106.83,86.16l.6-.72c.59-.72,1.78-2.16,3.08-3.51a35.09,35.09,0,0,1,4.19-3.7A35.29,35.29,0,0,1,124.54,73a8.62,8.62,0,0,0,5.37-3.76c1.8-2.68,3.58-7.59,5.45-7.62s3.81,4.81,5.7,7.43,3.72,3,5.5,3.57a35.67,35.67,0,0,1,10,4.89,36.72,36.72,0,0,1,4.32,3.55,35.89,35.89,0,0,1,3.7,4.19,35.54,35.54,0,0,1,5.24,9.85,37,37,0,0,1,1.4,5.41,36,36,0,0,1,.19,11.15,36.74,36.74,0,0,1-1.21,5.46,36.23,36.23,0,0,1-2.05,5.2,35.84,35.84,0,0,1-2.84,4.82,35.62,35.62,0,0,1-7.74,8,36.21,36.21,0,0,1-4.72,3,35.36,35.36,0,0,1-5.13,2.23,34.66,34.66,0,0,1-5.41,1.4,37.12,37.12,0,0,1-5.57.54,36,36,0,0,1-5.58-.35,34.14,34.14,0,0,1-5.46-1.21,35.29,35.29,0,0,1-10-4.88,35,35,0,0,1-4.31-3.56,36.92,36.92,0,0,1-3.71-4.19,35.62,35.62,0,0,1-5.23-9.84,35.07,35.07,0,0,1-1.4-5.42,35.48,35.48,0,0,1-.2-11.14,35.55,35.55,0,0,1,3.26-10.66c.82-1.68,1.77-3.29,2.25-4.1l.47-.81"/><path class="cls-62" d="M106.7,86.07l.6-.72c.6-.73,1.79-2.18,3.1-3.53a37.11,37.11,0,0,1,4.2-3.72,36.5,36.5,0,0,1,4.74-3,35.64,35.64,0,0,1,5.15-2.24,8.24,8.24,0,0,0,5.39-4.07c1.8-3,3.58-8.5,5.45-8.53s3.84,5.41,5.75,8.33a8.21,8.21,0,0,0,5.53,3.88,36.06,36.06,0,0,1,5.22,2.06A35.73,35.73,0,0,1,161,80.94a35.53,35.53,0,0,1,3.73,4.21A35.9,35.9,0,0,1,170,95a36.85,36.85,0,0,1,1.41,5.44,37.52,37.52,0,0,1,.54,5.59,35.08,35.08,0,0,1-.35,5.61,35.51,35.51,0,0,1-1.21,5.48,36.64,36.64,0,0,1-2.06,5.23,35.82,35.82,0,0,1-15.37,15.91,35.86,35.86,0,0,1-21.78,3.84,36.38,36.38,0,0,1-10.71-3.27,37.9,37.9,0,0,1-4.84-2.85,37.07,37.07,0,0,1-4.33-3.58,35.67,35.67,0,0,1-6.74-8.94,35.64,35.64,0,0,1-2.24-5.15,35.35,35.35,0,0,1-1.94-11,35,35,0,0,1,.34-5.6,36.57,36.57,0,0,1,1.21-5.49A36.06,36.06,0,0,1,104,91c.82-1.69,1.78-3.31,2.26-4.12l.47-.81"/><path class="cls-63" d="M105.33,85.11l.62-.76c.63-.76,1.88-2.28,3.24-3.69a37.88,37.88,0,0,1,4.41-3.89,37.07,37.07,0,0,1,5-3.16,37.36,37.36,0,0,1,11.09-3.82,37,37,0,0,1,5.85-.56,38.48,38.48,0,0,1,5.87.36,37.72,37.72,0,0,1,5.74,1.27,37.43,37.43,0,0,1,19,13.28,37.83,37.83,0,0,1,3.16,5,36.74,36.74,0,0,1,2.34,5.39,37,37,0,0,1,2,11.54,38.4,38.4,0,0,1-.36,5.87,37.66,37.66,0,0,1-6.41,16.28,38.61,38.61,0,0,1-3.74,4.53,37.87,37.87,0,0,1-4.4,3.9,38.9,38.9,0,0,1-5,3.16,37.84,37.84,0,0,1-5.39,2.34,37.44,37.44,0,0,1-5.69,1.47,38,38,0,0,1-11.72.21,37.48,37.48,0,0,1-5.74-1.28,36.75,36.75,0,0,1-5.47-2.15,37.06,37.06,0,0,1-9.6-6.72,38,38,0,0,1-3.9-4.41,37.07,37.07,0,0,1-3.16-4.95,38,38,0,0,1-2.34-5.4,14,14,0,0,0-2.88-5.66c-1.74-1.91-4.74-3.82-4.77-5.78s2.89-4,4.57-5.94a14.18,14.18,0,0,0,2.68-5.77,37.63,37.63,0,0,1,2.15-5.47c.86-1.76,1.86-3.45,2.36-4.3l.5-.85"/><path class="cls-64" d="M92.92,76.42l.87-1.07c.88-1.06,2.64-3.19,4.55-5.17a52.37,52.37,0,0,1,13.13-9.89A51.14,51.14,0,0,1,119,57a52.42,52.42,0,0,1,16.19-2.86,51.6,51.6,0,0,1,8.24.51,52.4,52.4,0,0,1,15.72,4.8,52.71,52.71,0,0,1,13.47,9.43,51.68,51.68,0,0,1,5.46,6.18,52.71,52.71,0,0,1,4.43,7,51.26,51.26,0,0,1,3.29,7.57,51.22,51.22,0,0,0,3,8c1.45,2.7,3.65,5.41,3.7,8.16s-2.06,5.54-3.41,8.28a50.34,50.34,0,0,0-2.75,8.07,53.81,53.81,0,0,1-3,7.67,52.21,52.21,0,0,1-4.19,7.11,52.48,52.48,0,0,1-33.92,21.61,52.71,52.71,0,0,1-16.44.29,51.43,51.43,0,0,1-8.05-1.79,52.09,52.09,0,0,1-7.68-3,52.65,52.65,0,0,1-7.1-4.18,51.71,51.71,0,0,1-6.36-5.25,52.57,52.57,0,0,1-9.9-13.13,53.34,53.34,0,0,1-3.29-7.56,52.66,52.66,0,0,1-2.06-8,51.3,51.3,0,0,1-.79-8.21,52.73,52.73,0,0,1,.5-8.23,52.8,52.8,0,0,1,4.81-15.72c1.2-2.47,2.6-4.85,3.3-6l.71-1.19"/></g></g></svg>