<svg xmlns="http://www.w3.org/2000/svg" viewBox="0 0 599.76 130.76"><defs><style>.cls-1,.cls-10,.cls-11,.cls-12,.cls-13,.cls-14,.cls-15,.cls-16,.cls-17,.cls-18,.cls-19,.cls-2,.cls-20,.cls-21,.cls-22,.cls-23,.cls-24,.cls-25,.cls-26,.cls-27,.cls-28,.cls-29,.cls-3,.cls-30,.cls-31,.cls-32,.cls-33,.cls-34,.cls-35,.cls-36,.cls-37,.cls-38,.cls-39,.cls-4,.cls-40,.cls-41,.cls-42,.cls-43,.cls-44,.cls-45,.cls-46,.cls-47,.cls-48,.cls-49,.cls-5,.cls-50,.cls-51,.cls-52,.cls-53,.cls-54,.cls-55,.cls-56,.cls-57,.cls-58,.cls-59,.cls-6,.cls-60,.cls-61,.cls-62,.cls-63,.cls-64,.cls-7,.cls-8,.cls-9{isolation:isolate;}.cls-10,.cls-11,.cls-12,.cls-13,.cls-14,.cls-15,.cls-16,.cls-17,.cls-18,.cls-19,.cls-2,.cls-20,.cls-21,.cls-22,.cls-23,.cls-24,.cls-25,.cls-26,.cls-27,.cls-28,.cls-29,.cls-3,.cls-30,.cls-31,.cls-32,.cls-33,.cls-34,.cls-35,.cls-36,.cls-37,.cls-38,.cls-39,.cls-4,.cls-40,.cls-41,.cls-42,.cls-43,.cls-44,.cls-45,.cls-46,.cls-47,.cls-48,.cls-49,.cls-5,.cls-50,.cls-51,.cls-52,.cls-53,.cls-54,.cls-55,.cls-56,.cls-57,.cls-58,.cls-59,.cls-6,.cls-60,.cls-61,.cls-62,.cls-63,.cls-64,.cls-7,.cls-8,.cls-9{fill:none;stroke:#000;opacity:0.7;}.cls-2{stroke-width:0.78px;}.cls-3{stroke-width:0.34px;}.cls-4{stroke-width:0.32px;}.cls-5{stroke-width:0.31px;}.cls-6{stroke-width:0.49px;}.cls-7{stroke-width:0.5px;}.cls-8{stroke-width:1.58px;}.cls-9{stroke-width:1.59px;}.cls-10{stroke-width:0.25px;}.cls-11{stroke-width:0.27px;}.cls-12{stroke-width:0.31px;}.cls-13{stroke-width:0.09px;}.cls-14{stroke-width:1.61px;}.cls-15{stroke-width:0.5px;}.cls-16{stroke-width:0.56px;}.cls-17{stroke-width:0.38px;}.cls-18{stroke-width:0.54px;}.cls-19{stroke-width:0.35px;}.cls-20{stroke-width:0.79px;}.cls-21{stroke-width:0.56px;}.cls-22{stroke-width:0.34px;}.cls-23{stroke-width:1.11px;}.cls-24{stroke-width:0.13px;}.cls-25{stroke-width:0.76px;}.cls-26{stroke-width:1.13px;}.cls-27{stroke-width:0.63px;}.cls-28{stroke-width:0.66px;}.cls-29{stroke-width:0.7px;}.cls-30{stroke-width:0.35px;}.cls-31{stroke-width:0.16px;}.cls-32{stroke-width:0.72px;}.cls-33{stroke-width:0.11px;}.cls-34{stroke-width:0.75px;}.cls-35{stroke-width:0.51px;}.cls-36{stroke-width:0.98px;}.cls-37{stroke-width:0.12px;}.cls-38{stroke-width:0.2px;}.cls-39{stroke-width:0.9px;}.cls-40{stroke-width:0.7px;}.cls-41{stroke-width:0.5px;}.cls-42{stroke-width:0.27px;}.cls-43{stroke-width:1.2px;}.cls-44{stroke-width:0.99px;}.cls-45{stroke-width:0.09px;}.cls-46{stroke-width:0.17px;}.cls-47{stroke-width:0.19px;}.cls-48{stroke-width:1.64px;}.cls-49{stroke-width:1.62px;}.cls-50{stroke-width:0.95px;}.cls-51{stroke-width:0.95px;}.cls-52{stroke-width:0.74px;}.cls-53{stroke-width:0.56px;}.cls-54{stroke-width:0.26px;}.cls-55{stroke-width:1.15px;}.cls-56{stroke-width:0.73px;}.cls-57{stroke-width:0.35px;}.cls-58{stroke-width:1.07px;}.cls-59{stroke-width:0.93px;}.cls-60{stroke-width:0.38px;}.cls-61{stroke-width:0.38px;}.cls-62{stroke-width:0.51px;}.cls-63{stroke-width:0.15px;}.cls-64{stroke-width:0.5px;}</style></defs><title>Asset 101artifact-radials</title><g id="Layer_2" data-name="Layer 2"><g id="Layer_1-2" data-name="Layer 1"><g id="Head" class="cls-1"><g class="cls-1"><path d="M5.83,123.29v5.38l0,.05h.75v.45H4.24v-.45H5l0-.05V126H1.64v2.71l.05.05h.75v.45H.05v-.45H.8l0-.05v-5.38l-.85-.5v-.1H2.54v.1l-.9.5v2.22H5v-2.22l-.89-.5v-.1H6.68v.1Z"/><path d="M10.94,127H8.19c0,1.3.69,1.78,1.59,1.78a2.23,2.23,0,0,0,1-.25l.11.21a2.29,2.29,0,0,1-1.54.58,1.92,1.92,0,0,1-1.95-2.05,2.09,2.09,0,0,1,2-2.25A1.49,1.49,0,0,1,11,126.61C11,126.72,11,126.83,10.94,127Zm-2.73-.36h2c0-.83-.32-1.21-.86-1.21S8.31,125.69,8.21,126.59Z"/><path d="M15.32,128.72v.45H14v-.41a2.36,2.36,0,0,1-1.31.51.93.93,0,0,1-1-1c0-.91,1-1.25,2.31-1.31v-.31c0-.79-.18-1.17-.91-1.17a2,2,0,0,0-1.15.38l-.13-.24a2.11,2.11,0,0,1,1.55-.68,1.22,1.22,0,0,1,1.34,1.31v2.38l.05.05ZM14,128.58v-1.26c-.85.06-1.6.2-1.6.86,0,.39.27.57.64.57A3.07,3.07,0,0,0,14,128.58Z"/><path d="M20.51,128.72v.45h-1.4v-.48a3.08,3.08,0,0,1-1.54.58c-1,0-1.57-1-1.57-2A2.08,2.08,0,0,1,18.08,125a2.35,2.35,0,0,1,1,.21V123l-.66-.32v0l1.3-.62.06,0v6.64l.05.05Zm-1.4-.19V126a1.19,1.19,0,0,0-1.13-.62c-.88,0-1.21.64-1.21,1.65s.35,1.65,1.22,1.65A4.4,4.4,0,0,0,19.11,128.53Z"/></g></g><g id="Arms" class="cls-1"><g class="cls-1"><path d="M101.19,128.07v.45h-2v-.45h.48l0,0-.61-1.77H96.92L96.28,128l0,0h.74v.45H95v-.45h.69l0,0L98,122h.38l2.18,6,0,0ZM99,125.8l-.9-2.65h0l-1,2.65Z"/><path d="M104.67,124.41v.72a2.57,2.57,0,0,0-.5,0,4.75,4.75,0,0,0-1,.14V128l0,0h.75v.45h-2.15v-.45h.6l0,0v-2.71l-.67-.32v0l1.21-.61.06,0,.1.67a3.31,3.31,0,0,1,1.3-.69A.46.46,0,0,1,104.67,124.41Z"/><path d="M112.28,128.07v.45h-2v-.45h.6l.05,0v-1.89c0-.86-.17-1.16-.86-1.16a4.61,4.61,0,0,0-1.09.15v0a1.7,1.7,0,0,1,0,.4V128l0,0h.6v.45h-2v-.45h.6l0,0v-1.89c0-.86-.17-1.16-.87-1.16a4.89,4.89,0,0,0-1,.14V128l0,0h.6v.45h-2v-.45h.6l0,0v-2.7L105,125v0l1.21-.61.06,0,.08.56a2.83,2.83,0,0,1,1.39-.59c.64,0,1,.22,1.17.63a3,3,0,0,1,1.45-.63c.87,0,1.25.42,1.25,1.16V128l.05,0Z"/><path d="M113,128.38v-1h0l.5.54a1.14,1.14,0,0,0,.8.36c.41,0,.69-.21.69-.56,0-.5-.48-.66-1-.94s-1-.68-1-1.26.54-1.14,1.42-1.14a2.94,2.94,0,0,1,1.06.19v1h-.05L115,125a1,1,0,0,0-.66-.25c-.4,0-.65.22-.65.55s.47.69.94.94,1.06.57,1.06,1.26a1.24,1.24,0,0,1-1.38,1.16A3.56,3.56,0,0,1,113,128.38Z"/></g></g><g id="Hands" class="cls-1"><g class="cls-1"><path d="M218.2,123.29v5.38l.05.05H219v.45h-2.39v-.45h.75l0-.05V126H214v2.71l0,.05h.74v.45h-2.39v-.45h.75l.05-.05v-5.38l-.85-.5v-.1h2.54v.1l-.89.5v2.22h3.39v-2.22l-.9-.5v-.1h2.54v.1Z"/><path d="M223.6,128.72v.45h-1.34v-.41a2.36,2.36,0,0,1-1.32.51.93.93,0,0,1-1-1c0-.91,1-1.25,2.31-1.31v-.31c0-.79-.18-1.17-.91-1.17a2,2,0,0,0-1.15.38l-.13-.24a2.08,2.08,0,0,1,1.55-.68,1.22,1.22,0,0,1,1.34,1.31v2.38l0,.05Zm-1.34-.14v-1.26c-.85.06-1.61.2-1.61.86,0,.39.27.57.65.57A3.07,3.07,0,0,0,222.26,128.58Z"/><path d="M229,128.72v.45h-2v-.45h.65l0-.05v-1.89c0-.86-.18-1.16-.92-1.16a5.26,5.26,0,0,0-1.1.14v2.91l0,.05h.64v.45h-2v-.45h.6l0-.05V126l-.67-.32v0l1.21-.62.06,0,.08.57A2.87,2.87,0,0,1,227,125c.9,0,1.3.42,1.3,1.17v2.52l0,.05Z"/><path d="M234.14,128.72v.45h-1.4v-.48a3.11,3.11,0,0,1-1.54.58c-1,0-1.57-1-1.57-2a2.08,2.08,0,0,1,2.08-2.27,2.39,2.39,0,0,1,1,.21V123l-.67-.32v0l1.31-.62.06,0v6.64l.05.05Zm-1.4-.19V126a1.2,1.2,0,0,0-1.13-.62c-.88,0-1.21.64-1.21,1.65s.35,1.65,1.22,1.65A4.46,4.46,0,0,0,232.74,128.53Z"/><path d="M234.87,129v-1h0l.5.55a1.14,1.14,0,0,0,.8.36c.41,0,.69-.21.69-.57s-.48-.65-1-.93-1-.68-1-1.26.54-1.15,1.42-1.15a2.94,2.94,0,0,1,1.06.19v1h0l-.52-.58a1,1,0,0,0-.66-.26.57.57,0,0,0-.65.56c0,.47.47.69.94.94s1.05.57,1.05,1.25a1.23,1.23,0,0,1-1.37,1.17A3.56,3.56,0,0,1,234.87,129Z"/></g></g><g id="Torso" class="cls-1"><g class="cls-1"><path d="M320.54,128h.74l.05-.05v-5.53h-1.59l-.71,1.25h0V122h5.5v1.69h-.06l-.7-1.25h-1.59V128l.05.05h.75v.45h-2.39Z"/><path d="M324.53,126.51a2.09,2.09,0,0,1,2.1-2.22,1.91,1.91,0,0,1,2,2.06,2.09,2.09,0,0,1-2.08,2.22A1.92,1.92,0,0,1,324.53,126.51Zm3.31.09c0-1.1-.59-1.91-1.36-1.91s-1.18.48-1.18,1.56.56,1.92,1.36,1.92S327.84,127.67,327.84,126.6Z"/><path d="M332.25,124.36v.72a2.41,2.41,0,0,0-.5,0,4.75,4.75,0,0,0-1.05.14V128l.05.05h.75v.45h-2.15V128h.6L330,128v-2.71l-.66-.32v0l1.2-.62.06,0,.1.67a3.27,3.27,0,0,1,1.31-.69A.4.4,0,0,1,332.25,124.36Z"/><path d="M332.77,128.33v-1h.05l.5.54a1.14,1.14,0,0,0,.8.36c.41,0,.69-.21.69-.56s-.48-.66-1-.94-1-.68-1-1.26.54-1.14,1.42-1.14a2.85,2.85,0,0,1,1.05.19v1h-.05l-.51-.58a1,1,0,0,0-.66-.25c-.4,0-.65.22-.65.55s.47.69.94.94,1.05.57,1.05,1.26a1.23,1.23,0,0,1-1.37,1.16A3.56,3.56,0,0,1,332.77,128.33Z"/><path d="M336.23,126.51a2.09,2.09,0,0,1,2.1-2.22,1.91,1.91,0,0,1,2,2.06,2.09,2.09,0,0,1-2.09,2.22A1.92,1.92,0,0,1,336.23,126.51Zm3.31.09c0-1.1-.59-1.91-1.37-1.91s-1.17.48-1.17,1.56.56,1.92,1.36,1.92S339.54,127.67,339.54,126.6Z"/></g></g><g id="Legs" class="cls-1"><g class="cls-1"><path d="M426.13,128h.74l.05-.05v-5.38l-.84-.5V122h2.54v.09l-.9.5V128h2.19l.63-1.19h.1v1.64h-4.51Z"/><path d="M435,126.25h-2.75c0,1.31.68,1.78,1.58,1.78a2.37,2.37,0,0,0,1-.24l.11.2a2.32,2.32,0,0,1-1.55.58,1.91,1.91,0,0,1-1.94-2,2.08,2.08,0,0,1,2-2.24,1.49,1.49,0,0,1,1.58,1.63C435,126,435,126.13,435,126.25Zm-2.73-.36h2c0-.83-.33-1.2-.87-1.2S432.37,125,432.28,125.89Z"/><path d="M439.84,125.07l-.95-.09a1.66,1.66,0,0,1-1.51,2.48,1.69,1.69,0,0,1-.66-.12.92.92,0,0,0-.21.5c0,.28.18.41,1.08.41h.26c1.16,0,1.63.29,1.63.9,0,1.15-1.27,1.61-2.39,1.61-.87,0-1.48-.26-1.48-.85s.38-.73.7-1a.59.59,0,0,1-.49-.61c0-.4.39-.76.73-1a1.38,1.38,0,0,1-.72-1.27,1.65,1.65,0,0,1,1.72-1.7,1.53,1.53,0,0,1,1.13.43l1.16-.48Zm-3.31,3.86a1.44,1.44,0,0,0-.23.74c0,.53.36.75.92.75s1.62-.35,1.62-1c0-.34-.29-.49-.91-.49h-.74A4.33,4.33,0,0,1,436.53,128.93Zm1.84-2.92c0-.89-.38-1.39-.9-1.39s-.89.36-.89,1.15.34,1.35.9,1.35S438.37,126.79,438.37,126Z"/><path d="M440.38,128.33v-1h.05l.5.54a1.1,1.1,0,0,0,.79.36c.41,0,.69-.21.69-.56s-.48-.66-1-.94-1-.68-1-1.26.53-1.14,1.41-1.14a2.94,2.94,0,0,1,1.06.19v1h-.05l-.52-.58a1,1,0,0,0-.66-.25c-.4,0-.65.22-.65.55s.47.69.94.94,1.06.57,1.06,1.26a1.24,1.24,0,0,1-1.38,1.16A3.5,3.5,0,0,1,440.38,128.33Z"/></g></g><g id="Feet" class="cls-1"><g class="cls-1"><path d="M552.88,122v1.64h0l-.69-1.2H550V125h1.69l0-.05v-.74h.45v2h-.45v-.75l0-.05H550V128l.07.06H551v.45h-2.61V128h.74l.05-.05v-5.38l-.84-.5V122Z"/><path d="M556.75,126.25H554c0,1.31.68,1.78,1.58,1.78a2.37,2.37,0,0,0,1-.24l.11.2a2.32,2.32,0,0,1-1.55.58,1.91,1.91,0,0,1-1.94-2,2.08,2.08,0,0,1,2-2.24,1.49,1.49,0,0,1,1.58,1.63C556.77,126,556.76,126.13,556.75,126.25Zm-2.73-.36h2c0-.83-.33-1.2-.87-1.2S554.12,125,554,125.89Z"/><path d="M561,126.25h-2.75c0,1.31.69,1.78,1.59,1.78a2.36,2.36,0,0,0,1-.24l.11.2a2.31,2.31,0,0,1-1.54.58,1.91,1.91,0,0,1-2-2,2.08,2.08,0,0,1,2-2.24,1.49,1.49,0,0,1,1.57,1.63C561.05,126,561,126.13,561,126.25Zm-2.73-.36h2c0-.83-.33-1.2-.86-1.2S558.4,125,558.3,125.89Z"/><path d="M562.21,127.31v-2.37l-.05,0h-.6v-.06l1.29-1.7h0v1.31h1.35v.45H562.9v1.86c0,1,.15,1.34.73,1.34a1.94,1.94,0,0,0,.66-.11l.11.21a2.15,2.15,0,0,1-1.15.37C562.55,128.57,562.21,128.25,562.21,127.31Z"/></g></g><path class="cls-2" d="M551.72,57.21l.11-.13c.11-.13.33-.4.57-.65a6.34,6.34,0,0,1,.77-.68,7,7,0,0,1,.86-.55,6.52,6.52,0,0,1,.94-.41,7,7,0,0,1,1-.25,6.55,6.55,0,0,1,2,0,6.2,6.2,0,0,1,2,.6,6.66,6.66,0,0,1,.89.52A6.46,6.46,0,0,1,562.33,57a7.94,7.94,0,0,1,.55.87,6.52,6.52,0,0,1,.41.94,6.87,6.87,0,0,1,.26,1,5.89,5.89,0,0,1,.09,1,5.82,5.82,0,0,1-.06,1,6.86,6.86,0,0,1-.22,1,6.61,6.61,0,0,1-.38,1,6,6,0,0,1-.52.88,5.46,5.46,0,0,1-.65.79,6.15,6.15,0,0,1-.77.68,5.61,5.61,0,0,1-.87.56,7.21,7.21,0,0,1-.94.41c-.32.11-.65.19-.94,3.12s-.53,8.69-.87,8.7-.79-5.75-1.18-8.67-.72-3-1-3.08a6.56,6.56,0,0,1-1.84-.9,7.19,7.19,0,0,1-.79-.65,6.15,6.15,0,0,1-.68-.77,6.68,6.68,0,0,1-.55-.87,6.52,6.52,0,0,1-.41-.94,5.78,5.78,0,0,1-.26-1,7,7,0,0,1-.1-1,8.72,8.72,0,0,1,.06-1,7.25,7.25,0,0,1,.6-2c.15-.31.33-.6.41-.75l.09-.15"/><path class="cls-3" d="M550.09,56.07l.14-.18c.14-.17.43-.51.74-.84a8.66,8.66,0,0,1,2.13-1.6,8.48,8.48,0,0,1,1.23-.54,9.38,9.38,0,0,1,1.29-.33,8.54,8.54,0,0,1,2.67,0,9.89,9.89,0,0,1,1.31.29A8.47,8.47,0,0,1,562,54a8.56,8.56,0,0,1,1,.85,7.68,7.68,0,0,1,.88,1,8.21,8.21,0,0,1,.72,1.12,9.56,9.56,0,0,1,.54,1.23c.14.42.25.86,1.57,1.28s3.85.82,3.86,1.26-2.5.94-3.81,1.4-1.4.91-1.53,1.33a9,9,0,0,1-.49,1.25,8.28,8.28,0,0,1-.68,1.15,8.71,8.71,0,0,1-1.85,1.92,9,9,0,0,1-1.13.72,8.89,8.89,0,0,1-2.53.87,8.48,8.48,0,0,1-2.66.05,9.55,9.55,0,0,1-1.31-.29,9,9,0,0,1-1.25-.49,10.21,10.21,0,0,1-1.15-.68,7.7,7.7,0,0,1-1-.86,8.48,8.48,0,0,1-.89-1A8.49,8.49,0,0,1,549,63.76a8.58,8.58,0,0,1-.34-1.3,10,10,0,0,1-.13-1.33,8.54,8.54,0,0,1,.09-1.34,8.15,8.15,0,0,1,.29-1.3,7.91,7.91,0,0,1,.49-1.25c.19-.4.42-.79.53-1l.12-.19"/><path class="cls-4" d="M549.76,55.84l.15-.18c.15-.18.45-.54.77-.88a9.19,9.19,0,0,1,1.05-.93,9.78,9.78,0,0,1,1.18-.75,9.15,9.15,0,0,1,1.29-.56c.44-.15.89-.27,1.33-1.52s.87-3.65,1.33-3.66,1,2.37,1.46,3.61.94,1.34,1.39,1.48A7.62,7.62,0,0,1,561,53a8.15,8.15,0,0,1,1.21.71,10.21,10.21,0,0,1,1.08.89,9.19,9.19,0,0,1,.93,1,9.05,9.05,0,0,1,.75,1.18,8.56,8.56,0,0,1,.56,1.28,9.37,9.37,0,0,1,.35,1.36,8.17,8.17,0,0,1,.13,1.39,9.32,9.32,0,0,1-.08,1.4,10.8,10.8,0,0,1-.3,1.37,9,9,0,0,1-.52,1.3,8.7,8.7,0,0,1-.71,1.21,9.11,9.11,0,0,1-.89,1.08,9.42,9.42,0,0,1-1,.93,9.05,9.05,0,0,1-1.18.75,9.72,9.72,0,0,1-1.28.56,9,9,0,0,1-1.36.35,9.21,9.21,0,0,1-1.39.13,8.49,8.49,0,0,1-2.77-.39,9,9,0,0,1-1.3-.51,9.81,9.81,0,0,1-1.21-.71,8.64,8.64,0,0,1-2-1.94,9.12,9.12,0,0,1-.76-1.18,8.2,8.2,0,0,1-.55-1.29,7.88,7.88,0,0,1-.35-1.35,8.52,8.52,0,0,1-.05-2.79,8,8,0,0,1,.3-1.37,9.74,9.74,0,0,1,.51-1.3c.21-.42.45-.83.56-1l.12-.2"/><path class="cls-5" d="M548.84,55.2,549,55c.17-.2.51-.61.87-1a10.67,10.67,0,0,1,1.18-1,10.26,10.26,0,0,1,1.33-.84,9.67,9.67,0,0,1,1.44-.63c.5-.17,1-.31,1.51-1.56s1-3.61,1.51-3.62,1.09,2.34,1.63,3.57,1.06,1.34,1.56,1.5a9.65,9.65,0,0,1,1.46.58,8.82,8.82,0,0,1,1.36.8,9.68,9.68,0,0,1,1.22,1,10.7,10.7,0,0,1,1,1.18,9.68,9.68,0,0,1,.85,1.33,10.24,10.24,0,0,1,.62,1.44,9.07,9.07,0,0,1,.4,1.53,10.17,10.17,0,0,1,.15,1.56,9.25,9.25,0,0,1-.1,1.58,8.9,8.9,0,0,1-.34,1.53,9.32,9.32,0,0,1-.57,1.47,10.31,10.31,0,0,1-.8,1.36A10.67,10.67,0,0,1,563.14,69a10.15,10.15,0,0,1-1.32.84,9.78,9.78,0,0,1-1.45.63,11.74,11.74,0,0,1-1.52.4,10.43,10.43,0,0,1-1.57.15,10.27,10.27,0,0,1-1.57-.1,9.82,9.82,0,0,1-1.54-.34A9.36,9.36,0,0,1,552.7,70a10.31,10.31,0,0,1-1.36-.8,9.59,9.59,0,0,1-1.21-1,9.83,9.83,0,0,1-1-1.18,10.67,10.67,0,0,1-.84-1.33,9.67,9.67,0,0,1-.63-1.44,10.09,10.09,0,0,1-.39-1.53,9.19,9.19,0,0,1-.16-1.57,11.82,11.82,0,0,1,.1-1.57A10.34,10.34,0,0,1,547.5,58a10.82,10.82,0,0,1,.58-1.46c.23-.47.5-.93.63-1.16l.13-.22"/><path class="cls-6" d="M547.71,54.4l.19-.23c.19-.23.57-.7,1-1.13a10.77,10.77,0,0,1,1.34-1.18,11.4,11.4,0,0,1,1.51-1,11.28,11.28,0,0,1,1.64-.71,10.59,10.59,0,0,1,1.74-.45,11.91,11.91,0,0,1,1.78-.17,10.69,10.69,0,0,1,1.79.11,10.53,10.53,0,0,1,1.75.39,11,11,0,0,1,3.21,1.56A12.77,12.77,0,0,1,565,52.76a12.53,12.53,0,0,1,1.19,1.34,11.44,11.44,0,0,1,1,1.52,10.41,10.41,0,0,1,.71,1.64c.2.57.35,1.15,2.27,1.7s5.64,1.09,5.65,1.69-3.68,1.26-5.58,1.89-2,1.21-2.21,1.78a12.6,12.6,0,0,1-.66,1.67,12,12,0,0,1-.91,1.54,10.71,10.71,0,0,1-1.14,1.38A12.53,12.53,0,0,1,564,70.1a13.35,13.35,0,0,1-1.51,1,10.94,10.94,0,0,1-1.65.71,12.55,12.55,0,0,1-1.73.45,11.52,11.52,0,0,1-3.58.06,10.53,10.53,0,0,1-1.75-.39,11.32,11.32,0,0,1-1.67-.65,13.25,13.25,0,0,1-1.54-.91,12.66,12.66,0,0,1-1.38-1.14A11.73,11.73,0,0,1,548,67.85a10.72,10.72,0,0,1-1-1.51,12.55,12.55,0,0,1-.72-1.64,13.07,13.07,0,0,1-.45-1.74,11.45,11.45,0,0,1-.06-3.57,10.53,10.53,0,0,1,.39-1.75,10.35,10.35,0,0,1,.66-1.67c.26-.54.56-1,.71-1.31l.16-.26"/><path class="cls-7" d="M547.65,54.36l.19-.23c.2-.23.58-.7,1-1.13a12.85,12.85,0,0,1,1.35-1.2,12.63,12.63,0,0,1,1.52-1,10.94,10.94,0,0,1,1.65-.71,11.55,11.55,0,0,1,1.75-.46,11.58,11.58,0,0,1,3.59-.06,12.82,12.82,0,0,1,1.76.39,12.21,12.21,0,0,1,1.68.66,11.5,11.5,0,0,1,1.55.92,11.47,11.47,0,0,1,2.59,2.49,12.75,12.75,0,0,1,1,1.53,12.11,12.11,0,0,1,.72,1.65,13.07,13.07,0,0,1,.45,1.74,11.65,11.65,0,0,1,.06,3.6,10.87,10.87,0,0,1-.39,1.76,12.73,12.73,0,0,1-.66,1.68,10.54,10.54,0,0,1-.92,1.55A10.8,10.8,0,0,1,565.37,69a12.85,12.85,0,0,1-1.35,1.2,11.44,11.44,0,0,1-1.52,1,10.16,10.16,0,0,1-1.66.72,10.59,10.59,0,0,1-1.74.45,10.87,10.87,0,0,1-1.8.18,12.08,12.08,0,0,1-1.8-.11,13.51,13.51,0,0,1-1.76-.39,12.6,12.6,0,0,1-1.67-.66,12.27,12.27,0,0,1-1.56-.92,11.48,11.48,0,0,1-2.58-2.5,10.57,10.57,0,0,1-1-1.52,11,11,0,0,1-.72-1.65c-.2-.57-.35-1.15-2.3-1.71s-5.69-1.1-5.7-1.7,3.71-1.27,5.64-1.9,2.06-1.21,2.23-1.79a11.1,11.1,0,0,1,.67-1.68c.26-.54.57-1.06.72-1.32l.15-.26"/><path class="cls-8" d="M542.58,50.81l.3-.36c.29-.35.88-1.07,1.52-1.74a18.15,18.15,0,0,1,2.08-1.83,17.34,17.34,0,0,1,2.33-1.49,18.38,18.38,0,0,1,2.54-1.1c.88-.31,1.78-.54,2.64-3.5s1.68-8.66,2.61-8.67,1.95,5.64,2.91,8.57,1.87,3.13,2.75,3.41a17.93,17.93,0,0,1,2.58,1,18.5,18.5,0,0,1,2.39,1.41,17.46,17.46,0,0,1,4,3.83,16.84,16.84,0,0,1,1.49,2.34,17.3,17.3,0,0,1,1.11,2.54,17.87,17.87,0,0,1,.69,2.68,18.3,18.3,0,0,1,.27,2.76,19.72,19.72,0,0,1-.17,2.77,17.84,17.84,0,0,1-.6,2.7,16.88,16.88,0,0,1-1,2.58,17.36,17.36,0,0,1-1.4,2.39,18,18,0,0,1-1.77,2.13,17.23,17.23,0,0,1-2.07,1.84,17.52,17.52,0,0,1-4.88,2.59,17.6,17.6,0,0,1-2.68.7,17.83,17.83,0,0,1-5.52.09,17.7,17.7,0,0,1-2.71-.6,18.4,18.4,0,0,1-2.58-1A17.74,17.74,0,0,1,547,75.44a17.54,17.54,0,0,1-4-3.84,18.8,18.8,0,0,1-1.49-2.33,18.38,18.38,0,0,1-1.1-2.54,17.87,17.87,0,0,1-.69-2.68,17.49,17.49,0,0,1-.1-5.53,17.94,17.94,0,0,1,1.61-5.28c.41-.83.88-1.63,1.11-2l.24-.4"/><path class="cls-9" d="M542.47,50.73l.3-.36c.3-.36.89-1.08,1.54-1.75a16.75,16.75,0,0,1,2.09-1.85,17.56,17.56,0,0,1,4.91-2.61A4.82,4.82,0,0,0,554,42.47c.9-1.16,1.79-3.24,2.72-3.26s1.9,2,2.84,3.16A4.81,4.81,0,0,0,562.3,44a17.53,17.53,0,0,1,2.6,1,17.71,17.71,0,0,1,2.41,1.42,17.72,17.72,0,0,1,4,3.86,18.8,18.8,0,0,1,1.5,2.36,17.07,17.07,0,0,1,1.11,2.56,17.84,17.84,0,0,1,.7,2.7,17.68,17.68,0,0,1,.1,5.56,16.84,16.84,0,0,1-.61,2.73,17.42,17.42,0,0,1-2.44,5,18.32,18.32,0,0,1-1.77,2.16,19.33,19.33,0,0,1-2.09,1.85,17,17,0,0,1-2.36,1.49,18.21,18.21,0,0,1-2.56,1.12,17.84,17.84,0,0,1-2.7.7,18.09,18.09,0,0,1-5.56.09,18,18,0,0,1-2.73-.6,17.53,17.53,0,0,1-2.6-1,18.68,18.68,0,0,1-2.4-1.42,17.36,17.36,0,0,1-2.15-1.78,16.75,16.75,0,0,1-1.85-2.09,17,17,0,0,1-1.5-2.35,18.21,18.21,0,0,1-1.12-2.56,17.81,17.81,0,0,1-.69-2.7,16.26,16.26,0,0,1-.27-2.78,17.42,17.42,0,0,1,.17-2.79,18.09,18.09,0,0,1,.6-2.72,17.57,17.57,0,0,1,1-2.6c.4-.84.88-1.64,1.11-2l.24-.41"/><path class="cls-10" d="M542.3,50.61l.3-.36c.3-.37.9-1.1,1.56-1.77a17.94,17.94,0,0,1,2.11-1.88,18.39,18.39,0,0,1,2.38-1.51A17.5,17.5,0,0,1,551.24,44a18.37,18.37,0,0,1,2.74-.71,19,19,0,0,1,2.81-.27,17.81,17.81,0,0,1,2.82.18,17.32,17.32,0,0,1,2.75.61,17.09,17.09,0,0,1,2.63,1,18.16,18.16,0,0,1,2.44,1.44A18.69,18.69,0,0,1,569.61,48a18.9,18.9,0,0,1,1.87,2.12A18.39,18.39,0,0,1,573,52.53a17.5,17.5,0,0,1,1.13,2.59,18.57,18.57,0,0,1,.71,2.73,19,19,0,0,1,.27,2.82,17.6,17.6,0,0,1-.17,2.81,17.22,17.22,0,0,1-.62,2.76,17.92,17.92,0,0,1-1,2.63,17.39,17.39,0,0,1-1.43,2.43,18.77,18.77,0,0,1-1.8,2.18,16.4,16.4,0,0,1-2.12,1.87,17.45,17.45,0,0,1-2.38,1.52A18.62,18.62,0,0,1,563,78a15.72,15.72,0,0,0-2.73,1c-.92.51-1.85,1.29-2.79,1.31s-1.9-.74-2.84-1.21a16.22,16.22,0,0,0-2.76-1,17.92,17.92,0,0,1-2.63-1,19.17,19.17,0,0,1-2.43-1.44,17.61,17.61,0,0,1-4-3.91,17.45,17.45,0,0,1-1.52-2.38,18.62,18.62,0,0,1-1.13-2.59,18.34,18.34,0,0,1-.7-2.74,16.41,16.41,0,0,1-.27-2.81,17.8,17.8,0,0,1,.17-2.82,17.32,17.32,0,0,1,.61-2.75,18,18,0,0,1,1-2.63c.41-.85.89-1.66,1.13-2.07l.24-.41"/><path class="cls-11" d="M541.66,50.16l.31-.38c.31-.38.94-1.14,1.62-1.85a20.41,20.41,0,0,1,2.21-2,19,19,0,0,1,2.49-1.58,18.28,18.28,0,0,1,5.55-1.91,19.26,19.26,0,0,1,2.93-.29,20.77,20.77,0,0,1,3,.18,18.88,18.88,0,0,1,5.61,1.72,17.47,17.47,0,0,1,2.54,1.5,18.34,18.34,0,0,1,4.23,4.08,18.91,18.91,0,0,1,1.58,2.48,19.15,19.15,0,0,1,1.18,2.71c.32.93.56,1.88,3.06,2.81s7.23,1.83,7.25,2.81-4.69,2-7.15,3.06-2.67,2-3,2.92A19,19,0,0,1,574,69.21a18.61,18.61,0,0,1-1.5,2.54A17.77,17.77,0,0,1,570.61,74a18.76,18.76,0,0,1-2.21,2,18.27,18.27,0,0,1-2.48,1.58,19,19,0,0,1-2.7,1.17,18.77,18.77,0,0,1-2.86.74,18.84,18.84,0,0,1-5.87.1,18.42,18.42,0,0,1-5.62-1.71,18.61,18.61,0,0,1-2.54-1.5,19.27,19.27,0,0,1-2.27-1.87,18.57,18.57,0,0,1-1.95-2.21,18,18,0,0,1-1.59-2.48,19.1,19.1,0,0,1-1.17-2.71,18.65,18.65,0,0,1-.74-2.85,18.84,18.84,0,0,1-.1-5.87,18.71,18.71,0,0,1,.63-2.88,19,19,0,0,1,1.08-2.74c.44-.89.94-1.74,1.19-2.16l.25-.43"/><path class="cls-12" d="M539.8,48.87l.35-.43c.36-.43,1.06-1.28,1.82-2.07a22.45,22.45,0,0,1,2.48-2.19,21.11,21.11,0,0,1,2.78-1.77,20.42,20.42,0,0,1,3-1.32,20.74,20.74,0,0,1,3.19-.82,21,21,0,0,1,6.58-.12,20.81,20.81,0,0,1,3.22.72,20.18,20.18,0,0,1,3.07,1.21,21.08,21.08,0,0,1,7.58,6.24,20.22,20.22,0,0,1,1.77,2.79,20.49,20.49,0,0,1,2.14,6.22,20,20,0,0,1,.32,3.28,21.43,21.43,0,0,1-.2,3.3,20.79,20.79,0,0,1-.71,3.22A22.5,22.5,0,0,1,576,70.2,21.85,21.85,0,0,1,574.33,73a20.47,20.47,0,0,1-2.1,2.55,21.47,21.47,0,0,1-2.47,2.19A21.78,21.78,0,0,1,567,79.55a21.37,21.37,0,0,1-3,1.32,10.8,10.8,0,0,0-3.19,1.41c-1.07.77-2.15,2-3.25,2.07s-2.22-1.22-3.32-2a11,11,0,0,0-3.24-1.3,20.18,20.18,0,0,1-3.07-1.21A20.72,20.72,0,0,1,545,78.21a20.8,20.8,0,0,1-4.73-4.57,20.29,20.29,0,0,1-1.78-2.79,21.86,21.86,0,0,1-1.31-3,20.6,20.6,0,0,1-.83-3.2,21.19,21.19,0,0,1-.32-3.28,20.25,20.25,0,0,1,.21-3.3,20.79,20.79,0,0,1,.71-3.22,21.28,21.28,0,0,1,1.21-3.07c.48-1,1-1.94,1.32-2.42l.28-.47"/><path class="cls-13" d="M539.49,48.65l.36-.44c.35-.43,1.07-1.3,1.85-2.11a21.29,21.29,0,0,1,2.52-2.22,20.9,20.9,0,0,1,2.83-1.81,22.76,22.76,0,0,1,3.08-1.34A4.66,4.66,0,0,0,553.35,38c1.07-2,2.13-5.86,3.25-5.88s2.31,3.76,3.45,5.76a4.66,4.66,0,0,0,3.31,2.58,21.63,21.63,0,0,1,3.13,1.23,20.62,20.62,0,0,1,2.9,1.71A22,22,0,0,1,572,45.58a21.19,21.19,0,0,1,2.22,2.51A21.65,21.65,0,0,1,576,50.93a21.35,21.35,0,0,1,2.18,6.33,20.77,20.77,0,0,1,.32,3.35,22.08,22.08,0,0,1-.2,3.35,21.59,21.59,0,0,1-.73,3.28,22.1,22.1,0,0,1-1.23,3.13,21.1,21.1,0,0,1-1.71,2.89A21.27,21.27,0,0,1,570,78.08a21.55,21.55,0,0,1-2.83,1.81,22.88,22.88,0,0,1-3.09,1.34,22.47,22.47,0,0,1-3.25.84,22,22,0,0,1-3.34.32,22.21,22.21,0,0,1-3.36-.2,21.47,21.47,0,0,1-6.4-2,22.75,22.75,0,0,1-2.9-1.71,20.44,20.44,0,0,1-2.59-2.14A22.1,22.1,0,0,1,540,73.87a21.38,21.38,0,0,1-4-9.17,22.21,22.21,0,0,1-.32-3.35A20.87,20.87,0,0,1,535.9,58a21.56,21.56,0,0,1,.72-3.28,21,21,0,0,1,1.24-3.13c.49-1,1.06-2,1.34-2.46l.29-.48"/><path class="cls-14" d="M536.19,46.34l.43-.52c.42-.51,1.27-1.54,2.19-2.5a26.85,26.85,0,0,1,3-2.65,26.27,26.27,0,0,1,3.37-2.14,25.3,25.3,0,0,1,3.66-1.59,34.55,34.55,0,0,0,3.85-1.39c1.31-.62,2.62-1.53,4-1.55s2.68.84,4,1.41a34,34,0,0,0,3.91,1.26,25.06,25.06,0,0,1,3.71,1.46,26.46,26.46,0,0,1,3.44,2,25.87,25.87,0,0,1,5.72,5.53A25.12,25.12,0,0,1,579.55,49a24.69,24.69,0,0,1,1.59,3.66,25.75,25.75,0,0,1,1,3.86,25.72,25.72,0,0,1,.14,8,27,27,0,0,1-.86,3.89A24.27,24.27,0,0,1,580,72.12a25.19,25.19,0,0,1-2,3.44,24.88,24.88,0,0,1-2.54,3.08,24.23,24.23,0,0,1-3,2.64A26.23,26.23,0,0,1,569,83.43,27,27,0,0,1,565.38,85a25.75,25.75,0,0,1-3.86,1,25.17,25.17,0,0,1-4,.38,26.64,26.64,0,0,1-4-.24,26,26,0,0,1-3.89-.87A25.75,25.75,0,0,1,546,83.83a25.19,25.19,0,0,1-3.44-2,26.81,26.81,0,0,1-3.08-2.54,25.78,25.78,0,0,1-2.64-3,26.23,26.23,0,0,1-2.15-3.36,25.47,25.47,0,0,1-2.59-7.53,26.42,26.42,0,0,1-.38-4,25.26,25.26,0,0,1,.25-4,24.55,24.55,0,0,1,.86-3.89,25.87,25.87,0,0,1,1.46-3.72c.59-1.19,1.26-2.34,1.6-2.92l.34-.57"/><path class="cls-15" d="M534.6,45.22l.45-.55c.46-.56,1.38-1.67,2.37-2.7a27.15,27.15,0,0,1,3.22-2.84,26.76,26.76,0,0,1,3.62-2.31,28,28,0,0,1,3.93-1.71,8.57,8.57,0,0,0,4.14-2.34c1.39-1.51,2.77-4.18,4.21-4.2s2.91,2.59,4.35,4a8.54,8.54,0,0,0,4.21,2.19,27.53,27.53,0,0,1,7.7,3.76,27.44,27.44,0,0,1,8.46,9.56,27.66,27.66,0,0,1,2.79,8.1,27.51,27.51,0,0,1,.15,8.56,27.26,27.26,0,0,1-.93,4.19,26.92,26.92,0,0,1-1.58,4,26.34,26.34,0,0,1-2.17,3.7,27.47,27.47,0,0,1-5.95,6.16A28.07,28.07,0,0,1,570,85.14,28.6,28.6,0,0,1,566,86.85a25.92,25.92,0,0,1-4.16,1.07,26.72,26.72,0,0,1-8.56.15,27.52,27.52,0,0,1-4.19-.93,26.23,26.23,0,0,1-4-1.57,27.41,27.41,0,0,1-3.7-2.18,27.7,27.7,0,0,1-6.16-5.94,28.57,28.57,0,0,1-2.31-3.63,28,28,0,0,1-1.71-3.93,28.54,28.54,0,0,1-1.07-4.16,27.51,27.51,0,0,1-.15-8.56,27.26,27.26,0,0,1,.93-4.19,26.88,26.88,0,0,1,1.57-4c.63-1.29,1.36-2.53,1.72-3.15l.37-.62"/><path class="cls-16" d="M534.55,45.19l.46-.56c.45-.56,1.37-1.67,2.37-2.7a26.46,26.46,0,0,1,3.22-2.85,27.75,27.75,0,0,1,7.57-4,6.56,6.56,0,0,0,4.14-3c1.38-2.13,2.75-6,4.18-6.08s2.94,3.85,4.4,5.93a6.55,6.55,0,0,0,4.23,2.83A27.27,27.27,0,0,1,579,44.48a25.92,25.92,0,0,1,2.31,3.63A26.54,26.54,0,0,1,583,52.05a27.17,27.17,0,0,1,1.08,4.17,27.63,27.63,0,0,1,.15,8.58,27.2,27.2,0,0,1-2.51,8.2A27.35,27.35,0,0,1,570,85.19,27,27,0,0,1,561.86,88a26.79,26.79,0,0,1-8.57.15,27.2,27.2,0,0,1-11.92-4.69,28.83,28.83,0,0,1-3.32-2.73,28.26,28.26,0,0,1-2.85-3.23,26.86,26.86,0,0,1-2.31-3.63A27.25,27.25,0,0,1,530,57.16a27.2,27.2,0,0,1,2.51-8.2c.63-1.29,1.36-2.53,1.72-3.15l.37-.62"/><path class="cls-17" d="M534.19,44.93l.46-.56c.47-.57,1.4-1.7,2.41-2.75a29,29,0,0,1,3.27-2.89A27.41,27.41,0,0,1,544,36.38a26.85,26.85,0,0,1,4-1.74,27.12,27.12,0,0,1,4.23-1.1,27.73,27.73,0,0,1,8.72-.15,27.74,27.74,0,0,1,12.1,4.77,26.42,26.42,0,0,1,3.38,2.78,27.91,27.91,0,0,1,5.24,7,27.47,27.47,0,0,1,2.84,8.24,28.86,28.86,0,0,1,.42,4.35,26.65,26.65,0,0,1-.27,4.37A28.14,28.14,0,0,1,579.93,77a28.46,28.46,0,0,1-6.06,6.27,28.07,28.07,0,0,1-11.93,5.19,27.72,27.72,0,0,1-8.72.15A28.19,28.19,0,0,1,544.89,86a28,28,0,0,1-10-8.27,28.43,28.43,0,0,1-2.35-3.69,27.92,27.92,0,0,1-1.74-4c-.48-1.38-.84-2.8-7.06-4.13s-18.3-2.58-18.33-4,12-3.13,18.17-4.67,6.49-3,6.92-4.38a27.17,27.17,0,0,1,1.6-4.06c.64-1.32,1.38-2.58,1.75-3.21l.38-.63"/><path class="cls-18" d="M531.48,43l.52-.63c.52-.63,1.56-1.89,2.7-3.07a32.23,32.23,0,0,1,3.66-3.24,31.37,31.37,0,0,1,8.6-4.57,7.79,7.79,0,0,0,4.7-3.19c1.57-2.24,3.13-6.32,4.76-6.35s3.33,4,5,6.18a7.77,7.77,0,0,0,4.81,3A32.31,32.31,0,0,1,570.76,33,31.89,31.89,0,0,1,575,35.47a31.06,31.06,0,0,1,3.77,3.1A32.12,32.12,0,0,1,582,42.23a31.27,31.27,0,0,1,2.62,4.13,30.66,30.66,0,0,1,1.95,4.48,31.91,31.91,0,0,1,1.23,4.73,30.64,30.64,0,0,1,.46,4.87,31.69,31.69,0,0,1-.29,4.87,31.13,31.13,0,0,1-1.06,4.78,31.18,31.18,0,0,1-4.27,8.75,30.72,30.72,0,0,1-6.77,7,31.23,31.23,0,0,1-4.12,2.63,30.31,30.31,0,0,1-4.49,2A31,31,0,0,1,543.45,89a31.21,31.21,0,0,1-11.22-9.25,31,31,0,0,1-4.58-8.6,31,31,0,0,1-1.22-4.73,31.87,31.87,0,0,1-.47-4.87,30.68,30.68,0,0,1,.3-4.88,31.27,31.27,0,0,1,1.06-4.77,29.53,29.53,0,0,1,1.79-4.54c.71-1.47,1.54-2.88,2-3.58l.41-.71"/><path class="cls-19" d="M531.43,43l.52-.63c.52-.63,1.56-1.9,2.7-3.07a29.82,29.82,0,0,1,3.67-3.25,31.06,31.06,0,0,1,4.13-2.63,31.45,31.45,0,0,1,9.23-3.18,31.19,31.19,0,0,1,9.77-.17,31.13,31.13,0,0,1,4.78,1.06,32.43,32.43,0,0,1,4.56,1.79c1.47.72,2.88,1.55,7.76-1.18s13.25-9,14.43-7.91-4.84,9.71-7.4,14.69-1.68,6.36-.92,7.8a32.07,32.07,0,0,1,2,4.5A31.23,31.23,0,0,1,588,65.32,30.36,30.36,0,0,1,587,70.11a31.35,31.35,0,0,1-7.39,12.55,31.09,31.09,0,0,1-7.8,5.88,31.25,31.25,0,0,1-4.49,1.95,30.14,30.14,0,0,1-4.75,1.23,31.87,31.87,0,0,1-4.87.47,30.73,30.73,0,0,1-4.89-.3A31.09,31.09,0,0,1,543.42,89a30.89,30.89,0,0,1-8-5.6,30.67,30.67,0,0,1-3.25-3.67,31.06,31.06,0,0,1-2.63-4.13,30.31,30.31,0,0,1-1.95-4.49,31.07,31.07,0,0,1-1.7-9.62,30.61,30.61,0,0,1,.3-4.88,31.52,31.52,0,0,1,1.06-4.79,30.75,30.75,0,0,1,1.8-4.55c.71-1.47,1.55-2.89,2-3.59l.42-.71"/><path class="cls-20" d="M529.72,41.8l.55-.67c.56-.68,1.67-2,2.88-3.28a33.29,33.29,0,0,1,8.32-6.27,32.25,32.25,0,0,1,4.79-2.08,32.7,32.7,0,0,1,5.06-1.31,33.66,33.66,0,0,1,5.2-.5,32.6,32.6,0,0,1,5.22.32,33.2,33.2,0,0,1,5.1,1.13,34.27,34.27,0,0,1,4.86,1.91,33.82,33.82,0,0,1,4.5,2.65,33.38,33.38,0,0,1,10.3,11.65,32.25,32.25,0,0,1,2.08,4.79,8.05,8.05,0,0,0,3.56,5c2.54,1.68,7.19,3.34,7.22,5.08s-4.56,3.57-7,5.33a8.06,8.06,0,0,0-3.38,5.14A33.93,33.93,0,0,1,587,75.58a34.46,34.46,0,0,1-2.65,4.5,33.57,33.57,0,0,1-7.24,7.49,33.18,33.18,0,0,1-9.2,4.89,32.7,32.7,0,0,1-5.06,1.31,33.25,33.25,0,0,1-10.41.18,32.68,32.68,0,0,1-5.1-1.13,33.36,33.36,0,0,1-4.86-1.91A34,34,0,0,1,538,88.25a34.5,34.5,0,0,1-4-3.32A33.82,33.82,0,0,1,530.51,81a33.25,33.25,0,0,1-2.81-4.41,34.49,34.49,0,0,1-2.08-4.79,32.7,32.7,0,0,1-1.31-5.06,33.25,33.25,0,0,1-.18-10.41,33,33,0,0,1,3-10c.76-1.56,1.65-3.07,2.09-3.82l.45-.76"/><path class="cls-21" d="M529.31,41.52l.57-.68c.56-.69,1.69-2.06,2.92-3.33a33.9,33.9,0,0,1,4-3.51,33.58,33.58,0,0,1,9.33-5,13.39,13.39,0,0,0,5.12-2.54c1.72-1.51,3.44-4.09,5.21-4.12s3.58,2.49,5.35,3.94a13.35,13.35,0,0,0,5.2,2.35,33.69,33.69,0,0,1,4.93,1.95,33.76,33.76,0,0,1,8.66,6.06,33.9,33.9,0,0,1,3.51,4,33.15,33.15,0,0,1,2.85,4.47A34.36,34.36,0,0,1,589.05,50a34.11,34.11,0,0,1,1.83,10.41,34.63,34.63,0,0,1-.32,5.29,34.25,34.25,0,0,1-1.15,5.18,33.57,33.57,0,0,1-8,13.59,32.35,32.35,0,0,1-4,3.51A34.17,34.17,0,0,1,573,90.81a33.2,33.2,0,0,1-4.86,2.11,33.71,33.71,0,0,1-25.81-1.58,32.1,32.1,0,0,1-4.56-2.69,33.84,33.84,0,0,1-4.1-3.37,34.84,34.84,0,0,1-3.51-4,33.58,33.58,0,0,1-5-9.33,33.62,33.62,0,0,1-1.33-5.13,36,36,0,0,1-.51-5.28,33.41,33.41,0,0,1,.33-5.29,33.93,33.93,0,0,1,3.09-10.11c.77-1.59,1.67-3.12,2.12-3.88l.45-.77"/><path class="cls-22" d="M526.57,39.6l.62-.75c.62-.76,1.86-2.26,3.21-3.66A36.92,36.92,0,0,1,545,25.88c1.83-.63,3.72-1.12,5.6-3.5s3.75-6.65,5.69-6.68,4,4.17,5.92,6.48,3.87,2.73,5.73,3.3a37.63,37.63,0,0,1,5.42,2.13,39.57,39.57,0,0,1,5,3,37.47,37.47,0,0,1,8.35,8.07,36.44,36.44,0,0,1,3.13,4.91,37.64,37.64,0,0,1,2.32,5.34,37.14,37.14,0,0,1,2,11.44,37.83,37.83,0,0,1-.36,5.82,37,37,0,0,1-1.26,5.68,36.83,36.83,0,0,1-5.09,10.44,37,37,0,0,1-3.7,4.5,36.45,36.45,0,0,1-4.37,3.86,37,37,0,0,1-10.25,5.45,37,37,0,0,1-17.25,1.66,36.81,36.81,0,0,1-5.69-1.26,37.63,37.63,0,0,1-5.42-2.13,37.24,37.24,0,0,1-13.38-11,39.24,39.24,0,0,1-3.13-4.91A36.9,36.9,0,0,1,520,61.63a36.85,36.85,0,0,1,1.61-11.5,36.13,36.13,0,0,1,2.14-5.42c.85-1.75,1.84-3.43,2.33-4.27l.5-.84"/><path class="cls-23" d="M302.88,46.47l.55-.67c.56-.68,1.66-2,2.87-3.27a33.64,33.64,0,0,1,3.9-3.45,32.27,32.27,0,0,1,4.39-2.79,33.1,33.1,0,0,1,4.77-2.08,8.56,8.56,0,0,0,5-3.29c1.68-2.29,3.34-6.44,5.08-6.47s3.54,4.06,5.3,6.29a8.54,8.54,0,0,0,5.11,3.11,34.15,34.15,0,0,1,4.85,1.91,33,33,0,0,1,8.49,6,32.73,32.73,0,0,1,3.45,3.9,33.62,33.62,0,0,1,2.8,4.39,33,33,0,0,1,2.07,4.77,32.46,32.46,0,0,1,1.31,5A33,33,0,0,1,363,70.18a32.69,32.69,0,0,1-1.13,5.08A32.14,32.14,0,0,1,360,80.11a33.32,33.32,0,0,1-5.95,8.5,33.13,33.13,0,0,1-28.47,9.8,33.55,33.55,0,0,1-9.92-3,32.86,32.86,0,0,1-8.5-5.95,33.31,33.31,0,0,1-6.25-8.29,33.17,33.17,0,0,1-3.37-9.81,32.22,32.22,0,0,1-.5-5.18,33.46,33.46,0,0,1,.31-5.2,33.18,33.18,0,0,1,3-9.92c.76-1.56,1.64-3.06,2.09-3.81l.44-.75"/><path class="cls-24" d="M421.69,52.87l.28-.34c.27-.34.83-1,1.43-1.63a16,16,0,0,1,2-1.72,16.21,16.21,0,0,1,4.57-2.43,15.69,15.69,0,0,1,2.51-.65,16.11,16.11,0,0,1,2.59-.25,16,16,0,0,1,2.59.16,15.78,15.78,0,0,1,2.54.56,16.43,16.43,0,0,1,4.66,2.27,16.7,16.7,0,0,1,2,1.65,16,16,0,0,1,1.72,1.95,16.61,16.61,0,0,1,1.4,2.19A15.69,15.69,0,0,1,451,57a4.54,4.54,0,0,0,1.57,2.5c1.06.84,3,1.67,3,2.54s-1.86,1.77-2.89,2.64a4.5,4.5,0,0,0-1.48,2.55,16.43,16.43,0,0,1-2.27,4.66,15.79,15.79,0,0,1-1.65,2,15.19,15.19,0,0,1-2,1.72,15.64,15.64,0,0,1-2.19,1.4,16.31,16.31,0,0,1-4.9,1.69,16.4,16.4,0,0,1-5.17.09,15.8,15.8,0,0,1-2.54-.57A16.43,16.43,0,0,1,425.81,76a15.79,15.79,0,0,1-2-1.65,16.68,16.68,0,0,1-1.72-1.94,17.41,17.41,0,0,1-1.4-2.2,15.69,15.69,0,0,1-1-2.38,16.86,16.86,0,0,1-.66-2.51,17.31,17.31,0,0,1-.09-5.18,17,17,0,0,1,.57-2.54,16.2,16.2,0,0,1,.95-2.42c.38-.78.82-1.53,1-1.9l.22-.37"/><path class="cls-25" d="M419.15,51.09l.33-.4c.33-.4,1-1.19,1.7-1.93a20.39,20.39,0,0,1,2.31-2,20,20,0,0,1,2.6-1.65,19.63,19.63,0,0,1,5.81-2A19.37,19.37,0,0,1,438,43a19.78,19.78,0,0,1,5.88,1.8A19.75,19.75,0,0,1,451,50.58a19,19,0,0,1,1.65,2.6A18.21,18.21,0,0,1,453.88,56c.34,1,.59,2,4.74,2.91s12.16,1.83,12.18,2.86-8,2.2-12.08,3.29-4.33,2.09-4.63,3.07A19.23,19.23,0,0,1,453,71a19.69,19.69,0,0,1-1.56,2.66,19.47,19.47,0,0,1-4.27,4.42,19,19,0,0,1-2.6,1.65,19.63,19.63,0,0,1-5.81,2,19.37,19.37,0,0,1-6.14.11,18.18,18.18,0,0,1-3-.67,19.18,19.18,0,0,1-2.87-1.12A21.58,21.58,0,0,1,424,78.49a20.21,20.21,0,0,1-2.37-2,19.56,19.56,0,0,1-2.05-2.31,19,19,0,0,1-1.65-2.6,18.52,18.52,0,0,1-1.23-2.82,19.57,19.57,0,0,1-.88-9.13,19.26,19.26,0,0,1,.67-3,20.11,20.11,0,0,1,1.13-2.87c.45-.92,1-1.81,1.23-2.26l.26-.44"/><path class="cls-26" d="M417.3,49.79l.36-.44c.37-.45,1.1-1.34,1.9-2.16a21.92,21.92,0,0,1,8.62-5.49,4.68,4.68,0,0,0,3.29-2.93c1.09-2.27,2.17-6.52,3.31-6.54s2.37,4.19,3.54,6.42a4.68,4.68,0,0,0,3.39,2.81,22,22,0,0,1,6.16,3,21.4,21.4,0,0,1,2.65,2.19,22.17,22.17,0,0,1,2.28,2.57,22.22,22.22,0,0,1,4.08,9.38A23,23,0,0,1,457.2,62a21.87,21.87,0,0,1-.21,3.43,20.24,20.24,0,0,1-.74,3.35,22,22,0,0,1-7.76,11.09,22.59,22.59,0,0,1-2.9,1.85,23.8,23.8,0,0,1-3.15,1.37,22.3,22.3,0,0,1-3.33.86,21.86,21.86,0,0,1-6.85.12,21.34,21.34,0,0,1-3.35-.75,20.45,20.45,0,0,1-3.2-1.26,21.6,21.6,0,0,1-5.61-3.93,20.63,20.63,0,0,1-2.28-2.57,22.16,22.16,0,0,1-3.21-6,21.17,21.17,0,0,1-.87-3.33,23,23,0,0,1-.32-3.42,21.94,21.94,0,0,1,.21-3.43,20.47,20.47,0,0,1,.74-3.35,21.48,21.48,0,0,1,1.26-3.2c.5-1,1.08-2,1.38-2.52l.29-.49"/><path class="cls-27" d="M416.45,49.2l.39-.47c.38-.46,1.14-1.39,2-2.25a21.78,21.78,0,0,1,2.69-2.39,22.94,22.94,0,0,1,3-1.93,24.22,24.22,0,0,1,3.3-1.44c1.13-.39,2.3-.69,3.43-3.55s2.24-8.28,3.44-8.31,2.5,5.36,3.73,8.19,2.41,3.08,3.56,3.43a22.41,22.41,0,0,1,3.35,1.32,21.88,21.88,0,0,1,3.1,1.82,24.33,24.33,0,0,1,2.78,2.29,23.36,23.36,0,0,1,2.38,2.69,22.94,22.94,0,0,1,1.93,3,22,22,0,0,1,1.44,3.3,23.09,23.09,0,0,1,.9,3.48,23.09,23.09,0,0,1,.12,7.17,22,22,0,0,1-.78,3.51,23.5,23.5,0,0,1-1.31,3.35,22.94,22.94,0,0,1-1.83,3.1,23.32,23.32,0,0,1-2.29,2.78,22.55,22.55,0,0,1-2.69,2.38,22.94,22.94,0,0,1-3,1.93,22,22,0,0,1-3.3,1.44,23.09,23.09,0,0,1-3.48.9,23.09,23.09,0,0,1-7.17.12,22.21,22.21,0,0,1-3.51-.77A24.8,24.8,0,0,1,425.26,83a22.94,22.94,0,0,1-3.1-1.83,23.32,23.32,0,0,1-2.78-2.29A22.55,22.55,0,0,1,417,76.2a22.94,22.94,0,0,1-1.93-3,22.32,22.32,0,0,1-1.44-3.29,23.53,23.53,0,0,1-.9-3.49,23.09,23.09,0,0,1-.12-7.17,21.17,21.17,0,0,1,.78-3.51,23.5,23.5,0,0,1,1.31-3.35c.53-1.08,1.14-2.12,1.45-2.63l.3-.52"/><path class="cls-28" d="M415.7,48.67l.4-.48c.4-.49,1.19-1.45,2.06-2.35a23.53,23.53,0,0,1,2.8-2.48,24.13,24.13,0,0,1,3.16-2,22.65,22.65,0,0,1,3.43-1.49,23.77,23.77,0,0,1,3.62-.94,23.31,23.31,0,0,1,3.72-.36,24.64,24.64,0,0,1,3.74.23A23.89,23.89,0,0,1,445.76,41a23.92,23.92,0,0,1,8.59,7.08,23.76,23.76,0,0,1,2,3.16,22.65,22.65,0,0,1,1.49,3.43,23.77,23.77,0,0,1,.94,3.62,23.33,23.33,0,0,1,.36,3.73,24.58,24.58,0,0,1-.23,3.73,23.89,23.89,0,0,1-2.18,7.13,23.77,23.77,0,0,1-1.9,3.23,24.09,24.09,0,0,1-5.18,5.36,23.13,23.13,0,0,1-3.16,2,22.65,22.65,0,0,1-3.43,1.49,23.77,23.77,0,0,1-3.62.94A23.73,23.73,0,0,1,432,86a23.89,23.89,0,0,1-7.13-2.18,24.4,24.4,0,0,1-3.23-1.9,23.81,23.81,0,0,1-7.37-8.34,22.65,22.65,0,0,1-1.49-3.43,6.16,6.16,0,0,0-2.36-3.59c-1.63-1.21-4.59-2.41-4.61-3.65s2.89-2.55,4.48-3.81a6.23,6.23,0,0,0,2.23-3.68A23.07,23.07,0,0,1,413.88,52c.55-1.12,1.18-2.2,1.5-2.74l.32-.54"/><path class="cls-29" d="M414.28,47.67l.42-.51c.43-.52,1.28-1.56,2.21-2.52a25.91,25.91,0,0,1,6.39-4.82,26.59,26.59,0,0,1,3.68-1.6,26.12,26.12,0,0,1,3.89-1,26.69,26.69,0,0,1,4-.39,25.64,25.64,0,0,1,4,.25,25.19,25.19,0,0,1,3.92.87,24.91,24.91,0,0,1,3.73,1.47A24.9,24.9,0,0,1,453.07,44a24.39,24.39,0,0,1,2.66,3,24.94,24.94,0,0,1,2.16,3.39,25.58,25.58,0,0,1,1.6,3.68A19,19,0,0,0,461,58c.79,1.31,2,2.63,2,4s-1.16,2.7-1.9,4a20.11,20.11,0,0,0-1.42,3.93,25.87,25.87,0,0,1-3.5,7.19A25.79,25.79,0,0,1,447.32,85a26.59,26.59,0,0,1-3.68,1.6,25,25,0,0,1-3.89,1,24.4,24.4,0,0,1-4,.39,25.64,25.64,0,0,1-4-.25,25.16,25.16,0,0,1-3.92-.86,27.26,27.26,0,0,1-3.73-1.47,25.54,25.54,0,0,1-6.55-4.59,24.48,24.48,0,0,1-2.66-3,25.47,25.47,0,0,1-2.16-3.38,26.59,26.59,0,0,1-1.6-3.68,26.12,26.12,0,0,1-1-3.89,25.16,25.16,0,0,1-.14-8,24.33,24.33,0,0,1,.87-3.92,24.91,24.91,0,0,1,1.47-3.73c.58-1.2,1.26-2.36,1.61-2.94l.34-.58"/><path class="cls-30" d="M414.17,47.6l.43-.52c.43-.52,1.29-1.56,2.22-2.53a26.33,26.33,0,0,1,3-2.67,26,26,0,0,1,7.1-3.78,5.78,5.78,0,0,0,3.87-3c1.29-2.22,2.57-6.3,3.91-6.33s2.76,4,4.13,6.19a5.89,5.89,0,0,0,4,2.85,25.26,25.26,0,0,1,3.76,1.47,26.34,26.34,0,0,1,3.47,2.05,25.41,25.41,0,0,1,3.11,2.57,24.75,24.75,0,0,1,2.67,3,25.11,25.11,0,0,1,2.17,3.4A25.75,25.75,0,0,1,459.61,54a26.41,26.41,0,0,1,1,3.91,26.22,26.22,0,0,1,.14,8,26.48,26.48,0,0,1-2.35,7.69,25.71,25.71,0,0,1-2.05,3.47,25.51,25.51,0,0,1-5.58,5.78,26,26,0,0,1-7.1,3.78,26.41,26.41,0,0,1-3.91,1,25.68,25.68,0,0,1-4,.38,24.71,24.71,0,0,1-4-.24,25.69,25.69,0,0,1-21.73-21,26.22,26.22,0,0,1-.14-8,26.3,26.3,0,0,1,2.35-7.68c.59-1.21,1.28-2.38,1.62-3l.34-.58"/><path class="cls-31" d="M413.79,47.34l.44-.53c.44-.54,1.31-1.6,2.26-2.58a24.87,24.87,0,0,1,3.08-2.72A27.07,27.07,0,0,1,423,39.3a26,26,0,0,1,3.76-1.63,7.81,7.81,0,0,0,4-2.31c1.32-1.52,2.64-4.21,4-4.24s2.79,2.62,4.17,4.1a7.86,7.86,0,0,0,4,2.17,26.1,26.1,0,0,1,3.82,1.5A26.57,26.57,0,0,1,450.31,41a25.93,25.93,0,0,1,5.89,5.69,26.16,26.16,0,0,1,4.87,11.2,26.72,26.72,0,0,1,.4,4.08,25.52,25.52,0,0,1-.26,4.1,25.63,25.63,0,0,1-2.39,7.83,27.34,27.34,0,0,1-2.08,3.54,26.39,26.39,0,0,1-2.61,3.16,26.53,26.53,0,0,1-6.54,4.93,27.25,27.25,0,0,1-3.76,1.64,26.11,26.11,0,0,1-4,1,25.9,25.9,0,0,1-8.18.15,26,26,0,0,1-7.83-2.4,26.26,26.26,0,0,1-6.7-4.69,24.87,24.87,0,0,1-2.72-3.08,26.16,26.16,0,0,1-4.87-11.2,26.6,26.6,0,0,1-.4-4.08,25.59,25.59,0,0,1,.26-4.1,25.63,25.63,0,0,1,2.39-7.83c.6-1.23,1.3-2.41,1.64-3l.35-.59"/><path class="cls-32" d="M412.49,46.42l.46-.56c.47-.56,1.39-1.69,2.4-2.73a28,28,0,0,1,3.26-2.89,29.24,29.24,0,0,1,3.67-2.34,28.14,28.14,0,0,1,8.21-2.82,28.61,28.61,0,0,1,4.34-.42,27.43,27.43,0,0,1,4.34.27,26.88,26.88,0,0,1,4.25.94,27.67,27.67,0,0,1,4.05,1.59,27.89,27.89,0,0,1,10,8.24,27.6,27.6,0,0,1,2.34,3.68,27.16,27.16,0,0,1,1.73,4c.48,1.37.84,2.78,7.15,4.11s18.58,2.56,18.61,4-12.19,3.12-18.45,4.67-6.58,3-7,4.35a27.67,27.67,0,0,1-1.59,4A27.76,27.76,0,0,1,448.34,86.9a27.75,27.75,0,0,1-4,1.73,26.57,26.57,0,0,1-4.21,1.09,26.26,26.26,0,0,1-4.34.42,27.42,27.42,0,0,1-4.34-.26,28.06,28.06,0,0,1-4.25-.95,27.67,27.67,0,0,1-4.05-1.59,28.16,28.16,0,0,1-3.75-2.21A27,27,0,0,1,416,82.36a27.45,27.45,0,0,1-7-10.93A26.57,26.57,0,0,1,408,67.22a27.47,27.47,0,0,1-.15-8.68,26.88,26.88,0,0,1,.94-4.25,27.67,27.67,0,0,1,1.59-4c.64-1.31,1.38-2.56,1.75-3.19l.37-.63"/><path class="cls-33" d="M412.24,46.25l.47-.57c.47-.57,1.41-1.7,2.43-2.76A28.49,28.49,0,0,1,418.43,40a29.42,29.42,0,0,1,3.71-2.36,27.23,27.23,0,0,1,4-1.75c1.39-.48,2.81-.85,4.19-5.32s2.69-13,4.16-13.07,3.08,8.5,4.61,12.92,3,4.73,4.37,5.16a27.61,27.61,0,0,1,4.09,1.62,28.18,28.18,0,0,1,10.11,8.32,28.83,28.83,0,0,1,2.36,3.72,27.77,27.77,0,0,1,1.76,4,29.94,29.94,0,0,1,1.1,4.26,29.26,29.26,0,0,1,.42,4.38,26.83,26.83,0,0,1-.27,4.39,27.26,27.26,0,0,1-.95,4.3,28.24,28.24,0,0,1-1.61,4.09,29.58,29.58,0,0,1-2.24,3.8,27.55,27.55,0,0,1-2.8,3.39,28.49,28.49,0,0,1-3.29,2.92,29.42,29.42,0,0,1-3.71,2.36,27.87,27.87,0,0,1-8.3,2.86,28,28,0,0,1-4.38.42,26.83,26.83,0,0,1-4.39-.27,27.26,27.26,0,0,1-4.3-1,28,28,0,0,1-7.89-3.85,28.49,28.49,0,0,1-6.31-6.09,28.72,28.72,0,0,1-2.36-3.71,28.38,28.38,0,0,1-1.76-4,29.59,29.59,0,0,1-1.1-4.26,29.26,29.26,0,0,1-.42-4.38,26.83,26.83,0,0,1,.27-4.39,27.51,27.51,0,0,1,.95-4.3,28.7,28.7,0,0,1,1.61-4.09c.65-1.32,1.4-2.59,1.77-3.23l.37-.63"/><path class="cls-34" d="M411.8,45.94l.48-.58c.48-.58,1.43-1.74,2.47-2.81a28.72,28.72,0,0,1,7.14-5.38,28.68,28.68,0,0,1,17.4-3.07,28.81,28.81,0,0,1,4.38,1,29.83,29.83,0,0,1,4.17,1.64A28.77,28.77,0,0,1,451.7,39a27.88,27.88,0,0,1,3.46,2.85,28.67,28.67,0,0,1,3,3.36A27.77,27.77,0,0,1,460.54,49a27.3,27.3,0,0,1,1.79,4.12,28,28,0,0,1,1.13,4.34,28.32,28.32,0,0,1,.15,8.94,28.55,28.55,0,0,1-1,4.38A29.83,29.83,0,0,1,461,74.93a28.77,28.77,0,0,1-2.28,3.86,27.88,27.88,0,0,1-2.85,3.46,28.75,28.75,0,0,1-3.36,3,29.85,29.85,0,0,1-3.78,2.41,29.33,29.33,0,0,1-8.46,2.91A28.69,28.69,0,0,1,427,89.73a29.83,29.83,0,0,1-4.17-1.64,37.38,37.38,0,0,0-4.17-2c-1.54-.53-3.32-.84-4.4-1.88s-1.45-2.81-2-4.33a38.33,38.33,0,0,0-2.09-4.1,27.19,27.19,0,0,1-1.79-4.11,28.37,28.37,0,0,1-1.13-4.35,28.91,28.91,0,0,1-.43-4.46,29.22,29.22,0,0,1,.28-4.48,28.42,28.42,0,0,1,1-4.37,29.47,29.47,0,0,1,1.64-4.18c.66-1.34,1.42-2.64,1.8-3.28l.38-.65"/><path class="cls-35" d="M402.34,39.32l.67-.82c.67-.81,2-2.43,3.47-3.94a38.9,38.9,0,0,1,4.71-4.17,40.66,40.66,0,0,1,5.3-3.38,42.12,42.12,0,0,1,5.77-2.51c2-.68,4-1.21,6-4.32s4-8.83,6.12-8.86,4.29,5.59,6.42,8.64,4.18,3.5,6.19,4.11a39.73,39.73,0,0,1,5.85,2.31,40.12,40.12,0,0,1,14.44,11.9,40.28,40.28,0,0,1,3.38,5.3,40.33,40.33,0,0,1,4.69,18.12A41.22,41.22,0,0,1,475,68a40.31,40.31,0,0,1-1.36,6.14,39.67,39.67,0,0,1-5.5,11.27,38.75,38.75,0,0,1-4,4.85,39.67,39.67,0,0,1-4.71,4.17,38.66,38.66,0,0,1-5.3,3.38,39.95,39.95,0,0,1-24.4,4.3,39.14,39.14,0,0,1-6.14-1.36,40.07,40.07,0,0,1-16.12-9.5,38.9,38.9,0,0,1-4.17-4.71,39.63,39.63,0,0,1-3.38-5.3,38.87,38.87,0,0,1-2.51-5.77,40.57,40.57,0,0,1-2.18-12.35,41.22,41.22,0,0,1,.39-6.28,40.19,40.19,0,0,1,3.66-12c.92-1.89,2-3.7,2.53-4.61l.53-.9"/><path class="cls-36" d="M219.31,55.3l.13-.17c.14-.16.42-.5.71-.81a8.68,8.68,0,0,1,1-.85,9.61,9.61,0,0,1,1.09-.7,8.36,8.36,0,0,1,1.19-.51,7.39,7.39,0,0,1,1.25-.32,7.82,7.82,0,0,1,1.28-.13,8,8,0,0,1,1.29.08,7.66,7.66,0,0,1,1.26.28,8.3,8.3,0,0,1,1.2.47,8.43,8.43,0,0,1,1.12.66,8.62,8.62,0,0,1,1,.82,8,8,0,0,1,.86,1,7.71,7.71,0,0,1,.69,1.09,7.29,7.29,0,0,1,.52,1.18,7.91,7.91,0,0,1,.32,1.25,7,7,0,0,1,.12,1.29,8,8,0,0,1-.07,1.29,9.15,9.15,0,0,1-.28,1.26,8.83,8.83,0,0,1-.48,1.2,8.72,8.72,0,0,1-.65,1.11,7.94,7.94,0,0,1-.82,1,7.77,7.77,0,0,1-1,.85,8.4,8.4,0,0,1-1.09.7,8.75,8.75,0,0,1-1.18.51,9,9,0,0,1-1.26.33,9.09,9.09,0,0,1-1.28.12,8,8,0,0,1-1.29-.08,7.66,7.66,0,0,1-1.26-.28,7.29,7.29,0,0,1-1.2-.47,8.43,8.43,0,0,1-1.12-.66,7.69,7.69,0,0,1-1-.82,8,8,0,0,1-.86-1,7.61,7.61,0,0,1-.69-1.08,8.4,8.4,0,0,1-.52-1.19c-.14-.41-.25-.82-3.95-1.19s-11-.66-11-1.09,7.28-1,11-1.48,3.79-.91,3.91-1.32a8.46,8.46,0,0,1,.48-1.21c.19-.38.41-.76.52-.94l.11-.19"/><path class="cls-37" d="M219.18,55.21l.14-.17c.14-.17.42-.51.72-.82a8.11,8.11,0,0,1,1-.87,7.2,7.2,0,0,1,1.11-.71,8.69,8.69,0,0,1,1.21-.53,2.35,2.35,0,0,0,1.26-.76c.43-.5.85-1.41,1.29-1.42s.89.89,1.33,1.38a2.39,2.39,0,0,0,1.3.71,7.58,7.58,0,0,1,1.22.49,7.94,7.94,0,0,1,1.13.66,10.35,10.35,0,0,1,1,.84,8.68,8.68,0,0,1,1.58,2.1,8.52,8.52,0,0,1,.52,1.2,7.08,7.08,0,0,1,.33,1.28,8.19,8.19,0,0,1,.13,1.31,8.3,8.3,0,0,1-.08,1.31,8.16,8.16,0,0,1-.29,1.28,9.21,9.21,0,0,1-.48,1.23,7.63,7.63,0,0,1-.67,1.13,9,9,0,0,1-.83,1,10.27,10.27,0,0,1-1,.87A8.95,8.95,0,0,1,228.81,68a9.62,9.62,0,0,1-1.28.33,8.18,8.18,0,0,1-1.31.12,7.15,7.15,0,0,1-1.31-.08,8,8,0,0,1-1.29-.28,8.59,8.59,0,0,1-1.22-.48,9.88,9.88,0,0,1-1.13-.67,8.45,8.45,0,0,1-1.89-1.82,9.1,9.1,0,0,1-.71-1.11,8.65,8.65,0,0,1-.52-1.21,7.9,7.9,0,0,1-.33-1.27,8.19,8.19,0,0,1-.13-1.31,8.36,8.36,0,0,1,.08-1.32,8.16,8.16,0,0,1,.29-1.28,8.59,8.59,0,0,1,.48-1.22c.19-.4.42-.78.53-1l.11-.19"/><path class="cls-38" d="M219.12,55.17l.15-.17c.14-.17.42-.51.73-.83a8.3,8.3,0,0,1,1-.88,8.71,8.71,0,0,1,2.33-1.24A1.84,1.84,0,0,0,224.6,51c.42-.82.83-2.33,1.28-2.33s.91,1.48,1.36,2.28a1.84,1.84,0,0,0,1.31,1,8.7,8.7,0,0,1,2.37,1.16,9.21,9.21,0,0,1,1,.84,8.32,8.32,0,0,1,.87,1,8.11,8.11,0,0,1,.72,1.11,10.21,10.21,0,0,1,.53,1.22,9.62,9.62,0,0,1,.33,1.28,8.41,8.41,0,0,1,.12,1.32,7.37,7.37,0,0,1-.08,1.33,8,8,0,0,1-.28,1.29,8.88,8.88,0,0,1-.49,1.24,8.72,8.72,0,0,1-.67,1.14,9.19,9.19,0,0,1-.85,1,8.3,8.3,0,0,1-1,.88,7.29,7.29,0,0,1-1.12.71,8.08,8.08,0,0,1-1.21.53,7.18,7.18,0,0,1-1.29.33,8.2,8.2,0,0,1-1.32.13,8.36,8.36,0,0,1-2.62-.37,9.21,9.21,0,0,1-1.23-.48,8.17,8.17,0,0,1-1.14-.68,7.47,7.47,0,0,1-1-.84,8.2,8.2,0,0,1-.88-1,8.87,8.87,0,0,1-.72-1.12,8.77,8.77,0,0,1-.52-1.22,8.43,8.43,0,0,1-.38-3.92,8.13,8.13,0,0,1,.28-1.3,8.75,8.75,0,0,1,.49-1.23c.19-.4.42-.78.53-1l.11-.2"/><path class="cls-39" d="M216.39,53.26l.2-.24c.2-.24.59-.71,1-1.16A12.29,12.29,0,0,1,219,50.64a12.1,12.1,0,0,1,3.25-1.73c.59-.2,1.18-.35,1.73-3.79S225,35,225.64,35s1.35,6.69,2,10.1,1.27,3.55,1.86,3.73a12.06,12.06,0,0,1,1.72.68,12.76,12.76,0,0,1,1.59.94,12.26,12.26,0,0,1,1.42,1.17A10.82,10.82,0,0,1,235.48,53a12,12,0,0,1,1,1.55,11.65,11.65,0,0,1,1.2,3.49,12.47,12.47,0,0,1,.18,1.84,11.38,11.38,0,0,1-.12,1.84,11.13,11.13,0,0,1-.4,1.8,11.85,11.85,0,0,1-5.73,7,12.67,12.67,0,0,1-1.69.73,10.93,10.93,0,0,1-1.79.46,11.36,11.36,0,0,1-1.84.18,11.73,11.73,0,0,1-3.65-.51,11.49,11.49,0,0,1-1.71-.68,11.17,11.17,0,0,1-1.6-.94,11.31,11.31,0,0,1-1.42-1.17,11.45,11.45,0,0,1-1.23-1.38,12,12,0,0,1-1.73-3.26,12.24,12.24,0,0,1-.46-1.78,12.72,12.72,0,0,1-.17-1.84,10.39,10.39,0,0,1,.11-1.85,11.13,11.13,0,0,1,.4-1.8,12,12,0,0,1,.67-1.72c.28-.55.59-1.09.75-1.35l.15-.27"/><path class="cls-40" d="M212.45,50.5l.27-.34c.28-.33.83-1,1.44-1.63a16.68,16.68,0,0,1,1.94-1.72,17.41,17.41,0,0,1,2.2-1.4,16.81,16.81,0,0,1,2.38-1c.82-.28,1.66-.5,2.49-2.48s1.62-5.73,2.49-5.74,1.8,3.7,2.69,5.65,1.74,2.14,2.57,2.39a17.41,17.41,0,0,1,2.42,1,16.25,16.25,0,0,1,2.24,1.32,17.63,17.63,0,0,1,2,1.65,16.78,16.78,0,0,1,1.72,2,16.08,16.08,0,0,1,2.43,4.58,15.69,15.69,0,0,1,.65,2.51,15,15,0,0,1,.25,2.59,16.14,16.14,0,0,1-.15,2.6,17,17,0,0,1-.57,2.54,16.43,16.43,0,0,1-2.27,4.66,16.7,16.7,0,0,1-1.65,2,17.73,17.73,0,0,1-1.95,1.73,16.78,16.78,0,0,1-4.58,2.43,16.64,16.64,0,0,1-2.52.65,17.21,17.21,0,0,1-2.59.25,16.09,16.09,0,0,1-2.59-.16,16.93,16.93,0,0,1-2.54-.56,16.43,16.43,0,0,1-4.66-2.27,17.71,17.71,0,0,1-2-1.66A16,16,0,0,1,212.84,70a16.21,16.21,0,0,1-2.43-4.57,15.81,15.81,0,0,1-.65-2.52,16.11,16.11,0,0,1-.25-2.59,14.9,14.9,0,0,1,.16-2.59,15.78,15.78,0,0,1,.56-2.54,16.2,16.2,0,0,1,1-2.42c.38-.78.82-1.53,1-1.91l.23-.37"/><path class="cls-41" d="M211.09,49.55l.31-.37c.3-.37.91-1.11,1.57-1.79a18.39,18.39,0,0,1,2.14-1.9A18.87,18.87,0,0,1,217.52,44a18.37,18.37,0,0,1,2.62-1.14,19.11,19.11,0,0,1,2.77-.72,18.58,18.58,0,0,1,5.7-.1,18.76,18.76,0,0,1,2.79.62,18.38,18.38,0,0,1,2.66,1.05,17.84,17.84,0,0,1,2.46,1.45,18.43,18.43,0,0,1,2.21,1.82,17.43,17.43,0,0,1,1.89,2.14,18.09,18.09,0,0,1,2.68,5,18.79,18.79,0,0,1,.72,2.77,19.36,19.36,0,0,1,.27,2.84,17.11,17.11,0,0,1-.18,2.86,19,19,0,0,1-.61,2.79A18.38,18.38,0,0,1,242.45,68,19.59,19.59,0,0,1,241,70.49a19.25,19.25,0,0,1-1.82,2.21A18.31,18.31,0,0,1,237,74.59a18.09,18.09,0,0,1-5,2.68c-.91.31-1.83.55-2.7,4.88s-1.67,12.77-2.63,12.79-2.05-8.38-3.07-12.69-2-4.51-2.86-4.79a18.38,18.38,0,0,1-2.66-1A16.89,16.89,0,0,1,215.63,75a18.18,18.18,0,0,1-2.21-1.81A18.4,18.4,0,0,1,211.53,71,17.29,17.29,0,0,1,210,68.59,17.9,17.9,0,0,1,208.85,66a17.59,17.59,0,0,1-.71-2.77,17.71,17.71,0,0,1-.1-5.69,18.74,18.74,0,0,1,.61-2.79,17.51,17.51,0,0,1,1-2.66c.42-.86.91-1.69,1.15-2.1l.24-.41"/><path class="cls-42" d="M209.58,48.49l.33-.41c.34-.4,1-1.22,1.74-2a19.59,19.59,0,0,1,5-3.78,20.44,20.44,0,0,1,5.93-2,20.73,20.73,0,0,1,3.14-.3,19.4,19.4,0,0,1,3.14.19,20,20,0,0,1,3.07.68A20.94,20.94,0,0,1,234.87,42a20.51,20.51,0,0,1,2.71,1.6A19.72,19.72,0,0,1,242.09,48,20.51,20.51,0,0,1,245,53.51c.34,1,.61,2,3.38,3s8.05,2,8.06,3-5.22,2.19-8,3.28-3,2.11-3.27,3.12a20.4,20.4,0,0,1-1.16,2.92,19.93,19.93,0,0,1-1.59,2.72,20.88,20.88,0,0,1-4.36,4.51,19.92,19.92,0,0,1-2.66,1.69A21.66,21.66,0,0,1,232.61,79a20.37,20.37,0,0,1-3.05.78,19.41,19.41,0,0,1-3.13.31,20.74,20.74,0,0,1-3.15-.2,19.14,19.14,0,0,1-3.07-.68,19.78,19.78,0,0,1-2.93-1.15,20.51,20.51,0,0,1-2.71-1.6,19.72,19.72,0,0,1-4.51-4.36,18.86,18.86,0,0,1-1.69-2.65,19.45,19.45,0,0,1-1.26-2.89,21,21,0,0,1-.79-3,20.18,20.18,0,0,1-.11-6.27,21.28,21.28,0,0,1,.68-3.07,20.06,20.06,0,0,1,1.16-2.93c.46-.94,1-1.85,1.26-2.31l.27-.45"/><path class="cls-43" d="M206.3,46.2l.41-.49c.4-.49,1.2-1.46,2.07-2.37a24.92,24.92,0,0,1,2.83-2.5,24.42,24.42,0,0,1,3.18-2,24.15,24.15,0,0,1,3.46-1.51A6.32,6.32,0,0,0,221.88,35c1.21-1.61,2.42-4.52,3.68-4.54s2.57,2.84,3.84,4.41a6.28,6.28,0,0,0,3.7,2.21,23.09,23.09,0,0,1,3.51,1.39,23.84,23.84,0,0,1,6.16,4.31,22.4,22.4,0,0,1,2.5,2.83,23.47,23.47,0,0,1,2,3.18,24.44,24.44,0,0,1,2.45,7.11,23.57,23.57,0,0,1,.36,3.75,25,25,0,0,1-.23,3.77,24.3,24.3,0,0,1-2.2,7.19,24.05,24.05,0,0,1-1.91,3.25,25.76,25.76,0,0,1-2.4,2.91,24.92,24.92,0,0,1-2.83,2.5,24.49,24.49,0,0,1-3.18,2,24.1,24.1,0,0,1-3.46,1.5,23,23,0,0,1-3.65.94,23.72,23.72,0,0,1-7.52.14,24.3,24.3,0,0,1-7.19-2.2,25.22,25.22,0,0,1-3.25-1.92,23,23,0,0,1-2.91-2.4,23.83,23.83,0,0,1-6-9.46,24.17,24.17,0,0,1-.95-3.65,23.7,23.7,0,0,1-.36-3.76,24.82,24.82,0,0,1,.23-3.76,24.57,24.57,0,0,1,.82-3.69,25.06,25.06,0,0,1,1.38-3.51c.55-1.13,1.19-2.21,1.51-2.76l.32-.54"/><path class="cls-44" d="M205,45.25l.43-.52c.43-.52,1.29-1.56,2.22-2.53a27.33,27.33,0,0,1,3-2.67,25.95,25.95,0,0,1,7.1-3.77A13.4,13.4,0,0,0,221.6,34c1.32-.95,2.63-2.5,4-2.52s2.71,1.48,4.06,2.38a13.38,13.38,0,0,0,3.94,1.58A26.32,26.32,0,0,1,237.33,37a25.71,25.71,0,0,1,3.47,2,25.51,25.51,0,0,1,5.78,5.58,25.11,25.11,0,0,1,2.17,3.4,25.75,25.75,0,0,1,1.61,3.69,26.25,26.25,0,0,1,1,3.9,24.64,24.64,0,0,1,.39,4,25.89,25.89,0,0,1-.25,4,24.21,24.21,0,0,1-.87,3.93,25.15,25.15,0,0,1-1.47,3.75,25.71,25.71,0,0,1-2,3.47,25.51,25.51,0,0,1-5.58,5.78,25.66,25.66,0,0,1-11,4.78,26.83,26.83,0,0,1-4,.39,25.76,25.76,0,0,1-4-.25,26.25,26.25,0,0,1-3.93-.87,25.19,25.19,0,0,1-3.75-1.48,25.65,25.65,0,0,1-3.47-2,24.68,24.68,0,0,1-3.11-2.57,25.42,25.42,0,0,1-2.67-3,26.42,26.42,0,0,1-2.17-3.4,26.07,26.07,0,0,1-2.61-7.6,24.54,24.54,0,0,1-.39-4,25.76,25.76,0,0,1,.25-4A25.46,25.46,0,0,1,203,48.78c.58-1.2,1.27-2.37,1.61-3l.34-.58"/><path class="cls-45" d="M203,43.88l.47-.57c.47-.57,1.41-1.71,2.43-2.76a28.28,28.28,0,0,1,7-5.29,27.23,27.23,0,0,1,4-1.75,28.37,28.37,0,0,1,4.26-1.11,29.39,29.39,0,0,1,4.39-.42,26.9,26.9,0,0,1,4.39.27,27.77,27.77,0,0,1,8.4,2.57,28,28,0,0,1,10.11,8.33,28.23,28.23,0,0,1,2.37,3.72,27.72,27.72,0,0,1,1.75,4,27.31,27.31,0,0,1,1.1,4.27,28,28,0,0,1,.43,4.38,29.46,29.46,0,0,1-.27,4.4,29,29,0,0,1-1,4.3,28.7,28.7,0,0,1-1.61,4.09,27.2,27.2,0,0,1-2.23,3.8,28.59,28.59,0,0,1-6.1,6.32,28.83,28.83,0,0,1-3.72,2.36,28.38,28.38,0,0,1-4,1.76,28.08,28.08,0,0,1-13,1.25,27.51,27.51,0,0,1-4.3-1,28.36,28.36,0,0,1-4.1-1.61A28.8,28.8,0,0,1,210,83a27.95,27.95,0,0,1-8.68-9.81,28.38,28.38,0,0,1-1.76-4A39.88,39.88,0,0,0,198,64.92c-.68-1.44-1.68-2.89-1.7-4.36s.92-3,1.55-4.42a39.52,39.52,0,0,0,1.38-4.3,28.36,28.36,0,0,1,1.61-4.1c.64-1.32,1.39-2.59,1.77-3.23l.37-.63"/><path class="cls-46" d="M201.06,42.52l.51-.61c.5-.62,1.52-1.85,2.63-3a30.66,30.66,0,0,1,3.57-3.16,29.19,29.19,0,0,1,4-2.56,30.28,30.28,0,0,1,4.37-1.91c1.51-.51,3.06-.91,4.5-8.58S223.44.11,225,.08s3.44,14.85,5.15,22.46,3.26,8,4.79,8.42a30.74,30.74,0,0,1,4.44,1.74,30.83,30.83,0,0,1,7.79,5.46,30.74,30.74,0,0,1,3.17,3.58,31.79,31.79,0,0,1,2.56,4,30.34,30.34,0,0,1,1.9,4.38,30.75,30.75,0,0,1,1.2,4.62,31.57,31.57,0,0,1,.46,4.75,30.28,30.28,0,0,1-.3,4.76,29.58,29.58,0,0,1-1,4.66,29.25,29.25,0,0,1-1.75,4.44A30.87,30.87,0,0,1,251,77.49a30.53,30.53,0,0,1-10.64,9.41A31.37,31.37,0,0,1,236,88.8,29.56,29.56,0,0,1,231.36,90a30.4,30.4,0,0,1-9.52.17,31.29,31.29,0,0,1-4.66-1A30.28,30.28,0,0,1,205,81.92a29.67,29.67,0,0,1-3.16-3.57,30.88,30.88,0,0,1-2.57-4,30.21,30.21,0,0,1-3.55-13.75,29.19,29.19,0,0,1,.29-4.76,29.58,29.58,0,0,1,1-4.66,30.79,30.79,0,0,1,1.75-4.44c.7-1.43,1.51-2.81,1.91-3.5l.41-.69"/><path class="cls-47" d="M200.48,42.12l.52-.63c.52-.63,1.56-1.89,2.69-3.06a31.3,31.3,0,0,1,12.25-7.81,31.29,31.29,0,0,1,4.73-1.22,31,31,0,0,1,9.74-.17,30.86,30.86,0,0,1,4.76,1.05,30.83,30.83,0,0,1,8.75,4.27,30.92,30.92,0,0,1,9.63,10.88,30.93,30.93,0,0,1,3.17,9.21,31.62,31.62,0,0,1,.47,4.86,30.48,30.48,0,0,1-.3,4.87,31,31,0,0,1-1.06,4.77A29.53,29.53,0,0,1,254,73.68a30.52,30.52,0,0,1-2.47,4.21,32.1,32.1,0,0,1-3.11,3.77,31.2,31.2,0,0,1-3.66,3.23,31.61,31.61,0,0,1-4.12,2.63,31.11,31.11,0,0,1-4.47,1.94,32.23,32.23,0,0,1-4.73,1.23,30.52,30.52,0,0,1-4.86.46,31.89,31.89,0,0,1-4.88-.29A31.15,31.15,0,0,1,217,89.8,32.31,32.31,0,0,1,212.43,88a31.55,31.55,0,0,1-8-5.58,32.12,32.12,0,0,1-3.24-3.66,31.37,31.37,0,0,1-4.57-8.6c-.53-1.54-.94-3.12-6.3-4.64s-15.67-3-15.7-4.59,10.23-3.44,15.53-5.14,5.66-3.3,6.14-4.86a29.94,29.94,0,0,1,1.79-4.54c.71-1.46,1.54-2.87,2-3.58l.41-.7"/><path class="cls-48" d="M192.59,36.59l.68-.82c.68-.83,2-2.48,3.52-4a40.84,40.84,0,0,1,4.78-4.23A41.68,41.68,0,0,1,207,24.09,41,41,0,0,1,219,20a40.76,40.76,0,0,1,12.73-.22A39.29,39.29,0,0,1,238,21.11a40.73,40.73,0,0,1,20.61,14.43A40.94,40.94,0,0,1,262,40.93a40.09,40.09,0,0,1,2.55,5.86,40.54,40.54,0,0,1,2.21,12.54,40.05,40.05,0,0,1-.39,6.38,40.85,40.85,0,0,1-15.81,26.85,40.77,40.77,0,0,1-17.43,7.58,41.13,41.13,0,0,1-6.36.61,42.46,42.46,0,0,1-6.38-.39A40.45,40.45,0,0,1,214.17,99a39.4,39.4,0,0,1-5.94-2.34,40.58,40.58,0,0,1-5.51-3.24,41.53,41.53,0,0,1-4.93-4.06,40.83,40.83,0,0,1-7.66-10.18,41.58,41.58,0,0,1-2.55-5.85c-.69-2-1.23-4.09-5.23-6.13s-11.45-4-11.49-6.16,7.35-4.4,11.27-6.57,4.39-4.26,5-6.3a42.23,42.23,0,0,1,2.34-6c.94-1.91,2-3.75,2.57-4.68l.54-.92"/><path class="cls-49" d="M192.21,36.33l.69-.83c.69-.84,2.06-2.51,3.56-4.06a41.85,41.85,0,0,1,4.84-4.28,41.07,41.07,0,0,1,11.37-6,39.69,39.69,0,0,1,6.26-1.62,41.12,41.12,0,0,1,35.74,10.93A39.4,39.4,0,0,1,259,35.27a41.13,41.13,0,0,1,8.29,24,41.76,41.76,0,0,1-1.79,12.76,43.12,43.12,0,0,1-2.37,6,41.45,41.45,0,0,1-7.39,10.55,41.85,41.85,0,0,1-4.84,4.28,40.2,40.2,0,0,1-5.45,3.47,40.61,40.61,0,0,1-12.18,4.19,39.56,39.56,0,0,1-6.43.62,41.19,41.19,0,0,1-24.33-7.44,41.57,41.57,0,0,1-5-4.1,41.17,41.17,0,0,1-7.75-10.29,40,40,0,0,1-2.58-5.93,20.89,20.89,0,0,0-2.79-6.23c-1.55-2.1-4.1-4.21-4.14-6.37s2.44-4.35,3.91-6.51A20.73,20.73,0,0,0,186.71,48a41.53,41.53,0,0,1,2.36-6c1-1.93,2.05-3.8,2.59-4.73l.55-.93"/><path class="cls-50" d="M99.56,57l.14-.17a9,9,0,0,1,.72-.82,7.35,7.35,0,0,1,1-.87,8,8,0,0,1,1.11-.71,9.06,9.06,0,0,1,1.2-.52,9.48,9.48,0,0,1,1.27-.33,8.18,8.18,0,0,1,1.31-.12,7.15,7.15,0,0,1,1.31.08,8.13,8.13,0,0,1,1.28.28,8.59,8.59,0,0,1,1.22.48,8,8,0,0,1,1.13.67,9,9,0,0,1,1,.83,10.15,10.15,0,0,1,.87,1,9,9,0,0,1,.7,1.11,7.61,7.61,0,0,1,.52,1.21c.15.41.26.83,3.86,1.2s10.69.69,10.7,1.13-7.07,1-10.66,1.49-3.68.92-3.81,1.34a7.54,7.54,0,0,1-.48,1.22,8.05,8.05,0,0,1-.66,1.14,8.82,8.82,0,0,1-.84,1,9.08,9.08,0,0,1-1,.87,8,8,0,0,1-1.11.7,8.57,8.57,0,0,1-1.2.53,8.08,8.08,0,0,1-2.58.45,8.5,8.5,0,0,1-2.59-.36,8.59,8.59,0,0,1-1.22-.48,8.9,8.9,0,0,1-2.15-1.5,9,9,0,0,1-.86-1,8.58,8.58,0,0,1-.71-1.1,7.61,7.61,0,0,1-.52-1.21,7,7,0,0,1-.33-1.27,8.19,8.19,0,0,1-.13-1.31,8.3,8.3,0,0,1,.08-1.31,8.16,8.16,0,0,1,.29-1.28,7.92,7.92,0,0,1,.48-1.22c.19-.39.41-.77.52-1l.12-.19"/><path class="cls-51" d="M96.69,55l.2-.24c.19-.24.59-.72,1-1.16a12.56,12.56,0,0,1,1.39-1.24,12.19,12.19,0,0,1,1.57-1,11.82,11.82,0,0,1,1.71-.75c.58-.2,1.19-.35,1.74-4s1-10.71,1.66-10.72,1.37,7.06,2,10.66,1.29,3.73,1.88,3.92a11.87,11.87,0,0,1,3.33,1.62,11.41,11.41,0,0,1,2.67,2.58,11.6,11.6,0,0,1,1,1.57,11.2,11.2,0,0,1,.74,1.7,11.32,11.32,0,0,1,.46,1.8,11.48,11.48,0,0,1,.18,1.85,11.61,11.61,0,0,1-.11,1.86,12.44,12.44,0,0,1-.4,1.81,11.3,11.3,0,0,1-.68,1.73A11.88,11.88,0,0,1,115,70a11.54,11.54,0,0,1-1.39,1.23,11.26,11.26,0,0,1-1.57,1,11.77,11.77,0,0,1-1.71.74,12.2,12.2,0,0,1-1.8.47,11.49,11.49,0,0,1-3.7.06,11.14,11.14,0,0,1-1.82-.4,11.87,11.87,0,0,1-3.33-1.62A12.64,12.64,0,0,1,98.2,70.3,11.64,11.64,0,0,1,97,68.91a11.88,11.88,0,0,1-1.74-3.27,11.32,11.32,0,0,1-.46-1.8,11.94,11.94,0,0,1-.07-3.71,12.57,12.57,0,0,1,.4-1.82,12.18,12.18,0,0,1,.68-1.73c.28-.55.59-1.09.75-1.36l.16-.27"/><path class="cls-52" d="M95.64,54.22l.22-.26c.22-.27.66-.8,1.14-1.29a12.47,12.47,0,0,1,1.54-1.37,13.08,13.08,0,0,1,1.74-1.1,12.63,12.63,0,0,1,1.88-.83,13.63,13.63,0,0,1,2-.51,13.28,13.28,0,0,1,6.11.37,13.22,13.22,0,0,1,1.92.76A13.67,13.67,0,0,1,114,51a14.18,14.18,0,0,1,1.59,1.31,13.26,13.26,0,0,1,1.36,1.54A12.2,12.2,0,0,1,118,55.62a13.16,13.16,0,0,1,.82,1.89,12.36,12.36,0,0,1,.51,2,12.82,12.82,0,0,1,.2,2,14,14,0,0,1-.12,2.05,13.6,13.6,0,0,1-.45,2,12.65,12.65,0,0,1-1.8,3.69,11.78,11.78,0,0,1-1.31,1.59,13.34,13.34,0,0,1-1.54,1.37,13.08,13.08,0,0,1-1.74,1.1,12.58,12.58,0,0,1-1.88.82,5.08,5.08,0,0,0-2,1c-.67.62-1.33,1.67-2,1.69s-1.39-1-2.08-1.62a4.9,4.9,0,0,0-2-.94,13.17,13.17,0,0,1-1.92-.75,12.68,12.68,0,0,1-1.77-1,14.09,14.09,0,0,1-1.59-1.3A13.35,13.35,0,0,1,96,69.67a12.69,12.69,0,0,1-1.11-1.73A13.16,13.16,0,0,1,94,66.05a13.83,13.83,0,0,1-.51-2,12.94,12.94,0,0,1-.2-2.05A14.15,14.15,0,0,1,93.44,60a13.89,13.89,0,0,1,.45-2A13.05,13.05,0,0,1,94.64,56c.31-.62.66-1.21.83-1.51l.17-.3"/><path class="cls-53" d="M92.6,52.09l.28-.34c.28-.34.85-1,1.46-1.65a16.32,16.32,0,0,1,2-1.75A16.77,16.77,0,0,1,101,45.88c.83-.29,1.69-.51,2.48-4.91s1.52-13,2.4-13,1.92,8.54,2.86,12.91,1.81,4.57,2.65,4.83a16.71,16.71,0,0,1,2.46,1A17.8,17.8,0,0,1,116.08,48a18.2,18.2,0,0,1,2,1.68,16.71,16.71,0,0,1,3.16,4.2,16.75,16.75,0,0,1,1.06,2.42,18.86,18.86,0,0,1,.66,2.56,17,17,0,0,1,.09,5.26,17.34,17.34,0,0,1-.57,2.57,16.33,16.33,0,0,1-1,2.46,16.7,16.7,0,0,1-1.34,2.27,15.71,15.71,0,0,1-1.68,2,17.23,17.23,0,0,1-2,1.75,16.77,16.77,0,0,1-4.65,2.47,16.19,16.19,0,0,1-2.55.66,17,17,0,0,1-5.27.09,16.16,16.16,0,0,1-2.57-.57,16.76,16.76,0,0,1-2.46-1,15.73,15.73,0,0,1-2.27-1.34,17.09,17.09,0,0,1-2-1.67,18.22,18.22,0,0,1-1.75-2,17.12,17.12,0,0,1-1.41-2.23,15.84,15.84,0,0,1-1.06-2.42,18.35,18.35,0,0,1-.66-2.55,17,17,0,0,1-.09-5.26,17.47,17.47,0,0,1,.57-2.58,16.64,16.64,0,0,1,1-2.45c.39-.79.83-1.56,1.06-1.94l.22-.38"/><path class="cls-54" d="M92.36,51.92l.29-.34c.28-.35.85-1,1.48-1.69a17,17,0,0,1,2-1.78,16.63,16.63,0,0,1,2.26-1.44,17.26,17.26,0,0,1,2.46-1.07,16.82,16.82,0,0,1,2.6-.67,16.11,16.11,0,0,1,2.68-.26,17.22,17.22,0,0,1,2.68.16,18.31,18.31,0,0,1,2.62.58,17.33,17.33,0,0,1,4.81,2.35,16.93,16.93,0,0,1,2.07,1.71,16.19,16.19,0,0,1,1.78,2,17,17,0,0,1,3.19,7.33,18.29,18.29,0,0,1,.26,2.67,17.15,17.15,0,0,1-.17,2.68,16.79,16.79,0,0,1-.58,2.62,17.28,17.28,0,0,1-1,2.5,16.72,16.72,0,0,1-1.37,2.31,17,17,0,0,1-1.7,2.08,18,18,0,0,1-2,1.78,17.66,17.66,0,0,1-2.26,1.44A17.26,17.26,0,0,1,112,78c-.85.29-1.72.52-2.56,3.36s-1.63,8.3-2.53,8.32-1.89-5.41-2.82-8.23-1.81-3-2.67-3.27a16.94,16.94,0,0,1-4.81-2.34,17.9,17.9,0,0,1-2.07-1.71,17,17,0,0,1-1.78-2,17.38,17.38,0,0,1-1.44-2.27,16.83,16.83,0,0,1-1.08-2.46,18,18,0,0,1-.67-2.6,18.43,18.43,0,0,1-.26-2.67,17.18,17.18,0,0,1,1.73-7.8c.4-.81.85-1.58,1.08-2l.23-.39"/><path class="cls-55" d="M91,51l.31-.38c.31-.38.94-1.14,1.63-1.85a19.41,19.41,0,0,1,2.2-1.95,20.2,20.2,0,0,1,2.49-1.59A19.1,19.1,0,0,1,100.32,44a18.65,18.65,0,0,1,2.85-.74,18.91,18.91,0,0,1,5.88-.1,17.63,17.63,0,0,1,2.88.64,17.93,17.93,0,0,1,2.74,1.08,18.36,18.36,0,0,1,2.54,1.49,19.63,19.63,0,0,1,2.28,1.88,17.82,17.82,0,0,1,2,2.21A17.51,17.51,0,0,1,123,53a18.5,18.5,0,0,1,1.17,2.7,17.83,17.83,0,0,1,.74,2.85,19.39,19.39,0,0,1,.29,2.94,20.63,20.63,0,0,1-.18,2.94,18.73,18.73,0,0,1-.64,2.88,18.56,18.56,0,0,1-2.58,5.29A17.7,17.7,0,0,1,120,74.83a18.57,18.57,0,0,1-2.2,2,19.1,19.1,0,0,1-5.2,2.76,18.65,18.65,0,0,1-2.85.74,19.25,19.25,0,0,1-2.94.28,18.07,18.07,0,0,1-2.94-.18,18.82,18.82,0,0,1-5.62-1.72,17.47,17.47,0,0,1-2.54-1.5,18.59,18.59,0,0,1-2.28-1.87,19.39,19.39,0,0,1-1.95-2.21,18.1,18.1,0,0,1-1.59-2.49,19,19,0,0,1-1.17-2.7c-.33-.93-.57-1.89-3.18-2.82s-7.57-1.82-7.59-2.8,4.91-2.06,7.49-3.07,2.78-2,3.07-2.93a19,19,0,0,1,1.08-2.74c.43-.88.94-1.74,1.19-2.16L91,51"/><path class="cls-56" d="M90.58,50.68l.32-.39c.32-.39,1-1.18,1.67-1.9a18.62,18.62,0,0,1,4.82-3.63,18.44,18.44,0,0,1,2.77-1.21c1-.33,1.93-.58,2.82-6.69s1.69-18.09,2.7-18.1,2.23,11.91,3.33,18,2.1,6.3,3.06,6.59a20.14,20.14,0,0,1,2.82,1.11,20.66,20.66,0,0,1,2.6,1.54,18.77,18.77,0,0,1,4.34,4.19,19.35,19.35,0,0,1,1.63,2.55,19.52,19.52,0,0,1,2,5.7,20.18,20.18,0,0,1,.29,3,19.07,19.07,0,0,1-.19,3,19.64,19.64,0,0,1-.65,3,20.14,20.14,0,0,1-1.11,2.82,19.27,19.27,0,0,1-1.53,2.6A19.33,19.33,0,0,1,118,77.17a19.46,19.46,0,0,1-2.56,1.63,19.52,19.52,0,0,1-5.7,2,19.46,19.46,0,0,1-6,.11,18.51,18.51,0,0,1-3-.66A18,18,0,0,1,98,79.1a19.46,19.46,0,0,1-2.6-1.53A18.74,18.74,0,0,1,93,75.64a19.58,19.58,0,0,1-2-2.26,20,20,0,0,1-1.63-2.55,19.79,19.79,0,0,1-2-5.7,20.45,20.45,0,0,1-.29-3,19,19,0,0,1,.19-3,20,20,0,0,1,.65-3,20.51,20.51,0,0,1,1.11-2.81c.44-.91,1-1.78,1.21-2.22l.26-.43"/><path class="cls-57" d="M89.06,49.61l.36-.42c.35-.43,1-1.29,1.82-2.08a21.55,21.55,0,0,1,2.48-2.2,22.08,22.08,0,0,1,2.8-1.78,21,21,0,0,1,3-1.32,5.11,5.11,0,0,0,3.18-2.25C103.81,38,104.86,35,106,35s2.26,2.88,3.38,4.45a5.08,5.08,0,0,0,3.26,2.13,21.55,21.55,0,0,1,5.94,2.9,21.41,21.41,0,0,1,2.56,2.11,19.92,19.92,0,0,1,2.19,2.48,20.91,20.91,0,0,1,1.78,2.79,21.49,21.49,0,0,1,1.32,3,21,21,0,0,1,.83,3.21,20.27,20.27,0,0,1,.32,3.3,21.56,21.56,0,0,1-.2,3.31,19.83,19.83,0,0,1-.72,3.23A21.52,21.52,0,0,1,125.42,71a22,22,0,0,1-1.68,2.85,21.58,21.58,0,0,1-2.11,2.56,22.54,22.54,0,0,1-2.48,2.2,22.08,22.08,0,0,1-2.8,1.78,21,21,0,0,1-3,1.32,20.72,20.72,0,0,1-3.21.83,20.69,20.69,0,0,1-6.6.11,21.21,21.21,0,0,1-9.18-3.61A22.41,22.41,0,0,1,91.76,77a21.46,21.46,0,0,1-2.19-2.48,21.19,21.19,0,0,1-3.1-5.84,20.9,20.9,0,0,1-.83-3.2,20.38,20.38,0,0,1-.32-3.3,21.48,21.48,0,0,1,.2-3.31,20,20,0,0,1,.72-3.24,21.4,21.4,0,0,1,1.21-3.08c.49-1,1-2,1.33-2.43l.28-.48"/><path class="cls-58" d="M85.48,47.11l.43-.52c.42-.52,1.27-1.55,2.2-2.51a26.85,26.85,0,0,1,3-2.65,26.27,26.27,0,0,1,7-3.74c1.26-.43,2.56-.77,3.87-1.33S104.63,35,106,35s2.68.73,4,1.25,2.64.81,3.91,1.2a25.87,25.87,0,0,1,3.72,1.46,27.12,27.12,0,0,1,3.45,2,26.81,26.81,0,0,1,3.08,2.54,25.16,25.16,0,0,1,2.65,3,25.3,25.3,0,0,1,3.74,7,25,25,0,0,1,1,3.87,26.69,26.69,0,0,1,.39,4,25.31,25.31,0,0,1-.25,4,25.45,25.45,0,0,1-6.9,14.15,25.87,25.87,0,0,1-3,2.65,25.4,25.4,0,0,1-3.38,2.15,24.25,24.25,0,0,1-3.66,1.59,25.91,25.91,0,0,1-3.87,1,25.37,25.37,0,0,1-8,.13,25.12,25.12,0,0,1-7.62-2.33,24.73,24.73,0,0,1-6.53-4.57,25.07,25.07,0,0,1-2.65-3,26.34,26.34,0,0,1-2.15-3.37,25.91,25.91,0,0,1-1.59-3.67,24.43,24.43,0,0,1-1-3.87,26.43,26.43,0,0,1-.39-4,25.38,25.38,0,0,1,.25-4,25.12,25.12,0,0,1,2.33-7.62c.58-1.2,1.26-2.35,1.6-2.93l.34-.57"/><path class="cls-59" d="M85.35,47l.43-.52C86.21,46,87.07,44.94,88,44a26.26,26.26,0,0,1,3-2.66,25.58,25.58,0,0,1,3.39-2.16A25.19,25.19,0,0,1,102,36.54a25.3,25.3,0,0,1,8-.14,25.06,25.06,0,0,1,3.93.87,25.65,25.65,0,0,1,7.21,3.51,27,27,0,0,1,3.1,2.56,25.34,25.34,0,0,1,2.66,3,25.68,25.68,0,0,1,2.16,3.4,25.33,25.33,0,0,1,2.62,7.58,25.55,25.55,0,0,1,.38,4,27,27,0,0,1-.24,4,25.22,25.22,0,0,1-.88,3.92A24.61,24.61,0,0,1,129.47,73a25.77,25.77,0,0,1-7.61,9.24,26.64,26.64,0,0,1-3.39,2.16,26.2,26.2,0,0,1-3.69,1.6,25,25,0,0,1-3.89,1,25.79,25.79,0,0,1-4,.38,24.47,24.47,0,0,1-4-.24,26.25,26.25,0,0,1-3.93-.87,25.51,25.51,0,0,1-3.74-1.48,24.64,24.64,0,0,1-3.47-2,26,26,0,0,1-3.1-2.56,25.34,25.34,0,0,1-2.66-3,24.94,24.94,0,0,1-2.16-3.39,25.75,25.75,0,0,1-1.61-3.69,16.29,16.29,0,0,0-1.62-3.88c-.84-1.31-2.2-2.63-2.22-4s1.28-2.71,2.08-4.05a16.64,16.64,0,0,0,1.49-3.94,25.46,25.46,0,0,1,1.47-3.74c.59-1.2,1.27-2.36,1.61-2.94l.34-.58"/><path class="cls-60" d="M84,46.09l.45-.55c.46-.56,1.37-1.66,2.36-2.69A27.79,27.79,0,0,1,90,40a27.22,27.22,0,0,1,3.61-2.3A26.22,26.22,0,0,1,97.57,36a6.2,6.2,0,0,0,4.1-3.15c1.37-2.33,2.72-6.63,4.14-6.66s2.93,4.23,4.38,6.51a6.23,6.23,0,0,0,4.21,3,27.15,27.15,0,0,1,4,1.56,27.33,27.33,0,0,1,7,4.89,26.87,26.87,0,0,1,2.83,3.2,27.22,27.22,0,0,1,2.3,3.61,26.68,26.68,0,0,1,1.7,3.92,25.69,25.69,0,0,1,1.07,4.14,27.25,27.25,0,0,1,.15,8.52,28.2,28.2,0,0,1-.92,4.17,26.76,26.76,0,0,1-1.57,4,26.13,26.13,0,0,1-2.17,3.68,27.52,27.52,0,0,1-5.92,6.14,28.21,28.21,0,0,1-3.61,2.29,27.34,27.34,0,0,1-3.92,1.71,27.83,27.83,0,0,1-4.13,1.07,27.32,27.32,0,0,1-8.53.15,27.38,27.38,0,0,1-8.15-2.5,27.63,27.63,0,0,1-7-4.88,27.78,27.78,0,0,1-2.83-3.21,27.11,27.11,0,0,1-2.3-3.6,26.68,26.68,0,0,1-1.7-3.92,26,26,0,0,1-1.07-4.14A27.27,27.27,0,0,1,79.46,58a28.33,28.33,0,0,1,.92-4.18,27.08,27.08,0,0,1,1.57-4c.62-1.29,1.35-2.52,1.71-3.14l.37-.61"/><path class="cls-61" d="M83.52,45.73l.47-.56c.46-.57,1.39-1.69,2.41-2.74a27.33,27.33,0,0,1,3.27-2.9,27.77,27.77,0,0,1,3.69-2.35,27.44,27.44,0,0,1,4-1.74,6.84,6.84,0,0,0,4.2-2.94c1.4-2.1,2.79-5.94,4.25-6s3,3.75,4.46,5.8a6.83,6.83,0,0,0,4.3,2.8,26.87,26.87,0,0,1,4.07,1.6A27.85,27.85,0,0,1,131,48.7a27.47,27.47,0,0,1,2.84,8.24,28.86,28.86,0,0,1,.42,4.35,26.65,26.65,0,0,1-.27,4.37,28.14,28.14,0,0,1-4.76,12.1,28.93,28.93,0,0,1-2.78,3.37A28.23,28.23,0,0,1,123.2,84a27.77,27.77,0,0,1-3.69,2.35,29,29,0,0,1-4,1.74,28.06,28.06,0,0,1-4.24,1.09,26.38,26.38,0,0,1-4.35.42,27.6,27.6,0,0,1-4.36-.26,28.13,28.13,0,0,1-8.34-2.55,27.29,27.29,0,0,1-3.76-2.22,28.22,28.22,0,0,1-3.38-2.78,28.4,28.4,0,0,1-5.24-7A27.47,27.47,0,0,1,79,66.62a29,29,0,0,1-.42-4.36,26.6,26.6,0,0,1,.27-4.36,27.2,27.2,0,0,1,2.55-8.33c.64-1.32,1.38-2.58,1.75-3.21l.37-.63"/><path class="cls-62" d="M83.42,45.66l.47-.56c.46-.57,1.4-1.71,2.42-2.76a27.6,27.6,0,0,1,3.29-2.91,28.61,28.61,0,0,1,3.7-2.36,27.72,27.72,0,0,1,4-1.75,6.45,6.45,0,0,0,4.21-3.18c1.41-2.34,2.8-6.64,4.26-6.67s3,4.23,4.49,6.52a6.46,6.46,0,0,0,4.33,3,28.58,28.58,0,0,1,4.08,1.61,28,28,0,0,1,10.08,8.31,28.61,28.61,0,0,1,2.36,3.7,28.21,28.21,0,0,1,1.75,4,27.07,27.07,0,0,1,1.1,4.25,27.92,27.92,0,0,1,.15,8.75,27.39,27.39,0,0,1-.95,4.29A26,26,0,0,1,131.58,74a27.62,27.62,0,0,1-2.22,3.79,28.16,28.16,0,0,1-6.09,6.3,26.89,26.89,0,0,1-3.7,2.35,28.25,28.25,0,0,1-12.65,3.28,29.19,29.19,0,0,1-4.38-.27,27.83,27.83,0,0,1-8.37-2.56,27.57,27.57,0,0,1-3.78-2.23A28.4,28.4,0,0,1,87,81.91a27.5,27.5,0,0,1-2.91-3.29A28.18,28.18,0,0,1,80,70.89a27.36,27.36,0,0,1-1.1-4.25,28,28,0,0,1-.15-8.76,27.26,27.26,0,0,1,1-4.28,26.51,26.51,0,0,1,1.61-4.09c.64-1.31,1.38-2.58,1.76-3.21l.37-.64"/><path class="cls-63" d="M82.34,44.91l.49-.59c.49-.6,1.47-1.78,2.54-2.89A29.14,29.14,0,0,1,96.9,34.09a29.7,29.7,0,0,1,4.45-1.16,29.31,29.31,0,0,1,9.16-.16,30,30,0,0,1,4.49,1,28.95,28.95,0,0,1,8.23,4,28.4,28.4,0,0,1,3.55,2.92,31.12,31.12,0,0,1,3.05,3.44A29.61,29.61,0,0,1,132.3,48a29.12,29.12,0,0,1,1.83,4.21,29.67,29.67,0,0,1,1.15,4.45,29.33,29.33,0,0,1,.16,9.16,29.72,29.72,0,0,1-2.68,8.77,28.83,28.83,0,0,1-5.26,7.5,27.68,27.68,0,0,1-3.44,3,29,29,0,0,1-8.09,4.3,28.51,28.51,0,0,1-4.45,1.15,29.31,29.31,0,0,1-9.16.16,29.36,29.36,0,0,1-12.72-5,29.31,29.31,0,0,1-3.55-2.92,30.34,30.34,0,0,1-3-3.45,29,29,0,0,1-4.3-8.09,11,11,0,0,0-2.25-4.43c-1.36-1.49-3.7-3-3.73-4.51s2.26-3.11,3.57-4.65a11.12,11.12,0,0,0,2.1-4.5,28.58,28.58,0,0,1,1.68-4.28c.67-1.38,1.45-2.7,1.84-3.37l.39-.66"/><path class="cls-64" d="M72.64,38.12l.69-.84c.68-.83,2.06-2.49,3.55-4A40,40,0,0,1,81.71,29a41.12,41.12,0,0,1,30.44-7.88,41.22,41.22,0,0,1,6.3,1.4,42.21,42.21,0,0,1,6,2.36A41.21,41.21,0,0,1,130,28.12a40.84,40.84,0,0,1,9.25,8.93,41.69,41.69,0,0,1,3.46,5.44,41.25,41.25,0,0,1,2.57,5.91,39,39,0,0,0,2.37,6.23c1.13,2.11,2.85,4.23,2.89,6.38s-1.61,4.33-2.66,6.47a38.28,38.28,0,0,0-2.15,6.31,40.23,40.23,0,0,1-2.37,6,41.21,41.21,0,0,1-3.27,5.55,40.79,40.79,0,0,1-4.1,5,40,40,0,0,1-4.83,4.27,40.73,40.73,0,0,1-5.44,3.47,41.89,41.89,0,0,1-5.91,2.57,40.54,40.54,0,0,1-6.24,1.61,41.91,41.91,0,0,1-6.42.62,40.68,40.68,0,0,1-6.43-.4,41.19,41.19,0,0,1-6.3-1.39,42.21,42.21,0,0,1-6-2.36,41.28,41.28,0,0,1-5.55-3.28,40.63,40.63,0,0,1-5-4.1,41.77,41.77,0,0,1-4.27-4.83,40.91,40.91,0,0,1-6-11.35A41.75,41.75,0,0,1,66,68.91a41.53,41.53,0,0,1-.22-12.85,42,42,0,0,1,1.39-6.29,40.23,40.23,0,0,1,2.37-6c.94-1.94,2-3.8,2.58-4.73l.55-.92"/></g></g></svg>