<svg xmlns="http://www.w3.org/2000/svg" viewBox="0 0 283.56 809.47"><defs><style>.cls-1,.cls-10,.cls-11,.cls-12,.cls-13,.cls-14,.cls-15,.cls-16,.cls-17,.cls-18,.cls-19,.cls-2,.cls-20,.cls-21,.cls-22,.cls-23,.cls-24,.cls-25,.cls-26,.cls-27,.cls-28,.cls-29,.cls-3,.cls-30,.cls-31,.cls-32,.cls-33,.cls-34,.cls-35,.cls-36,.cls-37,.cls-38,.cls-39,.cls-4,.cls-40,.cls-41,.cls-42,.cls-43,.cls-44,.cls-45,.cls-46,.cls-47,.cls-48,.cls-49,.cls-5,.cls-50,.cls-51,.cls-52,.cls-53,.cls-54,.cls-55,.cls-56,.cls-57,.cls-58,.cls-59,.cls-6,.cls-60,.cls-61,.cls-62,.cls-63,.cls-64,.cls-7,.cls-8,.cls-9{isolation:isolate;}.cls-10,.cls-11,.cls-12,.cls-13,.cls-14,.cls-15,.cls-16,.cls-17,.cls-18,.cls-19,.cls-2,.cls-20,.cls-21,.cls-22,.cls-23,.cls-24,.cls-25,.cls-26,.cls-27,.cls-28,.cls-29,.cls-3,.cls-30,.cls-31,.cls-32,.cls-33,.cls-34,.cls-35,.cls-36,.cls-37,.cls-38,.cls-39,.cls-4,.cls-40,.cls-41,.cls-42,.cls-43,.cls-44,.cls-45,.cls-46,.cls-47,.cls-48,.cls-49,.cls-5,.cls-50,.cls-51,.cls-52,.cls-53,.cls-54,.cls-55,.cls-56,.cls-57,.cls-58,.cls-59,.cls-6,.cls-60,.cls-61,.cls-62,.cls-63,.cls-64,.cls-7,.cls-8,.cls-9{fill:none;stroke:#000;opacity:0.7;}.cls-2{stroke-width:0.78px;}.cls-3{stroke-width:0.34px;}.cls-4{stroke-width:0.32px;}.cls-5{stroke-width:0.31px;}.cls-6{stroke-width:0.49px;}.cls-7{stroke-width:0.5px;}.cls-8{stroke-width:1.58px;}.cls-9{stroke-width:1.59px;}.cls-10{stroke-width:0.25px;}.cls-11{stroke-width:0.27px;}.cls-12{stroke-width:0.31px;}.cls-13{stroke-width:0.09px;}.cls-14{stroke-width:1.61px;}.cls-15{stroke-width:0.5px;}.cls-16{stroke-width:0.56px;}.cls-17{stroke-width:0.38px;}.cls-18{stroke-width:0.54px;}.cls-19{stroke-width:0.35px;}.cls-20{stroke-width:0.79px;}.cls-21{stroke-width:0.56px;}.cls-22{stroke-width:0.34px;}.cls-23{stroke-width:1.11px;}.cls-24{stroke-width:0.13px;}.cls-25{stroke-width:0.76px;}.cls-26{stroke-width:1.13px;}.cls-27{stroke-width:0.63px;}.cls-28{stroke-width:0.66px;}.cls-29{stroke-width:0.7px;}.cls-30{stroke-width:0.35px;}.cls-31{stroke-width:0.16px;}.cls-32{stroke-width:0.72px;}.cls-33{stroke-width:0.11px;}.cls-34{stroke-width:0.75px;}.cls-35{stroke-width:0.51px;}.cls-36{stroke-width:0.98px;}.cls-37{stroke-width:0.12px;}.cls-38{stroke-width:0.2px;}.cls-39{stroke-width:0.9px;}.cls-40{stroke-width:0.7px;}.cls-41{stroke-width:0.5px;}.cls-42{stroke-width:0.27px;}.cls-43{stroke-width:1.2px;}.cls-44{stroke-width:0.99px;}.cls-45{stroke-width:0.09px;}.cls-46{stroke-width:0.17px;}.cls-47{stroke-width:0.19px;}.cls-48{stroke-width:1.64px;}.cls-49{stroke-width:1.62px;}.cls-50{stroke-width:0.95px;}.cls-51{stroke-width:0.95px;}.cls-52{stroke-width:0.74px;}.cls-53{stroke-width:0.56px;}.cls-54{stroke-width:0.26px;}.cls-55{stroke-width:1.15px;}.cls-56{stroke-width:0.73px;}.cls-57{stroke-width:0.35px;}.cls-58{stroke-width:1.07px;}.cls-59{stroke-width:0.93px;}.cls-60{stroke-width:0.38px;}.cls-61{stroke-width:0.38px;}.cls-62{stroke-width:0.51px;}.cls-63{stroke-width:0.15px;}.cls-64{stroke-width:0.5px;}</style></defs><title>Asset 19artifact-radials-vert-names-right-illus</title><g id="Layer_2" data-name="Layer 2"><g id="Layer_1-2" data-name="Layer 1"><g id="Head" class="cls-1"><g class="cls-1"><path d="M250.44,40.23v9.22l.08.09h1.28v.77h-4.1v-.77H249l.09-.09V44.8h-5.81v4.65l.09.09h1.28v.77h-4.1v-.77h1.28l.08-.09V40.23l-1.45-.86V39.2h4.36v.17l-1.54.86V44h5.81V40.23l-1.54-.86V39.2h4.36v.17Z"/><path d="M259.2,46.5h-4.71c0,2.23,1.17,3,2.71,3a3.91,3.91,0,0,0,1.76-.42l.19.36a4,4,0,0,1-2.65,1A3.28,3.28,0,0,1,253.17,47a3.58,3.58,0,0,1,3.37-3.85,2.56,2.56,0,0,1,2.7,2.8C259.24,46.1,259.22,46.29,259.2,46.5Zm-4.68-.62h3.38c0-1.42-.56-2.07-1.48-2.07S254.69,44.34,254.52,45.88Z"/><path d="M266.7,49.54v.77h-2.3v-.7a4.12,4.12,0,0,1-2.26.87,1.6,1.6,0,0,1-1.71-1.64c0-1.57,1.66-2.16,4-2.26v-.53c0-1.35-.31-2-1.56-2a3.45,3.45,0,0,0-2,.65l-.22-.41a3.61,3.61,0,0,1,2.66-1.16,2.08,2.08,0,0,1,2.29,2.24v4.08l.09.09Zm-2.3-.24V47.13c-1.46.1-2.76.34-2.76,1.48,0,.67.47,1,1.11,1A5.35,5.35,0,0,0,264.4,49.3Z"/><path d="M275.6,49.54v.77h-2.39v-.82a5.4,5.4,0,0,1-2.65,1c-1.69,0-2.68-1.71-2.68-3.47,0-1.95,1.13-3.88,3.55-3.88a4.13,4.13,0,0,1,1.78.36V39.71l-1.14-.54v-.09L274.31,38l.1.06V49.45l.08.09Zm-2.39-.33V44.87a2.06,2.06,0,0,0-1.95-1.06c-1.5,0-2.06,1.1-2.06,2.82s.59,2.84,2.08,2.84A7.44,7.44,0,0,0,273.21,49.21Z"/></g></g><g id="Arms" class="cls-1"><g class="cls-1"><path d="M251.05,172v.77h-3.43V172h.82l.08-.09-1-3h-3.74l-1.09,3,.08.09H244v.77h-3.55V172h1.18l.09-.09,3.87-10.34h.65L250,171.87l.08.09Zm-3.83-3.9-1.55-4.54h0L244,168.06Z"/><path d="M257,165.67v1.25a4.48,4.48,0,0,0-.87-.09,8.27,8.27,0,0,0-1.79.24v4.8l.08.09h1.28v.77h-3.67V172h1l.09-.09v-4.65l-1.15-.54v-.09l2.07-1.06.11.05.17,1.17a5.41,5.41,0,0,1,2.23-1.2A.78.78,0,0,1,257,165.67Z"/><path d="M270.07,172v.77h-3.42V172h1l.08-.09v-3.25c0-1.46-.29-2-1.49-2a8.09,8.09,0,0,0-1.86.26v0a2.92,2.92,0,0,1,.06.68v4.32l.09.09h1v.77h-3.41V172h1l.09-.09v-3.25c0-1.46-.29-2-1.49-2a8.82,8.82,0,0,0-1.81.24v5l.09.09h1v.77h-3.42V172h1l.08-.09v-4.63l-1.14-.55v-.08l2.07-1.06.1,0,.14,1a4.83,4.83,0,0,1,2.39-1,1.88,1.88,0,0,1,2,1.09,5,5,0,0,1,2.49-1.09c1.49,0,2.14.72,2.14,2v4.32l.08.09Z"/><path d="M271.31,172.49v-1.8h.09l.85.94a2,2,0,0,0,1.37.62c.7,0,1.18-.36,1.18-1,0-.85-.82-1.12-1.71-1.6s-1.67-1.16-1.67-2.16.92-2,2.42-2a5.08,5.08,0,0,1,1.81.32v1.75h-.08l-.89-1a1.6,1.6,0,0,0-1.13-.45,1,1,0,0,0-1.11,1c0,.8.81,1.18,1.61,1.6s1.81,1,1.81,2.16a2.12,2.12,0,0,1-2.36,2A6.1,6.1,0,0,1,271.31,172.49Z"/></g></g><g id="Hands" class="cls-1"><g class="cls-1"><path d="M250.44,327.48v9.23l.08.08h1.28v.77h-4.1v-.77H249l.09-.08v-4.65h-5.81v4.65l.09.08h1.28v.77h-4.1v-.77h1.28l.08-.08v-9.23l-1.45-.85v-.17h4.36v.17l-1.54.85v3.81h5.81v-3.81l-1.54-.85v-.17h4.36v.17Z"/><path d="M259.7,336.79v.77h-2.31v-.7a4,4,0,0,1-2.26.87,1.59,1.59,0,0,1-1.7-1.64c0-1.57,1.65-2.15,4-2.25v-.53c0-1.35-.31-2-1.56-2a3.4,3.4,0,0,0-2,.65l-.22-.41a3.6,3.6,0,0,1,2.67-1.16,2.09,2.09,0,0,1,2.29,2.23v4.09l.08.08Zm-2.31-.24v-2.17c-1.45.11-2.75.34-2.75,1.49,0,.67.46,1,1.11,1A5.28,5.28,0,0,0,257.39,336.55Z"/><path d="M268.85,336.79v.77h-3.5v-.77h1.11l.09-.08v-3.25c0-1.47-.31-2-1.57-2a8.91,8.91,0,0,0-1.9.24v5l.08.08h1.12v.77h-3.51v-.77h1l.08-.08v-4.65l-1.14-.55v-.08l2.07-1.06.1.05.13,1a5,5,0,0,1,2.48-1c1.54,0,2.22.71,2.22,2v4.33l.09.08Z"/><path d="M277.76,336.79v.77h-2.4v-.82a5.37,5.37,0,0,1-2.64,1c-1.7,0-2.69-1.71-2.69-3.47,0-1.94,1.13-3.87,3.56-3.87a4.13,4.13,0,0,1,1.77.35V327l-1.14-.55v-.08l2.24-1.08.1.05v11.4l.09.08Zm-2.4-.32v-4.34a2,2,0,0,0-1.94-1.06c-1.51,0-2.07,1.09-2.07,2.82s.6,2.83,2.08,2.83A7.94,7.94,0,0,0,275.36,336.47Z"/><path d="M279,337.32v-1.79h.09l.85.94a2,2,0,0,0,1.37.61c.7,0,1.18-.36,1.18-1,0-.86-.82-1.13-1.71-1.61-1.05-.56-1.68-1.16-1.68-2.15,0-1.14.93-2,2.43-2a4.91,4.91,0,0,1,1.81.32v1.74h-.09l-.88-1a1.66,1.66,0,0,0-1.13-.44c-.69,0-1.11.39-1.11,1,0,.81.8,1.18,1.6,1.61s1.81,1,1.81,2.15a2.11,2.11,0,0,1-2.35,2A6.06,6.06,0,0,1,279,337.32Z"/></g></g><g id="Torso" class="cls-1"><g class="cls-1"><path d="M243.11,463.54h1.28l.08-.09V454h-2.73l-1.21,2.14h-.09V453.2h9.43v2.91h-.1l-1.2-2.14h-2.73v9.48l.09.09h1.28v.77h-4.1Z"/><path d="M250,460.94a3.58,3.58,0,0,1,3.6-3.81,3.29,3.29,0,0,1,3.4,3.54,3.6,3.6,0,0,1-3.57,3.81A3.29,3.29,0,0,1,250,460.94Zm5.67.15c0-1.87-1-3.28-2.34-3.28-1.13,0-2,.84-2,2.69s1,3.29,2.34,3.29C254.79,463.79,255.63,462.92,255.63,461.09Z"/><path d="M263.2,457.25v1.25a4.48,4.48,0,0,0-.87-.09,8.43,8.43,0,0,0-1.8.24v4.8l.09.09h1.28v.77h-3.67v-.77h1l.09-.09v-4.64l-1.15-.55v-.09l2.07-1.06.1.05.17,1.17a5.5,5.5,0,0,1,2.24-1.2A.78.78,0,0,1,263.2,457.25Z"/><path d="M264.09,464.07v-1.8h.08l.86.94a1.92,1.92,0,0,0,1.36.62c.71,0,1.18-.36,1.18-1,0-.85-.82-1.12-1.71-1.6-1-.57-1.67-1.16-1.67-2.15,0-1.15.92-2,2.43-2a5.16,5.16,0,0,1,1.81.32v1.75h-.09l-.89-1a1.59,1.59,0,0,0-1.12-.45,1,1,0,0,0-1.12,1c0,.8.81,1.18,1.61,1.61s1.81,1,1.81,2.15a2.12,2.12,0,0,1-2.36,2A6,6,0,0,1,264.09,464.07Z"/><path d="M270,460.94a3.58,3.58,0,0,1,3.6-3.81,3.29,3.29,0,0,1,3.4,3.54,3.6,3.6,0,0,1-3.57,3.81A3.29,3.29,0,0,1,270,460.94Zm5.67.15c0-1.87-1-3.28-2.34-3.28-1.13,0-2,.84-2,2.69s1,3.29,2.34,3.29C274.85,463.79,275.69,462.92,275.69,461.09Z"/></g></g><g id="Legs" class="cls-1"><g class="cls-1"><path d="M240.53,592.17h1.28l.08-.09v-9.22l-1.45-.86v-.17h4.36V582l-1.54.86v9.31H247l1.08-2h.17v2.82h-7.74Z"/><path d="M255.75,589.13H251c0,2.24,1.18,3.06,2.72,3.06a3.78,3.78,0,0,0,1.76-.43l.19.36a4,4,0,0,1-2.65,1,3.28,3.28,0,0,1-3.33-3.52,3.57,3.57,0,0,1,3.36-3.84,2.55,2.55,0,0,1,2.7,2.8C255.78,588.73,255.77,588.92,255.75,589.13Zm-4.68-.62h3.38c0-1.42-.56-2.06-1.48-2.06S251.24,587,251.07,588.51Z"/><path d="M264,587.11l-1.63-.15a2.78,2.78,0,0,1,.38,1.47,3,3,0,0,1-4.1,2.56,1.55,1.55,0,0,0-.36.87c0,.48.31.7,1.85.7h.44c2,0,2.8.5,2.8,1.54,0,2-2.17,2.77-4.1,2.77-1.49,0-2.53-.46-2.53-1.47,0-.8.65-1.25,1.2-1.74a1,1,0,0,1-.84-1c0-.68.67-1.31,1.25-1.76a2.36,2.36,0,0,1-1.23-2.17,2.83,2.83,0,0,1,2.94-2.92,2.65,2.65,0,0,1,1.94.74l2-.82Zm-5.68,6.61A2.5,2.5,0,0,0,258,595c0,.9.62,1.28,1.57,1.28,1.18,0,2.79-.6,2.79-1.64,0-.58-.5-.84-1.57-.84h-1.27A6.45,6.45,0,0,1,258.36,593.72Zm3.16-5c0-1.52-.66-2.39-1.55-2.39s-1.52.63-1.52,2,.58,2.3,1.54,2.3S261.52,590.05,261.52,588.72Z"/><path d="M265,592.7v-1.79H265l.86.93a1.92,1.92,0,0,0,1.37.62c.7,0,1.17-.36,1.17-1,0-.86-.82-1.13-1.7-1.61-1.05-.56-1.68-1.16-1.68-2.15,0-1.15.92-2,2.43-2a4.94,4.94,0,0,1,1.81.33v1.74h-.09l-.89-1a1.57,1.57,0,0,0-1.12-.45,1,1,0,0,0-1.11,1c0,.8.8,1.18,1.6,1.61s1.81,1,1.81,2.15a2.12,2.12,0,0,1-2.35,2A6.06,6.06,0,0,1,265,592.7Z"/></g></g><g id="Feet" class="cls-1"><g class="cls-1"><path d="M248.2,744.33v2.82h-.09l-1.18-2h-3.67v4.41h2.9l.09-.09v-1.28H247v3.5h-.77v-1.28l-.09-.08h-2.9v4.28l.12.11H245v.77h-4.47v-.77h1.28l.08-.09v-9.22l-1.45-.86v-.17Z"/><path d="M254.83,751.63h-4.72c0,2.23,1.18,3,2.72,3a3.91,3.91,0,0,0,1.76-.42l.19.36a4,4,0,0,1-2.65,1,3.27,3.27,0,0,1-3.33-3.52,3.58,3.58,0,0,1,3.36-3.85,2.55,2.55,0,0,1,2.7,2.8C254.86,751.23,254.84,751.42,254.83,751.63Zm-4.68-.62h3.38c0-1.42-.57-2.07-1.49-2.07S250.32,749.47,250.15,751Z"/><path d="M262.17,751.63h-4.71c0,2.23,1.18,3,2.71,3a3.87,3.87,0,0,0,1.76-.42l.19.36a4,4,0,0,1-2.65,1,3.28,3.28,0,0,1-3.33-3.52,3.58,3.58,0,0,1,3.37-3.85,2.55,2.55,0,0,1,2.7,2.8C262.21,751.23,262.19,751.42,262.17,751.63Zm-4.68-.62h3.39c0-1.42-.57-2.07-1.49-2.07S257.66,749.47,257.49,751Z"/><path d="M264.19,753.44v-4.05l-.09-.09h-1v-.08l2.22-2.92h.09v2.23h2.3v.77h-2.3v3.2c0,1.72.25,2.3,1.24,2.3a3.31,3.31,0,0,0,1.13-.18l.19.35a3.66,3.66,0,0,1-2,.64C264.77,755.61,264.19,755.06,264.19,753.44Z"/></g></g><path class="cls-2" d="M149.76,748.14l.17.14c.17.14.51.42.82.73a7.35,7.35,0,0,1,.87,1,8,8,0,0,1,.71,1.11,7.5,7.5,0,0,1,.52,1.2,7,7,0,0,1,.33,1.27,8.16,8.16,0,0,1-.24,3.9,7.54,7.54,0,0,1-.48,1.22,8.05,8.05,0,0,1-.66,1.14,11.53,11.53,0,0,1-.84,1,9.08,9.08,0,0,1-1,.87,8,8,0,0,1-1.11.7,7.65,7.65,0,0,1-1.21.53,8.76,8.76,0,0,1-1.27.33,9.52,9.52,0,0,1-1.3.12,8.16,8.16,0,0,1-1.31-.08,8,8,0,0,1-1.29-.28,9.08,9.08,0,0,1-1.22-.48,9.88,9.88,0,0,1-1.13-.67,8.7,8.7,0,0,1-1.88-1.82,8,8,0,0,1-.71-1.11,8.52,8.52,0,0,1-.52-1.2c-.14-.41-.25-.84-4-1.21s-11.12-.67-11.12-1.11,7.35-1,11.08-1.51,3.82-.92,3.95-1.34a8.59,8.59,0,0,1,.48-1.22,6.73,6.73,0,0,1,.67-1.13,9,9,0,0,1,.83-1,10.15,10.15,0,0,1,1-.87,8,8,0,0,1,1.11-.7,8.69,8.69,0,0,1,1.21-.53,9.11,9.11,0,0,1,1.27-.33,9.52,9.52,0,0,1,1.3-.12,8.36,8.36,0,0,1,1.32.08,8.13,8.13,0,0,1,1.28.28,8.59,8.59,0,0,1,1.22.48c.39.2.77.42,1,.53l.19.11"/><path class="cls-3" d="M151.22,746.05l.23.18c.22.19.66.55,1.07.95a9.85,9.85,0,0,1,1.13,1.28,10,10,0,0,1,.92,1.44,11.51,11.51,0,0,1,.69,1.57,10.62,10.62,0,0,1,.42,1.66,10.45,10.45,0,0,1,.06,3.41,11.31,11.31,0,0,1-1,3.27,10.92,10.92,0,0,1-.87,1.47,10.61,10.61,0,0,1-1.09,1.32,12.56,12.56,0,0,1-1.28,1.14,11.46,11.46,0,0,1-1.45.92,10.94,10.94,0,0,1-1.57.68c-.54.19-1.09.33-1.63,2s-1.05,4.92-1.62,4.93-1.2-3.2-1.79-4.87-1.15-1.79-1.7-2a11,11,0,0,1-1.59-.63,10.44,10.44,0,0,1-1.48-.87,10.61,10.61,0,0,1-1.32-1.09,9.85,9.85,0,0,1-1.13-1.28,11,11,0,0,1-.92-1.44,11.51,11.51,0,0,1-.69-1.57,11.87,11.87,0,0,1-.42-1.66,10.45,10.45,0,0,1-.06-3.41,11.31,11.31,0,0,1,1-3.27,12.08,12.08,0,0,1,.87-1.47,11.58,11.58,0,0,1,1.09-1.32,12.56,12.56,0,0,1,1.28-1.14,11.46,11.46,0,0,1,1.45-.92,10.94,10.94,0,0,1,1.57-.68,10.37,10.37,0,0,1,1.66-.43,10.75,10.75,0,0,1,1.7-.16,10.75,10.75,0,0,1,5,1.1c.52.25,1,.54,1.26.69l.24.14"/><path class="cls-4" d="M151.51,745.64l.23.19c.24.19.7.57,1.13,1a10.85,10.85,0,0,1,1.19,1.34,10.72,10.72,0,0,1,1,1.51,10.41,10.41,0,0,1,.71,1.64c.2.56.35,1.14,2,1.71s4.67,1.1,4.68,1.7-3,1.25-4.62,1.87-1.71,1.2-1.89,1.77a11,11,0,0,1-1.56,3.21,10.71,10.71,0,0,1-1.14,1.38,10.85,10.85,0,0,1-1.34,1.19,11.33,11.33,0,0,1-1.51,1,12.55,12.55,0,0,1-1.64.72,11.67,11.67,0,0,1-1.74.44,10.64,10.64,0,0,1-1.78.18,11.87,11.87,0,0,1-1.79-.11,13.37,13.37,0,0,1-1.75-.39,10.83,10.83,0,0,1-1.66-.66,10.48,10.48,0,0,1-1.55-.91,11.52,11.52,0,0,1-1.38-1.13,11.64,11.64,0,0,1-1.18-1.35,10.78,10.78,0,0,1-1-1.51,10.41,10.41,0,0,1-.71-1.64,10.23,10.23,0,0,1-.45-1.73,11.46,11.46,0,0,1-.06-3.57,10.31,10.31,0,0,1,.39-1.75,11,11,0,0,1,1.56-3.21,11.63,11.63,0,0,1,2.48-2.57,11.33,11.33,0,0,1,1.51-1,12.55,12.55,0,0,1,1.64-.72,11.67,11.67,0,0,1,1.74-.44,10.64,10.64,0,0,1,1.78-.18,11.87,11.87,0,0,1,1.79.11,13,13,0,0,1,1.75.39,12,12,0,0,1,1.66.66c.54.26,1.06.56,1.32.72l.25.15"/><path class="cls-5" d="M152.34,744.46l.26.22c.26.21.78.64,1.26,1.11a12.63,12.63,0,0,1,2.42,3.21,13.64,13.64,0,0,1,.8,1.84c.22.64.39,1.29,2,1.93s4.62,1.26,4.63,1.93-3,1.39-4.56,2.09-1.72,1.35-1.92,2a12.54,12.54,0,0,1-.74,1.87,11.65,11.65,0,0,1-1,1.74,14.74,14.74,0,0,1-1.28,1.56,12.72,12.72,0,0,1-1.51,1.33,13.17,13.17,0,0,1-3.55,1.89,13,13,0,0,1-2,.5,12.22,12.22,0,0,1-2,.19,11.3,11.3,0,0,1-2-.12,13.18,13.18,0,0,1-2-.43,12.69,12.69,0,0,1-3.62-1.77,11.84,11.84,0,0,1-1.55-1.28,12.63,12.63,0,0,1-2.42-3.21,13.64,13.64,0,0,1-.8-1.84,13.32,13.32,0,0,1-.51-2,13.67,13.67,0,0,1-.19-2,13.48,13.48,0,0,1,.12-2,13.06,13.06,0,0,1,.44-2,13.14,13.14,0,0,1,1.76-3.61,14.74,14.74,0,0,1,1.28-1.56,13.56,13.56,0,0,1,1.51-1.33,12.18,12.18,0,0,1,1.7-1.08,12.65,12.65,0,0,1,1.85-.81,13.28,13.28,0,0,1,2-.5,13.12,13.12,0,0,1,4-.07,13.18,13.18,0,0,1,2,.43,13.35,13.35,0,0,1,1.88.74c.6.3,1.19.64,1.48.81l.29.17"/><path class="cls-6" d="M153.36,743l.29.24c.3.25.89.73,1.44,1.26a15.46,15.46,0,0,1,1.52,1.72,14.45,14.45,0,0,1,1.23,1.94,14.06,14.06,0,0,1,.92,2.1,15.05,15.05,0,0,1,.57,2.22,14.59,14.59,0,0,1,.08,4.57,14.22,14.22,0,0,1-.5,2.24,13.86,13.86,0,0,1-.84,2.13,14,14,0,0,1-1.16,2,16.33,16.33,0,0,1-1.46,1.77,15.35,15.35,0,0,1-3.65,2.75,15,15,0,0,1-2.1.91c-.73.25-1.47.44-2.18,2.91s-1.4,7.2-2.16,7.21-1.61-4.7-2.41-7.13-1.55-2.61-2.28-2.83a15.71,15.71,0,0,1-2.13-.84,15.14,15.14,0,0,1-2-1.17,13.65,13.65,0,0,1-1.77-1.45,15.46,15.46,0,0,1-1.52-1.72,14.45,14.45,0,0,1-1.23-1.94,13.06,13.06,0,0,1-.91-2.1,13.93,13.93,0,0,1-.58-2.22,14.43,14.43,0,0,1-.22-2.28,14.67,14.67,0,0,1,.14-2.29,14.22,14.22,0,0,1,.5-2.24,13.86,13.86,0,0,1,.84-2.13,14,14,0,0,1,1.16-2,15.32,15.32,0,0,1,1.46-1.76,13.75,13.75,0,0,1,1.72-1.52,14.15,14.15,0,0,1,4-2.15,14.47,14.47,0,0,1,2.22-.57,13.56,13.56,0,0,1,2.29-.22,13.37,13.37,0,0,1,2.28.14,14.2,14.2,0,0,1,2.24.49,16.38,16.38,0,0,1,2.14.84c.68.34,1.34.73,1.68.92l.33.2"/><path class="cls-7" d="M153.4,742.94l.3.24c.3.25.9.74,1.45,1.27a16.75,16.75,0,0,1,1.53,1.73,15.29,15.29,0,0,1,1.24,2,14.17,14.17,0,0,1,.92,2.11,14.59,14.59,0,0,1,.57,2.23,14.79,14.79,0,0,1,.08,4.6,13.3,13.3,0,0,1-.5,2.25,13.69,13.69,0,0,1-.84,2.15,15.14,15.14,0,0,1-1.17,2,13.24,13.24,0,0,1-1.47,1.78,13.84,13.84,0,0,1-1.72,1.53,14.26,14.26,0,0,1-1.95,1.24,15.14,15.14,0,0,1-2.11.92,15.68,15.68,0,0,1-2.24.58,14.72,14.72,0,0,1-4.59.08,15.7,15.7,0,0,1-2.26-.5,15.13,15.13,0,0,1-2.14-.85,13.3,13.3,0,0,1-2-1.17,14.71,14.71,0,0,1-1.78-1.46,16.75,16.75,0,0,1-1.53-1.73,15.7,15.7,0,0,1-1.24-2,14.32,14.32,0,0,1-1.49-4.34,14.79,14.79,0,0,1-.08-4.6,13.3,13.3,0,0,1,.5-2.25,13.69,13.69,0,0,1,.84-2.15,15.14,15.14,0,0,1,1.17-2,13.9,13.9,0,0,1,1.47-1.78,13.24,13.24,0,0,1,1.73-1.53,13.58,13.58,0,0,1,1.94-1.24,14.76,14.76,0,0,1,2.12-.92c.72-.25,1.47-.44,2.19-2.94s1.4-7.28,2.17-7.29,1.62,4.75,2.42,7.21,1.56,2.64,2.3,2.86a15.13,15.13,0,0,1,2.14.85c.69.33,1.36.72,1.69.92l.33.2"/><path class="cls-8" d="M158,736.45l.45.38c.46.37,1.38,1.13,2.23,1.95a23.67,23.67,0,0,1,2.35,2.65,22.86,22.86,0,0,1,1.9,3,21.71,21.71,0,0,1,1.41,3.25c.39,1.12.69,2.27,4.47,3.37s11.08,2.16,11.1,3.34-7.22,2.49-11,3.73-4,2.39-4.35,3.52a23.31,23.31,0,0,1-1.3,3.3,22.72,22.72,0,0,1-9.7,10,22.81,22.81,0,0,1-6.68,2.3,24.39,24.39,0,0,1-3.53.34,23.16,23.16,0,0,1-3.53-.22,22.75,22.75,0,0,1-3.46-.77,21.75,21.75,0,0,1-3.3-1.3,22.81,22.81,0,0,1-3-1.8,21.85,21.85,0,0,1-2.74-2.25,23.67,23.67,0,0,1-2.35-2.65,24,24,0,0,1-1.9-3,22.81,22.81,0,0,1-2.3-6.68,22.46,22.46,0,0,1-.12-7.07,22.14,22.14,0,0,1,2.06-6.75,22.31,22.31,0,0,1,1.8-3.06,21.83,21.83,0,0,1,2.26-2.73,22.72,22.72,0,0,1,2.65-2.35,21.6,21.6,0,0,1,3-1.9,22.36,22.36,0,0,1,3.25-1.42,23.67,23.67,0,0,1,3.43-.89,23.05,23.05,0,0,1,3.53-.33,21.94,21.94,0,0,1,3.53.21,22.75,22.75,0,0,1,3.46.77,21.75,21.75,0,0,1,3.3,1.3c1.06.52,2.09,1.12,2.6,1.42l.51.3"/><path class="cls-9" d="M158,736.31l.47.38c.46.38,1.38,1.14,2.24,2a24,24,0,0,1,2.36,2.67,22.56,22.56,0,0,1,1.92,3,22.1,22.1,0,0,1,1.42,3.28,6.16,6.16,0,0,0,2.17,3.43c1.48,1.15,4.14,2.3,4.16,3.49s-2.6,2.43-4,3.63a6.18,6.18,0,0,0-2,3.51,23,23,0,0,1-3.12,6.4,24.92,24.92,0,0,1-2.27,2.75,23.18,23.18,0,0,1-2.68,2.37,22.49,22.49,0,0,1-3,1.91,22.27,22.27,0,0,1-6.73,2.32,22.23,22.23,0,0,1-3.55.34,23.68,23.68,0,0,1-3.57-.21,23,23,0,0,1-3.48-.78,21,21,0,0,1-3.32-1.31,22.17,22.17,0,0,1-3.08-1.81,21.4,21.4,0,0,1-2.75-2.27,23.08,23.08,0,0,1-2.37-2.67,22.56,22.56,0,0,1-1.92-3,23.2,23.2,0,0,1-1.42-3.28,22.72,22.72,0,0,1-.9-3.45,23.7,23.7,0,0,1-.34-3.56,22.33,22.33,0,0,1,.22-3.56A22.83,22.83,0,0,1,126.3,742a24.92,24.92,0,0,1,2.27-2.75,23.18,23.18,0,0,1,2.68-2.37,23.54,23.54,0,0,1,3-1.91,22.27,22.27,0,0,1,6.73-2.32,22.23,22.23,0,0,1,3.55-.34,23.68,23.68,0,0,1,3.57.21,23,23,0,0,1,3.48.78,22,22,0,0,1,3.32,1.31c1.08.52,2.1,1.12,2.62,1.43l.51.3"/><path class="cls-10" d="M158.2,736.09l.47.38c.46.39,1.4,1.16,2.26,2a22.88,22.88,0,0,1,4.34,5.76,22.79,22.79,0,0,1,2.34,6.81,22.88,22.88,0,0,1,.13,7.2,23.94,23.94,0,0,1-.78,3.53,24.2,24.2,0,0,1-1.33,3.36,23.68,23.68,0,0,1-1.83,3.11,23,23,0,0,1-11.36,8.56,22.23,22.23,0,0,1-3.5.91,22.85,22.85,0,0,1-3.6.34,21.69,21.69,0,0,1-3.6-.22,22.23,22.23,0,0,1-3.53-.78,22.53,22.53,0,0,1-3.36-1.32,21.55,21.55,0,0,1-3.11-1.84,22.81,22.81,0,0,1-2.79-2.29,22.88,22.88,0,0,1-4.34-5.76,23.16,23.16,0,0,1-1.44-3.31,20.43,20.43,0,0,0-1.34-3.49c-.65-1.18-1.65-2.37-1.67-3.57s.93-2.43,1.54-3.63a20.11,20.11,0,0,0,1.22-3.54,24.2,24.2,0,0,1,1.33-3.36,23.68,23.68,0,0,1,1.83-3.11,22.81,22.81,0,0,1,5-5.18,22,22,0,0,1,3-1.94,22.66,22.66,0,0,1,3.32-1.44,22.11,22.11,0,0,1,3.49-.91,23.29,23.29,0,0,1,7.2-.12,22.23,22.23,0,0,1,3.53.78,22.53,22.53,0,0,1,3.36,1.32c1.09.53,2.13,1.14,2.65,1.45l.52.31"/><path class="cls-11" d="M158.77,735.27l.49.4c.49.4,1.46,1.2,2.37,2.08a23.8,23.8,0,0,1,2.49,2.82,23.47,23.47,0,0,1,2,3.18,24.1,24.1,0,0,1,1.5,3.46,22.89,22.89,0,0,1,.94,3.64,23.72,23.72,0,0,1,.14,7.52,24.12,24.12,0,0,1-2.2,7.18,24.05,24.05,0,0,1-1.91,3.25,23.85,23.85,0,0,1-8.4,7.43,24.15,24.15,0,0,1-3.46,1.51c-1.19.41-2.41.72-3.6,3.91s-2.34,9.25-3.59,9.27-2.62-6-3.92-9.14-2.53-3.42-3.73-3.79a23.46,23.46,0,0,1-3.51-1.38,24.05,24.05,0,0,1-3.25-1.91,24.46,24.46,0,0,1-5.4-5.22,23.47,23.47,0,0,1-2-3.18,24.48,24.48,0,0,1-1.5-3.45,23.29,23.29,0,0,1-.94-3.65A23.81,23.81,0,0,1,122,748a24.47,24.47,0,0,1,1.38-3.5,24.05,24.05,0,0,1,1.91-3.25,24,24,0,0,1,5.23-5.41,24.2,24.2,0,0,1,6.63-3.53,25.39,25.39,0,0,1,3.65-.94,24,24,0,0,1,7.51-.13,24.3,24.3,0,0,1,7.19,2.2c1.13.55,2.22,1.19,2.76,1.51l.54.32"/><path class="cls-12" d="M160.43,732.9l.55.45c.54.45,1.63,1.35,2.65,2.32a27.24,27.24,0,0,1,2.8,3.17,27.45,27.45,0,0,1,3.95,7.43,26.28,26.28,0,0,1,1.05,4.08,26.63,26.63,0,0,1,.15,8.42,27.81,27.81,0,0,1-.91,4.12,26.52,26.52,0,0,1-1.55,3.93,27.75,27.75,0,0,1-2.14,3.64,27,27,0,0,1-2.69,3.25,26.85,26.85,0,0,1-6.72,5.07,26.78,26.78,0,0,1-20.49,2,26.09,26.09,0,0,1-3.93-1.55,25.53,25.53,0,0,1-3.64-2.14,27.8,27.8,0,0,1-3.26-2.68,27,27,0,0,1-2.79-3.16,27.36,27.36,0,0,1-4-7.44,13.88,13.88,0,0,0-1.8-4.07c-1-1.37-2.63-2.75-2.65-4.16s1.56-2.85,2.5-4.26a13.76,13.76,0,0,0,1.66-4.13,27.66,27.66,0,0,1,1.55-3.93,28.91,28.91,0,0,1,2.14-3.64,26.88,26.88,0,0,1,13.28-10,27.3,27.3,0,0,1,4.09-1.06,26.9,26.9,0,0,1,4.2-.4,25.74,25.74,0,0,1,4.21.26,26.47,26.47,0,0,1,8,2.46c1.27.61,2.49,1.33,3.1,1.69l.6.36"/><path class="cls-13" d="M160.72,732.5l.55.45c.56.46,1.67,1.38,2.7,2.37a29,29,0,0,1,2.85,3.22,28.57,28.57,0,0,1,2.31,3.63,27.58,27.58,0,0,1,1.71,3.94,6,6,0,0,0,3.44,4.12c2.62,1.37,7.49,2.72,7.52,4.15s-4.8,3-7.37,4.42a6,6,0,0,0-3.3,4.23,25.94,25.94,0,0,1-1.57,4,28.16,28.16,0,0,1-2.18,3.71,27,27,0,0,1-2.74,3.31,26.46,26.46,0,0,1-3.22,2.85,26.76,26.76,0,0,1-3.62,2.31,27.66,27.66,0,0,1-8.1,2.79,27.58,27.58,0,0,1-8.57.15,27.2,27.2,0,0,1-8.2-2.51,25.46,25.46,0,0,1-3.7-2.18,26.33,26.33,0,0,1-3.32-2.73,28.16,28.16,0,0,1-2.85-3.22,27.43,27.43,0,0,1-2.3-3.63,26.54,26.54,0,0,1-1.72-3.94,25.92,25.92,0,0,1-1.07-4.16,26.79,26.79,0,0,1-.15-8.57,27.63,27.63,0,0,1,2.5-8.19,26.87,26.87,0,0,1,4.92-7,26.46,26.46,0,0,1,3.22-2.85,26.76,26.76,0,0,1,3.62-2.31,27.66,27.66,0,0,1,8.1-2.79,27.58,27.58,0,0,1,8.57-.15,27.2,27.2,0,0,1,8.2,2.51c1.29.62,2.53,1.35,3.15,1.72l.62.37"/><path class="cls-14" d="M163.67,728.28l.66.54c.66.54,2,1.63,3.2,2.81a32.18,32.18,0,0,1,3.38,3.82,31.72,31.72,0,0,1,2.74,4.31,33,33,0,0,1,2,4.68,42.66,42.66,0,0,0,1.78,4.93c.79,1.67,1.95,3.35,2,5s-1.07,3.43-1.81,5.12a46.33,46.33,0,0,0-1.6,5,32.31,32.31,0,0,1-1.87,4.75A32.54,32.54,0,0,1,164.51,781a33.28,33.28,0,0,1-4.3,2.74,32.28,32.28,0,0,1-4.68,2,31.46,31.46,0,0,1-4.94,1.28,32.59,32.59,0,0,1-10.18.18,32.84,32.84,0,0,1-5-1.11,32.7,32.7,0,0,1-13.08-7.7A32.28,32.28,0,0,1,119,774.6a31.72,31.72,0,0,1-2.74-4.31,33,33,0,0,1-2-4.68,33.49,33.49,0,0,1-1.28-4.94,33.1,33.1,0,0,1-.48-5.08,32.14,32.14,0,0,1,.31-5.09,31.4,31.4,0,0,1,1.1-5,33.46,33.46,0,0,1,1.87-4.75,32.54,32.54,0,0,1,9.66-11.72,33.28,33.28,0,0,1,4.3-2.74,32.28,32.28,0,0,1,4.68-2,31.46,31.46,0,0,1,4.94-1.28,32.59,32.59,0,0,1,10.18-.18,32.84,32.84,0,0,1,5,1.11,31.24,31.24,0,0,1,4.75,1.87c1.53.74,3,1.61,3.73,2l.74.44"/><path class="cls-15" d="M165.1,726.24l.71.58c.71.59,2.12,1.76,3.44,3a34.62,34.62,0,0,1,3.64,4.11,36.24,36.24,0,0,1,3,4.63,35.71,35.71,0,0,1,2.19,5,11,11,0,0,0,3,5.29c1.94,1.78,5.34,3.55,5.38,5.38s-3.32,3.72-5.19,5.57a10.85,10.85,0,0,0-2.8,5.39,34.75,34.75,0,0,1-4.8,9.84,35.42,35.42,0,0,1-3.49,4.24A36.6,36.6,0,0,1,166,783a34.94,34.94,0,0,1-9.67,5.14,36,36,0,0,1-5.31,1.37,34.68,34.68,0,0,1-11,.19,34,34,0,0,1-5.36-1.19,35,35,0,0,1-5.11-2,34.53,34.53,0,0,1-4.73-2.79,35.42,35.42,0,0,1-4.24-3.49,34.62,34.62,0,0,1-3.64-4.11,36.24,36.24,0,0,1-2.95-4.63,35.71,35.71,0,0,1-2.19-5,34.64,34.64,0,0,1-1.38-5.32,35.47,35.47,0,0,1-.19-11,36.67,36.67,0,0,1,1.19-5.36,34.75,34.75,0,0,1,4.8-9.84,34.57,34.57,0,0,1,3.5-4.24,35.64,35.64,0,0,1,4.11-3.64,34.94,34.94,0,0,1,9.67-5.14,36,36,0,0,1,5.31-1.37,34.68,34.68,0,0,1,10.95-.19,33.74,33.74,0,0,1,5.36,1.19,34.1,34.1,0,0,1,5.11,2c1.65.8,3.23,1.74,4,2.2l.79.47"/><path class="cls-16" d="M165.14,726.17l.71.59c.71.59,2.13,1.76,3.46,3a34.81,34.81,0,0,1,3.64,4.13,34.07,34.07,0,0,1,3,4.64,35.38,35.38,0,0,1,2.2,5.05,8.3,8.3,0,0,0,3.79,5.28c2.74,1.77,7.74,3.52,7.78,5.35s-4.92,3.76-7.59,5.62a8.42,8.42,0,0,0-3.61,5.42,34.54,34.54,0,0,1-4.81,9.86,33.93,33.93,0,0,1-3.5,4.25,34.9,34.9,0,0,1-4.12,3.65,36.82,36.82,0,0,1-4.64,3A35.36,35.36,0,0,1,151,789.57a35.93,35.93,0,0,1-5.48.53,35.15,35.15,0,0,1-16-3.55,35.25,35.25,0,0,1-4.74-2.79,37.45,37.45,0,0,1-4.25-3.5,34.81,34.81,0,0,1-3.64-4.13,34.73,34.73,0,0,1-5.15-9.69,34.9,34.9,0,0,1-1.57-16.3,34.11,34.11,0,0,1,1.19-5.37,34.54,34.54,0,0,1,4.81-9.86,33.93,33.93,0,0,1,3.5-4.25,34.9,34.9,0,0,1,4.12-3.65,35.66,35.66,0,0,1,4.64-3,34.29,34.29,0,0,1,5.05-2.2,35.07,35.07,0,0,1,5.33-1.38,34.81,34.81,0,0,1,11-.19,36.64,36.64,0,0,1,5.38,1.19,35.13,35.13,0,0,1,5.12,2c1.65.8,3.23,1.74,4,2.21l.79.46"/><path class="cls-17" d="M165.47,725.71l.72.6c.72.59,2.16,1.78,3.51,3.08a36.16,36.16,0,0,1,6.71,8.9,37,37,0,0,1,2.23,5.13,37.5,37.5,0,0,1,1.4,5.42,35.72,35.72,0,0,1,.53,5.56,35.68,35.68,0,0,1-3.6,16.25,35.84,35.84,0,0,1-2.84,4.82,35.62,35.62,0,0,1-7.74,8,35.86,35.86,0,0,1-9.85,5.23,35.75,35.75,0,0,1-11,1.94,36,36,0,0,1-5.58-.34,36.46,36.46,0,0,1-5.46-1.21,37,37,0,0,1-5.2-2.05,35.51,35.51,0,0,1-12.84-10.59,35.29,35.29,0,0,1-5.24-9.84,37.5,37.5,0,0,1-1.4-5.42,35.88,35.88,0,0,1-.19-11.14,35,35,0,0,1,1.21-5.46,35.9,35.9,0,0,1,2-5.21,35.74,35.74,0,0,1,6.39-9.13,36.92,36.92,0,0,1,4.19-3.71,35.86,35.86,0,0,1,9.85-5.23c1.76-.61,3.57-1.08,5.28-9s3.3-23.4,5.17-23.43,4,15.35,6,23.24,3.81,8.3,5.59,8.84a37,37,0,0,1,5.2,2c1.68.82,3.29,1.77,4.1,2.25l.81.47"/><path class="cls-18" d="M167.89,722.26l.8.66c.81.67,2.43,2,3.93,3.45a39.76,39.76,0,0,1,10,15.68c.68,2,1.2,4,4.08,6s8.09,4,8.12,6.09-5.11,4.27-7.91,6.38-3.25,4.15-3.86,6.14a40,40,0,0,1-2.29,5.82,41.59,41.59,0,0,1-3.17,5.39,40,40,0,0,1-8.66,9,39.29,39.29,0,0,1-5.28,3.36,39.91,39.91,0,0,1-5.73,2.5,40,40,0,0,1-12.27,2.16,39.39,39.39,0,0,1-6.24-.38,39.93,39.93,0,0,1-6.11-1.36,40,40,0,0,1-11.2-5.46,40.85,40.85,0,0,1-4.83-4,39.76,39.76,0,0,1-10-15.68,39.63,39.63,0,0,1-1.56-6.06,38.09,38.09,0,0,1-.6-6.22,39.85,39.85,0,0,1,1.73-12.34,39.6,39.6,0,0,1,5.47-11.21,39,39,0,0,1,4-4.82,39.93,39.93,0,0,1,4.68-4.14,39.29,39.29,0,0,1,5.28-3.36,38.77,38.77,0,0,1,5.73-2.49,39.54,39.54,0,0,1,6.05-1.57,40.69,40.69,0,0,1,6.23-.6,39.54,39.54,0,0,1,6.24.38,40.25,40.25,0,0,1,11.92,3.65c1.87.91,3.67,2,4.57,2.5l.91.54"/><path class="cls-19" d="M167.94,722.18l.81.67c.8.67,2.42,2,3.93,3.45a41.15,41.15,0,0,1,4.15,4.7,40,40,0,0,1,7.43,17.09,40.82,40.82,0,0,1,.6,6.24,39.59,39.59,0,0,1-.38,6.25,40.06,40.06,0,0,1-1.36,6.12,40.54,40.54,0,0,1-2.29,5.83c-.92,1.88-2,3.68,1.52,9.93s11.56,16.95,10.11,18.45-12.42-6.18-18.79-9.46-8.14-2.15-10-1.17a40.14,40.14,0,0,1-5.75,2.5,39.73,39.73,0,0,1-18.56,1.78,39.91,39.91,0,0,1-6.11-1.35,39.45,39.45,0,0,1-5.83-2.3,40,40,0,0,1-5.4-3.18,39.4,39.4,0,0,1-9-8.68,40,40,0,0,1-5.86-11,39.37,39.37,0,0,1-1.57-6.06,40.82,40.82,0,0,1-.6-6.24,39.59,39.59,0,0,1,.38-6.25,40.06,40.06,0,0,1,1.36-6.12,39.93,39.93,0,0,1,14.15-20.21,40.09,40.09,0,0,1,11-5.87,39.73,39.73,0,0,1,18.56-1.78,39.91,39.91,0,0,1,6.11,1.35,39.45,39.45,0,0,1,5.83,2.3c1.88.92,3.69,2,4.59,2.51l.91.53"/><path class="cls-20" d="M169.47,720l.86.72c.87.71,2.59,2.13,4.2,3.68a42.83,42.83,0,0,1,4.42,5,41.67,41.67,0,0,1,3.59,5.64,42.73,42.73,0,0,1,2.67,6.13,41.25,41.25,0,0,1,1.67,6.47,42.92,42.92,0,0,1,.24,13.32,43,43,0,0,1-1.45,6.53,42.46,42.46,0,0,1-5.84,12,42.07,42.07,0,0,1-4.25,5.16,43,43,0,0,1-5,4.43,43.61,43.61,0,0,1-5.63,3.59,42.06,42.06,0,0,1-6.13,2.66c-2.11.73-4.28,1.29-6.42,4.55s-4.28,9.2-6.51,9.24-4.56-5.83-6.82-9-4.44-3.66-6.57-4.32a42.69,42.69,0,0,1-12-5.84,42.74,42.74,0,0,1-5.15-4.25,42,42,0,0,1-4.43-5,41.05,41.05,0,0,1-3.59-5.64,42.73,42.73,0,0,1-2.67-6.13,43.58,43.58,0,0,1-1.67-6.47,42.42,42.42,0,0,1-.64-6.65,41.35,41.35,0,0,1,.41-6.67,43,43,0,0,1,1.44-6.53,42.68,42.68,0,0,1,10.09-17.13,42.58,42.58,0,0,1,10.65-8,41.48,41.48,0,0,1,6.12-2.66,42.72,42.72,0,0,1,6.47-1.68,43.78,43.78,0,0,1,6.66-.64,42.53,42.53,0,0,1,6.67.41,41.49,41.49,0,0,1,6.52,1.45,42.07,42.07,0,0,1,6.22,2.45c2,1,3.93,2.11,4.9,2.68l1,.56"/><path class="cls-21" d="M169.83,719.48l.87.72c.88.73,2.63,2.17,4.26,3.74a42.48,42.48,0,0,1,4.49,5.08A43.57,43.57,0,0,1,185.8,741c.74,2.14,1.3,4.33,3.24,6.53s5.23,4.41,5.27,6.67-3.18,4.58-5,6.85-2.34,4.49-3,6.65a43.72,43.72,0,0,1-2.48,6.31A42.94,42.94,0,0,1,176,785a44.19,44.19,0,0,1-5.07,4.5A43.18,43.18,0,0,1,159,795.88a42.55,42.55,0,0,1-6.57,1.7,43.33,43.33,0,0,1-13.51.24,44,44,0,0,1-6.62-1.47,41.79,41.79,0,0,1-6.31-2.49,42.89,42.89,0,0,1-5.85-3.44,44,44,0,0,1-5.23-4.31,42.48,42.48,0,0,1-4.49-5.08,43.57,43.57,0,0,1-6.35-11.94,44.82,44.82,0,0,1-1.7-6.56,43,43,0,0,1-.23-13.52,41.63,41.63,0,0,1,1.47-6.62,43,43,0,0,1,5.92-12.15,42.4,42.4,0,0,1,4.32-5.23,42.64,42.64,0,0,1,10.79-8.14,43.43,43.43,0,0,1,12.79-4.4,43.08,43.08,0,0,1,20.13,1.23,41.79,41.79,0,0,1,6.31,2.49c2,1,4,2.14,5,2.72l1,.57"/><path class="cls-22" d="M172.29,716l1,.79c1,.79,2.89,2.38,4.68,4.11a46.73,46.73,0,0,1,4.93,5.58,47.39,47.39,0,0,1,4,6.28,48.25,48.25,0,0,1,3,6.84c.81,2.35,1.43,4.76,4.47,7.16s8.5,4.8,8.55,7.28-5.33,5.07-8.29,7.58-3.49,4.94-4.22,7.32a47.5,47.5,0,0,1-2.73,6.93A47.35,47.35,0,0,1,167.23,797a47.54,47.54,0,0,1-43.11.75,47.59,47.59,0,0,1-6.42-3.78,46.46,46.46,0,0,1-5.74-4.74A46,46,0,0,1,107,783.6a47.39,47.39,0,0,1-4-6.28,48.25,48.25,0,0,1-3-6.84,47.11,47.11,0,0,1-1.86-7.21,48.56,48.56,0,0,1-.72-7.42,47.38,47.38,0,0,1,.46-7.43,46.37,46.37,0,0,1,1.61-7.28,47.5,47.5,0,0,1,2.73-6.93,47.35,47.35,0,0,1,20.39-21.11,47.54,47.54,0,0,1,43.11-.75c2.23,1.09,4.38,2.35,5.45,3l1.08.63"/><path class="cls-23" d="M163.5,424l.86.7c.86.71,2.58,2.13,4.18,3.67a43.48,43.48,0,0,1,4.41,5A42,42,0,0,1,179.18,445c.72,2.1,1.28,4.26,4.21,6.4s8.24,4.27,8.28,6.49-5.19,4.53-8,6.78-3.33,4.42-4,6.54a42.18,42.18,0,0,1-5.82,11.93,42.48,42.48,0,0,1-4.23,5.14,43.48,43.48,0,0,1-5,4.41A42,42,0,0,1,152.88,499a43.52,43.52,0,0,1-6.44,1.67,42.47,42.47,0,0,1-19.77-1.21,42.91,42.91,0,0,1-6.2-2.44,44,44,0,0,1-5.73-3.38,42.64,42.64,0,0,1-9.55-9.22A42.35,42.35,0,0,1,99,472.65a43.52,43.52,0,0,1-1.67-6.44,42.47,42.47,0,0,1,1.21-19.77,42.91,42.91,0,0,1,2.44-6.2,44,44,0,0,1,3.38-5.73,42.48,42.48,0,0,1,4.23-5.14,43.48,43.48,0,0,1,5-4.41,42,42,0,0,1,11.72-6.23,42.24,42.24,0,0,1,19.71-1.9,42.37,42.37,0,0,1,6.5,1.44,42.91,42.91,0,0,1,6.2,2.44c2,1,3.91,2.11,4.87,2.67l1,.57"/><path class="cls-24" d="M155.32,573.32l.43.35c.43.36,1.29,1.06,2.08,1.83A20.74,20.74,0,0,1,160,578a21.75,21.75,0,0,1,1.79,2.8,22.33,22.33,0,0,1,1.33,3.05,21.14,21.14,0,0,1,.83,3.22,21.57,21.57,0,0,1,.32,3.31,20.3,20.3,0,0,1-.21,3.31,20.07,20.07,0,0,1-.72,3.25,21.52,21.52,0,0,1-1.21,3.09,20.47,20.47,0,0,1-1.69,2.86,20.83,20.83,0,0,1-4.6,4.77,21.19,21.19,0,0,1-2.81,1.79,21.49,21.49,0,0,1-3,1.32,5.76,5.76,0,0,0-3.2,2c-1.07,1.35-2.14,3.79-3.25,3.81s-2.26-2.38-3.38-3.7a5.71,5.71,0,0,0-3.26-1.88,21.32,21.32,0,0,1-6-2.91,21.41,21.41,0,0,1-2.56-2.11,20.84,20.84,0,0,1-2.2-2.49,20.46,20.46,0,0,1-1.79-2.8,21.11,21.11,0,0,1-1.32-3,20.85,20.85,0,0,1-.83-3.22,20.27,20.27,0,0,1-.32-3.3,21.69,21.69,0,0,1,.2-3.32,21.06,21.06,0,0,1,.72-3.24,20.16,20.16,0,0,1,1.22-3.1,21.62,21.62,0,0,1,1.68-2.86,21.73,21.73,0,0,1,4.61-4.77,21.39,21.39,0,0,1,2.8-1.78,21,21,0,0,1,6.26-2.16,21.69,21.69,0,0,1,3.31-.32,20.5,20.5,0,0,1,3.32.21,21,21,0,0,1,3.24.71,22.93,22.93,0,0,1,3.1,1.22c1,.49,2,1,2.43,1.34l.48.28"/><path class="cls-25" d="M157.59,570.07l.51.42c.51.42,1.53,1.26,2.47,2.17a26.28,26.28,0,0,1,2.62,3,24.5,24.5,0,0,1,2.11,3.32,24.79,24.79,0,0,1,1.58,3.62,23.94,23.94,0,0,1,1,3.81,24.67,24.67,0,0,1,.38,3.93,25.84,25.84,0,0,1-.24,3.93,24.84,24.84,0,0,1-2.3,7.52,25.13,25.13,0,0,1-7.46,9,25.58,25.58,0,0,1-3.32,2.12,24.74,24.74,0,0,1-3.62,1.57c-1.24.43-2.52.76-3.73,6.06s-2.34,15.56-3.66,15.58-2.81-10.19-4.2-15.45-2.68-5.53-3.93-5.92a25.18,25.18,0,0,1-3.67-1.44,24.91,24.91,0,0,1-6.44-4.51,24.37,24.37,0,0,1-2.61-2.95,25.69,25.69,0,0,1-2.12-3.33,24,24,0,0,1-1.57-3.61,25.22,25.22,0,0,1-1-3.82,24.66,24.66,0,0,1-.38-3.92,25.9,25.9,0,0,1,.24-3.94,25.48,25.48,0,0,1,.86-3.85,24.51,24.51,0,0,1,1.44-3.67,25.56,25.56,0,0,1,2-3.39,26.25,26.25,0,0,1,2.51-3.05,25.25,25.25,0,0,1,3-2.61,25.69,25.69,0,0,1,3.33-2.12,26.26,26.26,0,0,1,3.61-1.57,25.22,25.22,0,0,1,3.82-1,25.75,25.75,0,0,1,3.92-.37,23.56,23.56,0,0,1,3.94.24,24.84,24.84,0,0,1,7.52,2.3c1.18.57,2.31,1.24,2.88,1.58l.57.33"/><path class="cls-26" d="M159.25,567.7l.57.47c.57.46,1.7,1.4,2.76,2.42a28.41,28.41,0,0,1,2.91,3.29,28.05,28.05,0,0,1,2.36,3.71,27.77,27.77,0,0,1,1.76,4c.47,1.38.84,2.81,3.74,4.21s8.34,2.77,8.37,4.23-5.36,3-8.21,4.53-3.17,2.93-3.6,4.34A28.7,28.7,0,0,1,168.3,603a29.29,29.29,0,0,1-2.23,3.78,28.49,28.49,0,0,1-6.09,6.31,28.05,28.05,0,0,1-3.71,2.36,27.72,27.72,0,0,1-4,1.75,27.36,27.36,0,0,1-4.25,1.1,28,28,0,0,1-8.77.15,27.89,27.89,0,0,1-12.16-4.79,28.5,28.5,0,0,1-3.4-2.79,27.7,27.7,0,0,1-2.91-3.3,27.8,27.8,0,0,1-4.11-7.73,27.19,27.19,0,0,1-1.1-4.26,26.72,26.72,0,0,1-.42-4.37,28,28,0,0,1,.26-4.39,28.6,28.6,0,0,1,1-4.29,26.51,26.51,0,0,1,1.61-4.09,27.9,27.9,0,0,1,8.31-10.09A27.33,27.33,0,0,1,130,566a28.76,28.76,0,0,1,4-1.76,29.59,29.59,0,0,1,4.26-1.1A28,28,0,0,1,147,563a27.39,27.39,0,0,1,4.29,1,28.7,28.7,0,0,1,4.09,1.61c1.32.64,2.59,1.39,3.22,1.76l.63.38"/><path class="cls-27" d="M160,566.62l.6.49c.59.49,1.78,1.47,2.88,2.53A29.34,29.34,0,0,1,169,577a29.77,29.77,0,0,1,1.84,4.22c.5,1.45.88,2.94,4.54,4.4S186,588.45,186,590s-6.86,3.19-10.47,4.77-3.94,3.08-4.39,4.55a28.58,28.58,0,0,1-1.68,4.28,29.32,29.32,0,0,1-2.34,4,30.94,30.94,0,0,1-2.92,3.55,29.34,29.34,0,0,1-7.33,5.52,29.79,29.79,0,0,1-8.68,3,29.38,29.38,0,0,1-9.17.16,30,30,0,0,1-4.49-1,28.62,28.62,0,0,1-4.28-1.69,28.93,28.93,0,0,1-7.52-5.26,31.12,31.12,0,0,1-3-3.44,29.72,29.72,0,0,1-2.47-3.89,28.81,28.81,0,0,1-1.84-4.22,29.67,29.67,0,0,1-1.15-4.45,30.61,30.61,0,0,1-.44-4.58,29.32,29.32,0,0,1,.28-4.59,29.66,29.66,0,0,1,2.68-8.78,29.64,29.64,0,0,1,2.34-4,29.63,29.63,0,0,1,6.37-6.6,29.23,29.23,0,0,1,3.88-2.47,29,29,0,0,1,8.68-3,29.38,29.38,0,0,1,9.17-.16,28.91,28.91,0,0,1,4.5,1,30.21,30.21,0,0,1,4.28,1.69c1.38.67,2.7,1.46,3.37,1.85l.66.39"/><path class="cls-28" d="M160.69,565.65l.61.51c.62.51,1.86,1.53,3,2.64a30.55,30.55,0,0,1,8.85,16.64,30.93,30.93,0,0,1,.16,9.54,30.19,30.19,0,0,1-2.79,9.13,30.5,30.5,0,0,1-2.43,4.12,29.8,29.8,0,0,1-3,3.69,30.52,30.52,0,0,1-26.18,9,29.73,29.73,0,0,1-4.67-1,31,31,0,0,1-4.46-1.75,31.58,31.58,0,0,1-4.12-2.43,30.8,30.8,0,0,1-3.69-3.05,30.64,30.64,0,0,1-5.75-7.62,30.34,30.34,0,0,1-1.9-4.38,30.69,30.69,0,0,1-1.2-4.64,30.52,30.52,0,0,1-.17-9.54,30,30,0,0,1,1-4.67,29.37,29.37,0,0,1,1.75-4.45,30,30,0,0,1,2.43-4.13,31.53,31.53,0,0,1,3-3.69,30.77,30.77,0,0,1,7.62-5.74,30.51,30.51,0,0,1,4.39-1.91,7.9,7.9,0,0,0,4.6-3c1.55-2.09,3.08-5.87,4.67-5.9s3.26,3.7,4.87,5.73a7.88,7.88,0,0,0,4.71,2.85,30.5,30.5,0,0,1,4.45,1.76c1.44.7,2.82,1.51,3.51,1.92l.69.4"/><path class="cls-29" d="M162,563.83l.66.55c.67.55,2,1.64,3.22,2.83a32.67,32.67,0,0,1,6.16,8.17,32.25,32.25,0,0,1,2.05,4.71,31.53,31.53,0,0,1,1.28,5,32.12,32.12,0,0,1,.18,10.23,32.8,32.8,0,0,1-3,9.79,32.61,32.61,0,0,1-2.6,4.42,32.77,32.77,0,0,1-11.44,10.12,32.2,32.2,0,0,1-4.71,2,24.71,24.71,0,0,0-5,2c-1.67,1-3.36,2.57-5.07,2.6s-3.45-1.48-5.16-2.42a24.38,24.38,0,0,0-5-1.81A32.61,32.61,0,0,1,117,610.42a32.06,32.06,0,0,1-2.76-4.33,33.25,33.25,0,0,1-2-4.7,34.2,34.2,0,0,1-1.28-5,33,33,0,0,1-.18-10.24,32.62,32.62,0,0,1,3-9.78,32.67,32.67,0,0,1,2.61-4.42,32.71,32.71,0,0,1,7.11-7.37,31.38,31.38,0,0,1,4.33-2.75,32.14,32.14,0,0,1,4.7-2.05,33,33,0,0,1,5-1.29,33.74,33.74,0,0,1,5.11-.49,32.45,32.45,0,0,1,5.12.32,31.54,31.54,0,0,1,5,1.11,32.71,32.71,0,0,1,4.78,1.88c1.54.75,3,1.62,3.76,2.06l.74.43"/><path class="cls-30" d="M162.05,563.7l.67.55c.67.55,2,1.65,3.24,2.84a33,33,0,0,1,3.41,3.87,31.38,31.38,0,0,1,2.77,4.35A32.53,32.53,0,0,1,174.2,580a7.49,7.49,0,0,0,3.82,5c2.83,1.65,8.06,3.28,8.09,5s-5.14,3.53-7.91,5.28a7.43,7.43,0,0,0-3.64,5.08,32.67,32.67,0,0,1-4.51,9.24,33.83,33.83,0,0,1-3.28,4,33,33,0,0,1-8.22,6.19,32.53,32.53,0,0,1-4.73,2.06,33,33,0,0,1-15.27,1.47,33.35,33.35,0,0,1-5-1.12,32.67,32.67,0,0,1-9.24-4.51,32,32,0,0,1-4-3.28,32.67,32.67,0,0,1-6.19-8.21,32.53,32.53,0,0,1-2.06-4.73,33.06,33.06,0,0,1-1.29-5,33.23,33.23,0,0,1-.18-10.28,32.06,32.06,0,0,1,1.12-5,31.48,31.48,0,0,1,1.89-4.8,32.87,32.87,0,0,1,5.9-8.43,32.91,32.91,0,0,1,3.86-3.41,32.41,32.41,0,0,1,4.35-2.78,33.61,33.61,0,0,1,4.73-2.05,33.25,33.25,0,0,1,5-1.29,33,33,0,0,1,15.32.93,34.17,34.17,0,0,1,4.8,1.89c1.55.76,3,1.63,3.78,2.07l.74.44"/><path class="cls-31" d="M162.39,563.22l.68.55c.68.56,2,1.68,3.3,2.9a32.41,32.41,0,0,1,3.47,3.93,33.6,33.6,0,0,1,2.83,4.43,34.11,34.11,0,0,1,2.09,4.81,10,10,0,0,0,3,5.06c1.94,1.69,5.39,3.39,5.42,5.14s-3.35,3.56-5.24,5.33a9.89,9.89,0,0,0-2.77,5.15,34.22,34.22,0,0,1-1.92,4.89,33.73,33.73,0,0,1-2.67,4.52,33.59,33.59,0,0,1-7.27,7.53,33.53,33.53,0,0,1-4.43,2.82,33.37,33.37,0,0,1-15.12,3.91,33.62,33.62,0,0,1-10.37-1.45,33.44,33.44,0,0,1-13.46-7.93,33.78,33.78,0,0,1-6.3-8.36,33.79,33.79,0,0,1-2.1-4.82,33.24,33.24,0,0,1-1.31-5.08,34,34,0,0,1-.5-5.23,32.85,32.85,0,0,1,.32-5.24,33.57,33.57,0,0,1,1.13-5.13,34.14,34.14,0,0,1,1.93-4.88,33.48,33.48,0,0,1,2.66-4.52,34.32,34.32,0,0,1,3.34-4.06,33.29,33.29,0,0,1,8.36-6.3,33.74,33.74,0,0,1,4.82-2.09,33.87,33.87,0,0,1,10.31-1.82,34.06,34.06,0,0,1,5.24.32,34.42,34.42,0,0,1,5.12,1.14,33.76,33.76,0,0,1,4.89,1.92c1.57.77,3.09,1.66,3.85,2.11l.75.45"/><path class="cls-32" d="M163.56,561.55l.72.59c.72.59,2.16,1.78,3.49,3.07a34.72,34.72,0,0,1,3.69,4.17,36,36,0,0,1,3,4.7,36.58,36.58,0,0,1,2.22,5.1,35.48,35.48,0,0,1,1.92,10.94,35.62,35.62,0,0,1-1.54,11,35.49,35.49,0,0,1-12.58,18,34.9,34.9,0,0,1-4.7,3,35.44,35.44,0,0,1-5.1,2.22c-1.76.61-3.57,1.07-5.26,9.15s-3.28,23.76-5.14,23.79-4-15.58-6-23.6-3.8-8.41-5.57-9a35.37,35.37,0,0,1-18-12.59,34.8,34.8,0,0,1-3-4.69,34,34,0,0,1-2.22-5.11,34.71,34.71,0,0,1-1.4-5.39,35.62,35.62,0,0,1-.19-11.1,36.18,36.18,0,0,1,1.2-5.44,35.43,35.43,0,0,1,17.28-21,36.2,36.2,0,0,1,5.11-2.22,35.53,35.53,0,0,1,5.39-1.39,35.23,35.23,0,0,1,11.1-.2,35.67,35.67,0,0,1,10.62,3.25c1.67.81,3.27,1.76,4.08,2.23l.8.48"/><path class="cls-33" d="M163.78,561.23l.73.6c.73.6,2.18,1.8,3.53,3.1a36.43,36.43,0,0,1,3.73,4.22,35.64,35.64,0,0,1,3,4.75,34.28,34.28,0,0,1,2.25,5.16c.61,1.77,1.08,3.6,6.8,5.35s16.68,3.45,16.71,5.32-10.86,3.95-16.52,5.91-6.06,3.79-6.6,5.58a35.23,35.23,0,0,1-2.07,5.24,36.24,36.24,0,0,1-2.85,4.85,35.61,35.61,0,0,1-7.8,8.08,35.93,35.93,0,0,1-9.91,5.26,34.36,34.36,0,0,1-5.45,1.41,36,36,0,0,1-11.22.2,35.78,35.78,0,0,1-5.5-1.22,35.74,35.74,0,0,1-10.08-4.92,35.85,35.85,0,0,1-8.08-7.79,36.29,36.29,0,0,1-3-4.75,37.47,37.47,0,0,1-2.25-5.16,35.86,35.86,0,0,1-.38-22.17,36.3,36.3,0,0,1,2.06-5.24,35.26,35.26,0,0,1,2.86-4.85,34.53,34.53,0,0,1,3.58-4.34,35.53,35.53,0,0,1,4.21-3.73,36.75,36.75,0,0,1,4.75-3,36.24,36.24,0,0,1,5.16-2.24,36.66,36.66,0,0,1,5.45-1.41,35.17,35.17,0,0,1,5.61-.54,36.35,36.35,0,0,1,5.61.34,37,37,0,0,1,5.5,1.22,35.23,35.23,0,0,1,5.24,2.07c1.68.82,3.31,1.78,4.12,2.25l.81.48"/><path class="cls-34" d="M164.18,560.67l.74.61c.74.61,2.22,1.83,3.6,3.16a36.53,36.53,0,0,1,9.17,14.4,36.46,36.46,0,0,1,1.43,5.55,36.52,36.52,0,0,1,.2,11.43,36,36,0,0,1-1.24,5.61,36.42,36.42,0,0,1-2.1,5.33,36.16,36.16,0,0,1-6.56,9.37A36.72,36.72,0,0,1,155,625.3a35.64,35.64,0,0,1-5.55,1.44,36.58,36.58,0,0,1-11.44.2,37.09,37.09,0,0,1-5.6-1.24,36.49,36.49,0,0,1-14.7-8.67,36.65,36.65,0,0,1-6.89-9.13,37.14,37.14,0,0,1-2.28-5.26,35.64,35.64,0,0,1-1.44-5.55,36.6,36.6,0,0,1,1-17,37.7,37.7,0,0,1,2.1-5.34,46.22,46.22,0,0,0,2.5-5.34c.69-2,1.09-4.24,2.42-5.62s3.59-1.85,5.53-2.61a46.87,46.87,0,0,0,5.25-2.68,37.19,37.19,0,0,1,5.26-2.29,36.76,36.76,0,0,1,5.55-1.43,36.58,36.58,0,0,1,11.44-.2,35.91,35.91,0,0,1,5.6,1.24,36.54,36.54,0,0,1,5.34,2.1c1.72.84,3.37,1.81,4.2,2.3l.83.49"/><path class="cls-35" d="M172.65,548.57l1,.85c1,.86,3.12,2.57,5.05,4.44a51.67,51.67,0,0,1,5.33,6,51.52,51.52,0,0,1,7.53,14.17c.87,2.53,1.55,5.14,5.53,7.72s11.29,5.14,11.33,7.83-7.15,5.49-11.05,8.21-4.47,5.35-5.26,7.92a50.53,50.53,0,0,1-3,7.48,49.58,49.58,0,0,1-4.08,6.93A51.41,51.41,0,0,1,174,631.68a51.33,51.33,0,0,1-6.79,4.33A51.82,51.82,0,0,1,152,641.23a52.34,52.34,0,0,1-8,.77,51.24,51.24,0,0,1-8-.49,51,51,0,0,1-15.34-4.69,51.17,51.17,0,0,1-18.47-15.23,50.58,50.58,0,0,1-7.53-14.16A51.25,51.25,0,0,1,97,568.26a51.3,51.3,0,0,1,22-22.79,51.06,51.06,0,0,1,15.17-5.22,51.27,51.27,0,0,1,23.89,1.46,50.65,50.65,0,0,1,7.49,2.95c2.41,1.17,4.73,2.54,5.89,3.22l1.16.69"/><path class="cls-36" d="M152.2,324.82l.22.18a13.47,13.47,0,0,1,1,.91,9.86,9.86,0,0,1,1.1,1.23,10.7,10.7,0,0,1,.89,1.4,11.26,11.26,0,0,1,.65,1.51,11.08,11.08,0,0,1,.42,1.6,10.54,10.54,0,0,1,.06,3.3,11.32,11.32,0,0,1-.36,1.61,10.72,10.72,0,0,1-.61,1.54,10.19,10.19,0,0,1-.84,1.42,9.08,9.08,0,0,1-1,1.27,9.86,9.86,0,0,1-1.23,1.1,10.7,10.7,0,0,1-1.4.89,10.15,10.15,0,0,1-1.51.66,12.51,12.51,0,0,1-1.6.41,10.43,10.43,0,0,1-4.91-.3,10.72,10.72,0,0,1-1.54-.61,10.19,10.19,0,0,1-1.42-.84,9.08,9.08,0,0,1-1.27-1.05,9.86,9.86,0,0,1-1.1-1.23,10.7,10.7,0,0,1-.89-1.4,10.11,10.11,0,0,1-.65-1.51,11.08,11.08,0,0,1-.42-1.6,10.48,10.48,0,0,1,.3-4.91,10.6,10.6,0,0,1,.61-1.53,9.74,9.74,0,0,1,.84-1.43,9.08,9.08,0,0,1,1-1.27,9.86,9.86,0,0,1,1.23-1.1,10.7,10.7,0,0,1,1.4-.89,11.26,11.26,0,0,1,1.51-.65c.52-.18,1.06-.32,1.52-5.06s.85-14.09,1.4-14.1,1.27,9.32,1.89,14,1.17,4.84,1.7,5a10.72,10.72,0,0,1,1.54.61c.49.24,1,.52,1.21.66l.23.14"/><path class="cls-37" d="M152.32,324.66l.21.18c.22.18.66.54,1.06.93A10.21,10.21,0,0,1,154.7,327a10.07,10.07,0,0,1,.91,1.42,10.54,10.54,0,0,1,.67,1.54,3,3,0,0,0,1,1.62c.65.54,1.81,1.08,1.82,1.64s-1.13,1.15-1.76,1.71a3,3,0,0,0-.91,1.66,11,11,0,0,1-.62,1.56,10.06,10.06,0,0,1-.86,1.45,10.27,10.27,0,0,1-1.07,1.3,11.2,11.2,0,0,1-1.26,1.12,10.34,10.34,0,0,1-1.42.9,10.54,10.54,0,0,1-1.54.67A11.13,11.13,0,0,1,148,344a10.85,10.85,0,0,1-3.35.06,11.55,11.55,0,0,1-1.65-.36,11.07,11.07,0,0,1-3-1.47,11.2,11.2,0,0,1-1.3-1.07,10.3,10.3,0,0,1-1.11-1.27,10,10,0,0,1-.91-1.41,10.83,10.83,0,0,1-1.09-3.18,10.85,10.85,0,0,1-.06-3.35,11.13,11.13,0,0,1,.36-1.64,10.68,10.68,0,0,1,.62-1.57,10.06,10.06,0,0,1,.86-1.45,10.52,10.52,0,0,1,2.33-2.41,10.4,10.4,0,0,1,1.42-.91,10.54,10.54,0,0,1,1.54-.67,11.13,11.13,0,0,1,1.63-.42,10.85,10.85,0,0,1,3.35-.06,11.55,11.55,0,0,1,1.65.36,12.35,12.35,0,0,1,1.56.62c.51.25,1,.53,1.23.68l.25.14"/><path class="cls-38" d="M152.37,324.59l.21.18c.22.18.66.54,1.07.94a9.69,9.69,0,0,1,1.12,1.27,11.06,11.06,0,0,1,1.59,3,2.35,2.35,0,0,0,1.36,1.63c1,.54,3,1.07,3,1.64s-1.9,1.16-2.92,1.74a2.32,2.32,0,0,0-1.3,1.67,11.31,11.31,0,0,1-.63,1.58,9.32,9.32,0,0,1-.86,1.46,11.13,11.13,0,0,1-1.07,1.31,10.48,10.48,0,0,1-1.28,1.12,11.06,11.06,0,0,1-3,1.59,10.48,10.48,0,0,1-3.33.59,10.59,10.59,0,0,1-1.69-.11,10.45,10.45,0,0,1-1.66-.36,12.63,12.63,0,0,1-1.58-.62,10.23,10.23,0,0,1-1.46-.87,10.38,10.38,0,0,1-2.43-2.34,11.47,11.47,0,0,1-.91-1.43,10.23,10.23,0,0,1-.68-1.56,10.59,10.59,0,0,1-.48-5,10.45,10.45,0,0,1,.36-1.66,12.63,12.63,0,0,1,.62-1.58,10.23,10.23,0,0,1,.87-1.46,11.13,11.13,0,0,1,1.07-1.31,12.26,12.26,0,0,1,1.27-1.12,10.88,10.88,0,0,1,1.44-.91,10.13,10.13,0,0,1,1.55-.68,10.59,10.59,0,0,1,5-.48,11.68,11.68,0,0,1,1.66.36,11.31,11.31,0,0,1,1.58.63,12.82,12.82,0,0,1,1.24.68l.25.14"/><path class="cls-39" d="M154.81,321.1l.31.25c.3.25.91.75,1.48,1.3a15.52,15.52,0,0,1,1.57,1.77,15.88,15.88,0,0,1,1.26,2,14.41,14.41,0,0,1,.95,2.17c.25.74.45,1.51,4.85,2.21s13,1.34,13,2.13-8.56,1.73-12.93,2.58-4.54,1.63-4.77,2.38a14.38,14.38,0,0,1-.87,2.2,14,14,0,0,1-1.2,2,15.26,15.26,0,0,1-1.5,1.82,15.52,15.52,0,0,1-1.77,1.57,15.26,15.26,0,0,1-2,1.27,15.45,15.45,0,0,1-2.17.94,16,16,0,0,1-2.29.59,15.33,15.33,0,0,1-2.35.23,15.59,15.59,0,0,1-2.36-.15,15,15,0,0,1-2.3-.51,14.38,14.38,0,0,1-2.2-.87,14.87,14.87,0,0,1-2-1.19,16.38,16.38,0,0,1-1.82-1.51,15.52,15.52,0,0,1-1.57-1.77,16.38,16.38,0,0,1-1.27-2,15.45,15.45,0,0,1-.94-2.17,16.24,16.24,0,0,1-.59-2.28,14.7,14.7,0,0,1-.08-4.71,14.85,14.85,0,0,1,.51-2.31,14.38,14.38,0,0,1,.87-2.2,14,14,0,0,1,1.2-2,15.26,15.26,0,0,1,1.5-1.82,14.53,14.53,0,0,1,1.77-1.56,14.27,14.27,0,0,1,2-1.27,15.5,15.5,0,0,1,2.17-.95,16,16,0,0,1,2.29-.59,15.33,15.33,0,0,1,2.35-.22,14.38,14.38,0,0,1,2.36.14,15,15,0,0,1,2.3.51,14.38,14.38,0,0,1,2.2.87c.71.34,1.39.74,1.73.94l.34.21"/><path class="cls-40" d="M158.35,316.05l.43.35c.43.35,1.29,1.06,2.08,1.83a21.73,21.73,0,0,1,2.21,2.49,21.12,21.12,0,0,1,1.78,2.81,20.11,20.11,0,0,1,1.33,3.05c.36,1.05.64,2.13,3.18,3.18s7.32,2.08,7.34,3.19-4.73,2.3-7.23,3.44-2.74,2.23-3.06,3.29a20.45,20.45,0,0,1-1.22,3.09,21.17,21.17,0,0,1-1.69,2.87,19.93,19.93,0,0,1-2.11,2.56,21.73,21.73,0,0,1-2.49,2.21,22.26,22.26,0,0,1-2.81,1.79,21.31,21.31,0,0,1-6.27,2.15,20.39,20.39,0,0,1-3.31.32,21.69,21.69,0,0,1-3.32-.2,20.07,20.07,0,0,1-3.25-.72,20.45,20.45,0,0,1-3.09-1.22,20.18,20.18,0,0,1-2.87-1.69,19.93,19.93,0,0,1-2.56-2.11,21.73,21.73,0,0,1-2.21-2.49,22.26,22.26,0,0,1-1.79-2.81,21.31,21.31,0,0,1-2.15-6.27,20.39,20.39,0,0,1-.32-3.31,21.69,21.69,0,0,1,.2-3.32,21.18,21.18,0,0,1,.72-3.25,20.45,20.45,0,0,1,1.22-3.09,21.17,21.17,0,0,1,1.69-2.87,19.93,19.93,0,0,1,2.11-2.56,21.73,21.73,0,0,1,2.49-2.21,21.12,21.12,0,0,1,2.81-1.78,20.11,20.11,0,0,1,3.05-1.33,21.14,21.14,0,0,1,3.22-.83,20.39,20.39,0,0,1,3.31-.32,21.69,21.69,0,0,1,3.32.2,22.43,22.43,0,0,1,3.25.72,21.56,21.56,0,0,1,3.09,1.22c1,.49,2,1.05,2.44,1.33l.48.29"/><path class="cls-41" d="M159.56,314.32l.47.38c.47.39,1.42,1.17,2.3,2a24.31,24.31,0,0,1,2.42,2.74,23.48,23.48,0,0,1,3.42,6.43,24.23,24.23,0,0,1,.92,3.54,23.05,23.05,0,0,1,.12,7.29,22.74,22.74,0,0,1-.79,3.57,22.14,22.14,0,0,1-1.34,3.41,23.18,23.18,0,0,1-1.85,3.15,24.05,24.05,0,0,1-2.33,2.82,23.36,23.36,0,0,1-2.74,2.42,23.39,23.39,0,0,1-10,4.34,23.05,23.05,0,0,1-7.29.12,23.21,23.21,0,0,1-7-2.13,22,22,0,0,1-3.15-1.85,23.36,23.36,0,0,1-2.83-2.33,24.31,24.31,0,0,1-2.42-2.74,23.48,23.48,0,0,1-3.42-6.43c-.4-1.16-.71-2.34-6.25-3.45s-16.34-2.14-16.36-3.36,10.73-2.63,16.23-3.93,5.77-2.5,6.13-3.66a21.64,21.64,0,0,1,1.34-3.4,22.59,22.59,0,0,1,1.85-3.15,23.36,23.36,0,0,1,2.33-2.83,24.31,24.31,0,0,1,2.74-2.42,23.48,23.48,0,0,1,6.43-3.42,24.23,24.23,0,0,1,3.54-.92,23.05,23.05,0,0,1,7.29-.12,22.74,22.74,0,0,1,3.57.79,21.64,21.64,0,0,1,3.4,1.34c1.1.53,2.16,1.15,2.68,1.46l.53.32"/><path class="cls-42" d="M160.92,312.38l.52.43c.52.43,1.56,1.28,2.52,2.22a25.42,25.42,0,0,1,2.67,3,25,25,0,0,1,2.16,3.4,25.75,25.75,0,0,1,1.61,3.69,27.23,27.23,0,0,1,1,3.9,25.55,25.55,0,0,1,.38,4,27,27,0,0,1-.24,4,26.3,26.3,0,0,1-2.35,7.68,26.28,26.28,0,0,1-2,3.47,24.58,24.58,0,0,1-2.57,3.1,25.42,25.42,0,0,1-3,2.67,25,25,0,0,1-3.4,2.16,25.75,25.75,0,0,1-3.69,1.61c-1.27.44-2.57.77-3.84,4.32s-2.49,10.29-3.83,10.32-2.8-6.68-4.19-10.18-2.71-3.79-4-4.18a25.92,25.92,0,0,1-7.22-3.52,25.39,25.39,0,0,1-3.1-2.56,26.33,26.33,0,0,1-2.67-3,25.58,25.58,0,0,1-2.16-3.39,25.78,25.78,0,0,1-2.62-7.59,26.16,26.16,0,0,1-.14-8,25.09,25.09,0,0,1,.88-3.93,25.58,25.58,0,0,1,1.47-3.75,26.16,26.16,0,0,1,2-3.46,25.49,25.49,0,0,1,2.56-3.11,26.33,26.33,0,0,1,3-2.67,25,25,0,0,1,3.4-2.16,25.75,25.75,0,0,1,3.69-1.61,26.12,26.12,0,0,1,3.89-1,24.64,24.64,0,0,1,4-.39,27,27,0,0,1,4,.24,26.3,26.3,0,0,1,7.68,2.35c1.2.59,2.36,1.27,3,1.62l.58.34"/><path class="cls-43" d="M163.85,308.19l.62.51c.62.52,1.87,1.54,3,2.66a30.57,30.57,0,0,1,3.2,3.62,30.76,30.76,0,0,1,4.51,8.49,8.13,8.13,0,0,0,3,4.64c2.07,1.55,5.79,3.1,5.82,4.71s-3.64,3.28-5.65,4.91a8.07,8.07,0,0,0-2.83,4.74,31.17,31.17,0,0,1-4.21,8.65,31.27,31.27,0,0,1-3.07,3.72,30.57,30.57,0,0,1-3.62,3.2,30.15,30.15,0,0,1-4.07,2.59,30.91,30.91,0,0,1-4.42,1.92,30.23,30.23,0,0,1-4.67,1.21,31,31,0,0,1-9.62.17,30.73,30.73,0,0,1-13.36-5.26,32.09,32.09,0,0,1-3.72-3.07,30.57,30.57,0,0,1-3.2-3.62,30.38,30.38,0,0,1-4.51-8.49,29.94,29.94,0,0,1-1.21-4.67,31,31,0,0,1-.17-9.62A30.57,30.57,0,0,1,121,315.85a31.37,31.37,0,0,1,3.07-3.73,29.62,29.62,0,0,1,3.62-3.19,30.22,30.22,0,0,1,4.07-2.6,30.91,30.91,0,0,1,4.42-1.92,30.23,30.23,0,0,1,4.67-1.21,31,31,0,0,1,9.62-.17,31.71,31.71,0,0,1,4.71,1.05,30.34,30.34,0,0,1,4.49,1.77c1.45.7,2.84,1.52,3.53,1.93l.7.41"/><path class="cls-44" d="M165.06,306.46l.66.55c.67.55,2,1.65,3.24,2.84a33.74,33.74,0,0,1,3.41,3.86,33,33,0,0,1,2.77,4.35,32.53,32.53,0,0,1,2.06,4.73,17.35,17.35,0,0,0,2.2,5c1.21,1.68,3.2,3.36,3.23,5.08s-1.9,3.48-3,5.2a17.25,17.25,0,0,0-2,5,31.9,31.9,0,0,1-1.89,4.8,32.89,32.89,0,0,1-2.61,4.44,32.67,32.67,0,0,1-7.14,7.39,32,32,0,0,1-4.35,2.77,32.93,32.93,0,0,1-20,3.53,33.22,33.22,0,0,1-5-1.12,31.9,31.9,0,0,1-4.8-1.89,32.67,32.67,0,0,1-11.83-9.75,33,33,0,0,1-2.77-4.35,32.93,32.93,0,0,1-3.53-20,33.22,33.22,0,0,1,1.12-5,31.9,31.9,0,0,1,1.89-4.8,32.67,32.67,0,0,1,9.75-11.83,33,33,0,0,1,4.35-2.77,32.93,32.93,0,0,1,20-3.53,33.22,33.22,0,0,1,5,1.12,31.9,31.9,0,0,1,4.8,1.89c1.54.75,3,1.63,3.77,2.07l.75.43"/><path class="cls-45" d="M166.82,304l.72.6c.73.6,2.19,1.8,3.54,3.11a35.62,35.62,0,0,1,3.73,4.22,36.75,36.75,0,0,1,3,4.75,36.24,36.24,0,0,1,2.24,5.16,35.59,35.59,0,0,1,1.41,5.46,36,36,0,0,1,.2,11.23,35.78,35.78,0,0,1-1.22,5.5,36.76,36.76,0,0,1-2.06,5.24,37.4,37.4,0,0,1-2.86,4.85,35.6,35.6,0,0,1-3.59,4.35,34.85,34.85,0,0,1-4.22,3.73,36.75,36.75,0,0,1-4.75,3,36.24,36.24,0,0,1-5.16,2.24,34.48,34.48,0,0,1-5.46,1.41,36,36,0,0,1-11.23.2,35.78,35.78,0,0,1-5.5-1.22,36.76,36.76,0,0,1-5.24-2.06,36.3,36.3,0,0,1-4.85-2.86,36.19,36.19,0,0,1-8.08-7.8,37.55,37.55,0,0,1-3-4.76,35.76,35.76,0,0,1-2.24-5.16,36,36,0,0,1-1.61-16.69,35.78,35.78,0,0,1,1.22-5.5,36.76,36.76,0,0,1,2.06-5.24,37.4,37.4,0,0,1,2.86-4.85,36.37,36.37,0,0,1,3.59-4.35,34.85,34.85,0,0,1,4.22-3.73,36.75,36.75,0,0,1,4.75-3,36.24,36.24,0,0,1,5.16-2.24,49.86,49.86,0,0,0,5.45-2c1.84-.87,3.7-2.14,5.58-2.17s3.78,1.17,5.65,2a51.45,51.45,0,0,0,5.51,1.76,35.66,35.66,0,0,1,5.24,2.07c1.69.82,3.31,1.78,4.12,2.25l.82.48"/><path class="cls-46" d="M168.55,301.48l.78.65c.79.65,2.37,1.95,3.83,3.37a38.82,38.82,0,0,1,9.76,15.31c.67,1.93,1.18,3.91,11,5.75s28.9,3.55,28.93,5.58-19,4.41-28.72,6.59-10.17,4.18-10.77,6.13A38.68,38.68,0,0,1,178,355.79a38.24,38.24,0,0,1-8.46,8.76,38.36,38.36,0,0,1-5.15,3.28,39,39,0,0,1-11.5,4,38.76,38.76,0,0,1-6.08.59,39.92,39.92,0,0,1-6.09-.37,38.91,38.91,0,0,1-6-1.33,38.57,38.57,0,0,1-10.94-5.33,38.78,38.78,0,0,1-8.76-8.46,38.36,38.36,0,0,1-3.28-5.15,39,39,0,0,1-4-11.5,38.76,38.76,0,0,1-.59-6.08,39.92,39.92,0,0,1,.37-6.09,38.91,38.91,0,0,1,1.33-6,38.47,38.47,0,0,1,2.23-5.68,38.87,38.87,0,0,1,11.56-14,38.36,38.36,0,0,1,5.15-3.28,39,39,0,0,1,11.5-4,38.43,38.43,0,0,1,12.17-.21,37.73,37.73,0,0,1,6,1.32,38.47,38.47,0,0,1,5.68,2.23c1.84.9,3.6,1.93,4.48,2.45l.88.52"/><path class="cls-47" d="M169.06,300.74l.81.67c.81.66,2.42,2,3.92,3.44a40,40,0,0,1,4.14,4.68,39.76,39.76,0,0,1,5.84,11,39.54,39.54,0,0,1,1.57,6.05,39.57,39.57,0,0,1-1.14,18.55,39.89,39.89,0,0,1-9.43,16,40,40,0,0,1-4.68,4.14,39.76,39.76,0,0,1-11,5.84,39.54,39.54,0,0,1-6,1.57,39.57,39.57,0,0,1-18.55-1.14,39.89,39.89,0,0,1-16-9.43,40,40,0,0,1-4.14-4.68,39.76,39.76,0,0,1-5.84-11,39.54,39.54,0,0,1-1.57-6.05,39.57,39.57,0,0,1,1.14-18.55,39.82,39.82,0,0,1,5.46-11.19,39,39,0,0,1,4-4.82,39.76,39.76,0,0,1,15.67-10c2-.68,4-1.21,5.93-8.06s3.8-20.05,5.88-20.09,4.4,13.08,6.58,19.87,4.21,7.24,6.21,7.85a39.17,39.17,0,0,1,5.81,2.29c1.87.91,3.67,2,4.57,2.5l.9.53"/><path class="cls-48" d="M176.13,290.65l1.06.87c1.05.87,3.16,2.61,5.12,4.5a50.79,50.79,0,0,1,5.42,6.12,52,52,0,0,1,7.65,14.39,51,51,0,0,1,2,7.91,52,52,0,0,1-1.48,24.27,51.81,51.81,0,0,1-7.14,14.64,54.13,54.13,0,0,1-5.2,6.31,51.59,51.59,0,0,1-6.12,5.41,52,52,0,0,1-14.39,7.65,52.57,52.57,0,0,1-16,2.83,52.1,52.1,0,0,1-16.14-2.27A51.92,51.92,0,0,1,110,370.94a50.79,50.79,0,0,1-5.42-6.12,52,52,0,0,1-7.65-14.39,52.57,52.57,0,0,1-2.83-16,52,52,0,0,1,2.27-16.13,51.88,51.88,0,0,1,12.34-20.95,50.79,50.79,0,0,1,6.12-5.42,52,52,0,0,1,14.39-7.65c2.57-.89,5.22-1.57,7.83-6.68s5.16-14.66,7.89-14.71,5.62,9.4,8.4,14.42,5.45,5.61,8.06,6.41a52.18,52.18,0,0,1,7.6,3c2.45,1.19,4.81,2.58,6,3.27l1.18.7"/><path class="cls-49" d="M176.47,290.17l1.07.88c1.06.88,3.2,2.64,5.18,4.55a52.55,52.55,0,0,1,9.92,13.16,53.08,53.08,0,0,1,3.29,7.58,52.54,52.54,0,0,1,2.86,16.22,52.91,52.91,0,0,1-.5,8.25,54.34,54.34,0,0,1-1.79,8.07,53,53,0,0,1-7.22,14.8,52.82,52.82,0,0,1-11.45,11.86,52.75,52.75,0,0,1-39,10.09,54.34,54.34,0,0,1-8.07-1.79,52.74,52.74,0,0,1-26.66-18.67,53.75,53.75,0,0,1-4.44-7,53.08,53.08,0,0,1-3.29-7.58,52.54,52.54,0,0,1-2.86-16.22,52.91,52.91,0,0,1,.5-8.25,54.34,54.34,0,0,1,1.79-8.07,52.58,52.58,0,0,1,18.67-26.65A52.84,52.84,0,0,1,129,283.69c2.6-.9,5.28-1.59,8-3.57s5.39-5.25,8.15-5.3,5.57,3.13,8.32,5,5.46,2.49,8.1,3.29a52.82,52.82,0,0,1,7.68,3c2.48,1.21,4.87,2.61,6.06,3.32l1.19.7"/><path class="cls-50" d="M150.08,161.48l.22.18c.21.18.65.54,1,.93a10.91,10.91,0,0,1,1.11,1.25,10.6,10.6,0,0,1,.9,1.42,10,10,0,0,1,.67,1.54,9.07,9.07,0,0,1,.42,1.63,10,10,0,0,1,.06,3.34,11.13,11.13,0,0,1-.36,1.64,9.56,9.56,0,0,1-.62,1.56,10,10,0,0,1-.85,1.45,10.53,10.53,0,0,1-3.74,3.31,10.54,10.54,0,0,1-1.54.67c-.53.18-1.07.32-1.55,4.93S145,199,144.42,199s-1.28-9-1.91-13.62-1.18-4.71-1.72-4.88a10.52,10.52,0,0,1-1.56-.61,11,11,0,0,1-1.45-.85,10.17,10.17,0,0,1-1.29-1.07,10.29,10.29,0,0,1-1.12-1.26,11.6,11.6,0,0,1-.9-1.41,11,11,0,0,1-.67-1.54,11.47,11.47,0,0,1-.42-1.63,10.38,10.38,0,0,1-.16-1.67,11.84,11.84,0,0,1,.1-1.68,10.12,10.12,0,0,1,.37-1.63,11.08,11.08,0,0,1,.61-1.57,11.58,11.58,0,0,1,.85-1.44,10.52,10.52,0,0,1,2.33-2.41,10,10,0,0,1,1.42-.9,9.56,9.56,0,0,1,1.54-.67,9.88,9.88,0,0,1,1.62-.42,10.38,10.38,0,0,1,1.67-.16,10.53,10.53,0,0,1,1.68.1,11.72,11.72,0,0,1,1.64.36,11.51,11.51,0,0,1,1.56.62c.5.24,1,.53,1.23.67l.24.14"/><path class="cls-51" d="M152.65,157.82l.31.25c.3.25.92.76,1.49,1.31a14.7,14.7,0,0,1,1.57,1.78,15.16,15.16,0,0,1,1.28,2,15.62,15.62,0,0,1,.95,2.18c.26.75.46,1.52,5.09,2.22s13.71,1.34,13.72,2.13-9,1.75-13.64,2.61-4.77,1.65-5,2.4a14.93,14.93,0,0,1-2.08,4.27,14.68,14.68,0,0,1-1.51,1.83,15.7,15.7,0,0,1-1.78,1.58,15.54,15.54,0,0,1-2,1.28,14.48,14.48,0,0,1-2.18.94,15.25,15.25,0,0,1-2.3.6,14.88,14.88,0,0,1-4.74.08,15.24,15.24,0,0,1-2.32-.51,14.93,14.93,0,0,1-4.27-2.08,15.35,15.35,0,0,1-3.41-3.29,16.18,16.18,0,0,1-1.27-2,14.53,14.53,0,0,1-.95-2.18,15.25,15.25,0,0,1-.6-2.3,14.94,14.94,0,0,1-.08-4.75,14.64,14.64,0,0,1,1.39-4.53,15,15,0,0,1,1.2-2,15.63,15.63,0,0,1,1.52-1.84,14.81,14.81,0,0,1,1.78-1.57,14.44,14.44,0,0,1,2-1.28,15.62,15.62,0,0,1,2.18-1,14,14,0,0,1,2.31-.59,14.4,14.4,0,0,1,2.36-.23,14.56,14.56,0,0,1,2.38.14,15.54,15.54,0,0,1,2.32.52,14.49,14.49,0,0,1,2.21.87c.72.35,1.4.75,1.75,1l.34.21"/><path class="cls-52" d="M153.58,156.48l.34.28c.34.28,1,.84,1.65,1.45a16.32,16.32,0,0,1,1.75,2,16.74,16.74,0,0,1,1.41,2.23,15.15,15.15,0,0,1,1.05,2.41,15.92,15.92,0,0,1,.66,2.55,16.38,16.38,0,0,1,.26,2.62,17.78,17.78,0,0,1-.16,2.63,18.7,18.7,0,0,1-.57,2.57,16.88,16.88,0,0,1-2.31,4.72,16.56,16.56,0,0,1-3.64,3.77,16.7,16.7,0,0,1-2.22,1.42,17.87,17.87,0,0,1-2.42,1.05,15.92,15.92,0,0,1-2.55.66,16.91,16.91,0,0,1-5.25.09,16.16,16.16,0,0,1-2.57-.57,16.5,16.5,0,0,1-4.72-2.3,16.89,16.89,0,0,1-3.77-3.65,16.08,16.08,0,0,1-1.42-2.22,17.22,17.22,0,0,1-1-2.41,6.13,6.13,0,0,0-1.29-2.54c-.79-.86-2.14-1.71-2.15-2.59s1.3-1.78,2.06-2.66a6.37,6.37,0,0,0,1.2-2.58,17.23,17.23,0,0,1,2.3-4.72,17.22,17.22,0,0,1,3.65-3.78,16,16,0,0,1,2.22-1.41,17,17,0,0,1,5-1.71,16.61,16.61,0,0,1,2.63-.25,15.37,15.37,0,0,1,2.62.16,16.16,16.16,0,0,1,2.57.57,16.6,16.6,0,0,1,2.45,1c.79.39,1.55.83,1.93,1.06l.38.22"/><path class="cls-53" d="M156.31,152.59l.43.36c.44.36,1.31,1.08,2.12,1.86a21.55,21.55,0,0,1,2.24,2.53,22.15,22.15,0,0,1,1.81,2.85,21.74,21.74,0,0,1,1.35,3.09c.36,1.07.65,2.16,6.28,3.17s16.62,2,16.64,3.08-10.93,2.44-16.52,3.65-5.84,2.32-6.17,3.39a20.7,20.7,0,0,1-1.24,3.14,21.13,21.13,0,0,1-1.71,2.91,22.42,22.42,0,0,1-2.15,2.61,21.47,21.47,0,0,1-2.53,2.23,21.72,21.72,0,0,1-2.84,1.82,23,23,0,0,1-3.1,1.34,21.52,21.52,0,0,1-3.27.85,22.22,22.22,0,0,1-3.36.32,21.19,21.19,0,0,1-3.37-.21,20.81,20.81,0,0,1-3.29-.73,21.06,21.06,0,0,1-6-2.95,21.27,21.27,0,0,1-2.6-2.14,22.39,22.39,0,0,1-2.24-2.53,20.17,20.17,0,0,1-1.81-2.85,21.74,21.74,0,0,1-1.35-3.09,20.65,20.65,0,0,1-.84-3.27,21.11,21.11,0,0,1-.12-6.73,20.68,20.68,0,0,1,.73-3.3,21.56,21.56,0,0,1,1.24-3.14,20.62,20.62,0,0,1,1.71-2.9,19.88,19.88,0,0,1,2.15-2.61A21.46,21.46,0,0,1,131,153.1a22.86,22.86,0,0,1,2.85-1.81,20.28,20.28,0,0,1,3.1-1.34,21.39,21.39,0,0,1,3.26-.85,21.11,21.11,0,0,1,3.36-.32,22.26,22.26,0,0,1,3.37.2,21.84,21.84,0,0,1,3.3.73,22.27,22.27,0,0,1,3.14,1.24c1,.49,2,1.07,2.47,1.35l.49.29"/><path class="cls-54" d="M156.53,152.28l.44.36c.44.37,1.33,1.1,2.15,1.9a20.63,20.63,0,0,1,2.28,2.57,22.59,22.59,0,0,1,1.85,2.9,23.24,23.24,0,0,1,1.37,3.15,22.17,22.17,0,0,1,.86,3.32,23.14,23.14,0,0,1,.32,3.42,21.87,21.87,0,0,1-.21,3.43,20.24,20.24,0,0,1-.74,3.35,22,22,0,0,1-3,6.16,22.17,22.17,0,0,1-2.19,2.65,21.47,21.47,0,0,1-2.57,2.28,22.23,22.23,0,0,1-2.9,1.84A21,21,0,0,1,151,191a22.17,22.17,0,0,1-3.32.86,21.86,21.86,0,0,1-6.85.12,21.72,21.72,0,0,1-9.51-3.75,21.17,21.17,0,0,1-2.65-2.18,23.05,23.05,0,0,1-2.27-2.57,22.59,22.59,0,0,1-1.85-2.9,21.43,21.43,0,0,1-1.37-3.15c-.37-1.08-.66-2.2-4.3-3.27s-10.62-2.09-10.64-3.23,6.93-2.42,10.52-3.61,3.85-2.32,4.19-3.42a21.75,21.75,0,0,1,1.25-3.19,22.56,22.56,0,0,1,1.75-3,22.25,22.25,0,0,1,2.18-2.65,21.47,21.47,0,0,1,2.58-2.28,20.77,20.77,0,0,1,2.89-1.84,21.84,21.84,0,0,1,6.48-2.23,21.8,21.8,0,0,1,6.84-.12,22.63,22.63,0,0,1,3.36.74,23,23,0,0,1,3.19,1.26c1,.5,2,1.09,2.52,1.38l.5.29"/><path class="cls-55" d="M157.76,150.51l.49.4c.49.4,1.46,1.21,2.37,2.08a24.92,24.92,0,0,1,2.5,2.83,24.42,24.42,0,0,1,2,3.18,23.68,23.68,0,0,1,2.45,7.11,23.69,23.69,0,0,1,.36,3.75,22.66,22.66,0,0,1-.23,3.77,23.54,23.54,0,0,1-2.2,7.19,24.05,24.05,0,0,1-1.91,3.25,23,23,0,0,1-2.4,2.91,23.89,23.89,0,0,1-2.82,2.5,23.57,23.57,0,0,1-3.19,2,24.44,24.44,0,0,1-7.11,2.45,23.57,23.57,0,0,1-3.75.36,25,25,0,0,1-3.77-.23,24.3,24.3,0,0,1-7.19-2.2,24.05,24.05,0,0,1-3.25-1.91,24.9,24.9,0,0,1-2.91-2.4,24,24,0,0,1-2.5-2.83,23.47,23.47,0,0,1-2-3.18,24.44,24.44,0,0,1-2.45-7.11,24.12,24.12,0,0,1-.13-7.52,24.3,24.3,0,0,1,2.2-7.19,22.56,22.56,0,0,1,1.92-3.25,23.14,23.14,0,0,1,2.4-2.92,24.82,24.82,0,0,1,2.82-2.5,25.11,25.11,0,0,1,3.18-2,24.15,24.15,0,0,1,3.46-1.51c1.19-.41,2.41-.72,3.6-4.06s2.33-9.69,3.59-9.71,2.63,6.29,3.93,9.58,2.53,3.57,3.74,3.93a24.64,24.64,0,0,1,3.51,1.39c1.13.55,2.22,1.19,2.76,1.51l.54.32"/><path class="cls-56" d="M158.12,150l.5.41c.5.42,1.5,1.24,2.43,2.14a24.26,24.26,0,0,1,2.56,2.89,25.44,25.44,0,0,1,2.08,3.27,24.25,24.25,0,0,1,1.54,3.55c.42,1.22.75,2.47,8.56,3.61S198.93,168,199,169.32s-15.25,2.85-23,4.26-8.05,2.68-8.43,3.91a24.26,24.26,0,0,1-1.42,3.6,25.38,25.38,0,0,1-2,3.34,25,25,0,0,1-2.47,3,24.34,24.34,0,0,1-2.89,2.57,24.7,24.7,0,0,1-3.27,2.07A24.19,24.19,0,0,1,152,193.6a25.49,25.49,0,0,1-3.75,1,26.14,26.14,0,0,1-3.85.37,24.94,24.94,0,0,1-3.86-.24,24.29,24.29,0,0,1-3.78-.84,23.22,23.22,0,0,1-3.6-1.42,23.64,23.64,0,0,1-3.33-2,24.35,24.35,0,0,1-5.55-5.36,23.67,23.67,0,0,1-2.08-3.26,25.43,25.43,0,0,1-1.55-3.55,24.88,24.88,0,0,1-1.33-7.6,23.75,23.75,0,0,1,.23-3.86,24.68,24.68,0,0,1,2.26-7.38,24.22,24.22,0,0,1,2-3.33,23.46,23.46,0,0,1,2.46-3,25.25,25.25,0,0,1,2.9-2.57,24.66,24.66,0,0,1,3.26-2.08,24.81,24.81,0,0,1,7.3-2.51,24.52,24.52,0,0,1,7.71-.13,24.28,24.28,0,0,1,7.38,2.25c1.16.57,2.27,1.23,2.83,1.55l.56.33"/><path class="cls-57" d="M159.48,148.06l.54.45c.55.46,1.65,1.36,2.66,2.34a27.32,27.32,0,0,1,5.09,6.75,27.38,27.38,0,0,1,1.69,3.89,6.54,6.54,0,0,0,2.87,4.07c2.06,1.36,5.81,2.71,5.84,4.13s-3.68,2.89-5.69,4.32a6.56,6.56,0,0,0-2.73,4.17,26.85,26.85,0,0,1-6.4,10.87,26.43,26.43,0,0,1-3.17,2.81,27.8,27.8,0,0,1-3.58,2.28,27.23,27.23,0,0,1-16.44,2.9,26.8,26.8,0,0,1-8.08-2.48,26.78,26.78,0,0,1-3.66-2.15,26.88,26.88,0,0,1-8.35-9.44,26.29,26.29,0,0,1-1.69-3.89,27.58,27.58,0,0,1-1.07-4.11,27,27,0,0,1-.4-4.22,26.05,26.05,0,0,1,.26-4.23,26.47,26.47,0,0,1,.91-4.13,27.18,27.18,0,0,1,3.71-7.6,25.63,25.63,0,0,1,2.7-3.27,26.43,26.43,0,0,1,3.17-2.81,26.76,26.76,0,0,1,3.58-2.28,27.26,27.26,0,0,1,3.88-1.69,26.38,26.38,0,0,1,4.11-1.06,26.82,26.82,0,0,1,8.45-.15,28.1,28.1,0,0,1,4.14.92,26.63,26.63,0,0,1,3.94,1.55c1.27.62,2.49,1.34,3.11,1.7l.61.36"/><path class="cls-58" d="M162.68,143.48l.67.55c.66.54,2,1.63,3.2,2.81a33.28,33.28,0,0,1,3.39,3.83,32.52,32.52,0,0,1,2.75,4.32,33,33,0,0,1,2,4.68c.55,1.62,1,3.28,1.71,5s1.74,3.36,1.77,5.06-.93,3.43-1.6,5.13-1,3.37-1.53,5a32.92,32.92,0,0,1-1.88,4.76,31.33,31.33,0,0,1-2.59,4.4,32.37,32.37,0,0,1-11.39,10.08,32.45,32.45,0,0,1-4.69,2,31.57,31.57,0,0,1-4.95,1.28,32.71,32.71,0,0,1-10.2.18,32.7,32.7,0,0,1-5-1.11,31.76,31.76,0,0,1-4.76-1.87,33,33,0,0,1-4.4-2.6,32.13,32.13,0,0,1-7.33-7.08,32.47,32.47,0,0,1-4.79-9A32.66,32.66,0,0,1,114.63,156a32.6,32.6,0,0,1,5.85-8.35,32.46,32.46,0,0,1,3.83-3.39,31.78,31.78,0,0,1,4.31-2.75,32.58,32.58,0,0,1,14.73-3.81A32.37,32.37,0,0,1,158.2,141c1.54.74,3,1.61,3.75,2.05l.73.43"/><path class="cls-59" d="M162.8,143.32l.66.55c.67.54,2,1.64,3.23,2.83a31.93,31.93,0,0,1,3.41,3.85,32.84,32.84,0,0,1,5.17,29.32,33.25,33.25,0,0,1-4.5,9.22,32.81,32.81,0,0,1-7.12,7.38,33.86,33.86,0,0,1-4.34,2.76,33,33,0,0,1-9.7,3.34,33,33,0,0,1-10.25.18,32.06,32.06,0,0,1-5-1.12,32.86,32.86,0,0,1-9.22-4.49,33.55,33.55,0,0,1-4-3.27,32.81,32.81,0,0,1-3.41-3.86,32.23,32.23,0,0,1-2.77-4.34,32.77,32.77,0,0,1-3.34-9.69,33.1,33.1,0,0,1-.18-10.26,33.33,33.33,0,0,1,3-9.81,34.53,34.53,0,0,1,2.61-4.43,33.15,33.15,0,0,1,7.13-7.38,32.87,32.87,0,0,1,9.06-4.81,20.6,20.6,0,0,0,5-2.08c1.68-1.08,3.37-2.81,5.08-2.84s3.46,1.64,5.18,2.67a20.89,20.89,0,0,0,5,1.89,32.88,32.88,0,0,1,4.79,1.89c1.54.75,3,1.62,3.77,2.06l.74.44"/><path class="cls-60" d="M164,141.62l.7.58c.71.59,2.12,1.75,3.43,3a34.35,34.35,0,0,1,3.63,4.09,35.26,35.26,0,0,1,2.94,4.61,36.08,36.08,0,0,1,2.18,5,7.93,7.93,0,0,0,4,5.25c3,1.75,8.48,3.48,8.51,5.3s-5.41,3.74-8.32,5.6a8,8,0,0,0-3.85,5.38,34.47,34.47,0,0,1-4.78,9.8,33.49,33.49,0,0,1-3.48,4.22,34.37,34.37,0,0,1-4.09,3.62,35.26,35.26,0,0,1-4.61,2.94,33.85,33.85,0,0,1-5,2.18,35,35,0,0,1-16.19,1.56,34.87,34.87,0,0,1-5.34-1.18,35.19,35.19,0,0,1-9.8-4.78,34.67,34.67,0,0,1-7.84-7.58,34.61,34.61,0,0,1-2.94-4.61,34.2,34.2,0,0,1-2.18-5,35.86,35.86,0,0,1-1.37-5.3,34.09,34.09,0,0,1-.52-5.44,35.66,35.66,0,0,1,.33-5.46,34.74,34.74,0,0,1,1.18-5.33,35.19,35.19,0,0,1,4.78-9.8,34.9,34.9,0,0,1,17.2-13,33.54,33.54,0,0,1,5.3-1.37,34.36,34.36,0,0,1,10.9-.19,35.13,35.13,0,0,1,5.34,1.18,34.57,34.57,0,0,1,5.08,2c1.64.8,3.22,1.73,4,2.2l.79.46"/><path class="cls-61" d="M164.44,141l.72.6c.73.59,2.17,1.78,3.51,3.08a36.92,36.92,0,0,1,3.71,4.19,35.62,35.62,0,0,1,5.23,9.84,8.67,8.67,0,0,0,3.76,5.37c2.69,1.8,7.59,3.58,7.63,5.45s-4.81,3.81-7.43,5.7a8.67,8.67,0,0,0-3.57,5.5,36.48,36.48,0,0,1-2.05,5.2,35.84,35.84,0,0,1-2.84,4.82,35.9,35.9,0,0,1-12.46,11,37,37,0,0,1-5.13,2.23,37.37,37.37,0,0,1-5.41,1.4,35.85,35.85,0,0,1-5.57.53,35.57,35.57,0,0,1-16.24-3.6,35.84,35.84,0,0,1-4.82-2.84,36.72,36.72,0,0,1-4.32-3.55,35.89,35.89,0,0,1-3.7-4.19,36.28,36.28,0,0,1-3-4.72,35.86,35.86,0,0,1-4.16-16.1,36,36,0,0,1,.34-5.59,36.74,36.74,0,0,1,1.21-5.46,35.67,35.67,0,0,1,4.89-10,35.62,35.62,0,0,1,7.74-8,36.21,36.21,0,0,1,4.72-3,35.36,35.36,0,0,1,5.13-2.23,34.66,34.66,0,0,1,5.41-1.4,37.12,37.12,0,0,1,5.57-.54,36,36,0,0,1,5.58.35,35.55,35.55,0,0,1,10.66,3.26c1.68.81,3.29,1.76,4.1,2.24l.8.47"/><path class="cls-62" d="M164.53,140.84l.73.6c.72.6,2.17,1.8,3.52,3.1a35.77,35.77,0,0,1,9,14.09,8.24,8.24,0,0,0,4.07,5.39c3,1.8,8.5,3.58,8.53,5.45s-5.41,3.85-8.34,5.75a8.21,8.21,0,0,0-3.87,5.53,36.06,36.06,0,0,1-2.06,5.22,35.72,35.72,0,0,1-6.43,9.18,37.11,37.11,0,0,1-4.2,3.72,35.53,35.53,0,0,1-4.74,3,36.73,36.73,0,0,1-5.15,2.23,35.75,35.75,0,0,1-11,1.95,36.15,36.15,0,0,1-5.6-.34,35.66,35.66,0,0,1-5.49-1.22,36.06,36.06,0,0,1-5.22-2.06,35.73,35.73,0,0,1-9.17-6.42,35.53,35.53,0,0,1-3.73-4.21,35.9,35.9,0,0,1-5.25-9.88,36.85,36.85,0,0,1-1.41-5.44,37.52,37.52,0,0,1-.54-5.59,35.08,35.08,0,0,1,.35-5.61,35.51,35.51,0,0,1,1.21-5.48,35.84,35.84,0,0,1,4.91-10.07,36,36,0,0,1,3.57-4.33A35.72,35.72,0,0,1,137.7,135a35,35,0,0,1,5.59-.54,36.28,36.28,0,0,1,5.61.34,36.38,36.38,0,0,1,10.71,3.27c1.68.83,3.3,1.78,4.11,2.26l.81.47"/><path class="cls-63" d="M165.49,139.47l.76.62c.76.63,2.28,1.88,3.69,3.24a38,38,0,0,1,3.9,4.41,36.54,36.54,0,0,1,3.16,5,37.52,37.52,0,0,1,3.81,11.08A37.16,37.16,0,0,1,181,175.5a37.94,37.94,0,0,1-3.43,11.21,38.35,38.35,0,0,1-3,5.06,37.05,37.05,0,0,1-8.15,8.43,37.07,37.07,0,0,1-5,3.16,37.1,37.1,0,0,1-11.09,3.82,37,37,0,0,1-5.85.56,36.09,36.09,0,0,1-5.87-.36,37.33,37.33,0,0,1-5.73-1.27A37.18,37.18,0,0,1,122.43,201a37.74,37.74,0,0,1-4.54-3.74,37,37,0,0,1-3.89-4.4,37.83,37.83,0,0,1-3.16-5,36.74,36.74,0,0,1-2.34-5.39,37.17,37.17,0,0,1-1.48-5.69,37.56,37.56,0,0,1-.2-11.72,37.34,37.34,0,0,1,19.51-27.86,36.79,36.79,0,0,1,5.39-2.35,14.07,14.07,0,0,0,5.67-2.88c1.91-1.74,3.82-4.74,5.78-4.77s4,2.89,5.94,4.57a14.15,14.15,0,0,0,5.76,2.68,36.75,36.75,0,0,1,5.47,2.15c1.76.86,3.46,1.86,4.31,2.36l.84.5"/><path class="cls-64" d="M174.19,127.06l1.06.87c1.07.88,3.2,2.64,5.17,4.55a52.66,52.66,0,0,1,5.47,6.18,51.43,51.43,0,0,1,4.43,7,53.34,53.34,0,0,1,3.29,7.56,52.66,52.66,0,0,1,2.06,8,51.3,51.3,0,0,1,.79,8.21,52.55,52.55,0,0,1-20.91,42.88,53.26,53.26,0,0,1-7,4.44A52.17,52.17,0,0,1,161,220a50.4,50.4,0,0,0-8,3c-2.69,1.44-5.41,3.64-8.16,3.69s-5.54-2.06-8.28-3.41a50,50,0,0,0-8.07-2.75,52.85,52.85,0,0,1-21.14-12.45,52.57,52.57,0,0,1-13.18-20.7,52.26,52.26,0,0,1-2.07-8,53.83,53.83,0,0,1-.79-8.21,53,53,0,0,1,2.29-16.28,53.81,53.81,0,0,1,3-7.67,52.21,52.21,0,0,1,4.19-7.11,52.48,52.48,0,0,1,33.92-21.61,52.71,52.71,0,0,1,16.44-.29,51.43,51.43,0,0,1,8.05,1.79,52.09,52.09,0,0,1,7.68,3c2.47,1.21,4.85,2.61,6,3.31l1.19.7"/><g id="Group_221" data-name="Group 221"><path id="Path_252" data-name="Path 252" d="M8.9,787.45c.28-.91.56-1.81.83-2.72l0-.17a3.44,3.44,0,0,0,1.8-3.44c0-5.51,2.24-10.36,5.06-15,0,3-1.77,5.41-2.57,8.13s-2.32,5.72.38,9.19c.73-4.54,1-8.45,2.42-12.18s2.39-7.85,3.67-11.75c.59-1.82-.29-1.88-1.62-1.65,1.74-2.55,4.36-3.91,7-5.25l-.09-.08a68.5,68.5,0,0,1-4.4,16.51c-1.19,3-2.59,6-1.92,9.19.46,2.18-.25,3.44-1.19,5.16-3,5.5-7.44,10.11-9.54,16.12-2.26,1.63-4.88,2.7-6.68,5.05-.95,1.25-1-.15-1-.84A59.45,59.45,0,0,0,16.2,783.43l-3.73,2.78C11,785.88,10.15,787.2,8.9,787.45ZM19,769.07c3.66-5.08,4.9-9.73,4-14Z"/><path id="Path_253" data-name="Path 253" d="M39.82,730.69c-1.69-1.24-3.39-2.48-5.55-.94-2,1.39-2.2,3.45-1.85,5.52.77,4.56-.3,8.11-4.85,10a27,27,0,0,0,2.64-3.87c.72-1.58.34-2.53-1.58-1.36.89-1.31,3.23-1.85,2.38-4.07-.54-1.42-1.59-1.27-2.61-.37,2-1.47,3.08-3.06,2.86-5.88-.25-3.32,6.48-8.22,9.44-7.45,1,.27,2,2.27,3.16.45.65-1,.09-2.17-.8-3a2.05,2.05,0,0,0-2.9-.31,1.81,1.81,0,0,0-.4.43c-.39.42-.66,1.14-1.54.6-.42-2.07,1.09-2.65,2.62-3.15a2.7,2.7,0,0,1,3.48,1.56l0,.09c.87,1.92,1.63,2.62,3.45.82.58-.58,2-1.43,2.93-.16.63.9-.18,1.77-.74,2.53-2.43,3.32-4.72,6.76-7.89,9.46-.11-2,1.16-3.9.06-6a3.23,3.23,0,0,0-3.36-2,3.27,3.27,0,0,0-3.17,2.35c-.55,2.06,1.51,1.46,2.38,2.06A4.16,4.16,0,0,1,39.82,730.69Z"/><path id="Path_254" data-name="Path 254" d="M25.93,752.64c-.19-1.94,1.39-2.11,2.9-2.89-.34,8-2.53,15.34-4.28,22.77-.53,2.23-1.82,4.88.55,6.64,2.64,2,5.51.82,8-.64,2.05-1.18,3.89-2.71,5.81-4.08,1.17,1.16,1.06,2.43.31,3.76.61,2.09-1.48,2.53-2.29,3.76-1.47-1.32,1-2.55,0-3.88a.9.9,0,0,0-1.22.42,1.06,1.06,0,0,0-.09.36c-.56,4.29-2.92,6.87-7.18,7.51-.46.07-2.71,1.24-2-1.31.35-1.2,2.84-2.41.13-3.74-2.47-1.21-4.46-.83-5.89,1.64,2.51-9.36,5.12-18.69,6.61-28.3.27-1.69.24-2.3-1.54-2.1Z"/><path id="Path_255" data-name="Path 255" d="M37.39,767.65l-3.73,1.17c-.76-6.23,2-11.31,3.83-16.77,1.53,1.18.11,2.2.3,3.19,4.37-1.41,8.51-1.44,12.11,1.94A42.18,42.18,0,0,0,37.39,767.65Zm8.49-11.15c-5.22,1.3-8.19,4.86-10.36,9.25Z"/><path id="Path_256" data-name="Path 256" d="M37.39,767.65A42.18,42.18,0,0,1,49.9,757.18c5,4.68,5,6.25.09,12.8l-.37-.34c.82-2,1.72-4,2.43-6.1a2.5,2.5,0,0,0-.64-3,2.6,2.6,0,0,0-3.12.19c-2.6,1.8-5.16,3.66-7.78,5.43C39.56,766.77,39,768.37,37.39,767.65Z"/><path id="Path_257" data-name="Path 257" d="M25.89,737.67c-1.22,4.31-4.91,6.65-7.76,9.65-1.62,1.7-3.32,3.32-5,5l-7.06,5.92.34.33Z"/><path id="Path_258" data-name="Path 258" d="M50.32,711.62c4.21-2.67,6.77-7.3,12.32-10.14L49.88,716.36l-1.19-2Z"/><path id="Path_259" data-name="Path 259" d="M11.53,772.14q-.87,6.21-1.75,12.42l0,.18C6,787.28,3.37,790.82,0,795.05c.72-3.47,2.6-5.12,4.24-6.78,2.68-2.72,5.07-5.25,4.89-9.64A8.65,8.65,0,0,1,11.53,772.14Z"/><path id="Path_260" data-name="Path 260" d="M13.67,752.87l2-.34a55.34,55.34,0,0,0-5.28,5.68c-1.25,1.77.86.56,1.22,1-2.62,2.91-5.88,5.2-8.19,8.44C4.45,761.07,10,757.59,13.67,752.87Z"/><path id="Path_261" data-name="Path 261" d="M50,770c-3.08,6.2-6.65,12.18-8.43,19a36.24,36.24,0,0,1,8.06-19.31Z"/><path id="Path_262" data-name="Path 262" d="M50.32,711.62l-1.63,2.76-1.78-.15c2.17-6.06,7.69-9.07,12-13.23C56.52,704.94,52.3,707.38,50.32,711.62Z"/><path id="Path_263" data-name="Path 263" d="M46.9,714.23l1.79.15,1.18,2c-1.54,1.17-3,4.33-4.16-.58-.73-3-3.47-.77-6.11.38C42,711.47,44.39,712.36,46.9,714.23Z"/><path id="Path_264" data-name="Path 264" d="M12.91,747.62c3.72-4.81,8.72-8.36,12.66-13C22.5,740.11,17.77,743.93,12.91,747.62Z"/><path id="Path_265" data-name="Path 265" d="M11.4,759.36c4.72-3.82,8.1-9.27,14.05-11.59-3.19,3.07-6.35,6.19-9.59,9.21C14.61,758.14,13.37,759.48,11.4,759.36Z"/><path id="Path_266" data-name="Path 266" d="M8.62,806.26l11.23-10.1C17.76,799.28,13.19,802.82,8.62,806.26Z"/><path id="Path_267" data-name="Path 267" d="M39.24,778.2a2.82,2.82,0,0,0-.31-3.76,13.81,13.81,0,0,1,6.35-5.55C42.82,771.75,43.15,776.25,39.24,778.2Z"/><path id="Path_268" data-name="Path 268" d="M39.68,731.48h2.55c-.17.84-1.28,1.42-.79,2.59,2.18-.71,3-2.93,5.76-4.62A16.86,16.86,0,0,1,39.54,737C39.54,735.08,40.85,733.29,39.68,731.48Z"/></g><g id="Group_259" data-name="Group 259"><path id="Path_252-2" data-name="Path 252-2" d="M8.9,647.25c.28-.91.56-1.81.83-2.72l0-.17a3.44,3.44,0,0,0,1.8-3.44c0-5.51,2.24-10.36,5.06-15,0,3-1.77,5.41-2.57,8.13s-2.32,5.72.38,9.19c.73-4.54,1-8.45,2.42-12.18s2.39-7.85,3.67-11.75c.59-1.82-.29-1.88-1.62-1.65,1.74-2.55,4.36-3.91,7-5.25l-.09-.08a68.5,68.5,0,0,1-4.4,16.51c-1.19,3-2.59,6-1.92,9.19.46,2.18-.25,3.44-1.19,5.16-3,5.5-7.44,10.11-9.54,16.12-2.26,1.63-4.88,2.7-6.68,5-.95,1.25-1-.15-1-.84A59.35,59.35,0,0,0,16.2,643.23L12.47,646C11,645.68,10.15,647,8.9,647.25ZM19,628.87c3.66-5.08,4.9-9.73,4-14Z"/><path id="Path_253-2" data-name="Path 253-2" d="M39.82,590.49c-1.69-1.24-3.39-2.48-5.55-.94-2,1.39-2.2,3.45-1.85,5.52.77,4.56-.3,8.11-4.85,10a27,27,0,0,0,2.64-3.87c.72-1.58.34-2.53-1.58-1.36.89-1.31,3.23-1.85,2.38-4.07-.54-1.42-1.59-1.27-2.61-.37,2-1.47,3.08-3.06,2.86-5.88-.25-3.32,6.48-8.22,9.44-7.45,1,.27,2,2.27,3.16.45.65-1,.09-2.17-.8-3a2.05,2.05,0,0,0-2.9-.31,1.81,1.81,0,0,0-.4.43c-.39.42-.66,1.14-1.54.6-.42-2.07,1.09-2.65,2.62-3.15a2.7,2.7,0,0,1,3.48,1.56l0,.09c.87,1.92,1.63,2.62,3.45.82.58-.58,2-1.43,2.93-.16.63.9-.18,1.77-.74,2.53-2.43,3.32-4.72,6.76-7.89,9.46-.11-2,1.16-3.9.06-6a3.23,3.23,0,0,0-3.36-2,3.27,3.27,0,0,0-3.17,2.35c-.55,2.06,1.51,1.46,2.38,2.06A4.16,4.16,0,0,1,39.82,590.49Z"/><path id="Path_254-2" data-name="Path 254-2" d="M25.93,612.44c-.19-1.94,1.39-2.11,2.9-2.89-.34,8-2.53,15.34-4.28,22.77-.53,2.23-1.82,4.88.55,6.64,2.64,2,5.51.82,8-.64,2.05-1.18,3.89-2.71,5.81-4.08,1.17,1.16,1.06,2.43.31,3.76.61,2.09-1.48,2.53-2.29,3.76-1.47-1.32,1-2.55,0-3.88a.9.9,0,0,0-1.22.42,1.06,1.06,0,0,0-.09.36c-.56,4.29-2.92,6.87-7.18,7.51-.46.07-2.71,1.24-2-1.31.35-1.2,2.84-2.41.13-3.74-2.47-1.21-4.46-.83-5.89,1.64,2.51-9.36,5.12-18.69,6.61-28.3.27-1.69.24-2.3-1.54-2.1Z"/><path id="Path_255-2" data-name="Path 255-2" d="M37.39,627.45l-3.73,1.17c-.76-6.23,2-11.31,3.83-16.77,1.53,1.18.11,2.2.3,3.19,4.37-1.41,8.51-1.44,12.11,1.94A42.18,42.18,0,0,0,37.39,627.45Zm8.49-11.15c-5.22,1.3-8.19,4.86-10.36,9.25Z"/><path id="Path_256-2" data-name="Path 256-2" d="M37.39,627.45A42.18,42.18,0,0,1,49.9,617c5,4.68,5,6.25.09,12.8l-.37-.34c.82-2,1.72-4,2.43-6.1a2.5,2.5,0,0,0-.64-3,2.6,2.6,0,0,0-3.12.19c-2.6,1.8-5.16,3.66-7.78,5.43C39.56,626.57,39,628.17,37.39,627.45Z"/><path id="Path_257-2" data-name="Path 257-2" d="M25.89,597.47c-1.22,4.31-4.91,6.65-7.76,9.65-1.62,1.7-3.32,3.32-5,5L6.09,618l.34.33Z"/><path id="Path_258-2" data-name="Path 258-2" d="M50.32,571.42c4.21-2.67,6.77-7.3,12.32-10.14L49.88,576.16l-1.19-2Z"/><path id="Path_259-2" data-name="Path 259-2" d="M11.53,631.94q-.87,6.21-1.75,12.42l0,.18C6,647.08,3.37,650.62,0,654.85c.72-3.47,2.6-5.12,4.24-6.78,2.68-2.72,5.07-5.25,4.89-9.64A8.65,8.65,0,0,1,11.53,631.94Z"/><path id="Path_260-2" data-name="Path 260-2" d="M13.67,612.67l2-.34A55.34,55.34,0,0,0,10.37,618c-1.25,1.77.86.56,1.22,1-2.62,2.91-5.88,5.2-8.19,8.44C4.45,620.87,10,617.39,13.67,612.67Z"/><path id="Path_261-2" data-name="Path 261-2" d="M50,629.78c-3.08,6.2-6.65,12.18-8.43,19a36.24,36.24,0,0,1,8.06-19.31Z"/><path id="Path_262-2" data-name="Path 262-2" d="M50.32,571.42l-1.63,2.76L46.91,574c2.17-6.06,7.69-9.07,12-13.23C56.52,564.74,52.3,567.18,50.32,571.42Z"/><path id="Path_263-2" data-name="Path 263-2" d="M46.9,574l1.79.15,1.18,2c-1.54,1.17-3,4.33-4.16-.58-.73-3-3.47-.77-6.11.38C42,571.27,44.39,572.16,46.9,574Z"/><path id="Path_264-2" data-name="Path 264-2" d="M12.91,607.42c3.72-4.81,8.72-8.36,12.66-13C22.5,599.91,17.77,603.73,12.91,607.42Z"/><path id="Path_265-2" data-name="Path 265-2" d="M11.4,619.16c4.72-3.82,8.1-9.27,14.05-11.59-3.19,3.07-6.35,6.19-9.59,9.21C14.61,617.94,13.37,619.28,11.4,619.16Z"/><path id="Path_266-2" data-name="Path 266-2" d="M8.62,666.06,19.85,656C17.76,659.08,13.19,662.62,8.62,666.06Z"/><path id="Path_267-2" data-name="Path 267-2" d="M39.24,638a2.82,2.82,0,0,0-.31-3.76,13.81,13.81,0,0,1,6.35-5.55C42.82,631.55,43.15,636.05,39.24,638Z"/><path id="Path_268-2" data-name="Path 268-2" d="M39.68,591.28h2.55c-.17.84-1.28,1.42-.79,2.59,2.18-.71,3-2.93,5.76-4.62a16.86,16.86,0,0,1-7.66,7.56C39.54,594.88,40.85,593.09,39.68,591.28Z"/></g><g id="Group_260" data-name="Group 260"><path id="Path_252-3" data-name="Path 252-3" d="M8.9,366.85c.28-.91.56-1.81.83-2.72l0-.17a3.44,3.44,0,0,0,1.8-3.44c0-5.51,2.24-10.36,5.06-15,0,3-1.77,5.41-2.57,8.13s-2.32,5.72.38,9.19c.73-4.54,1-8.45,2.42-12.18s2.39-7.85,3.67-11.75c.59-1.82-.29-1.88-1.62-1.65,1.74-2.55,4.36-3.91,7-5.25l-.09-.08a68.5,68.5,0,0,1-4.4,16.51c-1.19,3-2.59,6-1.92,9.19.46,2.18-.25,3.44-1.19,5.16-3,5.5-7.44,10.11-9.54,16.12-2.26,1.63-4.88,2.7-6.68,5.05-.95,1.25-1-.15-1-.84A59.35,59.35,0,0,0,16.2,362.83l-3.73,2.78C11,365.28,10.15,366.6,8.9,366.85ZM19,348.47c3.66-5.08,4.9-9.73,4-14Z"/><path id="Path_253-3" data-name="Path 253-3" d="M39.82,310.09c-1.69-1.24-3.39-2.48-5.55-.94-2,1.39-2.2,3.45-1.85,5.52.77,4.56-.3,8.11-4.85,10a27,27,0,0,0,2.64-3.87c.72-1.58.34-2.53-1.58-1.36.89-1.31,3.23-1.85,2.38-4.07-.54-1.42-1.59-1.27-2.61-.37,2-1.47,3.08-3.06,2.86-5.88-.25-3.32,6.48-8.22,9.44-7.45,1,.27,2,2.27,3.16.45.65-1,.09-2.17-.8-3a2.05,2.05,0,0,0-2.9-.31,1.81,1.81,0,0,0-.4.43c-.39.42-.66,1.14-1.54.6-.42-2.07,1.09-2.65,2.62-3.15a2.7,2.7,0,0,1,3.48,1.56l0,.09c.87,1.92,1.63,2.62,3.45.82.58-.58,2-1.43,2.93-.16.63.9-.18,1.77-.74,2.53-2.43,3.32-4.72,6.76-7.89,9.46-.11-2,1.16-3.9.06-6a3.23,3.23,0,0,0-3.36-2,3.27,3.27,0,0,0-3.17,2.35c-.55,2.06,1.51,1.46,2.38,2.06A4.16,4.16,0,0,1,39.82,310.09Z"/><path id="Path_254-3" data-name="Path 254-3" d="M25.93,332c-.19-1.94,1.39-2.11,2.9-2.89-.34,8-2.53,15.34-4.28,22.77-.53,2.23-1.82,4.88.55,6.64,2.64,2,5.51.82,8-.64,2.05-1.18,3.89-2.71,5.81-4.08,1.17,1.16,1.06,2.43.31,3.76.61,2.09-1.48,2.53-2.29,3.76-1.47-1.32,1-2.55,0-3.88a.9.9,0,0,0-1.22.42,1.06,1.06,0,0,0-.09.36c-.56,4.29-2.92,6.87-7.18,7.51-.46.07-2.71,1.24-2-1.31.35-1.2,2.84-2.41.13-3.74-2.47-1.21-4.46-.83-5.89,1.64,2.51-9.36,5.12-18.69,6.61-28.3.27-1.69.24-2.3-1.54-2.1Z"/><path id="Path_255-3" data-name="Path 255-3" d="M37.39,347.05l-3.73,1.17c-.76-6.23,2-11.31,3.83-16.77,1.53,1.18.11,2.2.3,3.19,4.37-1.41,8.51-1.44,12.11,1.94A42.18,42.18,0,0,0,37.39,347.05Zm8.49-11.15c-5.22,1.3-8.19,4.86-10.36,9.25Z"/><path id="Path_256-3" data-name="Path 256-3" d="M37.39,347.05A42.18,42.18,0,0,1,49.9,336.58c5,4.68,5,6.25.09,12.8l-.37-.34c.82-2,1.72-4,2.43-6.1a2.5,2.5,0,0,0-.64-3,2.6,2.6,0,0,0-3.12.19c-2.6,1.8-5.16,3.66-7.78,5.43C39.56,346.17,39,347.77,37.39,347.05Z"/><path id="Path_257-3" data-name="Path 257-3" d="M25.89,317.07c-1.22,4.31-4.91,6.65-7.76,9.65-1.62,1.7-3.32,3.32-5,5l-7.06,5.92.34.33Z"/><path id="Path_258-3" data-name="Path 258-3" d="M50.32,291c4.21-2.67,6.77-7.3,12.32-10.14L49.88,295.76l-1.19-2Z"/><path id="Path_259-3" data-name="Path 259-3" d="M11.53,351.54q-.87,6.21-1.75,12.42l0,.18C6,366.68,3.37,370.22,0,374.45c.72-3.47,2.6-5.12,4.24-6.78C6.92,365,9.31,362.42,9.13,358A8.65,8.65,0,0,1,11.53,351.54Z"/><path id="Path_260-3" data-name="Path 260-3" d="M13.67,332.27l2-.34a55.34,55.34,0,0,0-5.28,5.68c-1.25,1.77.86.56,1.22,1-2.62,2.91-5.88,5.2-8.19,8.44C4.45,340.47,10,337,13.67,332.27Z"/><path id="Path_261-3" data-name="Path 261-3" d="M50,349.38c-3.08,6.2-6.65,12.18-8.43,19A36.24,36.24,0,0,1,49.62,349Z"/><path id="Path_262-3" data-name="Path 262-3" d="M50.32,291l-1.63,2.76-1.78-.15c2.17-6.06,7.69-9.07,12-13.23C56.52,284.34,52.3,286.78,50.32,291Z"/><path id="Path_263-3" data-name="Path 263-3" d="M46.9,293.63l1.79.15,1.18,2c-1.54,1.17-3,4.33-4.16-.58-.73-3-3.47-.77-6.11.38C42,290.87,44.39,291.76,46.9,293.63Z"/><path id="Path_264-3" data-name="Path 264-3" d="M12.91,327c3.72-4.81,8.72-8.36,12.66-13C22.5,319.51,17.77,323.33,12.91,327Z"/><path id="Path_265-3" data-name="Path 265-3" d="M11.4,338.76c4.72-3.82,8.1-9.27,14.05-11.59-3.19,3.07-6.35,6.19-9.59,9.21C14.61,337.54,13.37,338.88,11.4,338.76Z"/><path id="Path_266-3" data-name="Path 266-3" d="M8.62,385.66l11.23-10.1C17.76,378.68,13.19,382.22,8.62,385.66Z"/><path id="Path_267-3" data-name="Path 267-3" d="M39.24,357.6a2.82,2.82,0,0,0-.31-3.76,13.74,13.74,0,0,1,6.35-5.54C42.82,351.15,43.15,355.65,39.24,357.6Z"/><path id="Path_268-3" data-name="Path 268-3" d="M39.68,310.88h2.55c-.17.84-1.28,1.42-.79,2.59,2.18-.71,3-2.93,5.76-4.62a16.86,16.86,0,0,1-7.66,7.56C39.54,314.48,40.85,312.69,39.68,310.88Z"/></g><g id="Group_261" data-name="Group 261"><path id="Path_252-4" data-name="Path 252-4" d="M8.9,507.05c.28-.91.56-1.81.83-2.72l0-.17a3.44,3.44,0,0,0,1.8-3.44c0-5.51,2.24-10.36,5.06-15,0,3-1.77,5.41-2.57,8.13s-2.32,5.72.38,9.19c.73-4.54,1-8.45,2.42-12.18s2.39-7.85,3.67-11.75c.59-1.82-.29-1.88-1.62-1.65,1.74-2.55,4.36-3.91,7-5.25l-.09-.08a68.5,68.5,0,0,1-4.4,16.51c-1.19,3-2.59,6-1.92,9.19.46,2.18-.25,3.44-1.19,5.16-3,5.5-7.44,10.11-9.54,16.12-2.26,1.63-4.88,2.7-6.68,5.05-.95,1.25-1-.15-1-.84A59.35,59.35,0,0,0,16.2,503l-3.73,2.78C11,505.48,10.15,506.8,8.9,507.05ZM19,488.67c3.66-5.08,4.9-9.73,4-14Z"/><path id="Path_253-4" data-name="Path 253-4" d="M39.82,450.29c-1.69-1.24-3.39-2.48-5.55-.94-2,1.39-2.2,3.45-1.85,5.52.77,4.56-.3,8.11-4.85,10A27,27,0,0,0,30.21,461c.72-1.58.34-2.53-1.58-1.36.89-1.31,3.23-1.85,2.38-4.07-.54-1.42-1.59-1.27-2.61-.37,2-1.47,3.08-3.06,2.86-5.88-.25-3.32,6.48-8.22,9.44-7.45,1,.27,2,2.27,3.16.45.65-1,.09-2.17-.8-3a2.05,2.05,0,0,0-2.9-.31,1.81,1.81,0,0,0-.4.43c-.39.42-.66,1.14-1.54.6-.42-2.07,1.09-2.65,2.62-3.15a2.7,2.7,0,0,1,3.48,1.56l0,.09c.87,1.92,1.63,2.62,3.45.82.58-.58,2-1.43,2.93-.16.63.9-.18,1.77-.74,2.53-2.43,3.32-4.72,6.76-7.89,9.46-.11-2,1.16-3.9.06-6a3.23,3.23,0,0,0-3.36-2,3.27,3.27,0,0,0-3.17,2.35c-.55,2.06,1.51,1.46,2.38,2.06A4.16,4.16,0,0,1,39.82,450.29Z"/><path id="Path_254-4" data-name="Path 254-4" d="M25.93,472.24c-.19-1.94,1.39-2.11,2.9-2.89-.34,8-2.53,15.34-4.28,22.77-.53,2.23-1.82,4.88.55,6.64,2.64,2,5.51.82,8-.64,2.05-1.18,3.89-2.71,5.81-4.08,1.17,1.16,1.06,2.43.31,3.76.61,2.09-1.48,2.53-2.29,3.76-1.47-1.32,1-2.55,0-3.88a.9.9,0,0,0-1.22.42,1.06,1.06,0,0,0-.09.36c-.56,4.29-2.92,6.87-7.18,7.51-.46.07-2.71,1.24-2-1.31.35-1.2,2.84-2.41.13-3.74-2.47-1.21-4.46-.83-5.89,1.64,2.51-9.36,5.12-18.69,6.61-28.3.27-1.69.24-2.3-1.54-2.1Z"/><path id="Path_255-4" data-name="Path 255-4" d="M37.39,487.25l-3.73,1.17c-.76-6.23,2-11.31,3.83-16.77,1.53,1.18.11,2.2.3,3.19,4.37-1.41,8.51-1.44,12.11,1.94A42.18,42.18,0,0,0,37.39,487.25Zm8.49-11.15c-5.22,1.3-8.19,4.86-10.36,9.25Z"/><path id="Path_256-4" data-name="Path 256-4" d="M37.39,487.25A42.18,42.18,0,0,1,49.9,476.78c5,4.68,5,6.25.09,12.8l-.37-.34c.82-2,1.72-4,2.43-6.1a2.5,2.5,0,0,0-.64-3,2.6,2.6,0,0,0-3.12.19c-2.6,1.8-5.16,3.66-7.78,5.43C39.56,486.37,39,488,37.39,487.25Z"/><path id="Path_257-4" data-name="Path 257-4" d="M25.89,457.27c-1.22,4.31-4.91,6.65-7.76,9.65-1.62,1.7-3.32,3.32-5,5l-7.06,5.92.34.33Z"/><path id="Path_258-4" data-name="Path 258-4" d="M50.32,431.22c4.21-2.67,6.77-7.3,12.32-10.14L49.88,436l-1.19-2Z"/><path id="Path_259-4" data-name="Path 259-4" d="M11.53,491.74q-.87,6.21-1.75,12.42l0,.18C6,506.88,3.37,510.42,0,514.65c.72-3.47,2.6-5.12,4.24-6.78,2.68-2.72,5.07-5.25,4.89-9.64A8.65,8.65,0,0,1,11.53,491.74Z"/><path id="Path_260-4" data-name="Path 260-4" d="M13.67,472.47l2-.34a55.34,55.34,0,0,0-5.28,5.68c-1.25,1.77.86.56,1.22,1C9,481.72,5.71,484,3.4,487.25,4.45,480.67,10,477.19,13.67,472.47Z"/><path id="Path_261-4" data-name="Path 261-4" d="M50,489.58c-3.08,6.2-6.65,12.18-8.43,19a36.24,36.24,0,0,1,8.06-19.31Z"/><path id="Path_262-4" data-name="Path 262-4" d="M50.32,431.22,48.69,434l-1.78-.15c2.17-6.06,7.69-9.07,12-13.23C56.52,424.54,52.3,427,50.32,431.22Z"/><path id="Path_263-4" data-name="Path 263-4" d="M46.9,433.83l1.79.15,1.18,2c-1.54,1.17-3,4.33-4.16-.58-.73-3-3.47-.77-6.11.38C42,431.07,44.39,432,46.9,433.83Z"/><path id="Path_264-4" data-name="Path 264-4" d="M12.91,467.22c3.72-4.81,8.72-8.36,12.66-13C22.5,459.71,17.77,463.53,12.91,467.22Z"/><path id="Path_265-4" data-name="Path 265-4" d="M11.4,479c4.72-3.82,8.1-9.27,14.05-11.59-3.19,3.07-6.35,6.19-9.59,9.21C14.61,477.74,13.37,479.08,11.4,479Z"/><path id="Path_266-4" data-name="Path 266-4" d="M8.62,525.86l11.23-10.1C17.76,518.88,13.19,522.42,8.62,525.86Z"/><path id="Path_267-4" data-name="Path 267-4" d="M39.24,497.8a2.82,2.82,0,0,0-.31-3.76,13.81,13.81,0,0,1,6.35-5.55C42.82,491.35,43.15,495.85,39.24,497.8Z"/><path id="Path_268-4" data-name="Path 268-4" d="M39.68,451.08h2.55c-.17.84-1.28,1.42-.79,2.59,2.18-.71,3-2.93,5.76-4.62a16.86,16.86,0,0,1-7.66,7.56C39.54,454.68,40.85,452.89,39.68,451.08Z"/></g><g id="Group_262" data-name="Group 262"><path id="Path_252-5" data-name="Path 252-5" d="M8.9,86.45c.28-.91.56-1.81.83-2.72l0-.17a3.44,3.44,0,0,0,1.8-3.44c0-5.51,2.24-10.36,5.06-15,0,3-1.77,5.41-2.57,8.13s-2.32,5.72.38,9.19c.73-4.54,1-8.45,2.42-12.18s2.39-7.85,3.67-11.75c.59-1.82-.29-1.88-1.62-1.65,1.74-2.55,4.36-3.91,7-5.25l-.09-.08a68.5,68.5,0,0,1-4.4,16.51c-1.19,3-2.59,6-1.92,9.19.46,2.18-.25,3.44-1.19,5.16-3,5.5-7.44,10.11-9.54,16.12-2.26,1.63-4.88,2.7-6.68,5-.95,1.25-1-.15-1-.84A59.35,59.35,0,0,0,16.2,82.43l-3.73,2.78C11,84.88,10.15,86.2,8.9,86.45ZM19,68.07c3.66-5.08,4.9-9.73,4-14Z"/><path id="Path_253-5" data-name="Path 253-5" d="M39.82,29.69c-1.69-1.24-3.39-2.48-5.55-.94-2,1.39-2.2,3.45-1.85,5.52.77,4.56-.3,8.11-4.85,10a27,27,0,0,0,2.64-3.87c.72-1.58.34-2.53-1.58-1.36.89-1.31,3.23-1.85,2.38-4.07-.54-1.42-1.59-1.27-2.61-.37,2-1.47,3.08-3.06,2.86-5.88-.25-3.32,6.48-8.22,9.44-7.45,1,.27,2,2.27,3.16.45.65-1,.09-2.17-.8-3a2.05,2.05,0,0,0-2.9-.31,1.81,1.81,0,0,0-.4.43c-.39.42-.66,1.14-1.54.6-.42-2.07,1.09-2.65,2.62-3.15a2.7,2.7,0,0,1,3.48,1.56l0,.09c.87,1.92,1.63,2.62,3.45.82.58-.58,2-1.43,2.93-.16.63.9-.18,1.77-.74,2.53-2.43,3.32-4.72,6.76-7.89,9.46-.11-2,1.16-3.9.06-6a3.23,3.23,0,0,0-3.36-2,3.27,3.27,0,0,0-3.17,2.35c-.55,2.06,1.51,1.46,2.38,2.06A4.16,4.16,0,0,1,39.82,29.69Z"/><path id="Path_254-5" data-name="Path 254-5" d="M25.93,51.64c-.19-1.94,1.39-2.11,2.9-2.89-.34,8-2.53,15.34-4.28,22.77-.53,2.23-1.82,4.88.55,6.64,2.64,2,5.51.82,8-.64,2.05-1.18,3.89-2.71,5.81-4.08,1.17,1.16,1.06,2.43.31,3.76.61,2.09-1.48,2.53-2.29,3.76-1.47-1.32,1-2.55,0-3.88a.9.9,0,0,0-1.22.42,1.06,1.06,0,0,0-.09.36c-.56,4.29-2.92,6.87-7.18,7.51-.46.07-2.71,1.24-2-1.31.35-1.2,2.84-2.41.13-3.74-2.47-1.21-4.46-.83-5.89,1.64,2.51-9.36,5.12-18.69,6.61-28.3.27-1.69.24-2.3-1.54-2.1Z"/><path id="Path_255-5" data-name="Path 255-5" d="M37.39,66.65l-3.73,1.17c-.76-6.23,2-11.31,3.83-16.77,1.53,1.18.11,2.21.3,3.19,4.37-1.41,8.51-1.44,12.11,1.94A42.18,42.18,0,0,0,37.39,66.65ZM45.88,55.5c-5.22,1.3-8.19,4.86-10.36,9.25Z"/><path id="Path_256-5" data-name="Path 256-5" d="M37.39,66.65A42.18,42.18,0,0,1,49.9,56.18c5,4.68,5,6.25.09,12.8l-.37-.34c.82-2,1.72-4,2.43-6.1a2.5,2.5,0,0,0-.64-3,2.6,2.6,0,0,0-3.12.19c-2.6,1.8-5.16,3.66-7.78,5.43C39.56,65.77,39,67.37,37.39,66.65Z"/><path id="Path_257-5" data-name="Path 257-5" d="M25.89,36.67C24.67,41,21,43.32,18.13,46.32c-1.62,1.7-3.32,3.32-5,5L6.09,57.22l.34.33Z"/><path id="Path_258-5" data-name="Path 258-5" d="M50.32,10.63C54.53,8,57.09,3.32,62.64.48L49.88,15.36l-1.19-2Z"/><path id="Path_259-5" data-name="Path 259-5" d="M11.53,71.14q-.87,6.21-1.75,12.42l0,.18C6,86.28,3.37,89.82,0,94.05c.72-3.47,2.6-5.12,4.24-6.78C6.92,84.55,9.31,82,9.13,77.63A8.65,8.65,0,0,1,11.53,71.14Z"/><path id="Path_260-5" data-name="Path 260-5" d="M13.67,51.87l2-.34a55.34,55.34,0,0,0-5.28,5.68c-1.25,1.77.86.56,1.22,1C9,61.12,5.71,63.41,3.4,66.65,4.45,60.07,10,56.59,13.67,51.87Z"/><path id="Path_261-5" data-name="Path 261-5" d="M50,69c-3.08,6.2-6.65,12.18-8.43,19a36.24,36.24,0,0,1,8.06-19.31Z"/><path id="Path_262-5" data-name="Path 262-5" d="M50.32,10.63l-1.63,2.75-1.78-.15C49.08,7.17,54.6,4.16,58.89,0,56.52,4,52.3,6.38,50.32,10.63Z"/><path id="Path_263-5" data-name="Path 263-5" d="M46.9,13.23l1.79.15,1.18,2c-1.54,1.17-3,4.33-4.16-.58-.73-3-3.47-.77-6.11.38C42,10.47,44.39,11.36,46.9,13.23Z"/><path id="Path_264-5" data-name="Path 264-5" d="M12.91,46.63c3.72-4.82,8.72-8.37,12.66-13C22.5,39.11,17.77,42.93,12.91,46.63Z"/><path id="Path_265-5" data-name="Path 265-5" d="M11.4,58.36c4.72-3.82,8.1-9.27,14.05-11.59C22.26,49.84,19.1,53,15.86,56,14.61,57.14,13.37,58.48,11.4,58.36Z"/><path id="Path_266-5" data-name="Path 266-5" d="M8.62,105.26l11.23-10.1C17.76,98.28,13.19,101.82,8.62,105.26Z"/><path id="Path_267-5" data-name="Path 267-5" d="M39.24,77.2a2.82,2.82,0,0,0-.31-3.76,13.74,13.74,0,0,1,6.35-5.54C42.82,70.75,43.15,75.25,39.24,77.2Z"/><path id="Path_268-5" data-name="Path 268-5" d="M39.68,30.49l2.55,0c-.17.84-1.28,1.42-.79,2.59,2.18-.71,3-2.93,5.76-4.62A16.86,16.86,0,0,1,39.54,36C39.54,34.08,40.85,32.29,39.68,30.49Z"/></g><g id="Group_263" data-name="Group 263"><path id="Path_252-6" data-name="Path 252-6" d="M8.9,226.65c.28-.91.56-1.81.83-2.72l0-.17a3.44,3.44,0,0,0,1.8-3.44c0-5.51,2.24-10.36,5.06-15,0,3-1.77,5.41-2.57,8.13s-2.32,5.72.38,9.19c.73-4.54,1-8.45,2.42-12.18s2.39-7.85,3.67-11.75c.59-1.82-.29-1.88-1.62-1.65,1.74-2.55,4.36-3.91,7-5.25l-.09-.08a68.5,68.5,0,0,1-4.4,16.51c-1.19,3-2.59,6-1.92,9.19.46,2.18-.25,3.44-1.19,5.16-3,5.5-7.44,10.11-9.54,16.12-2.26,1.63-4.88,2.7-6.68,5-.95,1.25-1-.15-1-.84A59.35,59.35,0,0,0,16.2,222.63l-3.73,2.78C11,225.08,10.15,226.4,8.9,226.65ZM19,208.27c3.66-5.08,4.9-9.73,4-14Z"/><path id="Path_253-6" data-name="Path 253-6" d="M39.82,169.89c-1.69-1.24-3.39-2.48-5.55-.94-2,1.39-2.2,3.45-1.85,5.52.77,4.56-.3,8.11-4.85,10a27,27,0,0,0,2.64-3.87c.72-1.58.34-2.53-1.58-1.36.89-1.31,3.23-1.85,2.38-4.07-.54-1.42-1.59-1.27-2.61-.37,2-1.47,3.08-3.06,2.86-5.88-.25-3.32,6.48-8.22,9.44-7.45,1,.27,2,2.27,3.16.45.65-1,.09-2.17-.8-3a2.05,2.05,0,0,0-2.9-.31,1.81,1.81,0,0,0-.4.43c-.39.42-.66,1.14-1.54.6-.42-2.07,1.09-2.65,2.62-3.15a2.7,2.7,0,0,1,3.48,1.56l0,.09c.87,1.92,1.63,2.62,3.45.82.58-.58,2-1.43,2.93-.16.63.9-.18,1.77-.74,2.53-2.43,3.32-4.72,6.76-7.89,9.46-.11-2,1.16-3.9.06-6a3.23,3.23,0,0,0-3.36-2,3.27,3.27,0,0,0-3.17,2.35c-.55,2.06,1.51,1.46,2.38,2.06A4.16,4.16,0,0,1,39.82,169.89Z"/><path id="Path_254-6" data-name="Path 254-6" d="M25.93,191.84c-.19-1.94,1.39-2.11,2.9-2.89-.34,8-2.53,15.34-4.28,22.77-.53,2.23-1.82,4.88.55,6.64,2.64,2,5.51.82,8-.64,2.05-1.18,3.89-2.71,5.81-4.08,1.17,1.16,1.06,2.43.31,3.76.61,2.09-1.48,2.53-2.29,3.76-1.47-1.32,1-2.55,0-3.88a.9.9,0,0,0-1.22.42,1.06,1.06,0,0,0-.09.36c-.56,4.29-2.92,6.87-7.18,7.51-.46.07-2.71,1.24-2-1.31.35-1.2,2.84-2.41.13-3.74-2.47-1.21-4.46-.83-5.89,1.64,2.51-9.36,5.12-18.69,6.61-28.3.27-1.69.24-2.3-1.54-2.1Z"/><path id="Path_255-6" data-name="Path 255-6" d="M37.39,206.85,33.66,208c-.76-6.23,2-11.31,3.83-16.77,1.53,1.18.11,2.2.3,3.19C42.16,193,46.3,193,49.9,196.38A42.18,42.18,0,0,0,37.39,206.85Zm8.49-11.15c-5.22,1.3-8.19,4.86-10.36,9.25Z"/><path id="Path_256-6" data-name="Path 256-6" d="M37.39,206.85A42.18,42.18,0,0,1,49.9,196.38c5,4.68,5,6.25.09,12.8l-.37-.34c.82-2,1.72-4,2.43-6.1a2.5,2.5,0,0,0-.64-3,2.6,2.6,0,0,0-3.12.19c-2.6,1.8-5.16,3.66-7.78,5.43C39.56,206,39,207.57,37.39,206.85Z"/><path id="Path_257-6" data-name="Path 257-6" d="M25.89,176.87c-1.22,4.31-4.91,6.65-7.76,9.65-1.62,1.7-3.32,3.32-5,5l-7.06,5.92.34.33Z"/><path id="Path_258-6" data-name="Path 258-6" d="M50.32,150.83c4.21-2.68,6.77-7.31,12.32-10.15L49.88,155.56l-1.19-2Z"/><path id="Path_259-6" data-name="Path 259-6" d="M11.53,211.34q-.87,6.21-1.75,12.42l0,.18C6,226.48,3.37,230,0,234.25c.72-3.47,2.6-5.12,4.24-6.78,2.68-2.72,5.07-5.25,4.89-9.64A8.65,8.65,0,0,1,11.53,211.34Z"/><path id="Path_260-6" data-name="Path 260-6" d="M13.67,192.07l2-.34a55.34,55.34,0,0,0-5.28,5.68c-1.25,1.77.86.56,1.22,1-2.62,2.91-5.88,5.2-8.19,8.44C4.45,200.27,10,196.79,13.67,192.07Z"/><path id="Path_261-6" data-name="Path 261-6" d="M50,209.18c-3.08,6.2-6.65,12.18-8.43,19a36.24,36.24,0,0,1,8.06-19.31Z"/><path id="Path_262-6" data-name="Path 262-6" d="M50.32,150.83l-1.63,2.75-1.78-.15c2.17-6.06,7.69-9.07,12-13.23C56.52,144.14,52.3,146.58,50.32,150.83Z"/><path id="Path_263-6" data-name="Path 263-6" d="M46.9,153.43l1.79.15,1.18,2c-1.54,1.17-3,4.33-4.16-.58-.73-3-3.47-.77-6.11.38C42,150.67,44.39,151.56,46.9,153.43Z"/><path id="Path_264-6" data-name="Path 264-6" d="M12.91,186.82c3.72-4.81,8.72-8.36,12.66-13C22.5,179.31,17.77,183.13,12.91,186.82Z"/><path id="Path_265-6" data-name="Path 265-6" d="M11.4,198.56c4.72-3.82,8.1-9.27,14.05-11.59-3.19,3.07-6.35,6.19-9.59,9.21C14.61,197.34,13.37,198.68,11.4,198.56Z"/><path id="Path_266-6" data-name="Path 266-6" d="M8.62,245.46l11.23-10.1C17.76,238.48,13.19,242,8.62,245.46Z"/><path id="Path_267-6" data-name="Path 267-6" d="M39.24,217.4a2.82,2.82,0,0,0-.31-3.76,13.74,13.74,0,0,1,6.35-5.54C42.82,211,43.15,215.45,39.24,217.4Z"/><path id="Path_268-6" data-name="Path 268-6" d="M39.68,170.68h2.55c-.17.84-1.28,1.42-.79,2.59,2.18-.71,3-2.93,5.76-4.62a16.86,16.86,0,0,1-7.66,7.56C39.54,174.28,40.85,172.49,39.68,170.68Z"/></g></g></g></svg>