<svg xmlns="http://www.w3.org/2000/svg" viewBox="0 0 941.4 477"><defs><style>.cls-1{isolation:isolate;}</style></defs><title>Asset 87colophon</title><g id="Layer_2" data-name="Layer 2"><g id="Layer_1-2" data-name="Layer 1"><g id="To_learn_more_about_this_project_visit_the_author_s_site_or_the_GitHub_repository." data-name="To learn more about this project visit the author s site or the GitHub repository." class="cls-1"><g class="cls-1"><path d="M4.81,19.73H7.05l.15-.15V4.39H2.9L.57,8.67H0V2.3H18.12V8.67h-.57l-2.3-4.28H10.94V19.58l.15.15h2.24v2H4.81Z"/><path d="M17.37,15.69c0-3.94,2.63-7,6.51-7,3.5,0,6.16,2.42,6.16,6.48S27.32,22,23.53,22,17.37,19.52,17.37,15.69Zm9,.69c0-3.41-1.32-5.8-3.11-5.8C21.88,10.58,21,12,21,14.47c0,3.41,1.31,5.8,3.1,5.8C25.53,20.27,26.4,18.83,26.4,16.38Z"/><path d="M37.4,19.82h1.34l.15-.15V4.16L37,3V2.6L41.91.21l.42.21V19.67l.15.15h1.34v1.91H37.4Z"/><path d="M56,19.25l.57,1.05A7.74,7.74,0,0,1,51.71,22a6.1,6.1,0,0,1-6.3-6.43c0-3.85,2.63-6.87,6.3-6.87a4.69,4.69,0,0,1,4.94,5,8,8,0,0,1-.15,1.61H49.08c.21,2.87,1.59,4.64,4,4.64A6.38,6.38,0,0,0,56,19.25Zm-6.88-5.44h4.25c-.06-2.51-.81-3.35-2-3.35S49.2,11.63,49.08,13.81Z"/><path d="M69.77,19.82v1.91H64.84v-1a6.82,6.82,0,0,1-3.71,1.37,2.74,2.74,0,0,1-3-3c0-2.24,1.5-4,6.67-4.51v-.54c0-2-.69-3.08-2.42-3.08a5.85,5.85,0,0,0-3.14,1.11l-.57-1.14a7,7,0,0,1,5.17-2.21c3.14,0,4.4,1.79,4.4,5.11v5.83l.14.15Zm-4.93-.18V16.05c-2.33.21-3.29.87-3.32,2.21a1.5,1.5,0,0,0,1.7,1.65A6.53,6.53,0,0,0,64.84,19.64Z"/><path d="M76.14,12.29v7.38l.15.15h1.79v1.91H71.21V19.82h1.34l.15-.15V12.43l-1.91-1.16v-.39l4.48-2.3.39.21.39,2.15C77.51,9.6,78.86,8.73,80,8.73a2.13,2.13,0,0,1,.87.15v3.85a13.92,13.92,0,0,0-3.74-.5C76.8,12.23,76.47,12.26,76.14,12.29Z"/><path d="M96.58,19.85v1.88H90.16V19.82H91.5l.15-.15V14.35c0-2.39-.69-3-2.39-3a9.2,9.2,0,0,0-2.3.36v8l.15.15h1.34v1.91H82V19.82h1.34l.15-.15V12.41l-1.91-1.17v-.39l4.48-2.3.39.21.36,1.76c1.76-1.16,3-1.79,4.63-1.79,2.13,0,3.62,1,3.62,3.5v7.44l.15.18Z"/><path d="M125.79,19.82v1.91h-6.43V19.82h1.35l.15-.15V14.35c0-2.3-.6-3-1.89-3a9.44,9.44,0,0,0-2.51.36l0-.06a7.36,7.36,0,0,1,.06.83v7.24l.15.15H118v1.91h-6.43V19.82h1.35l.14-.15V14.35c0-2.3-.59-3-1.91-3a9.44,9.44,0,0,0-2.51.36v8l.15.15h1.35v1.91H103.7V19.82H105l.15-.15V12.41l-1.91-1.17v-.39l4.48-2.3.39.21.36,1.76c1.68-1.1,2.9-1.79,4.43-1.79a3.2,3.2,0,0,1,3.22,1.91c1.77-1.16,3-1.91,4.64-1.91,2.3,0,3.49,1.4,3.49,3.65v7.29l.15.15Z"/><path d="M127.25,15.69c0-3.94,2.64-7,6.52-7,3.5,0,6.16,2.42,6.16,6.48S137.21,22,133.41,22C129.77,22,127.25,19.52,127.25,15.69Zm9,.69c0-3.41-1.31-5.8-3.11-5.8-1.4,0-2.27,1.44-2.27,3.89,0,3.41,1.32,5.8,3.11,5.8C135.42,20.27,136.28,18.83,136.28,16.38Z"/><path d="M146.62,12.29v7.38l.15.15h1.8v1.91h-6.88V19.82H143l.15-.15V12.43l-1.92-1.16v-.39l4.49-2.3.39.21.39,2.15c1.46-1.34,2.81-2.21,3.94-2.21a2.13,2.13,0,0,1,.87.15v3.85a14,14,0,0,0-3.74-.5C147.28,12.23,147,12.26,146.62,12.29Z"/><path d="M163.1,19.25l.57,1.05A7.74,7.74,0,0,1,158.85,22a6.11,6.11,0,0,1-6.31-6.43c0-3.85,2.64-6.87,6.31-6.87a4.68,4.68,0,0,1,4.93,5,8,8,0,0,1-.15,1.61h-7.41c.21,2.87,1.59,4.64,4,4.64A6.41,6.41,0,0,0,163.1,19.25Zm-6.88-5.44h4.25c-.06-2.51-.81-3.35-2-3.35S156.34,11.63,156.22,13.81Z"/><path d="M182.59,19.82v1.91h-4.93v-1A6.85,6.85,0,0,1,174,22.06a2.73,2.73,0,0,1-3-3c0-2.24,1.49-4,6.67-4.51v-.54c0-2-.69-3.08-2.43-3.08a5.9,5.9,0,0,0-3.14,1.11l-.56-1.14a7,7,0,0,1,5.17-2.21c3.14,0,4.39,1.79,4.39,5.11v5.83l.15.15Zm-4.93-.18V16.05c-2.34.21-3.29.87-3.32,2.21a1.5,1.5,0,0,0,1.7,1.65A6.53,6.53,0,0,0,177.66,19.64Z"/><path d="M197.35,14.83a7,7,0,0,1-7.17,7.2,11.71,11.71,0,0,1-5-1V4.16L183.3,3V2.6l5-2.39.39.21V10.58c1.43-1.16,2.51-1.85,4.12-1.85C195.41,8.73,197.35,11.33,197.35,14.83Zm-3.64.89c0-3-1.17-4.42-2.93-4.42a8.68,8.68,0,0,0-2.12.27V19a2.84,2.84,0,0,0,2.3,1.2C192.81,20.24,193.71,18.59,193.71,15.72Z"/><path d="M199.3,15.69c0-3.94,2.63-7,6.51-7,3.5,0,6.16,2.42,6.16,6.48S209.25,22,205.46,22,199.3,19.52,199.3,15.69Zm9,.69c0-3.41-1.32-5.8-3.11-5.8-1.41,0-2.27,1.44-2.27,3.89,0,3.41,1.31,5.8,3.1,5.8C207.46,20.27,208.33,18.83,208.33,16.38Z"/><path d="M227.82,19.82v1.91h-4.91V19.94c-1.46,1.22-2.66,2.09-4.39,2.09-2.24,0-3.44-1.26-3.44-3.53V12.67l-1.91-1.19v-.36l4.93-2.39.42.21v7.68c0,2.12.69,2.78,2.33,2.78a7.37,7.37,0,0,0,2.06-.3V12.46L221,11.27v-.36l4.93-2.39.42.21V19.67l.12.15Z"/><path d="M230.39,18.11V11.24l-.15-.15h-1.68V10.7l4.88-5.08h.38V9.18h4v1.91h-4v5.59c0,2.39.45,3.23,1.65,3.23a5.2,5.2,0,0,0,2.21-.66l.57,1.05A7.1,7.1,0,0,1,233.76,22C231.61,22,230.39,21,230.39,18.11Z"/><path d="M246.14,18.11V11.24l-.15-.15h-1.67V10.7l4.87-5.08h.39V9.18h4v1.91h-4v5.59c0,2.39.45,3.23,1.64,3.23a5.16,5.16,0,0,0,2.21-.66L254,20.3A7.07,7.07,0,0,1,249.52,22C247.37,22,246.14,21,246.14,18.11Z"/><path d="M269.58,19.82v1.91h-6.43V19.82h1.34l.15-.15V14.35c0-2.39-.68-3-2.39-3a9.2,9.2,0,0,0-2.3.36v8l.15.15h1.35v1.91H255V19.82h1.34l.15-.15V4.16L254.6,3V2.6L259.53.21l.42.21v10c1.7-1.1,2.93-1.73,4.51-1.73,2.13,0,3.62,1,3.62,3.5v7.44l.15.15Z"/><path d="M271.07,19.82h1.35l.15-.15V12.43l-1.92-1.19v-.36l5-2.36.38.18v11l.15.15h1.35v1.91h-6.43Zm1-15.55a2.08,2.08,0,1,1,2.09,2.1A2.07,2.07,0,0,1,272.09,4.27Z"/><path d="M279.14,21v-4.3h.39l1.64,2a3.62,3.62,0,0,0,2.7,1.53c1.1,0,1.55-.57,1.55-1.26,0-1.25-1.55-1.64-3.05-2.51-2.27-1.32-3.2-2.36-3.2-4.18,0-2.28,2-3.62,5-3.62a9.67,9.67,0,0,1,3.53.63v4h-.39l-1.73-2.06a2.78,2.78,0,0,0-1.88-.87c-.93,0-1.41.54-1.41,1.17,0,1.1,1.26,1.7,2.87,2.51,2.3,1.16,3.38,2.24,3.38,4,0,2.43-1.79,3.89-4.87,3.89A11.75,11.75,0,0,1,279.14,21Z"/><path d="M309.15,15c0,3.94-2.69,7-6.45,7a5.3,5.3,0,0,1-2.24-.45v5l.14.15h1.8v1.92h-6.88V26.69h1.35l.15-.15V12.43l-1.92-1.16v-.39l4.49-2.3.39.21.39,1.85c1.43-1.1,2.69-1.91,4.21-1.91C307.21,8.73,309.15,11.3,309.15,15Zm-3.64.8c0-3-1.17-4.51-2.93-4.51a8.68,8.68,0,0,0-2.12.27V18.8a2.65,2.65,0,0,0,2.36,1.44C304.61,20.24,305.51,18.53,305.51,15.81Z"/><path d="M316,12.29v7.38l.15.15h1.79v1.91h-6.87V19.82h1.34l.15-.15V12.43l-1.91-1.16v-.39l4.48-2.3.39.21.39,2.15c1.47-1.34,2.81-2.21,3.95-2.21a2.08,2.08,0,0,1,.86.15v3.85a13.9,13.9,0,0,0-3.73-.5C316.66,12.23,316.33,12.26,316,12.29Z"/><path d="M321.92,15.69c0-3.94,2.63-7,6.52-7,3.49,0,6.15,2.42,6.15,6.48S331.87,22,328.08,22,321.92,19.52,321.92,15.69Zm9,.69c0-3.41-1.32-5.8-3.11-5.8-1.41,0-2.27,1.44-2.27,3.89,0,3.41,1.31,5.8,3.1,5.8C330.08,20.27,331,18.83,331,16.38Z"/><path d="M334.83,27.62c2-.84,2.9-1.88,2.9-4.63V12.43l-1.91-1.19v-.36l5-2.36.39.18V21.79c0,4.28-2.3,6.19-5.86,6.73ZM337.4,4.27a2.08,2.08,0,1,1,2.1,2.1A2.08,2.08,0,0,1,337.4,4.27Z"/><path d="M354.53,19.25l.57,1.05A7.71,7.71,0,0,1,350.29,22,6.11,6.11,0,0,1,344,15.6c0-3.85,2.63-6.87,6.31-6.87a4.68,4.68,0,0,1,4.93,5,8,8,0,0,1-.15,1.61h-7.41c.21,2.87,1.58,4.64,4,4.64A6.35,6.35,0,0,0,354.53,19.25Zm-6.87-5.44h4.24c-.06-2.51-.81-3.35-2-3.35S347.78,11.63,347.66,13.81Z"/><path d="M356.86,15.69c0-3.91,2.6-7,6.79-7a10.19,10.19,0,0,1,3.5.66V14.2h-.39l-2.27-3a2.45,2.45,0,0,0-1.65-.69c-1.52,0-2.33,1.44-2.33,4.1,0,3.73,1.94,5.41,4,5.41a4.9,4.9,0,0,0,2.6-.72l.57,1.05A7,7,0,0,1,363,22C359.26,22,356.86,19.52,356.86,15.69Z"/><path d="M370.11,18.11V11.24l-.15-.15h-1.68V10.7l4.88-5.08h.38V9.18h4v1.91h-4v5.59c0,2.39.45,3.23,1.65,3.23a5.2,5.2,0,0,0,2.21-.66L378,20.3A7.09,7.09,0,0,1,373.49,22C371.33,22,370.11,21,370.11,18.11Z"/><path d="M384.31,20.54a6.57,6.57,0,0,1-4.46,5.94l-.65-1.22a3.87,3.87,0,0,0,2.54-3.11,2.24,2.24,0,0,1,.33-4.45C383.32,17.7,384.31,18.74,384.31,20.54Z"/><path d="M393.18,11.24,391.36,9.6V9.18h7.23v.39l-1.67,1.67,2.75,6.43h.09l3-6.43L401.05,9.6V9.18h5.59v.39l-1.83,1.67L399.64,22h-1.37Z"/><path d="M407.26,19.82h1.35l.15-.15V12.43l-1.91-1.19v-.36l5-2.36.39.18v11l.15.15h1.34v1.91h-6.43Zm1-15.55a2.08,2.08,0,1,1,2.09,2.1A2.08,2.08,0,0,1,408.28,4.27Z"/><path d="M415.33,21v-4.3h.39l1.65,2a3.61,3.61,0,0,0,2.69,1.53c1.1,0,1.55-.57,1.55-1.26,0-1.25-1.55-1.64-3.05-2.51-2.27-1.32-3.19-2.36-3.19-4.18,0-2.28,2-3.62,5-3.62a9.65,9.65,0,0,1,3.52.63v4h-.38l-1.74-2.06a2.76,2.76,0,0,0-1.88-.87c-.93,0-1.41.54-1.41,1.17,0,1.1,1.26,1.7,2.87,2.51,2.31,1.16,3.38,2.24,3.38,4,0,2.43-1.79,3.89-4.87,3.89A11.75,11.75,0,0,1,415.33,21Z"/><path d="M426.19,19.82h1.34l.15-.15V12.43l-1.91-1.19v-.36l5-2.36.39.18v11l.15.15h1.34v1.91h-6.42Zm1-15.55a2.08,2.08,0,1,1,2.09,2.1A2.08,2.08,0,0,1,427.2,4.27Z"/><path d="M435,18.11V11.24l-.15-.15h-1.67V10.7l4.87-5.08h.39V9.18h4v1.91h-4v5.59c0,2.39.45,3.23,1.65,3.23a5.24,5.24,0,0,0,2.21-.66l.57,1.05A7.1,7.1,0,0,1,438.41,22C436.26,22,435,21,435,18.11Z"/><path d="M450.79,18.11V11.24l-.15-.15H449V10.7l4.88-5.08h.39V9.18h4v1.91h-4v5.59c0,2.39.44,3.23,1.64,3.23a5.2,5.2,0,0,0,2.21-.66l.57,1.05A7.09,7.09,0,0,1,454.17,22C452,22,450.79,21,450.79,18.11Z"/><path d="M474.22,19.82v1.91H467.8V19.82h1.34l.15-.15V14.35c0-2.39-.69-3-2.39-3a9.13,9.13,0,0,0-2.3.36v8l.15.15h1.34v1.91h-6.42V19.82H461l.15-.15V4.16L459.25,3V2.6L464.18.21l.42.21v10c1.7-1.1,2.93-1.73,4.51-1.73,2.12,0,3.62,1,3.62,3.5v7.44l.15.15Z"/><path d="M486.24,19.25l.57,1.05A7.74,7.74,0,0,1,482,22a6.11,6.11,0,0,1-6.31-6.43c0-3.85,2.63-6.87,6.31-6.87a4.68,4.68,0,0,1,4.93,5,8,8,0,0,1-.15,1.61h-7.41c.2,2.87,1.58,4.64,4,4.64A6.38,6.38,0,0,0,486.24,19.25Zm-6.87-5.44h4.24c-.06-2.51-.81-3.35-2-3.35S479.49,11.63,479.37,13.81Z"/><path d="M505.73,19.82v1.91H500.8v-1a6.82,6.82,0,0,1-3.71,1.37,2.74,2.74,0,0,1-3-3c0-2.24,1.5-4,6.67-4.51v-.54c0-2-.69-3.08-2.42-3.08a5.85,5.85,0,0,0-3.14,1.11l-.57-1.14a7,7,0,0,1,5.17-2.21c3.14,0,4.4,1.79,4.4,5.11v5.83l.15.15Zm-4.93-.18V16.05c-2.33.21-3.29.87-3.32,2.21a1.5,1.5,0,0,0,1.7,1.65A6.53,6.53,0,0,0,500.8,19.64Z"/><path d="M521.25,19.82v1.91h-4.91V19.94C514.88,21.16,513.68,22,512,22c-2.24,0-3.44-1.26-3.44-3.53V12.67l-1.91-1.19v-.36l4.93-2.39.42.21v7.68c0,2.12.69,2.78,2.33,2.78a7.37,7.37,0,0,0,2.06-.3V12.46l-1.91-1.19v-.36l4.93-2.39.42.21V19.67l.12.15Z"/><path d="M523.82,18.11V11.24l-.15-.15H522V10.7l4.88-5.08h.38V9.18h4v1.91h-4v5.59c0,2.39.45,3.23,1.65,3.23a5.2,5.2,0,0,0,2.21-.66l.57,1.05A7.1,7.1,0,0,1,527.19,22C525,22,523.82,21,523.82,18.11Z"/><path d="M547.25,19.82v1.91h-6.42V19.82h1.34l.15-.15V14.35c0-2.39-.69-3-2.39-3a9.13,9.13,0,0,0-2.3.36v8l.15.15h1.34v1.91H532.7V19.82H534l.15-.15V4.16L532.28,3V2.6L537.21.21l.42.21v10c1.7-1.1,2.93-1.73,4.51-1.73,2.12,0,3.62,1,3.62,3.5v7.44l.15.15Z"/><path d="M548.72,15.69c0-3.94,2.63-7,6.51-7,3.5,0,6.16,2.42,6.16,6.48S558.67,22,554.88,22,548.72,19.52,548.72,15.69Zm9,.69c0-3.41-1.32-5.8-3.11-5.8-1.41,0-2.27,1.44-2.27,3.89,0,3.41,1.31,5.8,3.1,5.8C556.88,20.27,557.75,18.83,557.75,16.38Z"/><path d="M568.09,12.29v7.38l.15.15H570v1.91h-6.87V19.82h1.34l.15-.15V12.43l-1.91-1.16v-.39l4.48-2.3.39.21.39,2.15c1.46-1.34,2.81-2.21,4-2.21a2.11,2.11,0,0,1,.86.15v3.85a13.9,13.9,0,0,0-3.73-.5C568.75,12.23,568.42,12.26,568.09,12.29Z"/><path d="M579.45,2.57c0,2.51-1.65,4.34-4.49,5.32l-.65-1.22c1.4-.6,2.24-1.32,2.48-2.22a2.22,2.22,0,0,1-1.86-2.21A2.22,2.22,0,0,1,577.15,0,2.34,2.34,0,0,1,579.45,2.57Z"/><path d="M579.15,21v-4.3h.39l1.64,2a3.62,3.62,0,0,0,2.69,1.53c1.11,0,1.56-.57,1.56-1.26,0-1.25-1.56-1.64-3-2.51-2.27-1.32-3.2-2.36-3.2-4.18,0-2.28,2-3.62,5-3.62a9.71,9.71,0,0,1,3.53.63v4h-.39l-1.73-2.06a2.78,2.78,0,0,0-1.89-.87c-.92,0-1.4.54-1.4,1.17,0,1.1,1.25,1.7,2.87,2.51,2.3,1.16,3.38,2.24,3.38,4,0,2.43-1.8,3.89-4.88,3.89A11.74,11.74,0,0,1,579.15,21Z"/><path d="M596,21v-4.3h.39l1.64,2a3.62,3.62,0,0,0,2.69,1.53c1.11,0,1.56-.57,1.56-1.26,0-1.25-1.56-1.64-3.05-2.51-2.27-1.32-3.2-2.36-3.2-4.18,0-2.28,2-3.62,5-3.62a9.71,9.71,0,0,1,3.53.63v4h-.39l-1.73-2.06a2.78,2.78,0,0,0-1.89-.87c-.92,0-1.4.54-1.4,1.17,0,1.1,1.25,1.7,2.87,2.51,2.3,1.16,3.38,2.24,3.38,4,0,2.43-1.8,3.89-4.88,3.89A11.74,11.74,0,0,1,596,21Z"/><path d="M606.8,19.82h1.35l.14-.15V12.43l-1.91-1.19v-.36l5-2.36.39.18v11l.15.15h1.35v1.91H606.8Zm1-15.55a2.08,2.08,0,1,1,2.09,2.1A2.07,2.07,0,0,1,607.82,4.27Z"/><path d="M615.65,18.11V11.24l-.15-.15h-1.67V10.7l4.87-5.08h.39V9.18h4v1.91h-4v5.59c0,2.39.44,3.23,1.64,3.23a5.2,5.2,0,0,0,2.21-.66l.57,1.05A7.09,7.09,0,0,1,619,22C616.87,22,615.65,21,615.65,18.11Z"/><path d="M634.9,19.25l.57,1.05A7.74,7.74,0,0,1,630.66,22a6.11,6.11,0,0,1-6.31-6.43c0-3.85,2.63-6.87,6.31-6.87a4.68,4.68,0,0,1,4.93,5,8,8,0,0,1-.15,1.61H628c.21,2.87,1.59,4.64,4,4.64A6.38,6.38,0,0,0,634.9,19.25ZM628,13.81h4.25c-.06-2.51-.81-3.35-2-3.35S628.14,11.63,628,13.81Z"/><path d="M642.91,15.69c0-3.94,2.63-7,6.52-7,3.49,0,6.16,2.42,6.16,6.48S652.87,22,649.07,22,642.91,19.52,642.91,15.69Zm9,.69c0-3.41-1.32-5.8-3.11-5.8-1.41,0-2.27,1.44-2.27,3.89,0,3.41,1.31,5.8,3.11,5.8C651.07,20.27,651.94,18.83,651.94,16.38Z"/><path d="M662.28,12.29v7.38l.15.15h1.79v1.91h-6.87V19.82h1.34l.15-.15V12.43l-1.91-1.16v-.39l4.49-2.3.38.21.39,2.15c1.47-1.34,2.81-2.21,3.95-2.21a2.05,2.05,0,0,1,.86.15v3.85a13.9,13.9,0,0,0-3.73-.5C662.94,12.23,662.61,12.26,662.28,12.29Z"/><path d="M675,18.11V11.24l-.15-.15h-1.68V10.7L678,5.62h.39V9.18h4v1.91h-4v5.59c0,2.39.45,3.23,1.65,3.23a5.2,5.2,0,0,0,2.21-.66l.57,1.05A7.1,7.1,0,0,1,678.33,22C676.18,22,675,21,675,18.11Z"/><path d="M698.39,19.82v1.91H692V19.82h1.34l.15-.15V14.35c0-2.39-.69-3-2.39-3a9.13,9.13,0,0,0-2.3.36v8l.15.15h1.34v1.91h-6.43V19.82h1.35l.15-.15V4.16L683.42,3V2.6L688.35.21l.42.21v10c1.7-1.1,2.93-1.73,4.51-1.73,2.12,0,3.62,1,3.62,3.5v7.44l.15.15Z"/><path d="M710.41,19.25,711,20.3A7.74,7.74,0,0,1,706.17,22a6.11,6.11,0,0,1-6.31-6.43c0-3.85,2.63-6.87,6.31-6.87a4.68,4.68,0,0,1,4.93,5,8,8,0,0,1-.15,1.61h-7.42c.21,2.87,1.59,4.64,4,4.64A6.38,6.38,0,0,0,710.41,19.25Zm-6.88-5.44h4.25c-.06-2.51-.81-3.35-2-3.35S703.65,11.63,703.53,13.81Z"/><path d="M737.13,12.67v2.1h-1.7l-.15.15v5.44a13,13,0,0,1-6.67,1.82c-5.5,0-9.74-3.74-9.74-9.8,0-6.43,4.27-10.53,10.22-10.53a16.37,16.37,0,0,1,5.41.87V8.55h-.45l-1.94-3.62a5.7,5.7,0,0,0-3.59-1.19c-3.58,0-5.47,3-5.47,8.16,0,5.5,2.34,8.4,5.83,8.4a7.27,7.27,0,0,0,2.66-.39v-5l-.15-.15H729v-2.1Z"/><path d="M738.81,19.82h1.34l.15-.15V12.43l-1.91-1.19v-.36l5-2.36.39.18v11l.15.15h1.35v1.91h-6.43Zm1-15.55a2.08,2.08,0,1,1,2.09,2.1A2.07,2.07,0,0,1,739.83,4.27Z"/><path d="M747.66,18.11V11.24l-.15-.15h-1.68V10.7l4.88-5.08h.38V9.18h4v1.91h-4v5.59c0,2.39.45,3.23,1.65,3.23a5.2,5.2,0,0,0,2.21-.66l.57,1.05A7.1,7.1,0,0,1,751,22C748.88,22,747.66,21,747.66,18.11Z"/><path d="M776,4.54v15l.15.15h2.25v2H769.9v-2h2.24l.15-.15v-7h-9.06v7l.15.15h2.24v2H757.1v-2h2.24l.15-.15v-15L756.8,2.75V2.3h9.12v.45l-2.69,1.79v6h9.06v-6L769.6,2.75V2.3h9.11v.45Z"/><path d="M794.11,19.82v1.91h-4.9V19.94c-1.47,1.22-2.66,2.09-4.4,2.09-2.24,0-3.43-1.26-3.43-3.53V12.67l-1.92-1.19v-.36l4.94-2.39.41.21v7.68c0,2.12.69,2.78,2.34,2.78a7.48,7.48,0,0,0,2.06-.3V12.46l-1.91-1.19v-.36l4.93-2.39.42.21V19.67l.12.15Z"/><path d="M808.91,14.83a7,7,0,0,1-7.18,7.2,11.74,11.74,0,0,1-5-1V4.16L794.86,3V2.6l5-2.39.39.21V10.58c1.43-1.16,2.51-1.85,4.12-1.85C807,8.73,808.91,11.33,808.91,14.83Zm-3.65.89c0-3-1.17-4.42-2.93-4.42a8.74,8.74,0,0,0-2.12.27V19a2.85,2.85,0,0,0,2.3,1.2C804.36,20.24,805.26,18.59,805.26,15.72Z"/><path d="M821.43,12.29v7.38l.15.15h1.8v1.91H816.5V19.82h1.35l.15-.15V12.43l-1.92-1.16v-.39l4.49-2.3.38.21.39,2.15c1.47-1.34,2.81-2.21,3.95-2.21a2.13,2.13,0,0,1,.87.15v3.85a14,14,0,0,0-3.74-.5C822.09,12.23,821.76,12.26,821.43,12.29Z"/><path d="M837.9,19.25l.57,1.05A7.71,7.71,0,0,1,833.66,22a6.11,6.11,0,0,1-6.31-6.43c0-3.85,2.63-6.87,6.31-6.87a4.68,4.68,0,0,1,4.93,5,8,8,0,0,1-.15,1.61H831c.21,2.87,1.58,4.64,4,4.64A6.35,6.35,0,0,0,837.9,19.25ZM831,13.81h4.24c-.06-2.51-.8-3.35-2-3.35S831.15,11.63,831,13.81Z"/><path d="M853.75,15c0,3.94-2.69,7-6.46,7a5.33,5.33,0,0,1-2.24-.45v5l.15.15H847v1.92h-6.87V26.69h1.34l.15-.15V12.43l-1.91-1.16v-.39l4.48-2.3.39.21.39,1.85c1.43-1.1,2.69-1.91,4.21-1.91C851.8,8.73,853.75,11.3,853.75,15Zm-3.65.8c0-3-1.16-4.51-2.93-4.51a8.74,8.74,0,0,0-2.12.27V18.8a2.66,2.66,0,0,0,2.36,1.44C849.2,20.24,850.1,18.53,850.1,15.81Z"/><path d="M855.69,15.69c0-3.94,2.63-7,6.52-7,3.5,0,6.16,2.42,6.16,6.48S865.65,22,861.85,22,855.69,19.52,855.69,15.69Zm9,.69c0-3.41-1.32-5.8-3.11-5.8-1.4,0-2.27,1.44-2.27,3.89,0,3.41,1.31,5.8,3.11,5.8C863.85,20.27,864.72,18.83,864.72,16.38Z"/><path d="M870.46,21v-4.3h.39l1.64,2a3.62,3.62,0,0,0,2.69,1.53c1.11,0,1.56-.57,1.56-1.26,0-1.25-1.56-1.64-3-2.51-2.27-1.32-3.2-2.36-3.2-4.18,0-2.28,2-3.62,5-3.62a9.71,9.71,0,0,1,3.53.63v4h-.39l-1.73-2.06a2.78,2.78,0,0,0-1.89-.87c-.92,0-1.4.54-1.4,1.17,0,1.1,1.25,1.7,2.87,2.51,2.3,1.16,3.38,2.24,3.38,4,0,2.43-1.8,3.89-4.88,3.89A11.74,11.74,0,0,1,870.46,21Z"/><path d="M881.31,19.82h1.35l.14-.15V12.43l-1.91-1.19v-.36l5-2.36.39.18v11l.15.15h1.35v1.91h-6.43Zm1-15.55a2.08,2.08,0,1,1,2.09,2.1A2.07,2.07,0,0,1,882.33,4.27Z"/><path d="M890.16,18.11V11.24l-.15-.15h-1.68V10.7l4.88-5.08h.39V9.18h4v1.91h-4v5.59c0,2.39.44,3.23,1.64,3.23a5.2,5.2,0,0,0,2.21-.66L898,20.3A7.09,7.09,0,0,1,893.54,22C891.38,22,890.16,21,890.16,18.11Z"/><path d="M898.86,15.69c0-3.94,2.63-7,6.51-7,3.5,0,6.16,2.42,6.16,6.48S908.81,22,905,22C901.37,22,898.86,19.52,898.86,15.69Zm9,.69c0-3.41-1.31-5.8-3.1-5.8-1.41,0-2.28,1.44-2.28,3.89,0,3.41,1.32,5.8,3.11,5.8C907,20.27,907.88,18.83,907.88,16.38Z"/><path d="M918.23,12.29v7.38l.15.15h1.79v1.91H913.3V19.82h1.34l.15-.15V12.43l-1.91-1.16v-.39l4.48-2.3.39.21.39,2.15c1.46-1.34,2.81-2.21,3.94-2.21a2.13,2.13,0,0,1,.87.15v3.85a13.92,13.92,0,0,0-3.74-.5C918.89,12.23,918.56,12.26,918.23,12.29Z"/><path d="M924.59,27.41v-.27l6.1-5.17-5.05-10.73L923.7,9.6V9.18h7.35v.39l-1.67,1.67,2.78,6.37h.18l2.81-6.37L933.5,9.6V9.18h5.65v.39l-1.91,1.67L932,22.39l-3.41,6.66Z"/><path d="M936.91,19.94a2.25,2.25,0,1,1,2.24,2.24A2.26,2.26,0,0,1,936.91,19.94Z"/></g></g><g id="Group_100" data-name="Group 100"><path id="Path_5630" data-name="Path 5630" d="M356.33,311.88c-8.84.36-2.94-9.51-9.46-12.59-15.05,29.7-35.15,55.62-58,79.6-9.59,10.07-11.49,23.86-14,37.14-4,21.43-7.73,43-16.67,61-2.07-69.6,38.85-122,84.18-173.93-32.64-5.47-32.64-5.47-52,20.39-3.51-3.45-.43-6.26,1.25-8.79,8-12.05,3.37-15.67-9.41-15.54-26.12.26-52.3,2.26-78.13-4.5-13.79-3.61-27-7.49-35.89-20.72,37.82,25.72,80.82,17.64,122.16,20.08,42.89,2.53,84.33-2.92,123.13-24.3-4.19,11.28-18.41,10.07-22.7,22.24-1.59,4.5-15.79,6-22,13l-5.59-1.58c-1,2.81-2,5.62-3,8.42l-.14.07Z"/><path id="Path_5631" data-name="Path 5631" d="M377.6,210.44c-8.75,17.32-14.92,20.22-25.64,12.05l-.41.41c16.85-4.77,4.56-11.85,0-14.61A74.4,74.4,0,0,0,310.89,198c-18.19.52-33-5.81-46-17.91-3.1-2.89-6.3-6-10-7.84-13.35-6.77-31.55-7.56-22.8-32.58,4.58-13.09-11.61-9-21.09-10.33,4.55-9,10.66-8.79,17.49-5.62,9,4.21,13,13.75,10.58,21.09-3.9,11.83,2.23,13.95,10,18.17,8,4.31,15,10.47,22.24,16.11,9.68,7.54,20,13.83,32.63,13.73,20-.15,39.62.29,56.11,14.13,4.14,3.48,7.67-2.1,11.76-1.95Z"/><path id="Path_5632" data-name="Path 5632" d="M191.61,203.94c-11,29.91,16.48,28.91,35.73,38.88-35.82-3-39.42-5.95-44.52-33.78-.82-4.45-2-9.06-6.7-9.52-2.91-.28-6.82,2-9.1,4.31-8.22,8.29-12.16,21.89-6.67,29.15,16.94,22.43-7.58,16.31-12.79,24.13-5-8.55,11.28-6.65,4.95-13.59-11.09-12.16-21.67-5-32.06,2.72,8.53-5.58,8.26-25.22,27.22-13.83,5.58,3.36,5.37-9.14,2.34-13.51-4.32-6.22-10.73-11-16.25-16.37l1.81-2c8.65.34,11.29,9.82,18.47,12.44,13.57-24.57,20.23-26.09,37.68-8.73Z"/><path id="Path_5633" data-name="Path 5633" d="M340.68,241.05c5.94,7.25,7.41,16.26,11.31,30.22-18.52-22.07-36.47-14-54.66-7.73-21.27,7.3-42.17,10-59.6-10.91,32.89,24.26,61.7,0,92-6.3-25.15-4.54-49,13.51-74.44,4,29.21,2.19,55.85-18.42,85.85-8.89Z"/><path id="Path_5634" data-name="Path 5634" d="M191.71,204.27c1.91-7.44,4.29-14.8,5.61-22.35s2.55-16.65-7.06-19.67c-8.41-2.64-12.38,4.79-15.95,10.88-2.06,3.51-3.4,7.45-6.63,11.53,1.63-13.25-6-20.93-15.3-29.46,17.85,11.75,30,7.91,37.93-10.65,2.82-6.56,9.15-8.51,16.07-6.94,6.71,1.52,13.82,6.29,12.67,12.28-3.39,17.78,8.26,24.42,20.43,32-9.83-1.88-19.08-5.55-30.82-.54,5.22-11,10.21-20.53,5.42-30.53-2.79-5.84-7.87-10.75-15.37-6.43-4.84,2.78-7,6.8-2.44,12.05,14.94,17.37,5.47,32.39-4.7,47.38C191.61,203.94,191.71,204.27,191.71,204.27Z"/><path id="Path_5635" data-name="Path 5635" d="M492.92,168.06c-23.47,19.25-45.14,39.75-63.51,63.85-17.82,23.37-49.61,16.72-72.12,31.61C416.62,251.55,444.88,195.68,492.92,168.06Z"/><path id="Path_5636" data-name="Path 5636" d="M377.6,210.44,371.84,205l78.4-77.11,5,4.95A565.9,565.9,0,0,0,377.6,210.44Z"/><path id="Path_5637" data-name="Path 5637" d="M283.93,336.43c-32.05,34.89-35.5,79.87-45.49,122.57C243.16,414.59,246.25,369.63,283.93,336.43Z"/><path id="Path_5638" data-name="Path 5638" d="M341.15,241.47c-14-13.49-30.69-11.45-47.36-7.88-22,4.73-41.15,1.5-55.17-19.25,19.74,20.94,43.16,16.2,66.83,11.8,12.75-2.36,25.56-.91,37,5.69,6.85,3.94,3.88,7.13-1.85,9.16C340.68,241.05,341.15,241.47,341.15,241.47Z"/><path id="Path_5639" data-name="Path 5639" d="M352,222.49c-16.69-7-34.37-5.79-51.86-6.38-14.62-.5-29.45-.37-40.76-12.74,21.53,10.54,44.43,6.16,66.81,7.22,10.1.49,21.74-1.7,25.4,12.31Z"/><path id="Path_5640" data-name="Path 5640" d="M482,134.46c-33.07,13-54.65,40.69-84.06,67.9C418.3,167.72,456.12,137.93,482,134.46Z"/><path id="Path_5641" data-name="Path 5641" d="M61.29,333.36c27.9-26.21,62.84-40.53,94.31-60.73.88,1.49,1.76,3,2.65,4.48Z"/><path id="Path_5642" data-name="Path 5642" d="M97.67,286,48.1,306.35c25.59-17.34,55-28.64,77.95-50.76l-19.78,26Z"/><path id="Path_5643" data-name="Path 5643" d="M321.29,356.92c-23.63,25.74-35.23,56.26-39,90.27C281.59,411.11,290.69,379.19,321.29,356.92Z"/><path id="Path_5644" data-name="Path 5644" d="M304.77,402.09c3.76-18.33,18.26-28.76,26.81-42.7.69-1.14,4.36-1.87,5.43-1.11,3.31,2.36,3.09,5.89,1.42,9.43C331.45,382.48,319.9,392.89,304.77,402.09Z"/><path id="Path_5645" data-name="Path 5645" d="M97.67,286l8.61-4.38c3.61-3.3,7-7.07,14.14-5.79-17.66,25.77-47.06,30.63-71.54,43.42C61.33,302.53,84.69,301.89,97.67,286Z"/><path id="Path_5646" data-name="Path 5646" d="M291.19,177.12c19.19,10.75,41.54-.83,60.69,9.2C331.14,186.68,309.81,191.89,291.19,177.12Z"/><path id="Path_5647" data-name="Path 5647" d="M472.94,152.5C451.67,159,449.78,188.91,421.65,193,438.9,175.72,451.37,158.59,472.94,152.5Z"/><path id="Path_5648" data-name="Path 5648" d="M133.75,202.53c-23.12-11.95-39.33-30.13-48.31-54.87,13.37,20.89,31.72,36.92,50.12,52.9Z"/><path id="Path_5649" data-name="Path 5649" d="M375.23,193.47l46.67-51-.41-.3-49.38,48.19Z"/><path id="Path_5650" data-name="Path 5650" d="M440.8,245.57l39.34-44.76C472.23,220.29,459.41,235.57,440.8,245.57Z"/><path id="Path_5651" data-name="Path 5651" d="M356.33,311.88h3.75c-.32,9,5.46,3.64,8.9,3.77-3.13,8.93-5.64,18.27-15.39,22.7l.23-1.11.44,1.1c-6.58-2.11-6.78-5.59-3.09-11C354.26,322.84,358,318.15,356.33,311.88Z"/><path id="Path_5652" data-name="Path 5652" d="M363.23,303.39c1.08,3.55,1.91,7-3,8.42C361.22,309,362.23,306.19,363.23,303.39Z"/></g><g id="Project_by_Laura_Asher_Pope_www.lauraasher.com_Data_from_the_Dance_Notation_Bureau_Images_from_Remy_Charlip_s_Airmail_dances" data-name="Project by Laura Asher Pope www.lauraasher.com Data from the Dance Notation Bureau Images from Remy Charlip s Airmail dances" class="cls-1"><g class="cls-1"><path d="M517.66,137.72v4.74l.11.11H520v1h-6v-1h1.72l.12-.11V130l-2-1.15v-.23h5.48c3.49,0,5.51,1.36,5.51,4.14,0,3.22-2.71,4.92-6.07,4.92Zm0-8v6.94h1.1c2.49,0,4.14-1.24,4.14-3.7s-1.79-3.24-3.89-3.24Z"/><path d="M533,134.11v1.68a5.85,5.85,0,0,0-1.17-.12,10.81,10.81,0,0,0-2.42.33v6.46l.12.11h1.72v1h-4.94v-1h1.38l.11-.11V136.2l-1.54-.73v-.12l2.78-1.42.14.06.23,1.57c1-.71,2.25-1.61,3-1.61A1.08,1.08,0,0,1,533,134.11Z"/><path d="M534,139.08a4.82,4.82,0,0,1,4.85-5.13,4.41,4.41,0,0,1,4.57,4.76,4.83,4.83,0,0,1-4.8,5.13A4.43,4.43,0,0,1,534,139.08Zm7.63.2c0-2.53-1.36-4.41-3.15-4.41-1.52,0-2.71,1.13-2.71,3.61s1.29,4.44,3.15,4.44C540.51,142.92,541.64,141.74,541.64,139.28Z"/><path d="M544.24,148.27c2-.85,2.28-2,2.28-4.41V136.2l-1.54-.73v-.12l3-1.4.14.07v9c0,4.34-1.13,5.1-3.59,5.84Zm1.66-18a1.25,1.25,0,1,1,1.26,1.24A1.28,1.28,0,0,1,545.9,130.32Z"/><path d="M558.89,138.48h-6.35c0,3,1.59,4.11,3.66,4.11a5.17,5.17,0,0,0,2.36-.57l.26.48a5.34,5.34,0,0,1-3.57,1.34,4.42,4.42,0,0,1-4.48-4.74c0-3.38,2.44-5.17,4.53-5.17a3.43,3.43,0,0,1,3.63,3.77C558.93,138,558.91,138.2,558.89,138.48Zm-6.3-.83h4.55c0-1.91-.76-2.78-2-2.78S552.82,135.58,552.59,137.65Z"/><path d="M560.66,139.17c0-3.36,2.27-5.22,4.87-5.22a6,6,0,0,1,2.53.5v2.72H568l-1.36-1.73a2.28,2.28,0,0,0-1.59-.55c-1.65,0-2.57,1.43-2.57,3.54,0,2.95,1.45,4.16,3.4,4.16a5.18,5.18,0,0,0,2.37-.57l.25.48a5.07,5.07,0,0,1-3.45,1.34C562.08,143.84,560.66,141.67,560.66,139.17Z"/><path d="M571,140.92v-5.45l-.11-.12h-1.38v-.11l3-3.94h.12v3h3.1v1h-3.1v4.3c0,2.32.34,3.11,1.67,3.11a4.48,4.48,0,0,0,1.52-.26l.25.49a5,5,0,0,1-2.64.85C571.79,143.84,571,143.1,571,140.92Z"/><path d="M592.14,138.62c0,2.66-1.52,5.22-5,5.22a9.38,9.38,0,0,1-3.75-.76V129.35l-1.54-.74v-.11l3-1.45.14.07v8.12a7.15,7.15,0,0,1,3.5-1.29C590.8,134,592.14,136.25,592.14,138.62Zm-1.77.5c0-2.14-.81-3.81-2.81-3.81a9.86,9.86,0,0,0-2.53.32V142a3.18,3.18,0,0,0,2.44.92C589.49,142.92,590.37,141.56,590.37,139.12Z"/><path d="M603.68,134.32v.07l-1.24,1.08-3.7,8.76-2.21,5.13-2-.86,3.34-4.07-3.87-9-1.31-1v-.11h4.62v.07l-1.49,1.1,2.83,6.81,2.66-6.83-1.63-1v-.11Z"/><path d="M610,142.57h1.73l.11-.11V130l-2-1.15v-.23h5.86v.23L613.68,130v12.53h5.06l1.45-2.76h.23v3.8H610Z"/><path d="M630.7,142.57v1h-3.1v-1a5.46,5.46,0,0,1-3,1.18,2.15,2.15,0,0,1-2.3-2.21c0-2.12,2.23-2.9,5.34-3v-.71c0-1.82-.42-2.69-2.1-2.69a4.67,4.67,0,0,0-2.66.87l-.3-.55a4.85,4.85,0,0,1,3.58-1.56,2.81,2.81,0,0,1,3.09,3v5.5l.11.11Zm-3.1-.32v-2.92c-2,.14-3.71.46-3.71,2,0,.9.62,1.31,1.5,1.31A7.13,7.13,0,0,0,627.6,142.25Z"/><path d="M642.52,142.57v1h-3.1V142.5a6.63,6.63,0,0,1-3.18,1.34c-2,0-2.87-1-2.87-2.69v-4.88l-1.54-.73v-.12l3-1.45.14.07v5.66c0,2,.39,2.66,2,2.66a11,11,0,0,0,2.44-.32v-5.79l-1.54-.74v-.11l3-1.45.13.07v8.44l.12.11Z"/><path d="M650.71,134.11v1.68a6,6,0,0,0-1.18-.12,10.81,10.81,0,0,0-2.41.33v6.46l.11.11H649v1h-5v-1h1.38l.12-.11V136.2l-1.54-.73v-.12l2.78-1.42.14.06.23,1.57c1-.71,2.25-1.61,3-1.61A1.13,1.13,0,0,1,650.71,134.11Z"/><path d="M660,142.57v1h-3.11v-1a5.4,5.4,0,0,1-3,1.18,2.15,2.15,0,0,1-2.3-2.21c0-2.12,2.23-2.9,5.33-3v-.71c0-1.82-.41-2.69-2.09-2.69a4.7,4.7,0,0,0-2.67.87l-.29-.55a4.85,4.85,0,0,1,3.58-1.56,2.81,2.81,0,0,1,3.08,3v5.5l.12.11Zm-3.11-.32v-2.92c-1.95.14-3.7.46-3.7,2,0,.9.62,1.31,1.5,1.31A7,7,0,0,0,656.91,142.25Z"/><path d="M680.6,142.57v1H676v-1h1.1l.12-.11-1.41-4.1h-5l-1.47,4.1.11.11h1.7v1h-4.78v-1h1.59l.11-.11,5.22-13.92h.87l5,13.92.12.11Zm-5.15-5.24-2.09-6.12h-.05l-2.19,6.12Z"/><path d="M682.19,143.28v-2.41h.11l1.15,1.26a2.62,2.62,0,0,0,1.84.83c.94,0,1.59-.48,1.59-1.31,0-1.15-1.11-1.52-2.3-2.16-1.41-.76-2.26-1.56-2.26-2.9,0-1.54,1.25-2.64,3.27-2.64a6.71,6.71,0,0,1,2.44.44v2.34h-.12l-1.19-1.33a2.17,2.17,0,0,0-1.52-.6,1.33,1.33,0,0,0-1.5,1.29c0,1.08,1.08,1.58,2.17,2.16s2.43,1.31,2.43,2.9-1.42,2.69-3.17,2.69A8,8,0,0,1,682.19,143.28Z"/><path d="M700.79,142.57v1h-4.72v-1h1.5l.11-.11v-4.37c0-2-.41-2.67-2.11-2.67a12.53,12.53,0,0,0-2.55.32v6.72l.11.11h1.5v1h-4.72v-1h1.38l.12-.11V129.35l-1.54-.74v-.11l3-1.45.14.07v8.16A6.67,6.67,0,0,1,696.3,134c2.07,0,3,1,3,2.69v5.82l.12.11Z"/><path d="M710.49,138.48h-6.34c0,3,1.58,4.11,3.65,4.11a5.18,5.18,0,0,0,2.37-.57l.25.48a5.31,5.31,0,0,1-3.56,1.34,4.41,4.41,0,0,1-4.48-4.74c0-3.38,2.43-5.17,4.53-5.17a3.44,3.44,0,0,1,3.63,3.77C710.54,138,710.51,138.2,710.49,138.48Zm-6.3-.83h4.55c0-1.91-.75-2.78-2-2.78S704.42,135.58,704.19,137.65Z"/><path d="M718.82,134.11v1.68a6,6,0,0,0-1.18-.12,10.81,10.81,0,0,0-2.41.33v6.46l.11.11h1.73v1h-5v-1h1.38l.12-.11V136.2l-1.54-.73v-.12l2.78-1.42.14.06.23,1.57c1-.71,2.25-1.61,3-1.61A1.1,1.1,0,0,1,718.82,134.11Z"/><path d="M729,137.72v4.74l.12.11h2.18v1h-6v-1h1.73l.11-.11V130l-1.95-1.15v-.23h5.47c3.5,0,5.52,1.36,5.52,4.14,0,3.22-2.71,4.92-6.07,4.92Zm0-8v6.94h1.11c2.48,0,4.14-1.24,4.14-3.7s-1.8-3.24-3.89-3.24Z"/><path d="M736.77,139.08a4.82,4.82,0,0,1,4.86-5.13,4.42,4.42,0,0,1,4.57,4.76,4.83,4.83,0,0,1-4.8,5.13A4.44,4.44,0,0,1,736.77,139.08Zm7.64.2c0-2.53-1.36-4.41-3.15-4.41-1.52,0-2.72,1.13-2.72,3.61s1.29,4.44,3.16,4.44C743.28,142.92,744.41,141.74,744.41,139.28Z"/><path d="M758,138.62c0,2.62-1.74,5.22-4.78,5.22a4.7,4.7,0,0,1-2.34-.56v4.47l.11.11h1.73v1h-5v-1h1.38l.12-.11V136.2l-1.54-.73v-.12l2.78-1.42.14.06.2,1.32a6.42,6.42,0,0,1,3.5-1.36C756.69,134,758,136.25,758,138.62Zm-1.77.5c0-2.14-.8-3.81-2.8-3.81a9.07,9.07,0,0,0-2.55.41v5.77a2.7,2.7,0,0,0,2.57,1.43C755.29,142.92,756.27,141.45,756.27,139.12Z"/><path d="M768,138.48h-6.34c0,3,1.58,4.11,3.65,4.11a5.18,5.18,0,0,0,2.37-.57l.25.48a5.31,5.31,0,0,1-3.56,1.34,4.42,4.42,0,0,1-4.49-4.74c0-3.38,2.44-5.17,4.54-5.17a3.44,3.44,0,0,1,3.63,3.77C768.05,138,768,138.2,768,138.48Zm-6.3-.83h4.55c0-1.91-.75-2.78-2-2.78S761.93,135.58,761.7,137.65Z"/></g><g class="cls-1"><path d="M527.78,157.31v.07l-1.32,1.08-3.24,8.37h-.76l-2.09-5.4c-.62,1.52-2.23,5.4-2.23,5.4h-.74l-3.58-8.37-1.34-1v-.12h4.79v.07l-1.57,1.08,2.46,6.14h.1l1.72-4.18-1-2.51,1.59-.83,2.58,7.52h.09l2.16-6.16-1.66-1.06v-.07Z"/><path d="M543.3,157.31v.07L542,158.46l-3.25,8.37H538l-2.1-5.4c-.62,1.52-2.23,5.4-2.23,5.4h-.73l-3.59-8.37-1.34-1v-.12h4.79v.07l-1.57,1.08,2.46,6.14h.1l1.72-4.18-1-2.51,1.58-.83,2.58,7.52h.09l2.16-6.16-1.65-1.06v-.07Z"/><path d="M558.82,157.31v.07l-1.31,1.08-3.24,8.37h-.76l-2.1-5.4c-.62,1.52-2.23,5.4-2.23,5.4h-.73l-3.59-8.37-1.33-1v-.12h4.78v.07l-1.56,1.08,2.46,6.14h.09l1.72-4.18-1-2.51,1.58-.83,2.58,7.52h.09l2.16-6.16-1.65-1.06v-.07Z"/><path d="M558,165.61a1.35,1.35,0,1,1,2.69,0,1.35,1.35,0,0,1-2.69,0Z"/><path d="M562.41,165.57h1.38l.11-.12V152.34l-1.54-.73v-.12l3-1.45.14.07v15.34l.11.12h1.5v1h-4.71Z"/><path d="M577,165.57v1h-3.1v-.94a5.51,5.51,0,0,1-3,1.17,2.15,2.15,0,0,1-2.3-2.21c0-2.11,2.23-2.89,5.34-3v-.71c0-1.82-.42-2.69-2.1-2.69a4.6,4.6,0,0,0-2.66.87l-.3-.55a4.86,4.86,0,0,1,3.58-1.57,2.81,2.81,0,0,1,3.09,3v5.49l.11.12Zm-3.1-.32v-2.93c-2,.14-3.71.46-3.71,2,0,.89.62,1.31,1.5,1.31A7.43,7.43,0,0,0,573.93,165.25Z"/><path d="M588.85,165.57v1h-3.1v-1.1a6.6,6.6,0,0,1-3.18,1.33c-2,0-2.87-1-2.87-2.69v-4.87l-1.54-.74v-.11l3-1.45.14.07v5.65c0,2,.39,2.67,2,2.67a11.59,11.59,0,0,0,2.44-.32v-5.8l-1.54-.73v-.12l3-1.45.13.07v8.44l.12.12Z"/><path d="M597,157.1v1.68a6,6,0,0,0-1.18-.11,10.74,10.74,0,0,0-2.41.32v6.46l.11.12h1.73v1h-4.95v-1h1.38l.12-.12V159.2l-1.54-.74v-.11l2.78-1.43.14.07.23,1.56c1-.71,2.25-1.61,3-1.61A1.1,1.1,0,0,1,597,157.1Z"/><path d="M606.35,165.57v1h-3.11v-.94a5.46,5.46,0,0,1-3,1.17,2.15,2.15,0,0,1-2.3-2.21c0-2.11,2.23-2.89,5.33-3v-.71c0-1.82-.41-2.69-2.09-2.69a4.63,4.63,0,0,0-2.67.87l-.29-.55a4.86,4.86,0,0,1,3.58-1.57,2.81,2.81,0,0,1,3.08,3v5.49l.12.12Zm-3.11-.32v-2.93c-2,.14-3.7.46-3.7,2,0,.89.62,1.31,1.5,1.31A7.31,7.31,0,0,0,603.24,165.25Z"/><path d="M616.26,165.57v1h-3.1v-.94a5.51,5.51,0,0,1-3,1.17,2.15,2.15,0,0,1-2.3-2.21c0-2.11,2.23-2.89,5.34-3v-.71c0-1.82-.42-2.69-2.1-2.69a4.57,4.57,0,0,0-2.66.87l-.3-.55a4.86,4.86,0,0,1,3.58-1.57,2.81,2.81,0,0,1,3.08,3v5.49l.12.12Zm-3.1-.32v-2.93c-2,.14-3.71.46-3.71,2,0,.89.62,1.31,1.5,1.31A7.43,7.43,0,0,0,613.16,165.25Z"/><path d="M617.94,166.28v-2.41h.11l1.15,1.26A2.62,2.62,0,0,0,621,166c1,0,1.59-.49,1.59-1.31,0-1.15-1.1-1.52-2.3-2.16-1.4-.76-2.25-1.57-2.25-2.9,0-1.54,1.24-2.65,3.26-2.65a6.67,6.67,0,0,1,2.44.44v2.35h-.12l-1.19-1.34a2.21,2.21,0,0,0-1.52-.6,1.32,1.32,0,0,0-1.49,1.29c0,1.08,1.08,1.59,2.16,2.16s2.44,1.31,2.44,2.9-1.43,2.69-3.18,2.69A8.19,8.19,0,0,1,617.94,166.28Z"/><path d="M636.54,165.57v1h-4.71v-1h1.49l.12-.12v-4.37c0-2-.42-2.66-2.12-2.66a11.87,11.87,0,0,0-2.55.32v6.71l.11.12h1.5v1h-4.71v-1H627l.12-.12V152.34l-1.54-.73v-.12l3-1.45.14.07v8.17a6.7,6.7,0,0,1,3.29-1.34c2.07,0,3,1,3,2.69v5.82l.11.12Z"/><path d="M646.25,161.47H639.9c0,3,1.59,4.12,3.65,4.12a5.06,5.06,0,0,0,2.37-.58l.26.49a5.33,5.33,0,0,1-3.57,1.33,4.41,4.41,0,0,1-4.48-4.74c0-3.38,2.44-5.17,4.53-5.17a3.44,3.44,0,0,1,3.63,3.77C646.29,160.94,646.27,161.2,646.25,161.47Zm-6.31-.82h4.56c0-1.91-.76-2.79-2-2.79S640.17,158.58,639.94,160.65Z"/><path d="M654.57,157.1v1.68a5.89,5.89,0,0,0-1.17-.11A10.75,10.75,0,0,0,651,159v6.46l.12.12h1.72v1h-4.94v-1h1.38l.11-.12V159.2l-1.54-.74v-.11l2.78-1.43.14.07.23,1.56c1-.71,2.26-1.61,3-1.61A1.08,1.08,0,0,1,654.57,157.1Z"/><path d="M655.1,165.61a1.35,1.35,0,1,1,1.33,1.34A1.34,1.34,0,0,1,655.1,165.61Z"/><path d="M659.17,162.16c0-3.35,2.27-5.22,4.87-5.22a5.9,5.9,0,0,1,2.53.51v2.71h-.11l-1.36-1.72a2.23,2.23,0,0,0-1.59-.55c-1.65,0-2.57,1.42-2.57,3.54,0,2.94,1.45,4.16,3.4,4.16a5.06,5.06,0,0,0,2.37-.58l.25.49a5.06,5.06,0,0,1-3.45,1.33C660.59,166.83,659.17,164.67,659.17,162.16Z"/><path d="M668.46,162.07a4.82,4.82,0,0,1,4.85-5.13,4.42,4.42,0,0,1,4.58,4.76,4.84,4.84,0,0,1-4.81,5.13A4.43,4.43,0,0,1,668.46,162.07Zm7.63.21c0-2.53-1.35-4.42-3.15-4.42-1.52,0-2.71,1.13-2.71,3.61s1.29,4.44,3.15,4.44C675,165.91,676.09,164.74,676.09,162.28Z"/><path d="M696.28,165.57v1h-4.6v-1h1.38l.12-.12v-4.37c0-2-.39-2.66-2-2.66a10.45,10.45,0,0,0-2.51.34l0,0a3.88,3.88,0,0,1,.09.92v5.82l.11.12h1.38v1h-4.6v-1H687l.12-.12v-4.37c0-2-.39-2.66-2-2.66a10.9,10.9,0,0,0-2.44.32v6.71l.12.12h1.38v1h-4.6v-1H681l.11-.12v-6.23l-1.54-.74v-.11l2.78-1.43.14.07.19,1.31a6.45,6.45,0,0,1,3.22-1.38c1.47,0,2.32.51,2.69,1.48a6.77,6.77,0,0,1,3.35-1.48c2,0,2.88,1,2.88,2.69v5.82l.11.12Z"/></g><g class="cls-1"><path d="M513.84,211.66h1.55l.11-.1V200.38l-1.76-1v-.21h5c4.67,0,7.57,1.8,7.57,6.33s-2.65,7.12-7.72,7.12h-4.8Zm4.74,0c3.85,0,6-1.92,6-6,0-3.77-2.07-5.59-6.21-5.59h-1.24v11.59Z"/><path d="M535.71,211.66v.93h-2.79v-.85a4.83,4.83,0,0,1-2.73,1.06,1.94,1.94,0,0,1-2.07-2c0-1.9,2-2.6,4.8-2.73v-.64c0-1.63-.37-2.42-1.88-2.42a4.11,4.11,0,0,0-2.4.79l-.27-.5a4.38,4.38,0,0,1,3.23-1.41,2.53,2.53,0,0,1,2.77,2.71v4.95l.1.1Zm-2.79-.29v-2.63c-1.76.13-3.33.42-3.33,1.8,0,.81.56,1.18,1.34,1.18A6.26,6.26,0,0,0,532.92,211.37Z"/><path d="M538,210.17v-4.9l-.1-.11h-1.24v-.1l2.69-3.54h.1v2.71h2.79v.93h-2.79V209c0,2.09.31,2.8,1.51,2.8a4.18,4.18,0,0,0,1.37-.23l.22.43a4.4,4.4,0,0,1-2.38.77C538.7,212.8,538,212.14,538,210.17Z"/><path d="M551.17,211.66v.93h-2.79v-.85a4.83,4.83,0,0,1-2.73,1.06,1.94,1.94,0,0,1-2.07-2c0-1.9,2-2.6,4.8-2.73v-.64c0-1.63-.37-2.42-1.88-2.42a4.11,4.11,0,0,0-2.4.79l-.27-.5a4.38,4.38,0,0,1,3.23-1.41,2.53,2.53,0,0,1,2.77,2.71v4.95l.1.1Zm-2.79-.29v-2.63c-1.76.13-3.33.42-3.33,1.8,0,.81.56,1.18,1.34,1.18A6.26,6.26,0,0,0,548.38,211.37Z"/><path d="M557,211.66h1.24l.1-.1v-6.27l-.1-.13H557v-.93h1.24l.1-.1v-.56c0-4.2,1.08-5.81,3.75-5.81a5.17,5.17,0,0,1,1.92.35v2.48h-.1l-1.14-1.45a2,2,0,0,0-1.32-.45c-1.14,0-1.66.95-1.66,2.94v2.5l.11.1h3v.93h-3l-.11.13v6.27l.11.1h1.55v.93H557Z"/><path d="M569.57,204.05v1.51a5.46,5.46,0,0,0-1.05-.11,10.32,10.32,0,0,0-2.18.29v5.82l.11.1H568v.93h-4.45v-.93h1.24l.11-.1v-5.63l-1.39-.66v-.11l2.5-1.28.13.06.2,1.41a6.64,6.64,0,0,1,2.71-1.45A.89.89,0,0,1,569.57,204.05Z"/><path d="M570.46,208.52a4.34,4.34,0,0,1,4.37-4.62,4,4,0,0,1,4.12,4.28,4.36,4.36,0,0,1-4.33,4.62A4,4,0,0,1,570.46,208.52Zm6.87.18c0-2.27-1.22-4-2.83-4-1.37,0-2.44,1-2.44,3.25s1.15,4,2.83,4C576.32,212,577.33,210.92,577.33,208.7Z"/><path d="M595.5,211.66v.93h-4.14v-.93h1.24l.11-.1v-3.93c0-1.78-.35-2.4-1.8-2.4a9.38,9.38,0,0,0-2.26.31l0,0a3.51,3.51,0,0,1,.08.82v5.24l.11.1h1.24v.93h-4.14v-.93h1.24l.11-.1v-3.93c0-1.78-.36-2.4-1.8-2.4a9.92,9.92,0,0,0-2.2.29v6l.11.1h1.24v.93h-4.14v-.93h1.24l.1-.1V206l-1.38-.66v-.11l2.5-1.28.13.06.16,1.18a5.84,5.84,0,0,1,2.9-1.24c1.32,0,2.09.46,2.42,1.33a6.07,6.07,0,0,1,3-1.33c1.8,0,2.59.87,2.59,2.42v5.24l.1.1Z"/><path d="M602.33,210.17v-4.9l-.1-.11H601v-.1l2.69-3.54h.1v2.71h2.79v.93h-2.79V209c0,2.09.31,2.8,1.51,2.8a4.18,4.18,0,0,0,1.37-.23l.22.43a4.37,4.37,0,0,1-2.38.77C603,212.8,602.33,212.14,602.33,210.17Z"/><path d="M617.69,211.66v.93h-4.24v-.93h1.34l.1-.1v-3.93c0-1.78-.37-2.4-1.9-2.4a10.81,10.81,0,0,0-2.3.29v6l.11.1h1.34v.93H607.9v-.93h1.24l.11-.1v-11.8l-1.39-.66V199l2.71-1.31.12.07v7.34a6.07,6.07,0,0,1,3-1.2c1.86,0,2.69.87,2.69,2.42v5.24l.11.1Z"/><path d="M626.42,208h-5.71c0,2.71,1.43,3.7,3.29,3.7a4.62,4.62,0,0,0,2.13-.52l.23.44a4.83,4.83,0,0,1-3.21,1.2,4,4,0,0,1-4-4.26,4.33,4.33,0,0,1,4.07-4.66,3.09,3.09,0,0,1,3.27,3.39C626.46,207.5,626.44,207.73,626.42,208Zm-5.67-.75h4.1c0-1.71-.68-2.5-1.8-2.5S621,205.37,620.75,207.23Z"/><path d="M633,211.66h1.55l.11-.1V200.38l-1.76-1v-.21h5c4.67,0,7.57,1.8,7.57,6.33s-2.65,7.12-7.72,7.12H633Zm4.74,0c3.85,0,6-1.92,6-6,0-3.77-2.07-5.59-6.2-5.59h-1.25v11.59Z"/><path d="M654.86,211.66v.93h-2.8v-.85a4.83,4.83,0,0,1-2.73,1.06,1.94,1.94,0,0,1-2.07-2c0-1.9,2-2.6,4.8-2.73v-.64c0-1.63-.37-2.42-1.88-2.42a4.13,4.13,0,0,0-2.4.79l-.27-.5a4.38,4.38,0,0,1,3.23-1.41,2.53,2.53,0,0,1,2.77,2.71v4.95l.1.1Zm-2.8-.29v-2.63c-1.76.13-3.33.42-3.33,1.8,0,.81.56,1.18,1.35,1.18A6.24,6.24,0,0,0,652.06,211.37Z"/><path d="M666,211.66v.93h-4.24v-.93h1.34l.11-.1v-3.93c0-1.78-.38-2.4-1.91-2.4a10.72,10.72,0,0,0-2.29.29v6l.1.1h1.34v.93h-4.24v-.93h1.24l.11-.1v-5.63l-1.39-.66v-.11l2.5-1.28.13.06.16,1.18a6.15,6.15,0,0,1,3-1.22c1.87,0,2.69.87,2.69,2.42v5.24l.11.1Z"/><path d="M667.38,208.6a4.35,4.35,0,0,1,4.38-4.7,5.4,5.4,0,0,1,2.28.46v2.44h-.1l-1.22-1.55a2,2,0,0,0-1.43-.5c-1.49,0-2.32,1.28-2.32,3.19,0,2.64,1.31,3.74,3.06,3.74a4.67,4.67,0,0,0,2.14-.52l.22.44a4.57,4.57,0,0,1-3.1,1.2C668.66,212.8,667.38,210.85,667.38,208.6Z"/><path d="M683,208h-5.71c0,2.71,1.43,3.7,3.29,3.7a4.62,4.62,0,0,0,2.13-.52l.23.44a4.81,4.81,0,0,1-3.21,1.2,4,4,0,0,1-4-4.26,4.33,4.33,0,0,1,4.08-4.66,3.09,3.09,0,0,1,3.26,3.39C683.08,207.5,683.06,207.73,683,208Zm-5.67-.75h4.1c0-1.71-.68-2.5-1.8-2.5S677.58,205.37,677.37,207.23Z"/><path d="M703.3,199.14v.21l-1.76,1v12.21h-.8l-8.34-11.44v10.41l.1.1h1.55v.93H689.6v-.93h1.56l.1-.1V200.38l-1.76-1v-.21H693l7.41,10.2v-9l-1.76-1v-.21Z"/><path d="M704.34,208.52a4.33,4.33,0,0,1,4.37-4.62,4,4,0,0,1,4.11,4.28,4.35,4.35,0,0,1-4.32,4.62A4,4,0,0,1,704.34,208.52Zm6.87.18c0-2.27-1.22-4-2.83-4-1.37,0-2.45,1-2.45,3.25s1.16,4,2.84,4C710.2,212,711.21,210.92,711.21,208.7Z"/><path d="M715.33,210.17v-4.9l-.1-.11H714v-.1l2.69-3.54h.11v2.71h2.79v.93h-2.79V209c0,2.09.31,2.8,1.51,2.8a4.08,4.08,0,0,0,1.36-.23l.23.43a4.4,4.4,0,0,1-2.38.77C716,212.8,715.33,212.14,715.33,210.17Z"/><path d="M728.51,211.66v.93h-2.79v-.85A4.83,4.83,0,0,1,723,212.8a1.94,1.94,0,0,1-2.07-2c0-1.9,2-2.6,4.8-2.73v-.64c0-1.63-.37-2.42-1.89-2.42a4.15,4.15,0,0,0-2.4.79l-.26-.5a4.38,4.38,0,0,1,3.22-1.41,2.53,2.53,0,0,1,2.78,2.71v4.95l.1.1Zm-2.79-.29v-2.63c-1.76.13-3.33.42-3.33,1.8,0,.81.56,1.18,1.34,1.18A6.31,6.31,0,0,0,725.72,211.37Z"/><path d="M730.79,210.17v-4.9l-.11-.11h-1.24v-.1l2.69-3.54h.11v2.71H735v.93h-2.79V209c0,2.09.31,2.8,1.51,2.8a4.12,4.12,0,0,0,1.36-.23l.23.43a4.4,4.4,0,0,1-2.38.77C731.49,212.8,730.79,212.14,730.79,210.17Z"/><path d="M736.36,211.66h1.24l.1-.1v-5.63l-1.39-.66v-.11L739,203.9l.12.06v7.6l.1.1h1.24v.93h-4.13Zm.78-11a1.13,1.13,0,1,1,1.14,1.12A1.15,1.15,0,0,1,737.14,200.63Z"/><path d="M741.92,208.52a4.34,4.34,0,0,1,4.37-4.62,4,4,0,0,1,4.12,4.28,4.36,4.36,0,0,1-4.33,4.62A4,4,0,0,1,741.92,208.52Zm6.87.18c0-2.27-1.22-4-2.83-4-1.37,0-2.44,1-2.44,3.25s1.15,4,2.83,4C747.78,212,748.79,210.92,748.79,208.7Z"/><path d="M761.73,211.66v.93h-4.25v-.93h1.35l.1-.1v-3.93c0-1.78-.37-2.4-1.9-2.4a10.81,10.81,0,0,0-2.3.29v6l.11.1h1.34v.93h-4.24v-.93h1.24l.1-.1v-5.63l-1.38-.66v-.11l2.5-1.28.13.06.16,1.18a6.12,6.12,0,0,1,3-1.22c1.86,0,2.69.87,2.69,2.42v5.24l.1.1Z"/><path d="M778.38,208.68c0,2.67-2.13,3.91-4.8,3.91h-5.46v-.93h1.55l.11-.1V200.38l-1.76-1v-.21h5c3,0,4.51,1.08,4.51,3a3.48,3.48,0,0,1-2.63,3.15C776.88,205.64,778.38,206.82,778.38,208.68Zm-7-8.61v5h1.1c2,0,3.29-.87,3.29-2.81,0-1.37-1.06-2.16-2.77-2.16Zm5.22,8.61c0-1.7-1.16-2.71-3.31-2.71h-1.91v5.69h1.74C775.24,211.66,776.65,210.77,776.65,208.68Z"/><path d="M789.15,211.66v.93h-2.8v-1a6,6,0,0,1-2.85,1.2c-1.8,0-2.59-.87-2.59-2.42V206l-1.38-.66v-.1l2.71-1.31.12.06v5.09c0,1.78.35,2.4,1.8,2.4a9.83,9.83,0,0,0,2.19-.29V206l-1.38-.66v-.1l2.71-1.31.12.06v7.6l.11.1Z"/><path d="M796.52,204.05v1.51a5.66,5.66,0,0,0-1.06-.11,10.15,10.15,0,0,0-2.17.29v5.82l.1.1h1.55v.93h-4.45v-.93h1.25l.1-.1v-5.63l-1.39-.66v-.11l2.51-1.28.12.06.21,1.41A6.64,6.64,0,0,1,796,203.9.91.91,0,0,1,796.52,204.05Z"/><path d="M804.71,208H799c0,2.71,1.43,3.7,3.29,3.7a4.62,4.62,0,0,0,2.13-.52l.23.44a4.83,4.83,0,0,1-3.21,1.2,4,4,0,0,1-4-4.26,4.33,4.33,0,0,1,4.07-4.66,3.09,3.09,0,0,1,3.27,3.39C804.75,207.5,804.73,207.73,804.71,208Zm-5.67-.75h4.1c0-1.71-.68-2.5-1.8-2.5S799.25,205.37,799,207.23Z"/><path d="M813.8,211.66v.93H811v-.85a4.83,4.83,0,0,1-2.73,1.06,1.94,1.94,0,0,1-2.07-2c0-1.9,2-2.6,4.8-2.73v-.64c0-1.63-.37-2.42-1.88-2.42a4.13,4.13,0,0,0-2.4.79l-.27-.5a4.38,4.38,0,0,1,3.23-1.41,2.53,2.53,0,0,1,2.77,2.71v4.95l.1.1Zm-2.8-.29v-2.63c-1.76.13-3.33.42-3.33,1.8,0,.81.56,1.18,1.35,1.18A6.24,6.24,0,0,0,811,211.37Z"/><path d="M824.43,211.66v.93h-2.79v-1a6,6,0,0,1-2.85,1.2c-1.81,0-2.59-.87-2.59-2.42V206l-1.39-.66v-.1l2.71-1.31.13.06v5.09c0,1.78.35,2.4,1.8,2.4a9.83,9.83,0,0,0,2.19-.29V206l-1.39-.66v-.1L823,203.9l.13.06v7.6l.1.1Z"/></g><g class="cls-1"><path d="M513.84,234.66h1.55l.11-.11V223.38l-1.76-1v-.2h5.17v.2l-1.76,1v11.17l.1.11h1.56v.93h-5Z"/><path d="M535.77,234.66v.93h-4.13v-.93h1.24l.1-.11v-3.93c0-1.78-.35-2.4-1.8-2.4a9.45,9.45,0,0,0-2.26.31l0,0a3.15,3.15,0,0,1,.09.83v5.23l.1.11h1.24v.93h-4.14v-.93h1.25l.1-.11v-3.93c0-1.78-.35-2.4-1.8-2.4a9.76,9.76,0,0,0-2.19.29v6l.1.11h1.24v.93h-4.14v-.93H522l.11-.11V229l-1.39-.67v-.1l2.5-1.28.13.06.16,1.18a5.75,5.75,0,0,1,2.9-1.24c1.33,0,2.09.45,2.42,1.32a6,6,0,0,1,3-1.32c1.8,0,2.59.87,2.59,2.42v5.23l.1.11Z"/><path d="M544.69,234.66v.93H541.9v-.85a4.88,4.88,0,0,1-2.73,1,1.93,1.93,0,0,1-2.07-2c0-1.91,2-2.61,4.8-2.73v-.65c0-1.63-.37-2.42-1.88-2.42a4.13,4.13,0,0,0-2.4.79l-.27-.5a4.37,4.37,0,0,1,3.23-1.4,2.53,2.53,0,0,1,2.77,2.71v4.94l.1.11Zm-2.79-.29v-2.63c-1.76.12-3.33.41-3.33,1.8,0,.81.56,1.18,1.35,1.18A6.54,6.54,0,0,0,541.9,234.37Z"/><path d="M554.57,228.53l-2-.19a3.43,3.43,0,0,1-3.14,5.14,3.6,3.6,0,0,1-1.37-.25,1.87,1.87,0,0,0-.43,1.05c0,.58.37.85,2.23.85h.54c2.42,0,3.39.6,3.39,1.86,0,2.38-2.63,3.36-5,3.36-1.8,0-3.07-.56-3.07-1.78,0-1,.79-1.51,1.45-2.11a1.22,1.22,0,0,1-1-1.27c0-.82.81-1.59,1.51-2.13a2.86,2.86,0,0,1-1.49-2.63,3.42,3.42,0,0,1,3.56-3.53,3.22,3.22,0,0,1,2.36.89l2.4-1Zm-6.87,8a2.94,2.94,0,0,0-.48,1.53c0,1.1.75,1.55,1.9,1.55,1.43,0,3.38-.72,3.38-2,0-.71-.6-1-1.91-1h-1.53A9.13,9.13,0,0,1,547.7,236.54Zm3.82-6.06c0-1.85-.8-2.9-1.88-2.9s-1.84.76-1.84,2.4.7,2.79,1.86,2.79S551.52,232.09,551.52,230.48Z"/><path d="M562.8,231h-5.71c0,2.71,1.43,3.71,3.29,3.71a4.62,4.62,0,0,0,2.13-.52l.23.43a4.76,4.76,0,0,1-3.21,1.2,4,4,0,0,1-4-4.26,4.32,4.32,0,0,1,4.08-4.65,3.09,3.09,0,0,1,3.26,3.39C562.84,230.5,562.82,230.72,562.8,231Zm-5.67-.74h4.1c0-1.72-.68-2.51-1.8-2.51S557.34,228.37,557.13,230.23Z"/><path d="M564.48,235.3v-2.18h.1l1,1.14a2.35,2.35,0,0,0,1.66.75c.84,0,1.42-.44,1.42-1.18,0-1-1-1.37-2.07-2-1.26-.68-2-1.4-2-2.6,0-1.39,1.11-2.38,2.93-2.38a6.07,6.07,0,0,1,2.2.39v2.11h-.11l-1.07-1.2a2,2,0,0,0-1.37-.54,1.18,1.18,0,0,0-1.34,1.16c0,1,1,1.43,1.94,2s2.2,1.18,2.2,2.6a2.57,2.57,0,0,1-2.86,2.42A7.41,7.41,0,0,1,564.48,235.3Z"/><path d="M575.93,234.66h1.24l.1-.11v-6.27l-.1-.12h-1.24v-.93h1.24l.1-.11v-.55c0-4.2,1.08-5.82,3.75-5.82a5.38,5.38,0,0,1,1.92.35v2.49h-.1l-1.14-1.45a2.08,2.08,0,0,0-1.33-.46c-1.13,0-1.65.95-1.65,2.94v2.5l.1.11h3v.93h-3l-.1.12v6.27l.1.11h1.55v.93h-4.44Z"/><path d="M588.53,227v1.51a5.54,5.54,0,0,0-1.06-.1,9.55,9.55,0,0,0-2.17.29v5.81l.1.11H587v.93h-4.45v-.93h1.24l.1-.11v-5.63l-1.38-.66v-.1l2.5-1.28.12.06.21,1.4A6.6,6.6,0,0,1,588,226.9,1,1,0,0,1,588.53,227Z"/><path d="M589.42,231.51a4.33,4.33,0,0,1,4.36-4.61,4,4,0,0,1,4.12,4.28,4.34,4.34,0,0,1-4.32,4.61A4,4,0,0,1,589.42,231.51Zm6.87.19c0-2.28-1.22-4-2.84-4-1.36,0-2.44,1-2.44,3.25s1.16,4,2.84,4C595.27,235,596.29,233.91,596.29,231.7Z"/><path d="M614.46,234.66v.93h-4.14v-.93h1.24l.1-.11v-3.93c0-1.78-.35-2.4-1.8-2.4a9.3,9.3,0,0,0-2.25.31l0,0a3.65,3.65,0,0,1,.08.83v5.23l.1.11H609v.93h-4.14v-.93h1.24l.1-.11v-3.93c0-1.78-.35-2.4-1.8-2.4a9.83,9.83,0,0,0-2.19.29v6l.1.11h1.24v.93h-4.13v-.93h1.24l.1-.11V229l-1.39-.67v-.1l2.51-1.28.12.06.17,1.18a5.76,5.76,0,0,1,2.89-1.24c1.33,0,2.09.45,2.43,1.32a6,6,0,0,1,3-1.32c1.8,0,2.58.87,2.58,2.42v5.23l.11.11Z"/><path d="M633,234.66v.93h-3L626,229.54h-1.8v5l.1.11h1.55v.93h-5v-.93h1.56l.1-.11V223.38l-1.76-1v-.2h5.15c3.13,0,4.78.83,4.78,3.35a3.94,3.94,0,0,1-2.91,3.77l3.62,5.29.16.11Zm-7.7-6c2.22,0,3.54-.84,3.54-3,0-1.59-1.2-2.48-3-2.48h-1.69v5.52Z"/><path d="M641.18,231h-5.71c0,2.71,1.42,3.71,3.29,3.71a4.65,4.65,0,0,0,2.13-.52l.22.43a4.74,4.74,0,0,1-3.2,1.2,4,4,0,0,1-4-4.26,4.33,4.33,0,0,1,4.08-4.65,3.09,3.09,0,0,1,3.27,3.39C641.22,230.5,641.2,230.72,641.18,231Zm-5.67-.74h4.09c0-1.72-.68-2.51-1.8-2.51S635.71,228.37,635.51,230.23Z"/><path d="M657.67,234.66v.93h-4.14v-.93h1.24l.11-.11v-3.93c0-1.78-.36-2.4-1.8-2.4a9.32,9.32,0,0,0-2.26.31l0,0a3.65,3.65,0,0,1,.08.83v5.23l.11.11h1.24v.93h-4.14v-.93h1.24l.1-.11v-3.93c0-1.78-.35-2.4-1.8-2.4a9.83,9.83,0,0,0-2.19.29v6l.1.11h1.25v.93h-4.14v-.93h1.24l.1-.11V229l-1.38-.67v-.1l2.5-1.28.12.06.17,1.18a5.75,5.75,0,0,1,2.9-1.24c1.32,0,2.08.45,2.42,1.32a6,6,0,0,1,3-1.32c1.8,0,2.58.87,2.58,2.42v5.23l.11.11Z"/><path d="M667.42,227.23v.06l-1.12,1L663,236.15l-2,4.61L659.2,240l3-3.66-3.47-8.07-1.18-.93v-.1h4.16v.06l-1.35,1,2.55,6.13,2.4-6.15-1.47-.93v-.1Z"/><path d="M672.9,229a6.77,6.77,0,0,1,7-7.16,8.76,8.76,0,0,1,3.68.72V226h-.1l-1.08-2a3.9,3.9,0,0,0-2.92-1.18c-2.91,0-4.73,2.51-4.73,5.94,0,4,2.15,6.06,4.82,6.06a4.63,4.63,0,0,0,3-1l1.09-2.59h.11v3.62a8.45,8.45,0,0,1-4.22,1C675.78,235.9,672.9,233.25,672.9,229Z"/><path d="M695.67,234.66v.93h-4.25v-.93h1.35l.1-.11v-3.93c0-1.78-.37-2.4-1.9-2.4a10.81,10.81,0,0,0-2.3.29v6l.11.11h1.34v.93h-4.24v-.93h1.24l.1-.11V222.76l-1.38-.66V222l2.71-1.3.12.06v7.35a6,6,0,0,1,3-1.2c1.86,0,2.69.87,2.69,2.42v5.23l.1.11Z"/><path d="M704.59,234.66v.93h-2.8v-.85a4.88,4.88,0,0,1-2.73,1,1.93,1.93,0,0,1-2.07-2c0-1.91,2-2.61,4.8-2.73v-.65c0-1.63-.37-2.42-1.88-2.42a4.13,4.13,0,0,0-2.4.79l-.27-.5a4.37,4.37,0,0,1,3.23-1.4,2.53,2.53,0,0,1,2.77,2.71v4.94l.1.11Zm-2.8-.29v-2.63c-1.76.12-3.33.41-3.33,1.8,0,.81.56,1.18,1.35,1.18A6.54,6.54,0,0,0,701.79,234.37Z"/><path d="M711.91,227v1.51a5.51,5.51,0,0,0-1-.1,9.55,9.55,0,0,0-2.17.29v5.81l.1.11h1.55v.93h-4.45v-.93h1.24l.11-.11v-5.63l-1.39-.66v-.1l2.5-1.28.13.06.21,1.4a6.48,6.48,0,0,1,2.71-1.44A1,1,0,0,1,711.91,227Z"/><path d="M712.68,234.66h1.24l.11-.11V222.76l-1.39-.66V222l2.71-1.3.12.06v13.8l.11.11h1.34v.93h-4.24Z"/><path d="M718.23,234.66h1.24l.1-.11v-5.63l-1.39-.66v-.1l2.72-1.26.12.06v7.59l.1.11h1.24v.93h-4.13Zm.78-11a1.13,1.13,0,1,1,1.14,1.12A1.15,1.15,0,0,1,719,223.63Z"/><path d="M732.79,231.1a4.42,4.42,0,0,1-4.3,4.69,4.35,4.35,0,0,1-2.11-.49v4l.1.11H728v.93h-4.44v-.93h1.24l.1-.11V228.92l-1.39-.66v-.1l2.51-1.28.12.06.19,1.18a5.77,5.77,0,0,1,3.14-1.22C731.57,226.9,732.79,229,732.79,231.1Zm-1.59.45c0-1.92-.72-3.43-2.52-3.43a8.2,8.2,0,0,0-2.3.37v5.19A2.44,2.44,0,0,0,728.7,235C730.31,235,731.2,233.64,731.2,231.55Z"/><path d="M736.58,222.14a3.2,3.2,0,0,1-2.48,3.06l-.27-.5A1.93,1.93,0,0,0,735.3,223h-.06a1.15,1.15,0,0,1-1.12-1.2,1.19,1.19,0,0,1,1.16-1.23C736.15,220.54,736.58,221.23,736.58,222.14Z"/><path d="M737.7,235.3v-2.18h.1l1,1.14a2.33,2.33,0,0,0,1.65.75c.85,0,1.43-.44,1.43-1.18,0-1-1-1.37-2.07-2-1.26-.68-2-1.4-2-2.6,0-1.39,1.12-2.38,2.94-2.38a6.11,6.11,0,0,1,2.2.39v2.11h-.11l-1.07-1.2a2,2,0,0,0-1.37-.54,1.18,1.18,0,0,0-1.34,1.16c0,1,1,1.43,1.94,2s2.19,1.18,2.19,2.6a2.57,2.57,0,0,1-2.85,2.42A7.36,7.36,0,0,1,737.7,235.3Z"/><path d="M761.87,234.66v.93h-4.16v-.93h1l.11-.11-1.27-3.68H753l-1.32,3.68.1.11h1.53v.93H749v-.93h1.43l.1-.11,4.7-12.52H756l4.54,12.52.1.11Zm-4.64-4.72-1.88-5.51h0l-2,5.51Z"/><path d="M763.09,234.66h1.24l.11-.11v-5.63l-1.39-.66v-.1l2.71-1.26.13.06v7.59l.1.11h1.24v.93h-4.14Zm.79-11a1.15,1.15,0,0,1,1.14-1.14,1.13,1.13,0,1,1-1.14,1.14Z"/><path d="M774.56,227v1.51a5.54,5.54,0,0,0-1.06-.1,9.55,9.55,0,0,0-2.17.29v5.81l.1.11H773v.93h-4.44v-.93h1.24l.1-.11v-5.63l-1.39-.66v-.1l2.51-1.28.12.06.21,1.4A6.6,6.6,0,0,1,774,226.9,1,1,0,0,1,774.56,227Z"/><path d="M790.35,234.66v.93h-4.14v-.93h1.24l.1-.11v-3.93c0-1.78-.35-2.4-1.8-2.4a9.3,9.3,0,0,0-2.25.31l0,0a3.65,3.65,0,0,1,.08.83v5.23l.1.11h1.24v.93h-4.13v-.93H782l.1-.11v-3.93c0-1.78-.35-2.4-1.8-2.4a9.83,9.83,0,0,0-2.19.29v6l.1.11h1.24v.93h-4.14v-.93h1.25l.1-.11V229l-1.39-.67v-.1l2.51-1.28.12.06.17,1.18A5.76,5.76,0,0,1,781,226.9c1.33,0,2.09.45,2.42,1.32a6.07,6.07,0,0,1,3-1.32c1.8,0,2.59.87,2.59,2.42v5.23l.1.11Z"/><path d="M799.27,234.66v.93h-2.8v-.85a4.88,4.88,0,0,1-2.73,1,1.93,1.93,0,0,1-2.07-2c0-1.91,2-2.61,4.8-2.73v-.65c0-1.63-.37-2.42-1.88-2.42a4.15,4.15,0,0,0-2.4.79l-.27-.5a4.39,4.39,0,0,1,3.23-1.4,2.52,2.52,0,0,1,2.77,2.71v4.94l.11.11Zm-2.8-.29v-2.63c-1.76.12-3.33.41-3.33,1.8,0,.81.56,1.18,1.35,1.18A6.54,6.54,0,0,0,796.47,234.37Z"/><path d="M800.57,234.66h1.24l.11-.11v-5.63l-1.39-.66v-.1l2.71-1.26.13.06v7.59l.1.11h1.24v.93h-4.14Zm.79-11a1.15,1.15,0,0,1,1.14-1.14,1.13,1.13,0,1,1-1.14,1.14Z"/><path d="M806,234.66h1.25l.1-.11V222.76L806,222.1V222l2.71-1.3.13.06v13.8l.1.11h1.35v.93H806Z"/><path d="M825.59,234.66v.93h-2.9v-1a6.51,6.51,0,0,1-3.2,1.2c-2,0-3.25-2.07-3.25-4.2,0-2.36,1.36-4.69,4.3-4.69a5,5,0,0,1,2.15.43v-4.57l-1.38-.66V222l2.71-1.3.12.06v13.8l.11.11Zm-2.9-.4V229a2.48,2.48,0,0,0-2.36-1.29c-1.82,0-2.5,1.33-2.5,3.42,0,1.92.72,3.43,2.53,3.43A9,9,0,0,0,822.69,234.26Z"/><path d="M834.53,234.66v.93h-2.79v-.85a4.91,4.91,0,0,1-2.73,1,1.93,1.93,0,0,1-2.07-2c0-1.91,2-2.61,4.8-2.73v-.65c0-1.63-.37-2.42-1.89-2.42a4.15,4.15,0,0,0-2.4.79l-.26-.5a4.37,4.37,0,0,1,3.22-1.4,2.53,2.53,0,0,1,2.78,2.71v4.94l.1.11Zm-2.79-.29v-2.63c-1.76.12-3.33.41-3.33,1.8,0,.81.55,1.18,1.34,1.18A6.6,6.6,0,0,0,831.74,234.37Z"/><path d="M845.62,234.66v.93h-4.24v-.93h1.35l.1-.11v-3.93c0-1.78-.37-2.4-1.9-2.4a10.81,10.81,0,0,0-2.3.29v6l.1.11h1.35v.93h-4.24v-.93h1.24l.1-.11v-5.63l-1.39-.66v-.1l2.51-1.28.12.06.17,1.18a6,6,0,0,1,3-1.22c1.86,0,2.69.87,2.69,2.42v5.23l.1.11Z"/><path d="M847.05,231.59a4.34,4.34,0,0,1,4.39-4.69,5.43,5.43,0,0,1,2.28.45v2.44h-.11l-1.22-1.55a2,2,0,0,0-1.43-.49c-1.49,0-2.31,1.28-2.31,3.18,0,2.65,1.3,3.75,3.06,3.75a4.62,4.62,0,0,0,2.13-.52l.23.43a4.56,4.56,0,0,1-3.11,1.2C848.34,235.79,847.05,233.85,847.05,231.59Z"/><path d="M862.72,231H857c0,2.71,1.43,3.71,3.29,3.71a4.65,4.65,0,0,0,2.13-.52l.23.43a4.78,4.78,0,0,1-3.21,1.2,4,4,0,0,1-4-4.26,4.33,4.33,0,0,1,4.08-4.65,3.09,3.09,0,0,1,3.27,3.39C862.76,230.5,862.74,230.72,862.72,231Zm-5.67-.74h4.1c0-1.72-.69-2.51-1.8-2.51S857.26,228.37,857.05,230.23Z"/><path d="M864.4,235.3v-2.18h.1l1,1.14a2.37,2.37,0,0,0,1.66.75c.85,0,1.43-.44,1.43-1.18,0-1-1-1.37-2.07-2-1.26-.68-2-1.4-2-2.6,0-1.39,1.12-2.38,2.94-2.38a6.06,6.06,0,0,1,2.19.39v2.11h-.1l-1.08-1.2a1.94,1.94,0,0,0-1.36-.54,1.19,1.19,0,0,0-1.35,1.16c0,1,1,1.43,2,2s2.19,1.18,2.19,2.6-1.28,2.42-2.86,2.42A7.31,7.31,0,0,1,864.4,235.3Z"/></g></g></g></g></svg>