<svg xmlns="http://www.w3.org/2000/svg" viewBox="0 0 439.94 364.92"><defs><style>.cls-1,.cls-10,.cls-100,.cls-101,.cls-102,.cls-103,.cls-104,.cls-106,.cls-107,.cls-108,.cls-11,.cls-12,.cls-13,.cls-14,.cls-15,.cls-16,.cls-17,.cls-18,.cls-19,.cls-2,.cls-20,.cls-21,.cls-22,.cls-23,.cls-24,.cls-25,.cls-26,.cls-27,.cls-28,.cls-29,.cls-3,.cls-30,.cls-31,.cls-32,.cls-33,.cls-34,.cls-35,.cls-36,.cls-37,.cls-38,.cls-39,.cls-4,.cls-40,.cls-41,.cls-42,.cls-43,.cls-44,.cls-45,.cls-46,.cls-47,.cls-48,.cls-49,.cls-5,.cls-50,.cls-51,.cls-52,.cls-53,.cls-54,.cls-55,.cls-56,.cls-57,.cls-58,.cls-59,.cls-6,.cls-60,.cls-61,.cls-62,.cls-63,.cls-64,.cls-65,.cls-66,.cls-67,.cls-68,.cls-69,.cls-7,.cls-70,.cls-71,.cls-72,.cls-73,.cls-74,.cls-75,.cls-76,.cls-77,.cls-78,.cls-79,.cls-8,.cls-80,.cls-81,.cls-82,.cls-83,.cls-84,.cls-85,.cls-86,.cls-87,.cls-88,.cls-89,.cls-9,.cls-90,.cls-91,.cls-92,.cls-93,.cls-94,.cls-95,.cls-96,.cls-97,.cls-98,.cls-99{fill:none;}.cls-1,.cls-10,.cls-100,.cls-101,.cls-102,.cls-103,.cls-104,.cls-106,.cls-107,.cls-108,.cls-11,.cls-12,.cls-13,.cls-14,.cls-15,.cls-16,.cls-17,.cls-18,.cls-19,.cls-2,.cls-20,.cls-21,.cls-22,.cls-23,.cls-24,.cls-25,.cls-26,.cls-27,.cls-28,.cls-29,.cls-3,.cls-30,.cls-31,.cls-32,.cls-33,.cls-34,.cls-35,.cls-36,.cls-37,.cls-38,.cls-39,.cls-4,.cls-40,.cls-41,.cls-42,.cls-43,.cls-44,.cls-45,.cls-46,.cls-47,.cls-48,.cls-49,.cls-5,.cls-50,.cls-51,.cls-52,.cls-54,.cls-55,.cls-56,.cls-57,.cls-58,.cls-59,.cls-6,.cls-60,.cls-61,.cls-62,.cls-63,.cls-64,.cls-65,.cls-66,.cls-67,.cls-68,.cls-69,.cls-7,.cls-70,.cls-71,.cls-72,.cls-73,.cls-74,.cls-75,.cls-76,.cls-77,.cls-78,.cls-79,.cls-8,.cls-80,.cls-81,.cls-82,.cls-83,.cls-84,.cls-85,.cls-86,.cls-87,.cls-88,.cls-89,.cls-9,.cls-90,.cls-91,.cls-92,.cls-93,.cls-94,.cls-95,.cls-96,.cls-97,.cls-98,.cls-99{stroke:#000;}.cls-1{stroke-width:0.2px;}.cls-1,.cls-10,.cls-100,.cls-101,.cls-102,.cls-103,.cls-104,.cls-11,.cls-12,.cls-13,.cls-14,.cls-15,.cls-16,.cls-17,.cls-18,.cls-19,.cls-2,.cls-20,.cls-21,.cls-22,.cls-23,.cls-24,.cls-25,.cls-26,.cls-27,.cls-28,.cls-29,.cls-3,.cls-30,.cls-31,.cls-32,.cls-33,.cls-34,.cls-35,.cls-36,.cls-37,.cls-38,.cls-39,.cls-4,.cls-40,.cls-41,.cls-42,.cls-43,.cls-44,.cls-45,.cls-46,.cls-47,.cls-48,.cls-49,.cls-5,.cls-50,.cls-51,.cls-52,.cls-54,.cls-55,.cls-56,.cls-57,.cls-58,.cls-59,.cls-6,.cls-60,.cls-61,.cls-62,.cls-63,.cls-64,.cls-65,.cls-66,.cls-67,.cls-68,.cls-69,.cls-7,.cls-70,.cls-71,.cls-72,.cls-73,.cls-74,.cls-75,.cls-76,.cls-77,.cls-78,.cls-79,.cls-8,.cls-80,.cls-81,.cls-82,.cls-83,.cls-84,.cls-85,.cls-86,.cls-87,.cls-88,.cls-89,.cls-9,.cls-90,.cls-91,.cls-92,.cls-93,.cls-94,.cls-95,.cls-96,.cls-97,.cls-98,.cls-99{opacity:0.7;}.cls-1,.cls-10,.cls-100,.cls-101,.cls-102,.cls-103,.cls-104,.cls-105,.cls-11,.cls-12,.cls-13,.cls-14,.cls-15,.cls-16,.cls-17,.cls-18,.cls-19,.cls-2,.cls-20,.cls-21,.cls-22,.cls-23,.cls-24,.cls-25,.cls-26,.cls-27,.cls-28,.cls-29,.cls-3,.cls-30,.cls-31,.cls-32,.cls-33,.cls-34,.cls-35,.cls-36,.cls-37,.cls-38,.cls-39,.cls-4,.cls-40,.cls-41,.cls-42,.cls-43,.cls-44,.cls-45,.cls-46,.cls-47,.cls-48,.cls-49,.cls-5,.cls-50,.cls-51,.cls-52,.cls-54,.cls-55,.cls-56,.cls-57,.cls-58,.cls-59,.cls-6,.cls-60,.cls-61,.cls-62,.cls-63,.cls-64,.cls-65,.cls-66,.cls-67,.cls-68,.cls-69,.cls-7,.cls-70,.cls-71,.cls-72,.cls-73,.cls-74,.cls-75,.cls-76,.cls-77,.cls-78,.cls-79,.cls-8,.cls-80,.cls-81,.cls-82,.cls-83,.cls-84,.cls-85,.cls-86,.cls-87,.cls-88,.cls-89,.cls-9,.cls-90,.cls-91,.cls-92,.cls-93,.cls-94,.cls-95,.cls-96,.cls-97,.cls-98,.cls-99{isolation:isolate;}.cls-2{stroke-width:0.3px;}.cls-3{stroke-width:0.35px;}.cls-4{stroke-width:0.56px;}.cls-5{stroke-width:0.54px;}.cls-6{stroke-width:0.16px;}.cls-7{stroke-width:0.54px;}.cls-8{stroke-width:0.22px;}.cls-9{stroke-width:0.17px;}.cls-10{stroke-width:0.1px;}.cls-11{stroke-width:0.2px;}.cls-12{stroke-width:0.11px;}.cls-13{stroke-width:0.17px;}.cls-14{stroke-width:0.2px;}.cls-15{stroke-width:1.72px;}.cls-16{stroke-width:0.28px;}.cls-17{stroke-width:0.37px;}.cls-18{stroke-width:0.36px;}.cls-19{stroke-width:0.43px;}.cls-20{stroke-width:0.21px;}.cls-21{stroke-width:0.08px;}.cls-22{stroke-width:0.22px;}.cls-23{stroke-width:0.29px;}.cls-24{stroke-width:0.3px;}.cls-25{stroke-width:2px;}.cls-26{stroke-width:0.41px;}.cls-27{stroke-width:0.47px;}.cls-28{stroke-width:0.52px;}.cls-29{stroke-width:0.67px;}.cls-30{stroke-width:0.29px;}.cls-31{stroke-width:0.24px;}.cls-32{stroke-width:0.2px;}.cls-33{stroke-width:0.71px;}.cls-34{stroke-width:0.75px;}.cls-35{stroke-width:0.22px;}.cls-36{stroke-width:0.72px;}.cls-37{stroke-width:0.73px;}.cls-38{stroke-width:0.12px;}.cls-39{stroke-width:0.15px;}.cls-40{stroke-width:0.68px;}.cls-41{stroke-width:0.88px;}.cls-42{stroke-width:0.15px;}.cls-43{stroke-width:0.47px;}.cls-44{stroke-width:0.24px;}.cls-45{stroke-width:0.1px;}.cls-46{stroke-width:0.15px;}.cls-47{stroke-width:0.27px;}.cls-48{stroke-width:1.2px;}.cls-49{stroke-width:0.12px;}.cls-50{stroke-width:1.82px;}.cls-51{stroke-width:1.88px;}.cls-52{stroke-width:0.23px;}.cls-54{stroke-width:0.03px;}.cls-55{stroke-width:0.08px;}.cls-56{stroke-width:0.07px;}.cls-57{stroke-width:0.89px;}.cls-58{stroke-width:0.18px;}.cls-59{stroke-width:0.95px;}.cls-60{stroke-width:0.24px;}.cls-61{stroke-width:0.14px;}.cls-62{stroke-width:0.31px;}.cls-63{stroke-width:0.03px;}.cls-64{stroke-width:0.03px;}.cls-65{stroke-width:0.76px;}.cls-66{stroke-width:0.76px;}.cls-67{stroke-width:0.5px;}.cls-68{stroke-width:0.84px;}.cls-69{stroke-width:0.86px;}.cls-70{stroke-width:0.17px;}.cls-71{stroke-width:0.6px;}.cls-72{stroke-width:0.19px;}.cls-73{stroke-width:0.26px;}.cls-74{stroke-width:0.14px;}.cls-75{stroke-width:0.14px;}.cls-76{stroke-width:1.19px;}.cls-77{stroke-width:1.52px;}.cls-78{stroke-width:0.13px;}.cls-79{stroke-width:0.2px;}.cls-80{stroke-width:0.61px;}.cls-81{stroke-width:0.67px;}.cls-82{stroke-width:0.61px;}.cls-83{stroke-width:0.18px;}.cls-84{stroke-width:0.67px;}.cls-85{stroke-width:0.24px;}.cls-86{stroke-width:0.85px;}.cls-87{stroke-width:0.35px;}.cls-88{stroke-width:0.87px;}.cls-89{stroke-width:0.09px;}.cls-90{stroke-width:0.1px;}.cls-91{stroke-width:0.27px;}.cls-92{stroke-width:0.1px;}.cls-93{stroke-width:0.15px;}.cls-94{stroke-width:0.21px;}.cls-95{stroke-width:0.19px;}.cls-96{stroke-width:0.23px;}.cls-97{stroke-width:0.03px;}.cls-98{stroke-width:0.14px;}.cls-99{stroke-width:0.14px;}.cls-100{stroke-width:0.14px;}.cls-101{stroke-width:0.25px;}.cls-102{stroke-width:1.7px;}.cls-103{stroke-width:0.12px;}.cls-104{stroke-width:1.99px;}.cls-106{stroke-width:1.5px;}.cls-107,.cls-108{stroke-miterlimit:10;opacity:0.92;}.cls-107{stroke-width:6px;}.cls-108{stroke-width:9px;}</style></defs><title>Asset 41allocate-resources</title><g id="Layer_2" data-name="Layer 2"><g id="Layer_1-2" data-name="Layer 1"><g id="sleepingbeauty_bluebird_ALL" data-name="sleepingbeauty bluebird ALL"><g id="Group_234" data-name="Group 234"><g id="Group_233" data-name="Group 233"><path id="Path_12969" data-name="Path 12969" class="cls-1" d="M131,122.26l.66.54c.65.54,2,1.61,3.17,2.79a32.24,32.24,0,1,1-8.26-5.79c1.52.74,3,1.6,3.7,2l.73.43"/><path id="Path_12970" data-name="Path 12970" class="cls-2" d="M131.48,121.58l.67.55c.67.55,2,1.66,3.25,2.86a33,33,0,0,1,8.29,13,10,10,0,0,0,2.9,5c1.91,1.68,5.28,3.35,5.31,5.08s-3.29,3.52-5.13,5.26a9.89,9.89,0,0,0-2.73,5.1,33.07,33.07,0,1,1-21.94-41.3,31.91,31.91,0,0,1,4.83,1.91c1.56.75,3.06,1.64,3.8,2.08l.75.44"/><path id="Path_12971" data-name="Path 12971" class="cls-3" d="M131.55,121.48l.67.55c.67.56,2,1.67,3.27,2.87A33.23,33.23,0,0,1,143.81,138a9,9,0,0,0,3.14,5c2.15,1.68,6,3.35,6,5.09s-3.77,3.53-5.85,5.29a9,9,0,0,0-3,5.11,33.19,33.19,0,1,1-22-41.45,34.15,34.15,0,0,1,4.85,1.91c1.56.77,3.06,1.65,3.81,2.09l.75.45"/><path id="Path_12972" data-name="Path 12972" class="cls-4" d="M132.25,120.48l.7.57c.7.58,2.09,1.73,3.38,3a34.4,34.4,0,0,1-12.72,57.27,7.53,7.53,0,0,0-5.18,4.34c-1.72,3.3-3.42,9.45-5.22,9.47s-3.7-6.05-5.54-9.29a7.49,7.49,0,0,0-5.32-4.16,34.41,34.41,0,1,1,25.17-63.81c1.62.79,3.17,1.71,4,2.17l.78.46"/><path id="Path_12973" data-name="Path 12973" class="cls-5" d="M132.27,120.45l.7.57c.7.58,2.09,1.73,3.39,3a34.43,34.43,0,1,1-35.13-7.81,7.57,7.57,0,0,0,5.18-4.22c1.73-3.19,3.43-9.12,5.23-9.15s3.71,5.83,5.54,9a7.6,7.6,0,0,0,5.33,4,34.33,34.33,0,0,1,5,2c1.62.79,3.17,1.71,4,2.17l.78.46"/><path id="Path_12974" data-name="Path 12974" class="cls-6" d="M134.25,117.62l.77.64c.77.63,2.3,1.9,3.72,3.27A37.87,37.87,0,1,1,100.11,113a26.78,26.78,0,0,0,5.74-2.32c2-1.19,3.89-3.06,5.88-3.09s4,1.77,6,2.89a27.36,27.36,0,0,0,5.81,2.12,37.59,37.59,0,0,1,5.53,2.18c1.78.87,3.5,1.88,4.35,2.39l.86.5"/><path id="Path_12975" data-name="Path 12975" class="cls-7" d="M135.73,115.51l.82.68c.82.67,2.46,2,4,3.5a40.44,40.44,0,0,1-15,67.32c-2,.69-4,1.22-6.09,4.47s-4,9.22-6.17,9.26-4.33-5.86-6.48-9-4.22-3.65-6.24-4.27a40.44,40.44,0,1,1,23.68-77.33,40,40,0,0,1,5.9,2.33c1.9.93,3.73,2,4.64,2.54l.92.54"/><path id="Path_12976" data-name="Path 12976" class="cls-8" d="M135.82,115.39l.82.68c.82.68,2.47,2,4,3.51a40.5,40.5,0,0,1,10.18,16,20.22,20.22,0,0,0,2.76,6.14c1.53,2.08,4.06,4.16,4.1,6.29s-2.43,4.29-3.89,6.41a20.53,20.53,0,0,0-2.54,6.24A40.59,40.59,0,1,1,124.31,110a41.87,41.87,0,0,1,5.92,2.34c1.91.93,3.75,2,4.67,2.56l.92.54"/><path id="Path_12977" data-name="Path 12977" class="cls-9" d="M136.92,113.82l.86.71c.86.71,2.58,2.13,4.18,3.68a42.5,42.5,0,1,1-10.89-7.63c2,1,3.92,2.11,4.88,2.67l1,.57"/><path id="Path_12978" data-name="Path 12978" class="cls-10" d="M137.85,112.49l.89.74c.89.74,2.68,2.21,4.34,3.82a44,44,0,0,1,11.06,17.37c.75,2.19,1.33,4.43,2.26,6.7s2.21,4.55,2.25,6.86-1.16,4.64-2,6.94-1.36,4.55-2,6.76a44.11,44.11,0,1,1-29.27-55.09,42.87,42.87,0,0,1,6.44,2.54c2.08,1,4.07,2.19,5.07,2.77l1,.59"/><path id="Path_12979" data-name="Path 12979" class="cls-11" d="M145.15,114.91a47.08,47.08,0,1,1-12.07-8.46c2.22,1.09,4.35,2.34,5.41,3l1.07.63"/><path id="Path_12979-2" data-name="Path 12979" class="cls-11" d="M139.56,110.05"/><path id="Path_12980" data-name="Path 12980" class="cls-12" d="M140.42,108.83l1,.81c1,.81,2.95,2.43,4.78,4.2A48.58,48.58,0,0,1,158.36,133c.83,2.41,1.46,4.88,2.48,7.37s2.44,5,2.48,7.56S162,153,161.1,155.54s-1.49,5-2.23,7.45a48.59,48.59,0,1,1-25.13-57.87c2.28,1.11,4.48,2.41,5.58,3.06l1.1.65"/><path id="Path_12981" data-name="Path 12981" class="cls-13" d="M142,106.59l1,.86c1,.86,3.12,2.57,5,4.44a51.3,51.3,0,1,1-13.14-9.21c2.41,1.18,4.73,2.54,5.89,3.23l1.16.68"/><path id="Path_12982" data-name="Path 12982" class="cls-14" d="M142.11,106.41l1,.86c1,.87,3.13,2.59,5.07,4.46a51.51,51.51,0,1,1-52.54-11.67,40.3,40.3,0,0,0,7.8-3.1c2.64-1.55,5.3-4,8-4s5.44,2.28,8.13,3.73a39.75,39.75,0,0,0,7.91,2.84,51.61,51.61,0,0,1,7.51,3c2.43,1.18,4.76,2.56,5.92,3.25l1.17.68"/><path id="Path_12983" data-name="Path 12983" class="cls-15" d="M142.31,106.13l1.05.87c1,.87,3.15,2.6,5.1,4.48a51.85,51.85,0,1,1-52.9-11.75c2.57-.88,5.21-1.56,7.73-11.2s4.91-28.22,7.63-28.27,5.74,18.45,8.59,28,5.5,10.13,8.1,10.93a52.18,52.18,0,0,1,7.57,3c2.44,1.19,4.78,2.58,5.95,3.27l1.18.69"/><path id="Path_12984" data-name="Path 12984" class="cls-16" d="M142.4,106l1.06.87c1,.87,3.16,2.61,5.12,4.5A52,52,0,1,1,95.51,99.57c2.58-.88,5.22-1.57,7.88-3.53s5.32-5.19,8-5.23,5.5,3.09,8.22,5,5.39,2.46,8,3.25a52.06,52.06,0,0,1,7.59,3c2.45,1.19,4.8,2.58,6,3.28l1.17.69"/><path id="Path_12985" data-name="Path 12985" class="cls-17" d="M142.47,105.9l1.05.87c1.06.87,3.17,2.61,5.13,4.51A52.13,52.13,0,1,1,95.47,99.47c2.58-.89,5.24-1.57,7.89-4s5.32-6.58,8-6.63,5.53,4,8.27,6.35,5.41,2.92,8,3.72a52.3,52.3,0,0,1,7.61,3c2.45,1.2,4.81,2.59,6,3.28l1.18.7"/><path id="Path_12986" data-name="Path 12986" class="cls-18" d="M142.49,105.87l1.06.87c1,.87,3.17,2.62,5.13,4.51a52.31,52.31,0,0,1,13.08,20.55c.89,2.59,1.57,5.24,4,7.9s6.52,5.32,6.57,8.05-4,5.53-6.29,8.27-2.9,5.41-3.7,8a52.23,52.23,0,1,1-27-62.15c2.46,1.2,4.82,2.59,6,3.28l1.18.7"/><path id="Path_12987" data-name="Path 12987" class="cls-19" d="M142.54,105.8l1.06.87c1.05.88,3.17,2.62,5.14,4.53a52.24,52.24,0,0,1-19.33,87c-2.58.89-5.24,1.58-7.9,4.33s-5.31,7.58-8,7.62-5.55-4.68-8.3-7.34-5.43-3.26-8-4.06a52.25,52.25,0,1,1,30.62-99.92,52.87,52.87,0,0,1,7.6,3c2.46,1.2,4.82,2.6,6,3.29l1.19.7"/><path id="Path_12988" data-name="Path 12988" class="cls-20" d="M142.62,105.68l1.07.87c1.06.88,3.18,2.63,5.15,4.54A52.4,52.4,0,1,1,95.39,99.21,38.55,38.55,0,0,0,103.33,96c2.68-1.6,5.38-4.12,8.13-4.17s5.52,2.38,8.26,3.9a38.83,38.83,0,0,0,8,2.91,51.74,51.74,0,0,1,7.65,3c2.46,1.2,4.83,2.6,6,3.3l1.18.7"/><path id="Path_12989" data-name="Path 12989" class="cls-21" d="M142.65,105.64l1.06.88c1.06.87,3.19,2.63,5.16,4.54A52.46,52.46,0,0,1,162,131.71c.89,2.6,1.58,5.27,2.48,8s2,5.43,2.06,8.17-1,5.51-1.78,8.24-1.4,5.42-2.21,8a52.44,52.44,0,1,1-34.79-65.5,51.43,51.43,0,0,1,7.66,3c2.46,1.2,4.84,2.6,6,3.3l1.19.7"/><path id="Path_12990" data-name="Path 12990" class="cls-22" d="M142.7,105.57l1.06.88c1.07.88,3.2,2.63,5.18,4.55a52.52,52.52,0,1,1-13.46-9.44c2.47,1.21,4.84,2.61,6,3.31l1.19.7"/><path id="Path_12991" data-name="Path 12991" class="cls-23" d="M142.73,105.52l1.07.88c1.06.88,3.19,2.64,5.17,4.55a52.65,52.65,0,0,1,13.19,20.71c.89,2.61,1.59,5.28,3.58,8s5.28,5.38,5.33,8.14-3.15,5.56-5,8.31-2.5,5.45-3.31,8.08A52.55,52.55,0,1,1,135.5,101.5c2.48,1.21,4.86,2.61,6.05,3.32l1.18.7"/><path id="Path_12992" data-name="Path 12992" class="cls-24" d="M142.75,105.5l1.07.87c1.06.88,3.19,2.64,5.18,4.56A52.62,52.62,0,1,1,95.31,99c2.61-.89,5.29-1.58,8-3.65s5.38-5.5,8.13-5.54,5.57,3.29,8.32,5.26,5.46,2.57,8.09,3.38a52.38,52.38,0,0,1,7.68,3c2.48,1.21,4.86,2.61,6.05,3.31l1.19.71"/><path id="Path_12993" data-name="Path 12993" class="cls-25" d="M143,105.13l1.07.89c1.08.89,3.23,2.66,5.23,4.59a53.08,53.08,0,1,1-54.14-12c2.63-.91,5.33-1.61,7.88-12.73s5-32.69,7.75-32.74,5.92,21.42,8.85,32.45S125.31,97.21,128,98a52.62,52.62,0,0,1,7.75,3c2.49,1.22,4.89,2.64,6.1,3.34l1.2.71"/><path id="Path_12994" data-name="Path 12994" class="cls-26" d="M143.08,105l1.08.89c1.08.89,3.23,2.67,5.23,4.61a53.2,53.2,0,0,1-19.67,88.55c-2.63.91-5.34,1.6-8,4.25s-5.41,7.22-8.2,7.27-5.64-4.44-8.44-7-5.52-3.15-8.18-4A53.2,53.2,0,1,1,128,97.9a53.92,53.92,0,0,1,7.76,3.06c2.51,1.23,4.91,2.65,6.12,3.36l1.2.7"/><path id="Path_12995" data-name="Path 12995" class="cls-27" d="M143.19,104.86l1.08.9c1.09.89,3.25,2.67,5.26,4.62a53.4,53.4,0,1,1-54.47-12.1c2.65-.91,5.36-1.61,8.07-4.57s5.42-8.18,8.22-8.23,5.68,5.08,8.49,7.94,5.54,3.48,8.22,4.3a52.08,52.08,0,0,1,7.79,3.07c2.51,1.23,4.93,2.65,6.14,3.36l1.2.71"/><path id="Path_12996" data-name="Path 12996" class="cls-28" d="M143.53,104.39l1.09.9c1.09.9,3.28,2.7,5.32,4.67a54,54,0,0,1-20,89.85c-2.67.91-5.42,1.62-8.16,4.88s-5.46,9.07-8.28,9.11-5.75-5.66-8.6-8.82-5.61-3.78-8.31-4.61a54,54,0,1,1,31.61-103.2,53.15,53.15,0,0,1,7.87,3.1c2.53,1.24,5,2.68,6.2,3.4l1.22.72"/><path id="Path_12997" data-name="Path 12997" class="cls-29" d="M144,103.74l1.11.91c1.11.92,3.33,2.75,5.39,4.74A54.76,54.76,0,1,1,94.62,97c2.71-.93,5.5-1.65,8.26-5.72s5.5-11.5,8.37-11.55S117.11,87,120,91s5.71,4.6,8.45,5.44a54.84,54.84,0,0,1,8,3.16c2.58,1.25,5.06,2.72,6.3,3.45l1.23.73"/><path id="Path_12998" data-name="Path 12998" class="cls-30" d="M145.41,101.71l1.15,1c1.16,1,3.48,2.87,5.64,5A57.22,57.22,0,0,1,131,202.88c-2.83,1-5.74,1.73-8.67,3.79s-5.86,5.44-8.86,5.49-6-3.22-9-5.19-5.93-2.61-8.79-3.49A57.23,57.23,0,1,1,137.53,97.34c2.7,1.32,5.29,2.84,6.58,3.61l1.3.76"/><path id="Path_12999" data-name="Path 12999" class="cls-31" d="M145.64,101.37l1.17,1c1.17,1,3.5,2.89,5.67,5a57.64,57.64,0,0,1-21.31,96c-2.86,1-5.79,1.74-8.74,3.54s-5.92,4.66-8.94,4.71-6.08-2.7-9.09-4.4-6-2.36-8.85-3.24A57.64,57.64,0,1,1,137.72,97c2.71,1.32,5.32,2.86,6.62,3.63l1.3.77"/><path id="Path_13000" data-name="Path 13000" class="cls-32" d="M146.65,99.93l1.21,1c1.2,1,3.61,3,5.84,5.14a59.29,59.29,0,0,1,14.89,23.39,61.26,61.26,0,0,0,3.38,9c1.58,3,4,6.11,4,9.22s-2.22,6.26-3.7,9.36a61.84,61.84,0,0,0-3.07,9.11,59.37,59.37,0,1,1-30.73-70.76c2.79,1.37,5.48,3,6.82,3.74l1.34.8"/><path id="Path_13001" data-name="Path 13001" class="cls-33" d="M146.72,99.83l1.21,1c1.2,1,3.61,3,5.85,5.15a59.5,59.5,0,0,1-22,99.06c-2.95,1-6,1.8-9,6.1s-6,12.14-9.11,12.19-6.36-7.67-9.51-11.87S98,206.58,95,205.67A59.51,59.51,0,1,1,138.54,95.29c2.8,1.37,5.49,2.95,6.83,3.75l1.35.79"/><path id="Path_13002" data-name="Path 13002" class="cls-34" d="M146.88,99.61l1.21,1c1.21,1,3.63,3,5.88,5.17A59.8,59.8,0,1,1,93,92.24c3-1,6-1.81,9-6.31s6-12.74,9.14-12.79,6.4,8.07,9.56,12.47,6.23,5.08,9.23,6a58.3,58.3,0,0,1,8.72,3.44c2.82,1.37,5.52,3,6.87,3.76l1.36.8"/><path id="Path_13003" data-name="Path 13003" class="cls-35" d="M147.09,99.3l1.22,1c1.22,1,3.65,3,5.92,5.2a60.28,60.28,0,0,1,15.08,23.7,52.81,52.81,0,0,0,3.52,9.12c1.71,3.08,4.33,6.18,4.39,9.33s-2.47,6.35-4.07,9.48a53.26,53.26,0,0,0-3.21,9.24,60.13,60.13,0,1,1-31.12-71.67c2.83,1.38,5.55,3,6.91,3.79l1.36.8"/><path id="Path_13004" data-name="Path 13004" class="cls-36" d="M147.2,99.15l1.22,1c1.22,1,3.67,3,5.94,5.22A60.36,60.36,0,1,1,92.81,91.71c3-1,6-1.82,9.1-6.2s6.07-12.36,9.23-12.42,6.45,7.82,9.64,12.09,6.29,5,9.31,5.89a60.64,60.64,0,0,1,8.81,3.48c2.84,1.38,5.57,3,6.93,3.8l1.37.8"/><path id="Path_13005" data-name="Path 13005" class="cls-37" d="M147.21,99.13l1.23,1c1.22,1,3.67,3,5.94,5.22a60.36,60.36,0,0,1-22.33,100.49c-3,1-6.06,1.82-9.1,6.25s-6.08,12.49-9.23,12.54-6.46-7.9-9.66-12.22-6.29-5-9.31-5.93a60.37,60.37,0,1,1,44.16-112c2.84,1.39,5.57,3,6.94,3.8l1.36.81"/><path id="Path_13006" data-name="Path 13006" class="cls-38" d="M148.21,97.7l1.26,1c1.26,1,3.78,3.11,6.11,5.37A62.1,62.1,0,1,1,139.67,93c2.92,1.43,5.73,3.08,7.14,3.91l1.4.83"/><path id="Path_13007" data-name="Path 13007" class="cls-39" d="M143.68,204.45A63.86,63.86,0,1,1,131.12,87.71a64.42,64.42,0,0,1,9.32,3.67c3,1.47,5.9,3.17,7.34,4l1.45.85"/><path id="Path_13007-2" data-name="Path 13007" class="cls-39" d="M149.23,96.26l1.29,1.06c1.29,1.07,3.88,3.21,6.28,5.53a63.71,63.71,0,0,1,16,25.15c1.09,3.16,1.93,6.41,3.33,9.69s3.36,6.59,3.41,9.93-1.79,6.72-3.07,10-2,6.6-3,9.79a63.58,63.58,0,0,1-29.8,37"/><path id="Path_13008" data-name="Path 13008" class="cls-40" d="M150.26,94.78l1.33,1.1c1.33,1.09,4,3.29,6.46,5.68a65.66,65.66,0,1,1-67-14.88c3.25-1.12,6.59-2,9.91-6.21s6.63-11.81,10.07-11.87,7,7.41,10.47,11.53S128.36,85,131.65,86a65.75,65.75,0,0,1,9.58,3.78c3.09,1.51,6.06,3.26,7.55,4.13l1.48.88"/><path id="Path_13009" data-name="Path 13009" class="cls-41" d="M150.41,94.57l1.33,1.1c1.34,1.1,4,3.31,6.49,5.7a65.92,65.92,0,1,1-16.89-11.83c3.1,1.51,6.09,3.27,7.57,4.15l1.5.88"/><path id="Path_13010" data-name="Path 13010" class="cls-42" d="M150.86,93.93l1.35,1.12c1.35,1.11,4,3.34,6.56,5.77a66.67,66.67,0,1,1-17.08-12c3.13,1.53,6.15,3.31,7.66,4.2l1.51.89"/><path id="Path_13011" data-name="Path 13011" class="cls-43" d="M151,93.74l1.35,1.12c1.36,1.12,4.07,3.36,6.59,5.79a66.95,66.95,0,1,1-17.15-12c3.15,1.53,6.18,3.32,7.69,4.21l1.52.89"/><path id="Path_13012" data-name="Path 13012" class="cls-44" d="M151.51,93l1.37,1.13c1.37,1.14,4.12,3.4,6.67,5.87a67.8,67.8,0,1,1-17.37-12.18c3.19,1.56,6.26,3.37,7.79,4.28l1.54.9"/><path id="Path_13013" data-name="Path 13013" class="cls-45" d="M151.71,92.71l1.38,1.14c1.38,1.14,4.15,3.42,6.71,5.9a68,68,0,0,1,17.09,26.85c1.16,3.37,2.06,6.84,3.19,10.35s2.48,7.05,2.54,10.62-1.17,7.16-2.18,10.7-1.78,7-2.83,10.45a68.21,68.21,0,1,1-35.28-81.21c3.21,1.56,6.3,3.38,7.84,4.29l1.54.91"/><path id="Path_13014" data-name="Path 13014" class="cls-46" d="M151.72,92.7l1.38,1.14c1.38,1.14,4.15,3.42,6.71,5.9A68.2,68.2,0,0,1,134.6,213.25c-3.38,1.16-6.85,2.05-10.35,3.46s-7,3.31-10.61,3.37-7.17-1.73-10.72-3-7-2.06-10.46-3.11a68.18,68.18,0,0,1,39.9-130.4,69,69,0,0,1,10,3.94c3.21,1.56,6.29,3.38,7.84,4.29l1.54.91"/><path id="Path_13015" data-name="Path 13015" class="cls-47" d="M151.73,92.69l1.38,1.14c1.38,1.14,4.14,3.42,6.71,5.9A68.21,68.21,0,1,1,90.25,84.28c3.38-1.17,6.85-2.06,10.34-4.13s7-5.32,10.58-5.38,7.19,3.06,10.75,5,7.06,2.73,10.47,3.78a67.14,67.14,0,0,1,10,3.93c3.21,1.56,6.29,3.38,7.83,4.29l1.55.91"/><path id="Path_13016" data-name="Path 13016" class="cls-48" d="M152.1,92.16l1.39,1.15c1.39,1.15,4.18,3.45,6.77,6a68.82,68.82,0,0,1,14,79.7c-1.58,3.24-3.42,6.35-.91,13.73s9.36,19,6.85,21.6-14.36-3.87-21.82-6.12-10.5-.31-13.68,1.38a68.84,68.84,0,1,1-2.09-122.65c3.24,1.58,6.35,3.42,7.91,4.33l1.56.92"/><path id="Path_13017" data-name="Path 13017" class="cls-49" d="M153.06,90.79,154.48,92c1.43,1.18,4.29,3.54,6.94,6.1a70.49,70.49,0,1,1-18.06-12.66c3.31,1.62,6.5,3.5,8.1,4.44l1.6.94"/><path id="Path_13018" data-name="Path 13018" class="cls-33" d="M153.33,90.4l1.44,1.19c1.44,1.18,4.31,3.56,7,6.14A71,71,0,1,1,48.64,117.62c1.63-3.34,3.53-6.55,3-12.21S48,91.64,50.56,89s10.79.09,16.47.47,8.82-1.62,12.1-3.36A71,71,0,0,1,143.57,85c3.34,1.63,6.55,3.53,8.15,4.47l1.61,1"/><path id="Path_13019" data-name="Path 13019" class="cls-50" d="M153.57,90.05l1.45,1.2c1.45,1.19,4.34,3.58,7,6.17A71.37,71.37,0,0,1,180,125.55c1.21,3.53,2.15,7.17,12.49,10.68s30.09,6.92,30.15,10.66S203,154.7,192.82,158.57s-11,7.53-12.12,11.1A71.41,71.41,0,1,1,143.75,84.6c3.36,1.64,6.59,3.55,8.21,4.5l1.61,1"/><path id="Path_13020" data-name="Path 13020" class="cls-51" d="M153.69,89.89l1.45,1.19c1.45,1.2,4.35,3.59,7.05,6.2a71.73,71.73,0,0,1,17.95,28.2c1.22,3.55,2.16,7.19,12.79,10.71s31,6.93,31,10.68-20.14,7.84-30.65,11.72-11.32,7.56-12.42,11.14a71.59,71.59,0,1,1-37-85.31c3.37,1.65,6.61,3.56,8.23,4.51l1.62,1"/><path id="Path_13021" data-name="Path 13021" class="cls-31" d="M153.7,89.87l1.45,1.2c1.45,1.2,4.35,3.59,7,6.2a71.61,71.61,0,0,1,14.58,82.92c-1.64,3.37-3.55,6.61-4.78,10.57s-1.78,8.65-4.39,11.35-7.27,3.4-11.18,4.77-7.1,3.38-10.41,5.14a71.62,71.62,0,1,1-2.17-127.61c3.37,1.64,6.61,3.55,8.23,4.51l1.62,1"/><path id="Path_13022" data-name="Path 13022" class="cls-52" d="M153.71,89.86l1.45,1.2c1.45,1.2,4.35,3.59,7.05,6.2A71.62,71.62,0,0,1,176.8,180.2c-1.65,3.37-3.56,6.61-4.85,10.52s-1.95,8.48-4.56,11.18-7.15,3.51-11,4.93-7,3.44-10.35,5.2a71.64,71.64,0,1,1-2.17-127.64c3.37,1.65,6.61,3.56,8.23,4.52l1.62,1"/><path id="Path_13023" data-name="Path 13023" class="cls-53" d="M153.75,89.8,155.2,91c1.46,1.2,4.36,3.6,7.06,6.2a71.73,71.73,0,1,1-18.37-12.87c3.37,1.65,6.62,3.56,8.24,4.52l1.62,1"/><path id="Path_13024" data-name="Path 13024" class="cls-54" d="M153.82,89.7l1.45,1.2c1.46,1.2,4.37,3.61,7.07,6.22a71.81,71.81,0,1,1-18.4-12.9c3.38,1.65,6.63,3.57,8.25,4.53l1.63,1"/><path id="Path_13025" data-name="Path 13025" class="cls-55" d="M153.94,89.52l1.46,1.21c1.46,1.2,4.38,3.61,7.1,6.23a72.15,72.15,0,0,1,18.06,28.38c1.22,3.57,2.17,7.23,3.23,10.94s2.22,7.46,2.28,11.23-1,7.56-1.9,11.31-1.75,7.43-2.86,11A72,72,0,1,1,144,84c3.38,1.66,6.65,3.58,8.28,4.54l1.62,1"/><path id="Path_13026" data-name="Path 13026" class="cls-56" d="M154,89.47l1.46,1.21c1.46,1.2,4.38,3.61,7.1,6.24a72.1,72.1,0,1,1-118.3,75.29c-1.23-3.57-2.17-7.24-3.18-11S39,153.79,38.91,150s.88-7.56,1.76-11.31,1.71-7.44,2.81-11a72.1,72.1,0,0,1,90.06-47.83A71,71,0,0,1,144.06,84c3.4,1.65,6.66,3.58,8.29,4.54l1.63,1"/><path id="Path_13027" data-name="Path 13027" class="cls-57" d="M154.13,89.26l1.46,1.21c1.47,1.21,4.4,3.63,7.13,6.26A72.37,72.37,0,1,1,44,172.29c-1.23-3.58-2.18-7.26-7.59-10.91s-15.28-7.27-15.35-11.06,9.68-7.74,15-11.58,6.1-7.54,7.21-11.16a72.36,72.36,0,0,1,101-43.84c3.4,1.66,6.68,3.59,8.31,4.55l1.64,1"/><path id="Path_13028" data-name="Path 13028" class="cls-58" d="M154.18,89.18l1.47,1.22c1.46,1.21,4.4,3.63,7.13,6.27A72.45,72.45,0,1,1,43.91,172.33c-1.24-3.59-2.19-7.28-3.78-11s-3.81-7.47-3.88-11.27,2-7.62,3.5-11.39,2.28-7.49,3.39-11.12A72.44,72.44,0,0,1,144.22,83.66c3.4,1.66,6.68,3.59,8.32,4.56l1.64,1"/><path id="Path_13029" data-name="Path 13029" class="cls-59" d="M154.3,89l1.47,1.22c1.48,1.21,4.42,3.64,7.16,6.29a72.66,72.66,0,1,1-18.62-13c3.42,1.67,6.71,3.61,8.35,4.58l1.64,1"/><path id="Path_13030" data-name="Path 13030" class="cls-60" d="M154.41,88.86l1.48,1.22c1.47,1.21,4.42,3.65,7.17,6.3a72.9,72.9,0,0,1,18.26,28.7c1.24,3.6,2.2,7.31,4.13,11s4.83,7.5,4.89,11.32-2.7,7.67-4.5,11.47-2.63,7.54-3.75,11.18a72.88,72.88,0,1,1-37.7-86.79c3.43,1.67,6.72,3.62,8.37,4.59l1.65,1"/><path id="Path_13031" data-name="Path 13031" class="cls-61" d="M155.66,87.07l1.52,1.26c1.52,1.25,4.56,3.76,7.39,6.49a75.05,75.05,0,1,1-19.23-13.47c3.53,1.72,6.93,3.72,8.63,4.72l1.69,1"/><path id="Path_13032" data-name="Path 13032" class="cls-1" d="M157.12,85l1.57,1.3c1.57,1.3,4.71,3.89,7.63,6.71a77.58,77.58,0,0,1,19.45,30.55c1.32,3.84,2.34,7.78,4.11,11.76s4.29,8,4.36,12.06-2.32,8.16-4,12.2-2.52,8-3.71,11.9a77.53,77.53,0,1,1-40.13-92.4c3.65,1.79,7.16,3.85,8.92,4.89l1.75,1"/><path id="Path_13033" data-name="Path 13033" class="cls-44" d="M157.43,84.56l1.58,1.3c1.58,1.31,4.74,3.92,7.68,6.76a78.07,78.07,0,0,1,19.58,30.76c1.33,3.86,2.35,7.83,4.36,11.84s5,8,5,12.13-2.76,8.23-4.63,12.3-2.75,8.07-3.95,12a78.11,78.11,0,1,1-40.4-93c3.67,1.79,7.2,3.87,9,4.92l1.77,1"/><path id="Path_13034" data-name="Path 13034" class="cls-62" d="M157.51,84.43l1.59,1.31c1.58,1.31,4.75,3.92,7.7,6.77a78.17,78.17,0,0,1,19.61,30.81c1.33,3.88,2.36,7.86,4.69,11.86s6,8,6,12.14-3.43,8.26-5.62,12.34-3.09,8.09-4.29,12a78.21,78.21,0,1,1-40.48-93.21c3.68,1.8,7.22,3.89,9,4.93l1.77,1"/><path id="Path_13035" data-name="Path 13035" class="cls-12" d="M158,83.77l1.6,1.32c1.6,1.32,4.8,4,7.78,6.84a79.09,79.09,0,0,1,19.82,31.14c1.34,3.91,2.38,7.93,3.68,12s2.87,8.17,2.94,12.31-1.36,8.3-2.52,12.41S189.22,168,188,171.91a79,79,0,1,1-52.44-98.73,80,80,0,0,1,11.54,4.56c3.72,1.81,7.29,3.92,9.08,5L158,83.77"/><path id="Path_13036" data-name="Path 13036" class="cls-63" d="M159.58,81.48l1.66,1.37c1.65,1.37,5,4.1,8,7.08a81.83,81.83,0,1,1-21-14.69c3.85,1.88,7.55,4.06,9.4,5.15l1.85,1.09"/><path id="Path_13037" data-name="Path 13037" class="cls-64" d="M160.21,80.58,161.89,82c1.68,1.38,5,4.15,8.16,7.17a83,83,0,0,1,20.79,32.66,108,108,0,0,1,3.41,12.6A68.9,68.9,0,0,1,196,147.35a68.26,68.26,0,0,1-1.27,13,108.53,108.53,0,0,1-3,12.71,82.92,82.92,0,1,1-55-103.57,83.77,83.77,0,0,1,12.1,4.77c3.9,1.91,7.65,4.12,9.53,5.23l1.87,1.1"/><path id="Path_13038" data-name="Path 13038" class="cls-65" d="M160.9,79.6,162.6,81c1.71,1.4,5.11,4.21,8.28,7.28a84.1,84.1,0,1,1-21.55-15.11c4,1.93,7.76,4.18,9.66,5.3l1.91,1.12"/><path id="Path_13039" data-name="Path 13039" class="cls-66" d="M160.92,79.57l1.7,1.41c1.71,1.41,5.12,4.22,8.28,7.28a84.14,84.14,0,1,1-21.56-15.11c4,1.94,7.77,4.18,9.67,5.3l1.91,1.12"/><path id="Path_13040" data-name="Path 13040" class="cls-67" d="M161.08,79.35l1.71,1.41c1.71,1.41,5.13,4.23,8.31,7.3a84.42,84.42,0,0,1,17.19,97.75c-1.94,4-4.19,7.79-4.8,13.27s.42,12.63-2.66,15.81-10.24,2.39-15.7,3.19-9.2,3.17-13.1,5.25A84.43,84.43,0,1,1,149.47,72.9c4,1.94,7.79,4.19,9.7,5.32l1.91,1.13"/><path id="Path_13041" data-name="Path 13041" class="cls-68" d="M161.27,79.07,163,80.49c1.71,1.42,5.15,4.25,8.34,7.33A84.76,84.76,0,1,1,149.61,72.6c4,2,7.83,4.21,9.74,5.34l1.92,1.13"/><path id="Path_13042" data-name="Path 13042" class="cls-69" d="M161.28,79.06,163,80.48c1.72,1.42,5.16,4.25,8.35,7.33a84.78,84.78,0,1,1-21.72-15.22c4,2,7.82,4.21,9.74,5.34l1.92,1.13"/><path id="Path_13043" data-name="Path 13043" class="cls-68" d="M161.31,79,163,80.44c1.72,1.42,5.16,4.25,8.35,7.34a84.81,84.81,0,0,1,21.26,33.41c1.45,4.2,2.56,8.51,7.8,12.81s14.61,8.58,14.68,13-9.14,9-14.23,13.51-6,8.82-7.35,13.07a84.87,84.87,0,1,1-43.89-101c4,2,7.83,4.21,9.75,5.34L161.31,79"/><path id="Path_13044" data-name="Path 13044" class="cls-70" d="M161.83,78.27l1.74,1.43c1.74,1.44,5.21,4.3,8.44,7.42a85.75,85.75,0,1,1-22-15.39c4,2,7.91,4.25,9.85,5.4l1.94,1.14"/><path id="Path_13045" data-name="Path 13045" class="cls-71" d="M162.15,77.81l1.75,1.44c1.75,1.44,5.25,4.33,8.49,7.47a86.29,86.29,0,1,1-22.1-15.49c4.06,2,8,4.28,9.91,5.43l2,1.15"/><path id="Path_13046" data-name="Path 13046" class="cls-72" d="M162.4,77.46l1.76,1.44c1.76,1.45,5.27,4.35,8.54,7.51a86.73,86.73,0,1,1-22.22-15.57c4.08,2,8,4.3,10,5.46l2,1.16"/><path id="Path_13047" data-name="Path 13047" class="cls-73" d="M162.59,77.19l1.77,1.45c1.76,1.45,5.29,4.37,8.56,7.53A87.06,87.06,0,0,1,190.65,187c-2,4.09-4.33,8-5.93,12.74s-2.5,10.19-5.67,13.46-8.61,4.36-13.26,6.12-8.51,4.23-12.53,6.36a87,87,0,1,1-2.64-155.1c4.09,2,8,4.33,10,5.48l2,1.17"/><path id="Path_13048" data-name="Path 13048" class="cls-74" d="M162.76,77l1.77,1.45c1.77,1.46,5.31,4.38,8.6,7.56a87.48,87.48,0,0,1,21.9,34.4c1.48,4.33,2.63,8.77,4.17,13.26s3.47,9,3.55,13.61-1.7,9.18-3.09,13.71-2.38,9-3.71,13.4a87.34,87.34,0,1,1-45.2-104.06c4.11,2,8.06,4.34,10,5.5l2,1.17"/><path id="Path_13049" data-name="Path 13049" class="cls-75" d="M162.79,76.9l1.77,1.46c1.77,1.46,5.31,4.38,8.6,7.56A87.39,87.39,0,1,1,84,66.12c4.33-1.49,8.77-2.63,13.26-4.15s9-3.4,13.62-3.48,9.18,1.65,13.72,3,9,2.36,13.4,3.7a88.08,88.08,0,0,1,12.76,5c4.11,2,8.07,4.34,10,5.51l2,1.16"/><path id="Path_13050" data-name="Path 13050" class="cls-76" d="M163.4,76l1.8,1.47c1.79,1.48,5.37,4.44,8.7,7.66a88.44,88.44,0,1,1-90.24-20c4.38-1.5,8.88-2.67,13.33-9.8s8.87-20.23,13.5-20.31S120,47.87,124.67,54.84s9.23,8,13.66,9.34a87.92,87.92,0,0,1,12.91,5.1c4.16,2,8.16,4.39,10.17,5.57l2,1.18"/><path id="Path_13051" data-name="Path 13051" class="cls-77" d="M163.63,75.7l1.8,1.49c1.8,1.48,5.4,4.45,8.74,7.69a88.73,88.73,0,0,1,22.28,35c1.51,4.4,2.68,8.92,11.59,13.37s25.56,8.81,25.64,13.46-16.42,9.59-25.17,14.33-9.76,9.3-11.13,13.75a88.81,88.81,0,1,1-46-105.86c4.18,2,8.2,4.41,10.21,5.6l2,1.18"/><path id="Path_13052" data-name="Path 13052" class="cls-78" d="M163.87,75.37l1.81,1.49c1.8,1.49,5.42,4.48,8.78,7.72A89.26,89.26,0,1,1,28,177.79c-1.52-4.42-2.69-9-4.21-13.55s-3.39-9.23-3.47-13.91,1.63-9.37,3-14,2.38-9.22,3.75-13.69A89.28,89.28,0,0,1,151.59,68.55c4.2,2.06,8.24,4.44,10.26,5.63l2,1.19"/><path id="Path_13053" data-name="Path 13053" class="cls-79" d="M163.89,75.34l1.81,1.5c1.8,1.49,5.42,4.47,8.78,7.72A89.3,89.3,0,1,1,28,177.8c-1.52-4.42-2.69-9-4.57-13.55s-4.49-9.22-4.57-13.89,2.36-9.39,4.09-14,2.74-9.23,4.12-13.7A89.27,89.27,0,0,1,151.6,68.53c4.2,2,8.24,4.43,10.26,5.62l2,1.19"/><path id="Path_13054" data-name="Path 13054" class="cls-80" d="M164.17,74.93l1.82,1.5c1.82,1.5,5.46,4.5,8.84,7.77a89.83,89.83,0,0,1,22.51,35.37c1.53,4.44,2.71,9,6.79,13.59s11,9.16,11.12,13.86-6.73,9.52-10.65,14.23-4.94,9.31-6.31,13.81a89.82,89.82,0,1,1-46.47-107c4.23,2.06,8.29,4.45,10.32,5.65l2,1.2"/><path id="Path_13055" data-name="Path 13055" class="cls-81" d="M164.2,74.89l1.82,1.5c1.82,1.5,5.46,4.51,8.84,7.78a89.78,89.78,0,0,1,22.52,35.38c1.53,4.45,2.71,9,7.09,13.59s12,9.15,12.05,13.86-7.35,9.53-11.57,14.25-5.24,9.32-6.62,13.82A89.9,89.9,0,1,1,151.84,68c4.23,2.06,8.3,4.46,10.33,5.65l2,1.2"/><path id="Path_13056" data-name="Path 13056" class="cls-82" d="M164.27,74.79l1.82,1.51c1.82,1.5,5.47,4.51,8.86,7.78a90.14,90.14,0,0,1,22.55,35.43c1.53,4.46,2.71,9,6.77,13.62s11,9.17,11.1,13.88-6.71,9.54-10.62,14.26-4.93,9.33-6.31,13.84A89.94,89.94,0,1,1,151.9,67.93c4.23,2.06,8.3,4.46,10.33,5.66l2,1.2"/><path id="Path_13057" data-name="Path 13057" class="cls-83" d="M164.27,74.79l1.82,1.51c1.82,1.5,5.47,4.51,8.86,7.78a90,90,0,1,1-23-16.15c4.23,2.06,8.3,4.46,10.33,5.66l2,1.2"/><path id="Path_13058" data-name="Path 13058" class="cls-84" d="M164.3,74.74l1.83,1.51C168,77.75,171.6,80.76,175,84a90,90,0,0,1,22.56,35.46c1.54,4.45,2.72,9,7.11,13.61s12,9.17,12.09,13.88-7.37,9.56-11.61,14.28-5.26,9.35-6.64,13.85A90,90,0,1,1,151.93,67.87c4.23,2.07,8.3,4.47,10.34,5.67l2,1.2"/><path id="Path_13059" data-name="Path 13059" class="cls-85" d="M164.68,74.21l1.83,1.52c1.84,1.51,5.51,4.54,8.93,7.84A90.68,90.68,0,1,1,82.94,63c4.49-1.55,9.1-2.74,13.76-4.82s9.35-5.07,14.1-5.15,9.54,2.74,14.26,4.66,9.37,3,13.91,4.35a91.26,91.26,0,0,1,13.24,5.22c4.26,2.09,8.36,4.5,10.41,5.71l2.06,1.21"/><path id="Path_13060" data-name="Path 13060" class="cls-86" d="M164.9,73.9l1.84,1.52c1.85,1.52,5.53,4.56,9,7.88A91,91,0,1,1,152.38,67c4.28,2.09,8.4,4.52,10.46,5.73l2.06,1.22"/><path id="Path_13061" data-name="Path 13061" class="cls-87" d="M165,73.77l1.85,1.52c1.84,1.52,5.54,4.57,9,7.89a91.2,91.2,0,1,1-93-20.67c4.51-1.55,9.15-2.75,13.82-5.45s9.38-6.9,14.16-7,9.61,4,14.38,6.5,9.43,3.57,14,5a91.26,91.26,0,0,1,13.32,5.26c4.29,2.09,8.42,4.52,10.48,5.74L165,73.77"/><path id="Path_13062" data-name="Path 13062" class="cls-88" d="M165,73.74l1.84,1.52c1.85,1.53,5.55,4.58,9,7.9a91.23,91.23,0,1,1-23.37-16.38c4.29,2.09,8.42,4.53,10.48,5.74L165,73.74"/><path id="Path_13063" data-name="Path 13063" class="cls-89" d="M165.08,73.63l1.85,1.53c1.86,1.52,5.56,4.58,9,7.9a91.28,91.28,0,0,1,22.9,36c1.56,4.53,2.76,9.18,4.08,13.88s2.77,9.46,2.85,14.25-1.2,9.59-2.36,14.33-2.2,9.43-3.6,14A91.38,91.38,0,1,1,139.18,61.39a93.15,93.15,0,0,1,13.34,5.27c4.3,2.1,8.43,4.53,10.5,5.75l2.06,1.22"/><path id="Path_13064" data-name="Path 13064" class="cls-90" d="M165.39,73.19l1.86,1.54c1.86,1.53,5.59,4.61,9.05,8a91.91,91.91,0,1,1-150.79,96c-1.56-4.55-2.77-9.23-4.16-14s-3-9.51-3-14.33,1.33-9.64,2.55-14.42,2.28-9.49,3.69-14.09a91.9,91.9,0,0,1,128.2-55.67c4.32,2.11,8.48,4.56,10.56,5.79l2.08,1.22"/><path id="Path_13065" data-name="Path 13065" class="cls-49" d="M165.42,73.15l1.86,1.54c1.86,1.53,5.59,4.61,9.05,8a92,92,0,1,1-150.87,96c-1.56-4.56-2.77-9.23-4.24-14s-3.22-9.52-3.3-14.34,1.5-9.65,2.81-14.43,2.36-9.49,3.77-14.1A92,92,0,0,1,152.77,66.13c4.33,2.11,8.49,4.57,10.57,5.79l2.08,1.23"/><path id="Path_13066" data-name="Path 13066" class="cls-91" d="M165.85,72.53l1.88,1.55c1.88,1.55,5.63,4.65,9.12,8a92.59,92.59,0,0,1,23.24,36.51c1.58,4.59,2.8,9.31,5,14.06s5.55,9.56,5.63,14.41-3,9.76-5.13,14.59-3.15,9.58-4.57,14.23a92.73,92.73,0,1,1-48-110.45c4.36,2.13,8.56,4.6,10.65,5.84l2.1,1.23"/><path id="Path_13067" data-name="Path 13067" class="cls-92" d="M166.74,71.27l1.91,1.57c1.91,1.58,5.73,4.73,9.27,8.16a94.22,94.22,0,1,1-24.15-16.93c4.44,2.17,8.71,4.68,10.84,5.94l2.13,1.26"/><path id="Path_13068" data-name="Path 13068" class="cls-93" d="M168.31,69l2,1.62c2,1.62,5.89,4.86,9.54,8.39A97,97,0,1,1,20.72,180.3c-1.65-4.8-2.92-9.73-4.58-14.72s-3.69-10-3.77-15.11,1.77-10.19,3.26-15.23,2.58-10,4.07-14.87A96.93,96.93,0,0,1,155,61.63c4.57,2.22,8.95,4.81,11.15,6.1l2.19,1.3"/><path id="Path_13069" data-name="Path 13069" class="cls-94" d="M168.48,68.79l2,1.63c2,1.62,5.91,4.87,9.57,8.41a97.31,97.31,0,0,1,24.38,38.31c1.66,4.81,2.93,9.76,5,14.76s4.78,10,4.87,15.13-2.51,10.23-4.36,15.29-3,10.05-4.44,14.92A97.2,97.2,0,1,1,155.1,61.36c4.57,2.24,9,4.84,11.18,6.13l2.2,1.3"/><path id="Path_13070" data-name="Path 13070" class="cls-95" d="M168.53,68.71l2,1.62c2,1.63,5.91,4.89,9.58,8.43a97.4,97.4,0,0,1,24.41,38.35c1.65,4.82,2.93,9.77,4.83,14.77s4.4,10.06,4.49,15.16-2.25,10.24-4,15.3-2.83,10.06-4.32,14.93a97.4,97.4,0,1,1-50.38-116c4.59,2.23,9,4.83,11.19,6.13l2.2,1.3"/><path id="Path_13071" data-name="Path 13071" class="cls-96" d="M169.29,67.63l2,1.65c2,1.65,6,5,9.71,8.54a98.73,98.73,0,0,1,24.74,38.86c1.68,4.89,3,9.9,5.07,15s5,10.19,5.11,15.35-2.65,10.38-4.58,15.52-3.05,10.19-4.56,15.14A98.66,98.66,0,1,1,155.72,60.1c4.64,2.26,9.11,4.9,11.34,6.21l2.23,1.32"/><path id="Path_13072" data-name="Path 13072" class="cls-97" d="M170.52,65.88l2,1.68c2,1.69,6.12,5.06,9.92,8.72a100.81,100.81,0,1,1-25.83-18.1c4.75,2.32,9.31,5,11.59,6.35l2.28,1.35"/><path id="Path_13073" data-name="Path 13073" class="cls-98" d="M171.57,64.37l2.08,1.72c2.08,1.71,6.24,5.14,10.1,8.88a102.65,102.65,0,0,1,25.73,40.43c1.75,5.08,3.09,10.3,4.78,15.58s3.72,10.62,3.81,16-1.75,10.78-3.26,16.12-2.68,10.59-4.25,15.73a102.64,102.64,0,1,1-53.1-122.28c4.82,2.36,9.47,5.09,11.79,6.46l2.32,1.37"/><path id="Path_13074" data-name="Path 13074" class="cls-99" d="M172.82,62.59l2.12,1.75c2.12,1.76,6.37,5.26,10.32,9.07A104.82,104.82,0,1,1,158.41,54.6c4.93,2.4,9.67,5.2,12,6.6l2.37,1.39"/><path id="Path_13075" data-name="Path 13075" class="cls-100" d="M173.77,61.23,175.93,63c2.16,1.78,6.47,5.34,10.48,9.21a106.49,106.49,0,0,1,26.68,41.93c1.82,5.27,3.21,10.69,4.93,16.16s3.74,11,3.84,16.59-1.75,11.18-3.28,16.71-2.73,11-4.37,16.32A106.46,106.46,0,1,1,159.13,53.11c5,2.44,9.83,5.28,12.24,6.7l2.4,1.42"/><path id="Path_13076" data-name="Path 13076" class="cls-98" d="M175.29,59.07l2.21,1.83c2.21,1.82,6.63,5.47,10.73,9.43a109.1,109.1,0,1,1-27.95-19.58c5.14,2.5,10.07,5.41,12.54,6.87l2.47,1.45"/><path id="Path_13077" data-name="Path 13077" class="cls-101" d="M175.52,58.73l2.22,1.83c2.22,1.83,6.65,5.49,10.78,9.48A109.5,109.5,0,1,1,76.82,45.23c5.42-1.87,11-3.31,16.62-5.62s11.3-5.5,17-5.6,11.52,2.9,17.22,5,11.31,3.36,16.79,5a108.75,108.75,0,0,1,16,6.31c5.16,2.51,10.11,5.43,12.59,6.89l2.47,1.46"/><path id="Path_13078" data-name="Path 13078" class="cls-102" d="M175.71,58.47l2.22,1.84c2.23,1.83,6.68,5.5,10.81,9.5a109.81,109.81,0,0,1-40.61,182.8c-5.44,1.87-11,3.31-16.53,13.35s-10.94,28.68-16.69,28.77-11.81-18.34-17.66-28.19-11.48-11.09-17-12.78A109.81,109.81,0,1,1,160.61,50.09c5.16,2.52,10.13,5.45,12.61,6.92l2.49,1.46"/><path id="Path_13079" data-name="Path 13079" class="cls-103" d="M176.17,57.82l2.24,1.85c2.24,1.85,6.72,5.54,10.88,9.57A110.69,110.69,0,0,1,217,112.8c1.88,5.48,3.33,11.1,5,16.8s3.41,11.45,3.51,17.24-1.5,11.61-2.93,17.36-2.68,11.41-4.38,17A110.63,110.63,0,1,1,161,49.38c5.21,2.54,10.21,5.49,12.71,7l2.51,1.48"/><path id="Path_13080" data-name="Path 13080" class="cls-104" d="M176.62,57.17,178.88,59c2.25,1.86,6.76,5.59,11,9.64a111.38,111.38,0,0,1-41.2,185.43c-5.51,1.9-11.18,3.36-16.74,14.94s-11,33.29-16.86,33.39-12-21.41-18-32.79S85.38,257,79.81,255.28A111.39,111.39,0,1,1,161.3,48.67c5.24,2.56,10.28,5.53,12.8,7l2.52,1.49"/></g></g></g><g id="Each_circle_represents_a_movement" data-name="Each circle represents a movement" class="cls-105"><g class="cls-105"><path d="M169.41,8l0,3.1h-7.79V10h1.15l.08-.07V2.23l-1.38-.92V1.08h7.66v3.1h-.29l-1.18-2h-2.89V5.32h1.78l.08-.08V4.09h1V7.64h-1V6.47l-.08-.08h-1.78V10h3.15l1.24-2Z"/><path d="M176.61,10.08v1h-2.53v-.54a3.5,3.5,0,0,1-1.91.71,1.4,1.4,0,0,1-1.52-1.52c0-1.15.77-2,3.43-2.32V7.11c0-1-.36-1.58-1.25-1.58a3,3,0,0,0-1.61.57l-.29-.58a3.57,3.57,0,0,1,2.65-1.14c1.62,0,2.26.92,2.26,2.63v3l.08.08ZM174.08,10V8.14c-1.2.11-1.69.45-1.71,1.14a.78.78,0,0,0,.88.85A3.7,3.7,0,0,0,174.08,10Z"/><path d="M177.36,8a3.38,3.38,0,0,1,3.49-3.58,5.13,5.13,0,0,1,1.8.34V7.19h-.2l-1.17-1.57a1.23,1.23,0,0,0-.84-.35c-.79,0-1.2.74-1.2,2.1,0,1.93,1,2.79,2.06,2.79a2.5,2.5,0,0,0,1.33-.37l.3.53a3.54,3.54,0,0,1-2.42.9A3,3,0,0,1,177.36,8Z"/><path d="M191,10.08v1h-3.31v-1h.7l.07-.08V7.27c0-1.23-.35-1.57-1.23-1.57a4.91,4.91,0,0,0-1.18.18V10l.08.08h.69v1h-3.3v-1h.69l.07-.08V2l-1-.62V1.23L185.88,0l.21.11V5.27a4.13,4.13,0,0,1,2.32-.89,1.65,1.65,0,0,1,1.86,1.8V10l.08.08Z"/><path d="M194.71,8a3.38,3.38,0,0,1,3.49-3.58,5.17,5.17,0,0,1,1.8.34V7.19h-.2l-1.17-1.57a1.26,1.26,0,0,0-.85-.35c-.78,0-1.2.74-1.2,2.1,0,1.93,1,2.79,2.06,2.79A2.54,2.54,0,0,0,200,9.79l.29.53a3.52,3.52,0,0,1-2.41.9A3,3,0,0,1,194.71,8Z"/><path d="M201,10.08h.69l.08-.08V6.28l-1-.61V5.48l2.55-1.21.2.09V10l.08.08h.69v1H201Zm.52-8a1.07,1.07,0,1,1,1.08,1.08A1.07,1.07,0,0,1,201.5,2.09Z"/><path d="M207.49,6.21V10l.08.08h.92v1H205v-1h.69l.08-.08V6.28l-1-.6v-.2l2.31-1.18.2.11.2,1.11a3.43,3.43,0,0,1,2-1.14,1,1,0,0,1,.45.08v2A7,7,0,0,0,208,6.18Z"/><path d="M210.53,8A3.38,3.38,0,0,1,214,4.38a5.13,5.13,0,0,1,1.8.34V7.19h-.2l-1.17-1.57a1.23,1.23,0,0,0-.84-.35c-.79,0-1.2.74-1.2,2.1,0,1.93,1,2.79,2.06,2.79a2.5,2.5,0,0,0,1.33-.37l.3.53a3.54,3.54,0,0,1-2.42.9A3,3,0,0,1,210.53,8Z"/><path d="M216.73,10.08h.69l.07-.08V2l-1-.62V1.23L219,0l.22.11V10l.08.08H220v1h-3.3Z"/><path d="M226.27,9.79l.29.53a4,4,0,0,1-2.48.9,3.14,3.14,0,0,1-3.24-3.31,3.31,3.31,0,0,1,3.24-3.53A2.41,2.41,0,0,1,226.62,7a4.29,4.29,0,0,1-.08.83h-3.81c.11,1.47.82,2.38,2.08,2.38A3.3,3.3,0,0,0,226.27,9.79ZM222.73,7h2.18c0-1.29-.41-1.72-1-1.72S222.79,5.87,222.73,7Z"/><path d="M232.9,6.21V10l.08.08h.92v1h-3.53v-1h.69l.08-.08V6.28l-1-.6v-.2l2.31-1.18.2.11.2,1.11a3.42,3.42,0,0,1,2-1.14,1,1,0,0,1,.44.08v2a7,7,0,0,0-1.92-.26Z"/><path d="M241.37,9.79l.29.53a4,4,0,0,1-2.47.9,3.15,3.15,0,0,1-3.25-3.31,3.32,3.32,0,0,1,3.25-3.53A2.41,2.41,0,0,1,241.72,7a3.62,3.62,0,0,1-.08.83h-3.81c.11,1.47.82,2.38,2.08,2.38A3.3,3.3,0,0,0,241.37,9.79ZM237.83,7H240c0-1.29-.42-1.72-1.05-1.72S237.9,5.87,237.83,7Z"/><path d="M249.51,7.61a3.39,3.39,0,0,1-3.32,3.61A2.81,2.81,0,0,1,245,11v2.55l.08.07H246v1H242.5v-1h.7l.07-.07V6.28l-1-.6v-.2l2.3-1.18.2.11.2,1a3.61,3.61,0,0,1,2.17-1C248.51,4.38,249.51,5.7,249.51,7.61ZM247.64,8c0-1.54-.6-2.32-1.51-2.32a4.66,4.66,0,0,0-1.09.14V9.56a1.36,1.36,0,0,0,1.21.73C247.18,10.29,247.64,9.42,247.64,8Z"/><path d="M253,6.21V10l.08.08H254v1h-3.54v-1h.7l.07-.08V6.28l-1-.6v-.2l2.3-1.18.2.11.2,1.11a3.47,3.47,0,0,1,2-1.14,1,1,0,0,1,.45.08v2a7,7,0,0,0-1.92-.26Z"/><path d="M261.49,9.79l.3.53a4,4,0,0,1-2.48.9,3.14,3.14,0,0,1-3.24-3.31,3.31,3.31,0,0,1,3.24-3.53A2.41,2.41,0,0,1,261.85,7a4.29,4.29,0,0,1-.08.83H258c.11,1.47.82,2.38,2.07,2.38A3.24,3.24,0,0,0,261.49,9.79ZM258,7h2.18c0-1.29-.41-1.72-1-1.72S258,5.87,258,7Z"/><path d="M262.85,10.71V8.5h.2l.84,1a1.84,1.84,0,0,0,1.38.78c.57,0,.8-.29.8-.64,0-.65-.8-.85-1.56-1.29-1.17-.68-1.65-1.21-1.65-2.15,0-1.17,1-1.86,2.55-1.86a5.06,5.06,0,0,1,1.81.32V6.78H267l-.89-1.06a1.38,1.38,0,0,0-1-.45c-.48,0-.73.28-.73.6,0,.57.65.87,1.48,1.29,1.18.6,1.73,1.15,1.73,2.06,0,1.24-.92,2-2.5,2A5.93,5.93,0,0,1,262.85,10.71Z"/><path d="M273.83,9.79l.29.53a3.93,3.93,0,0,1-2.47.9,3.14,3.14,0,0,1-3.24-3.31,3.31,3.31,0,0,1,3.24-3.53A2.4,2.4,0,0,1,274.18,7a4.22,4.22,0,0,1-.07.83H270.3c.11,1.47.81,2.38,2.07,2.38A3.3,3.3,0,0,0,273.83,9.79ZM270.3,7h2.18c0-1.29-.42-1.72-1.05-1.72S270.36,5.87,270.3,7Z"/><path d="M282.5,10.09v1h-3.31v-1h.69L280,10V7.27c0-1.23-.35-1.57-1.23-1.57a4.84,4.84,0,0,0-1.18.18V10l.08.08h.69v1H275v-1h.69l.08-.08V6.27l-1-.6v-.2l2.3-1.18.2.1.19.91a4.13,4.13,0,0,1,2.38-.92,1.65,1.65,0,0,1,1.86,1.8V10l.07.09Z"/><path d="M283.8,9.2V5.67l-.08-.08h-.86v-.2l2.51-2.61h.2V4.61h2v1h-2V8.47c0,1.22.23,1.66.84,1.66a2.72,2.72,0,0,0,1.14-.34l.29.53a3.61,3.61,0,0,1-2.3.9C284.43,11.22,283.8,10.68,283.8,9.2Z"/><path d="M288.58,10.71V8.5h.2l.84,1a1.86,1.86,0,0,0,1.39.78c.57,0,.8-.29.8-.64,0-.65-.8-.85-1.57-1.29-1.17-.68-1.64-1.21-1.64-2.15,0-1.17,1-1.86,2.55-1.86A5.14,5.14,0,0,1,293,4.7V6.78h-.2l-.89-1.06a1.4,1.4,0,0,0-1-.45c-.48,0-.72.28-.72.6,0,.57.64.87,1.47,1.29,1.19.6,1.74,1.15,1.74,2.06,0,1.24-.92,2-2.51,2A6,6,0,0,1,288.58,10.71Z"/><path d="M303,10.08v1h-2.54v-.54a3.47,3.47,0,0,1-1.9.71A1.4,1.4,0,0,1,297,9.71c0-1.15.77-2,3.42-2.32V7.11c0-1-.35-1.58-1.24-1.58a3,3,0,0,0-1.61.57l-.29-.58a3.57,3.57,0,0,1,2.65-1.14c1.62,0,2.26.92,2.26,2.63v3l.08.08ZM300.42,10V8.14c-1.19.11-1.68.45-1.7,1.14a.77.77,0,0,0,.87.85A3.6,3.6,0,0,0,300.42,10Z"/><path d="M318,10.08v1h-3.3v-1h.69l.08-.08V7.27c0-1.19-.31-1.57-1-1.57a5.15,5.15,0,0,0-1.29.18l0,0a3,3,0,0,1,0,.43V10l.08.08H314v1h-3.3v-1h.69l.07-.08V7.27c0-1.19-.3-1.57-1-1.57a5.22,5.22,0,0,0-1.29.18V10l.08.08h.69v1h-3.3v-1h.69l.07-.08V6.27l-1-.6v-.2l2.31-1.18.2.1.18.91a4.08,4.08,0,0,1,2.27-.92,1.65,1.65,0,0,1,1.66,1,4.2,4.2,0,0,1,2.38-1,1.67,1.67,0,0,1,1.8,1.87V10l.08.08Z"/><path d="M318.72,8a3.35,3.35,0,0,1,3.35-3.58,3.08,3.08,0,0,1,3.17,3.33,3.28,3.28,0,0,1-3.35,3.51A3,3,0,0,1,318.72,8Zm4.64.35c0-1.75-.67-3-1.6-3-.72,0-1.16.74-1.16,2,0,1.75.67,3,1.59,3C322.92,10.31,323.36,9.57,323.36,8.31Z"/><path d="M326.25,5.67l-.94-.85V4.61H329v.2l-.86.86L329.58,9h.05l1.52-3.3-.86-.85V4.61h2.87v.2l-.93.86-2.66,5.55h-.71Z"/><path d="M338.51,9.79l.29.53a3.93,3.93,0,0,1-2.47.9,3.14,3.14,0,0,1-3.24-3.31,3.31,3.31,0,0,1,3.24-3.53A2.4,2.4,0,0,1,338.86,7a4.22,4.22,0,0,1-.07.83H335c.1,1.47.81,2.38,2.07,2.38A3.3,3.3,0,0,0,338.51,9.79ZM335,7h2.18c0-1.29-.42-1.72-1.05-1.72S335,5.87,335,7Z"/><path d="M351.05,10.08v1h-3.31v-1h.7l.07-.08V7.27c0-1.19-.3-1.57-1-1.57a5.22,5.22,0,0,0-1.29.18v0c0,.14,0,.28,0,.43V10l.08.08H347v1h-3.31v-1h.7l.07-.08V7.27c0-1.19-.31-1.57-1-1.57a5.15,5.15,0,0,0-1.29.18V10l.08.08H343v1h-3.31v-1h.69l.08-.08V6.27l-1-.6v-.2l2.3-1.18.2.1.19.91a4.08,4.08,0,0,1,2.27-.92,1.65,1.65,0,0,1,1.66,1,4.2,4.2,0,0,1,2.38-1,1.67,1.67,0,0,1,1.8,1.87V10l.08.08Z"/><path d="M357.22,9.79l.3.53a4,4,0,0,1-2.48.9,3.14,3.14,0,0,1-3.24-3.31A3.31,3.31,0,0,1,355,4.38,2.41,2.41,0,0,1,357.58,7a4.29,4.29,0,0,1-.08.83h-3.81c.11,1.47.81,2.38,2.07,2.38A3.24,3.24,0,0,0,357.22,9.79ZM353.69,7h2.18c0-1.29-.41-1.72-1-1.72S353.75,5.87,353.69,7Z"/><path d="M365.89,10.09v1h-3.3v-1h.69l.07-.08V7.27c0-1.23-.35-1.57-1.23-1.57a4.91,4.91,0,0,0-1.18.18V10l.08.08h.69v1h-3.3v-1h.69l.07-.08V6.27l-1-.6v-.2l2.31-1.18.19.1.19.91a4.16,4.16,0,0,1,2.38-.92,1.65,1.65,0,0,1,1.86,1.8V10l.08.09Z"/><path d="M367.19,9.2V5.67l-.07-.08h-.86v-.2l2.5-2.61h.2V4.61h2v1h-2V8.47c0,1.22.23,1.66.85,1.66a2.72,2.72,0,0,0,1.13-.34l.29.53a3.59,3.59,0,0,1-2.3.9C367.82,11.22,367.19,10.68,367.19,9.2Z"/></g></g><g id="Movement_circles_move_outward_in_time" data-name="Movement circles move outward in time" class="cls-105"><g class="cls-105"><path d="M227.7,57.7v.63h-3.41V57.7h1.07l.07-.07-.43-7-3.35,7.74h-.38L218,50.78l-.42,6.85.07.07h1.06v.63h-2.92V57.7h1.06l.07-.07.5-7.66-1.28-.71v-.14h2.39l3.15,7.43h0l3.2-7.43h2.4v.14l-1.28.71.5,7.66.07.07Z"/><path d="M228.62,55.54a3,3,0,0,1,3-3.16,2.72,2.72,0,0,1,2.82,2.93,3,3,0,0,1-3,3.17A2.73,2.73,0,0,1,228.62,55.54Zm4.7.13c0-1.56-.83-2.73-1.94-2.73-.93,0-1.67.7-1.67,2.23s.79,2.74,1.94,2.74C232.63,57.91,233.32,57.19,233.32,55.67Z"/><path d="M235.58,53.31l-.79-.63V52.6h2.92v0l-.93.66,1.59,3.78h.06l1.63-3.78-1-.63V52.6h2.39v0l-.71.66-2.31,5.17h-.49Z"/><path d="M246.73,55.17h-3.92c0,1.86,1,2.54,2.26,2.54a3.21,3.21,0,0,0,1.46-.35l.15.29a3.26,3.26,0,0,1-2.19.83,2.73,2.73,0,0,1-2.77-2.93,3,3,0,0,1,2.79-3.19,2.13,2.13,0,0,1,2.25,2.33C246.76,54.85,246.74,55,246.73,55.17Zm-3.89-.51h2.81c0-1.18-.47-1.72-1.24-1.72S243,53.38,242.84,54.66Z"/><path d="M258,57.7v.63h-2.84V57.7H256l.08-.07v-2.7c0-1.22-.25-1.64-1.24-1.64a6.34,6.34,0,0,0-1.54.21l0,0a2.56,2.56,0,0,1,.06.57v3.59l.07.07h.85v.63h-2.84V57.7h.85l.08-.07v-2.7c0-1.22-.25-1.64-1.24-1.64a7.08,7.08,0,0,0-1.5.19v4.15l.07.07h.85v.63h-2.84V57.7h.85l.07-.07V53.78l-1-.45v-.07l1.72-.88.09,0,.11.81a3.94,3.94,0,0,1,2-.85c.9,0,1.43.31,1.65.91a4.2,4.2,0,0,1,2.08-.91c1.23,0,1.77.59,1.77,1.66v3.59l.07.07Z"/><path d="M264,55.17H260.1c0,1.86,1,2.54,2.25,2.54a3.25,3.25,0,0,0,1.47-.35l.15.29a3.29,3.29,0,0,1-2.2.83A2.72,2.72,0,0,1,259,55.55a3,3,0,0,1,2.79-3.19A2.12,2.12,0,0,1,264,54.69,4,4,0,0,1,264,55.17Zm-3.88-.51h2.81c0-1.18-.47-1.72-1.24-1.72S260.27,53.38,260.13,54.66Z"/><path d="M271.73,57.7v.63h-2.91V57.7h.92l.07-.07v-2.7c0-1.22-.25-1.64-1.3-1.64a7.83,7.83,0,0,0-1.58.19v4.15l.08.07h.92v.63H265V57.7h.85l.07-.07V53.77l-.95-.46v-.07l1.72-.88.08,0,.12.8a4.2,4.2,0,0,1,2-.83c1.28,0,1.85.59,1.85,1.66v3.59l.07.07Z"/><path d="M273.29,56.68V53.31l-.07-.07h-.85v-.07l1.84-2.42h.07V52.6h1.92v.64h-1.92V55.9c0,1.43.21,1.91,1,1.91a2.7,2.7,0,0,0,.93-.16l.16.3a3.07,3.07,0,0,1-1.63.53C273.77,58.48,273.29,58,273.29,56.68Z"/><path d="M280.31,55.6a3,3,0,0,1,3-3.22,3.71,3.71,0,0,1,1.56.31v1.67h-.07L284,53.3a1.4,1.4,0,0,0-1-.34c-1,0-1.59.88-1.59,2.18,0,1.82.89,2.57,2.1,2.57a3.21,3.21,0,0,0,1.46-.35l.16.29a3.14,3.14,0,0,1-2.13.83A2.62,2.62,0,0,1,280.31,55.6Z"/><path d="M286,57.7h.85l.07-.07V53.77l-.95-.46v-.07l1.86-.86.09,0v5.21l.07.07h.85v.63H286Zm.54-7.56a.78.78,0,1,1,.78.76A.79.79,0,0,1,286.56,50.14Z"/><path d="M293.88,52.48v1a3.91,3.91,0,0,0-.72-.07,6.59,6.59,0,0,0-1.49.2v4l.07.07h1.06v.63h-3.05V57.7h.85l.07-.07V53.77l-.95-.46v-.07l1.72-.88.09,0,.14,1a4.47,4.47,0,0,1,1.86-1A.63.63,0,0,1,293.88,52.48Z"/><path d="M294.49,55.6a3,3,0,0,1,3-3.22,3.78,3.78,0,0,1,1.56.31v1.67H299l-.84-1.06a1.4,1.4,0,0,0-1-.34c-1,0-1.59.88-1.59,2.18,0,1.82.89,2.57,2.1,2.57a3.21,3.21,0,0,0,1.46-.35l.16.29a3.14,3.14,0,0,1-2.13.83A2.62,2.62,0,0,1,294.49,55.6Z"/><path d="M300.2,57.7h.86l.07-.07V49.54l-.95-.45V49l1.85-.9.09.05v9.46l.07.07h.92v.63H300.2Z"/><path d="M309.1,55.17h-3.92c0,1.86,1,2.54,2.26,2.54a3.21,3.21,0,0,0,1.46-.35l.15.29a3.26,3.26,0,0,1-2.19.83,2.73,2.73,0,0,1-2.77-2.93,3,3,0,0,1,2.79-3.19,2.13,2.13,0,0,1,2.25,2.33C309.13,54.85,309.11,55,309.1,55.17Zm-3.89-.51H308c0-1.18-.47-1.72-1.23-1.72S305.35,53.38,305.21,54.66Z"/><path d="M310.25,58.14V56.65h.07l.7.78a1.65,1.65,0,0,0,1.14.51c.58,0,1-.3,1-.81,0-.71-.68-.94-1.42-1.33s-1.39-1-1.39-1.79.77-1.63,2-1.63a4.19,4.19,0,0,1,1.51.27v1.44h-.07l-.74-.82a1.36,1.36,0,0,0-.94-.37.82.82,0,0,0-.92.8c0,.66.67,1,1.33,1.33s1.51.81,1.51,1.79a1.76,1.76,0,0,1-2,1.66A5.16,5.16,0,0,1,310.25,58.14Z"/><path d="M328.43,57.7v.63h-2.84V57.7h.85l.07-.07v-2.7c0-1.22-.24-1.64-1.23-1.64a6.49,6.49,0,0,0-1.55.21v0a2.57,2.57,0,0,1,0,.57v3.59l.08.07h.85v.63h-2.84V57.7h.85l.07-.07v-2.7c0-1.22-.24-1.64-1.23-1.64a7.18,7.18,0,0,0-1.51.19v4.15l.08.07H321v.63h-2.84V57.7H319l.07-.07V53.78l-.95-.45v-.07l1.72-.88.08,0,.12.81a4,4,0,0,1,2-.85c.91,0,1.43.31,1.66.91a4.14,4.14,0,0,1,2.07-.91c1.24,0,1.77.59,1.77,1.66v3.59l.08.07Z"/><path d="M329.4,55.54a3,3,0,0,1,3-3.16,2.72,2.72,0,0,1,2.82,2.93,3,3,0,0,1-3,3.17A2.74,2.74,0,0,1,329.4,55.54Zm4.71.13c0-1.56-.83-2.73-1.94-2.73-.94,0-1.67.7-1.67,2.23s.79,2.74,1.94,2.74C333.42,57.91,334.11,57.19,334.11,55.67Z"/><path d="M336.37,53.31l-.8-.63V52.6h2.92v0l-.92.66,1.59,3.78h.06l1.63-3.78-1-.63V52.6h2.38v0l-.7.66-2.32,5.17h-.48Z"/><path d="M347.51,55.17H343.6c0,1.86,1,2.54,2.26,2.54a3.24,3.24,0,0,0,1.46-.35l.15.29a3.29,3.29,0,0,1-2.2.83,2.72,2.72,0,0,1-2.76-2.93,3,3,0,0,1,2.79-3.19,2.12,2.12,0,0,1,2.24,2.33A4,4,0,0,1,347.51,55.17Zm-3.88-.51h2.81c0-1.18-.47-1.72-1.24-1.72S343.77,53.38,343.63,54.66Z"/><path d="M351.73,55.54a3,3,0,0,1,3-3.16,2.72,2.72,0,0,1,2.82,2.93,3,3,0,0,1-3,3.17A2.73,2.73,0,0,1,351.73,55.54Zm4.7.13c0-1.56-.83-2.73-1.94-2.73-.94,0-1.67.7-1.67,2.23s.79,2.74,1.94,2.74C355.74,57.91,356.43,57.19,356.43,55.67Z"/><path d="M365.06,57.7v.63h-1.92v-.68a4.11,4.11,0,0,1-2,.83c-1.23,0-1.77-.6-1.77-1.66v-3l-1-.45v-.07l1.86-.9.08,0v3.49c0,1.22.25,1.65,1.24,1.65a7.11,7.11,0,0,0,1.5-.2V53.8l-.95-.46v-.07l1.86-.89.08,0v5.21l.08.07Z"/><path d="M366.64,56.68V53.31l-.07-.07h-.85v-.07l1.85-2.42h.07V52.6h1.91v.64h-1.91V55.9c0,1.43.21,1.91,1,1.91a2.72,2.72,0,0,0,.94-.16l.16.3a3.07,3.07,0,0,1-1.64.53C367.13,58.48,366.64,58,366.64,56.68Z"/><path d="M379.34,52.6v0l-.81.66-2,5.17h-.47l-1.29-3.34c-.38.94-1.37,3.34-1.37,3.34h-.46l-2.21-5.17-.82-.63V52.6h2.95v0l-1,.66,1.52,3.79h.06l1.06-2.58-.6-1.55,1-.51,1.59,4.64h.06l1.33-3.8-1-.65v0Z"/><path d="M384.9,57.7v.63H383v-.58a3.3,3.3,0,0,1-1.87.73,1.33,1.33,0,0,1-1.42-1.37c0-1.3,1.38-1.78,3.29-1.87V54.8c0-1.12-.25-1.66-1.29-1.66a2.87,2.87,0,0,0-1.64.54l-.19-.34a3,3,0,0,1,2.21-1A1.74,1.74,0,0,1,384,54.24v3.39l.07.07ZM383,57.5V55.7c-1.2.08-2.28.28-2.28,1.23,0,.55.38.81.92.81A4.42,4.42,0,0,0,383,57.5Z"/><path d="M389.92,52.48v1a3.93,3.93,0,0,0-.73-.07,6.74,6.74,0,0,0-1.49.2v4l.08.07h1.06v.63h-3V57.7h.85l.07-.07V53.77l-.95-.46v-.07l1.72-.88.08,0,.14,1a4.52,4.52,0,0,1,1.86-1A.64.64,0,0,1,389.92,52.48Z"/><path d="M396.94,57.7v.63h-2v-.68a4.39,4.39,0,0,1-2.2.83c-1.4,0-2.22-1.42-2.22-2.88a2.94,2.94,0,0,1,3-3.22,3.31,3.31,0,0,1,1.47.3V49.54l-.95-.45V49l1.86-.9.08.05v9.46l.08.07Zm-2-.27V53.82a1.71,1.71,0,0,0-1.62-.88c-1.24,0-1.71.91-1.71,2.35s.5,2.35,1.73,2.35A6.54,6.54,0,0,0,395,57.43Z"/><path d="M401,57.7h.85l.08-.07V53.77l-.95-.46v-.07l1.85-.86.09,0v5.21l.07.07h.85v.63H401Zm.54-7.56a.78.78,0,1,1,.78.76A.79.79,0,0,1,401.5,50.14Z"/><path d="M411.4,57.7v.63h-2.91V57.7h.93l.07-.07v-2.7c0-1.22-.26-1.64-1.31-1.64a7.82,7.82,0,0,0-1.57.19v4.15l.07.07h.92v.63h-2.91V57.7h.85l.08-.07V53.77l-.95-.46v-.07l1.71-.88.09,0,.11.8a4.22,4.22,0,0,1,2.06-.83c1.27,0,1.84.59,1.84,1.66v3.59l.07.07Z"/><path d="M416.08,56.68V53.31l-.07-.07h-.85v-.07L417,50.75h.07V52.6H419v.64h-1.92V55.9c0,1.43.22,1.91,1,1.91a2.81,2.81,0,0,0,.94-.16l.15.3a3.07,3.07,0,0,1-1.63.53C416.56,58.48,416.08,58,416.08,56.68Z"/><path d="M419.9,57.7h.85l.07-.07V53.77l-.95-.46v-.07l1.86-.86.08,0v5.21l.07.07h.85v.63H419.9Zm.54-7.56a.77.77,0,1,1,1.54,0,.77.77,0,0,1-1.54,0Z"/><path d="M433.92,57.7v.63h-2.83V57.7h.85l.07-.07v-2.7c0-1.22-.24-1.64-1.24-1.64a6.34,6.34,0,0,0-1.54.21l0,0a2.08,2.08,0,0,1,.06.57v3.59l.07.07h.85v.63h-2.83V57.7h.85l.07-.07v-2.7c0-1.22-.24-1.64-1.24-1.64a7.17,7.17,0,0,0-1.5.19v4.15l.07.07h.85v.63h-2.83V57.7h.85l.07-.07V53.78l-.95-.45v-.07l1.71-.88.09,0,.11.81a3.94,3.94,0,0,1,2-.85c.91,0,1.43.31,1.66.91a4.14,4.14,0,0,1,2.07-.91c1.23,0,1.77.59,1.77,1.66v3.59l.07.07Z"/><path d="M439.91,55.17H436c0,1.86,1,2.54,2.26,2.54a3.21,3.21,0,0,0,1.46-.35l.15.29a3.28,3.28,0,0,1-2.19.83,2.73,2.73,0,0,1-2.77-2.93,3,3,0,0,1,2.79-3.19,2.13,2.13,0,0,1,2.25,2.33C439.94,54.85,439.92,55,439.91,55.17ZM436,54.66h2.81c0-1.18-.47-1.72-1.24-1.72S436.16,53.38,436,54.66Z"/></g></g><path d="M250.07,104.38h1.07l.07-.07V96.44h-2.27l-1,1.77h-.07V95.8h7.83v2.41h-.09l-1-1.77h-2.27v7.87l.07.07h1.07V105h-3.41Z"/><path d="M263.59,104.38V105h-2.91v-.64h.92l.07-.07v-2.7c0-1.22-.25-1.64-1.3-1.64a7.27,7.27,0,0,0-1.58.2v4.14l.08.07h.92V105h-2.91v-.64h.85l.07-.07V96.22l-.95-.45V95.7l1.86-.9.08,0v5a4.21,4.21,0,0,1,2-.82c1.28,0,1.85.59,1.85,1.66v3.59l.07.07Z"/><path d="M264.48,104.38h.85l.07-.07v-3.86l-.95-.45v-.08l1.86-.86.09,0v5.21l.07.07h.85V105h-2.84Zm.54-7.56a.78.78,0,1,1,.78.76A.79.79,0,0,1,265,96.82Z"/><path d="M268.35,104.82v-1.49h.07l.71.78a1.63,1.63,0,0,0,1.14.51c.58,0,1-.3,1-.81,0-.71-.68-.94-1.42-1.33s-1.39-1-1.39-1.79.76-1.63,2-1.63a4.19,4.19,0,0,1,1.51.27v1.45h-.08l-.73-.83a1.36,1.36,0,0,0-.94-.37.81.81,0,0,0-.92.8c0,.66.67,1,1.33,1.33s1.51.81,1.51,1.79a1.76,1.76,0,0,1-2,1.66A5,5,0,0,1,268.35,104.82Z"/><path d="M285.12,99.29v0l-.81.67-2,5.16h-.47l-1.29-3.33c-.38.93-1.38,3.33-1.38,3.33h-.45L276.51,100l-.83-.64v-.07h3v0l-1,.67,1.52,3.78h.05l1.07-2.58-.6-1.55,1-.51,1.59,4.64h.06l1.33-3.8-1-.65v0Z"/><path d="M290.68,104.38V105h-1.92v-.59a3.33,3.33,0,0,1-1.87.73,1.33,1.33,0,0,1-1.42-1.36c0-1.31,1.38-1.79,3.29-1.88v-.44c0-1.12-.25-1.65-1.29-1.65a2.92,2.92,0,0,0-1.65.53l-.18-.34a3,3,0,0,1,2.21-1,1.73,1.73,0,0,1,1.9,1.86v3.39l.07.07Zm-1.92-.2v-1.8c-1.2.08-2.28.28-2.28,1.23,0,.56.38.81.92.81A4.42,4.42,0,0,0,288.76,104.18Z"/><path d="M291.71,104.82v-1.49h.07l.71.78a1.62,1.62,0,0,0,1.13.51c.59,0,1-.3,1-.81,0-.71-.68-.94-1.41-1.33s-1.39-1-1.39-1.79.76-1.63,2-1.63a4.17,4.17,0,0,1,1.5.27v1.45h-.07l-.74-.83a1.32,1.32,0,0,0-.93-.37.81.81,0,0,0-.92.8c0,.66.66,1,1.33,1.33s1.5.81,1.5,1.79a1.76,1.76,0,0,1-2,1.66A5,5,0,0,1,291.71,104.82Z"/><path d="M300.26,103.36V100l-.07-.08h-.85v-.07l1.84-2.42h.07v1.86h1.92v.63h-1.92v2.66c0,1.43.22,1.91,1,1.91a3.09,3.09,0,0,0,.94-.15l.15.29a3,3,0,0,1-1.63.53C300.74,105.16,300.26,104.7,300.26,103.36Z"/><path d="M310.79,104.38V105h-2.91v-.64h.92l.07-.07v-2.7c0-1.22-.26-1.64-1.3-1.64a7.2,7.2,0,0,0-1.58.2v4.14l.07.07H307V105h-2.9v-.64h.85l.07-.07V96.22l-.95-.45V95.7l1.86-.9.08,0v5a4.17,4.17,0,0,1,2-.82c1.28,0,1.84.59,1.84,1.66v3.59l.07.07Z"/><path d="M316.77,101.85h-3.92c0,1.86,1,2.54,2.26,2.54a3.21,3.21,0,0,0,1.46-.35l.16.3a3.3,3.3,0,0,1-2.2.82,2.73,2.73,0,0,1-2.77-2.92,3,3,0,0,1,2.8-3.19,2.12,2.12,0,0,1,2.24,2.32C316.8,101.53,316.78,101.68,316.77,101.85Zm-3.89-.51h2.81c0-1.17-.47-1.71-1.23-1.71S313,100.07,312.88,101.34Z"/><path d="M327.73,104.38V105H324.9v-.64h.85l.07-.07V99.92h-3l-.07.09v4.3l.07.07h.85V105h-2.84v-.64h.85l.07-.07V100l-.07-.09h-.85v-.63h.85l.07-.07v-.39c0-2.88.91-4,2.79-4a5.31,5.31,0,0,1,1.63.24v2.13h-.07l-.78-1a1.59,1.59,0,0,0-1.27-.73c-.83,0-1.3.65-1.3,2v1.72l.07.07h4v5l.07.07Z"/><path d="M332.75,99.16v1a3.91,3.91,0,0,0-.72-.07,6.59,6.59,0,0,0-1.49.2v4l.07.07h1.06V105h-3.05v-.64h.86l.07-.07v-3.86l-.95-.45v-.08l1.71-.87.09,0,.14,1a4.47,4.47,0,0,1,1.86-1A.63.63,0,0,1,332.75,99.16Z"/><path d="M333.49,104.82v-1.49h.07l.71.78a1.62,1.62,0,0,0,1.13.51c.58,0,1-.3,1-.81,0-.71-.68-.94-1.42-1.33s-1.39-1-1.39-1.79.77-1.63,2-1.63a4.17,4.17,0,0,1,1.5.27v1.45H337l-.74-.83a1.34,1.34,0,0,0-.93-.37.82.82,0,0,0-.93.8c0,.66.67,1,1.34,1.33s1.5.81,1.5,1.79a1.76,1.76,0,0,1-2,1.66A5,5,0,0,1,333.49,104.82Z"/><path d="M338.92,103.36V100l-.07-.08H338v-.07l1.84-2.42h.07v1.86h1.92v.63h-1.92v2.66c0,1.43.22,1.91,1,1.91a3,3,0,0,0,.93-.15l.16.29a3.07,3.07,0,0,1-1.63.53C339.4,105.16,338.92,104.7,338.92,103.36Z"/><path d="M356.15,104.38V105h-2.83v-.64h.85l.07-.07v-2.7c0-1.22-.24-1.64-1.24-1.64a6.34,6.34,0,0,0-1.54.21l0,0a2.08,2.08,0,0,1,.06.57v3.59l.07.07h.85V105h-2.84v-.64h.86l.07-.07v-2.7c0-1.22-.24-1.64-1.24-1.64a6.58,6.58,0,0,0-1.5.2v4.14l.07.07h.85V105h-2.84v-.64h.86l.07-.07v-3.85l-.95-.45v-.07l1.71-.88.09,0,.11.81a3.94,3.94,0,0,1,2-.85c.9,0,1.43.31,1.66.91a4.14,4.14,0,0,1,2.07-.91c1.23,0,1.77.59,1.77,1.66v3.59l.07.07Z"/><path d="M357.13,102.22a3,3,0,0,1,3-3.16,2.73,2.73,0,0,1,2.82,2.94,3,3,0,0,1-3,3.16A2.73,2.73,0,0,1,357.13,102.22Zm4.71.13c0-1.56-.84-2.72-1.94-2.72-.94,0-1.68.69-1.68,2.22s.8,2.74,1.94,2.74C361.14,104.59,361.84,103.87,361.84,102.35Z"/><path d="M364.09,100l-.79-.64v-.07h2.92v0l-.92.67,1.59,3.77h.05l1.63-3.77-1-.64v-.07H370v0l-.71.67-2.31,5.16h-.48Z"/><path d="M375.24,101.85h-3.92c0,1.86,1,2.54,2.26,2.54A3.21,3.21,0,0,0,375,104l.16.3a3.3,3.3,0,0,1-2.2.82,2.73,2.73,0,0,1-2.77-2.92,3,3,0,0,1,2.8-3.19,2.12,2.12,0,0,1,2.24,2.32C375.27,101.53,375.25,101.68,375.24,101.85Zm-3.89-.51h2.81c0-1.17-.47-1.71-1.23-1.71S371.5,100.07,371.35,101.34Z"/><path d="M386.54,104.38V105h-2.83v-.64h.85l.07-.07v-2.7c0-1.22-.24-1.64-1.24-1.64a6.34,6.34,0,0,0-1.54.21l0,0a2.08,2.08,0,0,1,.06.57v3.59l.07.07h.85V105H380v-.64h.85l.07-.07v-2.7c0-1.22-.24-1.64-1.24-1.64a6.58,6.58,0,0,0-1.5.2v4.14l.07.07h.85V105h-2.83v-.64h.85l.07-.07v-3.85l-.95-.45v-.07l1.71-.88.09,0,.11.81a3.94,3.94,0,0,1,2-.85c.91,0,1.43.31,1.66.91a4.14,4.14,0,0,1,2.07-.91c1.23,0,1.77.59,1.77,1.66v3.59l.07.07Z"/><path d="M392.53,101.85h-3.92c0,1.86,1,2.54,2.26,2.54a3.21,3.21,0,0,0,1.46-.35l.15.3a3.25,3.25,0,0,1-2.19.82,2.73,2.73,0,0,1-2.77-2.92,3,3,0,0,1,2.79-3.19,2.12,2.12,0,0,1,2.25,2.32C392.56,101.53,392.54,101.68,392.53,101.85Zm-3.89-.51h2.81c0-1.17-.47-1.71-1.24-1.71S388.78,100.07,388.64,101.34Z"/><path d="M400.24,104.38V105h-2.91v-.64h.93l.07-.07v-2.7c0-1.22-.26-1.64-1.31-1.64a7.19,7.19,0,0,0-1.57.2v4.14l.07.07h.92V105h-2.91v-.64h.85l.08-.07v-3.86l-1-.45v-.08l1.72-.87.09,0,.11.81a4.16,4.16,0,0,1,2.06-.84c1.27,0,1.84.59,1.84,1.66v3.59l.07.07Z"/><path d="M401.8,103.36V100l-.07-.08h-.85v-.07l1.84-2.42h.07v1.86h1.92v.63h-1.92v2.66c0,1.43.22,1.91,1,1.91a3.09,3.09,0,0,0,.94-.15l.15.29a3.07,3.07,0,0,1-1.63.53C402.28,105.16,401.8,104.7,401.8,103.36Z"/><g id="And_this_is_the_last" data-name="And this is the last" class="cls-105"><g class="cls-105"><path d="M264.59,213.1v.64h-2.85v-.64h.68l.07-.07-.87-2.52h-3.1l-.91,2.52.07.07h1.05v.64h-3v-.64h1l.07-.07,3.22-8.58h.54l3.1,8.58.07.07Zm-3.18-3.23-1.29-3.77h0l-1.35,3.77Z"/><path d="M272.13,213.1v.64h-2.91v-.64h.93l.07-.07v-2.69c0-1.22-.26-1.65-1.31-1.65a7.85,7.85,0,0,0-1.57.2V213l.07.07h.92v.64h-2.91v-.64h.85l.07-.07v-3.85l-.95-.46v-.07l1.72-.88.09,0,.11.81a4.13,4.13,0,0,1,2.06-.83c1.27,0,1.84.59,1.84,1.66V213l.07.07Z"/><path d="M279.52,213.1v.64h-2v-.68a4.38,4.38,0,0,1-2.19.82c-1.41,0-2.23-1.41-2.23-2.87a3,3,0,0,1,2.95-3.22,3.46,3.46,0,0,1,1.47.29V205l-.95-.45v-.08l1.86-.89.09,0V213l.07.07Zm-2-.26v-3.61a1.7,1.7,0,0,0-1.61-.88c-1.25,0-1.72.91-1.72,2.34s.5,2.36,1.73,2.36A6.47,6.47,0,0,0,277.53,212.84Z"/><path d="M284.21,212.08v-3.36l-.07-.07h-.85v-.07l1.85-2.42h.07V208h1.91v.64h-1.91v2.65c0,1.44.21,1.92,1,1.92a2.76,2.76,0,0,0,.94-.16l.15.3a3,3,0,0,1-1.63.52C284.7,213.88,284.21,213.43,284.21,212.08Z"/><path d="M294.74,213.1v.64h-2.91v-.64h.92l.07-.07v-2.69c0-1.22-.25-1.65-1.3-1.65a7.86,7.86,0,0,0-1.58.2V213l.07.07h.93v.64H288v-.64h.85L289,213V205l-.95-.45v-.08l1.86-.89.08,0v5a4.07,4.07,0,0,1,2-.82c1.28,0,1.84.59,1.84,1.66V213l.08.07Z"/><path d="M295.63,213.1h.85l.07-.07v-3.85l-.95-.46v-.07l1.86-.86.08,0V213l.07.07h.86v.64h-2.84Zm.54-7.55a.77.77,0,1,1,1.54,0,.77.77,0,0,1-1.54,0Z"/><path d="M299.5,213.54v-1.48h.07l.71.78a1.63,1.63,0,0,0,1.14.51c.58,0,1-.3,1-.81,0-.71-.68-.94-1.41-1.34s-1.39-1-1.39-1.78.76-1.63,2-1.63a4.17,4.17,0,0,1,1.5.27v1.44H303l-.74-.82a1.32,1.32,0,0,0-.93-.37.81.81,0,0,0-.92.8c0,.66.66,1,1.33,1.33s1.5.81,1.5,1.79a1.75,1.75,0,0,1-1.95,1.65A5,5,0,0,1,299.5,213.54Z"/><path d="M307.39,213.1h.85l.07-.07v-3.85l-.95-.46v-.07l1.85-.86.09,0V213l.07.07h.85v.64h-2.83Zm.53-7.55a.79.79,0,0,1,.78-.78.77.77,0,1,1-.78.78Z"/><path d="M311.26,213.54v-1.48h.07l.71.78a1.62,1.62,0,0,0,1.13.51c.58,0,1-.3,1-.81,0-.71-.68-.94-1.42-1.34s-1.39-1-1.39-1.78.77-1.63,2-1.63a4.17,4.17,0,0,1,1.5.27v1.44h-.07l-.74-.82a1.36,1.36,0,0,0-.94-.37.82.82,0,0,0-.92.8c0,.66.67,1,1.34,1.33s1.5.81,1.5,1.79a1.76,1.76,0,0,1-2,1.65A5,5,0,0,1,311.26,213.54Z"/><path d="M319.81,212.08v-3.36l-.07-.07h-.85v-.07l1.84-2.42h.07V208h1.92v.64H320.8v2.65c0,1.44.21,1.92,1,1.92a2.7,2.7,0,0,0,.93-.16l.16.3a3.06,3.06,0,0,1-1.63.52C320.29,213.88,319.81,213.43,319.81,212.08Z"/><path d="M330.33,213.1v.64h-2.91v-.64h.93l.07-.07v-2.69c0-1.22-.26-1.65-1.31-1.65a7.85,7.85,0,0,0-1.57.2V213l.07.07h.92v.64h-2.91v-.64h.85l.07-.07V205l-1-.45v-.08l1.86-.89.09,0v5a4,4,0,0,1,2-.82c1.27,0,1.84.59,1.84,1.66V213l.07.07Z"/><path d="M336.32,210.58H332.4c0,1.86,1,2.54,2.26,2.54a3.09,3.09,0,0,0,1.46-.36l.15.3a3.27,3.27,0,0,1-2.19.82,2.72,2.72,0,0,1-2.77-2.92,3,3,0,0,1,2.79-3.19,2.12,2.12,0,0,1,2.24,2.33C336.34,210.25,336.33,210.41,336.32,210.58Zm-3.89-.51h2.81c0-1.18-.47-1.72-1.24-1.72S332.57,208.79,332.43,210.07Z"/><path d="M340.44,213.1h.85l.07-.07V205l-.95-.45v-.08l1.86-.89.09,0V213l.07.07h.92v.64h-2.91Z"/><path d="M349.46,213.1v.64h-1.91v-.58a3.31,3.31,0,0,1-1.87.72,1.32,1.32,0,0,1-1.42-1.36c0-1.3,1.37-1.78,3.29-1.87v-.44c0-1.12-.26-1.66-1.29-1.66a2.83,2.83,0,0,0-1.65.54l-.18-.34a3,3,0,0,1,2.21-1,1.73,1.73,0,0,1,1.9,1.85V213l.07.07Zm-1.91-.19V211.1c-1.21.09-2.29.29-2.29,1.24,0,.55.39.81.93.81A4.42,4.42,0,0,0,347.55,212.91Z"/><path d="M350.5,213.54v-1.48h.07l.71.78a1.62,1.62,0,0,0,1.13.51c.58,0,1-.3,1-.81,0-.71-.68-.94-1.42-1.34s-1.39-1-1.39-1.78.77-1.63,2-1.63a4.17,4.17,0,0,1,1.5.27v1.44H354l-.74-.82a1.36,1.36,0,0,0-.94-.37.82.82,0,0,0-.92.8c0,.66.67,1,1.34,1.33s1.5.81,1.5,1.79a1.76,1.76,0,0,1-2,1.65A5,5,0,0,1,350.5,213.54Z"/><path d="M355.93,212.08v-3.36l-.07-.07H355v-.07l1.84-2.42h.07V208h1.92v.64h-1.92v2.65c0,1.44.21,1.92,1,1.92a2.7,2.7,0,0,0,.93-.16l.16.3a3.06,3.06,0,0,1-1.63.52C356.41,213.88,355.93,213.43,355.93,212.08Z"/></g></g><line id="Line_9" data-name="Line 9" class="cls-106" x1="242.72" y1="103.54" x2="142.27" y2="134.27"/><g id="The_spokes_show_what_direction_the_dancer_moved_This_is_a_backward_movement" data-name="The spokes show what direction the dancer moved This is a backward movement" class="cls-105"><g class="cls-105"><path d="M42.67,344.29h1.06l.07-.07v-7.88H41.53l-1,1.78h-.07v-2.41h7.83v2.41H48.2l-1-1.78H44.93v7.88l.08.07h1.06v.63h-3.4Z"/><path d="M56.18,344.29v.63H53.27v-.63h.93l.07-.07v-2.7c0-1.22-.26-1.64-1.31-1.64a7.82,7.82,0,0,0-1.57.19v4.15l.07.07h.92v.63H49.47v-.63h.85l.07-.07v-8.09l-1-.45v-.07l1.86-.9.09,0v5a4.14,4.14,0,0,1,2-.82c1.27,0,1.84.59,1.84,1.66v3.59l.07.07Z"/><path d="M62.16,341.76H58.25c0,1.86,1,2.54,2.26,2.54A3.24,3.24,0,0,0,62,344l.15.29a3.29,3.29,0,0,1-2.2.83,2.72,2.72,0,0,1-2.76-2.93A3,3,0,0,1,60,339a2.12,2.12,0,0,1,2.24,2.33A4,4,0,0,1,62.16,341.76Zm-3.88-.51h2.81c0-1.18-.47-1.72-1.24-1.72S58.42,340,58.28,341.25Z"/><path d="M66.43,344.73v-1.49h.07l.71.78a1.65,1.65,0,0,0,1.14.51c.58,0,1-.3,1-.81,0-.71-.68-.94-1.42-1.33s-1.39-1-1.39-1.79.76-1.63,2-1.63a4.19,4.19,0,0,1,1.51.27v1.44H70l-.74-.82a1.36,1.36,0,0,0-.94-.37.81.81,0,0,0-.92.8c0,.66.67,1,1.33,1.33s1.51.81,1.51,1.79a1.76,1.76,0,0,1-2,1.66A5.27,5.27,0,0,1,66.43,344.73Z"/><path d="M77.45,341.85a3,3,0,0,1-4.39,2.88v2.75l.07.07h1.06v.64h-3v-.64H72l.07-.07v-7.12l-1-.46v-.07l1.72-.88.08.05.13.8A4,4,0,0,1,75.2,339C76.62,339,77.45,340.39,77.45,341.85Zm-1.09.31c0-1.32-.5-2.36-1.73-2.36a5.54,5.54,0,0,0-1.57.26v3.56a1.68,1.68,0,0,0,1.58.88C75.75,344.5,76.36,343.59,76.36,342.16Z"/><path d="M78.59,342.13a3,3,0,0,1,3-3.16,2.72,2.72,0,0,1,2.82,2.93,3,3,0,0,1-3,3.17A2.73,2.73,0,0,1,78.59,342.13Zm4.71.13c0-1.56-.84-2.73-2-2.73-.93,0-1.67.7-1.67,2.23s.79,2.74,1.94,2.74C82.6,344.5,83.3,343.78,83.3,342.26Z"/><path d="M87.44,344.29h.85v.63H85.45v-.63h.85l.07-.07v-8.09l-1-.45v-.07l1.86-.9.09,0v9.47Zm4.35,0v.63H90.1l-2.62-3.16L89.63,340l-.82-.73v-.08h2.82v.05l-3.14,2.31c.29.31,2.45,2.74,2.45,2.74Z"/><path d="M97.34,341.76H93.42c0,1.86,1,2.54,2.26,2.54a3.24,3.24,0,0,0,1.46-.35l.15.29a3.29,3.29,0,0,1-2.2.83,2.72,2.72,0,0,1-2.76-2.93A3,3,0,0,1,95.12,339a2.12,2.12,0,0,1,2.24,2.33C97.36,341.44,97.35,341.59,97.34,341.76Zm-3.89-.51h2.81c0-1.18-.47-1.72-1.24-1.72S93.59,340,93.45,341.25Z"/><path d="M98.48,344.73v-1.49h.07l.71.78a1.65,1.65,0,0,0,1.14.51c.58,0,1-.3,1-.81,0-.71-.68-.94-1.42-1.33s-1.39-1-1.39-1.79.76-1.63,2-1.63a4.19,4.19,0,0,1,1.51.27v1.44H102l-.74-.82a1.36,1.36,0,0,0-.94-.37.81.81,0,0,0-.92.8c0,.66.67,1,1.33,1.33s1.51.81,1.51,1.79a1.76,1.76,0,0,1-2,1.66A5.27,5.27,0,0,1,98.48,344.73Z"/><path d="M106.51,344.73v-1.49h.07l.71.78a1.63,1.63,0,0,0,1.14.51c.58,0,1-.3,1-.81,0-.71-.68-.94-1.41-1.33s-1.39-1-1.39-1.79.76-1.63,2-1.63a4.17,4.17,0,0,1,1.5.27v1.44H110l-.74-.82a1.32,1.32,0,0,0-.93-.37.81.81,0,0,0-.92.8c0,.66.66,1,1.33,1.33s1.5.81,1.5,1.79a1.76,1.76,0,0,1-2,1.66A5.27,5.27,0,0,1,106.51,344.73Z"/><path d="M118,344.29v.63h-2.9v-.63H116l.07-.07v-2.7c0-1.22-.26-1.64-1.31-1.64a7.82,7.82,0,0,0-1.57.19v4.15l.07.07h.92v.63h-2.9v-.63h.85l.07-.07v-8.09l-1-.45v-.07l1.86-.9.08,0v5a4.17,4.17,0,0,1,2-.82c1.27,0,1.84.59,1.84,1.66v3.59l.07.07Z"/><path d="M119,342.13a3,3,0,0,1,3-3.16,2.72,2.72,0,0,1,2.83,2.93,3,3,0,0,1-3,3.17A2.74,2.74,0,0,1,119,342.13Zm4.71.13c0-1.56-.84-2.73-1.94-2.73-.94,0-1.68.7-1.68,2.23s.8,2.74,2,2.74C123,344.5,123.67,343.78,123.67,342.26Z"/><path d="M134.56,339.19v.05l-.81.66-2,5.17h-.46L130,341.73l-1.38,3.34h-.45L126,339.9l-.82-.63v-.08h3v.05l-1,.66,1.51,3.79h.06l1.06-2.58-.59-1.55,1-.51,1.59,4.64h.05l1.34-3.8-1-.65v-.05Z"/><path d="M147,339.19v.05l-.81.66-2,5.17h-.46l-1.3-3.34c-.38.94-1.37,3.34-1.37,3.34h-.46l-2.21-5.17-.82-.63v-.08h3v.05l-1,.66,1.51,3.79h.06l1.06-2.58-.59-1.55,1-.51,1.58,4.64h.06l1.33-3.8-1-.65v-.05Z"/><path d="M154.09,344.29v.63h-2.91v-.63h.92l.08-.07v-2.7c0-1.22-.26-1.64-1.31-1.64a7.74,7.74,0,0,0-1.57.19v4.15l.07.07h.92v.63h-2.91v-.63h.85l.07-.07v-8.09l-1-.45v-.07l1.86-.9.09,0v5a4.14,4.14,0,0,1,2-.82c1.28,0,1.85.59,1.85,1.66v3.59l.07.07Z"/><path d="M160.2,344.29v.63h-1.91v-.58a3.33,3.33,0,0,1-1.87.73A1.33,1.33,0,0,1,155,343.7c0-1.3,1.37-1.78,3.29-1.87v-.44c0-1.12-.26-1.66-1.29-1.66a2.9,2.9,0,0,0-1.65.54l-.18-.34a3,3,0,0,1,2.21-1,1.73,1.73,0,0,1,1.9,1.86v3.39l.07.07Zm-1.91-.2v-1.8c-1.21.08-2.29.28-2.29,1.23,0,.55.39.81.93.81A4.42,4.42,0,0,0,158.29,344.09Z"/><path d="M161.76,343.26V339.9l-.07-.07h-.85v-.07l1.84-2.42h.08v1.85h1.91v.64h-1.91v2.66c0,1.43.21,1.91,1,1.91a2.81,2.81,0,0,0,.94-.16l.15.3a3,3,0,0,1-1.63.53C162.24,345.07,161.76,344.61,161.76,343.26Z"/><path d="M175.19,344.29v.63h-2v-.68a4.46,4.46,0,0,1-2.2.83c-1.41,0-2.23-1.42-2.23-2.88a3,3,0,0,1,2.95-3.22,3.36,3.36,0,0,1,1.48.3v-3.14l-1-.45v-.07l1.85-.9.09,0v9.47l.07.07Zm-2-.27v-3.61a1.72,1.72,0,0,0-1.62-.88c-1.25,0-1.72.91-1.72,2.35s.5,2.35,1.73,2.35A6.56,6.56,0,0,0,173.21,344Z"/><path d="M176.1,344.29H177l.07-.07v-3.86l-1-.46v-.07l1.86-.86.08,0v5.21l.07.07h.86v.63H176.1Zm.54-7.56a.77.77,0,1,1,1.54,0,.77.77,0,0,1-1.54,0Z"/><path d="M184,339.07v1a3.93,3.93,0,0,0-.73-.07,6.66,6.66,0,0,0-1.49.2v4l.07.07h1.07v.63h-3v-.63h.85l.07-.07v-3.86l-.95-.46v-.07l1.72-.88.08.05.14,1a4.52,4.52,0,0,1,1.86-1A.64.64,0,0,1,184,339.07Z"/><path d="M189.57,341.76h-3.91c0,1.86,1,2.54,2.25,2.54a3.18,3.18,0,0,0,1.46-.35l.16.29a3.31,3.31,0,0,1-2.2.83,2.72,2.72,0,0,1-2.76-2.93,3,3,0,0,1,2.79-3.19,2.12,2.12,0,0,1,2.24,2.33A4,4,0,0,1,189.57,341.76Zm-3.88-.51h2.8c0-1.18-.46-1.72-1.23-1.72S185.83,340,185.69,341.25Z"/><path d="M190.66,342.19a3,3,0,0,1,3-3.22,3.71,3.71,0,0,1,1.56.31V341h-.07l-.84-1.06a1.4,1.4,0,0,0-1-.34c-1,0-1.58.88-1.58,2.18,0,1.82.89,2.57,2.09,2.57a3.25,3.25,0,0,0,1.47-.35l.15.29a3.14,3.14,0,0,1-2.13.83A2.62,2.62,0,0,1,190.66,342.19Z"/><path d="M197.05,343.26V339.9l-.08-.07h-.85v-.07l1.85-2.42H198v1.85H200v.64H198v2.66c0,1.43.21,1.91,1,1.91a2.72,2.72,0,0,0,.94-.16l.16.3a3.07,3.07,0,0,1-1.64.53C197.53,345.07,197.05,344.61,197.05,343.26Z"/><path d="M200.86,344.29h.85l.07-.07v-3.86l-.95-.46v-.07l1.86-.86.08,0v5.21l.08.07h.85v.63h-2.84Zm.54-7.56a.77.77,0,1,1,1.54,0,.77.77,0,0,1-1.54,0Z"/><path d="M204.67,342.13a3,3,0,0,1,3-3.16,2.72,2.72,0,0,1,2.82,2.93,3,3,0,0,1-3,3.17A2.74,2.74,0,0,1,204.67,342.13Zm4.71.13c0-1.56-.83-2.73-1.94-2.73-.94,0-1.67.7-1.67,2.23s.79,2.74,1.94,2.74C208.69,344.5,209.38,343.78,209.38,342.26Z"/><path d="M218.25,344.29v.63h-2.91v-.63h.92l.07-.07v-2.7c0-1.22-.25-1.64-1.3-1.64a7.83,7.83,0,0,0-1.58.19v4.15l.07.07h.93v.63h-2.91v-.63h.85l.07-.07v-3.86l-1-.46v-.07l1.72-.88.08.05.11.8a4.26,4.26,0,0,1,2.06-.83c1.28,0,1.85.59,1.85,1.66v3.59l.07.07Z"/><path d="M222.93,343.26V339.9l-.07-.07H222v-.07l1.85-2.42h.07v1.85h1.91v.64h-1.91v2.66c0,1.43.21,1.91,1,1.91a2.72,2.72,0,0,0,.94-.16l.16.3a3.07,3.07,0,0,1-1.63.53C223.41,345.07,222.93,344.61,222.93,343.26Z"/><path d="M233.45,344.29v.63h-2.91v-.63h.92l.07-.07v-2.7c0-1.22-.25-1.64-1.3-1.64a7.74,7.74,0,0,0-1.57.19v4.15l.07.07h.92v.63h-2.91v-.63h.85l.07-.07v-8.09l-.95-.45v-.07l1.86-.9.09,0v5a4.14,4.14,0,0,1,2-.82c1.28,0,1.85.59,1.85,1.66v3.59l.07.07Z"/><path d="M239.43,341.76h-3.91c0,1.86,1,2.54,2.25,2.54a3.25,3.25,0,0,0,1.47-.35l.15.29a3.29,3.29,0,0,1-2.2.83,2.72,2.72,0,0,1-2.76-2.93,3,3,0,0,1,2.79-3.19,2.12,2.12,0,0,1,2.24,2.33A4,4,0,0,1,239.43,341.76Zm-3.88-.51h2.81c0-1.18-.47-1.72-1.24-1.72S235.69,340,235.55,341.25Z"/><path d="M250.06,344.29v.63h-2v-.68a4.46,4.46,0,0,1-2.2.83c-1.4,0-2.23-1.42-2.23-2.88a3,3,0,0,1,3-3.22,3.31,3.31,0,0,1,1.47.3v-3.14l-.95-.45v-.07l1.86-.9.08,0v9.47l.07.07Zm-2-.27v-3.61a1.71,1.71,0,0,0-1.62-.88c-1.24,0-1.71.91-1.71,2.35s.49,2.35,1.73,2.35A6.54,6.54,0,0,0,248.07,344Z"/><path d="M256.18,344.29v.63h-1.91v-.58a3.33,3.33,0,0,1-1.87.73A1.33,1.33,0,0,1,251,343.7c0-1.3,1.37-1.78,3.29-1.87v-.44c0-1.12-.26-1.66-1.29-1.66a2.9,2.9,0,0,0-1.65.54l-.18-.34a3,3,0,0,1,2.21-1,1.73,1.73,0,0,1,1.9,1.86v3.39l.07.07Zm-1.91-.2v-1.8c-1.21.08-2.29.28-2.29,1.23,0,.55.39.81.93.81A4.42,4.42,0,0,0,254.27,344.09Z"/><path d="M263.78,344.29v.63h-2.9v-.63h.92l.07-.07v-2.7c0-1.22-.26-1.64-1.31-1.64a7.82,7.82,0,0,0-1.57.19v4.15l.07.07H260v.63h-2.9v-.63h.85l.07-.07v-3.86l-.95-.46v-.07l1.71-.88.09.05.11.8A4.22,4.22,0,0,1,261,339c1.27,0,1.84.59,1.84,1.66v3.59l.07.07Z"/><path d="M264.76,342.19a3,3,0,0,1,3-3.22,3.75,3.75,0,0,1,1.56.31V341h-.07l-.84-1.06a1.4,1.4,0,0,0-1-.34c-1,0-1.59.88-1.59,2.18,0,1.82.9,2.57,2.1,2.57a3.18,3.18,0,0,0,1.46-.35l.16.29a3.14,3.14,0,0,1-2.13.83A2.62,2.62,0,0,1,264.76,342.19Z"/><path d="M275.5,341.76h-3.92c0,1.86,1,2.54,2.26,2.54a3.21,3.21,0,0,0,1.46-.35l.16.29a3.31,3.31,0,0,1-2.2.83,2.73,2.73,0,0,1-2.77-2.93,3,3,0,0,1,2.8-3.19,2.13,2.13,0,0,1,2.24,2.33C275.53,341.44,275.51,341.59,275.5,341.76Zm-3.89-.51h2.81c0-1.18-.47-1.72-1.23-1.72S271.75,340,271.61,341.25Z"/><path d="M280.63,339.07v1a3.91,3.91,0,0,0-.72-.07,6.59,6.59,0,0,0-1.49.2v4l.07.07h1.06v.63H276.5v-.63h.86l.07-.07v-3.86l-.95-.46v-.07l1.71-.88.09.05.14,1a4.47,4.47,0,0,1,1.86-1A.63.63,0,0,1,280.63,339.07Z"/><path d="M294.57,344.29v.63h-2.83v-.63h.85l.07-.07v-2.7c0-1.22-.24-1.64-1.24-1.64a6.34,6.34,0,0,0-1.54.21l0,0a2.08,2.08,0,0,1,.06.57v3.59l.07.07h.85v.63H288v-.63h.85l.07-.07v-2.7c0-1.22-.24-1.64-1.24-1.64a7.17,7.17,0,0,0-1.5.19v4.15l.07.07h.85v.63h-2.83v-.63h.85l.07-.07v-3.85l-.95-.45v-.07L286,339l.09,0,.11.81a3.94,3.94,0,0,1,2-.85c.9,0,1.43.31,1.66.91a4.14,4.14,0,0,1,2.07-.91c1.23,0,1.77.59,1.77,1.66v3.59l.07.07Z"/><path d="M295.55,342.13a3,3,0,0,1,3-3.16,2.72,2.72,0,0,1,2.82,2.93,3,3,0,0,1-3,3.17A2.73,2.73,0,0,1,295.55,342.13Zm4.71.13c0-1.56-.84-2.73-1.94-2.73-.94,0-1.68.7-1.68,2.23s.8,2.74,1.95,2.74C299.56,344.5,300.26,343.78,300.26,342.26Z"/><path d="M302.51,339.9l-.79-.63v-.08h2.92v.05l-.92.66,1.59,3.78h.05L307,339.9l-1-.63v-.08h2.38v.05l-.71.66-2.31,5.17h-.48Z"/><path d="M313.66,341.76h-3.91c0,1.86,1,2.54,2.25,2.54a3.21,3.21,0,0,0,1.46-.35l.16.29a3.31,3.31,0,0,1-2.2.83,2.73,2.73,0,0,1-2.77-2.93,3,3,0,0,1,2.8-3.19,2.13,2.13,0,0,1,2.24,2.33C313.69,341.44,313.67,341.59,313.66,341.76Zm-3.89-.51h2.81c0-1.18-.47-1.72-1.23-1.72S309.92,340,309.77,341.25Z"/><path d="M321.16,344.29v.63h-2v-.68a4.46,4.46,0,0,1-2.2.83c-1.41,0-2.23-1.42-2.23-2.88A3,3,0,0,1,317.7,339a3.36,3.36,0,0,1,1.48.3v-3.14l-.95-.45v-.07l1.86-.9.08,0v9.47l.07.07Zm-2-.27v-3.61a1.72,1.72,0,0,0-1.62-.88c-1.25,0-1.72.91-1.72,2.35s.5,2.35,1.73,2.35A6.56,6.56,0,0,0,319.18,344Z"/></g><g class="cls-105"><path d="M42.67,364.14h1.06l.07-.07V356.2H41.53l-1,1.77h-.07v-2.41h7.83V358H48.2l-1-1.77H44.93v7.87l.08.07h1.06v.64h-3.4Z"/><path d="M56.18,364.14v.64H53.27v-.64h.93l.07-.07v-2.7c0-1.21-.26-1.64-1.31-1.64a7.19,7.19,0,0,0-1.57.2v4.14l.07.07h.92v.64H49.47v-.64h.85l.07-.07V356l-1-.46v-.07l1.86-.89.09,0v5a4.14,4.14,0,0,1,2-.82c1.27,0,1.84.6,1.84,1.66v3.59l.07.07Z"/><path d="M57.07,364.14h.85l.08-.07v-3.86l-1-.45v-.07l1.85-.87.09,0v5.21l.07.07h.85v.64H57.07Zm.54-7.56a.78.78,0,1,1,.78.77A.79.79,0,0,1,57.61,356.58Z"/><path d="M61,364.58v-1.49H61l.71.78a1.61,1.61,0,0,0,1.13.51c.58,0,1-.3,1-.81,0-.71-.68-.93-1.42-1.33s-1.39-1-1.39-1.79.77-1.63,2-1.63a4.19,4.19,0,0,1,1.51.27v1.45h-.07l-.74-.82a1.32,1.32,0,0,0-.94-.37.81.81,0,0,0-.92.79c0,.67.67,1,1.33,1.33s1.51.81,1.51,1.79a1.76,1.76,0,0,1-2,1.66A5,5,0,0,1,61,364.58Z"/><path d="M68.83,364.14h.85l.07-.07v-3.86l-1-.45v-.07l1.86-.87.08,0v5.21l.08.07h.85v.64H68.83Zm.54-7.56a.77.77,0,1,1,.78.77A.79.79,0,0,1,69.37,356.58Z"/><path d="M72.7,364.58v-1.49h.07l.71.78a1.63,1.63,0,0,0,1.14.51c.58,0,1-.3,1-.81,0-.71-.68-.93-1.41-1.33s-1.39-1-1.39-1.79.76-1.63,2-1.63a4.17,4.17,0,0,1,1.5.27v1.45h-.07l-.73-.82a1.32,1.32,0,0,0-.94-.37c-.57,0-.92.32-.92.79,0,.67.66,1,1.33,1.33s1.5.81,1.5,1.79a1.76,1.76,0,0,1-2,1.66A5,5,0,0,1,72.7,364.58Z"/><path d="M85.81,364.14v.64H83.89v-.58a3.39,3.39,0,0,1-1.87.72,1.32,1.32,0,0,1-1.42-1.36c0-1.31,1.38-1.79,3.29-1.87v-.44c0-1.12-.26-1.66-1.29-1.66a2.86,2.86,0,0,0-1.65.54l-.18-.34a3,3,0,0,1,2.21-1,1.73,1.73,0,0,1,1.9,1.86v3.39l.07.07Zm-1.92-.2v-1.8c-1.2.09-2.28.28-2.28,1.23,0,.56.38.81.92.81A4.42,4.42,0,0,0,83.89,363.94Z"/><path d="M95.92,361.7a3,3,0,0,1-3.07,3.22,5.75,5.75,0,0,1-2.31-.47V356l-1-.46v-.07l1.86-.89.08,0v5a4.37,4.37,0,0,1,2.16-.8C95.09,358.82,95.92,360.24,95.92,361.7Zm-1.1.31c0-1.32-.49-2.35-1.73-2.35a6,6,0,0,0-1.56.2v3.93a2,2,0,0,0,1.51.56C94.29,364.35,94.82,363.52,94.82,362Z"/><path d="M102.11,364.14v.64H100.2v-.58a3.39,3.39,0,0,1-1.87.72,1.32,1.32,0,0,1-1.42-1.36c0-1.31,1.38-1.79,3.29-1.87v-.44c0-1.12-.26-1.66-1.29-1.66a2.86,2.86,0,0,0-1.65.54l-.18-.34a3,3,0,0,1,2.21-1,1.73,1.73,0,0,1,1.9,1.86v3.39l.07.07Zm-1.91-.2v-1.8c-1.21.09-2.28.28-2.28,1.23,0,.56.38.81.92.81A4.42,4.42,0,0,0,100.2,363.94Z"/><path d="M103.09,362a3,3,0,0,1,3-3.22,3.71,3.71,0,0,1,1.56.31v1.68h-.07l-.84-1.07a1.4,1.4,0,0,0-1-.34c-1,0-1.59.88-1.59,2.19,0,1.81.9,2.56,2.1,2.56a3.18,3.18,0,0,0,1.46-.35l.16.3a3.14,3.14,0,0,1-2.13.82A2.62,2.62,0,0,1,103.09,362Z"/><path d="M110.79,364.14h.85v.64h-2.83v-.64h.85l.07-.07V356l-1-.46v-.07l1.86-.89.08,0v9.46Zm4.36,0v.64h-1.69l-2.62-3.16,2.15-1.76-.82-.74v-.07H115v0l-3.15,2.31c.3.32,2.46,2.74,2.46,2.74Z"/><path d="M124.83,359.05v0l-.8.67-2,5.16h-.47l-1.29-3.33c-.39.93-1.38,3.33-1.38,3.33h-.45l-2.22-5.16-.82-.64v-.07h2.95v0l-1,.67,1.52,3.78h0L120,361l-.6-1.54,1-.51,1.59,4.63h0l1.34-3.8-1-.65v0Z"/><path d="M130.39,364.14v.64h-1.91v-.58a3.39,3.39,0,0,1-1.87.72,1.32,1.32,0,0,1-1.42-1.36c0-1.31,1.37-1.79,3.29-1.87v-.44c0-1.12-.26-1.66-1.29-1.66a2.83,2.83,0,0,0-1.65.54l-.18-.34a3,3,0,0,1,2.21-1,1.73,1.73,0,0,1,1.9,1.86v3.39l.07.07Zm-1.91-.2v-1.8c-1.21.09-2.29.28-2.29,1.23,0,.56.39.81.93.81A4.42,4.42,0,0,0,128.48,363.94Z"/><path d="M135.41,358.92v1a3.14,3.14,0,0,0-.72-.07,7.15,7.15,0,0,0-1.49.19v4l.07.07h1.07v.64h-3.05v-.64h.85l.07-.07v-3.86l-1-.45v-.07l1.71-.88.09,0,.14,1a4.65,4.65,0,0,1,1.86-1A.63.63,0,0,1,135.41,358.92Z"/><path d="M142.43,364.14v.64h-2v-.68a4.54,4.54,0,0,1-2.2.82c-1.41,0-2.23-1.42-2.23-2.88a3,3,0,0,1,2.95-3.22,3.5,3.5,0,0,1,1.48.3V356l-.95-.46v-.07l1.86-.89.08,0v9.46l.07.07Zm-2-.27v-3.6a1.72,1.72,0,0,0-1.62-.88c-1.25,0-1.72.91-1.72,2.34s.5,2.35,1.73,2.35A6.56,6.56,0,0,0,140.45,363.87Z"/><path d="M156.76,364.14v.64h-2.84v-.64h.85l.07-.07v-2.7c0-1.21-.24-1.64-1.23-1.64a6.49,6.49,0,0,0-1.55.21v0a2.56,2.56,0,0,1,.06.57v3.59l.07.07H153v.64h-2.84v-.64H151l.07-.07v-2.7c0-1.21-.24-1.64-1.23-1.64a6.67,6.67,0,0,0-1.51.2v4.14l.08.07h.85v.64h-2.84v-.64h.85l.07-.07v-3.84l-.95-.46v-.07l1.72-.88.08,0,.12.81a4,4,0,0,1,2-.85c.91,0,1.43.31,1.66.91a4.14,4.14,0,0,1,2.07-.91c1.24,0,1.78.6,1.78,1.66v3.59l.07.07Z"/><path d="M157.73,362a3,3,0,0,1,3-3.16,2.73,2.73,0,0,1,2.82,2.94,3,3,0,0,1-3,3.16A2.74,2.74,0,0,1,157.73,362Zm4.71.13c0-1.56-.83-2.72-1.94-2.72-.94,0-1.67.69-1.67,2.23s.79,2.73,1.94,2.73C161.75,364.35,162.44,363.63,162.44,362.11Z"/><path d="M164.7,359.76l-.8-.64v-.07h2.92v0l-.92.67,1.59,3.77h.06l1.63-3.77-1-.64v-.07h2.38v0l-.7.67-2.32,5.16h-.48Z"/><path d="M175.84,361.62h-3.91c0,1.85,1,2.53,2.25,2.53a3.25,3.25,0,0,0,1.47-.35l.15.3a3.28,3.28,0,0,1-2.2.82,2.71,2.71,0,0,1-2.76-2.92,3,3,0,0,1,2.79-3.19,2.11,2.11,0,0,1,2.24,2.32A4.15,4.15,0,0,1,175.84,361.62Zm-3.88-.51h2.81c0-1.18-.47-1.72-1.24-1.72S172.1,359.83,172,361.11Z"/><path d="M187.15,364.14v.64h-2.84v-.64h.85l.07-.07v-2.7c0-1.21-.24-1.64-1.23-1.64a6.49,6.49,0,0,0-1.55.21v0a2.56,2.56,0,0,1,.06.57v3.59l.07.07h.85v.64h-2.84v-.64h.85l.07-.07v-2.7c0-1.21-.24-1.64-1.23-1.64a6.51,6.51,0,0,0-1.5.2v4.14l.07.07h.85v.64h-2.84v-.64h.85l.07-.07v-3.84l-1-.46v-.07l1.72-.88.08,0,.12.81a4,4,0,0,1,2-.85c.91,0,1.44.31,1.66.91a4.17,4.17,0,0,1,2.07-.91c1.24,0,1.78.6,1.78,1.66v3.59l.07.07Z"/><path d="M193.13,361.62h-3.91c0,1.85,1,2.53,2.25,2.53a3.18,3.18,0,0,0,1.46-.35l.16.3a3.3,3.3,0,0,1-2.2.82,2.72,2.72,0,0,1-2.77-2.92,3,3,0,0,1,2.8-3.19,2.11,2.11,0,0,1,2.24,2.32A4.15,4.15,0,0,1,193.13,361.62Zm-3.88-.51h2.8c0-1.18-.46-1.72-1.23-1.72S189.39,359.83,189.25,361.11Z"/><path d="M200.85,364.14v.64h-2.91v-.64h.92l.07-.07v-2.7c0-1.21-.25-1.64-1.3-1.64a7.2,7.2,0,0,0-1.58.2v4.14l.07.07h.93v.64h-2.91v-.64H195l.07-.07v-3.86l-.95-.45v-.07l1.72-.88.08,0,.11.81a4.19,4.19,0,0,1,2.06-.84c1.28,0,1.84.6,1.84,1.66v3.59l.08.07Z"/><path d="M202.41,363.12v-3.36l-.07-.07h-.86v-.07l1.85-2.43h.07v1.86h1.91v.64H203.4v2.65c0,1.43.21,1.91,1,1.91a2.73,2.73,0,0,0,.94-.15l.16.3a3.15,3.15,0,0,1-1.63.52C202.89,364.92,202.41,364.47,202.41,363.12Z"/></g></g><line id="Line_11" data-name="Line 11" class="cls-106" x1="115.68" y1="330.45" x2="115.68" y2="306.81"/><line id="Line_10" data-name="Line 10" class="cls-106" x1="249.81" y1="206.95" x2="217.31" y2="193.95"/><path id="Polygon_5" data-name="Polygon 5" d="M214.92,192.67l9.36-.85L220.81,200Z"/><path id="Polygon_6" data-name="Polygon 6" d="M115.32,302.42l4.43,8.27h-8.86Z"/><path id="Polygon_7" data-name="Polygon 7" d="M141,134.84l6.26-7,3,8.33Z"/><path class="cls-107" d="M161.5,154.59a49.52,49.52,0,0,1-24.2,36.24"/><path class="cls-107" d="M175.23,152.28a65,65,0,0,1-30.84,50.18"/><path class="cls-108" d="M201.81,153.29a90,90,0,0,1-42.54,71.79"/><line id="Line_10-2" data-name="Line 10" class="cls-106" x1="186.35" y1="264.05" x2="167.39" y2="221.16"/><path id="Polygon_5-2" data-name="Polygon 5" d="M166.58,218.57l7.28,5.94-8.19,3.41Z"/><path d="M189.65,275.16h1l.06-.06V268h-2l-.91,1.6h-.06v-2.18h7.05v2.18h-.08l-.89-1.6h-2.05v7.09l.07.06h1v.58h-3.06Z"/><path d="M201.83,275.16v.58h-2.62v-.58H200l.06-.06v-2.43c0-1.1-.23-1.48-1.17-1.48a6.9,6.9,0,0,0-1.42.18v3.73l.06.06h.83v.58h-2.62v-.58h.77l.06-.06v-7.28l-.85-.41v-.07l1.67-.8.08,0v4.53a3.74,3.74,0,0,1,1.83-.74c1.14,0,1.66.54,1.66,1.5v3.23l.06.06Z"/><path d="M207.22,272.89h-3.53c0,1.67.89,2.28,2,2.28a2.88,2.88,0,0,0,1.31-.31l.14.26a3,3,0,0,1-2,.75,2.46,2.46,0,0,1-2.49-2.64,2.67,2.67,0,0,1,2.52-2.87,1.91,1.91,0,0,1,2,2.09C207.25,272.6,207.23,272.74,207.22,272.89Zm-3.5-.46h2.53c0-1.06-.42-1.55-1.11-1.55S203.85,271.28,203.72,272.43Z"/><path d="M211.07,275.56v-1.34h.06l.64.7a1.46,1.46,0,0,0,1,.46c.53,0,.88-.27.88-.73,0-.64-.61-.84-1.27-1.2s-1.25-.87-1.25-1.61.68-1.47,1.81-1.47a3.78,3.78,0,0,1,1.35.24v1.31h-.06l-.66-.74a1.24,1.24,0,0,0-.85-.33.73.73,0,0,0-.83.71c0,.6.6.88,1.2,1.2s1.36.73,1.36,1.61a1.6,1.6,0,0,1-1.77,1.5A4.46,4.46,0,0,1,211.07,275.56Z"/><path d="M221,273a2.74,2.74,0,0,1-2.66,2.9,2.65,2.65,0,0,1-1.3-.31V278l.06.06h1v.57h-2.75v-.57h.77l.06-.06v-6.42l-.85-.4v-.07l1.54-.79.08,0,.11.73a3.6,3.6,0,0,1,1.95-.76C220.24,270.37,221,271.65,221,273Zm-1,.28c0-1.19-.44-2.12-1.56-2.12a4.89,4.89,0,0,0-1.41.23v3.2a1.49,1.49,0,0,0,1.43.79C219.46,275.35,220,274.54,220,273.25Z"/><path d="M226.58,275.16v.58h-1.72v-.53a3,3,0,0,1-1.69.66,1.2,1.2,0,0,1-1.28-1.23c0-1.18,1.24-1.61,3-1.69v-.39c0-1-.23-1.5-1.17-1.5a2.55,2.55,0,0,0-1.48.49l-.16-.31a2.7,2.7,0,0,1,2-.87,1.56,1.56,0,0,1,1.71,1.68v3.05l.06.06Zm-1.72-.18v-1.62c-1.09.08-2.06.26-2.06,1.11,0,.5.34.73.83.73A3.88,3.88,0,0,0,224.86,275Z"/><path d="M227.47,273.27a2.68,2.68,0,0,1,2.7-2.9,3.38,3.38,0,0,1,1.41.28v1.51h-.07l-.75-1a1.25,1.25,0,0,0-.88-.3c-.92,0-1.43.79-1.43,2,0,1.64.8,2.31,1.89,2.31a2.82,2.82,0,0,0,1.31-.31l.15.26a2.84,2.84,0,0,1-1.92.75A2.36,2.36,0,0,1,227.47,273.27Z"/><path d="M237.14,272.89h-3.53c0,1.67.88,2.28,2,2.28a2.89,2.89,0,0,0,1.32-.31l.14.26a3,3,0,0,1-2,.75,2.46,2.46,0,0,1-2.49-2.64,2.67,2.67,0,0,1,2.52-2.87,1.9,1.9,0,0,1,2,2.09C237.16,272.6,237.15,272.74,237.14,272.89Zm-3.5-.46h2.53c0-1.06-.42-1.55-1.11-1.55S233.77,271.28,233.64,272.43Z"/><path d="M246.35,273a2.66,2.66,0,0,1-2.76,2.9,5.16,5.16,0,0,1-2.08-.43v-7.62l-.86-.41v-.07l1.68-.8.07,0v4.51a4,4,0,0,1,1.95-.72C245.61,270.37,246.35,271.65,246.35,273Zm-1,.28c0-1.19-.45-2.12-1.56-2.12a5.79,5.79,0,0,0-1.41.17v3.54a1.78,1.78,0,0,0,1.36.51C244.88,275.35,245.37,274.6,245.37,273.25Z"/><path d="M251.89,272.89h-3.53c0,1.67.88,2.28,2,2.28a2.89,2.89,0,0,0,1.32-.31l.14.26a3,3,0,0,1-2,.75,2.46,2.46,0,0,1-2.49-2.64,2.67,2.67,0,0,1,2.51-2.87,1.91,1.91,0,0,1,2,2.09C251.91,272.6,251.9,272.74,251.89,272.89Zm-3.5-.46h2.52c0-1.06-.42-1.55-1.11-1.55S248.51,271.28,248.39,272.43Z"/><path d="M253.4,274.24v-3l-.07-.07h-.76v-.06l1.66-2.19h.06v1.68H256v.57h-1.72v2.39c0,1.29.19,1.72.93,1.72a2.52,2.52,0,0,0,.85-.14l.14.27a2.79,2.79,0,0,1-1.47.48C253.83,275.87,253.4,275.46,253.4,274.24Z"/><path d="M264.83,270.58v0l-.73.61-1.8,4.65h-.42l-1.16-3-1.24,3h-.41l-2-4.65-.74-.58v-.06H259v0l-.87.61,1.37,3.41h.05l1-2.33-.54-1.39.88-.46,1.43,4.18h.06l1.2-3.43-.92-.59v0Z"/><path d="M269.6,272.89h-3.53c0,1.67.88,2.28,2,2.28a2.89,2.89,0,0,0,1.32-.31l.14.26a3,3,0,0,1-2,.75,2.46,2.46,0,0,1-2.49-2.64,2.67,2.67,0,0,1,2.52-2.87,1.9,1.9,0,0,1,2,2.09C269.62,272.6,269.61,272.74,269.6,272.89Zm-3.5-.46h2.53c0-1.06-.42-1.55-1.11-1.55S266.23,271.28,266.1,272.43Z"/><path d="M275.09,272.89h-3.52c0,1.67.88,2.28,2,2.28a2.92,2.92,0,0,0,1.32-.31l.14.26a3,3,0,0,1-2,.75,2.46,2.46,0,0,1-2.5-2.64,2.68,2.68,0,0,1,2.52-2.87,1.91,1.91,0,0,1,2,2.09A3.25,3.25,0,0,1,275.09,272.89Zm-3.5-.46h2.53c0-1.06-.42-1.55-1.11-1.55S271.72,271.28,271.59,272.43Z"/><path d="M282.05,275.16v.58h-2.62v-.58h.83l.06-.06v-2.43c0-1.1-.23-1.48-1.17-1.48a6.9,6.9,0,0,0-1.42.18v3.73l.06.06h.83v.58H276v-.58h.77l.06-.06v-3.48l-.85-.4v-.07l1.54-.79.08,0,.1.73a3.76,3.76,0,0,1,1.86-.76c1.14,0,1.65.54,1.65,1.5v3.23l.07.06Z"/><path d="M285.74,273.27a2.69,2.69,0,0,1,2.71-2.9,3.3,3.3,0,0,1,1.4.28v1.51h-.06l-.75-1a1.26,1.26,0,0,0-.88-.3c-.92,0-1.43.79-1.43,2,0,1.64.8,2.31,1.89,2.31a2.88,2.88,0,0,0,1.31-.31l.14.26a2.82,2.82,0,0,1-1.91.75A2.37,2.37,0,0,1,285.74,273.27Z"/><path d="M290.89,275.16h.77l.06-.06v-3.48l-.85-.4v-.07l1.67-.78.08,0v4.69l.06.06h.77v.58h-2.56Zm.49-6.81a.7.7,0,1,1,.7.69A.71.71,0,0,1,291.38,268.35Z"/><path d="M298,270.46v.93a4.12,4.12,0,0,0-.65-.06,5.77,5.77,0,0,0-1.34.18v3.59l.06.06h1v.58h-2.75v-.58H295l.06-.06v-3.48l-.85-.4v-.07l1.54-.79.08,0,.13.87a4,4,0,0,1,1.67-.9A.61.61,0,0,1,298,270.46Z"/><path d="M298.52,273.27a2.69,2.69,0,0,1,2.71-2.9,3.3,3.3,0,0,1,1.4.28v1.51h-.06l-.75-1a1.26,1.26,0,0,0-.88-.3c-.92,0-1.43.79-1.43,2,0,1.64.8,2.31,1.89,2.31a2.88,2.88,0,0,0,1.31-.31l.14.26a2.82,2.82,0,0,1-1.91.75A2.37,2.37,0,0,1,298.52,273.27Z"/><path d="M303.67,275.16h.77l.06-.06v-7.28l-.85-.41v-.07l1.67-.8.08,0v8.52l.06.06h.83v.58h-2.62Z"/><path d="M311.68,272.89h-3.52c0,1.67.88,2.28,2,2.28a2.85,2.85,0,0,0,1.31-.31l.14.26a3,3,0,0,1-2,.75,2.46,2.46,0,0,1-2.49-2.64,2.68,2.68,0,0,1,2.52-2.87,1.91,1.91,0,0,1,2,2.09A3.25,3.25,0,0,1,311.68,272.89Zm-3.5-.46h2.53c0-1.06-.42-1.55-1.11-1.55S308.31,271.28,308.18,272.43Z"/><path d="M312.72,275.56v-1.34h.06l.64.7a1.46,1.46,0,0,0,1,.46c.53,0,.89-.27.89-.73,0-.64-.62-.84-1.28-1.2s-1.25-.87-1.25-1.61.69-1.47,1.81-1.47a3.78,3.78,0,0,1,1.35.24v1.31h-.06l-.66-.74a1.24,1.24,0,0,0-.85-.33.73.73,0,0,0-.83.71c0,.6.6.88,1.2,1.2s1.36.73,1.36,1.61a1.59,1.59,0,0,1-1.77,1.5A4.51,4.51,0,0,1,312.72,275.56Z"/><path d="M320,275.56v-1.34H320l.64.7a1.45,1.45,0,0,0,1,.46c.52,0,.88-.27.88-.73,0-.64-.61-.84-1.28-1.2s-1.25-.87-1.25-1.61.69-1.47,1.81-1.47a3.88,3.88,0,0,1,1.36.24v1.31h-.07l-.66-.74a1.23,1.23,0,0,0-.84-.33.73.73,0,0,0-.83.71c0,.6.6.88,1.2,1.2s1.35.73,1.35,1.61a1.59,1.59,0,0,1-1.76,1.5A4.56,4.56,0,0,1,320,275.56Z"/><path d="M330.29,275.16v.58h-2.62v-.58h.83l.06-.06v-2.43c0-1.1-.22-1.48-1.17-1.48a7.08,7.08,0,0,0-1.42.18v3.73l.07.06h.83v.58h-2.62v-.58H325l.07-.06v-7.28l-.86-.41v-.07l1.68-.8.07,0v4.53a3.74,3.74,0,0,1,1.83-.74c1.15,0,1.66.54,1.66,1.5v3.23l.06.06Z"/><path d="M331.17,273.22a2.68,2.68,0,0,1,2.7-2.85,2.46,2.46,0,0,1,2.54,2.65,2.69,2.69,0,0,1-2.67,2.85A2.47,2.47,0,0,1,331.17,273.22Zm4.24.12c0-1.41-.75-2.46-1.75-2.46-.84,0-1.5.63-1.5,2s.71,2.46,1.75,2.46C334.79,275.35,335.41,274.7,335.41,273.34Z"/><path d="M345.23,270.58v0l-.73.61-1.8,4.65h-.42l-1.17-3c-.34.85-1.23,3-1.23,3h-.41l-2-4.65-.74-.58v-.06h2.66v0l-.87.61,1.37,3.41h.05l1-2.33-.54-1.39.88-.46,1.43,4.18h.05l1.2-3.43-.92-.59v0Z"/><path d="M345.54,275.56v-1.34h.06l.64.7a1.46,1.46,0,0,0,1,.46c.53,0,.88-.27.88-.73,0-.64-.61-.84-1.27-1.2s-1.26-.87-1.26-1.61.69-1.47,1.82-1.47a3.78,3.78,0,0,1,1.35.24v1.31h-.06l-.67-.74a1.19,1.19,0,0,0-.84-.33.73.73,0,0,0-.83.71c0,.6.6.88,1.2,1.2s1.36.73,1.36,1.61a1.6,1.6,0,0,1-1.77,1.5A4.46,4.46,0,0,1,345.54,275.56Z"/><path d="M188.05,289.58v-3l-.06-.06h-.77v-.07l1.66-2.18H189v1.67h1.72v.58H189v2.39c0,1.29.19,1.72.93,1.72a2.42,2.42,0,0,0,.84-.14l.14.27a2.76,2.76,0,0,1-1.47.47C188.49,291.2,188.05,290.79,188.05,289.58Z"/><path d="M197.53,290.5v.57h-2.62v-.57h.83l.07-.07V288c0-1.1-.23-1.48-1.18-1.48a6.87,6.87,0,0,0-1.41.17v3.73l.06.07h.83v.57h-2.62v-.57h.77l.06-.07v-7.28l-.86-.41v-.06l1.68-.8.08,0v4.54a3.71,3.71,0,0,1,1.82-.74c1.15,0,1.66.53,1.66,1.49v3.23l.07.07Z"/><path d="M202.93,288.22H199.4c0,1.68.88,2.29,2,2.29a2.89,2.89,0,0,0,1.32-.32l.14.27a3,3,0,0,1-2,.74,2.45,2.45,0,0,1-2.49-2.63,2.66,2.66,0,0,1,2.51-2.87,1.91,1.91,0,0,1,2,2.09C203,287.93,202.94,288.07,202.93,288.22Zm-3.5-.46H202c0-1.06-.42-1.54-1.11-1.54S199.55,286.62,199.43,287.76Z"/><path d="M207.25,289.58v-3l-.07-.06h-.76v-.07l1.66-2.18h.06v1.67h1.73v.58h-1.73v2.39c0,1.29.19,1.72.93,1.72a2.52,2.52,0,0,0,.85-.14l.14.27a2.79,2.79,0,0,1-1.47.47C207.68,291.2,207.25,290.79,207.25,289.58Z"/><path d="M210.69,290.5h.76l.07-.07V287l-.86-.41v-.06l1.67-.78.08,0v4.68l.06.07h.77v.57h-2.55Zm.48-6.81a.7.7,0,1,1,.7.69A.71.71,0,0,1,211.17,283.69Z"/><path d="M223.32,290.5v.57h-2.55v-.57h.76l.07-.07V288c0-1.1-.22-1.48-1.12-1.48a5.6,5.6,0,0,0-1.39.19v0a2.1,2.1,0,0,1,0,.51v3.23l.06.07H220v.57h-2.55v-.57h.76l.07-.07V288c0-1.1-.22-1.48-1.12-1.48a6.4,6.4,0,0,0-1.35.17v3.73l.06.07h.77v.57h-2.55v-.57h.76l.07-.07V287l-.86-.41v-.06l1.55-.79.07,0,.11.72a3.61,3.61,0,0,1,1.78-.76c.82,0,1.29.28,1.5.82a3.65,3.65,0,0,1,1.86-.82c1.11,0,1.6.53,1.6,1.49v3.23l.06.07Z"/><path d="M228.72,288.22h-3.53c0,1.68.88,2.29,2,2.29a2.89,2.89,0,0,0,1.32-.32l.14.27a3,3,0,0,1-2,.74,2.45,2.45,0,0,1-2.49-2.63,2.66,2.66,0,0,1,2.51-2.87,1.91,1.91,0,0,1,2,2.09C228.74,287.93,228.73,288.07,228.72,288.22Zm-3.5-.46h2.52c0-1.06-.42-1.54-1.11-1.54S225.34,286.62,225.22,287.76Z"/><path d="M237.93,288.3a2.66,2.66,0,0,1-2.76,2.9,5.12,5.12,0,0,1-2.08-.42v-7.63l-.86-.41v-.06l1.68-.8.07,0v4.51a4,4,0,0,1,1.94-.71C237.19,285.71,237.93,287,237.93,288.3Zm-1,.28c0-1.19-.45-2.12-1.56-2.12a5.76,5.76,0,0,0-1.41.18v3.54a1.78,1.78,0,0,0,1.36.51C236.46,290.69,237,289.94,237,288.58Z"/><path d="M243.46,288.22h-3.52c0,1.68.88,2.29,2,2.29a2.85,2.85,0,0,0,1.31-.32l.15.27a3,3,0,0,1-2,.74,2.45,2.45,0,0,1-2.49-2.63,2.67,2.67,0,0,1,2.52-2.87,1.91,1.91,0,0,1,2,2.09A3.22,3.22,0,0,1,243.46,288.22Zm-3.5-.46h2.53c0-1.06-.42-1.54-1.11-1.54S240.09,286.62,240,287.76Z"/><path d="M245,289.58v-3l-.06-.06h-.77v-.07l1.66-2.18h.07v1.67h1.72v.58h-1.72v2.39c0,1.29.19,1.72.93,1.72a2.42,2.42,0,0,0,.84-.14l.14.27a2.73,2.73,0,0,1-1.47.47C245.41,291.2,245,290.79,245,289.58Z"/><path d="M256.41,285.91v0l-.73.6-1.8,4.65h-.42l-1.17-3c-.34.84-1.23,3-1.23,3h-.41l-2-4.65-.74-.57v-.07h2.66v0l-.87.6,1.37,3.41h.05l1-2.32-.54-1.4.88-.46,1.43,4.18h.05l1.2-3.42-.91-.59v0Z"/><path d="M261.18,288.22h-3.53c0,1.68.88,2.29,2,2.29a2.89,2.89,0,0,0,1.32-.32l.14.27a3,3,0,0,1-2,.74,2.45,2.45,0,0,1-2.49-2.63,2.66,2.66,0,0,1,2.51-2.87,1.91,1.91,0,0,1,2,2.09C261.2,287.93,261.19,288.07,261.18,288.22Zm-3.5-.46h2.53c0-1.06-.43-1.54-1.12-1.54S257.8,286.62,257.68,287.76Z"/><path d="M266.67,288.22h-3.52c0,1.68.88,2.29,2,2.29a2.85,2.85,0,0,0,1.31-.32l.14.27a3,3,0,0,1-2,.74,2.45,2.45,0,0,1-2.49-2.63,2.67,2.67,0,0,1,2.52-2.87,1.91,1.91,0,0,1,2,2.09C266.7,287.93,266.68,288.07,266.67,288.22Zm-3.5-.46h2.53c0-1.06-.42-1.54-1.11-1.54S263.3,286.62,263.17,287.76Z"/><path d="M273.62,290.5v.57H271v-.57h.83l.07-.07V288c0-1.1-.23-1.48-1.18-1.48a6.87,6.87,0,0,0-1.41.17v3.73l.06.07h.83v.57h-2.62v-.57h.77l.06-.07V287l-.85-.41v-.06l1.54-.79.08,0,.1.73a3.76,3.76,0,0,1,1.85-.75c1.15,0,1.66.53,1.66,1.49v3.23l.07.07Z"/><path d="M286.52,290.5v.57H284v-.57h.77l.06-.07V288c0-1.1-.22-1.48-1.11-1.48a5.6,5.6,0,0,0-1.39.19l0,0a2.1,2.1,0,0,1,.06.51v3.23l.06.07h.77v.57H280.6v-.57h.77l.06-.07V288c0-1.1-.22-1.48-1.11-1.48a6.32,6.32,0,0,0-1.35.17v3.73l.06.07h.77v.57h-2.56v-.57H278l.06-.07V287l-.85-.41v-.06l1.54-.79.08,0,.1.72a3.6,3.6,0,0,1,1.79-.76c.82,0,1.29.28,1.49.82a3.71,3.71,0,0,1,1.87-.82c1.11,0,1.6.53,1.6,1.49v3.23l.06.07Z"/><path d="M287.4,288.56a2.68,2.68,0,0,1,2.7-2.85,2.45,2.45,0,0,1,2.54,2.64A2.69,2.69,0,0,1,290,291.2,2.46,2.46,0,0,1,287.4,288.56Zm4.24.11c0-1.4-.75-2.45-1.75-2.45-.84,0-1.5.63-1.5,2s.71,2.47,1.75,2.47C291,290.69,291.64,290,291.64,288.67Z"/><path d="M293.68,286.55,293,286v-.07h2.63v0l-.83.6,1.43,3.4h.05l1.47-3.4-.9-.57v-.07H299v0l-.64.6-2.08,4.65h-.43Z"/><path d="M303.72,288.22h-3.53c0,1.68.89,2.29,2,2.29a2.88,2.88,0,0,0,1.31-.32l.14.27a3,3,0,0,1-2,.74,2.45,2.45,0,0,1-2.49-2.63,2.67,2.67,0,0,1,2.52-2.87,1.91,1.91,0,0,1,2,2.09C303.75,287.93,303.73,288.07,303.72,288.22Zm-3.5-.46h2.53c0-1.06-.42-1.54-1.11-1.54S300.35,286.62,300.22,287.76Z"/><path d="M313.9,290.5v.57h-2.55v-.57h.76l.07-.07V288c0-1.1-.22-1.48-1.11-1.48a5.6,5.6,0,0,0-1.39.19l0,0a2.1,2.1,0,0,1,0,.51v3.23l.07.07h.76v.57H308v-.57h.77l.06-.07V288c0-1.1-.22-1.48-1.11-1.48a6.41,6.41,0,0,0-1.36.17v3.73l.07.07h.76v.57h-2.55v-.57h.77l.06-.07V287l-.86-.41v-.06l1.55-.79.08,0,.1.72a3.6,3.6,0,0,1,1.79-.76c.81,0,1.29.28,1.49.82a3.71,3.71,0,0,1,1.87-.82c1.11,0,1.59.53,1.59,1.49v3.23l.07.07Z"/><path d="M319.3,288.22h-3.53c0,1.68.88,2.29,2,2.29a2.89,2.89,0,0,0,1.32-.32l.14.27a3,3,0,0,1-2,.74,2.45,2.45,0,0,1-2.49-2.63,2.67,2.67,0,0,1,2.52-2.87,1.9,1.9,0,0,1,2,2.09C319.32,287.93,319.31,288.07,319.3,288.22Zm-3.5-.46h2.53c0-1.06-.42-1.54-1.11-1.54S315.93,286.62,315.8,287.76Z"/><path d="M326.25,290.5v.57h-2.62v-.57h.83l.07-.07V288c0-1.1-.23-1.48-1.18-1.48a7.05,7.05,0,0,0-1.42.17v3.73l.07.07h.83v.57h-2.62v-.57H321l.07-.07V287l-.86-.41v-.06l1.55-.79.07,0,.11.73a3.76,3.76,0,0,1,1.85-.75c1.15,0,1.66.53,1.66,1.49v3.23l.06.07Z"/><path d="M327.66,289.58v-3l-.07-.06h-.76v-.07l1.66-2.18h.06v1.67h1.73v.58h-1.73v2.39c0,1.29.19,1.72.94,1.72a2.51,2.51,0,0,0,.84-.14l.14.27a2.79,2.79,0,0,1-1.47.47C328.09,291.2,327.66,290.79,327.66,289.58Z"/><path d="M331.22,290.89v-1.34h.07l.64.71a1.46,1.46,0,0,0,1,.46c.52,0,.88-.27.88-.73,0-.64-.61-.85-1.28-1.2s-1.25-.87-1.25-1.61.69-1.47,1.82-1.47a3.86,3.86,0,0,1,1.35.24v1.3h-.07l-.66-.74a1.19,1.19,0,0,0-.84-.33.73.73,0,0,0-.83.72c0,.6.6.88,1.2,1.2s1.35.72,1.35,1.61a1.58,1.58,0,0,1-1.76,1.49A4.56,4.56,0,0,1,331.22,290.89Z"/><path d="M372.83,213v.64H370V213h.86l.07-.07v-2.7c0-1.22-.24-1.64-1.24-1.64a6.34,6.34,0,0,0-1.54.21l0,0a2.56,2.56,0,0,1,.06.57v3.59l.07.07h.85v.64h-2.84V213h.86l.07-.07v-2.7c0-1.22-.25-1.64-1.24-1.64a6.58,6.58,0,0,0-1.5.2v4.14l.07.07h.85v.64h-2.84V213h.86l.07-.07V209l-.95-.45v-.07l1.71-.88.09,0,.11.81a3.94,3.94,0,0,1,2-.85c.9,0,1.43.31,1.65.91a4.2,4.2,0,0,1,2.08-.91c1.23,0,1.77.59,1.77,1.66v3.59l.07.07Z"/><path d="M373.81,210.8a3,3,0,0,1,3-3.16,2.73,2.73,0,0,1,2.82,2.94,3,3,0,0,1-3,3.16A2.73,2.73,0,0,1,373.81,210.8Zm4.71.13c0-1.56-.84-2.72-1.95-2.72-.93,0-1.67.69-1.67,2.22s.79,2.74,1.94,2.74C377.82,213.17,378.52,212.45,378.52,210.93Z"/><path d="M380.77,208.58l-.79-.64v-.07h2.92v0l-.92.67,1.59,3.77h.05l1.63-3.77-1-.64v-.07h2.38v0l-.71.67-2.31,5.16h-.48Z"/><path d="M391.92,210.43H388c0,1.86,1,2.54,2.26,2.54a3.21,3.21,0,0,0,1.46-.35l.16.3a3.3,3.3,0,0,1-2.2.82,2.73,2.73,0,0,1-2.77-2.92,3,3,0,0,1,2.8-3.19A2.12,2.12,0,0,1,392,210C392,210.11,391.93,210.26,391.92,210.43Zm-3.89-.51h2.81c0-1.17-.47-1.71-1.23-1.71S388.17,208.65,388,209.92Z"/><path d="M403.22,213v.64h-2.84V213h.86l.07-.07v-2.7c0-1.22-.24-1.64-1.24-1.64a6.34,6.34,0,0,0-1.54.21l0,0a2.08,2.08,0,0,1,.06.57v3.59l.07.07h.85v.64h-2.84V213h.86l.07-.07v-2.7c0-1.22-.24-1.64-1.24-1.64a6.58,6.58,0,0,0-1.5.2v4.14l.07.07h.85v.64h-2.84V213h.86l.07-.07V209l-1-.45v-.07l1.71-.88.09,0,.11.81a3.94,3.94,0,0,1,2-.85c.9,0,1.43.31,1.66.91a4.14,4.14,0,0,1,2.07-.91c1.23,0,1.77.59,1.77,1.66v3.59l.07.07Z"/><path d="M409.21,210.43h-3.92c0,1.86,1,2.54,2.26,2.54a3.21,3.21,0,0,0,1.46-.35l.15.3a3.27,3.27,0,0,1-2.19.82,2.72,2.72,0,0,1-2.77-2.92,3,3,0,0,1,2.79-3.19,2.11,2.11,0,0,1,2.24,2.32C409.23,210.11,409.22,210.26,409.21,210.43Zm-3.89-.51h2.81c0-1.17-.47-1.71-1.24-1.71S405.46,208.65,405.32,209.92Z"/><path d="M416.92,213v.64H414V213h.92l.08-.07v-2.7c0-1.22-.26-1.64-1.31-1.64a7.19,7.19,0,0,0-1.57.2v4.14l.07.07h.92v.64h-2.91V213h.85l.07-.07V209l-.95-.45v-.08l1.72-.87.08,0,.12.81a4.16,4.16,0,0,1,2.06-.84c1.27,0,1.84.59,1.84,1.66v3.59l.07.07Z"/><path d="M418.48,211.94v-3.36l-.07-.08h-.85v-.07L419.4,206h.07v1.86h1.92v.63h-1.92v2.66c0,1.43.22,1.91,1,1.91a3,3,0,0,0,.93-.15l.16.29a3.07,3.07,0,0,1-1.63.53C419,213.74,418.48,213.28,418.48,211.94Z"/><path class="cls-108" d="M374.26,251.18a68.37,68.37,0,0,1-32.32,54.56"/></g></g></svg>