<svg xmlns="http://www.w3.org/2000/svg" viewBox="0 0 743.82 617.56"><defs><style>.cls-1,.cls-10,.cls-100,.cls-101,.cls-102,.cls-103,.cls-104,.cls-106,.cls-11,.cls-12,.cls-13,.cls-14,.cls-15,.cls-16,.cls-17,.cls-18,.cls-19,.cls-2,.cls-20,.cls-21,.cls-22,.cls-23,.cls-24,.cls-25,.cls-26,.cls-27,.cls-28,.cls-29,.cls-3,.cls-30,.cls-31,.cls-32,.cls-33,.cls-34,.cls-35,.cls-36,.cls-37,.cls-38,.cls-39,.cls-4,.cls-40,.cls-41,.cls-42,.cls-43,.cls-44,.cls-45,.cls-46,.cls-47,.cls-48,.cls-49,.cls-5,.cls-50,.cls-51,.cls-52,.cls-53,.cls-54,.cls-55,.cls-56,.cls-57,.cls-58,.cls-59,.cls-6,.cls-60,.cls-61,.cls-62,.cls-63,.cls-64,.cls-65,.cls-66,.cls-67,.cls-68,.cls-69,.cls-7,.cls-70,.cls-71,.cls-72,.cls-73,.cls-74,.cls-75,.cls-76,.cls-77,.cls-78,.cls-79,.cls-8,.cls-80,.cls-81,.cls-82,.cls-83,.cls-84,.cls-85,.cls-86,.cls-87,.cls-88,.cls-89,.cls-9,.cls-90,.cls-91,.cls-92,.cls-93,.cls-94,.cls-95,.cls-96,.cls-97,.cls-98,.cls-99{fill:none;}.cls-1,.cls-10,.cls-100,.cls-101,.cls-102,.cls-103,.cls-104,.cls-106,.cls-11,.cls-12,.cls-13,.cls-14,.cls-15,.cls-16,.cls-17,.cls-18,.cls-19,.cls-2,.cls-20,.cls-21,.cls-22,.cls-23,.cls-24,.cls-25,.cls-26,.cls-27,.cls-28,.cls-29,.cls-3,.cls-30,.cls-31,.cls-32,.cls-33,.cls-34,.cls-35,.cls-36,.cls-37,.cls-38,.cls-39,.cls-4,.cls-40,.cls-41,.cls-42,.cls-43,.cls-44,.cls-45,.cls-46,.cls-47,.cls-48,.cls-49,.cls-5,.cls-50,.cls-51,.cls-52,.cls-54,.cls-55,.cls-56,.cls-57,.cls-58,.cls-59,.cls-6,.cls-60,.cls-61,.cls-62,.cls-63,.cls-64,.cls-65,.cls-66,.cls-67,.cls-68,.cls-69,.cls-7,.cls-70,.cls-71,.cls-72,.cls-73,.cls-74,.cls-75,.cls-76,.cls-77,.cls-78,.cls-79,.cls-8,.cls-80,.cls-81,.cls-82,.cls-83,.cls-84,.cls-85,.cls-86,.cls-87,.cls-88,.cls-89,.cls-9,.cls-90,.cls-91,.cls-92,.cls-93,.cls-94,.cls-95,.cls-96,.cls-97,.cls-98,.cls-99{stroke:#000;}.cls-1{stroke-width:0.2px;}.cls-1,.cls-10,.cls-100,.cls-101,.cls-102,.cls-103,.cls-104,.cls-11,.cls-12,.cls-13,.cls-14,.cls-15,.cls-16,.cls-17,.cls-18,.cls-19,.cls-2,.cls-20,.cls-21,.cls-22,.cls-23,.cls-24,.cls-25,.cls-26,.cls-27,.cls-28,.cls-29,.cls-3,.cls-30,.cls-31,.cls-32,.cls-33,.cls-34,.cls-35,.cls-36,.cls-37,.cls-38,.cls-39,.cls-4,.cls-40,.cls-41,.cls-42,.cls-43,.cls-44,.cls-45,.cls-46,.cls-47,.cls-48,.cls-49,.cls-5,.cls-50,.cls-51,.cls-52,.cls-54,.cls-55,.cls-56,.cls-57,.cls-58,.cls-59,.cls-6,.cls-60,.cls-61,.cls-62,.cls-63,.cls-64,.cls-65,.cls-66,.cls-67,.cls-68,.cls-69,.cls-7,.cls-70,.cls-71,.cls-72,.cls-73,.cls-74,.cls-75,.cls-76,.cls-77,.cls-78,.cls-79,.cls-8,.cls-80,.cls-81,.cls-82,.cls-83,.cls-84,.cls-85,.cls-86,.cls-87,.cls-88,.cls-89,.cls-9,.cls-90,.cls-91,.cls-92,.cls-93,.cls-94,.cls-95,.cls-96,.cls-97,.cls-98,.cls-99{opacity:0.7;}.cls-1,.cls-10,.cls-100,.cls-101,.cls-102,.cls-103,.cls-104,.cls-105,.cls-11,.cls-12,.cls-13,.cls-14,.cls-15,.cls-16,.cls-17,.cls-18,.cls-19,.cls-2,.cls-20,.cls-21,.cls-22,.cls-23,.cls-24,.cls-25,.cls-26,.cls-27,.cls-28,.cls-29,.cls-3,.cls-30,.cls-31,.cls-32,.cls-33,.cls-34,.cls-35,.cls-36,.cls-37,.cls-38,.cls-39,.cls-4,.cls-40,.cls-41,.cls-42,.cls-43,.cls-44,.cls-45,.cls-46,.cls-47,.cls-48,.cls-49,.cls-5,.cls-50,.cls-51,.cls-52,.cls-54,.cls-55,.cls-56,.cls-57,.cls-58,.cls-59,.cls-6,.cls-60,.cls-61,.cls-62,.cls-63,.cls-64,.cls-65,.cls-66,.cls-67,.cls-68,.cls-69,.cls-7,.cls-70,.cls-71,.cls-72,.cls-73,.cls-74,.cls-75,.cls-76,.cls-77,.cls-78,.cls-79,.cls-8,.cls-80,.cls-81,.cls-82,.cls-83,.cls-84,.cls-85,.cls-86,.cls-87,.cls-88,.cls-89,.cls-9,.cls-90,.cls-91,.cls-92,.cls-93,.cls-94,.cls-95,.cls-96,.cls-97,.cls-98,.cls-99{isolation:isolate;}.cls-2{stroke-width:0.3px;}.cls-3{stroke-width:0.35px;}.cls-4{stroke-width:0.56px;}.cls-5{stroke-width:0.54px;}.cls-6{stroke-width:0.16px;}.cls-7{stroke-width:0.54px;}.cls-8{stroke-width:0.22px;}.cls-9{stroke-width:0.17px;}.cls-10{stroke-width:0.1px;}.cls-11{stroke-width:0.2px;}.cls-12{stroke-width:0.11px;}.cls-13{stroke-width:0.17px;}.cls-14{stroke-width:0.2px;}.cls-15{stroke-width:1.72px;}.cls-16{stroke-width:0.28px;}.cls-17{stroke-width:0.37px;}.cls-18{stroke-width:0.36px;}.cls-19{stroke-width:0.43px;}.cls-20{stroke-width:0.21px;}.cls-21{stroke-width:0.08px;}.cls-22{stroke-width:0.22px;}.cls-23{stroke-width:0.29px;}.cls-24{stroke-width:0.3px;}.cls-25{stroke-width:2px;}.cls-26{stroke-width:0.41px;}.cls-27{stroke-width:0.47px;}.cls-28{stroke-width:0.52px;}.cls-29{stroke-width:0.67px;}.cls-30{stroke-width:0.29px;}.cls-31{stroke-width:0.24px;}.cls-32{stroke-width:0.2px;}.cls-33{stroke-width:0.71px;}.cls-34{stroke-width:0.75px;}.cls-35{stroke-width:0.22px;}.cls-36{stroke-width:0.72px;}.cls-37{stroke-width:0.73px;}.cls-38{stroke-width:0.12px;}.cls-39{stroke-width:0.15px;}.cls-40{stroke-width:0.68px;}.cls-41{stroke-width:0.88px;}.cls-42{stroke-width:0.15px;}.cls-43{stroke-width:0.47px;}.cls-44{stroke-width:0.24px;}.cls-45{stroke-width:0.1px;}.cls-46{stroke-width:0.15px;}.cls-47{stroke-width:0.27px;}.cls-48{stroke-width:1.2px;}.cls-49{stroke-width:0.12px;}.cls-50{stroke-width:1.82px;}.cls-51{stroke-width:1.88px;}.cls-52{stroke-width:0.23px;}.cls-54{stroke-width:0.03px;}.cls-55{stroke-width:0.08px;}.cls-56{stroke-width:0.07px;}.cls-57{stroke-width:0.89px;}.cls-58{stroke-width:0.18px;}.cls-59{stroke-width:0.95px;}.cls-60{stroke-width:0.24px;}.cls-61{stroke-width:0.14px;}.cls-62{stroke-width:0.31px;}.cls-63{stroke-width:0.03px;}.cls-64{stroke-width:0.03px;}.cls-65{stroke-width:0.76px;}.cls-66{stroke-width:0.76px;}.cls-67{stroke-width:0.5px;}.cls-68{stroke-width:0.84px;}.cls-69{stroke-width:0.86px;}.cls-70{stroke-width:0.17px;}.cls-71{stroke-width:0.6px;}.cls-72{stroke-width:0.19px;}.cls-73{stroke-width:0.26px;}.cls-74{stroke-width:0.14px;}.cls-75{stroke-width:0.14px;}.cls-76{stroke-width:1.19px;}.cls-77{stroke-width:1.52px;}.cls-78{stroke-width:0.13px;}.cls-79{stroke-width:0.2px;}.cls-80{stroke-width:0.61px;}.cls-81{stroke-width:0.67px;}.cls-82{stroke-width:0.61px;}.cls-83{stroke-width:0.18px;}.cls-84{stroke-width:0.67px;}.cls-85{stroke-width:0.24px;}.cls-86{stroke-width:0.85px;}.cls-87{stroke-width:0.35px;}.cls-88{stroke-width:0.87px;}.cls-89{stroke-width:0.09px;}.cls-90{stroke-width:0.1px;}.cls-91{stroke-width:0.27px;}.cls-92{stroke-width:0.1px;}.cls-93{stroke-width:0.15px;}.cls-94{stroke-width:0.21px;}.cls-95{stroke-width:0.19px;}.cls-96{stroke-width:0.23px;}.cls-97{stroke-width:0.03px;}.cls-98{stroke-width:0.14px;}.cls-99{stroke-width:0.14px;}.cls-100{stroke-width:0.14px;}.cls-101{stroke-width:0.25px;}.cls-102{stroke-width:1.7px;}.cls-103{stroke-width:0.12px;}.cls-104{stroke-width:1.99px;}.cls-106{stroke-width:1.5px;}</style></defs><title>Asset 10explainer-choreo-radial</title><g id="Layer_2" data-name="Layer 2"><g id="Layer_1-2" data-name="Layer 1"><g id="sleepingbeauty_bluebird_ALL" data-name="sleepingbeauty bluebird ALL"><g id="Group_234" data-name="Group 234"><g id="Group_233" data-name="Group 233"><path id="Path_12969" data-name="Path 12969" class="cls-1" d="M221,206.9l1.11.91c1.1.91,3.31,2.74,5.36,4.72a54.56,54.56,0,1,1-14-9.79c2.56,1.25,5,2.7,6.27,3.43l1.23.73"/><path id="Path_12970" data-name="Path 12970" class="cls-2" d="M221.82,205.75l1.13.93c1.13.94,3.4,2.81,5.51,4.84a56,56,0,0,1,14,22c.95,2.77,1.68,5.62,4.9,8.46s8.93,5.67,9,8.6-5.56,6-8.68,8.9-3.76,5.82-4.62,8.62A56,56,0,1,1,206,198.26a54.17,54.17,0,0,1,8.17,3.22c2.64,1.28,5.17,2.78,6.43,3.53l1.27.74"/><path id="Path_12971" data-name="Path 12971" class="cls-3" d="M221.94,205.58l1.13.94c1.14.94,3.42,2.81,5.53,4.86a56.18,56.18,0,0,1,14.08,22.12c1,2.78,1.69,5.63,5.32,8.48s10.15,5.67,10.2,8.61-6.37,6-9.9,9-4.17,5.84-5,8.65a56.14,56.14,0,1,1-29.06-66.91c2.64,1.29,5.19,2.79,6.46,3.54l1.27.75"/><path id="Path_12972" data-name="Path 12972" class="cls-4" d="M223.12,203.89l1.18,1c1.18,1,3.54,2.92,5.73,5a58.23,58.23,0,0,1-21.53,96.92c-2.88,1-5.84,1.75-8.76,7.34s-5.79,16-8.83,16-6.27-10.24-9.38-15.73-6.09-6.14-9-7a58.22,58.22,0,1,1,42.6-108c2.73,1.34,5.37,2.89,6.69,3.67l1.31.78"/><path id="Path_12973" data-name="Path 12973" class="cls-5" d="M223.16,203.83l1.18,1c1.18,1,3.54,2.92,5.74,5a58.29,58.29,0,1,1-59.46-13.21c2.89-1,5.85-1.76,8.77-7.16s5.8-15.43,8.86-15.48,6.27,9.88,9.37,15.18,6.1,6,9,6.85a58.74,58.74,0,0,1,8.51,3.35c2.75,1.34,5.38,2.9,6.7,3.68l1.32.77"/><path id="Path_12974" data-name="Path 12974" class="cls-6" d="M226.51,199.06l1.3,1.07c1.29,1.07,3.89,3.22,6.3,5.54a64.08,64.08,0,1,1-65.38-14.52c3.17-1.09,6.43-1.93,9.72-3.94s6.58-5.16,9.94-5.22,6.76,3,10.11,4.89,6.63,2.61,9.84,3.6a63.07,63.07,0,0,1,9.35,3.69c3,1.47,5.92,3.18,7.37,4l1.45.86"/><path id="Path_12975" data-name="Path 12975" class="cls-7" d="M229,195.48l1.39,1.15c1.38,1.14,4.15,3.43,6.73,5.92a68.44,68.44,0,0,1-25.31,113.93c-3.39,1.16-6.87,2.06-10.31,7.56s-6.86,15.61-10.44,15.68-7.33-9.93-11-15.31-7.14-6.16-10.56-7.21A68.43,68.43,0,1,1,219.6,190.26c3.22,1.57,6.31,3.4,7.86,4.31l1.55.91"/><path id="Path_12976" data-name="Path 12976" class="cls-8" d="M229.16,195.28l1.39,1.14c1.39,1.15,4.17,3.45,6.76,6a68.76,68.76,0,0,1,17.22,27c1.17,3.4,2.07,6.9,4.66,10.41s6.88,7,6.95,10.63-4.11,7.26-6.58,10.85-3.26,7.13-4.31,10.56A68.65,68.65,0,1,1,219.71,190c3.23,1.58,6.34,3.41,7.89,4.33l1.56.92"/><path id="Path_12977" data-name="Path 12977" class="cls-9" d="M231,192.62l1.45,1.2c1.46,1.21,4.37,3.61,7.08,6.23a71.9,71.9,0,1,1-18.43-12.92c3.39,1.66,6.64,3.58,8.27,4.53l1.63,1"/><path id="Path_12978" data-name="Path 12978" class="cls-10" d="M232.59,190.37l1.52,1.25c1.51,1.25,4.53,3.74,7.34,6.46a74.64,74.64,0,0,1,18.72,29.41c1.27,3.69,2.25,7.49,3.82,11.32s3.74,7.71,3.8,11.62-2,7.85-3.4,11.74-2.29,7.71-3.44,11.45a74.59,74.59,0,1,1-38.62-89c3.51,1.72,6.89,3.71,8.57,4.71l1.69,1"/><path id="Path_12979" data-name="Path 12979" class="cls-11" d="M235.49,186.24l1.62,1.33c1.61,1.33,4.84,4,7.84,6.89a79.69,79.69,0,1,1-20.42-14.31c3.75,1.84,7.35,4,9.16,5l1.8,1.07"/><path id="Path_12980" data-name="Path 12980" class="cls-12" d="M236.94,184.17l1.67,1.37c1.66,1.38,5,4.13,8.09,7.11A82.2,82.2,0,0,1,267.3,225c1.4,4.07,2.48,8.25,4.21,12.48s4.12,8.48,4.19,12.79-2.16,8.64-3.75,12.92-2.52,8.49-3.79,12.61a82.2,82.2,0,1,1-54.52-102.67,83.09,83.09,0,0,1,12,4.73c3.86,1.89,7.58,4.09,9.44,5.18l1.86,1.1"/><path id="Path_12981" data-name="Path 12981" class="cls-13" d="M239.59,180.39l1.76,1.45c1.76,1.45,5.27,4.35,8.54,7.51a86.78,86.78,0,1,1-22.24-15.59c4.09,2,8,4.31,10,5.47l2,1.16"/><path id="Path_12982" data-name="Path 12982" class="cls-14" d="M239.8,180.08l1.77,1.46c1.77,1.46,5.3,4.37,8.58,7.54a87.18,87.18,0,1,1-88.92-19.75c4.31-1.49,8.75-2.63,13.21-5.25s9-6.71,13.52-6.79,9.2,3.86,13.75,6.33,9,3.46,13.38,4.79a88.12,88.12,0,0,1,12.73,5c4.1,2,8,4.33,10,5.49l2,1.16"/><path id="Path_12983" data-name="Path 12983" class="cls-15" d="M240.14,179.61l1.78,1.46c1.78,1.47,5.33,4.4,8.64,7.6A87.78,87.78,0,1,1,161,168.78c4.34-1.5,8.8-2.65,13.07-19S182.43,102.06,187,102s9.72,31.22,14.54,47.38,9.31,17.15,13.7,18.49a87.67,87.67,0,0,1,12.81,5.06c4.13,2,8.1,4.35,10.09,5.52l2,1.17"/><path id="Path_12984" data-name="Path 12984" class="cls-16" d="M240.31,179.37l1.78,1.47c1.78,1.47,5.35,4.41,8.66,7.61a88,88,0,1,1-89.81-19.95c4.36-1.49,8.84-2.65,13.33-6s9-8.79,13.63-8.86,9.31,5.23,13.92,8.39,9.12,4.16,13.53,5.51a87.52,87.52,0,0,1,12.85,5.07c4.14,2,8.12,4.37,10.11,5.54l2,1.18"/><path id="Path_12985" data-name="Path 12985" class="cls-17" d="M240.41,179.22l1.79,1.47c1.79,1.47,5.36,4.42,8.68,7.63a88.22,88.22,0,1,1-90-20c4.37-1.5,8.86-2.66,13.35-6.76s9-11.13,13.61-11.21,9.36,6.8,14,10.74,9.15,5,13.57,6.3a88.6,88.6,0,0,1,12.88,5.08c4.15,2,8.14,4.38,10.13,5.56l2,1.18"/><path id="Path_12986" data-name="Path 12986" class="cls-18" d="M240.45,179.16l1.79,1.48c1.79,1.47,5.36,4.43,8.69,7.64a88.26,88.26,0,0,1,22.13,34.77c1.5,4.37,2.66,8.86,6.73,13.36s11,9,11.11,13.63-6.73,9.36-10.64,14-4.92,9.16-6.27,13.58a88.29,88.29,0,1,1-58.57-110.27,90.33,90.33,0,0,1,12.89,5.08c4.15,2,8.15,4.39,10.14,5.57l2,1.17"/><path id="Path_12987" data-name="Path 12987" class="cls-19" d="M240.53,179.05l1.79,1.48c1.79,1.47,5.38,4.43,8.71,7.65a88.42,88.42,0,0,1-32.71,147.2c-4.37,1.51-8.87,2.67-13.37,7.33s-9,12.82-13.61,12.9-9.4-7.92-14.05-12.43-9.18-5.51-13.61-6.87a88.43,88.43,0,1,1,64.69-164c4.16,2,8.16,4.39,10.16,5.57l2,1.18"/><path id="Path_12988" data-name="Path 12988" class="cls-20" d="M240.68,178.84l1.79,1.48c1.8,1.48,5.39,4.45,8.73,7.67a88.7,88.7,0,1,1-90.46-20.09c4.39-1.51,8.9-2.68,13.44-5.4s9.11-7,13.75-7.06,9.36,4,14,6.59,9.18,3.57,13.62,4.93a88.32,88.32,0,0,1,12.94,5.11c4.17,2,8.19,4.4,10.19,5.58l2,1.19"/><path id="Path_12989" data-name="Path 12989" class="cls-21" d="M240.72,178.78l1.8,1.48c1.79,1.49,5.39,4.45,8.73,7.68a88.73,88.73,0,0,1,22.25,35c1.51,4.39,2.68,8.91,4.2,13.47s3.4,9.18,3.48,13.83-1.64,9.32-3,13.94-2.37,9.16-3.73,13.61a88.76,88.76,0,1,1-58.88-110.86A90,90,0,0,1,228.51,172c4.18,2,8.2,4.41,10.2,5.59l2,1.19"/><path id="Path_12990" data-name="Path 12990" class="cls-22" d="M240.8,178.66l1.8,1.48c1.81,1.49,5.41,4.46,8.76,7.7a88.92,88.92,0,1,1-22.78-16c4.18,2,8.2,4.41,10.21,5.59l2,1.19"/><path id="Path_12991" data-name="Path 12991" class="cls-23" d="M240.86,178.57l1.81,1.49c1.8,1.49,5.4,4.46,8.76,7.7a89.16,89.16,0,0,1,22.31,35.06c1.51,4.41,2.68,8.93,6.05,13.48s8.95,9.11,9,13.77-5.34,9.41-8.55,14.07-4.23,9.22-5.6,13.68a89,89,0,1,1-46.05-106c4.19,2,8.22,4.41,10.23,5.6l2,1.19"/><path id="Path_12992" data-name="Path 12992" class="cls-24" d="M240.89,178.53,242.7,180c1.8,1.49,5.41,4.46,8.76,7.71a89,89,0,1,1-90.85-20.19c4.41-1.51,8.94-2.68,13.49-6.17s9.11-9.31,13.78-9.38,9.41,5.57,14.08,8.9,9.23,4.35,13.68,5.72a87.58,87.58,0,0,1,13,5.13c4.19,2,8.23,4.41,10.24,5.61l2,1.18"/><path id="Path_12993" data-name="Path 12993" class="cls-25" d="M241.32,177.92l1.82,1.5c1.82,1.5,5.46,4.5,8.84,7.77a89.81,89.81,0,1,1-91.61-20.35c4.45-1.53,9-2.71,13.34-21.54s8.4-55.32,13.1-55.4,10,36.25,15,54.92,9.57,19.69,14.06,21.07A90.62,90.62,0,0,1,229,171.06c4.23,2.07,8.29,4.46,10.32,5.66l2,1.2"/><path id="Path_12994" data-name="Path 12994" class="cls-26" d="M241.45,177.74l1.82,1.5c1.83,1.5,5.48,4.51,8.86,7.79a90,90,0,0,1-33.29,149.86c-4.45,1.53-9,2.71-13.62,7.19s-9.16,12.22-13.87,12.3-9.56-7.51-14.29-11.83-9.34-5.33-13.85-6.71a90,90,0,1,1,65.85-167c4.24,2.07,8.32,4.47,10.36,5.67l2,1.21"/><path id="Path_12995" data-name="Path 12995" class="cls-27" d="M241.64,177.46l1.83,1.51c1.83,1.51,5.49,4.54,8.89,7.82a90.36,90.36,0,1,1-92.17-20.47c4.47-1.54,9.07-2.73,13.66-7.74s9.17-13.84,13.9-13.92,9.61,8.59,14.36,13.44S211.5,164,216,165.36a90.17,90.17,0,0,1,13.19,5.21c4.25,2.07,8.34,4.48,10.39,5.69l2,1.2"/><path id="Path_12996" data-name="Path 12996" class="cls-28" d="M242.21,176.66l1.85,1.52c1.85,1.53,5.55,4.58,9,7.91a91.34,91.34,0,0,1-33.77,152c-4.53,1.55-9.17,2.75-13.8,8.26s-9.25,15.34-14,15.42-9.73-9.58-14.54-14.93-9.5-6.39-14.07-7.79a91.34,91.34,0,1,1,66.81-169.42c4.29,2.1,8.42,4.54,10.5,5.76l2.06,1.22"/><path id="Path_12997" data-name="Path 12997" class="cls-29" d="M243,175.55l1.88,1.55c1.87,1.55,5.63,4.65,9.12,8a92.68,92.68,0,1,1-94.54-21c4.59-1.58,9.3-2.79,14-9.69s9.31-19.46,14.16-19.54,9.92,12.32,14.83,19.05,9.65,7.78,14.29,9.2a93.23,93.23,0,0,1,13.53,5.34c4.36,2.13,8.56,4.6,10.65,5.84l2.1,1.23"/><path id="Path_12998" data-name="Path 12998" class="cls-30" d="M245.38,172.12l2,1.62c2,1.62,5.88,4.86,9.53,8.38a96.84,96.84,0,0,1-35.82,161.22c-4.79,1.65-9.72,2.92-14.67,6.41s-9.92,9.2-15,9.28-10.24-5.44-15.3-8.76-10-4.43-14.88-5.91a96.85,96.85,0,0,1,56.64-185.23,95.87,95.87,0,0,1,14.2,5.6c4.56,2.23,8.94,4.81,11.13,6.1l2.19,1.29"/><path id="Path_12999" data-name="Path 12999" class="cls-31" d="M245.79,171.55l2,1.63c2,1.63,5.93,4.88,9.6,8.43A97.54,97.54,0,0,1,221.29,344c-4.83,1.66-9.8,2.94-14.79,6s-10,7.88-15.13,8-10.29-4.57-15.38-7.45-10.1-4-15-5.49A97.54,97.54,0,1,1,232.37,164.1c4.59,2.24,9,4.84,11.21,6.15l2.21,1.3"/><path id="Path_13000" data-name="Path 13000" class="cls-32" d="M247.5,169.11l2,1.68c2,1.67,6.1,5,9.89,8.69a100.65,100.65,0,0,1,25.2,39.59c1.71,5,3,10.09,5.71,15.24s6.72,10.35,6.81,15.61-3.77,10.6-6.28,15.84-3.64,10.39-5.19,15.42a100.52,100.52,0,1,1-52-119.75c4.73,2.31,9.28,5,11.56,6.33l2.27,1.35"/><path id="Path_13001" data-name="Path 13001" class="cls-33" d="M247.61,169l2,1.68c2,1.68,6.12,5.05,9.91,8.72A100.72,100.72,0,0,1,222.32,347c-5,1.71-10.11,3-15.2,10.32S197,377.86,191.72,378s-10.77-13-16.1-20.09-10.49-8.26-15.54-9.81a100.71,100.71,0,1,1,73.68-186.79c4.74,2.32,9.29,5,11.57,6.34l2.28,1.35"/><path id="Path_13002" data-name="Path 13002" class="cls-34" d="M247.87,168.57l2,1.69c2.05,1.69,6.15,5.08,10,8.76a101.17,101.17,0,1,1-103.2-22.93c5-1.72,10.15-3.05,15.25-10.68s10.17-21.54,15.46-21.64,10.83,13.66,16.19,21.1,10.55,8.6,15.61,10.16A101.37,101.37,0,0,1,234,160.85c4.76,2.32,9.34,5,11.62,6.37l2.29,1.35"/><path id="Path_13003" data-name="Path 13003" class="cls-35" d="M248.24,168.05l2.06,1.7c2.06,1.71,6.18,5.11,10,8.81a102,102,0,0,1,25.52,40.1c1.73,5,3.07,10.21,6,15.43s7.33,10.47,7.42,15.8-4.17,10.74-6.88,16.05-3.87,10.53-5.43,15.62a101.79,101.79,0,1,1-52.67-121.28c4.79,2.34,9.39,5.06,11.69,6.42l2.31,1.35"/><path id="Path_13004" data-name="Path 13004" class="cls-36" d="M248.42,167.8l2.07,1.71c2.07,1.7,6.2,5.12,10.05,8.83A102.11,102.11,0,1,1,156.37,155.2c5.06-1.74,10.25-3.08,15.4-10.5s10.28-20.91,15.62-21,10.92,13.22,16.33,20.46,10.63,8.4,15.75,10a103.2,103.2,0,0,1,14.9,5.88c4.81,2.35,9.43,5.07,11.74,6.44l2.31,1.36"/><path id="Path_13005" data-name="Path 13005" class="cls-37" d="M248.44,167.76l2.07,1.7c2.07,1.71,6.21,5.13,10.06,8.84a102.16,102.16,0,0,1-37.78,170.07c-5.06,1.74-10.25,3.08-15.41,10.57s-10.28,21.13-15.62,21.22-10.93-13.37-16.34-20.68-10.65-8.47-15.76-10A102.16,102.16,0,1,1,234.39,160c4.81,2.35,9.43,5.07,11.74,6.43l2.31,1.37"/><path id="Path_13006" data-name="Path 13006" class="cls-38" d="M250.14,165.34l2.13,1.76c2.12,1.75,6.38,5.27,10.34,9.09a105.11,105.11,0,1,1-26.93-18.87c4.95,2.41,9.7,5.22,12.08,6.62l2.38,1.4"/><path id="Path_13007" data-name="Path 13007" class="cls-39" d="M251.85,162.9l2.19,1.8c2.19,1.81,6.57,5.42,10.63,9.35a108.11,108.11,0,0,1,27.1,42.57c1.84,5.35,3.26,10.85,5.62,16.4s5.69,11.15,5.78,16.81-3,11.37-5.2,17S294.56,278,292.9,283.4A108,108,0,1,1,237,154.65c5.08,2.48,10,5.37,12.42,6.81l2.44,1.44"/><path id="Path_13008" data-name="Path 13008" class="cls-40" d="M253.61,160.4l2.25,1.85c2.25,1.86,6.75,5.58,10.93,9.62a111.13,111.13,0,1,1-113.35-25.18c5.5-1.9,11.15-3.35,16.78-10.5s11.22-20,17-20.09,11.85,12.54,17.72,19.5,11.56,8.22,17.12,9.92a112,112,0,0,1,16.22,6.4c5.23,2.55,10.26,5.52,12.77,7l2.52,1.48"/><path id="Path_13009" data-name="Path 13009" class="cls-41" d="M253.85,160l2.26,1.87c2.26,1.86,6.78,5.59,11,9.65a111.54,111.54,0,1,1-28.58-20c5.25,2.56,10.29,5.54,12.81,7l2.53,1.49"/><path id="Path_13010" data-name="Path 13010" class="cls-42" d="M254.61,159l2.29,1.89c2.28,1.88,6.85,5.66,11.11,9.76a112.89,112.89,0,1,1-28.92-20.26c5.31,2.59,10.41,5.6,13,7.1l2.55,1.51"/><path id="Path_13011" data-name="Path 13011" class="cls-43" d="M254.83,158.64l2.29,1.9c2.3,1.89,6.89,5.67,11.15,9.79a113.25,113.25,0,1,1-29-20.33c5.32,2.6,10.45,5.62,13,7.13l2.56,1.51"/><path id="Path_13012" data-name="Path 13012" class="cls-44" d="M255.71,157.39,258,159.3c2.32,1.92,7,5.76,11.3,9.93a114.78,114.78,0,1,1-29.4-20.6c5.4,2.64,10.59,5.7,13.18,7.23l2.6,1.53"/><path id="Path_13013" data-name="Path 13013" class="cls-45" d="M256.06,156.89l2.34,1.93c2.33,1.93,7,5.79,11.35,10a115.44,115.44,0,0,1,28.92,45.45c2,5.71,3.48,11.58,5.39,17.51s4.2,11.94,4.31,18-2,12.12-3.7,18.12-3,11.91-4.78,17.68a115.34,115.34,0,1,1-59.7-137.44c5.43,2.65,10.65,5.72,13.26,7.26l2.61,1.54"/><path id="Path_13014" data-name="Path 13014" class="cls-46" d="M256.07,156.88l2.34,1.93c2.34,1.93,7,5.78,11.36,10a115.4,115.4,0,0,1-42.68,192.09c-5.71,2-11.58,3.48-17.51,5.85s-11.91,5.62-18,5.72-12.14-2.93-18.14-5.1-11.92-3.49-17.7-5.26a115.39,115.39,0,0,1,67.52-220.68,116.65,116.65,0,0,1,16.89,6.66c5.43,2.65,10.65,5.73,13.26,7.27l2.61,1.54"/><path id="Path_13015" data-name="Path 13015" class="cls-47" d="M256.08,156.86l2.34,1.93c2.34,1.93,7,5.79,11.36,10A115.42,115.42,0,1,1,152,142.62c5.72-2,11.59-3.48,17.5-7s11.86-9,17.9-9.1,12.17,5.19,18.2,8.49,11.94,4.62,17.72,6.39a116.08,116.08,0,0,1,16.85,6.64c5.43,2.65,10.65,5.73,13.26,7.27l2.61,1.54"/><path id="Path_13016" data-name="Path 13016" class="cls-48" d="M256.71,156l2.36,1.94c2.36,2,7.07,5.84,11.46,10.08a116.49,116.49,0,0,1,23.72,134.88c-2.67,5.48-5.78,10.75-1.54,23.23s15.84,32.17,11.6,36.56-24.31-6.54-36.93-10.35-17.78-.53-23.16,2.33a116.49,116.49,0,1,1-3.54-207.57c5.49,2.68,10.76,5.79,13.39,7.34l2.64,1.56"/><path id="Path_13017" data-name="Path 13017" class="cls-49" d="M258.33,153.65l2.42,2c2.41,2,7.25,6,11.74,10.32a119.33,119.33,0,1,1-30.57-21.42c5.61,2.73,11,5.92,13.71,7.51l2.7,1.59"/><path id="Path_13018" data-name="Path 13018" class="cls-33" d="M258.8,153l2.43,2c2.43,2,7.3,6,11.82,10.39A120.12,120.12,0,1,1,81.63,199.06c2.76-5.66,6-11.09,5-20.67s-6.12-23.3-1.75-27.82,18.27.15,27.87.8,14.93-2.74,20.48-5.69a120.11,120.11,0,0,1,109.05-1.86c5.66,2.76,11.09,6,13.81,7.56L258.8,153"/><path id="Path_13019" data-name="Path 13019" class="cls-50" d="M259.21,152.4l2.45,2c2.44,2,7.34,6.06,11.89,10.45a120.79,120.79,0,0,1,30.29,47.6c2.06,6,3.65,12.13,21.15,18.08s50.91,11.71,51,18-33.09,13.21-50.38,19.76S307,281.09,305.11,287.14a120.79,120.79,0,1,1-62.52-144c5.68,2.78,11.15,6,13.89,7.61l2.73,1.62"/><path id="Path_13020" data-name="Path 13020" class="cls-51" d="M259.41,152.12l2.45,2c2.45,2,7.36,6.08,11.93,10.49a121.17,121.17,0,0,1,30.38,47.73c2.06,6,3.65,12.16,21.65,18.12s52.4,11.72,52.51,18.07-34.08,13.27-51.87,19.84-19.16,12.78-21,18.85a121.19,121.19,0,1,1-62.69-144.37c5.7,2.78,11.18,6,13.92,7.63l2.75,1.62"/><path id="Path_13021" data-name="Path 13021" class="cls-31" d="M259.42,152.09l2.46,2c2.45,2,7.36,6.08,11.93,10.49a121.21,121.21,0,0,1,24.68,140.33c-2.79,5.7-6,11.19-8.1,17.89s-3,14.64-7.42,19.2-12.31,5.76-18.94,8.07-12,5.73-17.6,8.7a121.2,121.2,0,1,1-3.68-216c5.7,2.79,11.19,6,13.93,7.64l2.74,1.61"/><path id="Path_13022" data-name="Path 13022" class="cls-52" d="M259.44,152.07l2.45,2c2.46,2,7.37,6.08,11.93,10.49A121.21,121.21,0,0,1,298.51,305c-2.78,5.71-6,11.19-8.2,17.8s-3.3,14.36-7.71,18.92S270.49,347.62,264,350s-11.91,5.83-17.51,8.8a121.23,121.23,0,1,1-3.68-216c5.71,2.79,11.19,6,13.93,7.64l2.75,1.61"/><path id="Path_13023" data-name="Path 13023" class="cls-53" d="M259.51,152l2.45,2c2.46,2,7.38,6.09,11.94,10.5a121.35,121.35,0,1,1-31.09-21.79c5.71,2.79,11.21,6,13.95,7.64l2.75,1.62"/><path id="Path_13024" data-name="Path 13024" class="cls-54" d="M259.62,151.81l2.46,2c2.46,2,7.39,6.09,12,10.52a121.55,121.55,0,1,1-31.15-21.83c5.72,2.79,11.22,6,14,7.66l2.75,1.62"/><path id="Path_13025" data-name="Path 13025" class="cls-55" d="M259.83,151.5l2.47,2c2.48,2,7.42,6.11,12,10.55a122,122,0,0,1,30.56,48c2.08,6,3.68,12.24,5.47,18.52s3.76,12.63,3.87,19-1.65,12.8-3.23,19.13-3,12.58-4.83,18.69a121.85,121.85,0,1,1-63.08-145.27c5.73,2.8,11.25,6.06,14,7.68l2.75,1.63"/><path id="Path_13026" data-name="Path 13026" class="cls-56" d="M259.89,151.42l2.48,2c2.47,2,7.41,6.12,12,10.55A122,122,0,1,1,74.18,291.44c-2.08-6.05-3.68-12.25-5.39-18.53s-3.52-12.65-3.63-19,1.49-12.81,3-19.14S71,222.13,72.9,216A122,122,0,0,1,243.11,142.1c5.75,2.8,11.27,6.06,14,7.69l2.75,1.63"/><path id="Path_13027" data-name="Path 13027" class="cls-57" d="M260.15,151.06l2.48,2.05c2.48,2,7.44,6.14,12.05,10.59A122.47,122.47,0,1,1,73.77,291.58c-2.09-6.07-3.7-12.3-12.85-18.47s-25.87-12.31-26-18.72,16.38-13.11,25.32-19.59S70.6,222,72.48,215.9a122.47,122.47,0,0,1,170.83-74.19c5.76,2.81,11.3,6.08,14.07,7.71l2.77,1.64"/><path id="Path_13028" data-name="Path 13028" class="cls-58" d="M260.23,150.93l2.49,2c2.48,2.05,7.45,6.15,12.06,10.61a122.62,122.62,0,1,1-201.17,128c-2.08-6.07-3.69-12.31-6.38-18.6S60.77,260.37,60.66,254s3.44-12.9,5.91-19.28,3.88-12.68,5.75-18.81a122.64,122.64,0,0,1,171.05-74.29c5.77,2.82,11.32,6.09,14.09,7.73l2.77,1.63"/><path id="Path_13029" data-name="Path 13029" class="cls-59" d="M260.44,150.64l2.49,2.06c2.49,2.05,7.47,6.16,12.1,10.64a122.93,122.93,0,1,1-31.5-22.09c5.78,2.83,11.35,6.11,14.13,7.75l2.78,1.64"/><path id="Path_13030" data-name="Path 13030" class="cls-60" d="M260.62,150.38l2.5,2.06c2.5,2.06,7.49,6.18,12.14,10.67a123.18,123.18,0,0,1,30.9,48.56c2.1,6.1,3.72,12.37,7,18.69s8.17,12.69,8.28,19.15-4.58,13-7.63,19.42-4.45,12.75-6.34,18.92A123.29,123.29,0,1,1,243.67,141c5.8,2.83,11.38,6.12,14.17,7.76l2.78,1.65"/><path id="Path_13031" data-name="Path 13031" class="cls-61" d="M262.74,147.35l2.58,2.13c2.57,2.12,7.71,6.36,12.49,11a127,127,0,1,1-32.53-22.8c6,2.92,11.72,6.31,14.59,8l2.87,1.69"/><path id="Path_13032" data-name="Path 13032" class="cls-1" d="M265.21,143.84l2.66,2.19c2.66,2.19,8,6.58,12.91,11.36a131.17,131.17,0,0,1,32.91,51.69c2.23,6.5,4,13.17,6.95,19.91s7.27,13.54,7.39,20.41-3.92,13.81-6.69,20.65-4.26,13.56-6.27,20.13a131.3,131.3,0,1,1-67.92-156.36c6.18,3,12.12,6.51,15.09,8.27l3,1.75"/><path id="Path_13033" data-name="Path 13033" class="cls-44" d="M265.73,143.1l2.67,2.2c2.68,2.21,8,6.63,13,11.44a132.18,132.18,0,0,1,33.13,52c2.25,6.55,4,13.27,7.37,20s8.43,13.62,8.55,20.53-4.69,13.92-7.84,20.81-4.66,13.67-6.69,20.28A132.18,132.18,0,1,1,247.55,133c6.22,3,12.2,6.56,15.19,8.32l3,1.77"/><path id="Path_13034" data-name="Path 13034" class="cls-62" d="M265.87,142.89l2.69,2.21c2.68,2.21,8,6.64,13,11.45a132.63,132.63,0,0,1,33.19,52.15c2.25,6.56,4,13.3,7.94,20.07s10.1,13.61,10.22,20.55-5.8,14-9.52,20.87-5.22,13.7-7.25,20.33a132.38,132.38,0,1,1-68.51-157.74c6.23,3,12.22,6.57,15.22,8.34l3,1.77"/><path id="Path_13035" data-name="Path 13035" class="cls-12" d="M266.66,141.76l2.71,2.24c2.71,2.23,8.13,6.7,13.17,11.57a133.69,133.69,0,0,1,33.53,52.7c2.28,6.62,4,13.42,6.24,20.3s4.85,13.85,5,20.85-2.29,14-4.26,21-3.49,13.81-5.54,20.5a133.76,133.76,0,1,1-69.22-159.37c6.3,3.07,12.35,6.64,15.38,8.43l3,1.78"/><path id="Path_13036" data-name="Path 13036" class="cls-63" d="M269.37,137.9l2.81,2.31c2.8,2.32,8.41,6.94,13.62,12a138.47,138.47,0,1,1-35.47-24.86c6.51,3.18,12.77,6.88,15.91,8.72l3.13,1.85"/><path id="Path_13037" data-name="Path 13037" class="cls-64" d="M270.44,136.37l2.84,2.35c2.85,2.34,8.53,7,13.81,12.14a140.25,140.25,0,0,1,35.18,55.27A180.35,180.35,0,0,1,328,227.45a115.5,115.5,0,0,1,2.89,21.91,115.18,115.18,0,0,1-2.14,22,182.26,182.26,0,0,1-5,21.5,140.35,140.35,0,1,1-72.61-167.19c6.6,3.22,12.95,7,16.13,8.84l3.17,1.87"/><path id="Path_13038" data-name="Path 13038" class="cls-65" d="M271.6,134.71l2.89,2.38c2.88,2.38,8.65,7.14,14,12.32A142.35,142.35,0,1,1,252,123.85c6.69,3.27,13.13,7.06,16.35,9l3.22,1.9"/><path id="Path_13039" data-name="Path 13039" class="cls-66" d="M271.63,134.67l2.89,2.38c2.89,2.38,8.65,7.14,14,12.32a142.4,142.4,0,1,1-36.48-25.57c6.7,3.27,13.14,7.07,16.36,9l3.22,1.9"/><path id="Path_13040" data-name="Path 13040" class="cls-67" d="M271.91,134.28l2.89,2.39c2.9,2.38,8.69,7.16,14.06,12.36A142.87,142.87,0,0,1,318,314.45c-3.29,6.72-7.1,13.19-8.13,22.46s.71,21.37-4.49,26.75-17.34,4-26.57,5.39-15.57,5.38-22.18,8.89a142.87,142.87,0,1,1-4.33-254.57c6.72,3.29,13.18,7.1,16.42,9l3.23,1.91"/><path id="Path_13041" data-name="Path 13041" class="cls-68" d="M272.24,133.81l2.9,2.4c2.9,2.4,8.72,7.19,14.12,12.41a143.47,143.47,0,1,1-36.75-25.75c6.75,3.29,13.24,7.11,16.48,9l3.25,1.91"/><path id="Path_13042" data-name="Path 13042" class="cls-69" d="M272.25,133.79l2.9,2.4c2.9,2.4,8.72,7.2,14.12,12.42a143.48,143.48,0,1,1-36.76-25.76c6.76,3.29,13.25,7.12,16.49,9l3.25,1.91"/><path id="Path_13043" data-name="Path 13043" class="cls-68" d="M272.29,133.73l2.91,2.4c2.9,2.4,8.72,7.2,14.12,12.42a143.54,143.54,0,0,1,36,56.53c2.45,7.11,4.33,14.41,13.2,21.68s24.71,14.52,24.84,22-15.46,15.3-24.08,22.87S329,286.6,326.82,293.79a143.52,143.52,0,1,1-74.27-171c6.75,3.3,13.25,7.13,16.49,9l3.25,1.91"/><path id="Path_13044" data-name="Path 13044" class="cls-70" d="M273.18,132.46l2.94,2.42c2.94,2.43,8.82,7.28,14.29,12.56a145.11,145.11,0,1,1-37.18-26c6.82,3.33,13.39,7.2,16.67,9.13l3.29,1.94"/><path id="Path_13045" data-name="Path 13045" class="cls-71" d="M273.73,131.68l3,2.44c3,2.44,8.87,7.32,14.37,12.64a146.05,146.05,0,1,1-37.42-26.22c6.88,3.35,13.49,7.25,16.79,9.19l3.3,2"/><path id="Path_13046" data-name="Path 13046" class="cls-72" d="M274.15,131.08l3,2.45c3,2.45,8.92,7.36,14.45,12.7A146.77,146.77,0,1,1,254,119.88c6.9,3.37,13.54,7.28,16.86,9.24l3.32,2"/><path id="Path_13047" data-name="Path 13047" class="cls-73" d="M274.47,130.63l3,2.46c3,2.45,9,7.38,14.49,12.74a147.32,147.32,0,0,1,30,170.56c-3.39,6.94-7.32,13.6-10,21.57s-4.22,17.23-9.58,22.78-14.58,7.37-22.45,10.36-14.39,7.14-21.21,10.76a147.31,147.31,0,1,1-4.46-262.48c6.93,3.39,13.59,7.32,16.93,9.28l3.33,2"/><path id="Path_13048" data-name="Path 13048" class="cls-74" d="M274.76,130.22l3,2.46c3,2.47,9,7.42,14.55,12.79a148,148,0,0,1,37.06,58.23c2.51,7.31,4.45,14.83,7.06,22.43s5.87,15.29,6,23-2.87,15.53-5.21,23.21-4,15.26-6.3,22.66a147.81,147.81,0,1,1-76.49-176.1c7,3.4,13.65,7.34,17,9.31l3.35,2"/><path id="Path_13049" data-name="Path 13049" class="cls-75" d="M274.8,130.15l3,2.46c3,2.47,9,7.42,14.56,12.8A147.9,147.9,0,1,1,141.48,111.9c7.32-2.52,14.85-4.46,22.45-7s15.3-5.75,23-5.89,15.53,2.8,23.23,5.1,15.27,4,22.67,6.26a147.87,147.87,0,0,1,21.59,8.52c7,3.4,13.65,7.34,17,9.31l3.34,2"/><path id="Path_13050" data-name="Path 13050" class="cls-76" d="M275.84,128.66l3,2.5c3,2.5,9.09,7.51,14.73,13a149.69,149.69,0,1,1-152.72-33.93c7.42-2.55,15-4.51,22.57-16.58s15-34.24,22.83-34.37,16.05,21.77,24,33.57,15.62,13.51,23.11,15.81a148.16,148.16,0,0,1,21.86,8.62c7,3.43,13.82,7.43,17.2,9.43l3.39,2"/><path id="Path_13051" data-name="Path 13051" class="cls-77" d="M276.23,128.11l3,2.52c3.05,2.51,9.14,7.54,14.8,13a150.45,150.45,0,0,1,37.7,59.23c2.56,7.44,4.53,15.09,19.61,22.61s43.26,14.91,43.39,22.79S367,264.49,352.18,272.52s-16.53,15.74-18.83,23.27a150.38,150.38,0,1,1-77.8-179.15c7.07,3.45,13.87,7.46,17.27,9.47l3.41,2"/><path id="Path_13052" data-name="Path 13052" class="cls-78" d="M276.62,127.55l3.07,2.52c3.06,2.53,9.18,7.58,14.87,13.07A151.06,151.06,0,1,1,46.72,300.88c-2.57-7.48-4.56-15.16-7.13-22.94s-5.74-15.62-5.87-23.53,2.76-15.87,5.06-23.72,4-15.6,6.34-23.16A151,151,0,0,1,255.85,116c7.11,3.47,13.94,7.5,17.36,9.51l3.41,2"/><path id="Path_13053" data-name="Path 13053" class="cls-79" d="M276.66,127.5l3.06,2.53c3.06,2.53,9.18,7.58,14.87,13.08A151.12,151.12,0,1,1,46.67,300.9c-2.57-7.49-4.56-15.17-7.75-22.93s-7.6-15.6-7.73-23.51,4-15.9,6.93-23.76,4.64-15.62,7-23.18A151.08,151.08,0,0,1,255.87,116c7.11,3.47,13.95,7.5,17.37,9.52l3.42,2"/><path id="Path_13054" data-name="Path 13054" class="cls-80" d="M277.15,126.8l3.07,2.54c3.08,2.54,9.24,7.62,15,13.15a151.93,151.93,0,0,1,38.09,59.86c2.59,7.52,4.58,15.25,11.49,23s18.69,15.5,18.83,23.46-11.4,16.11-18,24.08-8.37,15.77-10.69,23.38a152,152,0,1,1-78.64-181c7.16,3.49,14,7.54,17.47,9.57l3.44,2"/><path id="Path_13055" data-name="Path 13055" class="cls-81" d="M277.19,126.74l3.08,2.54c3.08,2.54,9.24,7.62,15,13.16a152,152,0,0,1,38.12,59.88c2.59,7.53,4.58,15.26,12,23s20.24,15.48,20.38,23.44-12.43,16.14-19.58,24.12-8.87,15.78-11.2,23.39a152.07,152.07,0,1,1-78.67-181.13c7.15,3.49,14,7.54,17.47,9.57l3.44,2"/><path id="Path_13056" data-name="Path 13056" class="cls-82" d="M277.31,126.57l3.08,2.55c3.08,2.54,9.25,7.63,15,13.17a152.21,152.21,0,0,1,38.17,60c2.59,7.53,4.59,15.28,11.47,23s18.64,15.53,18.78,23.5-11.36,16.14-18,24.13-8.34,15.79-10.68,23.41A152.21,152.21,0,1,1,256.37,115c7.16,3.5,14.05,7.56,17.49,9.59l3.45,2"/><path id="Path_13057" data-name="Path 13057" class="cls-83" d="M277.31,126.57l3.08,2.55c3.09,2.54,9.25,7.63,15,13.17a152.25,152.25,0,1,1-39-27.34c7.16,3.5,14.05,7.56,17.5,9.59l3.44,2"/><path id="Path_13058" data-name="Path 13058" class="cls-84" d="M277.37,126.49l3.08,2.55c3.09,2.54,9.26,7.64,15,13.18a152.39,152.39,0,0,1,38.2,60c2.59,7.55,4.59,15.29,12,23.05s20.32,15.51,20.46,23.48-12.48,16.17-19.65,24.17-8.91,15.82-11.24,23.44a152.33,152.33,0,1,1-78.82-181.5c7.16,3.5,14.05,7.57,17.5,9.6l3.45,2"/><path id="Path_13059" data-name="Path 13059" class="cls-85" d="M278,125.59l3.11,2.57c3.11,2.56,9.33,7.69,15.11,13.27a153.42,153.42,0,1,1-156.53-34.77c7.6-2.61,15.4-4.63,23.28-8.15s15.82-8.58,23.85-8.71S203,94.43,211,97.69s15.86,5,23.55,7.36a153.83,153.83,0,0,1,22.39,8.83c7.22,3.52,14.16,7.62,17.63,9.66l3.47,2"/><path id="Path_13060" data-name="Path 13060" class="cls-86" d="M278.37,125.06l3.12,2.57c3.12,2.58,9.36,7.73,15.17,13.34a154.08,154.08,0,1,1-39.48-27.67c7.25,3.54,14.22,7.65,17.7,9.7l3.49,2.06"/><path id="Path_13061" data-name="Path 13061" class="cls-87" d="M278.53,124.83l3.12,2.58c3.13,2.58,9.38,7.74,15.19,13.36a154.35,154.35,0,1,1-157.46-35c7.64-2.63,15.49-4.65,23.4-9.22s15.87-11.69,23.95-11.82,16.28,6.7,24.34,11,16,6.06,23.69,8.43a154.31,154.31,0,0,1,22.54,8.89c7.26,3.54,14.25,7.66,17.74,9.72l3.49,2"/><path id="Path_13062" data-name="Path 13062" class="cls-88" d="M278.56,124.79l3.12,2.58c3.13,2.58,9.39,7.74,15.2,13.36A154.43,154.43,0,1,1,257.32,113c7.27,3.54,14.25,7.67,17.75,9.72l3.49,2.06"/><path id="Path_13063" data-name="Path 13063" class="cls-89" d="M278.69,124.6l3.13,2.59c3.13,2.58,9.4,7.75,15.22,13.38a154.63,154.63,0,0,1,38.76,60.91c2.64,7.65,4.67,15.52,6.9,23.48s4.68,16,4.82,24.11-2,16.23-4,24.26-3.73,16-6.1,23.7a154.6,154.6,0,1,1-80-184.23c7.28,3.56,14.27,7.68,17.77,9.74l3.5,2.06"/><path id="Path_13064" data-name="Path 13064" class="cls-90" d="M279.21,123.86l3.15,2.6c3.15,2.6,9.45,7.8,15.3,13.46A155.53,155.53,0,1,1,42.49,302.33c-2.65-7.7-4.69-15.61-7-23.62s-5-16.1-5.15-24.25,2.24-16.32,4.32-24.41,3.85-16.05,6.23-23.84a155.54,155.54,0,0,1,217-94.22c7.32,3.58,14.36,7.73,17.88,9.8l3.52,2.07"/><path id="Path_13065" data-name="Path 13065" class="cls-49" d="M279.25,123.79l3.15,2.6c3.16,2.6,9.46,7.81,15.32,13.47A155.62,155.62,0,1,1,42.41,302.36c-2.65-7.71-4.7-15.62-7.19-23.63s-5.44-16.1-5.58-24.25,2.53-16.34,4.75-24.43,4-16.06,6.38-23.86a155.57,155.57,0,0,1,217.08-94.27c7.32,3.57,14.36,7.72,17.88,9.8l3.52,2.07"/><path id="Path_13066" data-name="Path 13066" class="cls-91" d="M280,122.75l3.17,2.62c3.18,2.63,9.54,7.87,15.44,13.58a156.85,156.85,0,0,1,39.34,61.79c2.67,7.77,4.73,15.75,8.54,23.8s9.38,16.17,9.52,24.38-5.14,16.52-8.68,24.69-5.32,16.22-7.73,24.08a156.92,156.92,0,1,1-81.18-186.91c7.38,3.6,14.48,7.79,18,9.88l3.55,2.09"/><path id="Path_13067" data-name="Path 13067" class="cls-92" d="M281.49,120.61l3.23,2.66c3.23,2.67,9.69,8,15.7,13.81a159.48,159.48,0,1,1-40.87-28.65c7.51,3.67,14.72,7.92,18.33,10l3.61,2.13"/><path id="Path_13068" data-name="Path 13068" class="cls-93" d="M284.15,116.81l3.33,2.75c3.32,2.74,10,8.23,16.15,14.2A164.11,164.11,0,1,1,34.38,305.12c-2.8-8.12-5-16.47-7.75-24.91s-6.24-17-6.39-25.57,3-17.24,5.52-25.77,4.38-17,6.89-25.16a164.1,164.1,0,0,1,228.93-99.42c7.72,3.77,15.14,8.14,18.86,10.33l3.71,2.2"/><path id="Path_13069" data-name="Path 13069" class="cls-94" d="M284.43,116.42l3.33,2.75c3.33,2.75,10,8.25,16.2,14.24a164.6,164.6,0,0,1,41.27,64.82c2.8,8.15,5,16.53,8.38,25s8.1,17,8.24,25.62-4.23,17.31-7.36,25.87-5,17-7.53,25.25a164.64,164.64,0,1,1-85.17-196.1c7.74,3.78,15.19,8.17,18.91,10.37l3.73,2.2"/><path id="Path_13070" data-name="Path 13070" class="cls-95" d="M284.53,116.28l3.33,2.75c3.34,2.75,10,8.26,16.22,14.26a164.62,164.62,0,0,1,41.3,64.89c2.81,8.16,5,16.54,8.18,25s7.45,17,7.6,25.65-3.81,17.32-6.72,25.89-4.8,17-7.32,25.27a164.8,164.8,0,1,1-85.26-196.3c7.76,3.79,15.21,8.18,18.94,10.38l3.73,2.2"/><path id="Path_13071" data-name="Path 13071" class="cls-96" d="M285.8,114.45l3.39,2.79c3.38,2.79,10.14,8.37,16.43,14.45a166.94,166.94,0,0,1,41.86,65.77c2.85,8.27,5,16.76,8.6,25.34s8.49,17.24,8.64,26S360.24,266.34,357,275s-5.17,17.26-7.73,25.62a167,167,0,1,1-86.4-198.95c7.85,3.84,15.41,8.29,19.19,10.52l3.77,2.23"/><path id="Path_13072" data-name="Path 13072" class="cls-97" d="M287.88,111.49l3.46,2.85c3.45,2.84,10.36,8.55,16.79,14.76a170.58,170.58,0,1,1-43.71-30.64c8,3.92,15.75,8.47,19.6,10.75l3.86,2.28"/><path id="Path_13073" data-name="Path 13073" class="cls-98" d="M289.67,108.94l3.52,2.9c3.51,2.91,10.55,8.71,17.09,15a173.68,173.68,0,0,1,43.54,68.42c3,8.6,5.24,17.43,8.09,26.36s6.29,18,6.45,27.07-3,18.24-5.52,27.27-4.53,17.93-7.2,26.63A173.69,173.69,0,1,1,265.78,95.68c8.17,4,16,8.63,20,10.94l3.93,2.32"/><path id="Path_13074" data-name="Path 13074" class="cls-99" d="M291.78,105.93l3.59,3c3.59,3,10.77,8.9,17.45,15.35a177.32,177.32,0,1,1-45.43-31.85c8.34,4.08,16.36,8.81,20.38,11.17l4,2.37"/><path id="Path_13075" data-name="Path 13075" class="cls-100" d="M293.39,103.62l3.65,3c3.65,3,10.95,9,17.73,15.59a180.18,180.18,0,0,1,45.16,71c3.07,8.92,5.44,18.08,8.34,27.35s6.34,18.65,6.5,28.08-3,18.91-5.54,28.28-4.64,18.6-7.4,27.61A180.16,180.16,0,1,1,268.61,89.87c8.48,4.14,16.63,8.95,20.71,11.35l4.07,2.4"/><path id="Path_13076" data-name="Path 13076" class="cls-98" d="M296,100l3.74,3.08c3.74,3.09,11.22,9.26,18.17,16,73.31,70.85,75.29,187.71,4.44,261s-187.71,75.29-261,4.44-75.29-187.71-4.44-261A184.59,184.59,0,0,1,270.56,85.88c8.69,4.24,17,9.17,21.22,11.63L296,100"/><path id="Path_13077" data-name="Path 13077" class="cls-101" d="M296.35,99.4l3.76,3.09c3.75,3.1,11.26,9.29,18.23,16,73.58,71.12,75.58,188.42,4.46,262S134.38,456.11,60.8,385s-75.58-188.42-4.46-262a185.14,185.14,0,0,1,73-46.45c9.17-3.16,18.6-5.59,28.12-9.51s19.12-9.31,28.83-9.48,19.48,4.91,29.13,8.5,19.15,5.7,28.42,8.54a186,186,0,0,1,27.05,10.66c8.72,4.26,17.1,9.2,21.29,11.68l4.19,2.47"/><path id="Path_13078" data-name="Path 13078" class="cls-102" d="M296.67,99l3.76,3.11c3.77,3.1,11.29,9.32,18.29,16.08,73.8,71.32,75.8,189,4.47,262.77A186,186,0,0,1,250,427.5c-9.21,3.16-18.66,5.6-28,22.59s-18.52,48.53-28.24,48.69-20-31-29.89-47.7-19.43-18.78-28.73-21.63C37,399.4-18.17,295.49,11.88,197.35S145.84,44,244,74.07a186,186,0,0,1,27.13,10.7c8.74,4.27,17.15,9.22,21.35,11.7L296.67,99"/><path id="Path_13079" data-name="Path 13079" class="cls-103" d="M297.44,97.85l3.79,3.13c3.79,3.13,11.38,9.38,18.42,16.19a187.22,187.22,0,0,1,46.93,73.73c3.18,9.27,5.64,18.78,8.39,28.42s5.78,19.38,5.94,29.18-2.53,19.65-5,29.37-4.55,19.32-7.42,28.69C338.28,405.41,233.61,461,134.77,430.73S-19.67,295.8,10.6,197,145.53,42.52,244.38,72.79A187.47,187.47,0,0,1,271.7,83.56c8.8,4.3,17.27,9.3,21.51,11.79l4.23,2.5"/><path id="Path_13080" data-name="Path 13080" class="cls-104" d="M298.21,96.75,302,99.9c3.82,3.15,11.45,9.45,18.55,16.31,74.86,72.36,76.89,191.7,4.53,266.56A188.38,188.38,0,0,1,250.86,430c-9.33,3.21-18.92,5.69-28.33,25.29S203.86,511.63,194,511.8s-20.36-36.22-30.43-55.49S143.81,434.9,134.37,432C34.82,401.53-21.18,296.12,9.3,196.57S145.18,41,244.74,71.5a187.79,187.79,0,0,1,27.54,10.86c8.87,4.33,17.4,9.36,21.67,11.88l4.26,2.51"/></g></g></g><g id="Each_circle_represents_a_movement" data-name="Each circle represents a movement" class="cls-105"><g class="cls-105"><path d="M286,13.47l-.08,5.25H272.74V17h1.95l.13-.13V3.77l-2.34-1.56V1.82h13V7.07H285l-2-3.43h-4.89V9h3l.13-.13V6.92h1.66v6h-1.66V11l-.13-.13h-3V16.9h5.33l2.11-3.43Z"/><path d="M298.19,17.06v1.66H293.9v-.91a5.84,5.84,0,0,1-3.22,1.2,2.38,2.38,0,0,1-2.57-2.58c0-1.95,1.3-3.46,5.79-3.92V12c0-1.77-.59-2.68-2.1-2.68a5.11,5.11,0,0,0-2.73,1l-.5-1a6.12,6.12,0,0,1,4.5-1.92c2.73,0,3.83,1.56,3.83,4.45v5.07l.13.13Zm-4.29-.16V13.78c-2,.18-2.86.75-2.88,1.93a1.3,1.3,0,0,0,1.48,1.42A5.6,5.6,0,0,0,293.9,16.9Z"/><path d="M299.47,13.47a5.72,5.72,0,0,1,5.9-6.06,8.9,8.9,0,0,1,3,.57v4.19h-.33l-2-2.65a2.12,2.12,0,0,0-1.43-.6c-1.33,0-2,1.25-2,3.56,0,3.25,1.69,4.71,3.48,4.71a4.29,4.29,0,0,0,2.27-.63l.49.91A6,6,0,0,1,304.8,19C301.55,19,299.47,16.8,299.47,13.47Z"/><path d="M322.61,17.06v1.66H317V17.06h1.17l.13-.13V12.3c0-2.08-.6-2.65-2.08-2.65a7.88,7.88,0,0,0-2,.31v7l.13.13h1.17v1.66H310V17.06h1.17l.13-.13V3.43l-1.67-1V2.08L313.87,0l.37.18V8.92a7,7,0,0,1,3.92-1.51c1.85,0,3.15.91,3.15,3v6.48l.13.13Z"/><path d="M328.82,13.47a5.72,5.72,0,0,1,5.9-6.06,9,9,0,0,1,3,.57v4.19h-.34l-2-2.65a2.1,2.1,0,0,0-1.43-.6c-1.32,0-2,1.25-2,3.56,0,3.25,1.7,4.71,3.49,4.71a4.28,4.28,0,0,0,2.26-.63l.5.91A6,6,0,0,1,334.15,19C330.9,19,328.82,16.8,328.82,13.47Z"/><path d="M339.43,17.06h1.17l.13-.13v-6.3l-1.66-1V9.28l4.31-2,.34.15v9.55l.13.13H345v1.66h-5.59Zm.88-13.52a1.81,1.81,0,1,1,1.82,1.82A1.81,1.81,0,0,1,340.31,3.54Z"/><path d="M350.45,10.5v6.43l.13.13h1.56v1.66h-6V17.06h1.17l.13-.13v-6.3l-1.66-1V9.28l3.9-2,.34.18.34,1.87c1.27-1.17,2.44-1.92,3.43-1.92a1.88,1.88,0,0,1,.75.13v3.35a12,12,0,0,0-3.25-.44C351,10.45,350.74,10.48,350.45,10.5Z"/><path d="M355.6,13.47a5.72,5.72,0,0,1,5.9-6.06,9,9,0,0,1,3.05.57v4.19h-.34l-2-2.65a2.12,2.12,0,0,0-1.43-.6c-1.32,0-2,1.25-2,3.56,0,3.25,1.69,4.71,3.49,4.71a4.28,4.28,0,0,0,2.26-.63l.49.91A6,6,0,0,1,360.93,19C357.68,19,355.6,16.8,355.6,13.47Z"/><path d="M366.08,17.06h1.17l.13-.13V3.43l-1.66-1V2.08L370,0l.36.18V16.93l.13.13h1.17v1.66h-5.59Z"/><path d="M382.23,16.56l.49.91A6.7,6.7,0,0,1,378.53,19a5.31,5.31,0,0,1-5.48-5.59c0-3.35,2.29-6,5.48-6a4.07,4.07,0,0,1,4.29,4.37,6.57,6.57,0,0,1-.13,1.4h-6.44c.18,2.5,1.37,4,3.51,4A5.59,5.59,0,0,0,382.23,16.56Zm-6-4.73h3.69c-.05-2.18-.7-2.91-1.77-2.91S376.35,9.93,376.25,11.83Z"/><path d="M393.46,10.5v6.43l.13.13h1.56v1.66h-6V17.06h1.17l.13-.13v-6.3l-1.67-1V9.28l3.9-2,.34.18.34,1.87c1.27-1.17,2.44-1.92,3.43-1.92a1.93,1.93,0,0,1,.76.13v3.35a12.1,12.1,0,0,0-3.25-.44C394,10.45,393.74,10.48,393.46,10.5Z"/><path d="M407.78,16.56l.5.91A6.7,6.7,0,0,1,404.09,19a5.31,5.31,0,0,1-5.48-5.59c0-3.35,2.28-6,5.48-6a4.07,4.07,0,0,1,4.29,4.37,6.57,6.57,0,0,1-.13,1.4H401.8c.19,2.5,1.38,4,3.51,4A5.59,5.59,0,0,0,407.78,16.56Zm-6-4.73h3.7c-.06-2.18-.71-2.91-1.77-2.91S401.91,9.93,401.8,11.83Z"/><path d="M421.56,12.87c0,3.43-2.34,6.11-5.61,6.11a4.65,4.65,0,0,1-1.95-.39v4.32l.13.13h1.56V24.7h-6V23h1.17l.13-.13V10.63l-1.67-1V9.28l3.9-2,.34.18.34,1.61a6.11,6.11,0,0,1,3.67-1.66C419.87,7.41,421.56,9.65,421.56,12.87Zm-3.17.7c0-2.6-1-3.92-2.55-3.92a7.36,7.36,0,0,0-1.84.23v6.29a2.31,2.31,0,0,0,2.05,1.25C417.61,17.42,418.39,15.94,418.39,13.57Z"/><path d="M427.52,10.5v6.43l.13.13h1.56v1.66h-6V17.06h1.17l.13-.13v-6.3l-1.67-1V9.28l3.9-2,.34.18.34,1.87c1.27-1.17,2.44-1.92,3.43-1.92a2,2,0,0,1,.76.13v3.35a12.1,12.1,0,0,0-3.25-.44C428.09,10.45,427.8,10.48,427.52,10.5Z"/><path d="M441.84,16.56l.5.91A6.7,6.7,0,0,1,438.15,19a5.31,5.31,0,0,1-5.48-5.59c0-3.35,2.28-6,5.48-6a4.07,4.07,0,0,1,4.29,4.37,6.57,6.57,0,0,1-.13,1.4h-6.45c.18,2.5,1.38,4,3.51,4A5.59,5.59,0,0,0,441.84,16.56Zm-6-4.73h3.7c-.06-2.18-.71-2.91-1.77-2.91S436,9.93,435.86,11.83Z"/><path d="M444.13,18.12V14.38h.34l1.43,1.77a3.15,3.15,0,0,0,2.34,1.32c1,0,1.35-.49,1.35-1.09,0-1.09-1.35-1.43-2.65-2.18-2-1.15-2.78-2.06-2.78-3.64,0-2,1.71-3.15,4.31-3.15a8.33,8.33,0,0,1,3.07.55v3.51h-.34l-1.51-1.8a2.39,2.39,0,0,0-1.63-.75c-.81,0-1.22.47-1.22,1,0,1,1.09,1.48,2.49,2.19,2,1,2.94,2,2.94,3.48,0,2.11-1.56,3.38-4.24,3.38A10.2,10.2,0,0,1,444.13,18.12Z"/><path d="M462.72,16.56l.49.91A6.67,6.67,0,0,1,459,19a5.31,5.31,0,0,1-5.49-5.59c0-3.35,2.29-6,5.49-6a4.07,4.07,0,0,1,4.29,4.37,7.29,7.29,0,0,1-.13,1.4h-6.45c.18,2.5,1.38,4,3.51,4A5.59,5.59,0,0,0,462.72,16.56Zm-6-4.73h3.69c-.05-2.18-.7-2.91-1.76-2.91S456.85,9.93,456.74,11.83Z"/><path d="M477.39,17.08v1.64h-5.6V17.06H473l.14-.13V12.3c0-2.08-.6-2.65-2.08-2.65a8,8,0,0,0-2,.31v7l.13.13h1.17v1.66h-5.59V17.06h1.17l.13-.13V10.61l-1.66-1V9.26l3.9-2,.34.19L468.91,9a7.05,7.05,0,0,1,4-1.56c1.84,0,3.15.91,3.15,3v6.48l.13.15Z"/><path d="M479.6,15.57v-6l-.14-.13H478V9.13l4.24-4.42h.33V7.8H486V9.46h-3.46v4.87c0,2.08.39,2.8,1.44,2.8a4.45,4.45,0,0,0,1.92-.57l.49.91a6.11,6.11,0,0,1-3.9,1.51C480.66,19,479.6,18.07,479.6,15.57Z"/><path d="M487.68,18.12V14.38H488l1.43,1.77a3.15,3.15,0,0,0,2.34,1.32c1,0,1.35-.49,1.35-1.09,0-1.09-1.35-1.43-2.65-2.18-2-1.15-2.78-2.06-2.78-3.64,0-2,1.71-3.15,4.31-3.15a8.33,8.33,0,0,1,3.07.55v3.51h-.34l-1.51-1.8a2.39,2.39,0,0,0-1.63-.75c-.81,0-1.23.47-1.23,1,0,1,1.1,1.48,2.5,2.19,2,1,2.94,2,2.94,3.48,0,2.11-1.56,3.38-4.24,3.38A10.2,10.2,0,0,1,487.68,18.12Z"/><path d="M512,17.06v1.66h-4.29v-.91A5.89,5.89,0,0,1,504.5,19a2.38,2.38,0,0,1-2.57-2.58c0-1.95,1.3-3.46,5.8-3.92V12c0-1.77-.6-2.68-2.11-2.68a5.11,5.11,0,0,0-2.73,1l-.49-1a6.1,6.1,0,0,1,4.49-1.92c2.73,0,3.83,1.56,3.83,4.45v5.07l.13.13Zm-4.29-.16V13.78c-2,.18-2.86.75-2.89,1.93a1.3,1.3,0,0,0,1.48,1.42A5.75,5.75,0,0,0,507.73,16.9Z"/><path d="M537.42,17.06v1.66h-5.59V17.06H533l.13-.13V12.3c0-2-.52-2.65-1.64-2.65a8.19,8.19,0,0,0-2.18.31l0-.05a5.43,5.43,0,0,1,.05.72v6.3l.13.13h1.17v1.66H525V17.06h1.17l.13-.13V12.3c0-2-.52-2.65-1.66-2.65a8.33,8.33,0,0,0-2.19.31v7l.13.13h1.17v1.66H518.2V17.06h1.17l.13-.13V10.61l-1.66-1V9.26l3.9-2,.34.19L522.39,9a7,7,0,0,1,3.85-1.56,2.8,2.8,0,0,1,2.81,1.66c1.53-1,2.57-1.66,4-1.66,2,0,3,1.22,3,3.17v6.35l.13.13Z"/><path d="M538.69,13.47c0-3.43,2.29-6.06,5.67-6.06,3,0,5.36,2.11,5.36,5.64S547.35,19,544.05,19A5.14,5.14,0,0,1,538.69,13.47Zm7.85.6c0-3-1.14-5.05-2.7-5.05-1.22,0-2,1.25-2,3.38,0,3,1.15,5,2.71,5C545.79,17.45,546.54,16.2,546.54,14.07Z"/><path d="M551.43,9.59l-1.58-1.43V7.8h6.29v.34l-1.46,1.45,2.39,5.59h.08l2.58-5.59-1.46-1.43V7.8h4.86v.34l-1.58,1.45L557.05,19h-1.2Z"/><path d="M572.18,16.56l.49.91A6.69,6.69,0,0,1,568.49,19,5.31,5.31,0,0,1,563,13.39c0-3.35,2.29-6,5.49-6a4.07,4.07,0,0,1,4.29,4.37,7.29,7.29,0,0,1-.13,1.4H566.2c.18,2.5,1.38,4,3.51,4A5.59,5.59,0,0,0,572.18,16.56Zm-6-4.73h3.69c0-2.18-.7-2.91-1.77-2.91S566.3,9.93,566.2,11.83Z"/><path d="M593.4,17.06v1.66h-5.59V17.06H589l.13-.13V12.3c0-2-.52-2.65-1.64-2.65a8.33,8.33,0,0,0-2.19.31l0-.05c0,.23,0,.46,0,.72v6.3l.13.13h1.17v1.66H581V17.06h1.17l.13-.13V12.3c0-2-.52-2.65-1.66-2.65a8.33,8.33,0,0,0-2.19.31v7l.13.13h1.17v1.66h-5.59V17.06h1.17l.13-.13V10.61l-1.66-1V9.26l3.9-2,.33.19L578.37,9a6.92,6.92,0,0,1,3.84-1.56A2.78,2.78,0,0,1,585,9.07c1.54-1,2.58-1.66,4-1.66a2.83,2.83,0,0,1,3.05,3.17v6.35l.13.13Z"/><path d="M603.85,16.56l.49.91A6.7,6.7,0,0,1,600.15,19a5.31,5.31,0,0,1-5.48-5.59c0-3.35,2.29-6,5.48-6a4.07,4.07,0,0,1,4.29,4.37,7.22,7.22,0,0,1-.12,1.4h-6.45c.18,2.5,1.38,4,3.51,4A5.59,5.59,0,0,0,603.85,16.56Zm-6-4.73h3.69c0-2.18-.7-2.91-1.77-2.91S598,9.93,597.87,11.83Z"/><path d="M618.51,17.08v1.64h-5.59V17.06h1.17l.13-.13V12.3c0-2.08-.6-2.65-2.08-2.65a7.88,7.88,0,0,0-2,.31v7l.13.13h1.17v1.66h-5.59V17.06H607l.13-.13V10.61l-1.66-1V9.26l3.89-2,.34.19L610,9a7.1,7.1,0,0,1,4-1.56c1.84,0,3.14.91,3.14,3v6.48l.13.15Z"/><path d="M620.72,15.57v-6l-.13-.13h-1.46V9.13l4.24-4.42h.34V7.8h3.46V9.46h-3.46v4.87c0,2.08.39,2.8,1.43,2.8a4.37,4.37,0,0,0,1.92-.57l.5.91a6.14,6.14,0,0,1-3.9,1.51C621.79,19,620.72,18.07,620.72,15.57Z"/></g></g><g id="Movement_circles_move_outward_in_time" data-name="Movement circles move outward in time" class="cls-105"><g class="cls-105"><path d="M384.65,97.64v1.08h-5.77V97.64h1.81l.11-.12-.71-11.9-5.67,13.1h-.65l-5.49-12.79-.72,11.59.12.12h1.8v1.08h-5V97.64h1.8l.12-.12.84-13-2.16-1.2v-.24h4l5.33,12.58h.07L380,83.12H384v.24l-2.16,1.2.85,13,.12.12Z"/><path d="M386.2,94a5,5,0,0,1,5.07-5.35,4.61,4.61,0,0,1,4.77,5A5,5,0,0,1,391,99,4.63,4.63,0,0,1,386.2,94Zm8,.22c0-2.64-1.41-4.61-3.29-4.61-1.58,0-2.83,1.18-2.83,3.77S389.4,98,391.34,98C393,98,394.17,96.78,394.17,94.21Z"/><path d="M398,90.22l-1.35-1.08V89h4.95v.08L400,90.22l2.69,6.39h.09l2.76-6.39-1.7-1.08V89h4v.08l-1.2,1.12L402.79,99H402Z"/><path d="M416.85,93.37h-6.62c0,3.14,1.65,4.3,3.81,4.3a5.41,5.41,0,0,0,2.48-.61l.26.51A5.58,5.58,0,0,1,413.06,99,4.61,4.61,0,0,1,408.38,94c0-3.53,2.54-5.4,4.73-5.4a3.58,3.58,0,0,1,3.79,3.93A7.83,7.83,0,0,1,416.85,93.37Zm-6.57-.87H415c0-2-.79-2.9-2.09-2.9C411.79,89.6,410.52,90.34,410.28,92.5Z"/><path d="M436,97.64v1.08h-4.8V97.64h1.44l.12-.12V93c0-2.06-.41-2.78-2.09-2.78a10.79,10.79,0,0,0-2.61.36l0-.05a4.16,4.16,0,0,1,.1,1v6.07l.12.12h1.44v1.08h-4.8V97.64h1.44l.12-.12V93c0-2.06-.41-2.78-2.09-2.78a11.8,11.8,0,0,0-2.54.33v7l.12.12h1.44v1.08h-4.8V97.64H420l.11-.12V91l-1.6-.77v-.12l2.9-1.49.15.07.19,1.37a6.72,6.72,0,0,1,3.36-1.44c1.53,0,2.42.53,2.81,1.54a7.06,7.06,0,0,1,3.5-1.54c2.09,0,3,1,3,2.81v6.07l.12.12Z"/><path d="M446.11,93.37h-6.63c0,3.14,1.66,4.3,3.82,4.3a5.37,5.37,0,0,0,2.47-.61l.27.51A5.6,5.6,0,0,1,442.32,99,4.61,4.61,0,0,1,437.63,94c0-3.53,2.55-5.4,4.73-5.4a3.58,3.58,0,0,1,3.8,3.93C446.16,92.82,446.13,93.08,446.11,93.37Zm-6.58-.87h4.75c0-2-.79-2.9-2.09-2.9C441,89.6,439.77,90.34,439.53,92.5Z"/><path d="M459.16,97.64v1.08h-4.92V97.64h1.56l.12-.12V93c0-2.06-.43-2.78-2.2-2.78a13,13,0,0,0-2.67.33v7l.12.12h1.56v1.08h-4.92V97.64h1.44l.12-.12V91l-1.61-.77V90.1l2.91-1.48.14.07.19,1.37a7,7,0,0,1,3.48-1.42c2.16,0,3.12,1,3.12,2.81v6.07l.12.12Z"/><path d="M461.8,95.91V90.22l-.12-.12h-1.44V90l3.12-4.1h.12V89h3.24V90.1h-3.24v4.49c0,2.43.36,3.24,1.76,3.24a4.59,4.59,0,0,0,1.58-.26l.26.5a5.12,5.12,0,0,1-2.76.89C462.62,99,461.8,98.19,461.8,95.91Z"/><path d="M473.68,94.09c0-3.51,2.38-5.45,5.09-5.45a6.26,6.26,0,0,1,2.64.53V92h-.12l-1.42-1.8a2.32,2.32,0,0,0-1.65-.58c-1.73,0-2.69,1.49-2.69,3.7,0,3.07,1.51,4.35,3.55,4.35a5.37,5.37,0,0,0,2.47-.61l.27.51a5.31,5.31,0,0,1-3.6,1.39C475.17,99,473.68,96.7,473.68,94.09Z"/><path d="M483.35,97.64h1.44l.12-.12V91l-1.6-.77V90.1l3.14-1.46.14.07v8.81l.12.12h1.44v1.08h-4.8Zm.92-12.79a1.31,1.31,0,1,1,1.32,1.29A1.33,1.33,0,0,1,484.27,84.85Z"/><path d="M496.65,88.81v1.75a6.3,6.3,0,0,0-1.22-.12,11.11,11.11,0,0,0-2.52.34v6.74l.12.12h1.8v1.08h-5.16V97.64h1.44l.12-.12V91l-1.61-.77V90.1l2.9-1.48.15.07.24,1.63c1-.74,2.35-1.68,3.14-1.68A1.09,1.09,0,0,1,496.65,88.81Z"/><path d="M497.68,94.09c0-3.51,2.38-5.45,5.09-5.45a6.26,6.26,0,0,1,2.64.53V92h-.12l-1.42-1.8a2.32,2.32,0,0,0-1.65-.58c-1.73,0-2.69,1.49-2.69,3.7,0,3.07,1.51,4.35,3.55,4.35a5.37,5.37,0,0,0,2.47-.61l.27.51a5.31,5.31,0,0,1-3.6,1.39C499.17,99,497.68,96.7,497.68,94.09Z"/><path d="M507.35,97.64h1.44l.12-.12V83.84l-1.6-.77V83l3.14-1.51.14.07v16l.12.12h1.56v1.08h-4.92Z"/><path d="M522.4,93.37h-6.62c0,3.14,1.65,4.3,3.81,4.3a5.41,5.41,0,0,0,2.48-.61l.26.51A5.58,5.58,0,0,1,518.61,99,4.61,4.61,0,0,1,513.93,94c0-3.53,2.54-5.4,4.73-5.4a3.58,3.58,0,0,1,3.79,3.93A7.83,7.83,0,0,1,522.4,93.37Zm-6.57-.87h4.75c-.05-2-.8-2.9-2.09-2.9S516.07,90.34,515.83,92.5Z"/><path d="M524.35,98.38V95.86h.11l1.2,1.32a2.75,2.75,0,0,0,1.93.87c1,0,1.65-.51,1.65-1.37,0-1.2-1.15-1.58-2.4-2.26-1.46-.79-2.35-1.63-2.35-3,0-1.61,1.29-2.76,3.41-2.76a7,7,0,0,1,2.54.46v2.44h-.12l-1.25-1.39a2.25,2.25,0,0,0-1.58-.62,1.38,1.38,0,0,0-1.56,1.34c0,1.13,1.13,1.66,2.26,2.26s2.54,1.37,2.54,3S529.24,99,527.42,99A8.44,8.44,0,0,1,524.35,98.38Z"/><path d="M555.11,97.64v1.08h-4.8V97.64h1.44l.12-.12V93c0-2.06-.4-2.78-2.09-2.78a10.86,10.86,0,0,0-2.61.36l0-.05a4.18,4.18,0,0,1,.09,1v6.07l.12.12h1.44v1.08H544V97.64h1.44l.12-.12V93c0-2.06-.41-2.78-2.09-2.78a11.8,11.8,0,0,0-2.54.33v7l.12.12h1.44v1.08h-4.8V97.64h1.44l.12-.12V91l-1.61-.77v-.12l2.9-1.49.15.07.19,1.37a6.72,6.72,0,0,1,3.36-1.44c1.54,0,2.43.53,2.81,1.54a7.06,7.06,0,0,1,3.5-1.54c2.09,0,3,1,3,2.81v6.07l.12.12Z"/><path d="M556.77,94a5,5,0,0,1,5.06-5.35,4.62,4.62,0,0,1,4.78,5,5,5,0,0,1-5,5.35A4.62,4.62,0,0,1,556.77,94Zm8,.22c0-2.64-1.42-4.61-3.29-4.61-1.59,0-2.83,1.18-2.83,3.77S560,98,561.9,98C563.56,98,564.74,96.78,564.74,94.21Z"/><path d="M568.55,90.22l-1.34-1.08V89h4.94v.08l-1.56,1.12,2.69,6.39h.1l2.76-6.39-1.71-1.08V89h4v.08l-1.19,1.12L573.35,99h-.81Z"/><path d="M587.42,93.37h-6.63c0,3.14,1.66,4.3,3.82,4.3a5.37,5.37,0,0,0,2.47-.61l.27.51A5.6,5.6,0,0,1,583.62,99,4.61,4.61,0,0,1,578.94,94c0-3.53,2.55-5.4,4.73-5.4a3.58,3.58,0,0,1,3.79,3.93C587.46,92.82,587.44,93.08,587.42,93.37Zm-6.58-.87h4.75c-.05-2-.79-2.9-2.09-2.9S581.08,90.34,580.84,92.5Z"/><path d="M594.54,94a5,5,0,0,1,5.07-5.35,4.61,4.61,0,0,1,4.77,5,5,5,0,0,1-5,5.35A4.63,4.63,0,0,1,594.54,94Zm8,.22c0-2.64-1.41-4.61-3.29-4.61-1.58,0-2.83,1.18-2.83,3.77S597.74,98,599.68,98C601.34,98,602.51,96.78,602.51,94.21Z"/><path d="M617.1,97.64v1.08h-3.24V97.57A6.9,6.9,0,0,1,610.55,99c-2.09,0-3-1-3-2.81V91.06l-1.61-.76v-.12l3.15-1.52.14.08v5.9c0,2.06.41,2.78,2.09,2.78a11.8,11.8,0,0,0,2.54-.33V91l-1.6-.77v-.12l3.14-1.51.14.07v8.81l.12.12Z"/><path d="M619.79,95.91V90.22l-.12-.12h-1.44V90l3.12-4.1h.12V89h3.24V90.1h-3.24v4.49c0,2.43.36,3.24,1.75,3.24a4.65,4.65,0,0,0,1.59-.26l.26.5a5.12,5.12,0,0,1-2.76.89C620.61,99,619.79,98.19,619.79,95.91Z"/><path d="M641.27,89v.08l-1.37,1.12L636.52,99h-.79l-2.19-5.64c-.64,1.58-2.32,5.64-2.32,5.64h-.77l-3.75-8.74-1.39-1.08V89h5v.08l-1.63,1.12,2.57,6.41h.1l1.8-4.37-1-2.61,1.65-.87,2.69,7.85h.1l2.25-6.43-1.72-1.1V89Z"/><path d="M650.68,97.64v1.08h-3.24v-1A5.72,5.72,0,0,1,644.27,99a2.25,2.25,0,0,1-2.4-2.3c0-2.21,2.33-3,5.57-3.17v-.75c0-1.89-.43-2.8-2.18-2.8a4.84,4.84,0,0,0-2.79.91l-.31-.58a5.1,5.1,0,0,1,3.74-1.63,2.93,2.93,0,0,1,3.22,3.14v5.74l.12.12Zm-3.24-.34v-3c-2,.14-3.86.48-3.86,2.08,0,.94.64,1.37,1.56,1.37A7.37,7.37,0,0,0,647.44,97.3Z"/><path d="M659.18,88.81v1.75a6.49,6.49,0,0,0-1.23-.12,11.25,11.25,0,0,0-2.52.34v6.74l.12.12h1.8v1.08h-5.16V97.64h1.44l.12-.12V91l-1.61-.77V90.1l2.91-1.48.14.07.24,1.63c1-.74,2.35-1.68,3.15-1.68A1.09,1.09,0,0,1,659.18,88.81Z"/><path d="M671.06,97.64v1.08h-3.37V97.57A7.5,7.5,0,0,1,664,99c-2.38,0-3.77-2.4-3.77-4.87,0-2.74,1.58-5.45,5-5.45a5.73,5.73,0,0,1,2.49.5v-5.3l-1.6-.77V83l3.14-1.51.15.07v16l.12.12Zm-3.37-.46V91.09A2.87,2.87,0,0,0,665,89.6c-2.11,0-2.91,1.54-2.91,4,0,2.23.85,4,2.93,4A10.34,10.34,0,0,0,667.69,97.18Z"/><path d="M677.87,97.64h1.44l.12-.12V91l-1.61-.77V90.1L681,88.64l.14.07v8.81l.12.12h1.44v1.08h-4.8Zm.91-12.79a1.31,1.31,0,1,1,1.32,1.29A1.33,1.33,0,0,1,678.78,84.85Z"/><path d="M695.53,97.64v1.08h-4.92V97.64h1.56l.12-.12V93c0-2.06-.43-2.78-2.2-2.78a13,13,0,0,0-2.67.33v7l.12.12h1.56v1.08h-4.92V97.64h1.44l.12-.12V91l-1.61-.77V90.1L687,88.62l.14.07.19,1.37a7,7,0,0,1,3.49-1.42c2.16,0,3.11,1,3.11,2.81v6.07l.13.12Z"/><path d="M703.45,95.91V90.22l-.12-.12h-1.44V90l3.12-4.1h.12V89h3.24V90.1h-3.24v4.49c0,2.43.36,3.24,1.76,3.24a4.59,4.59,0,0,0,1.58-.26l.26.5A5.12,5.12,0,0,1,706,99C704.27,99,703.45,98.19,703.45,95.91Z"/><path d="M709.91,97.64h1.44l.12-.12V91l-1.61-.77V90.1L713,88.64l.14.07v8.81l.12.12h1.44v1.08h-4.8Zm.91-12.79a1.31,1.31,0,1,1,1.32,1.29A1.33,1.33,0,0,1,710.82,84.85Z"/><path d="M733.65,97.64v1.08h-4.8V97.64h1.44l.12-.12V93c0-2.06-.41-2.78-2.09-2.78a10.87,10.87,0,0,0-2.62.36l0-.05a4.18,4.18,0,0,1,.09,1v6.07l.12.12h1.44v1.08h-4.8V97.64H724l.12-.12V93c0-2.06-.4-2.78-2.08-2.78a12,12,0,0,0-2.55.33v7l.12.12H721v1.08h-4.8V97.64h1.44l.12-.12V91l-1.61-.77v-.12l2.91-1.49.14.07.19,1.37a6.79,6.79,0,0,1,3.36-1.44c1.54,0,2.43.53,2.81,1.54a7.09,7.09,0,0,1,3.51-1.54c2.08,0,3,1,3,2.81v6.07l.12.12Z"/><path d="M743.77,93.37h-6.62c0,3.14,1.65,4.3,3.81,4.3a5.38,5.38,0,0,0,2.48-.61l.26.51A5.58,5.58,0,0,1,740,99,4.61,4.61,0,0,1,735.3,94c0-3.53,2.55-5.4,4.73-5.4a3.58,3.58,0,0,1,3.79,3.93A7.83,7.83,0,0,1,743.77,93.37Zm-6.57-.87H742c-.05-2-.79-2.9-2.09-2.9S737.44,90.34,737.2,92.5Z"/></g></g><g id="This_was_the_first_movement" data-name="This was the first movement" class="cls-105"><g class="cls-105"><path d="M422.52,176.64h1.8l.12-.12V163.2H420.6l-1.71,3h-.12v-4.08H432v4.08h-.14l-1.68-3h-3.84v13.32l.12.12h1.8v1.08h-5.76Z"/><path d="M445.39,176.64v1.08h-4.92v-1.08H442l.12-.12V172c0-2.06-.43-2.78-2.21-2.78a12.9,12.9,0,0,0-2.66.33v7l.12.12H439v1.08H434v-1.08h1.45l.12-.12V162.84l-1.61-.77V162l3.14-1.51.15.07V169a6.93,6.93,0,0,1,3.43-1.39c2.16,0,3.12,1,3.12,2.81v6.07l.12.12Z"/><path d="M446.9,176.64h1.44l.12-.12V170l-1.61-.77v-.12l3.15-1.46.14.07v8.81l.12.12h1.44v1.08h-4.8Zm.91-12.79a1.31,1.31,0,1,1,1.32,1.29A1.33,1.33,0,0,1,447.81,163.85Z"/><path d="M453.45,177.38v-2.52h.12l1.2,1.32a2.74,2.74,0,0,0,1.92.87c1,0,1.66-.51,1.66-1.37,0-1.2-1.16-1.58-2.4-2.26-1.47-.79-2.35-1.63-2.35-3,0-1.61,1.29-2.76,3.4-2.76a7.06,7.06,0,0,1,2.55.46v2.44h-.12l-1.25-1.39a2.27,2.27,0,0,0-1.58-.62c-1,0-1.57.55-1.57,1.34,0,1.13,1.13,1.66,2.26,2.26s2.55,1.37,2.55,3-1.49,2.81-3.32,2.81A8.44,8.44,0,0,1,453.45,177.38Z"/><path d="M481.82,168v.08l-1.37,1.12L477.07,178h-.79l-2.19-5.64L471.76,178H471l-3.74-8.74-1.39-1.08V168h5v.08l-1.63,1.12,2.57,6.41h.09l1.8-4.37-1-2.61,1.65-.87,2.69,7.85h.09l2.26-6.43-1.73-1.1V168Z"/><path d="M491.23,176.64v1.08H488v-1a5.75,5.75,0,0,1-3.17,1.22,2.24,2.24,0,0,1-2.4-2.3c0-2.21,2.33-3,5.57-3.17v-.75c0-1.89-.44-2.8-2.19-2.8a4.84,4.84,0,0,0-2.78.91l-.31-.58a5.09,5.09,0,0,1,3.74-1.63,2.94,2.94,0,0,1,3.22,3.14v5.74l.12.12ZM488,176.3v-3c-2,.14-3.87.48-3.87,2.08,0,.94.65,1.37,1.56,1.37A7.43,7.43,0,0,0,488,176.3Z"/><path d="M493,177.38v-2.52h.12l1.2,1.32a2.74,2.74,0,0,0,1.92.87c1,0,1.65-.51,1.65-1.37,0-1.2-1.15-1.58-2.4-2.26-1.46-.79-2.35-1.63-2.35-3,0-1.61,1.3-2.76,3.41-2.76a7.06,7.06,0,0,1,2.55.46v2.44H499l-1.24-1.39a2.3,2.3,0,0,0-1.59-.62,1.38,1.38,0,0,0-1.56,1.34c0,1.13,1.13,1.66,2.26,2.26s2.54,1.37,2.54,3-1.49,2.81-3.31,2.81A8.44,8.44,0,0,1,493,177.38Z"/><path d="M507.45,174.91v-5.69l-.12-.12h-1.44V169l3.12-4.1h.12V168h3.24v1.08h-3.24v4.49c0,2.43.36,3.24,1.75,3.24a4.65,4.65,0,0,0,1.59-.26l.26.5A5.12,5.12,0,0,1,510,178C508.27,178,507.45,177.19,507.45,174.91Z"/><path d="M525.26,176.64v1.08h-4.92v-1.08h1.56l.12-.12V172c0-2.06-.43-2.78-2.21-2.78a12.9,12.9,0,0,0-2.66.33v7l.12.12h1.56v1.08h-4.92v-1.08h1.44l.12-.12V162.84l-1.61-.77V162l3.14-1.51.15.07V169a6.93,6.93,0,0,1,3.43-1.39c2.16,0,3.12,1,3.12,2.81v6.07l.12.12Z"/><path d="M535.39,172.37h-6.63c0,3.14,1.66,4.3,3.82,4.3a5.37,5.37,0,0,0,2.47-.61l.26.51a5.56,5.56,0,0,1-3.72,1.39,4.61,4.61,0,0,1-4.68-4.94c0-3.53,2.55-5.4,4.73-5.4a3.59,3.59,0,0,1,3.8,3.93C535.44,171.82,535.41,172.08,535.39,172.37Zm-6.58-.87h4.75c0-2-.79-2.9-2.09-2.9S529.05,169.34,528.81,171.5Z"/><path d="M553.94,176.64v1.08h-4.8v-1.08h1.44l.12-.12V169.1h-5l-.12.15v7.27l.12.12h1.44v1.08h-4.8v-1.08h1.44l.12-.12v-7.27l-.12-.15H542.3V168h1.44l.12-.12v-.64c0-4.88,1.53-6.75,4.7-6.75a9.24,9.24,0,0,1,2.76.41v3.6h-.12l-1.32-1.68a2.67,2.67,0,0,0-2.13-1.25c-1.42,0-2.21,1.11-2.21,3.41v2.9l.12.12h6.72v8.5l.12.12Z"/><path d="M562.43,167.81v1.75a6.3,6.3,0,0,0-1.22-.12,11.18,11.18,0,0,0-2.52.34v6.74l.12.12h1.8v1.08h-5.16v-1.08h1.44l.12-.12V170l-1.61-.77v-.12l2.91-1.48.14.07.24,1.63c1-.74,2.35-1.68,3.14-1.68A1,1,0,0,1,562.43,167.81Z"/><path d="M563.68,177.38v-2.52h.12l1.2,1.32a2.74,2.74,0,0,0,1.92.87c1,0,1.66-.51,1.66-1.37,0-1.2-1.15-1.58-2.4-2.26-1.47-.79-2.36-1.63-2.36-3,0-1.61,1.3-2.76,3.41-2.76a7.06,7.06,0,0,1,2.55.46v2.44h-.12l-1.25-1.39a2.26,2.26,0,0,0-1.59-.62,1.37,1.37,0,0,0-1.55,1.34c0,1.13,1.12,1.66,2.25,2.26s2.55,1.37,2.55,3-1.49,2.81-3.32,2.81A8.44,8.44,0,0,1,563.68,177.38Z"/><path d="M572.87,174.91v-5.69l-.12-.12h-1.44V169l3.12-4.1h.12V168h3.24v1.08h-3.24v4.49c0,2.43.36,3.24,1.75,3.24a4.65,4.65,0,0,0,1.59-.26l.26.5a5.12,5.12,0,0,1-2.76.89C573.69,178,572.87,177.19,572.87,174.91Z"/><path d="M602,176.64v1.08h-4.8v-1.08h1.44l.12-.12V172c0-2.06-.4-2.78-2.09-2.78a10.86,10.86,0,0,0-2.61.36l0,0a4.18,4.18,0,0,1,.09,1v6.07l.12.12h1.44v1.08h-4.8v-1.08h1.44l.12-.12V172c0-2.06-.41-2.78-2.09-2.78a11.8,11.8,0,0,0-2.54.33v7l.12.12h1.44v1.08h-4.8v-1.08h1.44l.12-.12V170l-1.61-.77v-.12l2.9-1.49.15.07.19,1.37a6.72,6.72,0,0,1,3.36-1.44c1.54,0,2.43.53,2.81,1.54a7.06,7.06,0,0,1,3.5-1.54c2.09,0,3,1,3,2.81v6.07l.12.12Z"/><path d="M603.69,173a5,5,0,0,1,5.06-5.35,4.62,4.62,0,0,1,4.78,5,5,5,0,0,1-5,5.35A4.62,4.62,0,0,1,603.69,173Zm8,.22c0-2.64-1.42-4.61-3.29-4.61-1.59,0-2.83,1.18-2.83,3.77s1.34,4.63,3.28,4.63C610.48,177,611.66,175.78,611.66,173.21Z"/><path d="M615.47,169.22l-1.34-1.08V168h4.94v.08l-1.56,1.12,2.69,6.39h.1l2.76-6.39-1.71-1.08V168h4v.08l-1.19,1.12L620.27,178h-.81Z"/><path d="M634.34,172.37h-6.63c0,3.14,1.66,4.3,3.82,4.3a5.37,5.37,0,0,0,2.47-.61l.26.51a5.56,5.56,0,0,1-3.72,1.39,4.61,4.61,0,0,1-4.68-4.94c0-3.53,2.55-5.4,4.73-5.4a3.58,3.58,0,0,1,3.79,3.93C634.38,171.82,634.36,172.08,634.34,172.37Zm-6.58-.87h4.75c0-2-.79-2.9-2.09-2.9C629.27,168.6,628,169.34,627.76,171.5Z"/><path d="M653.46,176.64v1.08h-4.8v-1.08h1.45l.11-.12V172c0-2.06-.4-2.78-2.08-2.78a10.87,10.87,0,0,0-2.62.36l0,0a4.18,4.18,0,0,1,.09,1v6.07l.12.12h1.44v1.08h-4.8v-1.08h1.44l.12-.12V172c0-2.06-.41-2.78-2.09-2.78a11.8,11.8,0,0,0-2.54.33v7l.12.12h1.44v1.08H636v-1.08h1.44l.12-.12V170l-1.61-.77v-.12l2.91-1.49.14.07.19,1.37a6.75,6.75,0,0,1,3.36-1.44c1.54,0,2.43.53,2.81,1.54a7.06,7.06,0,0,1,3.5-1.54c2.09,0,3,1,3,2.81v6.07l.13.12Z"/><path d="M663.59,172.37H657c0,3.14,1.65,4.3,3.81,4.3a5.41,5.41,0,0,0,2.48-.61l.26.51A5.58,5.58,0,0,1,659.8,178a4.61,4.61,0,0,1-4.68-4.94c0-3.53,2.54-5.4,4.73-5.4a3.58,3.58,0,0,1,3.79,3.93A7.83,7.83,0,0,1,663.59,172.37ZM657,171.5h4.75c0-2-.79-2.9-2.09-2.9C658.53,168.6,657.26,169.34,657,171.5Z"/><path d="M676.65,176.64v1.08h-4.92v-1.08h1.56l.12-.12V172c0-2.06-.43-2.78-2.21-2.78a13.08,13.08,0,0,0-2.67.33v7l.12.12h1.56v1.08h-4.92v-1.08h1.45l.12-.12V170l-1.61-.77v-.12l2.9-1.48.14.07.2,1.37a7,7,0,0,1,3.48-1.42c2.16,0,3.12,1,3.12,2.81v6.07l.12.12Z"/><path d="M679.29,174.91v-5.69l-.12-.12h-1.44V169l3.12-4.1H681V168h3.24v1.08H681v4.49c0,2.43.36,3.24,1.75,3.24a4.59,4.59,0,0,0,1.58-.26l.27.5a5.14,5.14,0,0,1-2.76.89C680.1,178,679.29,177.19,679.29,174.91Z"/></g></g><g id="And_this_is_the_last" data-name="And this is the last" class="cls-105"><g class="cls-105"><path d="M447.08,360.64v1.08h-4.83v-1.08h1.15l.13-.12-1.47-4.27H436.8l-1.53,4.27.12.12h1.77v1.08h-5v-1.08h1.66l.12-.12L439.4,346h.91l5.25,14.52.13.12Zm-5.38-5.47-2.18-6.39h0l-2.28,6.39Z"/><path d="M459.84,360.64v1.08h-4.92v-1.08h1.56l.12-.12V356c0-2.06-.43-2.78-2.2-2.78a13,13,0,0,0-2.67.33v7l.12.12h1.56v1.08h-4.92v-1.08h1.44l.12-.12V354l-1.61-.77v-.12l2.91-1.48.14.07.19,1.37a7,7,0,0,1,3.48-1.42c2.16,0,3.12,1,3.12,2.81v6.07l.12.12Z"/><path d="M472.35,360.64v1.08H469v-1.15a7.57,7.57,0,0,1-3.72,1.39c-2.38,0-3.77-2.4-3.77-4.87,0-2.74,1.58-5.45,5-5.45a5.81,5.81,0,0,1,2.5.5v-5.3l-1.61-.77V346l3.14-1.51.15.07v16l.12.12Zm-3.36-.46v-6.09a2.89,2.89,0,0,0-2.74-1.49c-2.11,0-2.9,1.54-2.9,4,0,2.23.84,4,2.93,4A10.46,10.46,0,0,0,469,360.18Z"/><path d="M480.29,358.91v-5.69l-.12-.12h-1.44V353l3.12-4.1H482V352h3.24v1.08H482v4.49c0,2.43.36,3.24,1.75,3.24a4.65,4.65,0,0,0,1.59-.26l.26.5a5.12,5.12,0,0,1-2.76.89C481.11,362,480.29,361.19,480.29,358.91Z"/><path d="M498.1,360.64v1.08h-4.92v-1.08h1.56l.12-.12V356c0-2.06-.43-2.78-2.21-2.78a12.9,12.9,0,0,0-2.66.33v7l.12.12h1.56v1.08h-4.92v-1.08h1.44l.12-.12V346.84l-1.61-.77V346l3.14-1.51.15.07V353a6.93,6.93,0,0,1,3.43-1.39c2.16,0,3.12,1,3.12,2.81v6.07l.12.12Z"/><path d="M499.61,360.64h1.44l.12-.12V354l-1.61-.77v-.12l3.15-1.46.14.07v8.81l.12.12h1.44v1.08h-4.8Zm.91-12.79a1.31,1.31,0,1,1,1.32,1.29A1.33,1.33,0,0,1,500.52,347.85Z"/><path d="M506.16,361.38v-2.52h.12l1.2,1.32a2.74,2.74,0,0,0,1.92.87c1,0,1.66-.51,1.66-1.37,0-1.2-1.15-1.58-2.4-2.26-1.47-.79-2.35-1.63-2.35-3,0-1.61,1.29-2.76,3.4-2.76a7.06,7.06,0,0,1,2.55.46v2.44h-.12l-1.25-1.39a2.25,2.25,0,0,0-1.58-.62,1.38,1.38,0,0,0-1.56,1.34c0,1.13,1.12,1.66,2.25,2.26s2.55,1.37,2.55,3-1.49,2.81-3.32,2.81A8.44,8.44,0,0,1,506.16,361.38Z"/><path d="M519.51,360.64H521l.12-.12V354l-1.61-.77v-.12l3.14-1.46.15.07v8.81l.12.12h1.44v1.08h-4.8Zm.91-12.79a1.31,1.31,0,1,1,1.32,1.29A1.33,1.33,0,0,1,520.42,347.85Z"/><path d="M526.06,361.38v-2.52h.12l1.2,1.32a2.74,2.74,0,0,0,1.92.87c1,0,1.65-.51,1.65-1.37,0-1.2-1.15-1.58-2.4-2.26-1.46-.79-2.35-1.63-2.35-3,0-1.61,1.3-2.76,3.41-2.76a7,7,0,0,1,2.54.46v2.44H532l-1.24-1.39a2.3,2.3,0,0,0-1.59-.62,1.38,1.38,0,0,0-1.56,1.34c0,1.13,1.13,1.66,2.26,2.26s2.54,1.37,2.54,3S531,362,529.13,362A8.44,8.44,0,0,1,526.06,361.38Z"/><path d="M540.53,358.91v-5.69l-.12-.12H539V353l3.12-4.1h.12V352h3.24v1.08h-3.24v4.49c0,2.43.36,3.24,1.75,3.24a4.55,4.55,0,0,0,1.58-.26l.27.5a5.12,5.12,0,0,1-2.76.89C541.35,362,540.53,361.19,540.53,358.91Z"/><path d="M558.34,360.64v1.08h-4.92v-1.08H555l.12-.12V356c0-2.06-.44-2.78-2.21-2.78a13.08,13.08,0,0,0-2.67.33v7l.12.12h1.56v1.08H547v-1.08h1.44l.12-.12V346.84l-1.6-.77V346l3.14-1.51.14.07V353a7,7,0,0,1,3.44-1.39c2.16,0,3.12,1,3.12,2.81v6.07l.12.12Z"/><path d="M568.46,356.37h-6.62c0,3.14,1.66,4.3,3.82,4.3a5.37,5.37,0,0,0,2.47-.61l.26.51a5.56,5.56,0,0,1-3.72,1.39A4.61,4.61,0,0,1,560,357c0-3.53,2.55-5.4,4.73-5.4a3.58,3.58,0,0,1,3.79,3.93A7.83,7.83,0,0,1,568.46,356.37Zm-6.57-.87h4.75c0-2-.79-2.9-2.09-2.9C563.4,352.6,562.13,353.34,561.89,355.5Z"/><path d="M575.45,360.64h1.44l.12-.12V346.84l-1.61-.77V346l3.14-1.51.15.07v16l.12.12h1.56v1.08h-4.92Z"/><path d="M590.71,360.64v1.08h-3.24v-1A5.72,5.72,0,0,1,584.3,362a2.25,2.25,0,0,1-2.4-2.3c0-2.21,2.33-3,5.57-3.17v-.75c0-1.89-.43-2.8-2.18-2.8a4.84,4.84,0,0,0-2.79.91l-.31-.58a5.13,5.13,0,0,1,3.75-1.63,2.93,2.93,0,0,1,3.21,3.14v5.74l.12.12Zm-3.24-.34v-3c-2,.14-3.86.48-3.86,2.08,0,.94.65,1.37,1.56,1.37A7.37,7.37,0,0,0,587.47,360.3Z"/><path d="M592.46,361.38v-2.52h.12l1.2,1.32a2.74,2.74,0,0,0,1.92.87c1,0,1.66-.51,1.66-1.37,0-1.2-1.15-1.58-2.4-2.26-1.46-.79-2.35-1.63-2.35-3,0-1.61,1.29-2.76,3.41-2.76a7,7,0,0,1,2.54.46v2.44h-.12l-1.25-1.39a2.25,2.25,0,0,0-1.58-.62,1.38,1.38,0,0,0-1.56,1.34c0,1.13,1.13,1.66,2.25,2.26s2.55,1.37,2.55,3-1.49,2.81-3.31,2.81A8.53,8.53,0,0,1,592.46,361.38Z"/><path d="M601.66,358.91v-5.69l-.13-.12H600.1V353l3.12-4.1h.12V352h3.24v1.08h-3.24v4.49c0,2.43.35,3.24,1.75,3.24a4.59,4.59,0,0,0,1.58-.26l.27.5a5.17,5.17,0,0,1-2.76.89C602.47,362,601.66,361.19,601.66,358.91Z"/></g></g><line id="Line_9" data-name="Line 9" class="cls-106" x1="410.07" y1="175.22" x2="240.07" y2="227.22"/><line id="Line_10" data-name="Line 10" class="cls-106" x1="422.07" y1="350.22" x2="367.07" y2="328.22"/><g id="The_spokes_show_what_direction_the_dancer_moved_This_is_a_backward_movement" data-name="The spokes show what direction the dancer moved This is a backward movement" class="cls-105"><g class="cls-105"><path d="M71.52,582.64h1.8l.12-.12V569.2H69.6l-1.71,3h-.12v-4.08H81v4.08h-.14l-1.68-3H75.36v13.32l.12.12h1.8v1.08H71.52Z"/><path d="M94.39,582.64v1.08H89.47v-1.08H91l.12-.12V578c0-2.06-.43-2.78-2.21-2.78a12.9,12.9,0,0,0-2.66.33v7l.12.12H88v1.08H83v-1.08h1.45l.12-.12V568.84L83,568.07V568l3.14-1.51.15.07V575a6.93,6.93,0,0,1,3.43-1.39c2.16,0,3.12,1,3.12,2.81v6.07l.12.12Z"/><path d="M104.52,578.37H97.89c0,3.14,1.66,4.3,3.82,4.3a5.25,5.25,0,0,0,2.47-.61l.26.51a5.56,5.56,0,0,1-3.72,1.39A4.61,4.61,0,0,1,96,579c0-3.53,2.55-5.4,4.73-5.4a3.58,3.58,0,0,1,3.79,3.93C104.56,577.82,104.54,578.08,104.52,578.37Zm-6.58-.87h4.75c0-2-.79-2.9-2.09-2.9C99.45,574.6,98.18,575.34,97.94,577.5Z"/><path d="M111.74,583.39v-2.53h.12l1.2,1.33a2.77,2.77,0,0,0,1.92.86c1,0,1.66-.5,1.66-1.37,0-1.2-1.16-1.58-2.4-2.25-1.47-.8-2.36-1.64-2.36-3,0-1.61,1.3-2.76,3.41-2.76a7.06,7.06,0,0,1,2.55.46v2.44h-.12l-1.25-1.39a2.28,2.28,0,0,0-1.59-.62,1.38,1.38,0,0,0-1.56,1.34c0,1.13,1.13,1.66,2.26,2.26s2.54,1.37,2.54,3-1.48,2.81-3.31,2.81A8.66,8.66,0,0,1,111.74,583.39Z"/><path d="M130.39,578.51c0,2.74-1.83,5.45-5,5.45a5.09,5.09,0,0,1-2.45-.57V588l.12.12h1.8v1.08h-5.16v-1.08h1.44l.12-.12V576l-1.61-.77v-.12l2.9-1.48.15.07.21,1.37a6.73,6.73,0,0,1,3.65-1.42C129,573.64,130.39,576,130.39,578.51Zm-1.85.53c0-2.23-.84-4-2.93-4a9.49,9.49,0,0,0-2.66.43v6a2.82,2.82,0,0,0,2.68,1.49C127.51,583,128.54,581.47,128.54,579Z"/><path d="M132.31,579a5,5,0,0,1,5.06-5.35,4.62,4.62,0,0,1,4.78,5,5,5,0,0,1-5,5.35A4.62,4.62,0,0,1,132.31,579Zm8,.22c0-2.64-1.42-4.61-3.29-4.61-1.59,0-2.84,1.18-2.84,3.77s1.35,4.63,3.29,4.63C139.1,583,140.28,581.78,140.28,579.21Z"/><path d="M147.28,582.64h1.44v1.08h-4.8v-1.08h1.44l.12-.12V568.84l-1.61-.77V568l3.15-1.51.14.07v16Zm7.37,0v1.08h-2.86l-4.43-5.35,3.64-3-1.39-1.25V574h4.78v.08L149.06,578c.5.53,4.15,4.63,4.15,4.63Z"/><path d="M164,578.37h-6.62c0,3.14,1.66,4.3,3.82,4.3a5.25,5.25,0,0,0,2.47-.61l.26.51a5.58,5.58,0,0,1-3.72,1.39,4.61,4.61,0,0,1-4.68-4.94c0-3.53,2.55-5.4,4.73-5.4a3.58,3.58,0,0,1,3.79,3.93A7.83,7.83,0,0,1,164,578.37Zm-6.57-.87h4.75c-.05-2-.79-2.9-2.09-2.9S157.7,575.34,157.46,577.5Z"/><path d="M166,583.39v-2.53h.12l1.2,1.33a2.77,2.77,0,0,0,1.92.86c1,0,1.65-.5,1.65-1.37,0-1.2-1.15-1.58-2.4-2.25-1.46-.8-2.35-1.64-2.35-3,0-1.61,1.3-2.76,3.41-2.76a7,7,0,0,1,2.54.46v2.44H172l-1.24-1.39a2.3,2.3,0,0,0-1.59-.62,1.38,1.38,0,0,0-1.56,1.34c0,1.13,1.13,1.66,2.26,2.26s2.54,1.37,2.54,3-1.49,2.81-3.31,2.81A8.66,8.66,0,0,1,166,583.39Z"/><path d="M179.56,583.39v-2.53h.12l1.2,1.33a2.77,2.77,0,0,0,1.92.86c1,0,1.66-.5,1.66-1.37,0-1.2-1.15-1.58-2.4-2.25-1.47-.8-2.35-1.64-2.35-3,0-1.61,1.29-2.76,3.4-2.76a7.06,7.06,0,0,1,2.55.46v2.44h-.12l-1.25-1.39a2.25,2.25,0,0,0-1.58-.62,1.38,1.38,0,0,0-1.56,1.34c0,1.13,1.12,1.66,2.25,2.26s2.55,1.37,2.55,3-1.49,2.81-3.32,2.81A8.66,8.66,0,0,1,179.56,583.39Z"/><path d="M199,582.64v1.08h-4.92v-1.08h1.56l.12-.12V578c0-2.06-.43-2.78-2.21-2.78a12.9,12.9,0,0,0-2.66.33v7l.12.12h1.56v1.08h-4.92v-1.08h1.44l.12-.12V568.84l-1.61-.77V568l3.14-1.51.15.07V575a6.93,6.93,0,0,1,3.43-1.39c2.16,0,3.12,1,3.12,2.81v6.07l.12.12Z"/><path d="M200.63,579a5,5,0,0,1,5.07-5.35,4.61,4.61,0,0,1,4.77,5,5,5,0,0,1-5,5.35A4.63,4.63,0,0,1,200.63,579Zm8,.22c0-2.64-1.41-4.61-3.29-4.61-1.58,0-2.83,1.18-2.83,3.77s1.35,4.63,3.29,4.63C207.43,583,208.6,581.78,208.6,579.21Z"/><path d="M227,574v.08l-1.36,1.12L222.28,584h-.79l-2.18-5.64L217,584h-.77l-3.74-8.74-1.4-1.08V574h5v.08l-1.64,1.12,2.57,6.41h.1l1.8-4.37-1-2.61,1.66-.87,2.68,7.85h.1l2.26-6.43-1.73-1.1V574Z"/><path d="M248,574v.08l-1.36,1.12L243.28,584h-.79l-2.18-5.64L238,584h-.77l-3.75-8.74-1.39-1.08V574h5v.08l-1.64,1.12,2.57,6.41h.1l1.8-4.37-1-2.61,1.66-.87,2.68,7.85h.1l2.26-6.43-1.73-1.1V574Z"/><path d="M260.08,582.64v1.08h-4.92v-1.08h1.56l.12-.12V578c0-2.06-.43-2.78-2.21-2.78a13,13,0,0,0-2.66.33v7l.12.12h1.56v1.08h-4.92v-1.08h1.44l.12-.12V568.84l-1.61-.77V568l3.14-1.51.15.07V575a7,7,0,0,1,3.43-1.39c2.16,0,3.12,1,3.12,2.81v6.07l.12.12Z"/><path d="M270.43,582.64v1.08h-3.24v-1A5.67,5.67,0,0,1,264,584a2.24,2.24,0,0,1-2.4-2.3c0-2.21,2.32-3,5.57-3.17v-.75c0-1.89-.44-2.8-2.19-2.8a4.84,4.84,0,0,0-2.78.91l-.32-.58a5.13,5.13,0,0,1,3.75-1.63,2.93,2.93,0,0,1,3.21,3.14v5.74l.13.12Zm-3.24-.33v-3c-2.05.14-3.87.48-3.87,2.09,0,.93.65,1.36,1.56,1.36A7.47,7.47,0,0,0,267.19,582.31Z"/><path d="M273.07,580.91v-5.69l-.13-.12h-1.43V575l3.11-4.1h.13V574H278v1.08h-3.24v4.49c0,2.43.36,3.24,1.75,3.24a4.59,4.59,0,0,0,1.58-.26l.27.5a5.17,5.17,0,0,1-2.76.89C273.88,584,273.07,583.19,273.07,580.91Z"/><path d="M295.79,582.64v1.08h-3.36v-1.15a7.5,7.5,0,0,1-3.72,1.39c-2.37,0-3.77-2.4-3.77-4.87,0-2.74,1.59-5.45,5-5.45a5.8,5.8,0,0,1,2.49.5v-5.3l-1.6-.77V568l3.14-1.51.14.07v16l.12.12Zm-3.36-.45v-6.1a2.87,2.87,0,0,0-2.73-1.49c-2.12,0-2.91,1.54-2.91,4,0,2.23.84,4,2.93,4A10.78,10.78,0,0,0,292.43,582.19Z"/><path d="M297.33,582.64h1.44l.12-.12V576l-1.61-.77v-.12l3.14-1.46.15.07v8.81l.12.12h1.44v1.08h-4.8Zm.91-12.79a1.31,1.31,0,1,1,1.32,1.29A1.33,1.33,0,0,1,298.24,569.85Z"/><path d="M310.62,573.81v1.75a6.3,6.3,0,0,0-1.22-.12,11.18,11.18,0,0,0-2.52.34v6.74l.12.12h1.8v1.08h-5.16v-1.08h1.44l.12-.12V576l-1.61-.77v-.12l2.91-1.48.14.07.24,1.63c1-.74,2.35-1.68,3.14-1.68A1,1,0,0,1,310.62,573.81Z"/><path d="M320.13,578.37H313.5c0,3.14,1.66,4.3,3.82,4.3a5.25,5.25,0,0,0,2.47-.61l.27.51a5.6,5.6,0,0,1-3.72,1.39,4.61,4.61,0,0,1-4.68-4.94c0-3.53,2.54-5.4,4.72-5.4a3.58,3.58,0,0,1,3.8,3.93C320.18,577.82,320.15,578.08,320.13,578.37Zm-6.58-.87h4.75c0-2-.79-2.9-2.08-2.9S313.79,575.34,313.55,577.5Z"/><path d="M322,579.09c0-3.51,2.37-5.45,5.08-5.45a6.23,6.23,0,0,1,2.64.53V577h-.12l-1.41-1.8a2.37,2.37,0,0,0-1.66-.58c-1.73,0-2.69,1.49-2.69,3.7,0,3.07,1.52,4.35,3.56,4.35a5.25,5.25,0,0,0,2.47-.61l.26.51a5.31,5.31,0,0,1-3.6,1.39C323.46,584,322,581.7,322,579.09Z"/><path d="M332.78,580.91v-5.69l-.12-.12h-1.45V575l3.13-4.1h.12V574h3.24v1.08h-3.24v4.49c0,2.43.36,3.24,1.75,3.24a4.59,4.59,0,0,0,1.58-.26l.27.5a5.17,5.17,0,0,1-2.76.89C333.59,584,332.78,583.19,332.78,580.91Z"/><path d="M339.23,582.64h1.44l.12-.12V576l-1.61-.77v-.12l3.15-1.46.14.07v8.81l.12.12H344v1.08h-4.8Zm.91-12.79a1.31,1.31,0,1,1,1.32,1.29A1.33,1.33,0,0,1,340.14,569.85Z"/><path d="M345.69,579a5,5,0,0,1,5.06-5.35,4.62,4.62,0,0,1,4.78,5,5,5,0,0,1-5,5.35A4.62,4.62,0,0,1,345.69,579Zm8,.22c0-2.64-1.42-4.61-3.29-4.61-1.59,0-2.84,1.18-2.84,3.77s1.35,4.63,3.29,4.63C352.48,583,353.66,581.78,353.66,579.21Z"/><path d="M368.66,582.64v1.08h-4.92v-1.08h1.55l.13-.12V578c0-2.06-.44-2.78-2.21-2.78a13,13,0,0,0-2.67.33v7l.12.12h1.56v1.08H357.3v-1.08h1.44l.12-.12V576l-1.61-.77v-.12l2.91-1.48.14.07.19,1.37a7,7,0,0,1,3.49-1.42c2.16,0,3.12,1,3.12,2.81v6.07l.12.12Z"/><path d="M376.57,580.91v-5.69l-.12-.12H375V575l3.12-4.1h.12V574h3.24v1.08h-3.24v4.49c0,2.43.36,3.24,1.76,3.24a4.59,4.59,0,0,0,1.58-.26l.27.5a5.18,5.18,0,0,1-2.77.89C377.39,584,376.57,583.19,376.57,580.91Z"/><path d="M394.38,582.64v1.08h-4.92v-1.08H391l.12-.12V578c0-2.06-.43-2.78-2.2-2.78a13,13,0,0,0-2.67.33v7l.12.12H388v1.08H383v-1.08h1.44l.12-.12V568.84l-1.61-.77V568l3.15-1.51.14.07V575a7,7,0,0,1,3.43-1.39c2.16,0,3.12,1,3.12,2.81v6.07l.12.12Z"/><path d="M404.51,578.37h-6.62c0,3.14,1.65,4.3,3.81,4.3a5.25,5.25,0,0,0,2.47-.61l.27.51a5.58,5.58,0,0,1-3.72,1.39A4.61,4.61,0,0,1,396,579c0-3.53,2.54-5.4,4.73-5.4a3.58,3.58,0,0,1,3.79,3.93C404.56,577.82,404.53,578.08,404.51,578.37Zm-6.58-.87h4.76c-.05-2-.8-2.9-2.09-2.9S398.17,575.34,397.93,577.5Z"/><path d="M422.49,582.64v1.08h-3.36v-1.15a7.57,7.57,0,0,1-3.72,1.39c-2.38,0-3.77-2.4-3.77-4.87,0-2.74,1.58-5.45,5-5.45a5.81,5.81,0,0,1,2.5.5v-5.3l-1.61-.77V568l3.14-1.51.15.07v16l.12.12Zm-3.36-.45v-6.1a2.89,2.89,0,0,0-2.74-1.49c-2.11,0-2.9,1.54-2.9,4,0,2.23.84,4,2.92,4A10.93,10.93,0,0,0,419.13,582.19Z"/><path d="M432.85,582.64v1.08h-3.24v-1a5.62,5.62,0,0,1-3.17,1.22,2.25,2.25,0,0,1-2.4-2.3c0-2.21,2.33-3,5.57-3.17v-.75c0-1.89-.43-2.8-2.18-2.8a4.87,4.87,0,0,0-2.79.91l-.31-.58a5.13,5.13,0,0,1,3.75-1.63,2.93,2.93,0,0,1,3.21,3.14v5.74l.12.12Zm-3.24-.33v-3c-2,.14-3.86.48-3.86,2.09,0,.93.65,1.36,1.56,1.36A7.36,7.36,0,0,0,429.61,582.31Z"/><path d="M445.72,582.64v1.08H440.8v-1.08h1.56l.12-.12V578c0-2.06-.43-2.78-2.21-2.78a12.9,12.9,0,0,0-2.66.33v7l.12.12h1.55v1.08h-4.92v-1.08h1.45l.12-.12V576l-1.61-.77v-.12l2.9-1.48.14.07.2,1.37a7,7,0,0,1,3.48-1.42c2.16,0,3.12,1,3.12,2.81v6.07l.12.12Z"/><path d="M447.37,579.09c0-3.51,2.38-5.45,5.09-5.45a6.26,6.26,0,0,1,2.64.53V577H455l-1.41-1.8a2.37,2.37,0,0,0-1.66-.58c-1.73,0-2.69,1.49-2.69,3.7,0,3.07,1.51,4.35,3.55,4.35a5.29,5.29,0,0,0,2.48-.61l.26.51a5.31,5.31,0,0,1-3.6,1.39C448.86,584,447.37,581.7,447.37,579.09Z"/><path d="M465.54,578.37h-6.62c0,3.14,1.65,4.3,3.81,4.3a5.29,5.29,0,0,0,2.48-.61l.26.51a5.58,5.58,0,0,1-3.72,1.39,4.61,4.61,0,0,1-4.68-4.94c0-3.53,2.54-5.4,4.73-5.4a3.58,3.58,0,0,1,3.79,3.93A7.83,7.83,0,0,1,465.54,578.37ZM459,577.5h4.75c-.05-2-.79-2.9-2.09-2.9C460.48,574.6,459.2,575.34,459,577.5Z"/><path d="M474.23,573.81v1.75a6.3,6.3,0,0,0-1.22-.12,11.11,11.11,0,0,0-2.52.34v6.74l.12.12h1.8v1.08h-5.16v-1.08h1.44l.11-.12V576l-1.6-.77v-.12l2.9-1.48.15.07.24,1.63c1-.74,2.35-1.68,3.14-1.68A1.09,1.09,0,0,1,474.23,573.81Z"/><path d="M497.82,582.64v1.08H493v-1.08h1.44l.12-.12V578c0-2.06-.41-2.78-2.09-2.78a10.86,10.86,0,0,0-2.61.36l0,0a3.68,3.68,0,0,1,.1,1v6.07l.12.12h1.44v1.08h-4.8v-1.08h1.44l.12-.12V578c0-2.06-.41-2.78-2.09-2.78a11.8,11.8,0,0,0-2.54.33v7l.12.12h1.44v1.08h-4.8v-1.08h1.44l.12-.12V576l-1.61-.77v-.12l2.9-1.49.15.07.19,1.37a6.72,6.72,0,0,1,3.36-1.44c1.53,0,2.42.53,2.81,1.54a7.06,7.06,0,0,1,3.5-1.54c2.09,0,3,1,3,2.81v6.07l.12.12Z"/><path d="M499.48,579a5,5,0,0,1,5.06-5.35,4.62,4.62,0,0,1,4.78,5,5,5,0,0,1-5,5.35A4.62,4.62,0,0,1,499.48,579Zm8,.22c0-2.64-1.41-4.61-3.28-4.61-1.59,0-2.84,1.18-2.84,3.77s1.35,4.63,3.29,4.63C506.27,583,507.44,581.78,507.44,579.21Z"/><path d="M511.26,575.22l-1.34-1.08V574h4.94v.08l-1.56,1.12,2.69,6.39h.09l2.76-6.39-1.7-1.08V574h4v.08l-1.2,1.12L516.06,584h-.82Z"/><path d="M530.12,578.37H523.5c0,3.14,1.66,4.3,3.82,4.3a5.25,5.25,0,0,0,2.47-.61l.26.51a5.58,5.58,0,0,1-3.72,1.39,4.61,4.61,0,0,1-4.68-4.94c0-3.53,2.54-5.4,4.73-5.4a3.58,3.58,0,0,1,3.79,3.93A7.83,7.83,0,0,1,530.12,578.37Zm-6.57-.87h4.75c0-2-.79-2.9-2.09-2.9S523.79,575.34,523.55,577.5Z"/><path d="M542.82,582.64v1.08h-3.36v-1.15a7.57,7.57,0,0,1-3.72,1.39c-2.38,0-3.77-2.4-3.77-4.87,0-2.74,1.59-5.45,5-5.45a5.81,5.81,0,0,1,2.5.5v-5.3l-1.61-.77V568l3.15-1.51.14.07v16l.12.12Zm-3.36-.45v-6.1a2.87,2.87,0,0,0-2.74-1.49c-2.11,0-2.9,1.54-2.9,4,0,2.23.84,4,2.93,4A10.78,10.78,0,0,0,539.46,582.19Z"/></g><g class="cls-105"><path d="M71.52,616.24h1.8l.12-.12V602.8H69.6l-1.71,3h-.12v-4.08H81v4.08h-.14l-1.68-3H75.36v13.32l.12.12h1.8v1.08H71.52Z"/><path d="M94.39,616.24v1.08H89.47v-1.08H91l.12-.12v-4.56c0-2.06-.43-2.78-2.21-2.78a12.9,12.9,0,0,0-2.66.33v7l.12.12H88v1.08H83v-1.08h1.45l.12-.12V602.44L83,601.67v-.12L86.13,600l.15.07v8.52a6.93,6.93,0,0,1,3.43-1.39c2.16,0,3.12,1,3.12,2.81v6.07l.12.12Z"/><path d="M95.9,616.24h1.44l.12-.12v-6.53l-1.61-.77v-.12L99,607.24l.14.07v8.81l.12.12h1.44v1.08H95.9Zm.91-12.79a1.31,1.31,0,1,1,1.32,1.29A1.33,1.33,0,0,1,96.81,603.45Z"/><path d="M102.45,617v-2.52h.12l1.2,1.32a2.74,2.74,0,0,0,1.92.87c1,0,1.66-.5,1.66-1.37,0-1.2-1.16-1.58-2.4-2.26-1.47-.79-2.35-1.63-2.35-3,0-1.61,1.29-2.76,3.4-2.76a7.06,7.06,0,0,1,2.55.46v2.44h-.12l-1.25-1.39a2.27,2.27,0,0,0-1.58-.62c-1,0-1.57.55-1.57,1.34,0,1.13,1.13,1.66,2.26,2.26s2.55,1.37,2.55,3-1.49,2.81-3.32,2.81A8.44,8.44,0,0,1,102.45,617Z"/><path d="M115.79,616.24h1.44l.12-.12v-6.53l-1.6-.77v-.12l3.14-1.46.14.07v8.81l.12.12h1.45v1.08h-4.81Zm.92-12.79a1.31,1.31,0,1,1,1.32,1.29A1.33,1.33,0,0,1,116.71,603.45Z"/><path d="M122.35,617v-2.52h.12l1.2,1.32a2.73,2.73,0,0,0,1.92.87c1,0,1.65-.5,1.65-1.37,0-1.2-1.15-1.58-2.4-2.26-1.46-.79-2.35-1.63-2.35-3,0-1.61,1.3-2.76,3.41-2.76a7,7,0,0,1,2.54.46v2.44h-.12l-1.25-1.39a2.25,2.25,0,0,0-1.58-.62,1.38,1.38,0,0,0-1.56,1.34c0,1.13,1.13,1.66,2.26,2.26s2.54,1.37,2.54,3-1.49,2.81-3.31,2.81A8.44,8.44,0,0,1,122.35,617Z"/><path d="M144.52,616.24v1.08h-3.24v-1a5.72,5.72,0,0,1-3.17,1.22,2.25,2.25,0,0,1-2.4-2.3c0-2.21,2.33-3,5.57-3.17v-.75c0-1.89-.43-2.8-2.18-2.8a4.84,4.84,0,0,0-2.79.91l-.31-.58a5.13,5.13,0,0,1,3.75-1.63,2.93,2.93,0,0,1,3.21,3.14v5.74l.12.12Zm-3.24-.34v-3c-2,.14-3.86.48-3.86,2.08,0,.94.65,1.37,1.56,1.37A7.09,7.09,0,0,0,141.28,615.9Z"/><path d="M161.63,612.11c0,2.79-1.58,5.45-5.18,5.45a9.59,9.59,0,0,1-3.91-.79V602.44l-1.61-.77v-.12l3.14-1.51.15.07v8.47a7.51,7.51,0,0,1,3.65-1.34C160.24,607.24,161.63,609.64,161.63,612.11Zm-1.84.53c0-2.23-.84-4-2.93-4a10.56,10.56,0,0,0-2.64.33v6.65a3.31,3.31,0,0,0,2.54,1C158.87,616.6,159.79,615.19,159.79,612.64Z"/><path d="M172.12,616.24v1.08h-3.24v-1a5.72,5.72,0,0,1-3.17,1.22,2.25,2.25,0,0,1-2.4-2.3c0-2.21,2.33-3,5.57-3.17v-.75c0-1.89-.43-2.8-2.18-2.8a4.84,4.84,0,0,0-2.79.91l-.31-.58a5.13,5.13,0,0,1,3.75-1.63,2.93,2.93,0,0,1,3.21,3.14v5.74l.12.12Zm-3.24-.34v-3c-2,.14-3.86.48-3.86,2.08,0,.94.65,1.37,1.56,1.37A7.09,7.09,0,0,0,168.88,615.9Z"/><path d="M173.78,612.69c0-3.51,2.37-5.45,5.09-5.45a6.26,6.26,0,0,1,2.64.53v2.83h-.12L180,608.8a2.35,2.35,0,0,0-1.66-.58c-1.72,0-2.68,1.49-2.68,3.7,0,3.07,1.51,4.35,3.55,4.35a5.37,5.37,0,0,0,2.47-.61l.26.51a5.31,5.31,0,0,1-3.6,1.39C175.27,617.56,173.78,615.3,173.78,612.69Z"/><path d="M186.81,616.24h1.44v1.08h-4.8v-1.08h1.44l.12-.12V602.44l-1.61-.77v-.12l3.14-1.51.15.07v16Zm7.37,0v1.08h-2.86L186.88,612l3.65-3-1.39-1.25v-.12h4.77v.08l-5.32,3.91c.5.53,4.15,4.63,4.15,4.63Z"/><path d="M210.57,607.62v.08l-1.37,1.12-3.38,8.74H205l-2.19-5.64-2.33,5.64h-.76L196,608.82l-1.39-1.08v-.12h5v.08L198,608.82l2.57,6.41h.09l1.8-4.37-1-2.61,1.65-.87,2.69,7.85h.1l2.25-6.43-1.73-1.1v-.08Z"/><path d="M220,616.24v1.08h-3.24v-1a5.72,5.72,0,0,1-3.17,1.22,2.24,2.24,0,0,1-2.4-2.3c0-2.21,2.33-3,5.57-3.17v-.75c0-1.89-.43-2.8-2.19-2.8a4.84,4.84,0,0,0-2.78.91l-.31-.58a5.1,5.1,0,0,1,3.74-1.63,2.93,2.93,0,0,1,3.22,3.14v5.74l.12.12Zm-3.24-.34v-3c-2,.14-3.87.48-3.87,2.08,0,.94.65,1.37,1.56,1.37A7.1,7.1,0,0,0,216.74,615.9Z"/><path d="M228.47,607.41v1.75a6.3,6.3,0,0,0-1.22-.12,11.18,11.18,0,0,0-2.52.34v6.74l.12.12h1.8v1.08h-5.16v-1.08h1.44l.12-.12v-6.53l-1.61-.77v-.12l2.91-1.48.14.07.24,1.63c1-.74,2.35-1.68,3.14-1.68A1,1,0,0,1,228.47,607.41Z"/><path d="M240.35,616.24v1.08H237v-1.15a7.5,7.5,0,0,1-3.72,1.39c-2.37,0-3.76-2.4-3.76-4.87,0-2.74,1.58-5.45,5-5.45a5.73,5.73,0,0,1,2.49.5v-5.3l-1.6-.77v-.12l3.14-1.51.14.07v16l.12.12Zm-3.36-.46v-6.09a2.87,2.87,0,0,0-2.73-1.49c-2.11,0-2.91,1.54-2.91,4,0,2.23.84,4,2.93,4A10.31,10.31,0,0,0,237,615.78Z"/><path d="M264.59,616.24v1.08h-4.8v-1.08h1.44l.12-.12v-4.56c0-2.06-.4-2.78-2.08-2.78a10.87,10.87,0,0,0-2.62.36l0,0a4.18,4.18,0,0,1,.09,1v6.07l.12.12h1.44v1.08h-4.8v-1.08h1.44l.12-.12v-4.56c0-2.06-.41-2.78-2.09-2.78a11.8,11.8,0,0,0-2.54.33v7l.12.12H252v1.08h-4.8v-1.08h1.44l.12-.12v-6.5l-1.61-.77v-.12l2.91-1.49.14.07.19,1.37a6.72,6.72,0,0,1,3.36-1.44c1.54,0,2.43.53,2.81,1.54a7.06,7.06,0,0,1,3.5-1.54c2.09,0,3,1,3,2.81v6.07l.12.12Z"/><path d="M266.25,612.59a5,5,0,0,1,5.06-5.35,4.61,4.61,0,0,1,4.78,5,5,5,0,0,1-5,5.35A4.62,4.62,0,0,1,266.25,612.59Zm8,.22c0-2.64-1.42-4.61-3.29-4.61-1.59,0-2.83,1.18-2.83,3.77s1.34,4.63,3.28,4.63C273,616.6,274.22,615.38,274.22,612.81Z"/><path d="M278,608.82l-1.34-1.08v-.12h4.94v.08l-1.56,1.12,2.69,6.39h.1l2.76-6.39-1.71-1.08v-.12h4v.08l-1.2,1.12-3.91,8.74H282Z"/><path d="M296.9,612h-6.63c0,3.14,1.66,4.3,3.82,4.3a5.37,5.37,0,0,0,2.47-.61l.26.51a5.55,5.55,0,0,1-3.71,1.39,4.61,4.61,0,0,1-4.69-4.94c0-3.53,2.55-5.4,4.73-5.4a3.58,3.58,0,0,1,3.79,3.93C296.94,611.42,296.92,611.68,296.9,612Zm-6.58-.87h4.75c0-2-.79-2.9-2.09-2.9S290.56,608.94,290.32,611.1Z"/><path d="M316,616.24v1.08h-4.81v-1.08h1.45l.11-.12v-4.56c0-2.06-.4-2.78-2.08-2.78a10.87,10.87,0,0,0-2.62.36l0,0a4.18,4.18,0,0,1,.09,1v6.07l.12.12h1.44v1.08h-4.8v-1.08h1.44l.12-.12v-4.56c0-2.06-.41-2.78-2.09-2.78a11.8,11.8,0,0,0-2.54.33v7l.12.12h1.44v1.08h-4.8v-1.08H300l.12-.12v-6.5l-1.61-.77v-.12l2.91-1.49.14.07.19,1.37a6.75,6.75,0,0,1,3.36-1.44c1.54,0,2.43.53,2.81,1.54a7.1,7.1,0,0,1,3.5-1.54c2.09,0,3,1,3,2.81v6.07l.12.12Z"/><path d="M326.15,612h-6.62c0,3.14,1.65,4.3,3.81,4.3a5.41,5.41,0,0,0,2.48-.61l.26.51a5.58,5.58,0,0,1-3.72,1.39,4.61,4.61,0,0,1-4.68-4.94c0-3.53,2.54-5.4,4.73-5.4a3.58,3.58,0,0,1,3.79,3.93A7.83,7.83,0,0,1,326.15,612Zm-6.57-.87h4.75c-.05-2-.79-2.9-2.09-2.9S319.82,608.94,319.58,611.1Z"/><path d="M339.21,616.24v1.08h-4.92v-1.08h1.56l.12-.12v-4.56c0-2.06-.43-2.78-2.21-2.78a12.9,12.9,0,0,0-2.66.33v7l.12.12h1.56v1.08h-4.92v-1.08h1.44l.12-.12v-6.53l-1.61-.77v-.12l2.9-1.48.15.07.19,1.37a7,7,0,0,1,3.48-1.42c2.16,0,3.12,1,3.12,2.81v6.07l.12.12Z"/><path d="M341.85,614.51v-5.69l-.12-.12h-1.44v-.12l3.12-4.1h.12v3.14h3.24v1.08h-3.24v4.49c0,2.43.36,3.24,1.75,3.24a4.59,4.59,0,0,0,1.58-.26l.27.5a5.14,5.14,0,0,1-2.76.89C342.66,617.56,341.85,616.79,341.85,614.51Z"/></g></g><line id="Line_11" data-name="Line 11" class="cls-106" x1="195.07" y1="559.22" x2="195.07" y2="519.22"/><path id="Polygon_5" data-name="Polygon 5" d="M363,326.05l15.83-1.43L373,338.44Z"/><path id="Polygon_6" data-name="Polygon 6" d="M194.47,511.79l7.5,14H187Z"/><path id="Polygon_7" data-name="Polygon 7" d="M237.89,228.19l10.59-11.84,5.14,14.1Z"/></g></g></svg>