<svg xmlns="http://www.w3.org/2000/svg" viewBox="0 0 75 75"><defs><style>.cls-1{isolation:isolate;}.cls-2{fill:#f4ecdb;}</style></defs><title>Asset 39HOW</title><g id="Layer_2" data-name="Layer 2"><g id="Layer_1-2" data-name="Layer 1"><path id="Path_5666" data-name="Path 5666" d="M37.5,0A37.5,37.5,0,1,1,0,37.5,37.5,37.5,0,0,1,37.5,0Z"/><g class="cls-1"><path class="cls-2" d="M20.38,42.31H17.56V29.94h2.82v4.93h4V29.94h2.82V42.31H24.37v-5h-4Z"/><path class="cls-2" d="M34.67,29.71a6.42,6.42,0,0,1,0,12.83,6.16,6.16,0,0,1-6.24-6.42A6.31,6.31,0,0,1,34.67,29.71Zm0,10.1c2.25,0,3.18-1.85,3.18-3.69s-1-3.69-3.18-3.69-3.19,1.84-3.19,3.69S32.36,39.81,34.67,39.81Z"/><path class="cls-2" d="M49.18,35.37l-2,6.94H44.06L40.54,29.94h3.13l2.12,8.49h.07l2.25-8.49h2.13l2.25,8.49h.08l2.11-8.49H57.8L54.28,42.31H51.16Z"/></g></g></g></svg>