<svg xmlns="http://www.w3.org/2000/svg" viewBox="0 0 870.65 530.84"><title>Asset 80intro-p-123</title><g id="Layer_2" data-name="Layer 2"><g id="Layer_1-2" data-name="Layer 1"><path d="M48.29,3.36v.72L44,7,33.7,34.56H31.44L24.87,16.13,17.28,34.56H15.07L4.56,7,.24,4.08V3.36H15.36v.72L11,7l6.67,18.87h.2l5.28-14.4L20.31,3.36h6.43l7.15,22.47h.19L40.18,7,35.86,4.08V3.36Z"/><path d="M72.91,31.49v3.07H62.59V31.49h2.16l.24-.24V22.71c0-3.84-1.1-4.9-3.84-4.9a14.59,14.59,0,0,0-3.69.58V31.25l.24.24h2.16v3.07H49.54V31.49H51.7l.24-.24V6.34L48.86,4.42V3.84L56.79,0l.67.34V16.47c2.73-1.78,4.7-2.79,7.25-2.79,3.4,0,5.8,1.68,5.8,5.62v12l.24.24Z"/><path d="M93.7,31.49v3.07H85.78V32.88a10.84,10.84,0,0,1-6,2.21c-2.31,0-4.76-1.2-4.76-4.75s2.4-6.39,10.71-7.25v-.86c0-3.27-1.11-4.95-3.89-4.95a9.41,9.41,0,0,0-5,1.78l-.91-1.83a11.26,11.26,0,0,1,8.3-3.55c5,0,7.06,2.88,7.06,8.21v9.36l.24.24Zm-7.92-.29V25.44C82,25.78,80.5,26.83,80.45,29c0,1.82,1.1,2.63,2.73,2.63A10.45,10.45,0,0,0,85.78,31.2Z"/><path d="M97.78,28.75v-11l-.24-.24H94.85v-.62l7.82-8.16h.63V14.4h6.38v3.07H103.3v9c0,3.84.72,5.18,2.64,5.18a8.35,8.35,0,0,0,3.55-1.05l.91,1.68A11.33,11.33,0,0,1,103.2,35C99.74,35,97.78,33.36,97.78,28.75Z"/><path d="M154.42,14.4V15l-3.08,2.68L143.9,35h-2.11l-4-10.32L132,35h-2l-7.68-17.33-2.93-2.64V14.4h11.81V15l-2.88,2.68L132.53,28h.24l3.69-6.68-2.3-5.9,5.42-1.59L144,27.7h.24l3.74-10L145.06,15V14.4Z"/><path d="M154.17,24.87c0-6.34,4.23-11.19,10.47-11.19,5.62,0,9.89,3.89,9.89,10.42S170.16,35,164.06,35C158.21,35,154.17,31,154.17,24.87Zm14.5,1.1c0-5.47-2.11-9.31-5-9.31-2.26,0-3.65,2.3-3.65,6.24,0,5.47,2.11,9.31,5,9.31C167.28,32.21,168.67,29.91,168.67,26Z"/><path d="M200,31.49v3.07H192.1V31.68c-2.36,2-4.28,3.36-7.06,3.36-3.6,0-5.52-2-5.52-5.66V20l-3.07-1.92v-.58l7.92-3.84L185,14V26.35c0,3.41,1.1,4.47,3.74,4.47a12,12,0,0,0,3.32-.48V19.68L189,17.76v-.57l7.92-3.84.68.33V31.25l.19.24Z"/><path d="M202.17,31.49h2.16l.24-.24V6.34L201.5,4.42V3.84L209.42,0l.67.34V31.25l.24.24h2.17v3.07H202.17Z"/><path d="M237.17,31.49v3.07h-7.92V32.07c-2.31,1.72-4.08,3-6.53,3-4.61,0-7.44-4.41-7.44-9.84,0-6.57,4.32-11.52,10.37-11.52a8.64,8.64,0,0,1,3.6.72V6.34l-3.08-1.92V3.84l8-3.84.63.34V31.25l.24.24Zm-7.92-1V19.06a4.19,4.19,0,0,0-3.75-2.5c-2.83,0-4.37,2.59-4.37,7.11,0,4.8,1.88,7.25,5.09,7.25A12.37,12.37,0,0,0,229.25,30.48Z"/><path d="M248.83,24.87c0-6.29,4.17-11.19,10.89-11.19a16.41,16.41,0,0,1,5.62,1.06v7.73h-.62l-3.65-4.9a3.91,3.91,0,0,0-2.64-1.1c-2.45,0-3.75,2.3-3.75,6.57,0,6,3.12,8.69,6.44,8.69a7.81,7.81,0,0,0,4.17-1.15l.92,1.68A11.13,11.13,0,0,1,258.67,35C252.67,35,248.83,31,248.83,24.87Z"/><path d="M291.55,31.49v3.07H281.23V31.49h2.16l.24-.24V22.71c0-3.84-1.1-4.9-3.84-4.9a14.59,14.59,0,0,0-3.7.58V31.25l.24.24h2.16v3.07H268.17V31.49h2.16l.24-.24V6.34L267.5,4.42V3.84L275.42,0l.67.34V16.47c2.74-1.78,4.71-2.79,7.25-2.79,3.41,0,5.81,1.68,5.81,5.62v12l.24.24Z"/><path d="M293.9,24.87c0-6.34,4.22-11.19,10.47-11.19,5.61,0,9.88,3.89,9.88,10.42S309.89,35,303.79,35C297.93,35,293.9,31,293.9,24.87ZM308.4,26c0-5.47-2.11-9.31-5-9.31-2.26,0-3.65,2.3-3.65,6.24,0,5.47,2.11,9.31,5,9.31C307,32.21,308.4,29.91,308.4,26Z"/><path d="M325,19.39V31.25l.24.24h2.88v3.07h-11V31.49h2.16l.24-.24V19.63l-3.07-1.87v-.62l7.2-3.7.63.34.62,3.45c2.35-2.16,4.51-3.55,6.34-3.55a3.45,3.45,0,0,1,1.39.24v6.19a22.14,22.14,0,0,0-6-.81C326.06,19.3,325.53,19.35,325,19.39Z"/><path d="M351.45,30.58l.92,1.68A12.36,12.36,0,0,1,344.64,35c-5.72,0-10.13-4-10.13-10.32s4.22-11,10.13-11c4.89,0,7.92,3.31,7.92,8.07a13.19,13.19,0,0,1-.24,2.59H340.41c.34,4.61,2.55,7.44,6.48,7.44A10.21,10.21,0,0,0,351.45,30.58Zm-11-8.74h6.82c-.1-4-1.3-5.37-3.27-5.37S340.6,18.34,340.41,21.84Z"/><path d="M355.2,24.87c0-6.34,4.22-11.19,10.46-11.19,5.62,0,9.89,3.89,9.89,10.42S371.18,35,365.08,35C359.23,35,355.2,31,355.2,24.87ZM369.69,26c0-5.47-2.11-9.31-5-9.31-2.26,0-3.65,2.3-3.65,6.24,0,5.47,2.12,9.31,5,9.31C368.3,32.21,369.69,29.91,369.69,26Z"/><path d="M399.69,13.39v4.85l-.67.1-4-1.25a7.16,7.16,0,0,1,1.2,4.08c0,4.9-4.27,7.78-9.07,7.78a10.55,10.55,0,0,1-3.56-.58,3.66,3.66,0,0,0-.76,2.11c0,1.2.76,2,3.79,2h4.61c4.36,0,6.72,1.49,6.72,4.75,0,5.33-5.76,8.74-13.49,8.74-4.95,0-7.54-1.54-7.54-4.22,0-1.83,1.2-3.51,3.46-5a3.52,3.52,0,0,1-1.73-3.17c0-2,1.2-4,3.31-6a6.51,6.51,0,0,1-3-5.66c0-4.85,4.17-8.21,9-8.21a9.12,9.12,0,0,1,5.62,1.83l6-2.26Zm-17.57,24a4.66,4.66,0,0,0-.76,2.54c0,2.11,1.58,3.07,4.56,3.07,3.69,0,7.15-1.34,7.15-3.64,0-1.49-1.44-1.68-3.46-1.68h-4.7A11.66,11.66,0,0,1,382.12,37.35Zm8.5-15.65c0-3.51-1.25-5.71-3.17-5.71-1.58,0-2.88,1.58-2.88,5.08s1.06,5.52,3.07,5.52C389.28,26.59,390.62,25.25,390.62,21.7Z"/><path d="M409.48,19.39V31.25l.24.24h2.88v3.07h-11V31.49h2.16l.24-.24V19.63l-3.07-1.87v-.62l7.2-3.7.62.34.63,3.45c2.35-2.16,4.51-3.55,6.33-3.55a3.47,3.47,0,0,1,1.4.24v6.19a22.14,22.14,0,0,0-6-.81C410.54,19.3,410,19.35,409.48,19.39Z"/><path d="M437.42,31.49v3.07H429.5V32.88a10.82,10.82,0,0,1-5.95,2.21c-2.31,0-4.76-1.2-4.76-4.75S421.2,24,429.5,23.09v-.86c0-3.27-1.1-4.95-3.89-4.95a9.41,9.41,0,0,0-5,1.78l-.91-1.83a11.26,11.26,0,0,1,8.3-3.55c5,0,7.06,2.88,7.06,8.21v9.36l.24.24Zm-7.92-.29V25.44c-3.74.34-5.28,1.39-5.33,3.56-.05,1.82,1.11,2.63,2.74,2.63A10.45,10.45,0,0,0,429.5,31.2Z"/><path d="M461.47,23.76c0,6.34-4.32,11.28-10.37,11.28a8.57,8.57,0,0,1-3.6-.72v8l.24.24h2.88V45.6h-11V42.53h2.16l.24-.24V19.63l-3.07-1.87v-.62l7.2-3.7.62.34.62,3c2.31-1.77,4.32-3.07,6.77-3.07C458.35,13.68,461.47,17.81,461.47,23.76Zm-5.86,1.3c0-4.8-1.87-7.25-4.7-7.25a14,14,0,0,0-3.41.43V29.86a4.27,4.27,0,0,0,3.79,2.3C454.17,32.16,455.61,29.43,455.61,25.06Z"/><path d="M487.77,31.49v3.07H477.45V31.49h2.16l.24-.24V22.71c0-3.84-1.1-4.9-3.84-4.9a14.52,14.52,0,0,0-3.69.58V31.25l.24.24h2.16v3.07H464.39V31.49h2.16l.24-.24V6.34l-3.07-1.92V3.84L471.64,0l.68.34V16.47c2.73-1.78,4.7-2.79,7.24-2.79,3.41,0,5.81,1.68,5.81,5.62v12l.24.24Z"/><path d="M488.68,43.68v-.43l9.8-8.3-8.12-17.24-3.12-2.64V14.4h11.81V15l-2.69,2.68,4.47,10.23h.29l4.51-10.23L503,15.07V14.4h9.07V15L509,17.71l-8.4,17.91-5.47,10.7Z"/><path d="M522,31.49h2.16l.24-.24V6.34l-3.08-1.92V3.84L529.19,0l.68.34V31.25l.24.24h2.16v3.07H522Z"/><path d="M534.81,24.87c0-6.34,4.22-11.19,10.46-11.19,5.62,0,9.89,3.89,9.89,10.42S550.79,35,544.7,35C538.84,35,534.81,31,534.81,24.87Zm14.5,1.1c0-5.47-2.12-9.31-5-9.31-2.25,0-3.64,2.3-3.64,6.24,0,5.47,2.11,9.31,5,9.31C547.91,32.21,549.31,29.91,549.31,26Z"/><path d="M558,24.87c0-6.34,4.22-11.19,10.47-11.19,5.61,0,9.88,3.89,9.88,10.42S574,35,567.93,35C562.07,35,558,31,558,24.87Zm14.5,1.1c0-5.47-2.11-9.31-5-9.31-2.26,0-3.65,2.3-3.65,6.24,0,5.47,2.11,9.31,5,9.31C571.15,32.21,572.54,29.91,572.54,26Z"/><path d="M589.24,31.49h2.16v3.07H581.08V31.49h2.16l.24-.24V6.34l-3.07-1.92V3.84L588.33,0l.67.34V31.25Zm15.12,0v3.07h-7.58l-7.4-10.75,6.15-6.53-2.74-2.69v-.43H603.4v.39l-8.49,7.82,6.48,9.12Z"/><path d="M615,31.49h2.16l.24-.24V6.34l-3.08-1.92V3.84L622.22,0l.67.34V31.25l.24.24h2.16v3.07H615Z"/><path d="M627.64,31.49h2.16l.24-.24V19.63L627,17.71v-.57l8-3.79.62.28V31.25l.24.24H638v3.07H627.64Zm1.63-25a3.34,3.34,0,1,1,3.36,3.36A3.33,3.33,0,0,1,629.27,6.53Z"/><path d="M648.09,31.49h2.16v3.07H639.93V31.49h2.16l.24-.24V6.34l-3.08-1.92V3.84L647.17,0l.68.34V31.25Zm15.12,0v3.07h-7.59l-7.39-10.75,6.15-6.53-2.74-2.69v-.43h10.61v.39l-8.5,7.82,6.48,9.12Z"/><path d="M681.11,30.58l.91,1.68A12.34,12.34,0,0,1,674.29,35c-5.71,0-10.12-4-10.12-10.32s4.22-11,10.12-11c4.9,0,7.92,3.31,7.92,8.07a13.12,13.12,0,0,1-.23,2.59H670.07c.34,4.61,2.54,7.44,6.48,7.44A10.21,10.21,0,0,0,681.11,30.58Zm-11-8.74h6.82c-.1-4-1.3-5.37-3.27-5.37S670.26,18.34,670.07,21.84Z"/><path d="M694,31.49h2.16l.24-.24V19.63l-3.07-1.92v-.57l8-3.79.62.28V31.25l.24.24h2.16v3.07H694Zm1.63-25A3.34,3.34,0,1,1,699,9.89,3.33,3.33,0,0,1,695.65,6.53Z"/><path d="M706.6,31.49h2.16l.24-.24V17.76l-.24-.29H706.6V14.4h2.16l.24-.24V12.63C709,3.79,712.21.14,718.41.14a12.85,12.85,0,0,1,4.46.82V7.54h-.38l-2.6-2.83c-1-1-1.68-1.64-2.92-1.64-1.64,0-2.45,1.2-2.45,4.56v6.53l.24.24h5.61v3.07h-5.61l-.24.29V31.25l.24.24h3.12v3.07H706.6Z"/><path d="M731.27,43.68v-.43l9.79-8.3L733,17.71l-3.12-2.64V14.4h11.81V15L739,17.71l4.46,10.23h.29l4.51-10.23-2.64-2.64V14.4h9.08V15l-3.08,2.68-8.4,17.91-5.47,10.7Z"/><path d="M754.16,24.87c0-6.34,4.23-11.19,10.47-11.19,5.61,0,9.89,3.89,9.89,10.42S770.15,35,764.05,35C758.2,35,754.16,31,754.16,24.87Zm14.5,1.1c0-5.47-2.11-9.31-5-9.31-2.26,0-3.65,2.3-3.65,6.24,0,5.47,2.11,9.31,5,9.31C767.27,32.21,768.66,29.91,768.66,26Z"/><path d="M800,31.49v3.07h-7.88V31.68c-2.35,2-4.27,3.36-7.05,3.36-3.6,0-5.52-2-5.52-5.66V20l-3.07-1.92v-.58l7.92-3.84L785,14V26.35c0,3.41,1.1,4.47,3.74,4.47a11.86,11.86,0,0,0,3.31-.48V19.68L789,17.76v-.57l7.92-3.84.67.33V31.25l.2.24Z"/><path d="M2.93,75.31,0,72.67V72H11.62v.62L8.93,75.31l4.42,10.32h.14l4.75-10.32-2.69-2.64V72h9v.62L21.6,75.31,13.3,92.64H11.09Z"/><path d="M25.54,89.09H27.7l.24-.24V77.23l-3.07-1.92v-.57l8-3.79.63.28V88.85l.24.24h2.16v3.07H25.54Zm1.63-25a3.34,3.34,0,1,1,3.36,3.36A3.32,3.32,0,0,1,27.17,64.13Z"/><path d="M38.5,91.06V84.15h.62l2.64,3.26a5.8,5.8,0,0,0,4.32,2.45c1.78,0,2.5-.91,2.5-2,0-2-2.5-2.64-4.9-4C40,81.7,38.54,80,38.54,77.09c0-3.65,3.17-5.81,8-5.81a15.73,15.73,0,0,1,5.67,1v6.48h-.63l-2.78-3.31a4.41,4.41,0,0,0-3-1.39c-1.49,0-2.26.86-2.26,1.87,0,1.77,2,2.73,4.61,4,3.69,1.87,5.42,3.6,5.42,6.43,0,3.89-2.88,6.24-7.82,6.24A18.94,18.94,0,0,1,38.5,91.06Z"/><path d="M78.43,89.09v3.07H70.56V89.28c-2.35,2-4.27,3.36-7.06,3.36-3.6,0-5.52-2-5.52-5.66V77.62L54.91,75.7v-.58l7.92-3.84.67.34V84c0,3.41,1.11,4.47,3.75,4.47a11.91,11.91,0,0,0,3.31-.48V77.28l-3.07-1.92v-.57L75.41,71l.67.33V88.85l.19.24Z"/><path d="M99.26,89.09v3.07H91.34V90.48a10.79,10.79,0,0,1-6,2.21c-2.3,0-4.75-1.2-4.75-4.75s2.4-6.39,10.7-7.25v-.86c0-3.27-1.1-5-3.88-5a9.38,9.38,0,0,0-5,1.78l-.92-1.83a11.28,11.28,0,0,1,8.31-3.55c5,0,7,2.88,7,8.21v9.36l.24.24Zm-7.92-.29V83c-3.74.34-5.28,1.39-5.32,3.55,0,1.83,1.1,2.64,2.73,2.64A10.38,10.38,0,0,0,91.34,88.8Z"/><path d="M101.42,89.09h2.16l.24-.24V63.94L100.75,62v-.58l7.92-3.84.67.34V88.85l.24.24h2.16v3.07H101.42Z"/><path d="M114.09,89.09h2.16l.25-.24V77.23l-3.08-1.92v-.57l8-3.79.63.28V88.85l.23.24h2.17v3.07H114.09Zm1.64-25a3.34,3.34,0,1,1,3.36,3.36A3.32,3.32,0,0,1,115.73,64.13Z"/><path d="M126.62,91.35l10.47-16v-.24h-6.44l-2.92,4.32h-.58V72h17.33v.91l-10.13,16v.19h6.91l2.79-4.32h.57v7.39h-18Z"/><path d="M164.3,88.18l.92,1.68a12.36,12.36,0,0,1-7.73,2.78c-5.72,0-10.13-4-10.13-10.32s4.22-11,10.13-11c4.89,0,7.92,3.31,7.92,8.07a13.19,13.19,0,0,1-.24,2.59H153.26c.34,4.61,2.55,7.44,6.48,7.44A10.21,10.21,0,0,0,164.3,88.18Zm-11-8.74h6.82c-.1-4-1.3-5.37-3.27-5.37S153.46,75.94,153.26,79.44Z"/><path d="M190.18,89.09v3.07h-7.93V89.67c-2.3,1.72-4.08,3-6.52,3-4.61,0-7.44-4.41-7.44-9.84,0-6.57,4.32-11.52,10.36-11.52a8.57,8.57,0,0,1,3.6.72V63.94L179.18,62v-.58l8-3.84.63.34V88.85l.24.24Zm-7.93-1V76.66a4.18,4.18,0,0,0-3.74-2.5c-2.83,0-4.37,2.59-4.37,7.11,0,4.8,1.87,7.24,5.09,7.24A12.24,12.24,0,0,0,182.25,88.08Z"/><path d="M201.88,89.09H204l.25-.24V77.23l-3.08-1.92v-.57l8-3.79.63.28V88.85l.23.24h2.17v3.07H201.88Zm1.64-25a3.34,3.34,0,1,1,3.36,3.36A3.32,3.32,0,0,1,203.52,64.13Z"/><path d="M216.09,86.35v-11l-.24-.24h-2.69v-.62L221,66.29h.62V72H228v3.07h-6.39v9c0,3.84.72,5.18,2.64,5.18a8.41,8.41,0,0,0,3.55-1l.92,1.68a11.37,11.37,0,0,1-7.2,2.78C218.06,92.64,216.09,91,216.09,86.35Z"/><path d="M272.73,72v.62l-3.07,2.69-7.44,17.33h-2.11l-4-10.32-5.76,10.32h-2l-7.68-17.33-2.93-2.64V72h11.81v.62l-2.88,2.69,4.17,10.32h.24l3.7-6.67-2.3-5.9,5.42-1.59,4.42,13.83h.24l3.74-10-2.93-2.65V72Z"/><path d="M273.74,89.09h2.16l.24-.24V77.23l-3.07-1.92v-.57L281,71l.62.28V88.85l.24.24h2.16v3.07H273.74Zm1.63-25a3.34,3.34,0,1,1,3.36,3.36A3.32,3.32,0,0,1,275.37,64.13Z"/><path d="M288,86.35v-11l-.24-.24H285v-.62l7.82-8.16h.63V72h6.38v3.07h-6.38v9c0,3.84.72,5.18,2.64,5.18a8.45,8.45,0,0,0,3.55-1l.91,1.68a11.33,11.33,0,0,1-7.2,2.78C289.92,92.64,288,91,288,86.35Z"/><path d="M325.58,89.09v3.07H315.26V89.09h2.16l.24-.24V80.31c0-3.84-1.11-4.9-3.84-4.9a14.59,14.59,0,0,0-3.7.58V88.85l.24.24h2.16v3.07H302.2V89.09h2.16l.24-.24V63.94L301.53,62v-.58l7.92-3.84.67.34V74.07c2.74-1.78,4.71-2.79,7.25-2.79,3.41,0,5.81,1.68,5.81,5.62V88.85l.24.24Z"/><path d="M327.93,82.47c0-6.34,4.22-11.19,10.46-11.19,5.62,0,9.89,3.89,9.89,10.42s-4.36,10.94-10.46,10.94C332,92.64,327.93,88.61,327.93,82.47Zm14.5,1.1c0-5.47-2.12-9.31-5-9.31-2.25,0-3.64,2.3-3.64,6.24,0,5.47,2.11,9.31,5,9.31C341,89.81,342.43,87.51,342.43,83.57Z"/><path d="M373.72,89.09v3.07h-7.87V89.28c-2.35,2-4.27,3.36-7.06,3.36-3.6,0-5.52-2-5.52-5.66V77.62L350.2,75.7v-.58l7.92-3.84.67.34V84c0,3.41,1.11,4.47,3.75,4.47a11.91,11.91,0,0,0,3.31-.48V77.28l-3.07-1.92v-.57L370.7,71l.67.33V88.85l.19.24Z"/><path d="M377.85,86.35v-11l-.24-.24h-2.69v-.62l7.83-8.16h.62V72h6.38v3.07h-6.38v9c0,3.84.72,5.18,2.64,5.18a8.45,8.45,0,0,0,3.55-1l.91,1.68a11.33,11.33,0,0,1-7.2,2.78C379.82,92.64,377.85,91,377.85,86.35Z"/><path d="M419.85,89.09v3.07h-7.92V90.48A10.84,10.84,0,0,1,406,92.69c-2.31,0-4.76-1.2-4.76-4.75s2.4-6.39,10.71-7.25v-.86c0-3.27-1.11-5-3.89-5a9.41,9.41,0,0,0-5,1.78l-.91-1.83a11.26,11.26,0,0,1,8.3-3.55c5,0,7.06,2.88,7.06,8.21v9.36l.24.24Zm-7.92-.29V83c-3.75.34-5.28,1.39-5.33,3.55-.05,1.83,1.1,2.64,2.74,2.64A10.45,10.45,0,0,0,411.93,88.8Z"/><path d="M453.45,89.09v3.07h-7.92V89.67c-2.31,1.72-4.08,3-6.53,3-4.61,0-7.44-4.41-7.44-9.84,0-6.57,4.32-11.52,10.37-11.52a8.64,8.64,0,0,1,3.6.72V63.94L442.46,62v-.58l8-3.84.63.34V88.85l.24.24Zm-7.92-1V76.66a4.19,4.19,0,0,0-3.75-2.5c-2.83,0-4.36,2.59-4.36,7.11,0,4.8,1.87,7.24,5.08,7.24A12.31,12.31,0,0,0,445.53,88.08Z"/><path d="M474.66,89.09v3.07h-7.92V90.48a10.79,10.79,0,0,1-5.95,2.21c-2.3,0-4.75-1.2-4.75-4.75s2.4-6.39,10.7-7.25v-.86c0-3.27-1.1-5-3.89-5a9.41,9.41,0,0,0-5,1.78l-.91-1.83a11.26,11.26,0,0,1,8.31-3.55c5,0,7.05,2.88,7.05,8.21v9.36l.24.24Zm-7.92-.29V83c-3.74.34-5.28,1.39-5.32,3.55-.05,1.83,1.1,2.64,2.73,2.64A10.38,10.38,0,0,0,466.74,88.8Z"/><path d="M500.34,89.14v3H490V89.09h2.16l.24-.24V80.31c0-3.84-1.1-4.9-3.84-4.9a14.59,14.59,0,0,0-3.69.58V88.85l.24.24h2.16v3.07H477V89.09h2.16l.24-.24V77.19l-3.08-1.88v-.62L483.5,71l.62.34.58,2.83c2.83-1.87,4.84-2.88,7.44-2.88,3.4,0,5.8,1.68,5.8,5.62V88.85l.24.29Z"/><path d="M502.69,82.47c0-6.29,4.18-11.19,10.9-11.19a16.5,16.5,0,0,1,5.62,1.06v7.73h-.63l-3.64-4.9a4,4,0,0,0-2.65-1.1c-2.44,0-3.74,2.3-3.74,6.57,0,6,3.12,8.69,6.43,8.69a7.82,7.82,0,0,0,4.18-1.15l.91,1.68a11.11,11.11,0,0,1-7.53,2.78C506.53,92.64,502.69,88.61,502.69,82.47Z"/><path d="M539.17,88.18l.92,1.68a12.36,12.36,0,0,1-7.73,2.78c-5.71,0-10.13-4-10.13-10.32s4.22-11,10.13-11c4.89,0,7.92,3.31,7.92,8.07a13.19,13.19,0,0,1-.24,2.59H528.13c.34,4.61,2.55,7.44,6.48,7.44A10.21,10.21,0,0,0,539.17,88.18Zm-11-8.74H535c-.1-4-1.3-5.37-3.26-5.37C529.57,74.07,528.33,75.94,528.13,79.44Z"/><path d="M550.79,77V88.85l.24.24h2.88v3.07h-11V89.09H545l.24-.24V77.23l-3.07-1.87v-.62l7.2-3.7.62.34.63,3.45c2.35-2.16,4.51-3.55,6.33-3.55a3.5,3.5,0,0,1,1.4.24v6.19a22.21,22.21,0,0,0-6-.81C551.85,76.9,551.32,77,550.79,77Z"/><path d="M578.63,67.63c0,4-2.88,7.4-8.93,9.7l-1.2,6.1H567l-1.34-6.34c4.61-2.59,6.72-5.23,6.72-9.12,0-2.79-1.54-4.85-3.94-4.85s-4.32,1.63-5.23,5.33l-4.08-2.93a11.32,11.32,0,0,1,10.18-5.28C575,60.24,578.63,63.17,578.63,67.63Zm-7.34,21.65a3.6,3.6,0,1,1-3.6-3.6A3.6,3.6,0,0,1,571.29,89.28Z"/><path d="M44.44,225.87v.48l-4.08,2.4-8.69,28.57h-2.2l-6.63-22.57-7.1,22.57H13.53L4.75,228.75l-4.08-2.4v-.48H13.24v.48l-4.32,2.4,6.15,23.58h.09l6.48-21.56-1.44-4.9h4l7,26.46h.09l6.53-23.58-4.32-2.4v-.48Z"/><path d="M42.76,247.62c0-5.71,3.74-10.7,10.13-10.7,5.42,0,9.55,3.69,9.55,9.93,0,5.67-3.79,10.71-10,10.71C46.84,257.56,42.76,253.81,42.76,247.62Zm15.94.43c0-5.28-2.83-9.21-6.58-9.21-3.17,0-5.66,2.35-5.66,7.53s2.69,9.27,6.57,9.27C56.35,255.64,58.7,253.19,58.7,248.05Z"/><path d="M87.88,254.92v2.16H81.4v-2.31c-2.73,1.73-4.8,2.79-6.62,2.79-4.18,0-6-2-6-5.62V241.76l-3.22-1.53V240l6.29-3,.29.15v11.81c0,4.12.81,5.57,4.17,5.57a23.2,23.2,0,0,0,5.09-.68V241.72l-3.21-1.54v-.24l6.28-3,.29.14v17.62l.24.24Z"/><path d="M91,254.92h2.88l.24-.24V227.31l-3.22-1.53v-.24l6.29-3,.29.15v32l.24.24h3.12v2.16H91Z"/><path d="M125.85,254.92v2.16h-6.72v-2.31c-2.35,1.44-4.9,2.79-7.44,2.79-4.75,0-7.54-4.8-7.54-9.75,0-5.47,3.17-10.89,10-10.89a11.61,11.61,0,0,1,5,1V227.31l-3.22-1.53v-.24l6.29-3,.29.15v32l.24.24Zm-6.72-.92V241.81a5.77,5.77,0,0,0-5.47-3c-4.23,0-5.81,3.07-5.81,7.92,0,4.46,1.68,8,5.85,8A21.26,21.26,0,0,0,119.13,254Z"/><path d="M139.48,254.92h2.88l.24-.24V241.62l-3.22-1.54v-.24l6.29-2.92.29.14v17.62l.24.24h2.88v2.16h-9.6Zm1.82-25.59a2.62,2.62,0,1,1,2.64,2.59A2.66,2.66,0,0,1,141.3,229.33Z"/><path d="M154.36,251.46V240.08l-.24-.24h-2.88v-.24l6.24-8.21h.24v6.29h6.48v2.16h-6.48v9c0,4.85.72,6.48,3.5,6.48a9.24,9.24,0,0,0,3.17-.53l.53,1a10.34,10.34,0,0,1-5.52,1.78C156,257.56,154.36,256,154.36,251.46Z"/><path d="M180.08,251.46V240.08l-.24-.24H177v-.24l6.25-8.21h.24v6.29h6.48v2.16h-6.48v9c0,4.85.72,6.48,3.5,6.48a9.24,9.24,0,0,0,3.17-.53l.53,1a10.38,10.38,0,0,1-5.53,1.78C181.72,257.56,180.08,256,180.08,251.46Z"/><path d="M210,246.37H196.74c0,6.29,3.31,8.59,7.63,8.59a10.65,10.65,0,0,0,4.95-1.2l.53,1a11.13,11.13,0,0,1-7.44,2.79c-5.86,0-9.37-4.42-9.37-9.89,0-7.06,5.09-10.8,9.46-10.8,4,0,7.59,2.35,7.59,7.87C210.09,245.27,210,245.8,210,246.37Zm-13.15-1.73h9.5c-.09-4-1.58-5.8-4.17-5.8C199.86,238.84,197.32,240.32,196.84,244.64Z"/><path d="M213.4,254.92h2.88l.24-.24V227.31l-3.22-1.53v-.24l6.29-3,.29.15v32l.24.24h3.12v2.16H213.4Z"/><path d="M226.26,254.92h2.88l.24-.24V227.31l-3.22-1.53v-.24l6.29-3,.29.15v32l.24.24h3.12v2.16h-9.84Z"/><path d="M271.57,254.92v2.16h-6.48v-2.31c-2.73,1.73-4.8,2.79-6.62,2.79-4.18,0-6-2-6-5.62V241.76l-3.22-1.53V240l6.29-3,.29.15v11.81c0,4.12.81,5.57,4.17,5.57a23.2,23.2,0,0,0,5.09-.68V241.72l-3.21-1.54v-.24l6.28-3,.29.14v17.62l.24.24Z"/><path d="M275.17,256.41v-5.05h.24l2.4,2.64a5.48,5.48,0,0,0,3.84,1.73c2,0,3.31-1,3.31-2.73,0-2.4-2.3-3.17-4.8-4.52-2.92-1.58-4.7-3.26-4.7-6,0-3.22,2.59-5.52,6.82-5.52a14,14,0,0,1,5.08.91v4.89h-.24l-2.49-2.78a4.55,4.55,0,0,0-3.17-1.25c-1.92,0-3.12,1.11-3.12,2.69,0,2.26,2.26,3.31,4.51,4.51,2.45,1.35,5.09,2.74,5.09,6.05,0,3.46-3,5.62-6.62,5.62A17.19,17.19,0,0,1,275.17,256.41Z"/><path d="M319.52,254.92v2.16H313v-2c-2.25,1.54-4.22,2.45-6.33,2.45a4.49,4.49,0,0,1-4.8-4.61c0-4.42,4.65-6,11.13-6.34v-1.49c0-3.79-.86-5.61-4.37-5.61a9.67,9.67,0,0,0-5.56,1.82l-.63-1.15a10.19,10.19,0,0,1,7.49-3.26c3.89,0,6.43,2.25,6.43,6.28v11.48l.24.24Zm-6.48-.67v-6.1c-4.08.29-7.73,1-7.73,4.18,0,1.87,1.3,2.73,3.12,2.73A15,15,0,0,0,313,254.25Z"/><path d="M345.25,254.92v2.16h-9.84v-2.16h3.12l.24-.24v-9.12c0-4.13-.86-5.57-4.42-5.57a25.91,25.91,0,0,0-5.32.67v14l.24.24h3.12v2.16h-9.85v-2.16h2.89l.24-.24V241.62l-3.22-1.54v-.24l5.81-3,.29.14.38,2.74c2.83-1.83,5.09-2.83,7-2.83,4.32,0,6.24,2,6.24,5.61v12.15l.24.24Z"/><path d="M367.86,237.68v.15l-2.59,2.25-7.73,18.29-4.61,10.71-4.13-1.78,7-8.49-8.06-18.73L345,237.92v-.24h9.65v.15l-3.12,2.3,5.9,14.21L363,240.08l-3.41-2.16v-.24Z"/><path d="M371.51,251.46V240.08l-.24-.24h-2.88v-.24l6.24-8.21h.24v6.29h6.48v2.16h-6.48v9c0,4.85.72,6.48,3.5,6.48a9.24,9.24,0,0,0,3.17-.53l.53,1a10.37,10.37,0,0,1-5.52,1.78C373.14,257.56,371.51,256,371.51,251.46Z"/><path d="M407.12,254.92v2.16h-9.84v-2.16h3.12l.24-.24v-9.12c0-4.13-.86-5.57-4.41-5.57a25.92,25.92,0,0,0-5.33.67v14l.24.24h3.12v2.16h-9.84v-2.16h2.88l.24-.24V227.31l-3.22-1.53v-.24l6.29-3,.29.15v17c2.78-1.78,5-2.78,6.86-2.78,4.32,0,6.24,2,6.24,5.61v12.15l.24.24Z"/><path d="M410.14,254.92H413l.23-.24V241.62l-3.21-1.54v-.24l6.29-2.92.28.14v17.62l.25.24h2.88v2.16h-9.61ZM412,229.33a2.62,2.62,0,1,1,2.64,2.59A2.66,2.66,0,0,1,412,229.33Z"/><path d="M445.47,254.92v2.16h-9.84v-2.16h3.12l.24-.24v-9.12c0-4.13-.86-5.57-4.41-5.57a25.92,25.92,0,0,0-5.33.67v14l.24.24h3.12v2.16h-9.84v-2.16h2.88l.24-.24V241.62l-3.22-1.54v-.24l5.81-3,.29.14.38,2.74c2.83-1.83,5.09-2.83,7-2.83,4.32,0,6.24,2,6.24,5.61v12.15l.24.24Z"/><path d="M468.37,240.71l-4.56-.43a7.88,7.88,0,0,1,1.06,4.12c0,5.09-4.28,7.78-8.36,7.78a8,8,0,0,1-3.17-.58,4.5,4.5,0,0,0-1,2.45c0,1.35.86,2,5.18,2h1.25c5.62,0,7.87,1.39,7.87,4.32,0,5.52-6.09,7.78-11.52,7.78-4.18,0-7.1-1.3-7.1-4.13,0-2.26,1.82-3.5,3.36-4.9a2.82,2.82,0,0,1-2.36-2.92c0-1.92,1.88-3.7,3.51-5a6.63,6.63,0,0,1-3.46-6.1c0-5.42,4.13-8.2,8.26-8.2A7.43,7.43,0,0,1,462.8,239l5.57-2.3Zm-15.94,18.58a6.89,6.89,0,0,0-1.1,3.55c0,2.54,1.73,3.6,4.42,3.6,3.31,0,7.82-1.68,7.82-4.61,0-1.63-1.39-2.35-4.42-2.35H455.6A21.33,21.33,0,0,1,452.43,259.29Zm8.88-14.07c0-4.27-1.87-6.72-4.36-6.72s-4.28,1.78-4.28,5.57c0,4.13,1.63,6.48,4.32,6.48S461.31,249,461.31,245.22Z"/><path d="M481,254.92h2.88l.24-.24V241.62l-3.22-1.54v-.24l6.29-2.92.29.14v17.62l.24.24h2.88v2.16H481Zm1.82-25.59a2.62,2.62,0,1,1,2.64,2.59A2.66,2.66,0,0,1,482.86,229.33Z"/><path d="M516.37,254.92v2.16h-9.84v-2.16h3.12l.24-.24v-9.12c0-4.13-.87-5.57-4.42-5.57a26.09,26.09,0,0,0-5.33.67v14l.24.24h3.12v2.16h-9.84v-2.16h2.88l.24-.24V241.62l-3.21-1.54v-.24l5.81-3,.28.14.39,2.74c2.83-1.83,5.09-2.83,7-2.83,4.32,0,6.24,2,6.24,5.61v12.15l.24.24Z"/><path d="M521.65,251.46V240.08l-.24-.24h-2.88v-.24l6.24-8.21H525v6.29h6.48v2.16H525v9c0,4.85.72,6.48,3.5,6.48a9.24,9.24,0,0,0,3.17-.53l.53,1a10.37,10.37,0,0,1-5.52,1.78C523.28,257.56,521.65,256,521.65,251.46Z"/><path d="M551.55,246.37H538.3c.05,6.29,3.32,8.59,7.64,8.59a10.61,10.61,0,0,0,4.94-1.2l.53,1a11.13,11.13,0,0,1-7.44,2.79c-5.86,0-9.36-4.42-9.36-9.89,0-7.06,5.09-10.8,9.45-10.8,4,0,7.59,2.35,7.59,7.87C551.65,245.27,551.6,245.8,551.55,246.37Zm-13.15-1.73h9.5c-.09-4-1.58-5.8-4.17-5.8C541.42,238.84,538.88,240.32,538.4,244.64Z"/><path d="M568.93,237.25v3.51a12,12,0,0,0-2.45-.24,22.88,22.88,0,0,0-5,.67v13.49l.24.24h3.6v2.16H555v-2.16h2.88l.24-.24V241.62l-3.22-1.54v-.24l5.81-3,.29.14.48,3.27c2-1.49,4.7-3.36,6.29-3.36A2.27,2.27,0,0,1,568.93,237.25Z"/><path d="M587.93,246.37H574.69c0,6.29,3.31,8.59,7.63,8.59a10.61,10.61,0,0,0,4.94-1.2l.53,1a11.11,11.11,0,0,1-7.44,2.79c-5.86,0-9.36-4.42-9.36-9.89,0-7.06,5.09-10.8,9.46-10.8,4,0,7.58,2.35,7.58,7.87C588,245.27,588,245.8,587.93,246.37Zm-13.15-1.73h9.51c-.1-4-1.59-5.8-4.18-5.8C577.81,238.84,575.26,240.32,574.78,244.64Z"/><path d="M591.82,256.41v-5.05h.24l2.4,2.64a5.48,5.48,0,0,0,3.84,1.73c2,0,3.31-1,3.31-2.73,0-2.4-2.3-3.17-4.8-4.52-2.92-1.58-4.7-3.26-4.7-6,0-3.22,2.59-5.52,6.82-5.52a14,14,0,0,1,5.08.91v4.89h-.24l-2.49-2.78a4.55,4.55,0,0,0-3.17-1.25c-1.92,0-3.12,1.11-3.12,2.69,0,2.26,2.26,3.31,4.51,4.51,2.45,1.35,5.09,2.74,5.09,6.05,0,3.46-3,5.62-6.62,5.62A17.19,17.19,0,0,1,591.82,256.41Z"/><path d="M610.21,251.46V240.08l-.25-.24h-2.88v-.24l6.25-8.21h.24v6.29h6.48v2.16h-6.48v9c0,4.85.72,6.48,3.5,6.48a9.24,9.24,0,0,0,3.17-.53l.53,1a10.37,10.37,0,0,1-5.52,1.78C611.84,257.56,610.21,256,610.21,251.46Z"/><path d="M623.12,254.92H626l.24-.24V241.62L623,240.08v-.24l6.29-2.92.29.14v17.62l.24.24h2.88v2.16h-9.6Zm1.82-25.59a2.62,2.62,0,1,1,2.64,2.59A2.66,2.66,0,0,1,624.94,229.33Z"/><path d="M658.45,254.92v2.16H648.6v-2.16h3.12l.24-.24v-9.12c0-4.13-.86-5.57-4.41-5.57a25.92,25.92,0,0,0-5.33.67v14l.24.24h3.12v2.16h-9.84v-2.16h2.88l.24-.24V241.62l-3.22-1.54v-.24l5.81-3,.29.14.38,2.74c2.84-1.83,5.09-2.83,7-2.83,4.33,0,6.25,2,6.25,5.61v12.15l.24.24Z"/><path d="M681.34,240.71l-4.56-.43a7.88,7.88,0,0,1,1.06,4.12c0,5.09-4.28,7.78-8.36,7.78a8,8,0,0,1-3.16-.58,4.44,4.44,0,0,0-1,2.45c0,1.35.86,2,5.18,2h1.25c5.62,0,7.87,1.39,7.87,4.32,0,5.52-6.09,7.78-11.52,7.78-4.17,0-7.1-1.3-7.1-4.13,0-2.26,1.82-3.5,3.36-4.9a2.81,2.81,0,0,1-2.35-2.92c0-1.92,1.87-3.7,3.5-5a6.63,6.63,0,0,1-3.46-6.1c0-5.42,4.13-8.2,8.26-8.2a7.43,7.43,0,0,1,5.47,2.06l5.57-2.3ZM665.4,259.29a6.89,6.89,0,0,0-1.1,3.55c0,2.54,1.73,3.6,4.42,3.6,3.31,0,7.82-1.68,7.82-4.61,0-1.63-1.39-2.35-4.42-2.35h-3.55A21.42,21.42,0,0,1,665.4,259.29Zm8.88-14.07c0-4.27-1.87-6.72-4.36-6.72s-4.28,1.78-4.28,5.57c0,4.13,1.64,6.48,4.32,6.48S674.28,249,674.28,245.22Z"/><path d="M711.68,254.92v2.16H705.2v-2c-2.26,1.54-4.23,2.45-6.34,2.45a4.49,4.49,0,0,1-4.8-4.61c0-4.42,4.65-6,11.14-6.34v-1.49c0-3.79-.87-5.61-4.37-5.61a9.68,9.68,0,0,0-5.57,1.82l-.63-1.15a10.19,10.19,0,0,1,7.49-3.26c3.89,0,6.44,2.25,6.44,6.28v11.48l.23.24Zm-6.48-.67v-6.1c-4.09.29-7.73,1-7.73,4.18,0,1.87,1.29,2.73,3.12,2.73A15.08,15.08,0,0,0,705.2,254.25Z"/><path d="M734.62,246.66c0,5.57-3.17,10.9-10.37,10.9a19.22,19.22,0,0,1-7.82-1.59V227.31l-3.22-1.53v-.24l6.29-3,.29.15V239.6c2.3-1.39,4.8-2.68,7.29-2.68C731.84,236.92,734.62,241.72,734.62,246.66Zm-3.7,1.06c0-4.47-1.68-8-5.85-8a21.21,21.21,0,0,0-5.28.67v13.3a6.64,6.64,0,0,0,5.09,1.92C729.1,255.64,730.92,252.8,730.92,247.72Z"/><path d="M738.46,247.62c0-5.71,3.74-10.7,10.13-10.7,5.42,0,9.55,3.69,9.55,9.93,0,5.67-3.79,10.71-10,10.71C742.54,257.56,738.46,253.81,738.46,247.62Zm15.94.43c0-5.28-2.84-9.21-6.58-9.21-3.17,0-5.67,2.35-5.67,7.53s2.69,9.27,6.58,9.27C752,255.64,754.4,253.19,754.4,248.05Z"/><path d="M783.58,254.92v2.16H777.1v-2.31c-2.74,1.73-4.8,2.79-6.63,2.79-4.17,0-6-2-6-5.62V241.76l-3.21-1.53V240l6.29-3,.28.15v11.81c0,4.12.82,5.57,4.18,5.57a23.2,23.2,0,0,0,5.09-.68V241.72l-3.22-1.54v-.24l6.29-3,.29.14v17.62l.24.24Z"/><path d="M789,251.46V240.08l-.24-.24h-2.88v-.24l6.24-8.21h.24v6.29h6.48v2.16h-6.48v9c0,4.85.72,6.48,3.51,6.48a9.24,9.24,0,0,0,3.17-.53l.52,1a10.32,10.32,0,0,1-5.52,1.78C790.59,257.56,789,256,789,251.46Z"/><path d="M814.68,251.46V240.08l-.24-.24h-2.88v-.24l6.24-8.21H818v6.29h6.48v2.16H818v9c0,4.85.72,6.48,3.5,6.48a9.2,9.2,0,0,0,3.17-.53l.53,1a10.34,10.34,0,0,1-5.52,1.78C816.31,257.56,814.68,256,814.68,251.46Z"/><path d="M850.3,254.92v2.16h-9.84v-2.16h3.12l.24-.24v-9.12c0-4.13-.87-5.57-4.42-5.57a26,26,0,0,0-5.33.67v14l.24.24h3.12v2.16h-9.84v-2.16h2.88l.24-.24V227.31l-3.21-1.53v-.24l6.28-3,.29.15v17c2.79-1.78,5-2.78,6.87-2.78,4.32,0,6.24,2,6.24,5.61v12.15l.24.24Z"/><path d="M870.55,246.37H857.3c.05,6.29,3.32,8.59,7.64,8.59a10.61,10.61,0,0,0,4.94-1.2l.53,1a11.11,11.11,0,0,1-7.44,2.79c-5.86,0-9.36-4.42-9.36-9.89,0-7.06,5.09-10.8,9.46-10.8,4,0,7.58,2.35,7.58,7.87C870.65,245.27,870.6,245.8,870.55,246.37Zm-13.15-1.73h9.51c-.1-4-1.59-5.8-4.18-5.8C860.42,238.84,857.88,240.32,857.4,244.64Z"/><path d="M2.3,314v-5h.24l2.4,2.64a5.46,5.46,0,0,0,3.84,1.73c2,0,3.31-1,3.31-2.73,0-2.4-2.3-3.17-4.8-4.52-2.93-1.58-4.71-3.26-4.71-6,0-3.22,2.6-5.53,6.82-5.53a14.07,14.07,0,0,1,5.09.92v4.89h-.24l-2.5-2.78a4.52,4.52,0,0,0-3.17-1.25c-1.91,0-3.12,1.11-3.12,2.69,0,2.26,2.26,3.31,4.52,4.51,2.45,1.35,5.09,2.74,5.09,6.05s-3,5.62-6.63,5.62A16.87,16.87,0,0,1,2.3,314Z"/><path d="M20.68,309.06V297.68l-.24-.24H17.56v-.24L23.8,289H24v6.29h6.48v2.16H24v9c0,4.85.72,6.48,3.5,6.48a9.2,9.2,0,0,0,3.17-.53l.53,1a10.34,10.34,0,0,1-5.52,1.78C22.31,315.16,20.68,313.62,20.68,309.06Z"/><path d="M47.32,294.85v3.51a12,12,0,0,0-2.45-.24,23,23,0,0,0-5,.67v13.49l.24.24h3.6v2.16H33.35v-2.16h2.88l.24-.24V299.22l-3.21-1.54v-.24l5.81-3,.28.14.48,3.27c2-1.49,4.71-3.37,6.29-3.37A2.21,2.21,0,0,1,47.32,294.85Z"/><path d="M71,312.52v2.16H64.5v-2.31c-2.73,1.73-4.79,2.79-6.62,2.79-4.18,0-6-2-6-5.62V299.36l-3.22-1.53v-.24l6.29-3,.29.15v11.81c0,4.12.82,5.56,4.18,5.56a23,23,0,0,0,5.08-.67V299.32l-3.21-1.54v-.24l6.29-3,.29.15v17.62l.24.24Z"/><path d="M74.39,305.41c0-7,4.75-10.9,10.18-10.9a12.52,12.52,0,0,1,5.28,1.06v5.67h-.24l-2.83-3.6a4.7,4.7,0,0,0-3.32-1.16c-3.45,0-5.37,3-5.37,7.4,0,6.14,3,8.68,7.1,8.68a10.77,10.77,0,0,0,5-1.2l.53,1a10.62,10.62,0,0,1-7.21,2.79C77.37,315.16,74.39,310.64,74.39,305.41Z"/><path d="M96,309.06V297.68l-.24-.24H92.87v-.24L99.11,289h.24v6.29h6.48v2.16H99.35v9c0,4.85.72,6.48,3.51,6.48a9.18,9.18,0,0,0,3.16-.53l.53,1a10.34,10.34,0,0,1-5.52,1.78C97.62,315.16,96,313.62,96,309.06Z"/><path d="M130.79,312.52v2.16h-6.48v-2.31c-2.73,1.73-4.8,2.79-6.62,2.79-4.18,0-6-2-6-5.62V299.36l-3.22-1.53v-.24l6.29-3,.29.15v11.81c0,4.12.81,5.56,4.17,5.56a23.18,23.18,0,0,0,5.09-.67V299.32l-3.21-1.54v-.24l6.28-3,.29.15v17.62l.24.24Z"/><path d="M147.88,294.85v3.51a12,12,0,0,0-2.45-.24,23,23,0,0,0-5,.67v13.49l.24.24h3.6v2.16H133.91v-2.16h2.88l.24-.24V299.22l-3.21-1.54v-.24l5.8-3,.29.14.48,3.27c2-1.49,4.71-3.37,6.29-3.37A2.24,2.24,0,0,1,147.88,294.85Z"/><path d="M166.89,304H153.64c.05,6.29,3.31,8.59,7.63,8.59a10.77,10.77,0,0,0,4.95-1.2l.52,1a11.09,11.09,0,0,1-7.44,2.79c-5.85,0-9.36-4.42-9.36-9.89,0-7.06,5.09-10.8,9.46-10.8,4,0,7.58,2.35,7.58,7.87C167,302.87,166.94,303.4,166.89,304Zm-13.15-1.73h9.5c-.1-4-1.58-5.8-4.18-5.8C156.76,296.44,154.21,297.92,153.74,302.24Z"/><path d="M181.14,305.22c0-5.71,3.75-10.71,10.13-10.71,5.43,0,9.55,3.7,9.55,9.94,0,5.67-3.79,10.71-10,10.71C185.22,315.16,181.14,311.41,181.14,305.22Zm15.94.43c0-5.28-2.83-9.21-6.58-9.21-3.17,0-5.66,2.35-5.66,7.53s2.69,9.27,6.58,9.27C194.73,313.24,197.08,310.79,197.08,305.65Z"/><path d="M218.34,294.85v3.51a12,12,0,0,0-2.45-.24,23,23,0,0,0-5,.67v13.49l.24.24h3.6v2.16H204.37v-2.16h2.88l.24-.24V299.22l-3.21-1.54v-.24l5.81-3,.28.14.48,3.27c2-1.49,4.71-3.37,6.29-3.37A2.21,2.21,0,0,1,218.34,294.85Z"/><path d="M232.93,309.06V297.68l-.24-.24h-2.88v-.24l6.24-8.21h.24v6.29h6.48v2.16h-6.48v9c0,4.85.72,6.48,3.51,6.48a9.18,9.18,0,0,0,3.16-.53l.53,1a10.34,10.34,0,0,1-5.52,1.78C234.56,315.16,232.93,313.62,232.93,309.06Z"/><path d="M262.84,304H249.59c0,6.29,3.31,8.59,7.63,8.59a10.8,10.8,0,0,0,4.95-1.2l.52,1a11.09,11.09,0,0,1-7.44,2.79c-5.85,0-9.36-4.42-9.36-9.89,0-7.06,5.09-10.8,9.46-10.8,4,0,7.58,2.35,7.58,7.87C262.93,302.87,262.89,303.4,262.84,304Zm-13.16-1.73h9.51c-.1-4-1.59-5.8-4.18-5.8C252.71,296.44,250.16,297.92,249.68,302.24Z"/><path d="M284.29,297.68l-6.19,6.53c3.46,3.94,7,8,7,8l.39.29h2.4v2.16h-10v-2.16h2.64l.34-.29s-2.69-3.07-5.14-6l-5.33,6,.2.2h2.64v2.16h-8v-2.16h2.4l.33-.29,6.53-7.3-6.29-7.25-3.41-2.16v-.24H275.6v.15l-3.12,2.25,4.42,5.14,4.85-5.14-3.41-2.16v-.24h9.55v.15Z"/><path d="M291.88,309.06V297.68l-.24-.24h-2.89v-.24L295,289h.24v6.29h6.48v2.16h-6.48v9c0,4.85.72,6.48,3.5,6.48a9.24,9.24,0,0,0,3.17-.53l.53,1a10.37,10.37,0,0,1-5.52,1.78C293.51,315.16,291.88,313.62,291.88,309.06Z"/><path d="M326.68,312.52v2.16H320.2v-2.31c-2.74,1.73-4.8,2.79-6.63,2.79-4.17,0-6-2-6-5.62V299.36l-3.21-1.53v-.24l6.28-3,.29.15v11.81c0,4.12.82,5.56,4.18,5.56a23.18,23.18,0,0,0,5.09-.67V299.32L317,297.78v-.24l6.29-3,.29.15v17.62l.24.24Z"/><path d="M343.76,294.85v3.51a11.86,11.86,0,0,0-2.44-.24,22.81,22.81,0,0,0-5,.67v13.49l.24.24h3.6v2.16H329.79v-2.16h2.89l.24-.24V299.22l-3.22-1.54v-.24l5.81-3,.29.14.48,3.27c2-1.49,4.7-3.37,6.28-3.37A2.21,2.21,0,0,1,343.76,294.85Z"/><path d="M362.77,304H349.52c.05,6.29,3.31,8.59,7.64,8.59a10.73,10.73,0,0,0,4.94-1.2l.53,1a11.13,11.13,0,0,1-7.44,2.79c-5.86,0-9.36-4.42-9.36-9.89,0-7.06,5.09-10.8,9.45-10.8,4,0,7.59,2.35,7.59,7.87C362.87,302.87,362.82,303.4,362.77,304Zm-13.15-1.73h9.5c-.09-4-1.58-5.8-4.17-5.8C352.64,296.44,350.1,297.92,349.62,302.24Z"/><path d="M377,305.22c0-5.71,3.74-10.71,10.12-10.71,5.43,0,9.56,3.7,9.56,9.94,0,5.67-3.79,10.71-10,10.71C381.11,315.16,377,311.41,377,305.22Zm15.93.43c0-5.28-2.83-9.21-6.57-9.21-3.17,0-5.67,2.35-5.67,7.53s2.69,9.27,6.58,9.27C390.61,313.24,393,310.79,393,305.65Z"/><path d="M400.11,312.52H403l.24-.24V297.73l-.24-.29h-2.88v-2.16H403l.24-.24v-1.29c0-9.75,2.5-13.49,8.69-13.49a12.3,12.3,0,0,1,4.47.81v5.76h-.24l-2.64-3.36a4.78,4.78,0,0,0-3.08-1.05c-2.64,0-3.84,2.21-3.84,6.81V295l.24.24h7v2.16h-7l-.24.29v14.55l.24.24h3.6v2.16H400.11Z"/><path d="M428.19,309.06V297.68l-.24-.24h-2.88v-.24l6.24-8.21h.24v6.29H438v2.16h-6.48v9c0,4.85.72,6.48,3.51,6.48a9.18,9.18,0,0,0,3.16-.53l.53,1a10.34,10.34,0,0,1-5.52,1.78C429.82,315.16,428.19,313.62,428.19,309.06Z"/><path d="M463.81,312.52v2.16H454v-2.16h3.12l.24-.24v-9.12c0-4.13-.87-5.57-4.42-5.57a26.09,26.09,0,0,0-5.33.67v14l.24.24h3.12v2.16H441.1v-2.16H444l.24-.24V284.91L441,283.38v-.24l6.29-3,.28.15v17c2.79-1.78,5-2.79,6.87-2.79,4.32,0,6.24,2,6.24,5.62v12.15l.24.24Z"/><path d="M484.06,304H470.82c0,6.29,3.31,8.59,7.63,8.59a10.73,10.73,0,0,0,4.94-1.2l.53,1a11.11,11.11,0,0,1-7.44,2.79c-5.86,0-9.36-4.42-9.36-9.89,0-7.06,5.09-10.8,9.46-10.8,4,0,7.58,2.35,7.58,7.87C484.16,302.87,484.11,303.4,484.06,304Zm-13.15-1.73h9.51c-.1-4-1.59-5.8-4.18-5.8C473.94,296.44,471.39,297.92,470.91,302.24Z"/><path d="M520,312.52v2.16H513.3v-2.31c-2.36,1.44-4.9,2.79-7.44,2.79-4.76,0-7.54-4.8-7.54-9.75,0-5.47,3.17-10.9,10-10.9a11.62,11.62,0,0,1,5,1V284.91l-3.22-1.53v-.24l6.29-3,.29.15v32l.24.24Zm-6.72-.92V299.41a5.78,5.78,0,0,0-5.48-3c-4.22,0-5.81,3.07-5.81,7.92,0,4.46,1.69,8,5.86,8A21.33,21.33,0,0,0,513.3,311.6Z"/><path d="M540.75,312.52v2.16h-6.48v-2c-2.26,1.54-4.22,2.45-6.34,2.45a4.49,4.49,0,0,1-4.8-4.61c0-4.42,4.66-6.05,11.14-6.34v-1.49c0-3.79-.86-5.61-4.37-5.61a9.68,9.68,0,0,0-5.57,1.82l-.62-1.15a10.2,10.2,0,0,1,7.49-3.27c3.89,0,6.43,2.26,6.43,6.29v11.48l.24.24Zm-6.48-.68v-6.09c-4.08.29-7.73,1-7.73,4.17,0,1.88,1.3,2.74,3.12,2.74A14.74,14.74,0,0,0,534.27,311.84Z"/><path d="M566.48,312.52v2.16h-9.84v-2.16h3.12l.24-.24v-9.12c0-4.13-.87-5.57-4.42-5.57a26.09,26.09,0,0,0-5.33.67v14l.24.24h3.12v2.16h-9.84v-2.16h2.88l.24-.24V299.22l-3.21-1.54v-.24l5.81-3,.28.14.39,2.74c2.83-1.83,5.09-2.84,7-2.84,4.32,0,6.24,2,6.24,5.62v12.15l.24.24Z"/><path d="M569.79,305.41c0-7,4.75-10.9,10.18-10.9a12.52,12.52,0,0,1,5.28,1.06v5.67H585l-2.84-3.6a4.67,4.67,0,0,0-3.31-1.16c-3.45,0-5.37,3-5.37,7.4,0,6.14,3,8.68,7.1,8.68a10.73,10.73,0,0,0,4.94-1.2l.53,1a10.58,10.58,0,0,1-7.2,2.79C572.77,315.16,569.79,310.64,569.79,305.41Z"/><path d="M606.13,304H592.88c0,6.29,3.31,8.59,7.63,8.59a10.8,10.8,0,0,0,5-1.2l.52,1a11.09,11.09,0,0,1-7.44,2.79c-5.85,0-9.36-4.42-9.36-9.89,0-7.06,5.09-10.8,9.46-10.8,4,0,7.58,2.35,7.58,7.87C606.22,302.87,606.18,303.4,606.13,304ZM593,302.24h9.51c-.1-4-1.59-5.8-4.18-5.8C596,296.44,593.45,297.92,593,302.24Z"/><path d="M641.26,304.26c0,5.47-3.65,10.9-10,10.9a10,10,0,0,1-4.9-1.16v9.32l.24.24h3.6v2.16H619.9v-2.16h2.88l.24-.24v-24.1l-3.22-1.54v-.24l5.81-3,.29.14.43,2.74c2.36-1.54,4.61-2.84,7.3-2.84C638.43,294.51,641.26,299.32,641.26,304.26Zm-3.69,1.06c0-4.47-1.68-8-5.86-8a19.49,19.49,0,0,0-5.33.86v12.05a5.68,5.68,0,0,0,5.38,3C635.5,313.24,637.57,310.16,637.57,305.32Z"/><path d="M644.81,312.52h2.88l.24-.24V299.22l-3.21-1.54v-.24l6.28-2.93.29.15v17.62l.24.24h2.88v2.16h-9.6Zm1.83-25.59a2.62,2.62,0,1,1,2.64,2.59A2.66,2.66,0,0,1,646.64,286.93Z"/><path d="M674.67,304H661.42c.05,6.29,3.31,8.59,7.63,8.59a10.77,10.77,0,0,0,5-1.2l.53,1a11.14,11.14,0,0,1-7.45,2.79c-5.85,0-9.36-4.42-9.36-9.89,0-7.06,5.09-10.8,9.46-10.8,4,0,7.59,2.35,7.59,7.87C674.77,302.87,674.72,303.4,674.67,304Zm-13.15-1.73H671c-.1-4-1.58-5.8-4.18-5.8C664.54,296.44,662,297.92,661.52,302.24Z"/><path d="M678.36,305.41c0-7,4.76-10.9,10.18-10.9a12.48,12.48,0,0,1,5.28,1.06v5.67h-.24l-2.83-3.6a4.69,4.69,0,0,0-3.31-1.16c-3.46,0-5.38,3-5.38,7.4,0,6.14,3,8.68,7.1,8.68a10.77,10.77,0,0,0,5-1.2l.53,1a10.61,10.61,0,0,1-7.2,2.79C681.34,315.16,678.36,310.64,678.36,305.41Z"/><path d="M714.7,304H701.45c0,6.29,3.31,8.59,7.63,8.59a10.74,10.74,0,0,0,4.95-1.2l.53,1a11.13,11.13,0,0,1-7.44,2.79c-5.86,0-9.36-4.42-9.36-9.89,0-7.06,5.08-10.8,9.45-10.8,4,0,7.59,2.35,7.59,7.87C714.8,302.87,714.75,303.4,714.7,304Zm-13.15-1.73h9.5c-.09-4-1.58-5.8-4.17-5.8C704.57,296.44,702,297.92,701.55,302.24Z"/><path d="M734.67,290.72c0,4.52-3.17,7.59-8.59,9.27l-.68,5.95h-1.68l-.62-6.67c4.61-1.35,7.63-4.08,7.63-8.31,0-3.45-1.87-6.24-5.23-6.24-2.83,0-4.66,1.87-6.19,5.14L716.38,287a11.35,11.35,0,0,1,9.36-4.28C731.45,282.75,734.67,286.16,734.67,290.72Zm-7.06,21.89a2.81,2.81,0,1,1-2.83-2.83A2.84,2.84,0,0,1,727.61,312.61Z"/><path d="M2.34,515.86H6l.24-.24V491.47l-4.33-2.88v-.72H16.75v.72l-4.56,2.88v24.25h9.12L25,509.38h.91v9.7H2.34Z"/><path d="M46.41,515.09l.91,1.68a12.35,12.35,0,0,1-7.73,2.79c-5.71,0-10.13-4-10.13-10.32s4.23-11,10.13-11c4.9,0,7.92,3.31,7.92,8.06a12.41,12.41,0,0,1-.24,2.59H35.37c.34,4.61,2.54,7.44,6.48,7.44A10.21,10.21,0,0,0,46.41,515.09Zm-11-8.73h6.82c-.1-4-1.3-5.38-3.27-5.38S35.56,502.85,35.37,506.36Z"/><path d="M51.88,513.27v-11l-.24-.24H49v-.63l7.83-8.16h.62v5.72h6.39V502H57.4v9c0,3.84.72,5.19,2.64,5.19a8.33,8.33,0,0,0,3.55-1.06l.91,1.68a11.28,11.28,0,0,1-7.2,2.79C53.85,519.56,51.88,517.88,51.88,513.27Z"/><path d="M74.1,488.31c0,4-2.64,7-7.2,8.54l-1.05-2c2.25-1,3.6-2.11,4-3.55a3.6,3.6,0,0,1,.58-7.15C72.71,484.18,74.1,486,74.1,488.31Z"/><path d="M73.62,518v-6.91h.63l2.64,3.27a5.8,5.8,0,0,0,4.32,2.44c1.78,0,2.5-.91,2.5-2,0-2-2.5-2.64-4.9-4-3.65-2.11-5.14-3.79-5.14-6.72,0-3.64,3.17-5.8,8-5.8a15.72,15.72,0,0,1,5.67,1v6.48h-.63l-2.78-3.31a4.48,4.48,0,0,0-3-1.39c-1.49,0-2.25.86-2.25,1.87,0,1.78,2,2.74,4.61,4,3.69,1.88,5.42,3.6,5.42,6.44,0,3.89-2.88,6.24-7.82,6.24A18.8,18.8,0,0,1,73.62,518Z"/><path d="M101.85,513.27v-11l-.24-.24H98.92v-.63l7.82-8.16h.63v5.72h6.38V502h-6.38v9c0,3.84.72,5.19,2.64,5.19a8.33,8.33,0,0,0,3.55-1.06l.91,1.68a11.28,11.28,0,0,1-7.2,2.79C103.82,519.56,101.85,517.88,101.85,513.27Z"/><path d="M124.17,503.91v11.85l.24.24h2.88v3.08h-11V516h2.16l.24-.24V504.15l-3.08-1.87v-.63l7.21-3.69.62.33.62,3.46c2.36-2.16,4.52-3.55,6.34-3.55a3.26,3.26,0,0,1,1.39.24v6.19a21.75,21.75,0,0,0-6-.82C125.22,503.81,124.7,503.86,124.17,503.91Z"/><path d="M134.39,528.2v-.43l9.79-8.31-8.11-17.23L133,499.59v-.67h11.81v.62l-2.69,2.69,4.47,10.22h.28l4.52-10.22-2.64-2.64v-.67h9.07v.62l-3.07,2.69-8.4,17.9-5.48,10.71Z"/><path d="M167.89,516h2.16l.24-.24V504.15l-3.07-1.92v-.58l8-3.79.62.29v17.61l.24.24h2.16v3.08H167.89Zm1.64-25a3.34,3.34,0,1,1,3.36,3.36A3.32,3.32,0,0,1,169.53,491Z"/><path d="M182.1,513.27v-11l-.24-.24h-2.69v-.63L187,493.2h.62v5.72H194V502h-6.39v9c0,3.84.72,5.19,2.64,5.19a8.29,8.29,0,0,0,3.55-1.06l.92,1.68a11.33,11.33,0,0,1-7.2,2.79C184.07,519.56,182.1,517.88,182.1,513.27Z"/><path d="M197.75,516.2a3.6,3.6,0,1,1,3.6,3.6A3.62,3.62,0,0,1,197.75,516.2Z"/></g></g></svg>