<svg xmlns="http://www.w3.org/2000/svg" viewBox="0 0 203.08 46.66"><title>Asset 79intro-p-3</title><g id="Layer_2" data-name="Layer 2"><g id="Layer_1-2" data-name="Layer 1"><path d="M.48,31.68h3.6l.24-.24V7.3L0,4.42V3.7H14.88v.72L10.32,7.3V31.54h9.12l3.65-6.34H24v9.7H.48Z"/><path d="M44.55,30.92l.91,1.68a12.36,12.36,0,0,1-7.73,2.78c-5.71,0-10.13-4-10.13-10.32s4.22-11,10.13-11c4.9,0,7.92,3.31,7.92,8.06a13.06,13.06,0,0,1-.24,2.59H33.5c.34,4.61,2.55,7.45,6.49,7.45A10.35,10.35,0,0,0,44.55,30.92Zm-11-8.74h6.82c-.09-4-1.29-5.38-3.26-5.38S33.7,18.67,33.5,22.18Z"/><path d="M50,29.09v-11l-.24-.24H47.09v-.62L54.91,9h.63v5.71h6.38v3.07H55.54v9c0,3.84.72,5.18,2.64,5.18a8.49,8.49,0,0,0,3.55-1l.91,1.68a11.33,11.33,0,0,1-7.2,2.78C52,35.38,50,33.7,50,29.09Z"/><path d="M72.24,4.13c0,4-2.64,7-7.2,8.54l-1.06-2c2.26-1,3.6-2.12,4-3.56A3.56,3.56,0,0,1,65,3.6,3.56,3.56,0,0,1,68.54,0C70.85,0,72.24,1.82,72.24,4.13Z"/><path d="M71.76,33.79V26.88h.62L75,30.15a5.83,5.83,0,0,0,4.32,2.45c1.78,0,2.5-.92,2.5-2,0-2-2.5-2.64-4.9-4-3.64-2.12-5.13-3.8-5.13-6.72,0-3.65,3.17-5.81,8-5.81a15.42,15.42,0,0,1,5.66,1v6.48h-.62L82,18.19a4.46,4.46,0,0,0-3-1.39c-1.49,0-2.26.87-2.26,1.87,0,1.78,2,2.74,4.61,4,3.7,1.87,5.43,3.6,5.43,6.43,0,3.89-2.88,6.24-7.83,6.24A18.75,18.75,0,0,1,71.76,33.79Z"/><path d="M100,29.09v-11l-.24-.24H97.05v-.62L104.88,9h.62v5.71h6.39v3.07H105.5v9c0,3.84.72,5.18,2.64,5.18a8.49,8.49,0,0,0,3.56-1l.91,1.68a11.37,11.37,0,0,1-7.2,2.78C102,35.38,100,33.7,100,29.09Z"/><path d="M122.3,19.73V31.59l.24.24h2.88V34.9h-11V31.83h2.16l.24-.24V20l-3.07-1.87v-.63l7.2-3.69.63.33.62,3.46c2.35-2.16,4.51-3.55,6.34-3.55a3.45,3.45,0,0,1,1.39.24v6.19a21.75,21.75,0,0,0-6-.82C123.36,19.63,122.83,19.68,122.3,19.73Z"/><path d="M132.53,44v-.43l9.79-8.31-8.11-17.23-3.12-2.64v-.67H142.9v.62l-2.69,2.69,4.46,10.22H145l4.51-10.22-2.64-2.64v-.67h9.07v.62l-3.07,2.69L144.43,36,139,46.66Z"/><path d="M166,31.83h2.16l.24-.24V20l-3.07-1.92v-.58l8-3.79L174,14V31.59l.24.24h2.16V34.9H166Zm1.63-25A3.34,3.34,0,1,1,171,10.23,3.33,3.33,0,0,1,167.66,6.87Z"/><path d="M180.24,29.09v-11l-.24-.24h-2.69v-.62L185.13,9h.63v5.71h6.38v3.07h-6.38v9c0,3.84.72,5.18,2.64,5.18a8.45,8.45,0,0,0,3.55-1l.91,1.68a11.33,11.33,0,0,1-7.2,2.78C182.21,35.38,180.24,33.7,180.24,29.09Z"/><path d="M195.88,32a3.63,3.63,0,0,1,3.6-3.6,3.6,3.6,0,1,1,0,7.2A3.63,3.63,0,0,1,195.88,32Z"/></g></g></svg>