<svg xmlns="http://www.w3.org/2000/svg" viewBox="0 0 799.96 92.88"><title>Asset 77intro-p-1</title><g id="Layer_2" data-name="Layer 2"><g id="Layer_1-2" data-name="Layer 1"><path d="M48.29,3.36v.72L44,7,33.7,34.56H31.44L24.87,16.13,17.28,34.56H15.07L4.56,7,.24,4.08V3.36H15.36v.72L11,7l6.67,18.87h.2l5.28-14.4L20.31,3.36h6.43l7.15,22.47h.19L40.18,7,35.86,4.08V3.36Z"/><path d="M72.91,31.49v3.07H62.59V31.49h2.16l.24-.24V22.71c0-3.84-1.1-4.9-3.84-4.9a14.59,14.59,0,0,0-3.69.58V31.25l.24.24h2.16v3.07H49.54V31.49H51.7l.24-.24V6.34L48.86,4.42V3.84L56.79,0l.67.34V16.47c2.73-1.78,4.7-2.79,7.25-2.79,3.4,0,5.8,1.68,5.8,5.62v12l.24.24Z"/><path d="M93.7,31.49v3.07H85.78V32.88a10.84,10.84,0,0,1-6,2.21c-2.31,0-4.76-1.2-4.76-4.75s2.4-6.39,10.71-7.25v-.86c0-3.27-1.11-4.95-3.89-4.95a9.41,9.41,0,0,0-5,1.78l-.91-1.83a11.26,11.26,0,0,1,8.3-3.55c5,0,7.06,2.88,7.06,8.21v9.36l.24.24Zm-7.92-.29V25.44C82,25.78,80.5,26.83,80.45,29c0,1.82,1.1,2.63,2.73,2.63A10.45,10.45,0,0,0,85.78,31.2Z"/><path d="M97.78,28.75v-11l-.24-.24H94.85v-.62l7.82-8.16h.63V14.4h6.38v3.07H103.3v9c0,3.84.72,5.18,2.64,5.18a8.35,8.35,0,0,0,3.55-1.05l.91,1.68A11.33,11.33,0,0,1,103.2,35C99.74,35,97.78,33.36,97.78,28.75Z"/><path d="M154.42,14.4V15l-3.08,2.68L143.9,35h-2.11l-4-10.32L132,35h-2l-7.68-17.33-2.93-2.64V14.4h11.81V15l-2.88,2.68L132.53,28h.24l3.69-6.68-2.3-5.9,5.42-1.59L144,27.7h.24l3.74-10L145.06,15V14.4Z"/><path d="M154.17,24.87c0-6.34,4.23-11.19,10.47-11.19,5.62,0,9.89,3.89,9.89,10.42S170.16,35,164.06,35C158.21,35,154.17,31,154.17,24.87Zm14.5,1.1c0-5.47-2.11-9.31-5-9.31-2.26,0-3.65,2.3-3.65,6.24,0,5.47,2.11,9.31,5,9.31C167.28,32.21,168.67,29.91,168.67,26Z"/><path d="M200,31.49v3.07H192.1V31.68c-2.36,2-4.28,3.36-7.06,3.36-3.6,0-5.52-2-5.52-5.66V20l-3.07-1.92v-.58l7.92-3.84L185,14V26.35c0,3.41,1.1,4.47,3.74,4.47a12,12,0,0,0,3.32-.48V19.68L189,17.76v-.57l7.92-3.84.68.33V31.25l.19.24Z"/><path d="M202.17,31.49h2.16l.24-.24V6.34L201.5,4.42V3.84L209.42,0l.67.34V31.25l.24.24h2.17v3.07H202.17Z"/><path d="M237.17,31.49v3.07h-7.92V32.07c-2.31,1.72-4.08,3-6.53,3-4.61,0-7.44-4.41-7.44-9.84,0-6.57,4.32-11.52,10.37-11.52a8.64,8.64,0,0,1,3.6.72V6.34l-3.08-1.92V3.84l8-3.84.63.34V31.25l.24.24Zm-7.92-1V19.06a4.19,4.19,0,0,0-3.75-2.5c-2.83,0-4.37,2.59-4.37,7.11,0,4.8,1.88,7.25,5.09,7.25A12.37,12.37,0,0,0,229.25,30.48Z"/><path d="M248.83,24.87c0-6.29,4.17-11.19,10.89-11.19a16.41,16.41,0,0,1,5.62,1.06v7.73h-.62l-3.65-4.9a3.91,3.91,0,0,0-2.64-1.1c-2.45,0-3.75,2.3-3.75,6.57,0,6,3.12,8.69,6.44,8.69a7.81,7.81,0,0,0,4.17-1.15l.92,1.68A11.13,11.13,0,0,1,258.67,35C252.67,35,248.83,31,248.83,24.87Z"/><path d="M291.55,31.49v3.07H281.23V31.49h2.16l.24-.24V22.71c0-3.84-1.1-4.9-3.84-4.9a14.59,14.59,0,0,0-3.7.58V31.25l.24.24h2.16v3.07H268.17V31.49h2.16l.24-.24V6.34L267.5,4.42V3.84L275.42,0l.67.34V16.47c2.74-1.78,4.71-2.79,7.25-2.79,3.41,0,5.81,1.68,5.81,5.62v12l.24.24Z"/><path d="M293.9,24.87c0-6.34,4.22-11.19,10.47-11.19,5.61,0,9.88,3.89,9.88,10.42S309.89,35,303.79,35C297.93,35,293.9,31,293.9,24.87ZM308.4,26c0-5.47-2.11-9.31-5-9.31-2.26,0-3.65,2.3-3.65,6.24,0,5.47,2.11,9.31,5,9.31C307,32.21,308.4,29.91,308.4,26Z"/><path d="M325,19.39V31.25l.24.24h2.88v3.07h-11V31.49h2.16l.24-.24V19.63l-3.07-1.87v-.62l7.2-3.7.63.34.62,3.45c2.35-2.16,4.51-3.55,6.34-3.55a3.45,3.45,0,0,1,1.39.24v6.19a22.14,22.14,0,0,0-6-.81C326.06,19.3,325.53,19.35,325,19.39Z"/><path d="M351.45,30.58l.92,1.68A12.36,12.36,0,0,1,344.64,35c-5.72,0-10.13-4-10.13-10.32s4.22-11,10.13-11c4.89,0,7.92,3.31,7.92,8.07a13.19,13.19,0,0,1-.24,2.59H340.41c.34,4.61,2.55,7.44,6.48,7.44A10.21,10.21,0,0,0,351.45,30.58Zm-11-8.74h6.82c-.1-4-1.3-5.37-3.27-5.37S340.6,18.34,340.41,21.84Z"/><path d="M355.2,24.87c0-6.34,4.22-11.19,10.46-11.19,5.62,0,9.89,3.89,9.89,10.42S371.18,35,365.08,35C359.23,35,355.2,31,355.2,24.87ZM369.69,26c0-5.47-2.11-9.31-5-9.31-2.26,0-3.65,2.3-3.65,6.24,0,5.47,2.12,9.31,5,9.31C368.3,32.21,369.69,29.91,369.69,26Z"/><path d="M399.69,13.39v4.85l-.67.1-4-1.25a7.16,7.16,0,0,1,1.2,4.08c0,4.9-4.27,7.78-9.07,7.78a10.55,10.55,0,0,1-3.56-.58,3.66,3.66,0,0,0-.76,2.11c0,1.2.76,2,3.79,2h4.61c4.36,0,6.72,1.49,6.72,4.75,0,5.33-5.76,8.74-13.49,8.74-4.95,0-7.54-1.54-7.54-4.22,0-1.83,1.2-3.51,3.46-5a3.52,3.52,0,0,1-1.73-3.17c0-2,1.2-4,3.31-6a6.51,6.51,0,0,1-3-5.66c0-4.85,4.17-8.21,9-8.21a9.12,9.12,0,0,1,5.62,1.83l6-2.26Zm-17.57,24a4.66,4.66,0,0,0-.76,2.54c0,2.11,1.58,3.07,4.56,3.07,3.69,0,7.15-1.34,7.15-3.64,0-1.49-1.44-1.68-3.46-1.68h-4.7A11.66,11.66,0,0,1,382.12,37.35Zm8.5-15.65c0-3.51-1.25-5.71-3.17-5.71-1.58,0-2.88,1.58-2.88,5.08s1.06,5.52,3.07,5.52C389.28,26.59,390.62,25.25,390.62,21.7Z"/><path d="M409.48,19.39V31.25l.24.24h2.88v3.07h-11V31.49h2.16l.24-.24V19.63l-3.07-1.87v-.62l7.2-3.7.62.34.63,3.45c2.35-2.16,4.51-3.55,6.33-3.55a3.47,3.47,0,0,1,1.4.24v6.19a22.14,22.14,0,0,0-6-.81C410.54,19.3,410,19.35,409.48,19.39Z"/><path d="M437.42,31.49v3.07H429.5V32.88a10.82,10.82,0,0,1-5.95,2.21c-2.31,0-4.76-1.2-4.76-4.75S421.2,24,429.5,23.09v-.86c0-3.27-1.1-4.95-3.89-4.95a9.41,9.41,0,0,0-5,1.78l-.91-1.83a11.26,11.26,0,0,1,8.3-3.55c5,0,7.06,2.88,7.06,8.21v9.36l.24.24Zm-7.92-.29V25.44c-3.74.34-5.28,1.39-5.33,3.56-.05,1.82,1.11,2.63,2.74,2.63A10.45,10.45,0,0,0,429.5,31.2Z"/><path d="M461.47,23.76c0,6.34-4.32,11.28-10.37,11.28a8.57,8.57,0,0,1-3.6-.72v8l.24.24h2.88V45.6h-11V42.53h2.16l.24-.24V19.63l-3.07-1.87v-.62l7.2-3.7.62.34.62,3c2.31-1.77,4.32-3.07,6.77-3.07C458.35,13.68,461.47,17.81,461.47,23.76Zm-5.86,1.3c0-4.8-1.87-7.25-4.7-7.25a14,14,0,0,0-3.41.43V29.86a4.27,4.27,0,0,0,3.79,2.3C454.17,32.16,455.61,29.43,455.61,25.06Z"/><path d="M487.77,31.49v3.07H477.45V31.49h2.16l.24-.24V22.71c0-3.84-1.1-4.9-3.84-4.9a14.52,14.52,0,0,0-3.69.58V31.25l.24.24h2.16v3.07H464.39V31.49h2.16l.24-.24V6.34l-3.07-1.92V3.84L471.64,0l.68.34V16.47c2.73-1.78,4.7-2.79,7.24-2.79,3.41,0,5.81,1.68,5.81,5.62v12l.24.24Z"/><path d="M488.68,43.68v-.43l9.8-8.3-8.12-17.24-3.12-2.64V14.4h11.81V15l-2.69,2.68,4.47,10.23h.29l4.51-10.23L503,15.07V14.4h9.07V15L509,17.71l-8.4,17.91-5.47,10.7Z"/><path d="M522,31.49h2.16l.24-.24V6.34l-3.08-1.92V3.84L529.19,0l.68.34V31.25l.24.24h2.16v3.07H522Z"/><path d="M534.81,24.87c0-6.34,4.22-11.19,10.46-11.19,5.62,0,9.89,3.89,9.89,10.42S550.79,35,544.7,35C538.84,35,534.81,31,534.81,24.87Zm14.5,1.1c0-5.47-2.12-9.31-5-9.31-2.25,0-3.64,2.3-3.64,6.24,0,5.47,2.11,9.31,5,9.31C547.91,32.21,549.31,29.91,549.31,26Z"/><path d="M558,24.87c0-6.34,4.22-11.19,10.47-11.19,5.61,0,9.88,3.89,9.88,10.42S574,35,567.93,35C562.07,35,558,31,558,24.87Zm14.5,1.1c0-5.47-2.11-9.31-5-9.31-2.26,0-3.65,2.3-3.65,6.24,0,5.47,2.11,9.31,5,9.31C571.15,32.21,572.54,29.91,572.54,26Z"/><path d="M589.24,31.49h2.16v3.07H581.08V31.49h2.16l.24-.24V6.34l-3.07-1.92V3.84L588.33,0l.67.34V31.25Zm15.12,0v3.07h-7.58l-7.4-10.75,6.15-6.53-2.74-2.69v-.43H603.4v.39l-8.49,7.82,6.48,9.12Z"/><path d="M615,31.49h2.16l.24-.24V6.34l-3.08-1.92V3.84L622.22,0l.67.34V31.25l.24.24h2.16v3.07H615Z"/><path d="M627.64,31.49h2.16l.24-.24V19.63L627,17.71v-.57l8-3.79.62.28V31.25l.24.24H638v3.07H627.64Zm1.63-25a3.34,3.34,0,1,1,3.36,3.36A3.33,3.33,0,0,1,629.27,6.53Z"/><path d="M648.09,31.49h2.16v3.07H639.93V31.49h2.16l.24-.24V6.34l-3.08-1.92V3.84L647.17,0l.68.34V31.25Zm15.12,0v3.07h-7.59l-7.39-10.75,6.15-6.53-2.74-2.69v-.43h10.61v.39l-8.5,7.82,6.48,9.12Z"/><path d="M681.11,30.58l.91,1.68A12.34,12.34,0,0,1,674.29,35c-5.71,0-10.12-4-10.12-10.32s4.22-11,10.12-11c4.9,0,7.92,3.31,7.92,8.07a13.12,13.12,0,0,1-.23,2.59H670.07c.34,4.61,2.54,7.44,6.48,7.44A10.21,10.21,0,0,0,681.11,30.58Zm-11-8.74h6.82c-.1-4-1.3-5.37-3.27-5.37S670.26,18.34,670.07,21.84Z"/><path d="M694,31.49h2.16l.24-.24V19.63l-3.07-1.92v-.57l8-3.79.62.28V31.25l.24.24h2.16v3.07H694Zm1.63-25A3.34,3.34,0,1,1,699,9.89,3.33,3.33,0,0,1,695.65,6.53Z"/><path d="M706.6,31.49h2.16l.24-.24V17.76l-.24-.29H706.6V14.4h2.16l.24-.24V12.63C709,3.79,712.21.14,718.41.14a12.85,12.85,0,0,1,4.46.82V7.54h-.38l-2.6-2.83c-1-1-1.68-1.64-2.92-1.64-1.64,0-2.45,1.2-2.45,4.56v6.53l.24.24h5.61v3.07h-5.61l-.24.29V31.25l.24.24h3.12v3.07H706.6Z"/><path d="M731.27,43.68v-.43l9.79-8.3L733,17.71l-3.12-2.64V14.4h11.81V15L739,17.71l4.46,10.23h.29l4.51-10.23-2.64-2.64V14.4h9.08V15l-3.08,2.68-8.4,17.91-5.47,10.7Z"/><path d="M754.16,24.87c0-6.34,4.23-11.19,10.47-11.19,5.61,0,9.89,3.89,9.89,10.42S770.15,35,764.05,35C758.2,35,754.16,31,754.16,24.87Zm14.5,1.1c0-5.47-2.11-9.31-5-9.31-2.26,0-3.65,2.3-3.65,6.24,0,5.47,2.11,9.31,5,9.31C767.27,32.21,768.66,29.91,768.66,26Z"/><path d="M800,31.49v3.07h-7.88V31.68c-2.35,2-4.27,3.36-7.05,3.36-3.6,0-5.52-2-5.52-5.66V20l-3.07-1.92v-.58l7.92-3.84L785,14V26.35c0,3.41,1.1,4.47,3.74,4.47a11.86,11.86,0,0,0,3.31-.48V19.68L789,17.76v-.57l7.92-3.84.67.33V31.25l.2.24Z"/><path d="M2.93,75.31,0,72.67V72H11.62v.62L8.93,75.31l4.42,10.32h.14l4.75-10.32-2.69-2.64V72h9v.62L21.6,75.31,13.3,92.64H11.09Z"/><path d="M25.54,89.09H27.7l.24-.24V77.23l-3.07-1.92v-.57l8-3.79.63.28V88.85l.24.24h2.16v3.07H25.54Zm1.63-25a3.34,3.34,0,1,1,3.36,3.36A3.32,3.32,0,0,1,27.17,64.13Z"/><path d="M38.5,91.06V84.15h.62l2.64,3.26a5.8,5.8,0,0,0,4.32,2.45c1.78,0,2.5-.91,2.5-2,0-2-2.5-2.64-4.9-4C40,81.7,38.54,80,38.54,77.09c0-3.65,3.17-5.81,8-5.81a15.73,15.73,0,0,1,5.67,1v6.48h-.63l-2.78-3.31a4.41,4.41,0,0,0-3-1.39c-1.49,0-2.26.86-2.26,1.87,0,1.77,2,2.73,4.61,4,3.69,1.87,5.42,3.6,5.42,6.43,0,3.89-2.88,6.24-7.82,6.24A18.94,18.94,0,0,1,38.5,91.06Z"/><path d="M78.43,89.09v3.07H70.56V89.28c-2.35,2-4.27,3.36-7.06,3.36-3.6,0-5.52-2-5.52-5.66V77.62L54.91,75.7v-.58l7.92-3.84.67.34V84c0,3.41,1.11,4.47,3.75,4.47a11.91,11.91,0,0,0,3.31-.48V77.28l-3.07-1.92v-.57L75.41,71l.67.33V88.85l.19.24Z"/><path d="M99.26,89.09v3.07H91.34V90.48a10.79,10.79,0,0,1-6,2.21c-2.3,0-4.75-1.2-4.75-4.75s2.4-6.39,10.7-7.25v-.86c0-3.27-1.1-5-3.88-5a9.38,9.38,0,0,0-5,1.78l-.92-1.83a11.28,11.28,0,0,1,8.31-3.55c5,0,7,2.88,7,8.21v9.36l.24.24Zm-7.92-.29V83c-3.74.34-5.28,1.39-5.32,3.55,0,1.83,1.1,2.64,2.73,2.64A10.38,10.38,0,0,0,91.34,88.8Z"/><path d="M101.42,89.09h2.16l.24-.24V63.94L100.75,62v-.58l7.92-3.84.67.34V88.85l.24.24h2.16v3.07H101.42Z"/><path d="M114.09,89.09h2.16l.25-.24V77.23l-3.08-1.92v-.57l8-3.79.63.28V88.85l.23.24h2.17v3.07H114.09Zm1.64-25a3.34,3.34,0,1,1,3.36,3.36A3.32,3.32,0,0,1,115.73,64.13Z"/><path d="M126.62,91.35l10.47-16v-.24h-6.44l-2.92,4.32h-.58V72h17.33v.91l-10.13,16v.19h6.91l2.79-4.32h.57v7.39h-18Z"/><path d="M164.3,88.18l.92,1.68a12.36,12.36,0,0,1-7.73,2.78c-5.72,0-10.13-4-10.13-10.32s4.22-11,10.13-11c4.89,0,7.92,3.31,7.92,8.07a13.19,13.19,0,0,1-.24,2.59H153.26c.34,4.61,2.55,7.44,6.48,7.44A10.21,10.21,0,0,0,164.3,88.18Zm-11-8.74h6.82c-.1-4-1.3-5.37-3.27-5.37S153.46,75.94,153.26,79.44Z"/><path d="M190.18,89.09v3.07h-7.93V89.67c-2.3,1.72-4.08,3-6.52,3-4.61,0-7.44-4.41-7.44-9.84,0-6.57,4.32-11.52,10.36-11.52a8.57,8.57,0,0,1,3.6.72V63.94L179.18,62v-.58l8-3.84.63.34V88.85l.24.24Zm-7.93-1V76.66a4.18,4.18,0,0,0-3.74-2.5c-2.83,0-4.37,2.59-4.37,7.11,0,4.8,1.87,7.24,5.09,7.24A12.24,12.24,0,0,0,182.25,88.08Z"/><path d="M201.88,89.09H204l.25-.24V77.23l-3.08-1.92v-.57l8-3.79.63.28V88.85l.23.24h2.17v3.07H201.88Zm1.64-25a3.34,3.34,0,1,1,3.36,3.36A3.32,3.32,0,0,1,203.52,64.13Z"/><path d="M216.09,86.35v-11l-.24-.24h-2.69v-.62L221,66.29h.62V72H228v3.07h-6.39v9c0,3.84.72,5.18,2.64,5.18a8.41,8.41,0,0,0,3.55-1l.92,1.68a11.37,11.37,0,0,1-7.2,2.78C218.06,92.64,216.09,91,216.09,86.35Z"/><path d="M272.73,72v.62l-3.07,2.69-7.44,17.33h-2.11l-4-10.32-5.76,10.32h-2l-7.68-17.33-2.93-2.64V72h11.81v.62l-2.88,2.69,4.17,10.32h.24l3.7-6.67-2.3-5.9,5.42-1.59,4.42,13.83h.24l3.74-10-2.93-2.65V72Z"/><path d="M273.74,89.09h2.16l.24-.24V77.23l-3.07-1.92v-.57L281,71l.62.28V88.85l.24.24h2.16v3.07H273.74Zm1.63-25a3.34,3.34,0,1,1,3.36,3.36A3.32,3.32,0,0,1,275.37,64.13Z"/><path d="M288,86.35v-11l-.24-.24H285v-.62l7.82-8.16h.63V72h6.38v3.07h-6.38v9c0,3.84.72,5.18,2.64,5.18a8.45,8.45,0,0,0,3.55-1l.91,1.68a11.33,11.33,0,0,1-7.2,2.78C289.92,92.64,288,91,288,86.35Z"/><path d="M325.58,89.09v3.07H315.26V89.09h2.16l.24-.24V80.31c0-3.84-1.11-4.9-3.84-4.9a14.59,14.59,0,0,0-3.7.58V88.85l.24.24h2.16v3.07H302.2V89.09h2.16l.24-.24V63.94L301.53,62v-.58l7.92-3.84.67.34V74.07c2.74-1.78,4.71-2.79,7.25-2.79,3.41,0,5.81,1.68,5.81,5.62V88.85l.24.24Z"/><path d="M327.93,82.47c0-6.34,4.22-11.19,10.46-11.19,5.62,0,9.89,3.89,9.89,10.42s-4.36,10.94-10.46,10.94C332,92.64,327.93,88.61,327.93,82.47Zm14.5,1.1c0-5.47-2.12-9.31-5-9.31-2.25,0-3.64,2.3-3.64,6.24,0,5.47,2.11,9.31,5,9.31C341,89.81,342.43,87.51,342.43,83.57Z"/><path d="M373.72,89.09v3.07h-7.87V89.28c-2.35,2-4.27,3.36-7.06,3.36-3.6,0-5.52-2-5.52-5.66V77.62L350.2,75.7v-.58l7.92-3.84.67.34V84c0,3.41,1.11,4.47,3.75,4.47a11.91,11.91,0,0,0,3.31-.48V77.28l-3.07-1.92v-.57L370.7,71l.67.33V88.85l.19.24Z"/><path d="M377.85,86.35v-11l-.24-.24h-2.69v-.62l7.83-8.16h.62V72h6.38v3.07h-6.38v9c0,3.84.72,5.18,2.64,5.18a8.45,8.45,0,0,0,3.55-1l.91,1.68a11.33,11.33,0,0,1-7.2,2.78C379.82,92.64,377.85,91,377.85,86.35Z"/><path d="M419.85,89.09v3.07h-7.92V90.48A10.84,10.84,0,0,1,406,92.69c-2.31,0-4.76-1.2-4.76-4.75s2.4-6.39,10.71-7.25v-.86c0-3.27-1.11-5-3.89-5a9.41,9.41,0,0,0-5,1.78l-.91-1.83a11.26,11.26,0,0,1,8.3-3.55c5,0,7.06,2.88,7.06,8.21v9.36l.24.24Zm-7.92-.29V83c-3.75.34-5.28,1.39-5.33,3.55-.05,1.83,1.1,2.64,2.74,2.64A10.45,10.45,0,0,0,411.93,88.8Z"/><path d="M453.45,89.09v3.07h-7.92V89.67c-2.31,1.72-4.08,3-6.53,3-4.61,0-7.44-4.41-7.44-9.84,0-6.57,4.32-11.52,10.37-11.52a8.64,8.64,0,0,1,3.6.72V63.94L442.46,62v-.58l8-3.84.63.34V88.85l.24.24Zm-7.92-1V76.66a4.19,4.19,0,0,0-3.75-2.5c-2.83,0-4.36,2.59-4.36,7.11,0,4.8,1.87,7.24,5.08,7.24A12.31,12.31,0,0,0,445.53,88.08Z"/><path d="M474.66,89.09v3.07h-7.92V90.48a10.79,10.79,0,0,1-5.95,2.21c-2.3,0-4.75-1.2-4.75-4.75s2.4-6.39,10.7-7.25v-.86c0-3.27-1.1-5-3.89-5a9.41,9.41,0,0,0-5,1.78l-.91-1.83a11.26,11.26,0,0,1,8.31-3.55c5,0,7.05,2.88,7.05,8.21v9.36l.24.24Zm-7.92-.29V83c-3.74.34-5.28,1.39-5.32,3.55-.05,1.83,1.1,2.64,2.73,2.64A10.38,10.38,0,0,0,466.74,88.8Z"/><path d="M500.34,89.14v3H490V89.09h2.16l.24-.24V80.31c0-3.84-1.1-4.9-3.84-4.9a14.59,14.59,0,0,0-3.69.58V88.85l.24.24h2.16v3.07H477V89.09h2.16l.24-.24V77.19l-3.08-1.88v-.62L483.5,71l.62.34.58,2.83c2.83-1.87,4.84-2.88,7.44-2.88,3.4,0,5.8,1.68,5.8,5.62V88.85l.24.29Z"/><path d="M502.69,82.47c0-6.29,4.18-11.19,10.9-11.19a16.5,16.5,0,0,1,5.62,1.06v7.73h-.63l-3.64-4.9a4,4,0,0,0-2.65-1.1c-2.44,0-3.74,2.3-3.74,6.57,0,6,3.12,8.69,6.43,8.69a7.82,7.82,0,0,0,4.18-1.15l.91,1.68a11.11,11.11,0,0,1-7.53,2.78C506.53,92.64,502.69,88.61,502.69,82.47Z"/><path d="M539.17,88.18l.92,1.68a12.36,12.36,0,0,1-7.73,2.78c-5.71,0-10.13-4-10.13-10.32s4.22-11,10.13-11c4.89,0,7.92,3.31,7.92,8.07a13.19,13.19,0,0,1-.24,2.59H528.13c.34,4.61,2.55,7.44,6.48,7.44A10.21,10.21,0,0,0,539.17,88.18Zm-11-8.74H535c-.1-4-1.3-5.37-3.26-5.37C529.57,74.07,528.33,75.94,528.13,79.44Z"/><path d="M550.79,77V88.85l.24.24h2.88v3.07h-11V89.09H545l.24-.24V77.23l-3.07-1.87v-.62l7.2-3.7.62.34.63,3.45c2.35-2.16,4.51-3.55,6.33-3.55a3.5,3.5,0,0,1,1.4.24v6.19a22.21,22.21,0,0,0-6-.81C551.85,76.9,551.32,77,550.79,77Z"/><path d="M578.63,67.63c0,4-2.88,7.4-8.93,9.7l-1.2,6.1H567l-1.34-6.34c4.61-2.59,6.72-5.23,6.72-9.12,0-2.79-1.54-4.85-3.94-4.85s-4.32,1.63-5.23,5.33l-4.08-2.93a11.32,11.32,0,0,1,10.18-5.28C575,60.24,578.63,63.17,578.63,67.63Zm-7.34,21.65a3.6,3.6,0,1,1-3.6-3.6A3.6,3.6,0,0,1,571.29,89.28Z"/></g></g></svg>