<svg xmlns="http://www.w3.org/2000/svg" viewBox="0 0 869.99 103.2"><title>Asset 78intro-p-2</title><g id="Layer_2" data-name="Layer 2"><g id="Layer_1-2" data-name="Layer 1"><path d="M43.78,3.36v.48L39.7,6.24,31,34.8H28.8L22.18,12.24,15.07,34.8H12.86L4.08,6.24,0,3.84V3.36H12.58v.48L8.26,6.24,14.4,29.81h.1L21,8.26l-1.44-4.9h4l7,26.45h.1L37.15,6.24l-4.32-2.4V3.36Z"/><path d="M42.1,25.11c0-5.72,3.74-10.71,10.12-10.71,5.43,0,9.56,3.7,9.56,9.94C61.78,30,58,35,51.75,35,46.18,35,42.1,31.3,42.1,25.11ZM58,25.54c0-5.28-2.83-9.22-6.57-9.22-3.17,0-5.67,2.35-5.67,7.54s2.69,9.26,6.58,9.26C55.68,33.12,58,30.67,58,25.54Z"/><path d="M87.22,32.4v2.16H80.74v-2.3C78,34,75.94,35,74.11,35c-4.17,0-6-2-6-5.61V19.25L64.9,17.71v-.24l6.28-3,.29.14V26.4c0,4.13.82,5.57,4.18,5.57a23.8,23.8,0,0,0,5.09-.67V19.2l-3.22-1.53v-.24l6.29-3,.29.15V32.16l.24.24Z"/><path d="M90.33,32.4h2.89l.24-.24V4.8L90.24,3.26V3l6.29-3,.29.14v32l.24.24h3.12v2.16H90.33Z"/><path d="M125.18,32.4v2.16h-6.72v-2.3C116.11,33.7,113.57,35,111,35c-4.75,0-7.53-4.8-7.53-9.74,0-5.47,3.17-10.9,10-10.9a11.54,11.54,0,0,1,5,1V4.8l-3.21-1.54V3l6.29-3,.28.14v32l.24.24Zm-6.72-.91V19.3a5.77,5.77,0,0,0-5.47-3c-4.22,0-5.81,3.07-5.81,7.92,0,4.47,1.68,8,5.86,8A21.18,21.18,0,0,0,118.46,31.49Z"/><path d="M138.81,32.4h2.88l.24-.24v-13l-3.21-1.54v-.24L145,14.4l.28.15V32.16l.24.24h2.89v2.16h-9.61Zm1.83-25.58a2.62,2.62,0,1,1,5.23,0,2.62,2.62,0,0,1-5.23,0Z"/><path d="M153.69,29V17.57l-.24-.24h-2.88v-.24l6.24-8.21h.24v6.29h6.48v2.16h-6.48v9c0,4.85.72,6.48,3.51,6.48a9.24,9.24,0,0,0,3.17-.53l.52,1A10.31,10.31,0,0,1,158.73,35C155.33,35,153.69,33.51,153.69,29Z"/><path d="M179.42,29V17.57l-.24-.24H176.3v-.24l6.24-8.21h.24v6.29h6.48v2.16h-6.48v9c0,4.85.72,6.48,3.5,6.48a9.24,9.24,0,0,0,3.17-.53l.53,1A10.34,10.34,0,0,1,184.46,35C181.05,35,179.42,33.51,179.42,29Z"/><path d="M209.33,23.86H196.08c0,6.29,3.31,8.59,7.63,8.59a10.73,10.73,0,0,0,4.94-1.2l.53,1A11.09,11.09,0,0,1,201.74,35c-5.86,0-9.36-4.41-9.36-9.89,0-7,5.09-10.8,9.46-10.8,4,0,7.58,2.36,7.58,7.88C209.42,22.75,209.37,23.28,209.33,23.86Zm-13.16-1.73h9.51c-.1-4-1.59-5.81-4.18-5.81C199.2,16.32,196.65,17.81,196.17,22.13Z"/><path d="M212.73,32.4h2.88l.24-.24V4.8l-3.21-1.54V3l6.28-3,.29.14v32l.24.24h3.12v2.16h-9.84Z"/><path d="M225.59,32.4h2.89l.23-.24V4.8L225.5,3.26V3l6.29-3,.29.14v32l.24.24h3.12v2.16h-9.85Z"/><path d="M270.91,32.4v2.16h-6.48v-2.3C261.69,34,259.63,35,257.8,35c-4.17,0-6-2-6-5.61V19.25l-3.21-1.54v-.24l6.28-3,.29.14V26.4c0,4.13.82,5.57,4.18,5.57a23.8,23.8,0,0,0,5.09-.67V19.2l-3.22-1.53v-.24l6.29-3,.29.15V32.16l.24.24Z"/><path d="M274.51,33.89v-5h.24l2.4,2.64A5.46,5.46,0,0,0,281,33.22c2,0,3.31-1,3.31-2.74,0-2.4-2.31-3.17-4.8-4.51-2.93-1.58-4.71-3.26-4.71-6,0-3.21,2.6-5.52,6.82-5.52a14.29,14.29,0,0,1,5.09.91v4.9h-.24L284,17.43a4.54,4.54,0,0,0-3.17-1.25c-1.92,0-3.12,1.1-3.12,2.69,0,2.25,2.26,3.31,4.52,4.51,2.44,1.34,5.08,2.74,5.08,6.05s-3,5.61-6.62,5.61A17.09,17.09,0,0,1,274.51,33.89Z"/><path d="M318.86,32.4v2.16h-6.48v-2C310.12,34.13,308.15,35,306,35a4.49,4.49,0,0,1-4.8-4.6c0-4.42,4.66-6.05,11.14-6.34V22.61c0-3.79-.87-5.62-4.37-5.62a9.62,9.62,0,0,0-5.57,1.83l-.62-1.15a10.15,10.15,0,0,1,7.49-3.27c3.88,0,6.43,2.26,6.43,6.29V32.16l.24.24Zm-6.48-.67v-6.1c-4.08.29-7.73,1-7.73,4.18,0,1.87,1.3,2.74,3.12,2.74A14.79,14.79,0,0,0,312.38,31.73Z"/><path d="M344.59,32.4v2.16h-9.84V32.4h3.12l.24-.24V23c0-4.13-.87-5.57-4.42-5.57a25.27,25.27,0,0,0-5.33.68v14l.24.24h3.12v2.16h-9.84V32.4h2.88l.24-.24v-13l-3.22-1.54v-.24l5.81-3,.29.15.38,2.73c2.84-1.82,5.09-2.83,7-2.83,4.32,0,6.24,2,6.24,5.62V32.16l.24.24Z"/><path d="M367.19,15.17v.14l-2.59,2.26-7.73,18.29-4.61,10.7-4.12-1.77,7-8.5L347,17.57l-2.73-2.16v-.24H354v.14l-3.13,2.31,5.91,14.21,5.57-14.26-3.41-2.16v-.24Z"/><path d="M370.84,29V17.57l-.24-.24h-2.88v-.24L374,8.88h.24v6.29h6.48v2.16H374.2v9c0,4.85.72,6.48,3.51,6.48a9.18,9.18,0,0,0,3.16-.53l.53,1A10.34,10.34,0,0,1,375.88,35C372.47,35,370.84,33.51,370.84,29Z"/><path d="M406.46,32.4v2.16h-9.84V32.4h3.12l.24-.24V23c0-4.13-.87-5.57-4.42-5.57a25.44,25.44,0,0,0-5.33.68v14l.24.24h3.12v2.16h-9.84V32.4h2.88l.24-.24V4.8l-3.21-1.54V3l6.28-3,.29.14V17.19c2.79-1.78,5-2.79,6.87-2.79,4.32,0,6.24,2,6.24,5.62V32.16l.24.24Z"/><path d="M409.48,32.4h2.88l.24-.24v-13l-3.22-1.54v-.24l6.29-2.93.29.15V32.16l.24.24h2.88v2.16h-9.6ZM411.3,6.82a2.62,2.62,0,1,1,5.24,0,2.62,2.62,0,0,1-5.24,0Z"/><path d="M444.81,32.4v2.16H435V32.4h3.12l.24-.24V23c0-4.13-.87-5.57-4.42-5.57a25.44,25.44,0,0,0-5.33.68v14l.24.24h3.12v2.16H422.1V32.4H425l.24-.24v-13L422,17.57v-.24l5.81-3,.28.15.39,2.73c2.83-1.82,5.09-2.83,7-2.83,4.32,0,6.24,2,6.24,5.62V32.16l.24.24Z"/><path d="M467.71,18.19l-4.57-.43a7.8,7.8,0,0,1,1.06,4.13c0,5.09-4.27,7.78-8.35,7.78a8.19,8.19,0,0,1-3.17-.58,4.38,4.38,0,0,0-1,2.45c0,1.34.87,2,5.19,2h1.24c5.62,0,7.88,1.39,7.88,4.32,0,5.52-6.1,7.77-11.52,7.77-4.18,0-7.11-1.29-7.11-4.12,0-2.26,1.83-3.51,3.36-4.9a2.82,2.82,0,0,1-2.35-2.93c0-1.92,1.87-3.69,3.5-4.94a6.64,6.64,0,0,1-3.45-6.1,7.94,7.94,0,0,1,8.25-8.21,7.46,7.46,0,0,1,5.48,2.07l5.57-2.31ZM451.77,36.77a6.86,6.86,0,0,0-1.11,3.55c0,2.55,1.73,3.6,4.42,3.6,3.31,0,7.82-1.68,7.82-4.6,0-1.64-1.39-2.36-4.41-2.36h-3.55A20.06,20.06,0,0,1,451.77,36.77Zm8.88-14.06c0-4.28-1.87-6.72-4.37-6.72S452,17.76,452,21.55c0,4.13,1.63,6.49,4.32,6.49S460.65,26.45,460.65,22.71Z"/><path d="M480.37,32.4h2.88l.24-.24v-13l-3.21-1.54v-.24l6.29-2.93.28.15V32.16l.24.24H490v2.16h-9.61ZM482.2,6.82a2.62,2.62,0,1,1,5.23,0,2.62,2.62,0,0,1-5.23,0Z"/><path d="M515.7,32.4v2.16h-9.84V32.4H509l.24-.24V23c0-4.13-.86-5.57-4.41-5.57a25.27,25.27,0,0,0-5.33.68v14l.24.24h3.12v2.16H493V32.4h2.88l.24-.24v-13l-3.22-1.54v-.24l5.81-3,.29.15.38,2.73c2.83-1.82,5.09-2.83,7-2.83,4.32,0,6.24,2,6.24,5.62V32.16l.24.24Z"/><path d="M521,29V17.57l-.24-.24h-2.88v-.24l6.24-8.21h.24v6.29h6.48v2.16h-6.48v9c0,4.85.72,6.48,3.51,6.48a9.18,9.18,0,0,0,3.16-.53l.53,1A10.34,10.34,0,0,1,526,35C522.61,35,521,33.51,521,29Z"/><path d="M550.89,23.86H537.64c.05,6.29,3.31,8.59,7.63,8.59a10.73,10.73,0,0,0,4.94-1.2l.53,1A11.09,11.09,0,0,1,543.3,35c-5.85,0-9.36-4.41-9.36-9.89,0-7,5.09-10.8,9.46-10.8,4,0,7.58,2.36,7.58,7.88C551,22.75,550.94,23.28,550.89,23.86Zm-13.16-1.73h9.51c-.1-4-1.59-5.81-4.18-5.81C540.76,16.32,538.21,17.81,537.73,22.13Z"/><path d="M568.26,14.74v3.5a12.79,12.79,0,0,0-2.45-.24,23,23,0,0,0-5,.67V32.16l.24.24h3.6v2.16H554.29V32.4h2.88l.24-.24v-13l-3.21-1.54v-.24l5.8-3,.29.15.48,3.26c2-1.49,4.71-3.36,6.29-3.36A2.21,2.21,0,0,1,568.26,14.74Z"/><path d="M587.27,23.86H574c.05,6.29,3.31,8.59,7.63,8.59a10.77,10.77,0,0,0,5-1.2l.53,1A11.13,11.13,0,0,1,579.69,35c-5.86,0-9.37-4.41-9.37-9.89,0-7,5.09-10.8,9.46-10.8,4,0,7.59,2.36,7.59,7.88C587.37,22.75,587.32,23.28,587.27,23.86Zm-13.15-1.73h9.5c-.09-4-1.58-5.81-4.17-5.81C577.14,16.32,574.6,17.81,574.12,22.13Z"/><path d="M591.16,33.89v-5h.24l2.4,2.64a5.46,5.46,0,0,0,3.84,1.73c2,0,3.31-1,3.31-2.74,0-2.4-2.31-3.17-4.8-4.51-2.93-1.58-4.71-3.26-4.71-6,0-3.21,2.6-5.52,6.82-5.52a14.29,14.29,0,0,1,5.09.91v4.9h-.24l-2.5-2.78a4.54,4.54,0,0,0-3.17-1.25c-1.92,0-3.12,1.1-3.12,2.69,0,2.25,2.26,3.31,4.52,4.51,2.45,1.34,5.08,2.74,5.08,6.05S601,35,597.3,35A17.09,17.09,0,0,1,591.16,33.89Z"/><path d="M609.54,29V17.57l-.24-.24h-2.88v-.24l6.24-8.21h.24v6.29h6.48v2.16H612.9v9c0,4.85.72,6.48,3.5,6.48a9.24,9.24,0,0,0,3.17-.53l.53,1A10.34,10.34,0,0,1,614.58,35C611.17,35,609.54,33.51,609.54,29Z"/><path d="M622.45,32.4h2.88l.24-.24v-13l-3.21-1.54v-.24l6.28-2.93.29.15V32.16l.24.24h2.88v2.16h-9.6Zm1.83-25.58a2.62,2.62,0,1,1,5.23,0,2.62,2.62,0,0,1-5.23,0Z"/><path d="M657.78,32.4v2.16h-9.84V32.4h3.12l.24-.24V23c0-4.13-.86-5.57-4.42-5.57a25.44,25.44,0,0,0-5.33.68v14l.24.24h3.13v2.16h-9.85V32.4H638l.23-.24v-13L635,17.57v-.24l5.81-3,.29.15.38,2.73c2.83-1.82,5.09-2.83,7-2.83,4.32,0,6.24,2,6.24,5.62V32.16l.24.24Z"/><path d="M680.68,18.19l-4.56-.43a7.89,7.89,0,0,1,1,4.13c0,5.09-4.27,7.78-8.35,7.78a8.19,8.19,0,0,1-3.17-.58,4.38,4.38,0,0,0-1,2.45c0,1.34.87,2,5.19,2h1.25c5.61,0,7.87,1.39,7.87,4.32,0,5.52-6.1,7.77-11.52,7.77-4.18,0-7.11-1.29-7.11-4.12,0-2.26,1.83-3.51,3.36-4.9a2.82,2.82,0,0,1-2.35-2.93c0-1.92,1.87-3.69,3.5-4.94a6.64,6.64,0,0,1-3.45-6.1,7.94,7.94,0,0,1,8.25-8.21,7.46,7.46,0,0,1,5.48,2.07l5.57-2.31ZM664.74,36.77a6.86,6.86,0,0,0-1.11,3.55c0,2.55,1.73,3.6,4.42,3.6,3.31,0,7.83-1.68,7.83-4.6,0-1.64-1.4-2.36-4.42-2.36h-3.55A20.06,20.06,0,0,1,664.74,36.77Zm8.88-14.06c0-4.28-1.87-6.72-4.37-6.72S665,17.76,665,21.55c0,4.13,1.63,6.49,4.32,6.49S673.62,26.45,673.62,22.71Z"/><path d="M711,32.4v2.16h-6.48v-2c-2.26,1.53-4.22,2.44-6.34,2.44a4.49,4.49,0,0,1-4.8-4.6c0-4.42,4.66-6.05,11.14-6.34V22.61c0-3.79-.86-5.62-4.37-5.62a9.62,9.62,0,0,0-5.57,1.83L694,17.67a10.16,10.16,0,0,1,7.49-3.27c3.89,0,6.43,2.26,6.43,6.29V32.16l.24.24Zm-6.48-.67v-6.1c-4.08.29-7.73,1-7.73,4.18,0,1.87,1.3,2.74,3.12,2.74A14.74,14.74,0,0,0,704.53,31.73Z"/><path d="M734,24.15C734,29.71,730.79,35,723.59,35a19.29,19.29,0,0,1-7.83-1.58V4.8l-3.21-1.54V3l6.28-3,.29.14v17c2.31-1.39,4.8-2.69,7.3-2.69C731.17,14.4,734,19.2,734,24.15Zm-3.7,1.05c0-4.46-1.68-8-5.86-8a20.84,20.84,0,0,0-5.28.68V31.2a6.62,6.62,0,0,0,5.09,1.92C728.44,33.12,730.26,30.29,730.26,25.2Z"/><path d="M737.79,25.11c0-5.72,3.75-10.71,10.13-10.71,5.43,0,9.55,3.7,9.55,9.94,0,5.66-3.79,10.7-10,10.7C741.87,35,737.79,31.3,737.79,25.11Zm15.94.43c0-5.28-2.83-9.22-6.58-9.22-3.16,0-5.66,2.35-5.66,7.54s2.69,9.26,6.58,9.26C751.38,33.12,753.73,30.67,753.73,25.54Z"/><path d="M782.92,32.4v2.16h-6.49v-2.3C773.7,34,771.63,35,769.81,35c-4.18,0-6-2-6-5.61V19.25l-3.22-1.54v-.24l6.29-3,.29.14V26.4c0,4.13.82,5.57,4.18,5.57a23.62,23.62,0,0,0,5.08-.67V19.2l-3.21-1.53v-.24l6.29-3,.28.15V32.16l.24.24Z"/><path d="M788.29,29V17.57l-.24-.24h-2.88v-.24l6.24-8.21h.24v6.29h6.48v2.16h-6.48v9c0,4.85.72,6.48,3.5,6.48a9.24,9.24,0,0,0,3.17-.53l.53,1A10.34,10.34,0,0,1,793.33,35C789.92,35,788.29,33.51,788.29,29Z"/><path d="M814,29V17.57l-.24-.24h-2.89v-.24l6.25-8.21h.24v6.29h6.48v2.16h-6.48v9c0,4.85.72,6.48,3.5,6.48a9.24,9.24,0,0,0,3.17-.53l.53,1A10.37,10.37,0,0,1,819.06,35C815.65,35,814,33.51,814,29Z"/><path d="M849.63,32.4v2.16h-9.84V32.4h3.12l.24-.24V23c0-4.13-.86-5.57-4.41-5.57a25.27,25.27,0,0,0-5.33.68v14l.24.24h3.12v2.16h-9.84V32.4h2.88l.24-.24V4.8l-3.22-1.54V3l6.29-3,.29.14V17.19c2.78-1.78,5-2.79,6.86-2.79,4.32,0,6.24,2,6.24,5.62V32.16l.24.24Z"/><path d="M869.89,23.86H856.64c.05,6.29,3.31,8.59,7.63,8.59a10.77,10.77,0,0,0,5-1.2l.53,1A11.13,11.13,0,0,1,862.3,35c-5.85,0-9.36-4.41-9.36-9.89,0-7,5.09-10.8,9.46-10.8,4,0,7.59,2.36,7.59,7.88C870,22.75,869.94,23.28,869.89,23.86Zm-13.15-1.73h9.5c-.1-4-1.58-5.81-4.18-5.81C859.76,16.32,857.22,17.81,856.74,22.13Z"/><path d="M1.63,91.49v-5h.24l2.4,2.64a5.48,5.48,0,0,0,3.84,1.73c2,0,3.31-1,3.31-2.74,0-2.4-2.3-3.17-4.8-4.51-2.92-1.58-4.7-3.26-4.7-6C1.92,74.31,4.51,72,8.74,72a14.29,14.29,0,0,1,5.09.91v4.9h-.25L11.09,75a4.55,4.55,0,0,0-3.17-1.25c-1.92,0-3.12,1.1-3.12,2.69,0,2.25,2.26,3.31,4.51,4.51,2.45,1.34,5.09,2.73,5.09,6s-3,5.61-6.62,5.61A17.19,17.19,0,0,1,1.63,91.49Z"/><path d="M20,86.55V75.17l-.24-.24H16.89v-.24l6.25-8.21h.24v6.29h6.48v2.16H23.38v9c0,4.84.72,6.48,3.5,6.48a9.24,9.24,0,0,0,3.17-.53l.53,1a10.37,10.37,0,0,1-5.52,1.77C21.65,92.64,20,91.11,20,86.55Z"/><path d="M46.66,72.34v3.5a12.79,12.79,0,0,0-2.45-.24,22.88,22.88,0,0,0-5,.67V89.76l.24.24H43v2.16H32.69V90h2.88l.24-.24V76.71l-3.22-1.54v-.24l5.81-3,.29.15.48,3.26c2-1.49,4.7-3.36,6.29-3.36A2.24,2.24,0,0,1,46.66,72.34Z"/><path d="M70.32,90v2.16H63.84v-2.3c-2.74,1.73-4.8,2.78-6.62,2.78-4.18,0-6-2-6-5.61V76.85L48,75.31v-.24l6.29-3,.29.14V84c0,4.13.81,5.57,4.17,5.57a23.8,23.8,0,0,0,5.09-.67V76.8l-3.22-1.53V75l6.29-3,.29.15V89.76l.24.24Z"/><path d="M73.73,82.9c0-7,4.75-10.9,10.17-10.9a12.48,12.48,0,0,1,5.28,1.06v5.66h-.24l-2.83-3.6A4.69,4.69,0,0,0,82.8,74c-3.46,0-5.38,3-5.38,7.39,0,6.15,3,8.69,7.11,8.69a10.73,10.73,0,0,0,4.94-1.2l.53,1a10.57,10.57,0,0,1-7.2,2.78C76.7,92.64,73.73,88.13,73.73,82.9Z"/><path d="M95.33,86.55V75.17l-.24-.24H92.21v-.24l6.24-8.21h.24v6.29h6.48v2.16H98.69v9c0,4.84.72,6.48,3.5,6.48a9.24,9.24,0,0,0,3.17-.53l.53,1a10.37,10.37,0,0,1-5.52,1.77C97,92.64,95.33,91.11,95.33,86.55Z"/><path d="M130.13,90v2.16h-6.48v-2.3c-2.74,1.73-4.8,2.78-6.63,2.78-4.17,0-6-2-6-5.61V76.85l-3.21-1.54v-.24l6.28-3,.29.14V84c0,4.13.82,5.57,4.18,5.57a23.8,23.8,0,0,0,5.09-.67V76.8l-3.22-1.53V75l6.29-3,.29.15V89.76l.24.24Z"/><path d="M147.22,72.34v3.5a12.79,12.79,0,0,0-2.45-.24,22.88,22.88,0,0,0-5,.67V89.76L140,90h3.6v2.16H133.25V90h2.88l.24-.24V76.71l-3.22-1.54v-.24L139,72l.29.15.48,3.26c2-1.49,4.7-3.36,6.29-3.36A2.27,2.27,0,0,1,147.22,72.34Z"/><path d="M166.22,81.46H153c.05,6.29,3.32,8.59,7.64,8.59a10.73,10.73,0,0,0,4.94-1.2l.53,1a11.13,11.13,0,0,1-7.44,2.78c-5.86,0-9.36-4.41-9.36-9.89,0-7,5.09-10.8,9.45-10.8,4,0,7.59,2.36,7.59,7.88C166.32,80.35,166.27,80.88,166.22,81.46Zm-13.15-1.73h9.51c-.1-4-1.59-5.81-4.18-5.81C156.09,73.92,153.55,75.41,153.07,79.73Z"/><path d="M180.48,82.71C180.48,77,184.22,72,190.61,72c5.42,0,9.55,3.7,9.55,9.94,0,5.66-3.79,10.7-10,10.7C184.56,92.64,180.48,88.9,180.48,82.71Zm15.93.43c0-5.28-2.83-9.22-6.57-9.22-3.17,0-5.67,2.35-5.67,7.54s2.69,9.26,6.58,9.26C194.06,90.72,196.41,88.27,196.41,83.14Z"/><path d="M217.68,72.34v3.5a12.79,12.79,0,0,0-2.45-.24,22.88,22.88,0,0,0-5,.67V89.76l.24.24H214v2.16H203.71V90h2.88l.24-.24V76.71l-3.22-1.54v-.24l5.81-3,.29.15.48,3.26c2-1.49,4.7-3.36,6.29-3.36A2.24,2.24,0,0,1,217.68,72.34Z"/><path d="M232.27,86.55V75.17l-.24-.24h-2.88v-.24l6.24-8.21h.24v6.29h6.48v2.16h-6.48v9c0,4.84.72,6.48,3.5,6.48a9.24,9.24,0,0,0,3.17-.53l.53,1a10.37,10.37,0,0,1-5.52,1.77C233.9,92.64,232.27,91.11,232.27,86.55Z"/><path d="M262.17,81.46H248.92c.05,6.29,3.32,8.59,7.64,8.59a10.73,10.73,0,0,0,4.94-1.2l.53,1a11.13,11.13,0,0,1-7.44,2.78c-5.86,0-9.36-4.41-9.36-9.89,0-7,5.09-10.8,9.45-10.8,4,0,7.59,2.36,7.59,7.88C262.27,80.35,262.22,80.88,262.17,81.46ZM249,79.73h9.5c-.09-4-1.58-5.81-4.17-5.81C252,73.92,249.5,75.41,249,79.73Z"/><path d="M283.63,75.17l-6.19,6.53c3.45,3.93,7,8,7,8l.38.29h2.4v2.16h-10V90h2.64l.33-.29s-2.68-3.07-5.13-5.95l-5.33,6,.19.19h2.64v2.16h-8V90h2.4l.34-.29,6.53-7.29-6.29-7.25L264.09,73v-.24h10.85v.14l-3.12,2.26,4.42,5.14,4.84-5.14L277.68,73v-.24h9.55v.14Z"/><path d="M291.21,86.55V75.17l-.24-.24h-2.88v-.24l6.24-8.21h.24v6.29h6.48v2.16h-6.48v9c0,4.84.72,6.48,3.51,6.48a9.18,9.18,0,0,0,3.16-.53l.53,1a10.34,10.34,0,0,1-5.52,1.77C292.84,92.64,291.21,91.11,291.21,86.55Z"/><path d="M326,90v2.16h-6.48v-2.3c-2.73,1.73-4.8,2.78-6.62,2.78-4.18,0-6-2-6-5.61V76.85l-3.22-1.54v-.24l6.29-3,.29.14V84c0,4.13.81,5.57,4.17,5.57a23.8,23.8,0,0,0,5.09-.67V76.8l-3.21-1.53V75l6.28-3,.29.15V89.76l.24.24Z"/><path d="M343.1,72.34v3.5a12.79,12.79,0,0,0-2.45-.24,23,23,0,0,0-5,.67V89.76l.24.24h3.6v2.16H329.13V90H332l.24-.24V76.71L329,75.17v-.24l5.81-3,.29.15.48,3.26c2-1.49,4.71-3.36,6.29-3.36A2.24,2.24,0,0,1,343.1,72.34Z"/><path d="M362.11,81.46H348.86c.05,6.29,3.31,8.59,7.63,8.59a10.73,10.73,0,0,0,4.94-1.2l.53,1a11.09,11.09,0,0,1-7.44,2.78c-5.85,0-9.36-4.41-9.36-9.89,0-7,5.09-10.8,9.46-10.8,4,0,7.58,2.36,7.58,7.88C362.2,80.35,362.16,80.88,362.11,81.46ZM349,79.73h9.51c-.1-4-1.59-5.81-4.18-5.81C352,73.92,349.43,75.41,349,79.73Z"/><path d="M376.36,82.71C376.36,77,380.1,72,386.49,72c5.42,0,9.55,3.7,9.55,9.94,0,5.66-3.79,10.7-10,10.7C380.44,92.64,376.36,88.9,376.36,82.71Zm15.94.43c0-5.28-2.83-9.22-6.58-9.22-3.17,0-5.66,2.35-5.66,7.54s2.69,9.26,6.57,9.26C390,90.72,392.3,88.27,392.3,83.14Z"/><path d="M399.45,90h2.88l.24-.24V75.22l-.24-.29h-2.88V72.77h2.88l.24-.24v-1.3c0-9.74,2.49-13.49,8.69-13.49a12,12,0,0,1,4.46.82v5.76h-.24L412.84,61a4.78,4.78,0,0,0-3.07-1.06c-2.64,0-3.84,2.21-3.84,6.82v5.81l.24.24h7v2.16h-7l-.24.29V89.76l.24.24h3.6v2.16H399.45Z"/><path d="M427.53,86.55V75.17l-.24-.24h-2.88v-.24l6.24-8.21h.24v6.29h6.48v2.16h-6.48v9c0,4.84.72,6.48,3.5,6.48a9.24,9.24,0,0,0,3.17-.53l.53,1a10.37,10.37,0,0,1-5.52,1.77C429.16,92.64,427.53,91.11,427.53,86.55Z"/><path d="M463.14,90v2.16H453.3V90h3.12l.24-.24V80.64c0-4.13-.86-5.57-4.41-5.57a25.27,25.27,0,0,0-5.33.68v14l.24.24h3.12v2.16h-9.84V90h2.88l.24-.24V62.4l-3.22-1.54v-.24l6.29-3,.29.14V74.79c2.78-1.78,5-2.79,6.86-2.79,4.32,0,6.24,2,6.24,5.62V89.76l.24.24Z"/><path d="M483.4,81.46H470.15c.05,6.29,3.31,8.59,7.63,8.59a10.77,10.77,0,0,0,5-1.2l.53,1a11.13,11.13,0,0,1-7.44,2.78c-5.86,0-9.37-4.41-9.37-9.89,0-7,5.09-10.8,9.46-10.8,4,0,7.59,2.36,7.59,7.88C483.5,80.35,483.45,80.88,483.4,81.46Zm-13.15-1.73h9.5c-.09-4-1.58-5.81-4.17-5.81C473.27,73.92,470.73,75.41,470.25,79.73Z"/><path d="M519.35,90v2.16h-6.72v-2.3c-2.35,1.44-4.9,2.78-7.44,2.78-4.75,0-7.54-4.8-7.54-9.74,0-5.47,3.17-10.9,10-10.9a11.6,11.6,0,0,1,5,1V62.4l-3.21-1.54v-.24l6.28-3,.29.14v32l.24.24Zm-6.72-.91V76.9a5.78,5.78,0,0,0-5.47-3c-4.23,0-5.81,3.07-5.81,7.92,0,4.47,1.68,8,5.86,8A21.7,21.7,0,0,0,512.63,89.09Z"/><path d="M540.09,90v2.16h-6.48v-2c-2.26,1.53-4.23,2.44-6.34,2.44a4.49,4.49,0,0,1-4.8-4.6c0-4.42,4.66-6.05,11.14-6.34V80.21c0-3.79-.87-5.62-4.37-5.62a9.62,9.62,0,0,0-5.57,1.83L523,75.27A10.16,10.16,0,0,1,530.53,72c3.89,0,6.44,2.26,6.44,6.29V89.76l.24.24Zm-6.48-.67v-6.1c-4.08.29-7.73,1-7.73,4.18,0,1.87,1.29,2.74,3.12,2.74A14.79,14.79,0,0,0,533.61,89.33Z"/><path d="M565.81,90v2.16H556V90h3.12l.24-.24V80.64c0-4.13-.86-5.57-4.41-5.57a25.27,25.27,0,0,0-5.33.68v14l.24.24H553v2.16h-9.84V90H546l.24-.24V76.71L543,75.17v-.24l5.81-3,.29.15.38,2.73c2.84-1.82,5.09-2.83,7-2.83,4.32,0,6.24,2,6.24,5.62V89.76l.24.24Z"/><path d="M569.12,82.9c0-7,4.76-10.9,10.18-10.9a12.48,12.48,0,0,1,5.28,1.06v5.66h-.24l-2.83-3.6A4.69,4.69,0,0,0,578.2,74c-3.46,0-5.38,3-5.38,7.39,0,6.15,3,8.69,7.1,8.69a10.74,10.74,0,0,0,5-1.2l.53,1a10.6,10.6,0,0,1-7.2,2.78C572.1,92.64,569.12,88.13,569.12,82.9Z"/><path d="M605.46,81.46H592.21c0,6.29,3.32,8.59,7.64,8.59a10.73,10.73,0,0,0,4.94-1.2l.53,1a11.13,11.13,0,0,1-7.44,2.78c-5.86,0-9.36-4.41-9.36-9.89,0-7,5.09-10.8,9.45-10.8,4,0,7.59,2.36,7.59,7.88C605.56,80.35,605.51,80.88,605.46,81.46Zm-13.15-1.73h9.5c-.09-4-1.58-5.81-4.17-5.81C595.33,73.92,592.79,75.41,592.31,79.73Z"/><path d="M640.6,81.75c0,5.47-3.65,10.89-10,10.89a10.08,10.08,0,0,1-4.89-1.15v9.31l.24.24h3.6v2.16H619.24V101h2.88l.24-.24V76.71l-3.22-1.54v-.24L625,72l.29.15.43,2.73C628,73.3,630.28,72,633,72,637.77,72,640.6,76.8,640.6,81.75Zm-3.7,1c0-4.46-1.68-8-5.86-8a19.34,19.34,0,0,0-5.32.87v12a5.66,5.66,0,0,0,5.37,3C634.84,90.72,636.9,87.65,636.9,82.8Z"/><path d="M644.15,90H647l.24-.24V76.71l-3.22-1.54v-.24L650.34,72l.29.15V89.76l.24.24h2.88v2.16h-9.6ZM646,64.42A2.62,2.62,0,1,1,648.61,67,2.66,2.66,0,0,1,646,64.42Z"/><path d="M674,81.46H660.75c0,6.29,3.32,8.59,7.64,8.59a10.73,10.73,0,0,0,4.94-1.2l.53,1a11.11,11.11,0,0,1-7.44,2.78c-5.86,0-9.36-4.41-9.36-9.89,0-7,5.09-10.8,9.46-10.8,4,0,7.58,2.36,7.58,7.88C674.1,80.35,674.05,80.88,674,81.46Zm-13.15-1.73h9.51c-.1-4-1.59-5.81-4.18-5.81C663.88,73.92,661.33,75.41,660.85,79.73Z"/><path d="M677.7,82.9c0-7,4.75-10.9,10.18-10.9a12.52,12.52,0,0,1,5.28,1.06v5.66h-.24l-2.84-3.6A4.67,4.67,0,0,0,686.77,74c-3.45,0-5.38,3-5.38,7.39,0,6.15,3,8.69,7.11,8.69a10.73,10.73,0,0,0,4.94-1.2l.53,1a10.57,10.57,0,0,1-7.2,2.78C680.67,92.64,677.7,88.13,677.7,82.9Z"/><path d="M714,81.46H700.79c0,6.29,3.31,8.59,7.63,8.59a10.73,10.73,0,0,0,4.94-1.2l.53,1a11.09,11.09,0,0,1-7.44,2.78c-5.85,0-9.36-4.41-9.36-9.89,0-7,5.09-10.8,9.46-10.8,4,0,7.58,2.36,7.58,7.88C714.13,80.35,714.08,80.88,714,81.46Zm-13.16-1.73h9.51c-.1-4-1.59-5.81-4.18-5.81C703.91,73.92,701.36,75.41,700.88,79.73Z"/><path d="M734,68.21c0,4.51-3.16,7.58-8.59,9.26l-.67,6h-1.68l-.62-6.68c4.6-1.34,7.63-4.08,7.63-8.3,0-3.46-1.87-6.24-5.23-6.24-2.84,0-4.66,1.87-6.2,5.13l-2.93-2.83a11.35,11.35,0,0,1,9.37-4.27C730.79,60.24,734,63.65,734,68.21ZM727,90.1a2.81,2.81,0,1,1-2.83-2.83A2.83,2.83,0,0,1,727,90.1Z"/></g></g></svg>