<svg xmlns="http://www.w3.org/2000/svg" viewBox="0 0 84.18 42.9"><defs><style>.cls-1{fill:none;stroke:#000;stroke-miterlimit:10;}</style></defs><title>Asset 4learn-more</title><g id="Layer_2" data-name="Layer 2"><g id="Layer_1-2" data-name="Layer 1"><line class="cls-1" x1="42.73" y1="35.72" x2="42.73" y2="17.9"/><polygon points="47.72 34.26 42.73 42.9 37.74 34.26 47.72 34.26"/><path d="M0,8.23.32,6.51H.47L1,7.77a.93.93,0,0,0,.76.39.54.54,0,0,0,.59-.56c0-.34-.17-.61-.82-1.09s-1-1-1-1.54a1.6,1.6,0,0,1,1.8-1.55,3.18,3.18,0,0,1,1.54.43L3.47,5.48H3.32L2.77,4.37A.79.79,0,0,0,2.15,4a.47.47,0,0,0-.48.5c0,.38.36.66,1,1.12a1.8,1.8,0,0,1,.92,1.51,1.71,1.71,0,0,1-1.9,1.6A2.94,2.94,0,0,1,0,8.23Z"/><path d="M4.26,6.87c0-2.14,1.28-3.45,2.85-3.45a2.14,2.14,0,0,1,1.22.35L8,5.66H7.87l-.28-.72C7.35,4.32,7.22,4,6.9,4c-.65,0-1.23,1.27-1.23,2.7,0,.78.3,1.15.86,1.15A3,3,0,0,0,7.92,7.5L8,7.81A3,3,0,0,1,6,8.76,1.68,1.68,0,0,1,4.26,6.87Z"/><path d="M12.66,3.49,12.4,5.06A1.21,1.21,0,0,0,12,5a2.6,2.6,0,0,0-1.3.42l-.57,3.21H8.83l.66-3.75-.76-.46,0-.16,2-.92.13.08,0,1.38h0c.43-.77.92-1.4,1.49-1.4A.61.61,0,0,1,12.66,3.49Z"/><path d="M12.7,6.64a3,3,0,0,1,2.72-3.22,1.93,1.93,0,0,1,2,2.2,2.86,2.86,0,0,1-2.72,3.14A1.89,1.89,0,0,1,12.7,6.64ZM16,5.3C16,4.45,15.81,4,15.38,4c-.71,0-1.28,1.13-1.28,2.86,0,.87.25,1.28.75,1.28C15.5,8.16,16,7.17,16,5.3Z"/><path d="M18.28,7.9a3.68,3.68,0,0,1,.07-.7l1-5.62-.77-.48,0-.14,2.2-1L21,.08,19.74,7a2.58,2.58,0,0,0-.06.49c0,.29.12.42.47.42a1.57,1.57,0,0,0,.45-.07l.12.31a2.59,2.59,0,0,1-1.55.65A.79.79,0,0,1,18.28,7.9Z"/><path d="M21.42,7.9a3.68,3.68,0,0,1,.07-.7l1-5.62-.76-.48,0-.14,2.21-1,.15.08L22.88,7a3.78,3.78,0,0,0-.06.49c0,.29.12.42.47.42a1.7,1.7,0,0,0,.46-.07l.12.31a2.62,2.62,0,0,1-1.55.65A.8.8,0,0,1,21.42,7.9Z"/><path d="M26.55,7,27,4.37h-.77l.05-.29,1-.48,1.26-1.43h.21L28.47,3.6h1.44l-.13.77H28.34L28,6.61c-.16.9-.08,1.2.54,1.2a2.64,2.64,0,0,0,.93-.23l.12.32a3.22,3.22,0,0,1-1.95.86C26.71,8.76,26.33,8.24,26.55,7Z"/><path d="M29.53,6.64a3,3,0,0,1,2.72-3.22,1.93,1.93,0,0,1,2,2.2,2.85,2.85,0,0,1-2.72,3.14A1.89,1.89,0,0,1,29.53,6.64ZM32.88,5.3c0-.85-.23-1.28-.66-1.28-.71,0-1.29,1.13-1.29,2.86,0,.87.26,1.28.76,1.28C32.34,8.16,32.88,7.17,32.88,5.3Z"/><path d="M37,7.9a3.68,3.68,0,0,1,.07-.7l1-5.62-.77-.48,0-.14,2.21-1,.16.08L38.49,7a3.78,3.78,0,0,0-.06.49c0,.29.12.42.47.42a1.7,1.7,0,0,0,.46-.07l.12.31a2.62,2.62,0,0,1-1.55.65A.8.8,0,0,1,37,7.9Z"/><path d="M43.64,7.5l.12.31a3,3,0,0,1-2.17,1c-1,0-1.64-.63-1.64-1.95,0-2.08,1.23-3.39,2.81-3.39.8,0,1.35.39,1.35,1.07,0,.87-.67,1.58-2.75,2.12v.11c0,.78.3,1.15.89,1.15A3,3,0,0,0,43.64,7.5ZM41.4,6.07c1-.36,1.47-1,1.47-1.64,0-.29-.14-.41-.32-.41C42.15,4,41.55,4.71,41.4,6.07Z"/><path d="M49.77,8.11a2.67,2.67,0,0,1-1.5.65c-.59,0-1-.27-1-.86V7.77a2.15,2.15,0,0,1-1.53,1c-.84,0-1.35-.68-1.35-1.84,0-2,1.21-3.5,2.69-3.5a1.82,1.82,0,0,1,1.09.35l1-.44.16.09L48.78,7a2.72,2.72,0,0,0-.07.49c0,.29.12.42.49.42a1.57,1.57,0,0,0,.45-.07Zm-2.4-.87a.06.06,0,0,0,0,0l.47-2.65a.7.7,0,0,0-.65-.5c-.8,0-1.34,1.16-1.34,2.68,0,.73.23,1,.59,1A1.4,1.4,0,0,0,47.37,7.24Z"/><path d="M54.09,3.49l-.25,1.57a1.21,1.21,0,0,0-.36,0,2.66,2.66,0,0,0-1.31.42l-.56,3.21H50.26l.66-3.75-.75-.46,0-.16,2-.92.13.08,0,1.38h0c.43-.77.92-1.4,1.5-1.4A.57.57,0,0,1,54.09,3.49Z"/><path d="M59.78,8.11a2.44,2.44,0,0,1-1.46.65.84.84,0,0,1-.94-.94,2.94,2.94,0,0,1,.07-.62l.45-2c.09-.47,0-.7-.41-.7a2.06,2.06,0,0,0-1.08.48l-.65,3.71H54.42l.66-3.75-.76-.46,0-.16,2-.92.13.08v1a2.87,2.87,0,0,1,1.82-1c.89,0,1.16.61,1,1.59l-.42,2c-.15.69,0,.91.39.91a1.63,1.63,0,0,0,.45-.07Z"/><path d="M70.29,8.11a2.44,2.44,0,0,1-1.49.65.83.83,0,0,1-.91-.94A4.2,4.2,0,0,1,68,7.2l.45-2c.1-.48-.06-.7-.41-.7a1.9,1.9,0,0,0-1,.47S67,5,67,5l-.64,3.63H65l.61-3.49c.09-.48,0-.7-.38-.7a1.77,1.77,0,0,0-1,.47l-.65,3.72H62.26l.66-3.75-.75-.46,0-.16,2-.92.13.08v1a2.63,2.63,0,0,1,1.71-1,.91.91,0,0,1,1,1,2.7,2.7,0,0,1,1.77-1c.85,0,1.19.59,1,1.59l-.42,2a2.15,2.15,0,0,0-.08.48c0,.32.16.43.48.43a1.61,1.61,0,0,0,.43-.07Z"/><path d="M70.69,6.64a3,3,0,0,1,2.72-3.22,1.93,1.93,0,0,1,2,2.2,2.85,2.85,0,0,1-2.72,3.14A1.89,1.89,0,0,1,70.69,6.64ZM74,5.3C74,4.45,73.81,4,73.38,4c-.71,0-1.29,1.13-1.29,2.86,0,.87.25,1.28.76,1.28S74,7.17,74,5.3Z"/><path d="M80,3.49l-.25,1.57a1.27,1.27,0,0,0-.36,0,2.6,2.6,0,0,0-1.31.42L77.5,8.64H76.16l.66-3.75-.75-.46,0-.16,2-.92.13.08,0,1.38h0c.43-.77.92-1.4,1.5-1.4A.59.59,0,0,1,80,3.49Z"/><path d="M83.71,7.5l.12.31a3,3,0,0,1-2.17,1c-1,0-1.65-.63-1.65-1.95,0-2.08,1.24-3.39,2.82-3.39.79,0,1.35.39,1.35,1.07,0,.87-.68,1.58-2.75,2.12v.11c0,.78.3,1.15.89,1.15A3,3,0,0,0,83.71,7.5ZM81.47,6.07c1-.36,1.47-1,1.47-1.64,0-.29-.14-.41-.32-.41C82.22,4,81.62,4.71,81.47,6.07Z"/></g></g></svg>