<svg xmlns="http://www.w3.org/2000/svg" viewBox="0 0 807.06 103.88"><title>Asset 84outro-p</title><g id="Layer_2" data-name="Layer 2"><g id="Layer_1-2" data-name="Layer 1"><path d="M35.43,3.7v.72L31.11,7.3V34.9H27L9.79,11.23V31.44l.24.24h3.6V34.9H2.4V31.68H6l.24-.24V7.3L1.92,4.42V3.7H12l15.6,22V7.3L23.23,4.42V3.7Z"/><path d="M35.9,25.2C35.9,18.87,40.13,14,46.37,14c5.62,0,9.89,3.89,9.89,10.41s-4.37,11-10.47,11C39.94,35.38,35.9,31.35,35.9,25.2Zm14.5,1.11c0-5.48-2.11-9.32-5-9.32-2.26,0-3.65,2.31-3.65,6.24,0,5.48,2.11,9.32,5,9.32C49,32.55,50.4,30.24,50.4,26.31Z"/><path d="M91.49,14.74v.62l-3.07,2.69L81,35.38H78.87l-4-10.32L69.07,35.38h-2L59.42,18.05,56.5,15.41v-.67H68.3v.62l-2.88,2.69L69.6,28.37h.24l3.7-6.67-2.31-5.91,5.43-1.58L81.07,28h.24l3.75-10-2.93-2.64v-.62Z"/><path d="M101.38,31.83h2.16l.24-.24V6.67L100.7,4.75V4.18L108.62.34l.68.33V31.59l.24.24h2.16V34.9H101.38Z"/><path d="M131.18,30.92l.92,1.68a12.36,12.36,0,0,1-7.73,2.78c-5.72,0-10.13-4-10.13-10.32s4.22-11,10.13-11c4.89,0,7.92,3.31,7.92,8.06a13.06,13.06,0,0,1-.24,2.59H120.14c.34,4.61,2.55,7.45,6.48,7.45A10.35,10.35,0,0,0,131.18,30.92Zm-11-8.74H127c-.1-4-1.3-5.38-3.27-5.38S120.33,18.67,120.14,22.18Z"/><path d="M136.65,29.09v-11l-.23-.24h-2.69v-.62L141.55,9h.62v5.71h6.39v3.07h-6.39v9c0,3.84.73,5.18,2.65,5.18a8.49,8.49,0,0,0,3.55-1l.91,1.68a11.33,11.33,0,0,1-7.2,2.78C138.62,35.38,136.65,33.7,136.65,29.09Z"/><path d="M158.88,4.13c0,4-2.64,7-7.2,8.54l-1.06-2c2.26-1,3.6-2.12,4-3.56a3.56,3.56,0,0,1-3-3.55A3.56,3.56,0,0,1,155.18,0C157.49,0,158.88,1.82,158.88,4.13Z"/><path d="M158.4,33.79V26.88H159l2.64,3.27A5.83,5.83,0,0,0,166,32.6c1.78,0,2.5-.92,2.5-2,0-2-2.5-2.64-4.9-4-3.65-2.12-5.13-3.8-5.13-6.72,0-3.65,3.17-5.81,8-5.81a15.42,15.42,0,0,1,5.66,1v6.48h-.62l-2.79-3.32a4.46,4.46,0,0,0-3-1.39c-1.49,0-2.26.87-2.26,1.87,0,1.78,2,2.74,4.61,4,3.7,1.87,5.42,3.6,5.42,6.43,0,3.89-2.88,6.24-7.82,6.24A18.75,18.75,0,0,1,158.4,33.79Z"/><path d="M184.7,31.83h2.16l.24-.24V6.67L184,4.75V4.18L192,.34l.67.33V31.59l.24.24H195V34.9H184.7Z"/><path d="M197.56,25.2C197.56,18.87,201.79,14,208,14c5.62,0,9.89,3.89,9.89,10.41s-4.37,11-10.47,11C201.6,35.38,197.56,31.35,197.56,25.2Zm14.5,1.11c0-5.48-2.11-9.32-5-9.32-2.26,0-3.65,2.31-3.65,6.24,0,5.48,2.11,9.32,5,9.32C210.67,32.55,212.06,30.24,212.06,26.31Z"/><path d="M220.8,25.2C220.8,18.87,225,14,231.26,14c5.62,0,9.89,3.89,9.89,10.41s-4.37,11-10.46,11C224.83,35.38,220.8,31.35,220.8,25.2Zm14.49,1.11c0-5.48-2.11-9.32-5-9.32-2.26,0-3.65,2.31-3.65,6.24,0,5.48,2.12,9.32,5,9.32C233.9,32.55,235.29,30.24,235.29,26.31Z"/><path d="M252,31.83h2.16V34.9H243.84V31.83H246l.24-.24V6.67l-3.08-1.92V4.18L251.08.34l.68.33V31.59Zm15.12,0V34.9h-7.59l-7.39-10.75,6.15-6.53-2.74-2.69V14.5h10.61v.38l-8.5,7.83,6.48,9.12Z"/><path d="M296.35,31.83V34.9h-7.92V33.22a10.92,10.92,0,0,1-5.95,2.21c-2.31,0-4.76-1.2-4.76-4.76s2.4-6.38,10.71-7.24v-.87c0-3.26-1.11-4.94-3.89-4.94a9.47,9.47,0,0,0-5,1.77l-.91-1.82a11.26,11.26,0,0,1,8.3-3.55c5,0,7.06,2.88,7.06,8.21v9.36l.24.24Zm-7.92-.29V25.78c-3.75.33-5.28,1.39-5.33,3.55-.05,1.83,1.1,2.64,2.73,2.64A10.45,10.45,0,0,0,288.43,31.54Z"/><path d="M300.43,29.09v-11l-.24-.24H297.5v-.62L305.32,9H306v5.71h6.38v3.07H306v9c0,3.84.72,5.18,2.64,5.18a8.45,8.45,0,0,0,3.55-1l.91,1.68a11.33,11.33,0,0,1-7.2,2.78C302.4,35.38,300.43,33.7,300.43,29.09Z"/><path d="M342.43,31.83V34.9h-7.92V33.22a10.92,10.92,0,0,1-6,2.21c-2.3,0-4.75-1.2-4.75-4.76s2.4-6.38,10.71-7.24v-.87c0-3.26-1.11-4.94-3.89-4.94a9.47,9.47,0,0,0-5,1.77l-.91-1.82A11.26,11.26,0,0,1,333,14c5,0,7.06,2.88,7.06,8.21v9.36l.24.24Zm-7.92-.29V25.78c-3.75.33-5.28,1.39-5.33,3.55-.05,1.83,1.1,2.64,2.73,2.64A10.53,10.53,0,0,0,334.51,31.54Z"/><path d="M344.58,31.83h2.17l.24-.24V6.67l-3.08-1.92V4.18L351.83.34l.68.33V31.59l.24.24h2.16V34.9H344.58Z"/><path d="M357,31.83h2.16l.24-.24V6.67l-3.08-1.92V4.18L364.27.34l.67.33V31.59l.24.24h2.16V34.9H357Z"/><path d="M380.49,29.09v-11l-.24-.24h-2.69v-.62L385.38,9H386v5.71h6.38v3.07H386v9c0,3.84.72,5.18,2.64,5.18a8.45,8.45,0,0,0,3.55-1l.91,1.68a11.33,11.33,0,0,1-7.2,2.78C382.46,35.38,380.49,33.7,380.49,29.09Z"/><path d="M418.12,31.83V34.9H407.8V31.83H410l.24-.24V23c0-3.84-1.1-4.89-3.84-4.89a15,15,0,0,0-3.7.57V31.59l.24.24h2.16V34.9H394.74V31.83h2.16l.24-.24V6.67l-3.07-1.92V4.18L402,.34l.67.33V16.8C405.4,15,407.37,14,409.91,14c3.41,0,5.81,1.68,5.81,5.61v12l.24.24Z"/><path d="M437.42,30.92l.91,1.68a12.36,12.36,0,0,1-7.73,2.78c-5.71,0-10.13-4-10.13-10.32s4.23-11,10.13-11c4.9,0,7.92,3.31,7.92,8.06a13.06,13.06,0,0,1-.24,2.59h-11.9c.33,4.61,2.54,7.45,6.48,7.45A10.35,10.35,0,0,0,437.42,30.92Zm-11-8.74h6.81c-.09-4-1.29-5.38-3.26-5.38S426.57,18.67,426.38,22.18Z"/><path d="M472,24.1c0,6.33-4.32,11.28-10.37,11.28a8.57,8.57,0,0,1-3.6-.72v8l.24.24h2.88v3.07h-11V42.87h2.16l.24-.24V20l-3.07-1.87v-.63l7.2-3.69.62.33.62,3c2.31-1.78,4.32-3.07,6.77-3.07C468.86,14,472,18.15,472,24.1Zm-5.86,1.29c0-4.8-1.87-7.24-4.7-7.24a14,14,0,0,0-3.41.43V30.2a4.28,4.28,0,0,0,3.79,2.3C464.68,32.5,466.12,29.76,466.12,25.39Z"/><path d="M475.14,31.83h2.16l.24-.24V20l-3.07-1.92v-.58l8-3.79.62.29V31.59l.24.24h2.16V34.9H475.14Zm1.63-25a3.34,3.34,0,1,1,3.36,3.36A3.33,3.33,0,0,1,476.77,6.87Z"/><path d="M504.57,30.92l.91,1.68a12.36,12.36,0,0,1-7.73,2.78c-5.71,0-10.13-4-10.13-10.32s4.23-11,10.13-11c4.9,0,7.92,3.31,7.92,8.06a13.06,13.06,0,0,1-.24,2.59h-11.9c.33,4.61,2.54,7.45,6.48,7.45A10.35,10.35,0,0,0,504.57,30.92Zm-11-8.74h6.81c-.09-4-1.29-5.38-3.26-5.38S493.72,18.67,493.53,22.18Z"/><path d="M508.31,25.2c0-6.29,4.18-11.18,10.9-11.18a16.38,16.38,0,0,1,5.61,1.05V22.8h-.62l-3.65-4.89a3.92,3.92,0,0,0-2.64-1.11c-2.45,0-3.74,2.31-3.74,6.58,0,6,3.12,8.69,6.43,8.69a7.91,7.91,0,0,0,4.18-1.15l.91,1.68a11.13,11.13,0,0,1-7.54,2.78C512.15,35.38,508.31,31.35,508.31,25.2Z"/><path d="M544.79,30.92l.91,1.68A12.34,12.34,0,0,1,538,35.38c-5.71,0-10.12-4-10.12-10.32S532.07,14,538,14c4.9,0,7.92,3.31,7.92,8.06a13,13,0,0,1-.23,2.59H533.75c.34,4.61,2.54,7.45,6.48,7.45A10.35,10.35,0,0,0,544.79,30.92Zm-11-8.74h6.82c-.1-4-1.3-5.38-3.27-5.38S533.94,18.67,533.75,22.18Z"/><path d="M549,33.79V26.88h.63l2.64,3.27a5.82,5.82,0,0,0,4.32,2.45c1.78,0,2.49-.92,2.49-2,0-2-2.49-2.64-4.89-4-3.65-2.12-5.14-3.8-5.14-6.72,0-3.65,3.17-5.81,8-5.81a15.52,15.52,0,0,1,5.67,1v6.48h-.63l-2.78-3.32a4.48,4.48,0,0,0-3-1.39c-1.49,0-2.25.87-2.25,1.87,0,1.78,2,2.74,4.6,4,3.7,1.87,5.43,3.6,5.43,6.43,0,3.89-2.88,6.24-7.83,6.24A18.79,18.79,0,0,1,549,33.79Z"/><path d="M575.56,31.83h2.16l.24-.24V20l-3.08-1.92v-.58l8-3.79.63.29V31.59l.24.24h2.16V34.9H575.56Zm1.63-25a3.34,3.34,0,1,1,3.36,3.36A3.33,3.33,0,0,1,577.19,6.87Z"/><path d="M611.37,31.88v3H601V31.83h2.17l.24-.24V23c0-3.84-1.11-4.89-3.85-4.89a15,15,0,0,0-3.69.57V31.59l.24.24h2.16V34.9H588V31.83h2.16l.24-.24V19.92l-3.07-1.87v-.62l7.2-3.7.62.34.58,2.83C598.55,15,600.56,14,603.16,14c3.41,0,5.81,1.68,5.81,5.61v12l.24.29Z"/><path d="M623.31,33.79V26.88h.63l2.64,3.27a5.83,5.83,0,0,0,4.32,2.45c1.78,0,2.5-.92,2.5-2,0-2-2.5-2.64-4.9-4-3.65-2.12-5.14-3.8-5.14-6.72,0-3.65,3.17-5.81,8-5.81A15.52,15.52,0,0,1,637,15v6.48h-.63l-2.78-3.32a4.48,4.48,0,0,0-3-1.39c-1.48,0-2.25.87-2.25,1.87,0,1.78,2,2.74,4.61,4,3.69,1.87,5.42,3.6,5.42,6.43,0,3.89-2.88,6.24-7.82,6.24A18.84,18.84,0,0,1,623.31,33.79Z"/><path d="M663.25,31.83V34.9h-7.87V32c-2.35,2-4.27,3.36-7.06,3.36-3.6,0-5.52-2-5.52-5.67V20.35l-3.07-1.92v-.57L647.65,14l.67.33V26.69c0,3.41,1.11,4.47,3.75,4.47a11.91,11.91,0,0,0,3.31-.49V20l-3.07-1.92v-.58l7.92-3.84.67.34V31.59l.19.24Z"/><path d="M701.08,31.83V34.9H690.76V31.83h2.16l.24-.24V23c0-3.69-1-4.89-3-4.89a15.37,15.37,0,0,0-4,.57l-.05-.09a11.24,11.24,0,0,1,.1,1.34V31.59l.24.24h2.16V34.9H678.23V31.83h2.16l.24-.24V23c0-3.69-1-4.89-3.08-4.89a15.43,15.43,0,0,0-4,.57V31.59l.24.24h2.16V34.9H665.6V31.83h2.16l.24-.24V19.92l-3.07-1.87v-.62l7.2-3.7.62.34.58,2.83C676,15.12,678,14,680.44,14c2.64,0,4.36,1.15,5.18,3.07,2.83-1.87,4.75-3.07,7.44-3.07,3.7,0,5.62,2.25,5.62,5.85V31.59l.24.24Z"/><path d="M738.85,31.83V34.9H728.53V31.83h2.16l.24-.24V23c0-3.69-1-4.89-3-4.89a15.31,15.31,0,0,0-4,.57l0-.09a11.3,11.3,0,0,1,.09,1.34V31.59l.24.24h2.16V34.9H716V31.83h2.16l.24-.24V23c0-3.69-1-4.89-3.07-4.89a15.37,15.37,0,0,0-4,.57V31.59l.24.24h2.16V34.9H703.38V31.83h2.16l.24-.24V19.92l-3.07-1.87v-.62l7.2-3.7.62.34.58,2.83c2.68-1.78,4.65-2.88,7.1-2.88,2.64,0,4.37,1.15,5.19,3.07,2.83-1.87,4.75-3.07,7.44-3.07,3.69,0,5.61,2.25,5.61,5.85V31.59l.24.24Z"/><path d="M759.63,31.83V34.9h-7.92V33.22a10.87,10.87,0,0,1-6,2.21c-2.3,0-4.75-1.2-4.75-4.76s2.4-6.38,10.7-7.24v-.87c0-3.26-1.1-4.94-3.88-4.94a9.45,9.45,0,0,0-5,1.77l-.92-1.82A11.28,11.28,0,0,1,750.18,14c5,0,7.05,2.88,7.05,8.21v9.36l.24.24Zm-7.92-.29V25.78c-3.74.33-5.28,1.39-5.32,3.55,0,1.83,1.1,2.64,2.73,2.64A10.38,10.38,0,0,0,751.71,31.54Z"/><path d="M769.86,19.73V31.59l.24.24H773V34.9h-11V31.83h2.16l.24-.24V20l-3.08-1.87v-.63l7.21-3.69.62.33.62,3.46c2.36-2.16,4.52-3.55,6.34-3.55a3.42,3.42,0,0,1,1.39.24v6.19a21.75,21.75,0,0,0-6-.82C770.91,19.63,770.39,19.68,769.86,19.73Z"/><path d="M780.08,44v-.43l9.79-8.31-8.11-17.23-3.12-2.64v-.67h11.81v.62l-2.69,2.69,4.47,10.22h.28L797,18.05l-2.64-2.64v-.67h9.07v.62l-3.07,2.69L792,36l-5.48,10.7Z"/><path d="M799.86,32a3.6,3.6,0,1,1,3.6,3.6A3.62,3.62,0,0,1,799.86,32Z"/><path d="M48.05,61.3V62L43.73,64.9,33.46,92.5H31.2L24.63,74.07,17,92.5H14.83L4.32,64.9,0,62V61.3H15.12V62L10.8,64.9l6.67,18.86h.2L23,69.36,20.07,61.3H26.5l7.15,22.46h.19l6.1-18.86L35.62,62V61.3Z"/><path d="M72.67,89.43V92.5H62.35V89.43h2.16l.24-.24V80.64c0-3.84-1.1-4.89-3.84-4.89a15,15,0,0,0-3.69.57V89.19l.24.24h2.16V92.5H49.3V89.43h2.16l.24-.24V64.27l-3.08-1.92v-.57l7.92-3.84.68.33V74.4c2.73-1.78,4.7-2.78,7.24-2.78,3.41,0,5.81,1.68,5.81,5.61v12l.24.24Z"/><path d="M93.46,89.43V92.5H85.54V90.82a10.92,10.92,0,0,1-6,2.21c-2.3,0-4.75-1.2-4.75-4.76s2.4-6.38,10.71-7.24v-.87c0-3.26-1.11-4.94-3.89-4.94a9.45,9.45,0,0,0-5,1.77l-.91-1.82A11.26,11.26,0,0,1,84,71.62c5,0,7.06,2.88,7.06,8.21v9.36l.24.24Zm-7.92-.29V83.38c-3.75.33-5.28,1.39-5.33,3.55,0,1.82,1.1,2.64,2.73,2.64A10.53,10.53,0,0,0,85.54,89.14Z"/><path d="M97.54,86.69v-11l-.24-.24H94.61v-.62l7.82-8.17h.63v5.72h6.38v3.07h-6.38v9c0,3.84.72,5.18,2.64,5.18a8.37,8.37,0,0,0,3.55-1.06l.91,1.69A11.33,11.33,0,0,1,103,93C99.5,93,97.54,91.3,97.54,86.69Z"/><path d="M122.83,86.69v-11l-.24-.24H119.9v-.62l7.83-8.17h.62v5.72h6.39v3.07h-6.39v9c0,3.84.72,5.18,2.64,5.18a8.33,8.33,0,0,0,3.55-1.06l.92,1.69A11.38,11.38,0,0,1,128.25,93C124.8,93,122.83,91.3,122.83,86.69Z"/><path d="M145.15,77.33V89.19l.24.24h2.88V92.5h-11V89.43h2.16l.24-.24V77.57l-3.07-1.87v-.63l7.2-3.69.62.33.63,3.46c2.35-2.16,4.51-3.55,6.33-3.55a3.5,3.5,0,0,1,1.4.24v6.19a21.82,21.82,0,0,0-6-.82C146.21,77.23,145.68,77.28,145.15,77.33Z"/><path d="M171.6,88.51l.91,1.69A12.34,12.34,0,0,1,164.78,93c-5.71,0-10.13-4-10.13-10.32s4.23-11,10.13-11c4.9,0,7.92,3.31,7.92,8.06a12.35,12.35,0,0,1-.24,2.59h-11.9c.33,4.61,2.54,7.44,6.48,7.44A10.21,10.21,0,0,0,171.6,88.51Zm-11-8.73h6.82c-.1-4-1.3-5.38-3.27-5.38S160.75,76.27,160.56,79.78Z"/><path d="M198.67,89.47v3H188.35V89.43h2.16l.24-.24V80.64c0-3.84-1.1-4.89-3.84-4.89a15,15,0,0,0-3.7.57V89.19l.24.24h2.16V92.5H175.29V89.43h2.16l.24-.24V77.52l-3.07-1.87V75l7.2-3.7.63.34L183,74.5c2.83-1.88,4.85-2.88,7.44-2.88,3.41,0,5.81,1.68,5.81,5.61v12l.24.28Z"/><path d="M223.15,89.43V92.5h-7.92V90c-2.3,1.73-4.08,3-6.53,3-4.61,0-7.44-4.42-7.44-9.84,0-6.58,4.32-11.52,10.37-11.52a8.64,8.64,0,0,1,3.6.72V64.27l-3.07-1.92v-.57l8-3.84.62.33V89.19l.24.24Zm-7.92-1V77a4.17,4.17,0,0,0-3.74-2.49c-2.84,0-4.37,2.59-4.37,7.1,0,4.8,1.87,7.25,5.09,7.25A12.24,12.24,0,0,0,215.23,88.42Z"/><path d="M226.17,91.39V84.48h.63l2.64,3.27a5.82,5.82,0,0,0,4.32,2.45c1.77,0,2.49-.92,2.49-2,0-2-2.49-2.64-4.89-4-3.65-2.12-5.14-3.8-5.14-6.72,0-3.65,3.17-5.81,8-5.81a15.63,15.63,0,0,1,5.66,1v6.49h-.62l-2.78-3.32a4.5,4.5,0,0,0-3-1.39c-1.49,0-2.25.87-2.25,1.87,0,1.78,2,2.74,4.6,4,3.7,1.87,5.43,3.6,5.43,6.43,0,3.89-2.88,6.24-7.83,6.24A18.79,18.79,0,0,1,226.17,91.39Z"/><path d="M269.61,88.51l.92,1.69A12.36,12.36,0,0,1,262.8,93c-5.72,0-10.13-4-10.13-10.32s4.22-11,10.13-11c4.89,0,7.92,3.31,7.92,8.06a13.06,13.06,0,0,1-.24,2.59H258.57c.34,4.61,2.55,7.44,6.48,7.44A10.21,10.21,0,0,0,269.61,88.51Zm-11-8.73h6.82c-.1-4-1.3-5.38-3.27-5.38S258.76,76.27,258.57,79.78Z"/><path d="M308.78,89.43V92.5H298.46V89.43h2.16l.24-.24V80.64c0-3.69-1-4.89-3-4.89a15.31,15.31,0,0,0-4,.57l-.05-.09a11.3,11.3,0,0,1,.09,1.34V89.19l.24.24h2.16V92.5H285.93V89.43h2.16l.24-.24V80.64c0-3.69-1-4.89-3.07-4.89a15.37,15.37,0,0,0-4,.57V89.19l.24.24h2.16V92.5H273.31V89.43h2.16l.24-.24V77.52l-3.07-1.87V75l7.2-3.7.62.34L281,74.5c2.68-1.78,4.65-2.88,7.1-2.88,2.64,0,4.37,1.15,5.19,3.07,2.83-1.87,4.75-3.07,7.44-3.07,3.69,0,5.61,2.25,5.61,5.85V89.19l.24.24Z"/><path d="M328.08,88.51,329,90.2A12.36,12.36,0,0,1,321.26,93c-5.71,0-10.13-4-10.13-10.32s4.23-11,10.13-11c4.9,0,7.92,3.31,7.92,8.06a13.06,13.06,0,0,1-.24,2.59H317c.33,4.61,2.54,7.44,6.48,7.44A10.21,10.21,0,0,0,328.08,88.51Zm-11-8.73h6.81c-.09-4-1.29-5.38-3.26-5.38S317.23,76.27,317,79.78Z"/><path d="M339.69,77.33V89.19l.24.24h2.88V92.5h-11V89.43h2.16l.24-.24V77.57L331.1,75.7v-.63l7.2-3.69.62.33.63,3.46c2.35-2.16,4.51-3.55,6.33-3.55a3.47,3.47,0,0,1,1.4.24v6.19a21.75,21.75,0,0,0-6-.82C340.75,77.23,340.22,77.28,339.69,77.33Z"/><path d="M370.46,71.33v4.85l-.67.09-4-1.24a7.22,7.22,0,0,1,1.2,4.08c0,4.89-4.28,7.77-9.08,7.77a10.53,10.53,0,0,1-3.55-.57,3.68,3.68,0,0,0-.77,2.11c0,1.2.77,2,3.8,2H362c4.37,0,6.72,1.49,6.72,4.75,0,5.33-5.76,8.74-13.48,8.74-4.95,0-7.54-1.54-7.54-4.23,0-1.82,1.2-3.5,3.46-5a3.5,3.5,0,0,1-1.73-3.17c0-2,1.2-4,3.31-6a6.51,6.51,0,0,1-3-5.66c0-4.85,4.18-8.21,9-8.21a9.18,9.18,0,0,1,5.62,1.82l6-2.25Zm-17.57,24a4.65,4.65,0,0,0-.77,2.55c0,2.11,1.59,3.07,4.56,3.07,3.7,0,7.16-1.34,7.16-3.65,0-1.49-1.44-1.68-3.46-1.68h-4.7A11.17,11.17,0,0,1,352.89,95.28Zm8.5-15.65c0-3.5-1.25-5.71-3.17-5.71-1.58,0-2.88,1.59-2.88,5.09s1.06,5.52,3.07,5.52C360,84.53,361.39,83.19,361.39,79.63Z"/><path d="M388.37,88.51l.91,1.69A12.36,12.36,0,0,1,381.55,93c-5.71,0-10.13-4-10.13-10.32s4.22-11,10.13-11c4.9,0,7.92,3.31,7.92,8.06a13.06,13.06,0,0,1-.24,2.59H377.32c.34,4.61,2.55,7.44,6.48,7.44A10.25,10.25,0,0,0,388.37,88.51Zm-11.05-8.73h6.82c-.1-4-1.3-5.38-3.26-5.38C378.76,74.4,377.52,76.27,377.32,79.78Z"/><path d="M409.49,68c0,4-2.89,7.39-8.93,9.7l-1.2,6.09h-1.49l-1.35-6.33c4.61-2.6,6.72-5.24,6.72-9.13,0-2.78-1.53-4.84-3.93-4.84s-4.32,1.63-5.23,5.33L390,65.86a11.29,11.29,0,0,1,10.17-5.28C405.84,60.58,409.49,63.5,409.49,68Zm-7.35,21.65a3.6,3.6,0,1,1-3.6-3.6A3.59,3.59,0,0,1,402.14,89.62Z"/></g></g></svg>