<svg xmlns="http://www.w3.org/2000/svg" viewBox="0 0 635.72 204.84"><defs><style>.cls-1,.cls-10,.cls-11,.cls-12,.cls-13,.cls-14,.cls-15,.cls-16,.cls-17,.cls-18,.cls-19,.cls-2,.cls-20,.cls-21,.cls-22,.cls-23,.cls-24,.cls-25,.cls-26,.cls-27,.cls-28,.cls-29,.cls-3,.cls-30,.cls-31,.cls-32,.cls-33,.cls-34,.cls-35,.cls-36,.cls-37,.cls-38,.cls-39,.cls-4,.cls-40,.cls-41,.cls-42,.cls-43,.cls-44,.cls-45,.cls-46,.cls-47,.cls-48,.cls-49,.cls-5,.cls-50,.cls-51,.cls-52,.cls-53,.cls-54,.cls-55,.cls-56,.cls-57,.cls-58,.cls-59,.cls-6,.cls-60,.cls-61,.cls-62,.cls-63,.cls-64,.cls-65,.cls-66,.cls-67,.cls-68,.cls-69,.cls-7,.cls-70,.cls-71,.cls-72,.cls-73,.cls-74,.cls-75,.cls-76,.cls-77,.cls-8,.cls-9{isolation:isolate;}.cls-10,.cls-11,.cls-12,.cls-13,.cls-14,.cls-15,.cls-16,.cls-17,.cls-18,.cls-19,.cls-2,.cls-20,.cls-21,.cls-22,.cls-23,.cls-24,.cls-25,.cls-26,.cls-27,.cls-28,.cls-29,.cls-3,.cls-30,.cls-31,.cls-32,.cls-33,.cls-34,.cls-35,.cls-36,.cls-37,.cls-38,.cls-39,.cls-4,.cls-40,.cls-41,.cls-42,.cls-43,.cls-44,.cls-45,.cls-46,.cls-47,.cls-48,.cls-49,.cls-5,.cls-50,.cls-51,.cls-52,.cls-53,.cls-54,.cls-55,.cls-56,.cls-57,.cls-58,.cls-59,.cls-6,.cls-60,.cls-61,.cls-62,.cls-63,.cls-64,.cls-65,.cls-66,.cls-67,.cls-68,.cls-69,.cls-7,.cls-70,.cls-71,.cls-72,.cls-73,.cls-74,.cls-75,.cls-76,.cls-77,.cls-8,.cls-9{fill:none;stroke:#000;opacity:0.7;}.cls-2{stroke-width:0.34px;}.cls-3{stroke-width:0.33px;}.cls-4{stroke-width:0.35px;}.cls-5{stroke-width:2px;}.cls-6{stroke-width:0.28px;}.cls-7{stroke-width:0.38px;}.cls-8{stroke-width:0.11px;}.cls-9{stroke-width:0.19px;}.cls-10{stroke-width:0.19px;}.cls-11{stroke-width:0.25px;}.cls-12{stroke-width:0.28px;}.cls-13{stroke-width:0.44px;}.cls-14{stroke-width:0.46px;}.cls-15{stroke-width:0.43px;}.cls-16{stroke-width:0.44px;}.cls-17{stroke-width:0.28px;}.cls-18{stroke-width:0.3px;}.cls-19{stroke-width:0.06px;}.cls-20{stroke-width:0.07px;}.cls-21{stroke-width:0.17px;}.cls-22{stroke-width:0.17px;}.cls-23{stroke-width:0.11px;}.cls-24{stroke-width:1.94px;}.cls-25{stroke-width:1.96px;}.cls-26{stroke-width:0.24px;}.cls-27{stroke-width:0.27px;}.cls-28{stroke-width:0.81px;}.cls-29{stroke-width:0.82px;}.cls-30{stroke-width:0.11px;}.cls-31{stroke-width:0.11px;}.cls-32{stroke-width:0.7px;}.cls-33{stroke-width:0.09px;}.cls-34{stroke-width:0.11px;}.cls-35{stroke-width:0.17px;}.cls-36{stroke-width:0.2px;}.cls-37{stroke-width:0.1px;}.cls-38{stroke-width:0.12px;}.cls-39{stroke-width:0.59px;}.cls-40{stroke-width:0.61px;}.cls-41{stroke-width:0.25px;}.cls-42{stroke-width:0.25px;}.cls-43{stroke-width:0.14px;}.cls-44{stroke-width:0.13px;}.cls-45{stroke-width:0.2px;}.cls-46{stroke-width:0.1px;}.cls-47{stroke-width:0.1px;}.cls-48{stroke-width:0.24px;}.cls-49{stroke-width:0.24px;}.cls-50{stroke-width:0.16px;}.cls-51{stroke-width:0.12px;}.cls-52{stroke-width:0.06px;}.cls-53{stroke-width:0.07px;}.cls-54{stroke-width:0.45px;}.cls-55{stroke-width:0.45px;}.cls-56{stroke-width:0.17px;}.cls-57{stroke-width:0.26px;}.cls-58{stroke-width:0.8px;}.cls-59{stroke-width:0.12px;}.cls-60{stroke-width:0.13px;}.cls-61{stroke-width:0.14px;}.cls-62{stroke-width:0.4px;}.cls-63{stroke-width:0.41px;}.cls-64{stroke-width:0.4px;}.cls-65{stroke-width:0.99px;}.cls-66{stroke-width:0.98px;}.cls-67{stroke-width:0.06px;}.cls-68{stroke-width:0.07px;}.cls-69{stroke-width:0.03px;}.cls-70{stroke-width:0.05px;}.cls-71{stroke-width:0.07px;}.cls-72{stroke-width:0.09px;}.cls-73{stroke-width:0.09px;}.cls-74{stroke-width:0.83px;}.cls-75{stroke-width:0.84px;}.cls-76{stroke-width:0.06px;}.cls-77{stroke-width:0.05px;}</style></defs><title>Asset 31songs-radials-names-below-illus</title><g id="Layer_2" data-name="Layer 2"><g id="Layer_1-2" data-name="Layer 1"><g id="Head" class="cls-1"><g class="cls-1"><path d="M30.59,193.88v7.22l.06.06h1v.61h-3.2v-.61h1l.07-.06v-3.64H25v3.64l.06.06h1v.61h-3.2v-.61h1l.07-.06v-7.22l-1.14-.66v-.14h3.41v.14l-1.2.66v3h4.54v-3l-1.21-.66v-.14h3.41v.14Z"/><path d="M37.44,198.79H33.75c0,1.75.92,2.39,2.13,2.39a3,3,0,0,0,1.37-.34l.15.28a3.07,3.07,0,0,1-2.07.78,2.57,2.57,0,0,1-2.61-2.75,2.8,2.8,0,0,1,2.63-3,2,2,0,0,1,2.12,2.19C37.47,198.48,37.45,198.63,37.44,198.79Zm-3.66-.48h2.64c0-1.11-.44-1.62-1.16-1.62S33.91,197.1,33.78,198.31Z"/><path d="M43.3,201.16v.61H41.5v-.55a3.15,3.15,0,0,1-1.76.68,1.25,1.25,0,0,1-1.34-1.28c0-1.23,1.3-1.69,3.1-1.77v-.41c0-1.06-.24-1.56-1.22-1.56a2.75,2.75,0,0,0-1.55.5l-.17-.32a2.85,2.85,0,0,1,2.08-.9,1.62,1.62,0,0,1,1.79,1.75v3.19l.07.06ZM41.5,201v-1.7c-1.14.08-2.15.27-2.15,1.16,0,.52.36.77.87.77A4.26,4.26,0,0,0,41.5,201Z"/><path d="M50.26,201.16v.61H48.39v-.65a4.1,4.1,0,0,1-2.07.78c-1.32,0-2.1-1.34-2.1-2.71a2.78,2.78,0,0,1,2.78-3,3.12,3.12,0,0,1,1.39.28v-3l-.89-.42V193l1.75-.84.08,0v8.91l.06.06Zm-1.87-.25v-3.39a1.6,1.6,0,0,0-1.52-.83c-1.18,0-1.62.85-1.62,2.2s.47,2.22,1.63,2.22A5.88,5.88,0,0,0,48.39,200.91Z"/></g></g><g id="Arms" class="cls-1"><g class="cls-1"><path d="M145.68,201.16v.61H143v-.61h.64l.07-.06-.82-2.38H140l-.86,2.38.07.06h1v.61h-2.78v-.61h.92l.07-.06,3-8.08h.51l2.92,8.08.07.06Zm-3-3-1.21-3.55h0l-1.27,3.55Z"/><path d="M150.35,196.25v1a3.44,3.44,0,0,0-.68-.06,6.32,6.32,0,0,0-1.4.18v3.76l.06.06h1v.61h-2.88v-.61h.81l.06-.06v-3.64l-.89-.42V197l1.61-.83.08,0,.14.91a4.29,4.29,0,0,1,1.75-.93A.64.64,0,0,1,150.35,196.25Z"/><path d="M160.54,201.16v.61h-2.67v-.61h.8l.07-.06v-2.54c0-1.15-.23-1.55-1.16-1.55a6.25,6.25,0,0,0-1.46.2v0a2.31,2.31,0,0,1,0,.54v3.38l.07.06h.8v.61h-2.67v-.61h.8l.07-.06v-2.54c0-1.15-.23-1.55-1.16-1.55a6.37,6.37,0,0,0-1.42.19v3.9l.07.06h.8v.61h-2.67v-.61h.8l.06-.06v-3.62l-.89-.43V197l1.61-.82.09,0,.1.76a3.73,3.73,0,0,1,1.87-.8c.86,0,1.35.29,1.57.85a3.92,3.92,0,0,1,1.95-.85c1.16,0,1.67.56,1.67,1.56v3.38l.06.06Z"/><path d="M161.52,201.58v-1.4h.06l.67.73a1.52,1.52,0,0,0,1.07.48c.55,0,.92-.28.92-.76,0-.67-.64-.88-1.33-1.26s-1.31-.9-1.31-1.68.72-1.53,1.9-1.53a3.89,3.89,0,0,1,1.41.25v1.36h-.07l-.69-.77a1.26,1.26,0,0,0-.88-.35.77.77,0,0,0-.87.75c0,.63.63.92,1.26,1.25s1.41.76,1.41,1.69a1.66,1.66,0,0,1-1.84,1.56A4.69,4.69,0,0,1,161.52,201.58Z"/></g></g><g id="Hands" class="cls-1"><g class="cls-1"><path d="M234.68,193.88v7.22l.07.06h1v.61h-3.2v-.61h1l.07-.06v-3.64h-4.55v3.64l.07.06h1v.61h-3.2v-.61h1l.07-.06v-7.22l-1.14-.66v-.14h3.41v.14l-1.21.66v3h4.55v-3l-1.21-.66v-.14h3.41v.14Z"/><path d="M241.92,201.16v.61h-1.8v-.55a3.12,3.12,0,0,1-1.76.68,1.25,1.25,0,0,1-1.34-1.28c0-1.23,1.3-1.69,3.1-1.77v-.41c0-1.06-.24-1.56-1.21-1.56a2.7,2.7,0,0,0-1.55.5l-.18-.32a2.87,2.87,0,0,1,2.09-.9,1.63,1.63,0,0,1,1.79,1.75v3.19l.06.06Zm-1.8-.18v-1.7c-1.13.08-2.15.27-2.15,1.16,0,.52.36.77.87.77A4.2,4.2,0,0,0,240.12,201Z"/><path d="M249.08,201.16v.61h-2.73v-.61h.86l.07-.06v-2.54c0-1.15-.24-1.55-1.23-1.55a7,7,0,0,0-1.48.19v3.9l.07.06h.86v.61h-2.73v-.61h.8l.06-.06v-3.64l-.89-.42V197l1.62-.83.08,0,.1.76a4,4,0,0,1,1.94-.78c1.2,0,1.74.56,1.74,1.56v3.38l.06.06Z"/><path d="M256,201.16v.61h-1.87v-.65a4.1,4.1,0,0,1-2.07.78c-1.32,0-2.09-1.34-2.09-2.71a2.77,2.77,0,0,1,2.77-3,3.09,3.09,0,0,1,1.39.28v-3l-.89-.42V193l1.75-.84.08,0v8.91l.07.06Zm-1.87-.25v-3.39a1.6,1.6,0,0,0-1.52-.83c-1.17,0-1.62.85-1.62,2.2s.47,2.22,1.63,2.22A5.82,5.82,0,0,0,254.17,200.91Z"/><path d="M257,201.58v-1.4h.07l.67.73a1.48,1.48,0,0,0,1.07.48c.54,0,.92-.28.92-.76,0-.67-.64-.88-1.34-1.26s-1.31-.9-1.31-1.68.72-1.53,1.9-1.53a3.89,3.89,0,0,1,1.41.25v1.36h-.06l-.7-.77a1.24,1.24,0,0,0-.88-.35.77.77,0,0,0-.87.75c0,.63.63.92,1.26,1.25s1.41.76,1.41,1.69a1.65,1.65,0,0,1-1.84,1.56A4.69,4.69,0,0,1,257,201.58Z"/></g></g><g id="Torso" class="cls-1"><g class="cls-1"><path d="M345.79,198h1l.07-.07v-7.41h-2.14l-1,1.67h-.07v-2.27h7.38v2.27H351l-.94-1.67h-2.14V198l.07.07h1v.6h-3.2Z"/><path d="M351.14,196a2.8,2.8,0,0,1,2.82-3,2.57,2.57,0,0,1,2.66,2.76,2.8,2.8,0,0,1-2.79,3A2.57,2.57,0,0,1,351.14,196Zm4.44.12c0-1.47-.79-2.57-1.83-2.57-.88,0-1.58.66-1.58,2.1s.75,2.58,1.83,2.58C354.92,198.22,355.58,197.54,355.58,196.11Z"/><path d="M361.5,193.1v1a3.58,3.58,0,0,0-.69-.07,6.38,6.38,0,0,0-1.4.19V198l.07.07h1v.6h-2.87V198h.8l.07-.07v-3.63l-.9-.43v-.07l1.62-.83.08,0,.13.91a4.29,4.29,0,0,1,1.75-.93A.68.68,0,0,1,361.5,193.1Z"/><path d="M362.19,198.43V197h.07l.66.73a1.52,1.52,0,0,0,1.07.48c.55,0,.92-.28.92-.76,0-.67-.64-.88-1.33-1.25s-1.31-.91-1.31-1.69.72-1.53,1.9-1.53a3.89,3.89,0,0,1,1.41.25v1.36h-.06l-.7-.77a1.26,1.26,0,0,0-.88-.35.77.77,0,0,0-.87.75c0,.63.63.92,1.26,1.26s1.41.76,1.41,1.68a1.66,1.66,0,0,1-1.84,1.56A4.69,4.69,0,0,1,362.19,198.43Z"/><path d="M366.82,196a2.8,2.8,0,0,1,2.82-3,2.57,2.57,0,0,1,2.66,2.76,2.8,2.8,0,0,1-2.79,3A2.57,2.57,0,0,1,366.82,196Zm4.44.12c0-1.47-.79-2.57-1.83-2.57-.88,0-1.58.66-1.58,2.1s.75,2.58,1.83,2.58C370.6,198.22,371.26,197.54,371.26,196.11Z"/></g></g><g id="Legs" class="cls-1"><g class="cls-1"><path d="M450,201.16h1l.07-.06v-7.22l-1.14-.66v-.14h3.41v.14l-1.2.66v7.28h2.94l.84-1.6h.13v2.21H450Z"/><path d="M461.91,198.79h-3.68c0,1.75.92,2.39,2.12,2.39a3,3,0,0,0,1.38-.34l.14.28a3,3,0,0,1-2.07.78,2.56,2.56,0,0,1-2.6-2.75,2.79,2.79,0,0,1,2.63-3,2,2,0,0,1,2.11,2.19A3.67,3.67,0,0,1,461.91,198.79Zm-3.66-.48h2.65c0-1.11-.44-1.62-1.16-1.62S458.39,197.1,458.25,198.31Z"/><path d="M468.39,197.21l-1.27-.12a2.3,2.3,0,0,1-2.91,3.15,1.2,1.2,0,0,0-.28.68c0,.38.24.55,1.44.55h.35c1.56,0,2.19.39,2.19,1.2,0,1.54-1.7,2.17-3.21,2.17-1.16,0-2-.36-2-1.15,0-.63.5-1,.93-1.36a.79.79,0,0,1-.65-.82c0-.53.52-1,1-1.37a1.87,1.87,0,0,1-1-1.7,2.21,2.21,0,0,1,2.3-2.28,2.08,2.08,0,0,1,1.52.57l1.55-.64ZM464,202.38a1.87,1.87,0,0,0-.31,1c0,.71.48,1,1.23,1,.92,0,2.18-.47,2.18-1.28,0-.46-.39-.66-1.23-.66h-1A5.73,5.73,0,0,1,464,202.38Zm2.47-3.91c0-1.19-.52-1.87-1.22-1.87s-1.19.49-1.19,1.55.46,1.8,1.21,1.8S466.43,199.51,466.43,198.47Z"/><path d="M469.11,201.58v-1.4h.07l.67.73a1.48,1.48,0,0,0,1.07.48c.54,0,.92-.28.92-.76,0-.67-.64-.88-1.34-1.26s-1.31-.9-1.31-1.68.72-1.53,1.9-1.53a3.89,3.89,0,0,1,1.41.25v1.36h-.06l-.7-.77a1.24,1.24,0,0,0-.88-.35.77.77,0,0,0-.87.75c0,.63.63.92,1.26,1.25s1.42.76,1.42,1.69a1.66,1.66,0,0,1-1.85,1.56A4.69,4.69,0,0,1,469.11,201.58Z"/></g></g><g id="Feet" class="cls-1"><g class="cls-1"><path d="M580.48,193.08v2.21h-.06l-.92-1.61h-2.88v3.45h2.27l.07-.07v-1h.6v2.74H579v-1l-.07-.07h-2.27v3.35l.1.08H578v.61h-3.5v-.61h1l.07-.06v-7.22l-1.14-.66v-.14Z"/><path d="M585.67,198.79H582c0,1.75.92,2.39,2.12,2.39a3,3,0,0,0,1.38-.34l.15.28a3.07,3.07,0,0,1-2.07.78,2.57,2.57,0,0,1-2.61-2.75,2.8,2.8,0,0,1,2.63-3,2,2,0,0,1,2.11,2.19C585.69,198.48,585.68,198.63,585.67,198.79Zm-3.66-.48h2.64c0-1.11-.44-1.62-1.16-1.62S582.14,197.1,582,198.31Z"/><path d="M591.41,198.79h-3.69c0,1.75.93,2.39,2.13,2.39a3,3,0,0,0,1.37-.34l.15.28a3.07,3.07,0,0,1-2.07.78,2.56,2.56,0,0,1-2.6-2.75,2.79,2.79,0,0,1,2.63-3,2,2,0,0,1,2.11,2.19C591.44,198.48,591.42,198.63,591.41,198.79Zm-3.66-.48h2.65c0-1.11-.45-1.62-1.17-1.62S587.88,197.1,587.75,198.31Z"/><path d="M593,200.2V197l-.07-.07h-.8v-.07l1.73-2.28h.07v1.75h1.8v.6h-1.8v2.5c0,1.35.2,1.8,1,1.8a2.46,2.46,0,0,0,.88-.15l.15.29a2.93,2.93,0,0,1-1.54.49C593.44,201.9,593,201.47,593,200.2Z"/></g></g><g id="Group_221" data-name="Group 221"><path id="Path_252" data-name="Path 252" d="M25,52.92c.17-.55.34-1.11.5-1.66l0-.11a2.1,2.1,0,0,0,1.11-2.1c0-3.38,1.37-6.34,3.09-9.17,0,1.83-1.08,3.31-1.57,5s-1.42,3.5.23,5.62A40.26,40.26,0,0,1,29.91,43c.87-2.35,1.47-4.81,2.25-7.19.36-1.12-.18-1.15-1-1a10.51,10.51,0,0,1,4.29-3.22l-.05-.05a42.07,42.07,0,0,1-2.7,10.11c-.73,1.81-1.59,3.7-1.18,5.63a4.11,4.11,0,0,1-.72,3.16C29,53.82,26.25,56.65,25,60.33c-1.38,1-3,1.65-4.09,3.09-.59.76-.59-.09-.61-.52A36.16,36.16,0,0,0,29.5,50.46l-2.28,1.7C26.33,52,25.8,52.77,25,52.92Zm6.17-11.25c2.24-3.11,3-6,2.44-8.56Z"/><path id="Path_253" data-name="Path 253" d="M44,18.18c-1-.76-2.07-1.52-3.39-.58A3.16,3.16,0,0,0,39.43,21c.47,2.79-.18,5-3,6.14a16,16,0,0,0,1.62-2.37c.44-1,.21-1.55-1-.83.55-.8,2-1.14,1.46-2.5-.33-.86-1-.77-1.6-.22a3.7,3.7,0,0,0,1.75-3.6c-.15-2,4-5,5.78-4.56.63.16,1.23,1.39,1.94.28A1.47,1.47,0,0,0,46,11.48a1.28,1.28,0,0,0-1.78-.19,1.6,1.6,0,0,0-.25.27c-.23.25-.4.7-.94.37-.25-1.27.67-1.62,1.61-1.93a1.65,1.65,0,0,1,2.13.95l0,.06c.53,1.17,1,1.6,2.11.5.36-.36,1.25-.88,1.79-.1.39.55-.11,1.08-.45,1.55a32.29,32.29,0,0,1-4.83,5.79c-.07-1.21.71-2.39,0-3.64a2,2,0,0,0-2.06-1.21,2,2,0,0,0-1.94,1.44c-.34,1.25.92.89,1.45,1.26A2.47,2.47,0,0,1,44,18.18Z"/><path id="Path_254" data-name="Path 254" d="M35.46,31.61c-.12-1.18.85-1.29,1.77-1.77-.2,4.9-1.55,9.39-2.62,13.94-.32,1.37-1.11,3,.34,4.07,1.62,1.21,3.37.5,4.91-.39,1.25-.73,2.38-1.66,3.56-2.5a1.73,1.73,0,0,1,.19,2.3c.37,1.28-.91,1.55-1.41,2.3-.9-.81.63-1.56,0-2.38a.56.56,0,0,0-.75.26.9.9,0,0,0-.06.22A4.82,4.82,0,0,1,37,52.26c-.29.05-1.66.76-1.2-.8.21-.74,1.74-1.47.08-2.29-1.51-.74-2.73-.51-3.61,1a165.64,165.64,0,0,0,4.05-17.33c.16-1,.14-1.41-.94-1.29Z"/><path id="Path_255" data-name="Path 255" d="M42.48,40.8l-2.29.72c-.47-3.81,1.2-6.92,2.35-10.27.93.72.06,1.35.18,2,2.67-.86,5.21-.87,7.41,1.19A25.94,25.94,0,0,0,42.48,40.8ZM47.67,34c-3.19.8-5,3-6.34,5.67Z"/><path id="Path_256" data-name="Path 256" d="M42.48,40.8a25.86,25.86,0,0,1,7.66-6.41c3.07,2.87,3.08,3.83,0,7.84L50,42c.5-1.24,1-2.47,1.49-3.74a1.53,1.53,0,0,0-.39-1.86,1.59,1.59,0,0,0-1.91.12c-1.59,1.1-3.16,2.24-4.76,3.33C43.8,40.26,43.48,41.24,42.48,40.8Z"/><path id="Path_257" data-name="Path 257" d="M35.44,22.45c-.75,2.64-3,4.07-4.75,5.91-1,1-2,2-3.05,3L23.31,35l.21.2Z"/><path id="Path_258" data-name="Path 258" d="M50.39,6.5C53,4.87,54.54,2,57.93.3L50.12,9.4l-.73-1.21Z"/><path id="Path_259" data-name="Path 259" d="M26.64,43.55c-.35,2.54-.71,5.07-1.06,7.6l0,.11c-2.27,1.56-3.9,3.73-6,6.32a7.61,7.61,0,0,1,2.59-4.16c1.65-1.66,3.1-3.21,3-5.89A5.35,5.35,0,0,1,26.64,43.55Z"/><path id="Path_260" data-name="Path 260" d="M28,31.76l1.22-.22A32.28,32.28,0,0,0,25.93,35c-.76,1.07.53.34.75.61-1.6,1.77-3.6,3.18-5,5.16C22.31,36.77,25.68,34.64,28,31.76Z"/><path id="Path_261" data-name="Path 261" d="M50.19,42.23C48.3,46,46.12,49.69,45,53.84A22.21,22.21,0,0,1,50,42Z"/><path id="Path_262" data-name="Path 262" d="M50.39,6.5c-.33.57-.66,1.13-1,1.69L48.3,8.1C49.63,4.39,53,2.54,55.64,0,54.19,2.42,51.6,3.91,50.39,6.5Z"/><path id="Path_263" data-name="Path 263" d="M48.3,8.1l1.09.09.73,1.21c-.95.72-1.83,2.66-2.55-.35-.45-1.86-2.12-.47-3.74.23C45.32,6.41,46.76,7,48.3,8.1Z"/><path id="Path_264" data-name="Path 264" d="M27.49,28.54c2.28-2.95,5.34-5.12,7.75-7.94C33.36,23.94,30.47,26.28,27.49,28.54Z"/><path id="Path_265" data-name="Path 265" d="M26.56,35.72c2.89-2.33,5-5.67,8.61-7.09-2,1.88-3.89,3.79-5.88,5.64C28.53,35,27.77,35.8,26.56,35.72Z"/><path id="Path_266" data-name="Path 266" d="M24.86,64.44l6.88-6.18C30.46,60.16,27.66,62.34,24.86,64.44Z"/><path id="Path_267" data-name="Path 267" d="M43.61,47.26a1.73,1.73,0,0,0-.19-2.3,8.46,8.46,0,0,1,3.89-3.4C45.8,43.31,46,46.07,43.61,47.26Z"/><path id="Path_268" data-name="Path 268" d="M43.88,18.66h1.56c-.1.52-.78.87-.48,1.59,1.33-.43,1.86-1.8,3.52-2.83A10.28,10.28,0,0,1,43.79,22C43.79,20.87,44.6,19.77,43.88,18.66Z"/></g><g id="Group_259" data-name="Group 259"><path id="Path_252-2" data-name="Path 252-2" d="M135.41,52.92c.17-.55.34-1.11.5-1.66l0-.11a2.11,2.11,0,0,0,1.1-2.1c0-3.38,1.37-6.34,3.09-9.17,0,1.83-1.08,3.31-1.57,5s-1.42,3.5.23,5.62A40.26,40.26,0,0,1,140.28,43c.87-2.35,1.47-4.81,2.25-7.19.36-1.12-.18-1.15-1-1a10.51,10.51,0,0,1,4.29-3.22l-.05-.05a42.07,42.07,0,0,1-2.7,10.11c-.72,1.81-1.59,3.7-1.18,5.63a4.06,4.06,0,0,1-.72,3.16c-1.82,3.36-4.56,6.19-5.84,9.87-1.38,1-3,1.65-4.09,3.09-.59.76-.59-.09-.61-.52a36.31,36.31,0,0,0,9.24-12.44l-2.29,1.7C136.7,52,136.17,52.77,135.41,52.92Zm6.17-11.25c2.24-3.11,3-6,2.44-8.56Z"/><path id="Path_253-2" data-name="Path 253-2" d="M154.33,18.18c-1-.76-2.07-1.52-3.39-.58A3.16,3.16,0,0,0,149.8,21c.47,2.79-.18,5-3,6.14a16,16,0,0,0,1.62-2.37c.44-1,.21-1.55-1-.83.55-.8,2-1.14,1.46-2.5-.33-.86-1-.77-1.6-.22a3.7,3.7,0,0,0,1.75-3.6c-.15-2,4-5,5.78-4.56.63.16,1.23,1.39,1.94.28a1.47,1.47,0,0,0-.49-1.84,1.28,1.28,0,0,0-1.78-.19,1.6,1.6,0,0,0-.25.27c-.23.25-.4.7-.94.37-.25-1.27.67-1.62,1.61-1.93a1.65,1.65,0,0,1,2.13.95l0,.06c.53,1.17,1,1.6,2.11.5.36-.36,1.25-.88,1.79-.1.39.55-.11,1.08-.45,1.55a32.29,32.29,0,0,1-4.83,5.79c-.06-1.21.71-2.39,0-3.64a2,2,0,0,0-2.06-1.21,2,2,0,0,0-1.94,1.44c-.34,1.25.92.89,1.45,1.26A2.47,2.47,0,0,1,154.33,18.18Z"/><path id="Path_254-2" data-name="Path 254-2" d="M145.83,31.61c-.12-1.18.85-1.29,1.78-1.77-.21,4.9-1.56,9.39-2.63,13.94-.32,1.37-1.11,3,.34,4.07,1.62,1.21,3.37.5,4.92-.39,1.24-.73,2.37-1.66,3.55-2.5a1.73,1.73,0,0,1,.19,2.3c.37,1.28-.91,1.55-1.41,2.3-.9-.81.63-1.56,0-2.38a.56.56,0,0,0-.75.26.9.9,0,0,0-.06.22,4.82,4.82,0,0,1-4.39,4.6c-.29.05-1.66.76-1.2-.8.21-.74,1.74-1.47.08-2.29-1.51-.74-2.73-.51-3.61,1a165.64,165.64,0,0,0,4.05-17.33c.16-1,.14-1.41-.94-1.29Z"/><path id="Path_255-2" data-name="Path 255-2" d="M152.85,40.8l-2.29.72c-.47-3.81,1.2-6.92,2.35-10.27.93.72.06,1.35.18,2,2.67-.86,5.21-.87,7.41,1.19A25.94,25.94,0,0,0,152.85,40.8ZM158,34c-3.19.8-5,3-6.34,5.67Z"/><path id="Path_256-2" data-name="Path 256-2" d="M152.85,40.8a25.86,25.86,0,0,1,7.66-6.41c3.07,2.87,3.08,3.83.05,7.84l-.23-.21c.5-1.24,1.06-2.47,1.49-3.74a1.52,1.52,0,0,0-.39-1.86,1.59,1.59,0,0,0-1.91.12c-1.59,1.1-3.16,2.24-4.76,3.33C154.17,40.26,153.85,41.24,152.85,40.8Z"/><path id="Path_257-2" data-name="Path 257-2" d="M145.81,22.45c-.75,2.64-3,4.07-4.75,5.91-1,1-2,2-3.05,3L133.68,35l.21.2Z"/><path id="Path_258-2" data-name="Path 258-2" d="M160.76,6.5C163.34,4.87,164.91,2,168.3.3l-7.81,9.1-.73-1.21Z"/><path id="Path_259-2" data-name="Path 259-2" d="M137,43.55c-.35,2.54-.71,5.07-1.06,7.6l0,.11c-2.27,1.56-3.9,3.73-6,6.32a7.61,7.61,0,0,1,2.59-4.16c1.65-1.66,3.1-3.21,3-5.89A5.35,5.35,0,0,1,137,43.55Z"/><path id="Path_260-2" data-name="Path 260-2" d="M138.32,31.76l1.22-.22A33.32,33.32,0,0,0,136.3,35c-.76,1.07.53.34.75.61-1.6,1.77-3.6,3.18-5,5.16C132.68,36.77,136.05,34.64,138.32,31.76Z"/><path id="Path_261-2" data-name="Path 261-2" d="M160.56,42.23c-1.89,3.8-4.07,7.46-5.16,11.61A22.21,22.21,0,0,1,160.33,42Z"/><path id="Path_262-2" data-name="Path 262-2" d="M160.76,6.5c-.33.57-.66,1.13-1,1.69l-1.09-.09C160,4.39,163.38,2.54,166,0,164.56,2.42,162,3.91,160.76,6.5Z"/><path id="Path_263-2" data-name="Path 263-2" d="M158.67,8.1l1.09.09.73,1.21c-1,.72-1.83,2.66-2.55-.35-.45-1.86-2.12-.47-3.74.23C155.69,6.41,157.13,7,158.67,8.1Z"/><path id="Path_264-2" data-name="Path 264-2" d="M137.86,28.54c2.28-2.95,5.34-5.12,7.75-7.94C143.73,23.94,140.84,26.28,137.86,28.54Z"/><path id="Path_265-2" data-name="Path 265-2" d="M136.93,35.72c2.9-2.33,5-5.67,8.61-7.09-2,1.88-3.89,3.79-5.88,5.64C138.9,35,138.14,35.8,136.93,35.72Z"/><path id="Path_266-2" data-name="Path 266-2" d="M135.23,64.44l6.88-6.18C140.83,60.16,138,62.34,135.23,64.44Z"/><path id="Path_267-2" data-name="Path 267-2" d="M154,47.26a1.73,1.73,0,0,0-.19-2.3,8.46,8.46,0,0,1,3.89-3.4C156.17,43.31,156.37,46.07,154,47.26Z"/><path id="Path_268-2" data-name="Path 268-2" d="M154.25,18.66h1.56c-.1.52-.78.87-.48,1.59,1.33-.43,1.86-1.8,3.52-2.83A10.28,10.28,0,0,1,154.16,22C154.16,20.87,155,19.77,154.25,18.66Z"/></g><g id="Group_260" data-name="Group 260"><path id="Path_252-3" data-name="Path 252-3" d="M340.15,52.92l.51-1.66,0-.11a2.11,2.11,0,0,0,1.1-2.1c0-3.38,1.37-6.34,3.09-9.17,0,1.83-1.08,3.31-1.57,5s-1.42,3.5.24,5.62A39.47,39.47,0,0,1,345,43c.87-2.35,1.47-4.81,2.25-7.19.36-1.12-.18-1.15-1-1a10.51,10.51,0,0,1,4.29-3.22l-.05-.05a42.07,42.07,0,0,1-2.7,10.11c-.72,1.81-1.58,3.7-1.17,5.63a4.11,4.11,0,0,1-.73,3.16c-1.82,3.36-4.56,6.19-5.84,9.87-1.38,1-3,1.65-4.09,3.09-.58.76-.59-.09-.61-.52a36.31,36.31,0,0,0,9.24-12.44l-2.29,1.7C341.45,52,340.91,52.77,340.15,52.92Zm6.17-11.25c2.24-3.11,3-6,2.44-8.56Z"/><path id="Path_253-3" data-name="Path 253-3" d="M359.07,18.18c-1-.76-2.07-1.52-3.39-.58A3.16,3.16,0,0,0,354.54,21c.48,2.79-.18,5-3,6.14a16.74,16.74,0,0,0,1.61-2.37c.44-1,.21-1.55-1-.83.55-.8,2-1.14,1.46-2.5-.33-.86-1-.77-1.59-.22a3.73,3.73,0,0,0,1.75-3.6c-.16-2,4-5,5.77-4.56.63.16,1.23,1.39,1.94.28a1.47,1.47,0,0,0-.49-1.84,1.28,1.28,0,0,0-1.78-.19,1.22,1.22,0,0,0-.24.27c-.24.25-.41.7-1,.37-.25-1.27.67-1.62,1.61-1.93a1.64,1.64,0,0,1,2.13.95l0,.06c.53,1.17,1,1.6,2.11.5.36-.36,1.25-.88,1.79-.1.39.55-.11,1.08-.45,1.55a32.29,32.29,0,0,1-4.83,5.79c-.06-1.21.71-2.39,0-3.64a2,2,0,0,0-2.06-1.21,2,2,0,0,0-1.94,1.44c-.34,1.25.92.89,1.45,1.26A2.47,2.47,0,0,1,359.07,18.18Z"/><path id="Path_254-3" data-name="Path 254-3" d="M350.57,31.61c-.12-1.18.85-1.29,1.78-1.77-.21,4.9-1.56,9.39-2.62,13.94-.33,1.37-1.11,3,.33,4.07,1.62,1.21,3.38.5,4.92-.39,1.25-.73,2.37-1.66,3.55-2.5a1.73,1.73,0,0,1,.19,2.3c.37,1.28-.9,1.55-1.4,2.3-.91-.81.62-1.56,0-2.38a.57.57,0,0,0-.75.26.9.9,0,0,0-.06.22,4.82,4.82,0,0,1-4.39,4.6c-.28.05-1.66.76-1.2-.8.22-.74,1.74-1.47.08-2.29-1.51-.74-2.73-.51-3.61,1a165.64,165.64,0,0,0,4-17.33c.16-1,.14-1.41-.94-1.29Z"/><path id="Path_255-3" data-name="Path 255-3" d="M357.59,40.8l-2.29.72c-.46-3.81,1.2-6.92,2.35-10.27.93.72.06,1.35.18,2,2.67-.86,5.21-.87,7.41,1.19A25.94,25.94,0,0,0,357.59,40.8ZM362.78,34c-3.19.8-5,3-6.34,5.67Z"/><path id="Path_256-3" data-name="Path 256-3" d="M357.59,40.8a25.86,25.86,0,0,1,7.66-6.41c3.08,2.87,3.08,3.83.05,7.84l-.23-.21c.51-1.24,1.06-2.47,1.49-3.74a1.52,1.52,0,0,0-.39-1.86,1.59,1.59,0,0,0-1.91.12c-1.59,1.1-3.16,2.24-4.76,3.33C358.91,40.26,358.59,41.24,357.59,40.8Z"/><path id="Path_257-3" data-name="Path 257-3" d="M350.55,22.45c-.75,2.64-3,4.07-4.75,5.91-1,1-2,2-3.05,3L338.42,35l.22.2Z"/><path id="Path_258-3" data-name="Path 258-3" d="M365.5,6.5C368.08,4.87,369.65,2,373,.3l-7.81,9.1-.72-1.21Z"/><path id="Path_259-3" data-name="Path 259-3" d="M341.75,43.55c-.35,2.54-.71,5.07-1.06,7.6l0,.11c-2.27,1.56-3.9,3.73-6,6.32a7.67,7.67,0,0,1,2.59-4.16c1.65-1.66,3.11-3.21,3-5.89A5.39,5.39,0,0,1,341.75,43.55Z"/><path id="Path_260-3" data-name="Path 260-3" d="M343.07,31.76l1.21-.22A33.32,33.32,0,0,0,341,35c-.76,1.07.53.34.75.61-1.6,1.77-3.6,3.18-5,5.16C337.42,36.77,340.79,34.64,343.07,31.76Z"/><path id="Path_261-3" data-name="Path 261-3" d="M365.3,42.23c-1.89,3.8-4.07,7.46-5.16,11.61A22.21,22.21,0,0,1,365.07,42Z"/><path id="Path_262-3" data-name="Path 262-3" d="M365.5,6.5l-1,1.69-1.1-.09c1.33-3.71,4.72-5.56,7.34-8.1C369.3,2.42,366.72,3.91,365.5,6.5Z"/><path id="Path_263-3" data-name="Path 263-3" d="M363.41,8.1l1.09.09.73,1.21c-1,.72-1.83,2.66-2.55-.35-.45-1.86-2.12-.47-3.74.23C360.43,6.41,361.88,7,363.41,8.1Z"/><path id="Path_264-3" data-name="Path 264-3" d="M342.6,28.54c2.28-2.95,5.34-5.12,7.75-7.94C348.47,23.94,345.58,26.28,342.6,28.54Z"/><path id="Path_265-3" data-name="Path 265-3" d="M341.67,35.72c2.9-2.33,5-5.67,8.61-7.09-2,1.88-3.89,3.79-5.88,5.64C343.64,35,342.88,35.8,341.67,35.72Z"/><path id="Path_266-3" data-name="Path 266-3" d="M340,64.44l6.88-6.18C345.57,60.16,342.77,62.34,340,64.44Z"/><path id="Path_267-3" data-name="Path 267-3" d="M358.72,47.26a1.73,1.73,0,0,0-.19-2.3,8.46,8.46,0,0,1,3.89-3.4C360.91,43.31,361.11,46.07,358.72,47.26Z"/><path id="Path_268-3" data-name="Path 268-3" d="M359,18.66h1.56c-.1.52-.78.87-.48,1.59,1.33-.43,1.86-1.8,3.52-2.83A10.28,10.28,0,0,1,358.9,22C358.9,20.87,359.71,19.77,359,18.66Z"/></g><g id="Group_261" data-name="Group 261"><path id="Path_252-4" data-name="Path 252-4" d="M234.78,52.92l.51-1.66,0-.11a2.11,2.11,0,0,0,1.1-2.1c0-3.38,1.37-6.34,3.09-9.17,0,1.83-1.08,3.31-1.57,5s-1.42,3.5.24,5.62A39.47,39.47,0,0,1,239.65,43c.87-2.35,1.47-4.81,2.25-7.19.36-1.12-.18-1.15-1-1a10.51,10.51,0,0,1,4.29-3.22l0-.05a42.07,42.07,0,0,1-2.7,10.11c-.72,1.81-1.58,3.7-1.18,5.63a4.06,4.06,0,0,1-.72,3.16c-1.82,3.36-4.56,6.19-5.84,9.87-1.38,1-3,1.65-4.09,3.09-.58.76-.59-.09-.61-.52a36.31,36.31,0,0,0,9.24-12.44L237,52.16C236.07,52,235.54,52.77,234.78,52.92ZM241,41.67c2.24-3.11,3-6,2.44-8.56Z"/><path id="Path_253-4" data-name="Path 253-4" d="M253.7,18.18c-1-.76-2.07-1.52-3.39-.58A3.16,3.16,0,0,0,249.17,21c.47,2.79-.18,5-3,6.14a16,16,0,0,0,1.62-2.37c.44-1,.21-1.55-1-.83.55-.8,2-1.14,1.46-2.5-.33-.86-1-.77-1.59-.22a3.71,3.71,0,0,0,1.74-3.6c-.15-2,4-5,5.78-4.56.63.16,1.23,1.39,1.94.28a1.47,1.47,0,0,0-.49-1.84,1.28,1.28,0,0,0-1.78-.19,1.6,1.6,0,0,0-.25.27c-.23.25-.4.7-.94.37-.25-1.27.67-1.62,1.61-1.93a1.64,1.64,0,0,1,2.13.95l0,.06c.53,1.17,1,1.6,2.11.5.36-.36,1.25-.88,1.79-.1.39.55-.11,1.08-.45,1.55a32.29,32.29,0,0,1-4.83,5.79c-.06-1.21.71-2.39,0-3.64a2,2,0,0,0-2.06-1.21,2,2,0,0,0-1.94,1.44c-.34,1.25.92.89,1.45,1.26A2.47,2.47,0,0,1,253.7,18.18Z"/><path id="Path_254-4" data-name="Path 254-4" d="M245.2,31.61c-.12-1.18.85-1.29,1.78-1.77-.21,4.9-1.56,9.39-2.63,13.94-.32,1.37-1.11,3,.34,4.07,1.62,1.21,3.38.5,4.92-.39,1.24-.73,2.37-1.66,3.55-2.5a1.73,1.73,0,0,1,.19,2.3c.37,1.28-.91,1.55-1.4,2.3-.91-.81.62-1.56,0-2.38a.57.57,0,0,0-.75.26.9.9,0,0,0-.06.22,4.82,4.82,0,0,1-4.39,4.6c-.29.05-1.66.76-1.2-.8.22-.74,1.74-1.47.08-2.29s-2.73-.51-3.61,1a165.64,165.64,0,0,0,4.05-17.33c.16-1,.14-1.41-.94-1.29Z"/><path id="Path_255-4" data-name="Path 255-4" d="M252.22,40.8l-2.29.72c-.47-3.81,1.2-6.92,2.35-10.27.93.72.06,1.35.18,2,2.67-.86,5.21-.87,7.41,1.19A25.94,25.94,0,0,0,252.22,40.8ZM257.41,34c-3.19.8-5,3-6.34,5.67Z"/><path id="Path_256-4" data-name="Path 256-4" d="M252.22,40.8a25.86,25.86,0,0,1,7.66-6.41c3.08,2.87,3.08,3.83.05,7.84L259.7,42c.51-1.24,1.06-2.47,1.49-3.74a1.52,1.52,0,0,0-.39-1.86,1.59,1.59,0,0,0-1.91.12c-1.59,1.1-3.16,2.24-4.76,3.33C253.54,40.26,253.22,41.24,252.22,40.8Z"/><path id="Path_257-4" data-name="Path 257-4" d="M245.18,22.45c-.75,2.64-3,4.07-4.75,5.91-1,1-2,2-3.05,3L233.05,35l.21.2Z"/><path id="Path_258-4" data-name="Path 258-4" d="M260.13,6.5c2.58-1.63,4.15-4.47,7.54-6.2l-7.81,9.1-.72-1.21Z"/><path id="Path_259-4" data-name="Path 259-4" d="M236.38,43.55c-.35,2.54-.71,5.07-1.06,7.6l0,.11c-2.27,1.56-3.9,3.73-6,6.32a7.67,7.67,0,0,1,2.59-4.16c1.65-1.66,3.1-3.21,3-5.89A5.35,5.35,0,0,1,236.38,43.55Z"/><path id="Path_260-4" data-name="Path 260-4" d="M237.7,31.76l1.21-.22A33.32,33.32,0,0,0,235.67,35c-.76,1.07.53.34.75.61-1.6,1.77-3.6,3.18-5,5.16C232.05,36.77,235.42,34.64,237.7,31.76Z"/><path id="Path_261-4" data-name="Path 261-4" d="M259.93,42.23c-1.89,3.8-4.07,7.46-5.16,11.61A22.21,22.21,0,0,1,259.7,42Z"/><path id="Path_262-4" data-name="Path 262-4" d="M260.13,6.5c-.33.57-.66,1.13-1,1.69L258,8.1c1.33-3.71,4.72-5.56,7.34-8.1C263.93,2.42,261.35,3.91,260.13,6.5Z"/><path id="Path_263-4" data-name="Path 263-4" d="M258,8.1l1.09.09.73,1.21c-.95.72-1.83,2.66-2.55-.35-.45-1.86-2.12-.47-3.74.23C255.06,6.41,256.5,7,258,8.1Z"/><path id="Path_264-4" data-name="Path 264-4" d="M237.23,28.54c2.28-2.95,5.34-5.12,7.75-7.94C243.1,23.94,240.21,26.28,237.23,28.54Z"/><path id="Path_265-4" data-name="Path 265-4" d="M236.3,35.72c2.9-2.33,5-5.67,8.61-7.09-2,1.88-3.89,3.79-5.88,5.64C238.27,35,237.51,35.8,236.3,35.72Z"/><path id="Path_266-4" data-name="Path 266-4" d="M234.6,64.44l6.88-6.18C240.2,60.16,237.4,62.34,234.6,64.44Z"/><path id="Path_267-4" data-name="Path 267-4" d="M253.35,47.26a1.73,1.73,0,0,0-.19-2.3,8.46,8.46,0,0,1,3.89-3.4C255.54,43.31,255.74,46.07,253.35,47.26Z"/><path id="Path_268-4" data-name="Path 268-4" d="M253.62,18.66h1.56c-.1.52-.78.87-.48,1.59,1.33-.43,1.86-1.8,3.52-2.83A10.28,10.28,0,0,1,253.53,22C253.53,20.87,254.34,19.77,253.62,18.66Z"/></g><g id="Group_262" data-name="Group 262"><path id="Path_252-5" data-name="Path 252-5" d="M570.37,52.92l.51-1.66,0-.11a2.11,2.11,0,0,0,1.1-2.1c0-3.38,1.37-6.34,3.1-9.17,0,1.83-1.09,3.31-1.58,5s-1.42,3.5.24,5.62A39.47,39.47,0,0,1,575.24,43c.87-2.35,1.47-4.81,2.25-7.19.36-1.12-.18-1.15-1-1a10.51,10.51,0,0,1,4.29-3.22l0-.05a42.52,42.52,0,0,1-2.69,10.11c-.73,1.81-1.59,3.7-1.18,5.63a4.11,4.11,0,0,1-.73,3.16c-1.82,3.36-4.56,6.19-5.84,9.87-1.38,1-3,1.65-4.09,3.09-.58.76-.59-.09-.61-.52a36.31,36.31,0,0,0,9.24-12.44l-2.29,1.7C571.67,52,571.13,52.77,570.37,52.92Zm6.17-11.25c2.24-3.11,3-6,2.44-8.56Z"/><path id="Path_253-5" data-name="Path 253-5" d="M589.3,18.18c-1-.76-2.08-1.52-3.4-.58A3.16,3.16,0,0,0,584.76,21c.48,2.79-.18,5-3,6.14a16.74,16.74,0,0,0,1.61-2.37c.44-1,.21-1.55-1-.83.55-.8,2-1.14,1.46-2.5-.33-.86-1-.77-1.59-.22a3.73,3.73,0,0,0,1.75-3.6c-.16-2,4-5,5.77-4.56.63.16,1.23,1.39,1.94.28a1.47,1.47,0,0,0-.49-1.84,1.28,1.28,0,0,0-1.78-.19,1.22,1.22,0,0,0-.24.27c-.24.25-.4.7-1,.37-.25-1.27.67-1.62,1.61-1.93a1.64,1.64,0,0,1,2.13.95l0,.06c.53,1.17,1,1.6,2.11.5.36-.36,1.25-.88,1.79-.1.39.55-.11,1.08-.45,1.55a32.29,32.29,0,0,1-4.83,5.79c-.06-1.21.71-2.39,0-3.64a2,2,0,0,0-2.06-1.21,2,2,0,0,0-1.94,1.44c-.34,1.25.92.89,1.45,1.26A2.52,2.52,0,0,1,589.3,18.18Z"/><path id="Path_254-5" data-name="Path 254-5" d="M580.79,31.61c-.11-1.18.85-1.29,1.78-1.77-.21,4.9-1.55,9.39-2.62,13.94-.33,1.37-1.11,3,.33,4.07,1.62,1.21,3.38.5,4.92-.39,1.25-.73,2.37-1.66,3.55-2.5a1.73,1.73,0,0,1,.19,2.3c.37,1.28-.9,1.55-1.4,2.3-.9-.81.62-1.56,0-2.38a.57.57,0,0,0-.75.26.9.9,0,0,0-.06.22,4.82,4.82,0,0,1-4.39,4.6c-.28.05-1.66.76-1.2-.8.22-.74,1.74-1.47.08-2.29s-2.73-.51-3.61,1a165.64,165.64,0,0,0,4-17.33c.16-1,.14-1.41-.94-1.29Z"/><path id="Path_255-5" data-name="Path 255-5" d="M587.81,40.8l-2.29.72c-.46-3.81,1.2-6.92,2.35-10.27.93.72.06,1.35.18,2,2.68-.86,5.21-.87,7.41,1.19A25.94,25.94,0,0,0,587.81,40.8ZM593,34c-3.19.8-5,3-6.34,5.67Z"/><path id="Path_256-5" data-name="Path 256-5" d="M587.81,40.8a25.86,25.86,0,0,1,7.66-6.41c3.08,2.87,3.08,3.83,0,7.84l-.23-.21c.51-1.24,1.06-2.47,1.49-3.74a1.52,1.52,0,0,0-.39-1.86,1.59,1.59,0,0,0-1.91.12c-1.59,1.1-3.16,2.24-4.76,3.33C589.14,40.26,588.81,41.24,587.81,40.8Z"/><path id="Path_257-5" data-name="Path 257-5" d="M580.77,22.45c-.75,2.64-3,4.07-4.75,5.91-1,1-2,2-3,3L568.64,35l.22.2Z"/><path id="Path_258-5" data-name="Path 258-5" d="M595.72,6.5C598.3,4.87,599.87,2,603.26.3l-7.81,9.1-.72-1.21Z"/><path id="Path_259-5" data-name="Path 259-5" d="M572,43.55c-.35,2.54-.71,5.07-1.06,7.6l0,.11c-2.27,1.56-3.9,3.73-6,6.32a7.67,7.67,0,0,1,2.59-4.16c1.65-1.66,3.11-3.21,3-5.89A5.39,5.39,0,0,1,572,43.55Z"/><path id="Path_260-5" data-name="Path 260-5" d="M573.29,31.76l1.21-.22A33.32,33.32,0,0,0,571.26,35c-.76,1.07.53.34.75.61-1.6,1.77-3.6,3.18-5,5.16C567.64,36.77,571,34.64,573.29,31.76Z"/><path id="Path_261-5" data-name="Path 261-5" d="M595.52,42.23c-1.89,3.8-4.07,7.46-5.16,11.61A22.21,22.21,0,0,1,595.29,42Z"/><path id="Path_262-5" data-name="Path 262-5" d="M595.72,6.5l-1,1.69-1.1-.09C595,4.39,598.35,2.54,601,0,599.52,2.42,596.94,3.91,595.72,6.5Z"/><path id="Path_263-5" data-name="Path 263-5" d="M593.63,8.1l1.09.09c.25.4.49.81.73,1.21-1,.72-1.83,2.66-2.55-.35-.45-1.86-2.12-.47-3.74.23C590.65,6.41,592.1,7,593.63,8.1Z"/><path id="Path_264-5" data-name="Path 264-5" d="M572.82,28.54c2.28-2.95,5.34-5.12,7.75-7.94C578.69,23.94,575.8,26.28,572.82,28.54Z"/><path id="Path_265-5" data-name="Path 265-5" d="M571.89,35.72c2.9-2.33,5-5.67,8.61-7.09-2,1.88-3.89,3.79-5.88,5.64C573.86,35,573.1,35.8,571.89,35.72Z"/><path id="Path_266-5" data-name="Path 266-5" d="M570.19,64.44l6.88-6.18C575.79,60.16,573,62.34,570.19,64.44Z"/><path id="Path_267-5" data-name="Path 267-5" d="M588.94,47.26a1.73,1.73,0,0,0-.19-2.3,8.46,8.46,0,0,1,3.89-3.4C591.13,43.31,591.33,46.07,588.94,47.26Z"/><path id="Path_268-5" data-name="Path 268-5" d="M589.21,18.66h1.56c-.1.52-.78.87-.48,1.59,1.33-.43,1.86-1.8,3.52-2.83A10.28,10.28,0,0,1,589.12,22C589.12,20.87,589.93,19.77,589.21,18.66Z"/></g><g id="Group_263" data-name="Group 263"><path id="Path_252-6" data-name="Path 252-6" d="M454.52,52.92l.51-1.66,0-.11a2.11,2.11,0,0,0,1.1-2.1c0-3.38,1.37-6.34,3.1-9.17,0,1.83-1.09,3.31-1.58,5s-1.42,3.5.24,5.62A39.47,39.47,0,0,1,459.39,43c.87-2.35,1.47-4.81,2.25-7.19.36-1.12-.18-1.15-1-1a10.51,10.51,0,0,1,4.29-3.22l-.05-.05a42.52,42.52,0,0,1-2.69,10.11c-.73,1.81-1.59,3.7-1.18,5.63a4.11,4.11,0,0,1-.73,3.16c-1.82,3.36-4.56,6.19-5.84,9.87-1.38,1-3,1.65-4.09,3.09-.58.76-.59-.09-.61-.52A36.31,36.31,0,0,0,459,50.46l-2.29,1.7C455.82,52,455.28,52.77,454.52,52.92Zm6.17-11.25c2.24-3.11,3-6,2.44-8.56Z"/><path id="Path_253-6" data-name="Path 253-6" d="M473.45,18.18c-1-.76-2.08-1.52-3.4-.58A3.16,3.16,0,0,0,468.91,21c.48,2.79-.18,5-3,6.14a16.74,16.74,0,0,0,1.61-2.37c.44-1,.21-1.55-1-.83.55-.8,2-1.14,1.46-2.5-.33-.86-1-.77-1.59-.22a3.73,3.73,0,0,0,1.75-3.6c-.16-2,4-5,5.77-4.56.63.16,1.23,1.39,1.94.28a1.47,1.47,0,0,0-.49-1.84,1.28,1.28,0,0,0-1.78-.19,1.22,1.22,0,0,0-.24.27c-.24.25-.4.7-1,.37-.25-1.27.67-1.62,1.61-1.93a1.64,1.64,0,0,1,2.13.95l0,.06c.53,1.17,1,1.6,2.11.5.36-.36,1.25-.88,1.79-.1.39.55-.11,1.08-.45,1.55a32.29,32.29,0,0,1-4.83,5.79c-.06-1.21.71-2.39,0-3.64a2,2,0,0,0-2.06-1.21,2,2,0,0,0-1.94,1.44c-.34,1.25.92.89,1.45,1.26A2.52,2.52,0,0,1,473.45,18.18Z"/><path id="Path_254-6" data-name="Path 254-6" d="M464.94,31.61c-.11-1.18.85-1.29,1.78-1.77-.21,4.9-1.55,9.39-2.62,13.94-.33,1.37-1.11,3,.33,4.07,1.62,1.21,3.38.5,4.92-.39,1.25-.73,2.37-1.66,3.55-2.5a1.73,1.73,0,0,1,.19,2.3c.37,1.28-.9,1.55-1.4,2.3-.9-.81.62-1.56,0-2.38a.57.57,0,0,0-.75.26.9.9,0,0,0-.06.22,4.82,4.82,0,0,1-4.39,4.6c-.28.05-1.66.76-1.2-.8.22-.74,1.74-1.47.08-2.29-1.51-.74-2.73-.51-3.61,1a165.64,165.64,0,0,0,4.05-17.33c.16-1,.14-1.41-.94-1.29Z"/><path id="Path_255-6" data-name="Path 255-6" d="M472,40.8l-2.29.72c-.46-3.81,1.2-6.92,2.35-10.27.93.72.06,1.35.18,2,2.68-.86,5.21-.87,7.41,1.19A25.94,25.94,0,0,0,472,40.8ZM477.15,34c-3.19.8-5,3-6.34,5.67Z"/><path id="Path_256-6" data-name="Path 256-6" d="M472,40.8a25.86,25.86,0,0,1,7.66-6.41c3.08,2.87,3.08,3.83.05,7.84l-.23-.21c.51-1.24,1.06-2.47,1.49-3.74a1.52,1.52,0,0,0-.39-1.86,1.59,1.59,0,0,0-1.91.12c-1.59,1.1-3.16,2.24-4.76,3.33C473.29,40.26,473,41.24,472,40.8Z"/><path id="Path_257-6" data-name="Path 257-6" d="M464.92,22.45c-.75,2.64-3,4.07-4.75,5.91-1,1-2,2-3.05,3L452.79,35l.22.2Z"/><path id="Path_258-6" data-name="Path 258-6" d="M479.87,6.5C482.45,4.87,484,2,487.41.3L479.6,9.4l-.72-1.21Z"/><path id="Path_259-6" data-name="Path 259-6" d="M456.12,43.55c-.35,2.54-.71,5.07-1.06,7.6l0,.11c-2.27,1.56-3.9,3.73-6,6.32a7.67,7.67,0,0,1,2.59-4.16c1.65-1.66,3.11-3.21,3-5.89A5.39,5.39,0,0,1,456.12,43.55Z"/><path id="Path_260-6" data-name="Path 260-6" d="M457.44,31.76l1.21-.22A33.32,33.32,0,0,0,455.41,35c-.76,1.07.53.34.75.61-1.6,1.77-3.6,3.18-5,5.16C451.79,36.77,455.16,34.64,457.44,31.76Z"/><path id="Path_261-6" data-name="Path 261-6" d="M479.67,42.23c-1.88,3.8-4.07,7.46-5.16,11.61A22.21,22.21,0,0,1,479.44,42Z"/><path id="Path_262-6" data-name="Path 262-6" d="M479.87,6.5l-1,1.69-1.1-.09c1.33-3.71,4.72-5.56,7.34-8.1C483.67,2.42,481.09,3.91,479.87,6.5Z"/><path id="Path_263-6" data-name="Path 263-6" d="M477.78,8.1l1.09.09c.25.4.49.81.73,1.21-1,.72-1.83,2.66-2.55-.35-.45-1.86-2.12-.47-3.74.23C474.8,6.41,476.25,7,477.78,8.1Z"/><path id="Path_264-6" data-name="Path 264-6" d="M457,28.54c2.28-2.95,5.34-5.12,7.75-7.94C462.84,23.94,460,26.28,457,28.54Z"/><path id="Path_265-6" data-name="Path 265-6" d="M456,35.72c2.9-2.33,5-5.67,8.61-7.09-1.95,1.88-3.89,3.79-5.88,5.64C458,35,457.25,35.8,456,35.72Z"/><path id="Path_266-6" data-name="Path 266-6" d="M454.34,64.44l6.88-6.18C459.94,60.16,457.14,62.34,454.34,64.44Z"/><path id="Path_267-6" data-name="Path 267-6" d="M473.09,47.26a1.73,1.73,0,0,0-.19-2.3,8.46,8.46,0,0,1,3.89-3.4C475.28,43.31,475.48,46.07,473.09,47.26Z"/><path id="Path_268-6" data-name="Path 268-6" d="M473.36,18.66h1.56c-.1.52-.78.87-.48,1.59,1.33-.43,1.86-1.8,3.52-2.83A10.28,10.28,0,0,1,473.27,22C473.27,20.87,474.08,19.77,473.36,18.66Z"/></g><path class="cls-2" d="M30.58,122.29l.17-.21c.17-.21.52-.63.89-1A11.15,11.15,0,0,1,32.85,120a11.35,11.35,0,0,1,1.37-.87,9.72,9.72,0,0,1,1.48-.64,10.66,10.66,0,0,1,1.57-.41,10.83,10.83,0,0,1,1.61-.15,9.61,9.61,0,0,1,1.61.1,9.49,9.49,0,0,1,1.58.35,8.82,8.82,0,0,1,1.5.59,10.18,10.18,0,0,1,2.65,1.85A11.28,11.28,0,0,1,47.29,122a12.06,12.06,0,0,1,.87,1.36,10.29,10.29,0,0,1,.64,1.49,10.53,10.53,0,0,1,.41,1.56,10.83,10.83,0,0,1,.15,1.61,10.38,10.38,0,0,1-.45,3.2,10.2,10.2,0,0,1-1.41,2.89,10.28,10.28,0,0,1-2.24,2.32,9.78,9.78,0,0,1-1.36.87,10.34,10.34,0,0,1-1.49.65c-.51.17-1,.31-1.54,1.52s-1,3.49-1.56,3.5-1.11-2.25-1.67-3.45a2.14,2.14,0,0,0-1.6-1.46,11.39,11.39,0,0,1-1.5-.59,11,11,0,0,1-1.4-.83,10,10,0,0,1-1.24-1,9.54,9.54,0,0,1-1.07-1.22,9.23,9.23,0,0,1-.87-1.36,10.23,10.23,0,0,1-.65-1.48,10.63,10.63,0,0,1-.4-1.57,10,10,0,0,1-.06-3.22,10.33,10.33,0,0,1,.35-1.58,11.52,11.52,0,0,1,.59-1.51c.24-.48.51-1,.65-1.18l.14-.23"/><path class="cls-3" d="M29.38,121.44l.19-.23c.2-.24.59-.72,1-1.16A11.45,11.45,0,0,1,32,118.82a12.8,12.8,0,0,1,1.56-1,11.6,11.6,0,0,1,1.7-.73,11.12,11.12,0,0,1,1.78-.47,12.72,12.72,0,0,1,1.84-.17,11.73,11.73,0,0,1,3.65.51,12.06,12.06,0,0,1,1.72.68,9.32,9.32,0,0,0,1.75.76,4.46,4.46,0,0,1,1.93.65,4.41,4.41,0,0,1,.72,1.91,10.27,10.27,0,0,0,.83,1.73,11.49,11.49,0,0,1,.73,1.69,12.08,12.08,0,0,1,.47,1.79,12.59,12.59,0,0,1,.17,1.84,11.36,11.36,0,0,1-.11,1.84,12.31,12.31,0,0,1-.4,1.8,11.61,11.61,0,0,1-.68,1.72A12,12,0,0,1,48.7,135a12.45,12.45,0,0,1-1.18,1.43,12.29,12.29,0,0,1-1.38,1.22,12.1,12.1,0,0,1-3.25,1.73,12,12,0,0,1-1.79.46,11.36,11.36,0,0,1-1.84.18,12.62,12.62,0,0,1-1.84-.11,12.31,12.31,0,0,1-1.8-.4,11.61,11.61,0,0,1-1.72-.68,11.54,11.54,0,0,1-4.24-3.5,12,12,0,0,1-1-1.55,11.65,11.65,0,0,1-.74-1.7,11.08,11.08,0,0,1-.46-1.78,11.47,11.47,0,0,1-.18-1.84,12.68,12.68,0,0,1,.11-1.85,12.31,12.31,0,0,1,.4-1.8,12.06,12.06,0,0,1,.68-1.72c.27-.55.58-1.08.74-1.35l.16-.27"/><path class="cls-4" d="M23.38,117.25l.32-.39c.32-.39.95-1.16,1.65-1.88a19.22,19.22,0,0,1,2.24-2,18.89,18.89,0,0,1,2.52-1.61,20.81,20.81,0,0,1,2.74-1.19c.95-.32,1.91-.57,2.86-2.72s1.88-6.18,2.88-6.2,2.06,4,3.08,6.1,2,2.33,3,2.62a20,20,0,0,1,2.78,1.09A19.61,19.61,0,0,1,50,112.61a19.93,19.93,0,0,1,2.31,1.9,21,21,0,0,1,2,2.24,18.47,18.47,0,0,1,1.6,2.52,19.73,19.73,0,0,1,1.2,2.75,19.14,19.14,0,0,1,.74,2.89,18.68,18.68,0,0,1,.29,3,18.49,18.49,0,0,1-.18,3,19.26,19.26,0,0,1-.65,2.92,18.52,18.52,0,0,1-2.61,5.36,19.12,19.12,0,0,1-1.9,2.31,20,20,0,0,1-2.24,2A19.67,19.67,0,0,1,48,145.05a18.45,18.45,0,0,1-2.74,1.19,18,18,0,0,1-2.89.75,18.68,18.68,0,0,1-6,.1,18.58,18.58,0,0,1-2.92-.64,18.9,18.9,0,0,1-2.78-1.1,18.46,18.46,0,0,1-2.57-1.52,19.12,19.12,0,0,1-2.31-1.9,18.34,18.34,0,0,1-2-2.24,19.56,19.56,0,0,1-1.61-2.52A19.18,19.18,0,0,1,20,128.55a19.87,19.87,0,0,1,.18-3,19.26,19.26,0,0,1,.65-2.92,18.47,18.47,0,0,1,1.1-2.78c.43-.9.94-1.76,1.2-2.19l.25-.43"/><path class="cls-5" d="M10.44,108.18l.58-.7c.58-.71,1.74-2.12,3-3.43a34.82,34.82,0,0,1,13.7-8.73A34.89,34.89,0,0,1,43.9,93.76,35.17,35.17,0,0,1,54.31,97a35.12,35.12,0,0,1,8.92,6.24A35,35,0,0,1,72,116.89a34.81,34.81,0,0,1,1.36,5.29,34.24,34.24,0,0,1,.19,10.88,34.71,34.71,0,0,1-3.18,10.42c-.8,1.63-1.73,3.21-2.49,5s-1.36,3.72-2.63,5-3.19,2-4.93,2.8S57,158.09,55.39,159a35.27,35.27,0,0,1-10.29,3.54,34.2,34.2,0,0,1-5.44.52,35.53,35.53,0,0,1-5.45-.33,35,35,0,0,1-5.33-1.18,34.57,34.57,0,0,1-5.08-2,35.76,35.76,0,0,1-4.7-2.77,35,35,0,0,1-4.21-3.48,32.68,32.68,0,0,1-3.62-4.09,34.5,34.5,0,0,1-2.94-4.6,35.25,35.25,0,0,1-2.17-5A34.89,34.89,0,0,1,4.6,123.38,34.77,34.77,0,0,1,7.78,113c.8-1.64,1.73-3.21,2.19-4l.47-.79"/><path class="cls-6" d="M10,107.87l.59-.71c.59-.72,1.77-2.15,3.06-3.48A35,35,0,0,1,22.47,97a37,37,0,0,1,5.08-2.21,36,36,0,0,1,10.89-1.92,36.5,36.5,0,0,1,5.53.34,35.39,35.39,0,0,1,10.58,3.23,32.58,32.58,0,0,0,5.23,2.35c2,.59,4.31.82,5.64,2.11s1.65,3.62,2.31,5.57a34.12,34.12,0,0,0,2.52,5.14,35.27,35.27,0,0,1,2.21,5.09,34.15,34.15,0,0,1,1.39,5.37,35.72,35.72,0,0,1,.2,11,35.8,35.8,0,0,1-1.2,5.41,36.41,36.41,0,0,1-2,5.16A35.83,35.83,0,0,1,68,148.49a35.2,35.2,0,0,1-3.53,4.28,34.47,34.47,0,0,1-4.15,3.67,35.64,35.64,0,0,1-4.68,3,34.68,34.68,0,0,1-5.08,2.21A35.59,35.59,0,0,1,45.19,163a35.31,35.31,0,0,1-11,.19,35.8,35.8,0,0,1-5.41-1.2,35.44,35.44,0,0,1-9.94-4.84,35.34,35.34,0,0,1-7.95-7.68A35.33,35.33,0,0,1,4.07,123.3a34.62,34.62,0,0,1,1.2-5.41,35.66,35.66,0,0,1,2-5.16c.81-1.66,1.75-3.26,2.22-4.06l.47-.8"/><path class="cls-7" d="M9.28,107.37l.6-.73c.61-.74,1.81-2.21,3.13-3.57a36.26,36.26,0,0,1,4.26-3.76,35.69,35.69,0,0,1,4.79-3.06A36.44,36.44,0,0,1,27.27,94,36.09,36.09,0,0,1,44.1,92.37a35.15,35.15,0,0,1,5.54,1.23,35.86,35.86,0,0,1,5.29,2.08,36.88,36.88,0,0,1,4.89,2.88A36.25,36.25,0,0,1,68,106.43a36.43,36.43,0,0,1,5.32,10,36.42,36.42,0,0,1,1.42,5.5,35.89,35.89,0,0,1,.2,11.33,36.43,36.43,0,0,1-1.23,5.55,36.09,36.09,0,0,1-5,10.18,35.15,35.15,0,0,1-3.61,4.38,36.33,36.33,0,0,1-14.26,9.09,37,37,0,0,1-5.5,1.42,36.63,36.63,0,0,1-11.32.2,37.39,37.39,0,0,1-5.55-1.23,36.35,36.35,0,0,1-5.29-2.09,35.82,35.82,0,0,1-4.89-2.88,37,37,0,0,1-4.38-3.61A35.45,35.45,0,0,1,10.14,150a36.43,36.43,0,0,1-5.32-10c-.61-1.79-1.09-3.63-1.71-5.5a19.79,19.79,0,0,1-1.41-5.64,19.85,19.85,0,0,1,1.21-5.68c.56-1.88,1-3.74,1.52-5.55a36.54,36.54,0,0,1,2.08-5.29c.84-1.7,1.8-3.34,2.28-4.16l.49-.82"/><path class="cls-8" d="M7,105.76l.66-.79c.65-.79,2-2.37,3.37-3.84a39.22,39.22,0,0,1,4.58-4.06,38.64,38.64,0,0,1,5.17-3.29,38.91,38.91,0,0,1,11.53-4,40.13,40.13,0,0,1,6.1-.59,38.81,38.81,0,0,1,17.77,4,38.21,38.21,0,0,1,5.28,3.1,39.1,39.1,0,0,1,4.72,3.9,38.5,38.5,0,0,1,7.34,9.74,39.37,39.37,0,0,1,2.45,5.61,40.33,40.33,0,0,1,1.53,5.93,39.41,39.41,0,0,1,.21,12.2,39.66,39.66,0,0,1-1.32,6,39.13,39.13,0,0,1-2.25,5.69,38.11,38.11,0,0,1-3.1,5.27,39.08,39.08,0,0,1-13.64,12.07,38.33,38.33,0,0,1-5.62,2.44c-1.93.67-3.91,1.18-5.89,3.57s-3.94,6.66-6,6.69-4.16-4.16-6.22-6.48-4-2.76-6-3.36a39,39,0,0,1-11-5.35A38.92,38.92,0,0,1,4.62,146.53a38.22,38.22,0,0,1-2.44-5.61,39.3,39.3,0,0,1-2.12-12,38.59,38.59,0,0,1,1.7-12.08A38.09,38.09,0,0,1,4,111.12c.9-1.83,1.94-3.6,2.46-4.48l.51-.88"/><path class="cls-9" d="M144.6,121.61l.16-.19c.16-.2.48-.58.82-.94a9.56,9.56,0,0,1,1.12-1,10.64,10.64,0,0,1,1.25-.8,9.75,9.75,0,0,1,1.37-.59c.47-.16,1-.29,1.41-1.86s.91-4.6,1.41-4.61,1,3,1.56,4.56,1,1.66,1.48,1.81a9.63,9.63,0,0,1,1.38.54,9.47,9.47,0,0,1,3.42,2.82,9.24,9.24,0,0,1,.8,1.26,11,11,0,0,1,.6,1.36,10.14,10.14,0,0,1,.37,1.44,10.58,10.58,0,0,1,.14,1.49,9.19,9.19,0,0,1-.09,1.48,10.13,10.13,0,0,1-.32,1.45,9.8,9.8,0,0,1-.55,1.39,9.54,9.54,0,0,1-.75,1.28,10.55,10.55,0,0,1-1,1.15,9.65,9.65,0,0,1-2.37,1.79,9.75,9.75,0,0,1-1.37.59,9,9,0,0,1-1.44.37,9.17,9.17,0,0,1-1.48.15,10.41,10.41,0,0,1-1.48-.1,8.09,8.09,0,0,1-1.46-.32,9.63,9.63,0,0,1-1.38-.54,9.28,9.28,0,0,1-1.29-.76,8.57,8.57,0,0,1-1.14-1,8.72,8.72,0,0,1-1-1.11,9.52,9.52,0,0,1-1.39-2.62,9,9,0,0,1-.38-1.44,10.58,10.58,0,0,1-.14-1.48,9.25,9.25,0,0,1,.09-1.49,10.13,10.13,0,0,1,.32-1.45,9.8,9.8,0,0,1,.55-1.39c.22-.44.47-.87.6-1.09l.12-.21"/><path class="cls-10" d="M144.45,121.5l.16-.2c.16-.19.49-.58.84-1a9.74,9.74,0,0,1,1.13-1,10.27,10.27,0,0,1,1.28-.82,9.08,9.08,0,0,1,1.4-.6,8.36,8.36,0,0,1,1.47-.38,9.42,9.42,0,0,1,1.51-.15,9.57,9.57,0,0,1,1.51.09,9.31,9.31,0,0,1,1.48.33,10.22,10.22,0,0,1,1.42.56,2.21,2.21,0,0,0,1.8.25c.91-.22,2.3-.92,2.66-.57s-.29,1.76-.48,2.68a2.23,2.23,0,0,0,.32,1.79,10,10,0,0,1,.6,1.39,9.33,9.33,0,0,1,.38,1.47,9.24,9.24,0,0,1,0,3,10.85,10.85,0,0,1-.32,1.48,10.09,10.09,0,0,1-.56,1.41,9.56,9.56,0,0,1-.77,1.31,9,9,0,0,1-1,1.17,10.86,10.86,0,0,1-1.13,1,11.47,11.47,0,0,1-1.28.81,10.22,10.22,0,0,1-1.4.61,10.44,10.44,0,0,1-1.46.38,11,11,0,0,1-1.52.14,9.57,9.57,0,0,1-1.51-.09,9.31,9.31,0,0,1-1.48-.33,8.63,8.63,0,0,1-1.41-.56,9.75,9.75,0,0,1-2.48-1.73,9.15,9.15,0,0,1-1-1.14,8.92,8.92,0,0,1-.81-1.28,10.1,10.1,0,0,1-.61-1.39,10.57,10.57,0,0,1-.38-1.47,9.54,9.54,0,0,1-.15-1.51,11.09,11.09,0,0,1,.1-1.52,9.56,9.56,0,0,1,.33-1.48,9.35,9.35,0,0,1,.55-1.41c.22-.45.48-.89.61-1.11l.13-.22"/><path class="cls-11" d="M143.38,120.75l.18-.22c.19-.22.55-.67.95-1.08a9.93,9.93,0,0,1,1.29-1.14,11.14,11.14,0,0,1,1.45-.93,11.63,11.63,0,0,1,1.58-.69,12,12,0,0,1,1.67-.43,11.37,11.37,0,0,1,3.43-.06,10.74,10.74,0,0,1,1.68.38,10.53,10.53,0,0,1,1.61.63,11,11,0,0,1,1.48.87,10.79,10.79,0,0,1,1.33,1.1,11.68,11.68,0,0,1,1.14,1.29,10.5,10.5,0,0,1,.93,1.45,11.06,11.06,0,0,1,.68,1.58c.19.54.33,1.1,1.89,1.64s4.51,1.06,4.52,1.64-2.93,1.2-4.46,1.79-1.66,1.16-1.83,1.71a11.08,11.08,0,0,1-.63,1.6,12.32,12.32,0,0,1-.87,1.49,10.69,10.69,0,0,1-1.1,1.32,10.82,10.82,0,0,1-1.29,1.15,11.46,11.46,0,0,1-1.45.92,10.81,10.81,0,0,1-3.25,1.12,11.37,11.37,0,0,1-3.43.06,12,12,0,0,1-1.68-.37,10.58,10.58,0,0,1-1.61-.64,11,11,0,0,1-1.48-.87,10.73,10.73,0,0,1-2.47-2.38,11.57,11.57,0,0,1-.92-1.46A10.87,10.87,0,0,1,141.6,129a10.64,10.64,0,0,1-.06-3.44,10.72,10.72,0,0,1,.37-1.68,11.55,11.55,0,0,1,.63-1.6c.25-.52.55-1,.69-1.26l.15-.25"/><path class="cls-12" d="M143.36,120.74l.18-.23c.19-.22.55-.66,1-1.08a10.83,10.83,0,0,1,1.3-1.14,10.5,10.5,0,0,1,1.45-.93,11.23,11.23,0,0,1,1.59-.69,10.49,10.49,0,0,1,1.67-.43,10.89,10.89,0,0,1,1.71-.17,11.09,11.09,0,0,1,1.73.11,12,12,0,0,1,1.68.37,10.58,10.58,0,0,1,1.61.64,11,11,0,0,1,1.48.87,10.89,10.89,0,0,1,1.34,1.1,11.68,11.68,0,0,1,1.14,1.29,10.61,10.61,0,0,1,.93,1.46,11.59,11.59,0,0,1,1.12,3.25,11.45,11.45,0,0,1,.06,3.44,10.87,10.87,0,0,1-.38,1.69,11.55,11.55,0,0,1-.63,1.6,10.6,10.6,0,0,1-.88,1.49,10.71,10.71,0,0,1-1.09,1.33,10.83,10.83,0,0,1-1.3,1.14,10.5,10.5,0,0,1-1.45.93,11.63,11.63,0,0,1-1.58.69,10.88,10.88,0,0,1-5.12.49,10.72,10.72,0,0,1-1.68-.37,11.68,11.68,0,0,1-1.61-.63,12.27,12.27,0,0,1-1.48-.88,11.4,11.4,0,0,1-2.48-2.39,11.57,11.57,0,0,1-.92-1.46,8.9,8.9,0,0,1-.69-1.58,3.42,3.42,0,0,0-1-1.66c-.63-.56-1.75-1.11-1.76-1.69s1.09-1.17,1.7-1.75a3.39,3.39,0,0,0,.9-1.69,11.2,11.2,0,0,1,.63-1.61c.25-.52.55-1,.69-1.26l.15-.25"/><path class="cls-13" d="M132.51,113.14l.4-.49c.4-.49,1.21-1.47,2.09-2.39a23.48,23.48,0,0,1,2.85-2.51,23.75,23.75,0,0,1,3.2-2,23.31,23.31,0,0,1,3.48-1.51,23.6,23.6,0,0,1,3.67-1,24.43,24.43,0,0,1,7.57-.13,24.55,24.55,0,0,1,3.71.82,23.79,23.79,0,0,1,3.53,1.4,24.33,24.33,0,0,1,8.72,7.18,24.17,24.17,0,0,1,4.5,10.36,25.2,25.2,0,0,1,.37,3.78,24,24,0,0,1-.24,3.79,24.27,24.27,0,0,1-6.55,13.44,24.16,24.16,0,0,1-2.84,2.51,23.5,23.5,0,0,1-3.21,2,24,24,0,0,1-3.48,1.52,11.37,11.37,0,0,0-3.66,1.68c-1.24,1-2.47,2.54-3.74,2.56s-2.56-1.52-3.83-2.43a11.45,11.45,0,0,0-3.72-1.55,24.88,24.88,0,0,1-3.53-1.39,24.19,24.19,0,0,1-6.2-4.35,25.19,25.19,0,0,1-2.52-2.84,24.78,24.78,0,0,1-2-3.2,24.25,24.25,0,0,1-2.46-7.16,24,24,0,0,1-.36-3.78,23,23,0,0,1,.23-3.79,23.52,23.52,0,0,1,.82-3.7,24.42,24.42,0,0,1,1.39-3.53c.56-1.14,1.2-2.24,1.52-2.79l.33-.54"/><path class="cls-14" d="M132.45,113.1l.41-.49c.4-.49,1.21-1.48,2.1-2.39a23.56,23.56,0,0,1,2.85-2.52,23.92,23.92,0,0,1,3.21-2,24.51,24.51,0,0,1,3.49-1.51,23.43,23.43,0,0,1,3.68-1,24.56,24.56,0,0,1,7.59-.13,23.88,23.88,0,0,1,7.26,2.22,24.51,24.51,0,0,1,3.28,1.93,24.1,24.1,0,0,1,5.46,5.27,24.5,24.5,0,0,1,2,3.21,23.47,23.47,0,0,1,1.52,3.49,24.67,24.67,0,0,1,.95,3.69,24.09,24.09,0,0,1,.37,3.79,25.43,25.43,0,0,1-.23,3.8,24.85,24.85,0,0,1-.83,3.71,24.54,24.54,0,0,1-1.39,3.54,24,24,0,0,1-1.94,3.28,22.64,22.64,0,0,1-2.42,2.94,23.56,23.56,0,0,1-2.85,2.52,23.92,23.92,0,0,1-3.21,2.05A25.75,25.75,0,0,1,160.3,150a24.54,24.54,0,0,1-3.68,1,24.07,24.07,0,0,1-3.79.36,23,23,0,0,1-3.8-.23,25,25,0,0,1-3.72-.82,23.9,23.9,0,0,1-3.54-1.4,11.14,11.14,0,0,0-3.81-1.38c-1.57-.18-3.61.11-4.52-.78s-.7-2.93-.94-4.49a10.78,10.78,0,0,0-1.51-3.76,23.47,23.47,0,0,1-1.52-3.49,24.67,24.67,0,0,1-.95-3.69,25.34,25.34,0,0,1-.37-3.79,24,24,0,0,1,.24-3.79,23.51,23.51,0,0,1,.82-3.72,24.54,24.54,0,0,1,1.39-3.54c.56-1.14,1.21-2.24,1.53-2.79l.32-.55"/><path class="cls-15" d="M128.8,110.54l.47-.58c.48-.58,1.44-1.75,2.49-2.83a28.06,28.06,0,0,1,3.37-3,27.44,27.44,0,0,1,3.8-2.42,28.52,28.52,0,0,1,4.13-1.8c1.42-.49,2.88-.87,4.21-9.73S149.8,64,151.3,64s3.31,17.26,4.95,26.07,3.11,9.13,4.55,9.57a28.48,28.48,0,0,1,4.19,1.65,29.05,29.05,0,0,1,3.88,2.29,29.71,29.71,0,0,1,3.48,2.86,28.94,28.94,0,0,1,3,3.38,30,30,0,0,1,2.42,3.79,28.16,28.16,0,0,1,1.8,4.14,28.46,28.46,0,0,1,1.12,4.36,28.1,28.1,0,0,1,.44,4.48,29.48,29.48,0,0,1-.28,4.5,28.67,28.67,0,0,1-1,4.39,29.64,29.64,0,0,1-1.65,4.19,29.17,29.17,0,0,1-2.29,3.89,28,28,0,0,1-2.87,3.47,29,29,0,0,1-3.37,3,28.51,28.51,0,0,1-7.93,4.21,28.49,28.49,0,0,1-4.36,1.13,29,29,0,0,1-9,.16,28.91,28.91,0,0,1-8.59-2.63,28,28,0,0,1-3.88-2.29,28.81,28.81,0,0,1-3.47-2.86,28.14,28.14,0,0,1-3-3.37,30.15,30.15,0,0,1-2.42-3.8,28.25,28.25,0,0,1-2.92-8.49,29,29,0,0,1-.16-9,28.82,28.82,0,0,1,1-4.4,27.41,27.41,0,0,1,1.65-4.19c.65-1.35,1.42-2.65,1.8-3.3l.39-.65"/><path class="cls-16" d="M128.64,110.43l.49-.58c.48-.59,1.44-1.76,2.5-2.85a29.06,29.06,0,0,1,7.21-5.44,28.86,28.86,0,0,1,4.16-1.8,27.77,27.77,0,0,1,4.39-1.14,29.36,29.36,0,0,1,9-.16,28.92,28.92,0,0,1,12.54,5,28.9,28.9,0,0,1,10.75,14.26,11.09,11.09,0,0,0,2.19,4.37c1.33,1.47,3.59,2.94,3.62,4.45s-2.19,3.07-3.46,4.58a11.11,11.11,0,0,0-2,4.45,28.77,28.77,0,0,1-1.66,4.21,28.41,28.41,0,0,1-2.3,3.91,29.27,29.27,0,0,1-2.88,3.5,28.5,28.5,0,0,1-3.4,3,29.42,29.42,0,0,1-3.82,2.44,28.86,28.86,0,0,1-4.16,1.8,27.77,27.77,0,0,1-4.39,1.14,29.3,29.3,0,0,1-9,.16,29.2,29.2,0,0,1-4.43-1,30.06,30.06,0,0,1-4.22-1.66,29.41,29.41,0,0,1-3.9-2.31,28.34,28.34,0,0,1-3.5-2.88,30.26,30.26,0,0,1-3-3.39,28.8,28.8,0,0,1-2.43-3.83,28.32,28.32,0,0,1-1.81-4.15,28.86,28.86,0,0,1-1.13-4.39,28.47,28.47,0,0,1-.44-4.51,29.79,29.79,0,0,1,.28-4.53,28.73,28.73,0,0,1,2.64-8.64c.66-1.36,1.43-2.67,1.82-3.32l.38-.66"/><path class="cls-17" d="M128.22,110.13l.49-.59c.49-.6,1.47-1.79,2.54-2.9a29.58,29.58,0,0,1,3.46-3.06,29.36,29.36,0,0,1,8.12-4.32,29.92,29.92,0,0,1,4.47-1.15,29.57,29.57,0,0,1,9.2-.16,29.65,29.65,0,0,1,8.8,2.69,29.32,29.32,0,0,1,4,2.34,29.42,29.42,0,0,1,9.1,10.28,29.52,29.52,0,0,1,1.84,4.24,29.83,29.83,0,0,1,1.16,4.46,30.88,30.88,0,0,1,.44,4.6,29.45,29.45,0,0,1-.28,4.6,29.51,29.51,0,0,1-5,12.78,30.37,30.37,0,0,1-2.94,3.56,29.58,29.58,0,0,1-3.46,3.06,30.87,30.87,0,0,1-3.89,2.48,29.4,29.4,0,0,1-4.23,1.84,28.75,28.75,0,0,1-4.47,1.15,29.57,29.57,0,0,1-9.2.16,29.65,29.65,0,0,1-8.8-2.69,29.32,29.32,0,0,1-4-2.34,28.58,28.58,0,0,1-3.56-2.93,29.58,29.58,0,0,1-3.06-3.46,28.77,28.77,0,0,1-2.48-3.89,29.89,29.89,0,0,1-1.84-4.23,10,10,0,0,0-2.38-4.45c-1.49-1.5-4.09-3-4.11-4.53s2.51-3.12,4-4.67a10,10,0,0,0,2.22-4.53,29.86,29.86,0,0,1,1.69-4.29c.68-1.38,1.46-2.72,1.85-3.38l.4-.67"/><path class="cls-18" d="M127.84,109.87l.5-.6c.5-.61,1.5-1.82,2.59-2.94a30,30,0,0,1,11.75-7.49c1.48-.51,3-.9,4.48-4.68s2.92-10.94,4.48-11,3.25,7.08,4.86,10.8,3.14,4.07,4.64,4.52a31.34,31.34,0,0,1,4.36,1.72,29.78,29.78,0,0,1,10.75,8.87,29.68,29.68,0,0,1,2.52,4,29.27,29.27,0,0,1,1.87,4.3,29.66,29.66,0,0,1,1.17,4.54,30.06,30.06,0,0,1,.17,9.34,29.6,29.6,0,0,1-1,4.57,29.26,29.26,0,0,1-1.72,4.36,29.66,29.66,0,0,1-2.37,4,30.39,30.39,0,0,1-3,3.61,29.57,29.57,0,0,1-3.51,3.11,30.83,30.83,0,0,1-4,2.52,30.26,30.26,0,0,1-4.29,1.87,30.87,30.87,0,0,1-4.54,1.17,29.66,29.66,0,0,1-9.34.16,30.78,30.78,0,0,1-4.57-1,29.26,29.26,0,0,1-4.36-1.72,29.73,29.73,0,0,1-4-2.38,30.32,30.32,0,0,1-3.62-3,30.14,30.14,0,0,1-5.62-7.46,30.38,30.38,0,0,1-1.87-4.3,29.54,29.54,0,0,1-1.17-4.53,30.39,30.39,0,0,1-.45-4.67,29.15,29.15,0,0,1,.29-4.67,28.81,28.81,0,0,1,1-4.58,30.14,30.14,0,0,1,1.72-4.36c.68-1.4,1.48-2.76,1.88-3.43l.39-.68"/><path class="cls-19" d="M127.78,109.83l.5-.61c.5-.6,1.5-1.82,2.59-2.94a29.68,29.68,0,0,1,7.48-5.64,29.86,29.86,0,0,1,4.31-1.87c1.48-.51,3-.91,4.49-4.76s2.92-11.15,4.48-11.18,3.26,7.22,4.88,11,3.15,4.14,4.65,4.59a29.86,29.86,0,0,1,4.37,1.73,29.41,29.41,0,0,1,4.05,2.38,30.41,30.41,0,0,1,3.62,3,28.89,28.89,0,0,1,3.11,3.52,29.22,29.22,0,0,1,2.53,4,30,30,0,0,1,1.87,4.31,30.47,30.47,0,0,1,1.63,9.22,30.69,30.69,0,0,1-.29,4.69,30.1,30.1,0,0,1-5.12,13,29.63,29.63,0,0,1-3,3.62,30.67,30.67,0,0,1-3.52,3.12,30.11,30.11,0,0,1-12.82,5.57,30.39,30.39,0,0,1-4.67.45,29.4,29.4,0,0,1-4.69-.29,28.93,28.93,0,0,1-4.59-1,31,31,0,0,1-4.37-1.72A29.8,29.8,0,0,1,126,141.12a29.32,29.32,0,0,1-1.88-4.3,30.09,30.09,0,0,1-1.17-4.55,28.21,28.21,0,0,1-.45-4.68,29.53,29.53,0,0,1,.28-4.69,30.15,30.15,0,0,1,2.74-9c.69-1.41,1.49-2.76,1.88-3.44l.4-.68"/><path class="cls-20" d="M127.78,109.83l.5-.61c.5-.61,1.5-1.82,2.59-3a28.89,28.89,0,0,1,3.52-3.11,29.22,29.22,0,0,1,4-2.53,30,30,0,0,1,4.31-1.87c1.48-.51,3-.9,4.48-4.76s2.92-11.19,4.49-11.22,3.27,7.25,4.88,11,3.15,4.15,4.65,4.61a30.08,30.08,0,0,1,8.42,4.1,29.75,29.75,0,0,1,6.74,6.51,29.73,29.73,0,0,1,5.57,12.82,28.31,28.31,0,0,1,.45,4.68,30.61,30.61,0,0,1-.28,4.69,30.1,30.1,0,0,1-2.74,9,29.91,29.91,0,0,1-5.38,7.67,28.8,28.8,0,0,1-3.51,3.11,30.13,30.13,0,0,1-12.82,5.58,30.64,30.64,0,0,1-4.68.45,29.4,29.4,0,0,1-4.69-.29,31.33,31.33,0,0,1-4.59-1,29.86,29.86,0,0,1-4.37-1.73,29.55,29.55,0,0,1-7.67-5.37,30.67,30.67,0,0,1-3.12-3.52,29.73,29.73,0,0,1-5.57-12.82,29.32,29.32,0,0,1-.45-4.68,30.76,30.76,0,0,1,.28-4.69,30,30,0,0,1,1-4.58,31.1,31.1,0,0,1,1.72-4.38c.69-1.4,1.49-2.76,1.89-3.44l.4-.67"/><path class="cls-21" d="M126.93,109.23l.51-.63c.52-.63,1.56-1.88,2.68-3a32.73,32.73,0,0,1,3.64-3.22,31.08,31.08,0,0,1,8.56-4.55A30.42,30.42,0,0,1,147,96.57a30,30,0,0,1,4.83-.47,30.36,30.36,0,0,1,4.86.3,29.74,29.74,0,0,1,4.74,1A30.31,30.31,0,0,1,166,99.23a30.91,30.91,0,0,1,4.19,2.47,30.92,30.92,0,0,1,7,6.73,31.32,31.32,0,0,1,2.62,4.1,29.87,29.87,0,0,1,1.93,4.46,30.33,30.33,0,0,1,1.22,4.7,31.48,31.48,0,0,1,.47,4.84,30.24,30.24,0,0,1-.3,4.85,30.88,30.88,0,0,1-2.83,9.27,30.91,30.91,0,0,1-2.47,4.19,30.92,30.92,0,0,1-6.73,7,30.88,30.88,0,0,1-4.1,2.61,31.49,31.49,0,0,1-4.46,1.94c-1.53.53-3.11.94-4.65,4.3s-3.06,9.67-4.68,9.7-3.35-6.23-5-9.53-3.25-3.66-4.8-4.14a30.31,30.31,0,0,1-4.52-1.78,30.84,30.84,0,0,1-4.19-2.46,30.11,30.11,0,0,1-3.75-3.1,29.31,29.31,0,0,1-3.22-3.64,29.64,29.64,0,0,1-2.61-4.1,29.24,29.24,0,0,1-1.94-4.45,30.74,30.74,0,0,1-1.22-4.71,30.69,30.69,0,0,1-.17-9.69,32.23,32.23,0,0,1,1-4.75,31.9,31.9,0,0,1,1.78-4.52c.72-1.46,1.54-2.86,2-3.56l.42-.7"/><path class="cls-22" d="M126.2,108.72l.53-.64c.54-.65,1.6-1.94,2.76-3.14a31.73,31.73,0,0,1,3.74-3.31,33.85,33.85,0,0,1,4.22-2.69A32,32,0,0,1,142,97c1.58-.54,3.2-1,4.84-1.66s3.28-1.66,4.95-1.69,3.35.88,5,1.52,3.29,1,4.89,1.49a31.76,31.76,0,0,1,9,4.37,31.26,31.26,0,0,1,7.17,6.92,32.47,32.47,0,0,1,4.68,8.8,32.45,32.45,0,0,1,1.25,4.84,31.59,31.59,0,0,1,.17,10,31,31,0,0,1-1.08,4.88A32.19,32.19,0,0,1,181,141a30.93,30.93,0,0,1-2.54,4.3,31.82,31.82,0,0,1-6.92,7.17,31.06,31.06,0,0,1-4.22,2.69,32,32,0,0,1-4.58,2,31.28,31.28,0,0,1-4.84,1.25,32.06,32.06,0,0,1-10,.18A31.74,31.74,0,0,1,130.28,150a31.78,31.78,0,0,1-9.42-27.35,31.26,31.26,0,0,1,1.08-4.88,31.63,31.63,0,0,1,1.83-4.65c.73-1.5,1.58-3,2-3.67l.42-.72"/><path class="cls-23" d="M126,108.57l.54-.65c.53-.65,1.61-2,2.78-3.17a32.38,32.38,0,0,1,3.77-3.34,33.14,33.14,0,0,1,4.25-2.7,31.6,31.6,0,0,1,4.63-2,32.7,32.7,0,0,1,4.88-1.27,32.32,32.32,0,0,1,5-.48,31.45,31.45,0,0,1,5,.31,32,32,0,0,1,4.92,1.09,31.52,31.52,0,0,1,4.69,1.85,32,32,0,0,1,4.34,2.55,32.35,32.35,0,0,1,3.89,3.21,32.35,32.35,0,0,1,6.05,8,32.11,32.11,0,0,1,2,4.62,21,21,0,0,0,2,4.87c1,1.64,2.71,3.3,2.74,5s-1.58,3.39-2.57,5.07a21,21,0,0,0-1.84,4.93,32.33,32.33,0,0,1-4.41,9,32.05,32.05,0,0,1-15.86,11.95,32.67,32.67,0,0,1-4.88,1.26,32.32,32.32,0,0,1-5,.48,31.45,31.45,0,0,1-5-.31,30.9,30.9,0,0,1-4.92-1.09,32.6,32.6,0,0,1-4.69-1.84,33.17,33.17,0,0,1-4.34-2.56,32.35,32.35,0,0,1-3.89-3.21,32.35,32.35,0,0,1-6-8,32.11,32.11,0,0,1-2-4.62,31.5,31.5,0,0,1-1.26-4.88,32.58,32.58,0,0,1-.49-5,33.89,33.89,0,0,1,.31-5,33,33,0,0,1,1.09-4.92,32.64,32.64,0,0,1,1.85-4.69c.74-1.51,1.59-3,2-3.69l.43-.73"/><path class="cls-24" d="M125.76,108.41l.54-.65c.54-.66,1.62-2,2.8-3.19a32.1,32.1,0,0,1,3.81-3.37,31.44,31.44,0,0,1,4.29-2.73,31.13,31.13,0,0,1,4.66-2,32.38,32.38,0,0,1,15-1.45,32.42,32.42,0,0,1,5,1.1,32.27,32.27,0,0,1,9.11,4.44,32.9,32.9,0,0,1,3.92,3.24,32,32,0,0,1,3.37,3.8,33.1,33.1,0,0,1,2.73,4.29,32.51,32.51,0,0,1,3.79,14.65,33.11,33.11,0,0,1-.31,5.07,33.52,33.52,0,0,1-1.1,5,31.65,31.65,0,0,1-1.87,4.73,31.05,31.05,0,0,1-2.58,4.38,32.7,32.7,0,0,1-11.32,10,32.74,32.74,0,0,1-4.67,2A32,32,0,0,1,158,159a33,33,0,0,1-5.06.48,32.47,32.47,0,0,1-10-1.41,32.27,32.27,0,0,1-9.11-4.44,32.33,32.33,0,0,1-10-11.33,33.18,33.18,0,0,1-2-4.66,17.51,17.51,0,0,0-2.14-4.91c-1.16-1.65-3.07-3.32-3.1-5s1.82-3.43,2.92-5.12a17.55,17.55,0,0,0,2-5,32.08,32.08,0,0,1,1.87-4.73c.74-1.53,1.6-3,2-3.72l.43-.74"/><path class="cls-25" d="M124.68,107.66l.56-.68c.57-.69,1.69-2,2.92-3.32a33.47,33.47,0,0,1,8.42-6.35,34.19,34.19,0,0,1,4.85-2.11,34,34,0,0,1,10.39-1.83,34.58,34.58,0,0,1,5.28.32,34,34,0,0,1,5.16,1.15,32,32,0,0,1,4.92,1.94,33.61,33.61,0,0,1,4.56,2.68,34.52,34.52,0,0,1,4.08,3.36,33.81,33.81,0,0,1,3.5,4,33,33,0,0,1,2.85,4.46,35.38,35.38,0,0,1,2.11,4.85c.57,1.67,1,3.38,1.78,5.11s1.85,3.48,1.88,5.24-1,3.55-1.7,5.3-1.09,3.49-1.6,5.18a35.15,35.15,0,0,1-1.94,4.92A33.51,33.51,0,0,1,180,146.4a33.69,33.69,0,0,1-11.79,10.43,33.08,33.08,0,0,1-4.85,2.11,32.34,32.34,0,0,1-5.12,1.32,33.24,33.24,0,0,1-5.27.51,34.58,34.58,0,0,1-5.28-.32,34,34,0,0,1-5.16-1.15,33.48,33.48,0,0,1-4.92-1.93,34,34,0,0,1-8.64-6.05,33.72,33.72,0,0,1-3.5-4,33.15,33.15,0,0,1-2.85-4.47,33.65,33.65,0,0,1-2.1-4.85,33.2,33.2,0,0,1-1.33-5.12,35.62,35.62,0,0,1-.51-5.26,34.14,34.14,0,0,1,1.47-10.44,34.21,34.21,0,0,1,1.94-4.92c.77-1.59,1.67-3.12,2.12-3.88l.45-.76"/><path class="cls-26" d="M124.56,107.58l.57-.69c.56-.69,1.69-2.06,2.93-3.33a33.09,33.09,0,0,1,4-3.52,34,34,0,0,1,4.48-2.86,33.71,33.71,0,0,1,10-3.45,34.57,34.57,0,0,1,5.28-.5,32.51,32.51,0,0,1,5.31.32,34,34,0,0,1,5.18,1.15,34.28,34.28,0,0,1,9.52,4.64,34.09,34.09,0,0,1,4.1,3.38,33.28,33.28,0,0,1,3.52,4,34.08,34.08,0,0,1,5,9.35,34,34,0,0,1,1.33,5.14,33.6,33.6,0,0,1,.51,5.29,34.76,34.76,0,0,1-.32,5.3,33.68,33.68,0,0,1-3.1,10.13,34.59,34.59,0,0,1-2.7,4.58,33.84,33.84,0,0,1-3.37,4.1,35.91,35.91,0,0,1-4,3.52,33.83,33.83,0,0,1-14.5,6.3,33.58,33.58,0,0,1-10.59.18,32.83,32.83,0,0,1-5.18-1.15,34.45,34.45,0,0,1-4.94-1.94,33.36,33.36,0,0,1-4.58-2.7,34.89,34.89,0,0,1-4.1-3.38,34.19,34.19,0,0,1-3.52-4,32.64,32.64,0,0,1-2.85-4.48,34,34,0,0,1-2.12-4.87,44.34,44.34,0,0,0-1.86-5.13c-.84-1.74-2.07-3.49-2.1-5.26s1.14-3.57,1.91-5.33a42.31,42.31,0,0,0,1.68-5.2,33.8,33.8,0,0,1,2-4.94c.78-1.59,1.68-3.12,2.13-3.89l.45-.76"/><path class="cls-27" d="M123.63,106.92l.58-.71c.59-.71,1.75-2.13,3-3.44A35,35,0,0,1,141,94a7.7,7.7,0,0,0,5.27-4.32c1.75-3.25,3.48-9.31,5.31-9.34s3.77,6,5.63,9.15a7.67,7.67,0,0,0,5.42,4.13,34.87,34.87,0,0,1,9.83,4.8,34.94,34.94,0,0,1,7.88,7.6,36.24,36.24,0,0,1,3,4.63A34.84,34.84,0,0,1,186.86,121a34.61,34.61,0,0,1,.19,10.94,34.41,34.41,0,0,1-3.2,10.47A34.85,34.85,0,0,1,173.46,155a33.9,33.9,0,0,1-4.63,3,34.47,34.47,0,0,1-5,2.19,34.94,34.94,0,0,1-5.32,1.38,35.42,35.42,0,0,1-10.94.19,34.88,34.88,0,0,1-5.36-1.19,34.1,34.1,0,0,1-5.11-2,34.53,34.53,0,0,1-4.73-2.79,35.42,35.42,0,0,1-4.24-3.49,34.62,34.62,0,0,1-3.64-4.11,36.24,36.24,0,0,1-2.95-4.63A34.91,34.91,0,0,1,118,133.15a34.68,34.68,0,0,1-.19-11,35.17,35.17,0,0,1,3.2-10.47c.8-1.64,1.73-3.23,2.2-4l.47-.79"/><path class="cls-28" d="M123,106.5l.6-.72c.59-.73,1.79-2.17,3.09-3.52a35.17,35.17,0,0,1,4.19-3.71,36,36,0,0,1,4.73-3,35.52,35.52,0,0,1,5.14-2.24,35.07,35.07,0,0,1,5.42-1.4,37.38,37.38,0,0,1,5.58-.54,36.22,36.22,0,0,1,5.6.34,36.62,36.62,0,0,1,5.47,1.22,35.76,35.76,0,0,1,14.36,8.46,35.35,35.35,0,0,1,3.72,4.2,35.56,35.56,0,0,1,7.18,20.87,34.83,34.83,0,0,1-.34,5.59,35.39,35.39,0,0,1-1.21,5.47,36.06,36.06,0,0,1-2.06,5.22,35.55,35.55,0,0,1-6.4,9.15,36.07,36.07,0,0,1-4.2,3.71,34.38,34.38,0,0,1-4.73,3,35.52,35.52,0,0,1-5.14,2.24,35.88,35.88,0,0,1-11,1.94,36,36,0,0,1-5.59-.34,36,36,0,0,1-10.69-3.27,35.26,35.26,0,0,1-9.15-6.41,35.35,35.35,0,0,1-3.72-4.2,36.28,36.28,0,0,1-3-4.72,35.47,35.47,0,0,1-2.23-5.14c-.61-1.77-1.08-3.59-1.58-5.42a22.57,22.57,0,0,1-1.07-5.57,22.66,22.66,0,0,1,.87-5.61c.44-1.85.85-3.68,1.39-5.47a35.94,35.94,0,0,1,2.06-5.21c.82-1.69,1.77-3.3,2.24-4.11l.48-.81"/><path class="cls-29" d="M122.65,106.23l.6-.73c.6-.73,1.81-2.2,3.13-3.56a37,37,0,0,1,4.25-3.76,35.27,35.27,0,0,1,4.79-3.05,36.49,36.49,0,0,1,5.21-2.27,36.41,36.41,0,0,1,16.81-1.62,36.41,36.41,0,0,1,10.83,3.31,36.17,36.17,0,0,1,9.27,6.49,36.26,36.26,0,0,1,3.76,4.26,35.63,35.63,0,0,1,3,4.79,36.38,36.38,0,0,1,2.27,5.2,37,37,0,0,1,1.42,5.5,36.22,36.22,0,0,1,.19,11.32,36.28,36.28,0,0,1-1.22,5.54,36.92,36.92,0,0,1-2.09,5.28c-.83,1.7-1.79,3.34-2.62,5.14s-1.53,3.76-2.84,5.12-3.26,2.13-5,3-3.38,1.92-5.05,2.81a36.37,36.37,0,0,1-10.7,3.68,35.82,35.82,0,0,1-11.32.2,36.23,36.23,0,0,1-10.82-3.31,37,37,0,0,1-4.9-2.88,37.83,37.83,0,0,1-4.38-3.61,36.61,36.61,0,0,1-6.81-9,36.71,36.71,0,0,1-3.69-10.71,36.77,36.77,0,0,1-.54-5.65,35.71,35.71,0,0,1,.35-5.66,35,35,0,0,1,1.23-5.55,35.74,35.74,0,0,1,2.08-5.28c.83-1.7,1.79-3.34,2.27-4.16l.49-.82"/><path class="cls-30" d="M120.89,105l.64-.78c.64-.78,1.92-2.33,3.32-3.77a38.77,38.77,0,0,1,4.5-4,39.92,39.92,0,0,1,5.07-3.23,38.38,38.38,0,0,1,5.51-2.39,24.21,24.21,0,0,0,5.81-2.44c2-1.28,3.93-3.33,5.93-3.37s4.05,1.95,6.05,3.16a23.65,23.65,0,0,0,5.89,2.23,38.89,38.89,0,0,1,5.59,2.21A38,38,0,0,1,183,104a37.19,37.19,0,0,1,3.23,5.07,38,38,0,0,1,2.4,5.51,38.23,38.23,0,0,1,1.71,17.8A38.11,38.11,0,0,1,183.79,149a37,37,0,0,1-3.83,4.64,37.87,37.87,0,0,1-4.5,4,38.84,38.84,0,0,1-5.07,3.23,38.71,38.71,0,0,1-11.33,3.9,38.08,38.08,0,0,1-12,.21,39.45,39.45,0,0,1-5.87-1.3,38.89,38.89,0,0,1-5.59-2.21,38.44,38.44,0,0,1-5.18-3.05,39.4,39.4,0,0,1-4.64-3.82,38.34,38.34,0,0,1-7.21-9.57,39.19,39.19,0,0,1-2.4-5.52,38.23,38.23,0,0,1-1.71-17.8,38,38,0,0,1,1.3-5.87,38.39,38.39,0,0,1,2.2-5.59c.88-1.81,1.9-3.54,2.41-4.41l.51-.86"/><path class="cls-31" d="M119.54,104.06l.67-.81c.67-.81,2-2.43,3.46-3.93a39.4,39.4,0,0,1,4.69-4.16,40.48,40.48,0,0,1,5.29-3.37,40,40,0,0,1,11.82-4.07,39.71,39.71,0,0,1,12.5-.21,40,40,0,0,1,6.12,1.35,39.45,39.45,0,0,1,5.83,2.3c1.88.92,3.69,2,7.2,1.32s8.72-3,10.23-1.59-.7,6.74-1.24,10.28.59,5.3,1.57,7.14a40.63,40.63,0,0,1,2.5,5.75,39.79,39.79,0,0,1,1.57,6.07,38.44,38.44,0,0,1,.6,6.24,39.65,39.65,0,0,1-.38,6.26,40.06,40.06,0,0,1-1.36,6.12A39.27,39.27,0,0,1,185.13,150a39.95,39.95,0,0,1-8.68,9,40,40,0,0,1-11,5.87,40,40,0,0,1-18.56,1.79,41.13,41.13,0,0,1-6.13-1.36,39.45,39.45,0,0,1-5.83-2.3,40,40,0,0,1-5.4-3.18,41,41,0,0,1-4.84-4,40.22,40.22,0,0,1-4.15-4.69,40.77,40.77,0,0,1-3.37-5.29A40,40,0,0,1,113.06,134a40.11,40.11,0,0,1-.22-12.5,40.06,40.06,0,0,1,1.36-6.12,39.45,39.45,0,0,1,2.3-5.83c.91-1.88,2-3.69,2.51-4.6l.53-.9"/><path class="cls-32" d="M119.41,104l.67-.81c.67-.82,2-2.44,3.47-4A40.56,40.56,0,0,1,128.26,95a40.11,40.11,0,0,1,11.09-5.89A40.57,40.57,0,0,1,151.71,87a41.22,41.22,0,0,1,6.28.39,40.18,40.18,0,0,1,17.42,6.86,40.59,40.59,0,0,1,4.86,4,39.92,39.92,0,0,1,7.55,10,39.33,39.33,0,0,1,2.51,5.77,40.19,40.19,0,0,1,1.58,6.1,40.36,40.36,0,0,1,.22,12.54,40.43,40.43,0,0,1-1.36,6.15,41,41,0,0,1-2.31,5.86,40.57,40.57,0,0,1-7.2,10.28,39.92,39.92,0,0,1-10,7.55,40,40,0,0,1-24.42,4.3,40,40,0,0,1-12-3.67,40.31,40.31,0,0,1-5.42-3.19,40.05,40.05,0,0,1-12.41-14,38.87,38.87,0,0,1-2.51-5.77c-.69-2-1.21-4-5.36-6s-11.93-4-12-6.06,7.67-4.34,11.75-6.49,4.53-4.2,5.14-6.21a40.41,40.41,0,0,1,2.31-5.85c.92-1.89,2-3.71,2.53-4.61l.53-.91"/><path class="cls-33" d="M119,103.7l.68-.83c.68-.82,2-2.46,3.51-4a40.91,40.91,0,0,1,10.14-7.65,41.36,41.36,0,0,1,5.84-2.53,39.66,39.66,0,0,1,6.17-1.6,40.75,40.75,0,0,1,6.34-.61,40.6,40.6,0,0,1,12.57,1.77,40.77,40.77,0,0,1,5.93,2.33,42,42,0,0,1,5.49,3.23,40.55,40.55,0,0,1,4.91,4.06,40.61,40.61,0,0,1,10.18,16,41,41,0,0,1,1.6,6.16,40.58,40.58,0,0,1,.22,12.7,41.37,41.37,0,0,1-1.38,6.22,39.59,39.59,0,0,1-2.34,5.92c-.93,1.91-2,3.75-2,6.65s1,6.84-.47,8.37-5.46.64-8.35.76-4.69,1.27-6.57,2.27a42.6,42.6,0,0,1-5.84,2.54,40.8,40.8,0,0,1-12.51,2.2,39.68,39.68,0,0,1-6.35-.39,38.81,38.81,0,0,1-6.22-1.38,40.77,40.77,0,0,1-5.93-2.33,40.19,40.19,0,0,1-5.48-3.23,40.5,40.5,0,0,1-12.56-14.19,40.4,40.4,0,0,1-2.54-5.85,40.67,40.67,0,0,1-2.2-12.5,41,41,0,0,1,.38-6.36,41.64,41.64,0,0,1,1.38-6.22,39.59,39.59,0,0,1,2.34-5.92c.93-1.91,2-3.75,2.55-4.67l.54-.91"/><path class="cls-34" d="M119,103.69l.67-.82c.68-.82,2-2.47,3.52-4a40.61,40.61,0,0,1,16-10.18,40.81,40.81,0,0,1,6.17-1.6,40.58,40.58,0,0,1,12.7-.22,41.24,41.24,0,0,1,6.21,1.38,39.29,39.29,0,0,1,5.93,2.34,40.3,40.3,0,0,1,5.49,3.23,40.65,40.65,0,0,1,9.13,8.82,41.39,41.39,0,0,1,3.43,5.37,40.61,40.61,0,0,1,4.13,12,40.85,40.85,0,0,1-1.15,18.92,42,42,0,0,1-2.34,5.93,40.19,40.19,0,0,1-3.23,5.48,40.73,40.73,0,0,1-4,4.92,41.49,41.49,0,0,1-4.77,4.22,40.76,40.76,0,0,1-5.38,3.42,39.81,39.81,0,0,1-5.84,2.54c-2,.69-4.07,1.23-6.1,5.63s-4,12.66-6.12,12.7-4.4-8.15-6.57-12.48-4.26-4.79-6.29-5.41a40.33,40.33,0,0,1-5.93-2.33,41.42,41.42,0,0,1-5.49-3.24A40.65,40.65,0,0,1,120,151.5a41.39,41.39,0,0,1-3.43-5.37,42.6,42.6,0,0,1-2.54-5.84,40.8,40.8,0,0,1-2.2-12.51,39.8,39.8,0,0,1,.39-6.36,39.29,39.29,0,0,1,1.38-6.22,40.65,40.65,0,0,1,2.33-5.92c.93-1.91,2-3.75,2.56-4.67l.54-.92"/><path class="cls-35" d="M116.83,102.16l.72-.88c.72-.87,2.17-2.63,3.74-4.25a43.45,43.45,0,0,1,5.09-4.5,42.64,42.64,0,0,1,5.72-3.65,42.68,42.68,0,0,1,12.79-4.4,41.59,41.59,0,0,1,6.76-.65A43.3,43.3,0,0,1,187,101a44.44,44.44,0,0,1,3.65,5.73,43.45,43.45,0,0,1,2.7,6.22,26.6,26.6,0,0,0,2.77,6.55c1.47,2.21,3.84,4.44,3.88,6.7s-2.25,4.57-3.64,6.83a26.08,26.08,0,0,0-2.54,6.65,43.31,43.31,0,0,1-2.49,6.31,43,43,0,0,1-7.76,11.09,43.27,43.27,0,0,1-5.08,4.49,42.39,42.39,0,0,1-5.73,3.65,44,44,0,0,1-6.22,2.71,45,45,0,0,1-6.57,1.7,43.83,43.83,0,0,1-6.76.65,42.6,42.6,0,0,1-6.77-.42,41.75,41.75,0,0,1-6.63-1.47,43.38,43.38,0,0,1-6.32-2.48,43.9,43.9,0,0,1-5.84-3.45,42.49,42.49,0,0,1-5.24-4.32,42.92,42.92,0,0,1-8.14-10.8,43,43,0,0,1-2.71-6.23,42.55,42.55,0,0,1-1.7-6.57A43.13,43.13,0,0,1,111,114.43a44.6,44.6,0,0,1,2.49-6.32c1-2,2.15-4,2.72-5l.58-1"/><path class="cls-36" d="M116.4,101.86l.74-.88c.73-.89,2.19-2.66,3.78-4.31a42.67,42.67,0,0,1,5.14-4.55,43.4,43.4,0,0,1,5.8-3.69,42.41,42.41,0,0,1,6.3-2.74,43.84,43.84,0,0,1,13.48-2.38,44,44,0,0,1,13.56,1.9,44.41,44.41,0,0,1,6.39,2.52,21.07,21.07,0,0,0,6.83,2.55c2.78.37,6.37,0,8,1.55s1.36,5.19,1.83,8a21.13,21.13,0,0,0,2.78,6.73,43.73,43.73,0,0,1,3.21,33.35,43.28,43.28,0,0,1-2.52,6.39,43.92,43.92,0,0,1-3.48,5.92,45.23,45.23,0,0,1-4.37,5.3,44.47,44.47,0,0,1-5.14,4.55,43.77,43.77,0,0,1-5.8,3.69,45,45,0,0,1-6.29,2.74,43.94,43.94,0,0,1-27,.47,44.41,44.41,0,0,1-6.39-2.52,43,43,0,0,1-5.92-3.49,43.4,43.4,0,0,1-5.3-4.36,44,44,0,0,1-8.24-10.94,43.47,43.47,0,0,1-2.74-6.3,44.78,44.78,0,0,1-1.72-6.65,43.67,43.67,0,0,1-.24-13.69,44.2,44.2,0,0,1,1.49-6.71,43.28,43.28,0,0,1,2.52-6.39c1-2.06,2.17-4,2.75-5l.58-1"/><path class="cls-37" d="M115.17,101l.75-.92c.76-.92,2.27-2.75,3.92-4.46a45,45,0,0,1,11.31-8.52,43.89,43.89,0,0,1,6.52-2.84,46.52,46.52,0,0,1,6.87-1.78,45.22,45.22,0,0,1,44,17.34,44.76,44.76,0,0,1,3.82,6,45.27,45.27,0,0,1,2.83,6.51,44,44,0,0,1,1.78,6.88,45.44,45.44,0,0,1,.25,14.16,45.48,45.48,0,0,1-4.14,13.55,45.29,45.29,0,0,1-3.61,6.12,44.75,44.75,0,0,1-4.52,5.48,44.13,44.13,0,0,1-5.32,4.71,45.31,45.31,0,0,1-53.21.93,45.46,45.46,0,0,1-10.19-9.84,45.3,45.3,0,0,1-3.82-6,45.88,45.88,0,0,1-2.83-6.52c-.77-2.24-1.37-4.54-8.33-6.76S81,130.69,80.93,128.32s13.21-5,20.09-7.44,7.4-4.78,8.09-7a45.12,45.12,0,0,1,2.6-6.61c1-2.13,2.25-4.18,2.85-5.2l.61-1"/><path class="cls-38" d="M115.15,101l.76-.92c.76-.92,2.27-2.75,3.92-4.46a45.31,45.31,0,0,1,11.31-8.53,45.51,45.51,0,0,1,13.4-4.61,45.17,45.17,0,0,1,27.72,3.9c2.13,1,4.18,2.24,10.59-1S200,74.35,201.72,76,196.08,88.68,193,95.19s-1.76,8.53-.65,10.62a45,45,0,0,1,2.84,6.52,46.33,46.33,0,0,1,1.78,6.88,45,45,0,0,1,.24,14.16,45.48,45.48,0,0,1-4.14,13.55,45.4,45.4,0,0,1-3.61,6.13,45.46,45.46,0,0,1-9.84,10.19,45,45,0,0,1-12.51,6.65,45.4,45.4,0,0,1-21.05,2,45.75,45.75,0,0,1-6.94-1.54,45.26,45.26,0,0,1-26.74-22,46.46,46.46,0,0,1-2.84-6.51,45.14,45.14,0,0,1-2-21,45.48,45.48,0,0,1,4.14-13.55c1-2.13,2.25-4.18,2.85-5.21l.6-1"/><path class="cls-39" d="M113.84,100.07l.79-.95c.78-1,2.35-2.85,4.05-4.62a48.09,48.09,0,0,1,5.51-4.87,47.45,47.45,0,0,1,12.95-6.89,46.71,46.71,0,0,1,29-.5A46.81,46.81,0,0,1,173,84.93a47.5,47.5,0,0,1,6.34,3.74A45.32,45.32,0,0,1,185,93.35a46.7,46.7,0,0,1,11.76,18.46,46.82,46.82,0,0,1,2.1,21.79,46.58,46.58,0,0,1-4.29,14,45.8,45.8,0,0,1-3.73,6.34,47.07,47.07,0,0,1-4.68,5.68,46.35,46.35,0,0,1-5.51,4.87,46.36,46.36,0,0,1-13,6.89,46.24,46.24,0,0,1-7.12,1.84,46.88,46.88,0,0,1-21.85-1.33,46.86,46.86,0,0,1-6.85-2.7,49.2,49.2,0,0,1-6.34-3.73,46.84,46.84,0,0,1-17.43-23.15c-.8-2.32-1.42-4.7-2.46-7.11s-2.5-4.83-2.54-7.29,1.33-4.93,2.29-7.37,1.48-4.85,2.2-7.2a46.74,46.74,0,0,1,2.7-6.84c1.07-2.21,2.32-4.33,3-5.39l.62-1.06"/><path class="cls-40" d="M113.82,100.05l.79-1c.78-.95,2.35-2.85,4-4.61a46.53,46.53,0,0,1,5.52-4.88,46.36,46.36,0,0,1,12.95-6.89,47.25,47.25,0,0,1,14.46-2.55,47.44,47.44,0,0,1,7.34.45,46.36,46.36,0,0,1,7.19,1.59,46.79,46.79,0,0,1,13.19,6.44,47,47,0,0,1,17.45,23.15,46.87,46.87,0,0,1,2.1,21.8,47.3,47.3,0,0,1-4.29,14,46.77,46.77,0,0,1-13.93,16.9,46.94,46.94,0,0,1-6.21,4A46.76,46.76,0,0,1,153.22,174a47.1,47.1,0,0,1-14.53-2,47,47,0,0,1-23.75-16.63,47.31,47.31,0,0,1-6.89-13c-.8-2.32-1.41-4.7-2.47-7.11s-2.56-4.84-2.6-7.3,1.37-4.93,2.34-7.38,1.51-4.84,2.23-7.19a46.81,46.81,0,0,1,2.69-6.85c1.08-2.21,2.33-4.33,3-5.39l.62-1.07"/><path class="cls-41" d="M235.22,122.33l.18-.21a13.23,13.23,0,0,1,.91-1,10.65,10.65,0,0,1,1.23-1.09,10.52,10.52,0,0,1,1.39-.88,10.15,10.15,0,0,1,1.51-.66A10.91,10.91,0,0,1,242,118a10,10,0,0,1,1.64-.16,11.2,11.2,0,0,1,1.64.1,10.74,10.74,0,0,1,1.61.36,10.12,10.12,0,0,1,1.53.6,9.64,9.64,0,0,1,1.42.84,9.08,9.08,0,0,1,1.27,1,9.78,9.78,0,0,1,1.09,1.23,10.59,10.59,0,0,1,.89,1.39,11.26,11.26,0,0,1,.65,1.51,9.77,9.77,0,0,1,.41,1.59,10.41,10.41,0,0,1,.06,3.28,9.83,9.83,0,0,1-.35,1.61,10.6,10.6,0,0,1-.61,1.53,11.2,11.2,0,0,1-.83,1.42,11.6,11.6,0,0,1-1,1.27,10.65,10.65,0,0,1-1.23,1.09,11.29,11.29,0,0,1-1.39.89,11.84,11.84,0,0,1-1.51.65,9.77,9.77,0,0,1-1.59.41,10.47,10.47,0,0,1-3.29.06,9.74,9.74,0,0,1-1.6-.36,10.67,10.67,0,0,1-1.54-.6,11.08,11.08,0,0,1-1.41-.83,10.73,10.73,0,0,1-1.27-1.05,11.64,11.64,0,0,1-1.1-1.23,11.22,11.22,0,0,1-.88-1.39,10.63,10.63,0,0,1-.66-1.51,2.19,2.19,0,0,0-1.5-1.58c-1.18-.52-3.41-1-3.42-1.58s2.2-1.14,3.37-1.7a2.19,2.19,0,0,0,1.44-1.63,11,11,0,0,1,.6-1.53c.24-.49.52-1,.66-1.2l.14-.24"/><path class="cls-42" d="M235.18,122.3l.17-.22c.18-.21.53-.64.91-1A11.65,11.65,0,0,1,237.5,120a9.74,9.74,0,0,1,1.4-.89,10.74,10.74,0,0,1,1.52-.66A11.08,11.08,0,0,1,242,118a10.54,10.54,0,0,1,3.3-.06,11.15,11.15,0,0,1,1.62.36,10.72,10.72,0,0,1,1.54.61,10.19,10.19,0,0,1,1.42.84,10.84,10.84,0,0,1,1.28,1,10.42,10.42,0,0,1,2,2.64,10.27,10.27,0,0,1,.66,1.52c.18.52.32,1.06,1.65,1.58s3.85,1,3.86,1.58-2.49,1.15-3.8,1.72-1.44,1.11-1.6,1.64a10.67,10.67,0,0,1-.6,1.54,12.61,12.61,0,0,1-.84,1.42,10.82,10.82,0,0,1-2.3,2.38,11.29,11.29,0,0,1-1.39.89,10.74,10.74,0,0,1-1.52.66,9.89,9.89,0,0,1-1.6.41,10.6,10.6,0,0,1-3.31.06,11.32,11.32,0,0,1-1.61-.36,9.31,9.31,0,0,1-1.54-.61,10.64,10.64,0,0,1-2.71-1.89,10.75,10.75,0,0,1-1.09-1.24,10.23,10.23,0,0,1-.89-1.39,10.74,10.74,0,0,1-.66-1.52,10.5,10.5,0,0,1-.58-3.25,10.22,10.22,0,0,1,.11-1.66,10.06,10.06,0,0,1,.35-1.61,11.47,11.47,0,0,1,.61-1.54c.24-.5.52-1,.66-1.22l.15-.23"/><path class="cls-43" d="M233.46,121.09l.21-.25c.21-.26.63-.77,1.09-1.25a13.3,13.3,0,0,1,1.49-1.31,12.39,12.39,0,0,1,3.49-1.86,12.57,12.57,0,0,1,1.92-.49,12.66,12.66,0,0,1,4-.07,11.58,11.58,0,0,1,1.94.43A12.35,12.35,0,0,1,251.1,118a12.53,12.53,0,0,1,3.91,4.42,11.77,11.77,0,0,1,.79,1.82,12.6,12.6,0,0,1,.5,1.92,12.63,12.63,0,0,1-.36,5.89,13.09,13.09,0,0,1-1.73,3.55,13.21,13.21,0,0,1-1.27,1.53,12.35,12.35,0,0,1-1.48,1.32,13.84,13.84,0,0,1-1.67,1.06,12.68,12.68,0,0,1-1.82.79,12.5,12.5,0,0,1-3.9.69,13.16,13.16,0,0,1-2-.12,14.15,14.15,0,0,1-1.93-.43,13.94,13.94,0,0,1-1.85-.73,13.46,13.46,0,0,1-1.71-1,12.59,12.59,0,0,1-2.84-2.74,12.39,12.39,0,0,1-1.86-3.49,8.52,8.52,0,0,0-.78-1.92c-.4-.65-1-1.3-1.05-2s.6-1.33,1-2a9,9,0,0,0,.72-1.94,12.22,12.22,0,0,1,.72-1.85c.29-.59.63-1.16.8-1.45l.17-.29"/><path class="cls-44" d="M233.13,120.86l.22-.26c.21-.27.65-.8,1.12-1.29A13.17,13.17,0,0,1,236,118a12.87,12.87,0,0,1,1.72-1.1,12.58,12.58,0,0,1,1.88-.82,13.38,13.38,0,0,1,2-.51,13.82,13.82,0,0,1,2-.2,13.39,13.39,0,0,1,4,.57,12.93,12.93,0,0,1,1.9.75,3.13,3.13,0,0,0,2.37.41c1.17-.24,2.91-1.06,3.4-.58s-.27,2.24-.47,3.42a3.17,3.17,0,0,0,.5,2.35,12.53,12.53,0,0,1,.81,1.88,12.27,12.27,0,0,1,.52,2,13.81,13.81,0,0,1,.19,2,14,14,0,0,1-.12,2.05,13.63,13.63,0,0,1-.45,2,13.05,13.05,0,0,1-.75,1.91,12.51,12.51,0,0,1-1,1.76,12.27,12.27,0,0,1-1.3,1.58,12.39,12.39,0,0,1-1.53,1.36,12.87,12.87,0,0,1-1.72,1.1,13.49,13.49,0,0,1-1.88.81,12.52,12.52,0,0,1-2,.51,12.7,12.7,0,0,1-2,.2,13.88,13.88,0,0,1-2-.12,13.47,13.47,0,0,1-2-.45,12.93,12.93,0,0,1-1.9-.75,12.07,12.07,0,0,1-1.77-1,13,13,0,0,1-4-4.56,14.13,14.13,0,0,1-.82-1.87,13.7,13.7,0,0,1-.51-2,12.8,12.8,0,0,1-.19-2,12.63,12.63,0,0,1,.12-2,13.45,13.45,0,0,1,.44-2,12.93,12.93,0,0,1,.75-1.9c.3-.62.65-1.21.82-1.5l.18-.3"/><path class="cls-45" d="M232.63,120.52l.23-.28c.23-.28.69-.83,1.18-1.34a13.43,13.43,0,0,1,1.6-1.42,13.8,13.8,0,0,1,1.81-1.15,13,13,0,0,1,2-.85,12.61,12.61,0,0,1,2.07-.54,15.35,15.35,0,0,1,2.14-.21,13.86,13.86,0,0,1,2.13.14,12.37,12.37,0,0,1,2.09.46,14.16,14.16,0,0,1,2,.78,15,15,0,0,1,1.85,1.09,14.18,14.18,0,0,1,1.65,1.36,14.37,14.37,0,0,1,1.42,1.6,13.66,13.66,0,0,1,2,3.77,15,15,0,0,1,.54,2.07,13.89,13.89,0,0,1,.07,4.27,13.43,13.43,0,0,1-.46,2.09,13.08,13.08,0,0,1-.79,2A13.73,13.73,0,0,1,255,136.2a14.27,14.27,0,0,1-1.37,1.65,13.53,13.53,0,0,1-1.6,1.42,15.27,15.27,0,0,1-1.8,1.15,13.77,13.77,0,0,1-2,.85,13.09,13.09,0,0,1-2.07.53,12.6,12.6,0,0,1-2.13.21,14,14,0,0,1-2.14-.13,14.86,14.86,0,0,1-2.08-.46,14.33,14.33,0,0,1-2-.79,13.1,13.1,0,0,1-1.84-1.09,11.93,11.93,0,0,1-1.65-1.36,12.69,12.69,0,0,1-1.42-1.6,14.08,14.08,0,0,1-1.15-1.8,13.15,13.15,0,0,1-.85-2,6.57,6.57,0,0,0-1-2.06c-.55-.7-1.47-1.4-1.48-2.11s.88-1.44,1.4-2.16a6.09,6.09,0,0,0,.89-2.1,14.16,14.16,0,0,1,.78-2c.32-.64.68-1.26.86-1.56l.18-.31"/><path class="cls-46" d="M228.3,117.48l.32-.38c.31-.38.95-1.15,1.63-1.86a19,19,0,0,1,2.23-2,18.55,18.55,0,0,1,2.5-1.59,17.74,17.74,0,0,1,2.72-1.18,4,4,0,0,0,2.84-2.64c.94-2.06,1.86-5.94,2.85-6s2.05,3.83,3.06,5.86a4,4,0,0,0,2.93,2.53,19.3,19.3,0,0,1,5.32,2.59,19.64,19.64,0,0,1,2.29,1.89,18.9,18.9,0,0,1,5.48,10.32,19.39,19.39,0,0,1,.29,2.95,20.91,20.91,0,0,1-.18,3,18.87,18.87,0,0,1-3.24,8.22,19.64,19.64,0,0,1-1.89,2.29,18,18,0,0,1-2.22,2,18.79,18.79,0,0,1-8.09,3.52,18.38,18.38,0,0,1-5.92.1,17.75,17.75,0,0,1-2.89-.64,18.81,18.81,0,0,1-2.76-1.08,19.32,19.32,0,0,1-2.56-1.51,18.84,18.84,0,0,1-2.29-1.89,19.78,19.78,0,0,1-2-2.22,19.2,19.2,0,0,1-1.59-2.5,19.78,19.78,0,0,1-1.18-2.72,19.24,19.24,0,0,1-.75-2.87,19.64,19.64,0,0,1-.28-3,18.32,18.32,0,0,1,.18-3,19.25,19.25,0,0,1,.64-2.9,19.78,19.78,0,0,1,1.09-2.76c.43-.89.94-1.74,1.19-2.17l.25-.43"/><path class="cls-47" d="M228.2,117.41l.32-.38c.32-.39.95-1.16,1.64-1.88a20.07,20.07,0,0,1,2.24-2,19.49,19.49,0,0,1,2.52-1.6,18.45,18.45,0,0,1,2.74-1.19,4,4,0,0,0,2.85-2.69c1-2.12,1.88-6.11,2.88-6.13s2.06,3.94,3.08,6a4,4,0,0,0,2.95,2.59,18.95,18.95,0,0,1,7.65,4.51,19.11,19.11,0,0,1,2,2.24,19.56,19.56,0,0,1,1.61,2.52,20.25,20.25,0,0,1,1.19,2.74,19.14,19.14,0,0,1,.74,2.89,19,19,0,0,1,.11,6,19,19,0,0,1-3.26,8.27,19.83,19.83,0,0,1-1.9,2.3,19,19,0,0,1-2.23,2,18.47,18.47,0,0,1-2.52,1.6,19.61,19.61,0,0,1-2.74,1.2,19.14,19.14,0,0,1-2.89.74,19,19,0,0,1-6,.11,19.41,19.41,0,0,1-2.91-.65,20,20,0,0,1-2.78-1.09,19.5,19.5,0,0,1-2.57-1.52,19.12,19.12,0,0,1-2.31-1.9,18.26,18.26,0,0,1-2-2.24,18.79,18.79,0,0,1-1.61-2.51,18.45,18.45,0,0,1-1.19-2.74,20.44,20.44,0,0,1-.75-2.89,19.43,19.43,0,0,1-.1-6,19.38,19.38,0,0,1,.64-2.91,20.08,20.08,0,0,1,1.1-2.78c.44-.9.94-1.76,1.2-2.19l.25-.43"/><path class="cls-48" d="M215.58,108.57l.57-.69c.57-.7,1.72-2.09,3-3.39a35.09,35.09,0,0,1,4-3.57,34.26,34.26,0,0,1,9.5-5,7.87,7.87,0,0,0,5.18-4c1.72-2.92,3.43-8.31,5.23-8.35s3.69,5.31,5.52,8.17a7.87,7.87,0,0,0,5.31,3.78,32.9,32.9,0,0,1,5,2,34.37,34.37,0,0,1,4.65,2.74,34.58,34.58,0,0,1,7.74,7.47,34.26,34.26,0,0,1,5.05,9.5,33.63,33.63,0,0,1,1.35,5.22,34.27,34.27,0,0,1,.19,10.76,33.85,33.85,0,0,1-1.17,5.26,34.9,34.9,0,0,1-2,5,34.51,34.51,0,0,1-10.21,12.39,34.72,34.72,0,0,1-4.55,2.9,35.48,35.48,0,0,1-4.94,2.15,34.92,34.92,0,0,1-5.23,1.35,35.77,35.77,0,0,1-5.37.52,34.55,34.55,0,0,1-5.38-.33,34,34,0,0,1-5.27-1.17,34.9,34.9,0,0,1-5-2,34,34,0,0,1-4.65-2.74A34.92,34.92,0,0,1,220,153.1a34.27,34.27,0,0,1-3.57-4,33.35,33.35,0,0,1-2.9-4.55,32.91,32.91,0,0,1-2.15-4.95A34.49,34.49,0,0,1,209.48,129a34.55,34.55,0,0,1,.33-5.38A34.73,34.73,0,0,1,213,113.3c.79-1.62,1.71-3.17,2.17-4l.46-.78"/><path class="cls-49" d="M215.49,108.51l.58-.69c.58-.7,1.73-2.1,3-3.4a34.63,34.63,0,0,1,13.58-8.65,7.81,7.81,0,0,0,5.19-4c1.73-3,3.44-8.47,5.25-8.51s3.7,5.41,5.54,8.33a7.82,7.82,0,0,0,5.32,3.83,34.69,34.69,0,0,1,5,2,34.12,34.12,0,0,1,4.66,2.75,33.57,33.57,0,0,1,4.17,3.44,34.53,34.53,0,0,1,3.59,4.05,34.29,34.29,0,0,1,5.06,9.53,34.44,34.44,0,0,1-7.79,35.17,35.45,35.45,0,0,1-4.06,3.59,34.76,34.76,0,0,1-9.52,5.06,35.08,35.08,0,0,1-5.24,1.36,36,36,0,0,1-5.39.52,34.89,34.89,0,0,1-5.4-.33,35.61,35.61,0,0,1-5.28-1.18,33.89,33.89,0,0,1-5-2,35.11,35.11,0,0,1-4.66-2.74,34.5,34.5,0,0,1-4.18-3.45,33.56,33.56,0,0,1-3.58-4,34.52,34.52,0,0,1-2.91-4.56,34.16,34.16,0,0,1-3.51-10.2,33.58,33.58,0,0,1-.52-5.39,34.89,34.89,0,0,1,.33-5.4,34.36,34.36,0,0,1,1.17-5.28,35,35,0,0,1,2-5c.8-1.62,1.71-3.19,2.17-4l.46-.78"/><path class="cls-50" d="M350.69,120.82l.18-.21c.17-.21.52-.63.89-1a10.56,10.56,0,0,1,1.23-1.08,10.3,10.3,0,0,1,1.37-.88,11.13,11.13,0,0,1,1.5-.65,10.63,10.63,0,0,1,1.57-.4,10.43,10.43,0,0,1,4.85.29,10.32,10.32,0,0,1,1.51.6,11.08,11.08,0,0,1,1.41.83,11.32,11.32,0,0,1,1.26,1,10.56,10.56,0,0,1,1.08,1.23,10.24,10.24,0,0,1,.87,1.37,9.06,9.06,0,0,1,.65,1.5,9.54,9.54,0,0,1,.41,1.57,9.89,9.89,0,0,1,.16,1.63,10.93,10.93,0,0,1-.1,1.62,12.32,12.32,0,0,1-.35,1.6,10.32,10.32,0,0,1-.6,1.51,11.08,11.08,0,0,1-.83,1.41,11.21,11.21,0,0,1-1,1.26,9.71,9.71,0,0,1-1.22,1.08,10.24,10.24,0,0,1-1.37.87,9.06,9.06,0,0,1-1.5.65,2.21,2.21,0,0,0-1.56,1.5c-.51,1.18-1,3.41-1.56,3.42s-1.13-2.2-1.69-3.36a2.19,2.19,0,0,0-1.61-1.45,9.37,9.37,0,0,1-1.52-.59,11.71,11.71,0,0,1-1.4-.83,9.67,9.67,0,0,1-1.26-1,10.46,10.46,0,0,1-1.08-1.22,10.3,10.3,0,0,1-.88-1.37,11.13,11.13,0,0,1-.65-1.5,10.44,10.44,0,0,1-.4-1.58,9.77,9.77,0,0,1-.16-1.62,9.91,9.91,0,0,1,.1-1.63,10.73,10.73,0,0,1,.35-1.59,10.44,10.44,0,0,1,.6-1.52c.24-.49.52-1,.65-1.19l.14-.24"/><path class="cls-51" d="M349,119.61l.21-.25a15.37,15.37,0,0,1,1.08-1.23,10.68,10.68,0,0,1,1.47-1.3,12.11,12.11,0,0,1,3.45-1.84,12.32,12.32,0,0,1,1.9-.49,11.61,11.61,0,0,1,1.95-.19,12.82,12.82,0,0,1,2,.12,12.26,12.26,0,0,1,1.91.42,14.49,14.49,0,0,1,1.83.72,12.51,12.51,0,0,1,1.69,1,11.26,11.26,0,0,1,1.51,1.25,11.39,11.39,0,0,1,1.3,1.47,11.87,11.87,0,0,1,1.06,1.65,13,13,0,0,1,.78,1.8,12.32,12.32,0,0,1,.49,1.9,12.75,12.75,0,0,1,.19,2,12.9,12.9,0,0,1-.12,2,12.29,12.29,0,0,1-.43,1.91,12,12,0,0,1-.72,1.83,12.44,12.44,0,0,1-1,1.69,12.84,12.84,0,0,1-1.25,1.51,12.1,12.1,0,0,1-1.47,1.3,11.87,11.87,0,0,1-1.65,1.06,14.38,14.38,0,0,1-1.8.78,12.62,12.62,0,0,1-1.9.49,12.38,12.38,0,0,1-5.83-.36,12.29,12.29,0,0,1-1.82-.72,12.44,12.44,0,0,1-1.69-1,12.07,12.07,0,0,1-1.51-1.25,11.3,11.3,0,0,1-1.3-1.47,12.5,12.5,0,0,1-1.06-1.65,11.94,11.94,0,0,1-.78-1.8,3.76,3.76,0,0,0-1.09-1.89c-.7-.63-1.95-1.27-2-1.92s1.21-1.33,1.9-2a3.92,3.92,0,0,0,1-1.93,13.44,13.44,0,0,1,.71-1.82c.29-.59.62-1.16.79-1.44l.17-.28"/><path class="cls-52" d="M348.87,119.55l.21-.26c.21-.25.63-.76,1.09-1.24a14.14,14.14,0,0,1,1.48-1.31,13.84,13.84,0,0,1,1.67-1.06,12.82,12.82,0,0,1,1.82-.79,12.44,12.44,0,0,1,1.91-.49,11.84,11.84,0,0,1,2-.19,13,13,0,0,1,2,.12,11.46,11.46,0,0,1,1.93.43,11.71,11.71,0,0,1,1.84.72,13.18,13.18,0,0,1,1.71,1,12.83,12.83,0,0,1,2.83,2.74,12.39,12.39,0,0,1,1.86,3.49,4,4,0,0,0,1.06,1.9c.69.64,1.9,1.28,1.91,1.94s-1.17,1.34-1.84,2a4.11,4.11,0,0,0-1,1.94,12.35,12.35,0,0,1-1.73,3.55,13.12,13.12,0,0,1-1.25,1.52,11.55,11.55,0,0,1-1.49,1.31,12,12,0,0,1-1.66,1.07,13.34,13.34,0,0,1-1.82.79,12.44,12.44,0,0,1-1.91.49,11.84,11.84,0,0,1-2,.19,12.49,12.49,0,0,1-3.91-.55,12.53,12.53,0,0,1-1.84-.72,12.68,12.68,0,0,1-1.7-1,13.13,13.13,0,0,1-1.53-1.26,12.37,12.37,0,0,1-1.31-1.48,13,13,0,0,1-1.06-1.66,13.34,13.34,0,0,1-.79-1.82,12.44,12.44,0,0,1-.49-1.91,11.84,11.84,0,0,1-.19-2,13.16,13.16,0,0,1,.12-2,11.69,11.69,0,0,1,.43-1.93,12.53,12.53,0,0,1,.72-1.84c.29-.59.63-1.16.79-1.45l.17-.28"/><path class="cls-53" d="M348,119l.23-.27c.23-.28.68-.83,1.18-1.34a13.43,13.43,0,0,1,1.6-1.42,13.42,13.42,0,0,1,3.76-2,15,15,0,0,1,2.07-.54,14,14,0,0,1,2.13-.2,13.77,13.77,0,0,1,2.13.13,13.43,13.43,0,0,1,2.09.46,14,14,0,0,1,3.83,1.87A12.69,12.69,0,0,1,368.7,117a14.37,14.37,0,0,1,1.42,1.6,13.42,13.42,0,0,1,2,3.76,6.19,6.19,0,0,0,1,2.07c.55.69,1.46,1.39,1.47,2.1s-.88,1.44-1.4,2.16a6.09,6.09,0,0,0-.88,2.09,14.21,14.21,0,0,1-.79,2,13,13,0,0,1-1.08,1.84,13.55,13.55,0,0,1-1.36,1.65,14.37,14.37,0,0,1-1.6,1.42,14.2,14.2,0,0,1-1.81,1.15,13.65,13.65,0,0,1-2,.85,13.09,13.09,0,0,1-2.07.53,12.59,12.59,0,0,1-2.12.21,13.9,13.9,0,0,1-2.14-.13,13.59,13.59,0,0,1-2.08-.47,12.64,12.64,0,0,1-2-.78,13,13,0,0,1-1.84-1.08,13.76,13.76,0,0,1-3.07-3,14.2,14.2,0,0,1-1.15-1.81,13.65,13.65,0,0,1-.85-2,14.3,14.3,0,0,1-.54-2.07,13.7,13.7,0,0,1-.2-2.12,13.9,13.9,0,0,1,.13-2.14,13.56,13.56,0,0,1,.46-2.08,12.68,12.68,0,0,1,.79-2c.31-.64.67-1.26.85-1.57L348,119"/><path class="cls-54" d="M339.43,112.94l.4-.49c.4-.49,1.21-1.46,2.09-2.37a23.29,23.29,0,0,1,2.83-2.51,25.59,25.59,0,0,1,3.18-2,24.72,24.72,0,0,1,3.47-1.5,24.3,24.3,0,0,1,3.66-1,24.18,24.18,0,0,1,7.53-.13,24.42,24.42,0,0,1,7.21,2.2,25.22,25.22,0,0,1,3.25,1.92,24,24,0,0,1,2.92,2.4,24.81,24.81,0,0,1,2.5,2.83,24.21,24.21,0,0,1,2,3.19A23.65,23.65,0,0,1,382,119a24,24,0,0,1,.95,3.66,23.7,23.7,0,0,1,.36,3.76,25,25,0,0,1-.23,3.77,24.57,24.57,0,0,1-.82,3.69,23.62,23.62,0,0,1-1.39,3.52,24.05,24.05,0,0,1-1.91,3.25,24.91,24.91,0,0,1-2.41,2.92,23.21,23.21,0,0,1-2.83,2.5,23.47,23.47,0,0,1-3.18,2,24.77,24.77,0,0,1-3.47,1.51,11.42,11.42,0,0,0-3.65,1.68c-1.23,1-2.46,2.54-3.72,2.57s-2.55-1.53-3.81-2.44a11.36,11.36,0,0,0-3.7-1.55,23.62,23.62,0,0,1-3.52-1.39,23.83,23.83,0,0,1-6.17-4.32,22.4,22.4,0,0,1-2.5-2.83,24.66,24.66,0,0,1-2-3.19,24.37,24.37,0,0,1-2.45-7.12,24.18,24.18,0,0,1-.13-7.53,24.42,24.42,0,0,1,2.2-7.21c.56-1.13,1.2-2.22,1.52-2.77l.32-.54"/><path class="cls-55" d="M335.47,110.16l.48-.58c.48-.59,1.45-1.76,2.5-2.85a28.5,28.5,0,0,1,3.4-3,28.12,28.12,0,0,1,3.82-2.44,28.91,28.91,0,0,1,4.16-1.81,30.12,30.12,0,0,1,4.39-1.14,29.68,29.68,0,0,1,4.51-.43,28.56,28.56,0,0,1,4.53.28,29.2,29.2,0,0,1,4.43,1,28.89,28.89,0,0,1,4.22,1.66,28.41,28.41,0,0,1,3.91,2.3,29.06,29.06,0,0,1,6.5,6.28,28.86,28.86,0,0,1,2.44,3.83,30.07,30.07,0,0,1,1.81,4.16,28.86,28.86,0,0,1,1.13,4.39,28.47,28.47,0,0,1,.44,4.51,29.79,29.79,0,0,1-.28,4.53,29.2,29.2,0,0,1-1,4.43,28.89,28.89,0,0,1-1.66,4.22,29.52,29.52,0,0,1-2.31,3.91,28.34,28.34,0,0,1-2.88,3.5,29.36,29.36,0,0,1-7.22,5.44,30.07,30.07,0,0,1-4.16,1.81,11,11,0,0,0-4.37,2.2c-1.47,1.34-2.95,3.63-4.46,3.65s-3.07-2.21-4.58-3.49a11,11,0,0,0-4.45-2.05,28.89,28.89,0,0,1-4.22-1.66,29.52,29.52,0,0,1-3.91-2.31,28.49,28.49,0,0,1-6.5-6.28,29.42,29.42,0,0,1-2.44-3.82,28.65,28.65,0,0,1-2.94-8.55,28.57,28.57,0,0,1-.16-9,29.2,29.2,0,0,1,1-4.43,28.89,28.89,0,0,1,1.66-4.22c.67-1.36,1.44-2.67,1.82-3.32l.39-.66"/><path class="cls-56" d="M334.61,109.56l.5-.61c.5-.6,1.5-1.82,2.59-3a29,29,0,0,1,3.52-3.11,29.55,29.55,0,0,1,8.27-4.4A8.15,8.15,0,0,0,354,95.66c1.52-1.93,3-5.39,4.59-5.41s3.2,3.37,4.78,5.25A8.17,8.17,0,0,0,368,98.17a30.05,30.05,0,0,1,12,7.09,30.67,30.67,0,0,1,3.12,3.52,29.89,29.89,0,0,1,2.52,4,29.48,29.48,0,0,1,3.05,8.86,28.21,28.21,0,0,1,.45,4.68,30.76,30.76,0,0,1-.28,4.69,29.72,29.72,0,0,1-1,4.58,31.1,31.1,0,0,1-1.72,4.38,29.91,29.91,0,0,1-5.38,7.67,29.77,29.77,0,0,1-16.34,8.69,29.32,29.32,0,0,1-4.68.45,30.61,30.61,0,0,1-4.69-.28,30.11,30.11,0,0,1-4.59-1,31,31,0,0,1-4.37-1.72,29.9,29.9,0,0,1-10.79-8.9,30.26,30.26,0,0,1-4.4-8.27,31,31,0,0,1-1.18-4.55,29.85,29.85,0,0,1-.16-9.37,30.1,30.1,0,0,1,2.74-9c.69-1.41,1.49-2.77,1.89-3.44l.4-.68"/><path class="cls-57" d="M330.28,106.53l.59-.71c.59-.72,1.76-2.14,3-3.47a35.34,35.34,0,0,1,8.8-6.63,35.62,35.62,0,0,1,5.07-2.2,35.42,35.42,0,0,1,16.36-1.58,35.57,35.57,0,0,1,10.53,3.22,35.76,35.76,0,0,1,9,6.32,36,36,0,0,1,3.66,4.14,35.18,35.18,0,0,1,6.74,26.09,34.81,34.81,0,0,1-3.22,10.53,34.6,34.6,0,0,0-2.33,5.21c-.59,2-.84,4.29-2.12,5.62s-3.6,1.65-5.54,2.31a33.87,33.87,0,0,0-5.12,2.52,36.12,36.12,0,0,1-5.07,2.2,35.16,35.16,0,0,1-16.36,1.57,34.11,34.11,0,0,1-5.39-1.19,35.09,35.09,0,0,1-5.15-2,34.51,34.51,0,0,1-4.76-2.8,35.78,35.78,0,0,1-4.26-3.51,36.86,36.86,0,0,1-3.66-4.14,35,35,0,0,1-5.17-9.73,35.43,35.43,0,0,1-1.58-16.36,35.67,35.67,0,0,1,1.2-5.4,36.55,36.55,0,0,1,2-5.14c.81-1.65,1.75-3.25,2.22-4l.47-.8"/><path class="cls-58" d="M330.15,106.44l.59-.71c.59-.72,1.78-2.15,3.06-3.49A35.35,35.35,0,0,1,338,98.57a34.63,34.63,0,0,1,4.68-3,36,36,0,0,1,5.09-2.22A36.82,36.82,0,0,1,353.1,92a35.37,35.37,0,0,1,11.06-.19,35.93,35.93,0,0,1,5.42,1.2,34.17,34.17,0,0,1,5.16,2,35.09,35.09,0,0,1,9.06,6.34,34.54,34.54,0,0,1,3.68,4.16,35.64,35.64,0,0,1,3,4.68,34.8,34.8,0,0,1,2.21,5.09,34.15,34.15,0,0,1,1.39,5.37,35.23,35.23,0,0,1,.54,5.52,36.64,36.64,0,0,1-.34,5.54,35.93,35.93,0,0,1-1.2,5.42,36.41,36.41,0,0,1-2,5.16,35.83,35.83,0,0,1-2.81,4.78,36.32,36.32,0,0,1-3.53,4.28,35.34,35.34,0,0,1-8.84,6.66,34.8,34.8,0,0,1-5.09,2.21,34.44,34.44,0,0,1-5.37,1.39,35.78,35.78,0,0,1-11.06.2,35.66,35.66,0,0,1-5.42-1.2,36.41,36.41,0,0,1-5.16-2,29.6,29.6,0,0,0-5.28-2.3c-2-.55-4.44-.7-5.77-2s-1.57-3.7-2.19-5.7a29,29,0,0,0-2.48-5.19,35.21,35.21,0,0,1-4.14-16,35.48,35.48,0,0,1,1.54-11,34.17,34.17,0,0,1,2-5.16c.81-1.67,1.75-3.27,2.22-4.07l.47-.8"/><path class="cls-59" d="M325,102.81l.7-.85c.69-.84,2.09-2.53,3.6-4.1A42.16,42.16,0,0,1,339.67,90a42.47,42.47,0,0,1,6-2.6c2.06-.71,4.18-1.26,6.33-1.87a18.08,18.08,0,0,1,13-.23c2.17.53,4.31,1,6.39,1.65a41.37,41.37,0,0,1,6.09,2.39,42.42,42.42,0,0,1,5.63,3.32A41.68,41.68,0,0,1,396,107.24a41.76,41.76,0,0,1,4.25,12.33,41.84,41.84,0,0,1,.63,6.51,43.22,43.22,0,0,1-.4,6.53,42,42,0,0,1-1.42,6.38,41.93,41.93,0,0,1-5.71,11.72,42.93,42.93,0,0,1-4.16,5,41.92,41.92,0,0,1-4.9,4.33,42.1,42.1,0,0,1-11.51,6.12,42.36,42.36,0,0,1-6.33,1.64,41.84,41.84,0,0,1-6.51.63,43.14,43.14,0,0,1-6.53-.4,42,42,0,0,1-6.38-1.42,41.42,41.42,0,0,1-6.09-2.4,40.71,40.71,0,0,1-5.63-3.31,42.93,42.93,0,0,1-5-4.16,41.92,41.92,0,0,1-4.33-4.9,41.28,41.28,0,0,1-3.52-5.52A41.65,41.65,0,0,1,318,121a42.4,42.4,0,0,1,1.42-6.39,41.7,41.7,0,0,1,2.39-6.08c1-2,2.07-3.85,2.63-4.79l.55-.94"/><path class="cls-60" d="M323.23,101.59l.73-.88c.73-.89,2.19-2.67,3.78-4.32a45.41,45.41,0,0,1,5.15-4.55A43.62,43.62,0,0,1,345,85.41a20.3,20.3,0,0,0,6.62-3.06c2.24-1.74,4.48-4.65,6.77-4.69s4.64,2.79,6.93,4.45,4.54,2.16,6.73,2.83a43.28,43.28,0,0,1,6.39,2.52,43.92,43.92,0,0,1,5.92,3.48,43.95,43.95,0,0,1,9.86,9.52,43.75,43.75,0,0,1,6.43,12.09,44.16,44.16,0,0,1,2,20.35,43.93,43.93,0,0,1-1.49,6.71,43.79,43.79,0,0,1-6,12.31,42.57,42.57,0,0,1-4.37,5.3,43.89,43.89,0,0,1-10.94,8.25A43.54,43.54,0,0,1,360,170.58a43.61,43.61,0,0,1-6.85-.42,42.75,42.75,0,0,1-6.71-1.48,44.41,44.41,0,0,1-6.39-2.52,43.37,43.37,0,0,1-5.92-3.49,41.86,41.86,0,0,1-5.3-4.37,43.25,43.25,0,0,1-8.25-10.94,43.76,43.76,0,0,1-4.46-13,43.74,43.74,0,0,1,3.77-26.79c1-2.06,2.17-4.05,2.75-5l.59-1"/><path class="cls-61" d="M322,100.73l.76-.92c.75-.92,2.27-2.75,3.91-4.46A45.12,45.12,0,0,1,338,86.82a45.31,45.31,0,0,1,20.47-5.29,45.15,45.15,0,0,1,26.76,8.18,44.85,44.85,0,0,1,5.49,4.52,45.12,45.12,0,0,1,8.53,11.32,45.27,45.27,0,0,1,2.83,6.51,45.2,45.2,0,0,1-2.12,34.6,45.23,45.23,0,0,1-3.6,6.12,45.16,45.16,0,0,1-15.84,14,43.89,43.89,0,0,1-6.52,2.84,45.1,45.1,0,0,1-21,2,45.51,45.51,0,0,1-19.68-7.74,46.49,46.49,0,0,1-5.48-4.52,45,45,0,0,1-4.71-5.33,45,45,0,0,1-6.65-12.51c-.77-2.24-1.37-4.54-8.28-6.76S288,130.42,288,128.05s13.09-5,19.92-7.43,7.34-4.78,8-7.05a44.73,44.73,0,0,1,2.61-6.61c1-2.14,2.24-4.18,2.85-5.21l.6-1"/><path class="cls-62" d="M567,115.66l.38-.45c.37-.45,1.11-1.35,1.92-2.19a22.46,22.46,0,0,1,8.75-5.58,21.77,21.77,0,0,1,3.38-.87,22.56,22.56,0,0,1,7-.12,22.08,22.08,0,0,1,6.65,2,23.27,23.27,0,0,1,3,1.77,22.08,22.08,0,0,1,5,4.84,21.48,21.48,0,0,1,1.87,2.94,21.06,21.06,0,0,1,1.39,3.2,21.8,21.8,0,0,1,.88,3.38,22.28,22.28,0,0,1,.33,3.47,22.51,22.51,0,0,1-.21,3.48,21.23,21.23,0,0,1-.76,3.41,22,22,0,0,1-1.27,3.24,22.61,22.61,0,0,1-1.77,3,23.84,23.84,0,0,1-2.22,2.69,22.09,22.09,0,0,1-2.62,2.31,22.56,22.56,0,0,1-2.94,1.88,23.27,23.27,0,0,1-3.2,1.39,21.77,21.77,0,0,1-3.38.87,21.71,21.71,0,0,1-7,.12,21.82,21.82,0,0,1-3.41-.75,22,22,0,0,1-3.24-1.28,21.58,21.58,0,0,1-3-1.77,22.33,22.33,0,0,1-5-4.83,22.32,22.32,0,0,1-3.27-6.14,6,6,0,0,0-2.09-3.36c-1.42-1.13-4-2.25-4-3.41s2.49-2.37,3.87-3.55a6.06,6.06,0,0,0,2-3.42,22.16,22.16,0,0,1,1.28-3.25c.51-1,1.1-2,1.4-2.56l.29-.5"/><path class="cls-63" d="M566.89,115.6l.38-.45c.37-.45,1.12-1.36,1.93-2.2a22.18,22.18,0,0,1,2.62-2.32,23.47,23.47,0,0,1,3-1.88,22.28,22.28,0,0,1,3.21-1.4,23.45,23.45,0,0,1,3.39-.88,22.76,22.76,0,0,1,7-.12,22.55,22.55,0,0,1,6.68,2,23.45,23.45,0,0,1,3,1.78,23.1,23.1,0,0,1,2.71,2.23A22.38,22.38,0,0,1,603.1,115a22.66,22.66,0,0,1,1.88,3,21.92,21.92,0,0,1,1.4,3.22,5.83,5.83,0,0,0,2.19,3.37c1.51,1.12,4.24,2.25,4.26,3.42s-2.67,2.38-4.14,3.56a5.8,5.8,0,0,0-2.07,3.45,21.66,21.66,0,0,1-1.29,3.26,22.29,22.29,0,0,1-1.77,3,23,23,0,0,1-2.23,2.7,22.27,22.27,0,0,1-2.63,2.32,21.72,21.72,0,0,1-3,1.89,23.51,23.51,0,0,1-3.22,1.39,21.93,21.93,0,0,1-3.39.88,22,22,0,0,1-7,.12,21.35,21.35,0,0,1-3.42-.76,22.25,22.25,0,0,1-14.58-14.08,22,22,0,0,1-.88-3.4,22.54,22.54,0,0,1-.34-3.48,21.58,21.58,0,0,1,.22-3.5,21.11,21.11,0,0,1,.76-3.42,22.28,22.28,0,0,1,1.28-3.26c.51-1.05,1.11-2.06,1.41-2.57l.29-.51"/><path class="cls-64" d="M561.77,112l.48-.58c.47-.58,1.43-1.74,2.47-2.81a28.43,28.43,0,0,1,7.13-5.38,29.36,29.36,0,0,1,4.11-1.79c1.42-.48,2.87-.86,4.19-9.67s2.52-26.06,4-26.09,3.29,17.17,4.92,25.93,3.09,9.09,4.52,9.52a28.25,28.25,0,0,1,4.17,1.65,27.12,27.12,0,0,1,3.86,2.27,28.62,28.62,0,0,1,8.84,10A28.57,28.57,0,0,1,613.82,128a30.4,30.4,0,0,1-.27,4.47,28.57,28.57,0,0,1-1,4.38,27.55,27.55,0,0,1-1.64,4.17,28.27,28.27,0,0,1-2.27,3.86,28.42,28.42,0,0,1-6.21,6.43,28.56,28.56,0,0,1-12.23,5.31,28.66,28.66,0,0,1-8.93.16,28.55,28.55,0,0,1-4.38-1,29.83,29.83,0,0,1-4.17-1.64,28.86,28.86,0,0,1-7.32-5.13,28.3,28.3,0,0,1-7.16-11.24,27.39,27.39,0,0,1-1.12-4.34,28.72,28.72,0,0,1-.16-8.94,28.42,28.42,0,0,1,1-4.37,29.35,29.35,0,0,1,1.64-4.17c.66-1.35,1.42-2.64,1.8-3.29l.38-.64"/><path class="cls-65" d="M561.49,111.82l.48-.59c.48-.58,1.45-1.76,2.5-2.84a28.59,28.59,0,0,1,3.4-3,28.12,28.12,0,0,1,3.82-2.44,30.07,30.07,0,0,1,4.16-1.81,28.86,28.86,0,0,1,4.39-1.13,28.62,28.62,0,0,1,9-.16,28.6,28.6,0,0,1,8.64,2.65,28.41,28.41,0,0,1,3.91,2.3,29.27,29.27,0,0,1,3.5,2.88,28.88,28.88,0,0,1,5.45,7.23,29.41,29.41,0,0,1,2.94,8.55,29.36,29.36,0,0,1,.16,9,28.55,28.55,0,0,1-2.65,8.65,28.41,28.41,0,0,1-2.3,3.91,28.49,28.49,0,0,1-6.28,6.5,28.86,28.86,0,0,1-3.83,2.44,28.44,28.44,0,0,1-4.16,1.81,11,11,0,0,0-4.37,2.2c-1.47,1.32-2.95,3.59-4.46,3.62s-3.07-2.19-4.58-3.47a11.11,11.11,0,0,0-4.45-2,28.89,28.89,0,0,1-4.22-1.66,30.58,30.58,0,0,1-3.91-2.3,29.35,29.35,0,0,1-3.5-2.89,28.5,28.5,0,0,1-3-3.4,29.42,29.42,0,0,1-2.44-3.82,28.91,28.91,0,0,1-1.81-4.16,30.12,30.12,0,0,1-1.14-4.39,29.81,29.81,0,0,1-.43-4.52,29,29,0,0,1,1.26-9,29.46,29.46,0,0,1,1.66-4.23c.66-1.36,1.43-2.66,1.82-3.32l.39-.65"/><path class="cls-66" d="M561.22,111.63l.49-.59c.49-.59,1.46-1.78,2.53-2.88a29.12,29.12,0,0,1,3.43-3,29.43,29.43,0,0,1,3.87-2.46,29.33,29.33,0,0,1,8.65-3,30.22,30.22,0,0,1,4.56-.44,30.53,30.53,0,0,1,4.58.28,29.88,29.88,0,0,1,4.48,1,28.35,28.35,0,0,1,4.26,1.68,30.15,30.15,0,0,1,4,2.32,30.84,30.84,0,0,1,3.54,2.92,30,30,0,0,1,5.5,7.3,29.33,29.33,0,0,1,3,8.65,29.2,29.2,0,0,1,.16,9.14,29.61,29.61,0,0,1-1,4.48,28.46,28.46,0,0,1-1.68,4.27,29.59,29.59,0,0,1-5.24,7.49,30,30,0,0,1-3.44,3,27.83,27.83,0,0,1-3.87,2.46,29.49,29.49,0,0,1-4.2,1.83,28.68,28.68,0,0,1-4.44,1.15,29.26,29.26,0,0,1-9.15.16,28.55,28.55,0,0,1-4.47-1,29.13,29.13,0,0,1-4.27-1.68,28.44,28.44,0,0,1-4-2.33,29.06,29.06,0,0,1-9-10.22,28.05,28.05,0,0,1-1.83-4.21,10.31,10.31,0,0,0-2.34-4.42c-1.45-1.48-4-3-4-4.5s2.44-3.1,3.84-4.64a10.26,10.26,0,0,0,2.18-4.5,30,30,0,0,1,1.68-4.27c.67-1.37,1.45-2.69,1.84-3.36l.39-.66"/><path class="cls-67" d="M559,110.1l.53-.65c.53-.65,1.6-1.94,2.76-3.14a32,32,0,0,1,3.75-3.32,32.44,32.44,0,0,1,4.22-2.69,31.66,31.66,0,0,1,4.59-2,45,45,0,0,0,4.84-1.74c1.63-.77,3.28-1.9,4.95-1.93s3.36,1,5,1.76a44.55,44.55,0,0,0,4.9,1.56,32.58,32.58,0,0,1,4.65,1.84,31.14,31.14,0,0,1,4.32,2.54,31.82,31.82,0,0,1,3.86,3.18,32.85,32.85,0,0,1,3.32,3.75,32,32,0,0,1,2.68,4.22,31.1,31.1,0,0,1,2,4.59,32.26,32.26,0,0,1,1.25,4.85,32.12,32.12,0,0,1,.18,10,32.43,32.43,0,0,1-2.92,9.54,32,32,0,0,1-5.72,8.17,32.85,32.85,0,0,1-3.75,3.32,31.69,31.69,0,0,1-4.22,2.69,33.36,33.36,0,0,1-4.59,2,32.26,32.26,0,0,1-4.85,1.25,31.72,31.72,0,0,1-10,.17,31.65,31.65,0,0,1-9.54-2.92,31.63,31.63,0,0,1-4.31-2.54,30.91,30.91,0,0,1-3.86-3.18,31.89,31.89,0,0,1-6-8,32.84,32.84,0,0,1-2-4.59,31.95,31.95,0,0,1-1.73-9.83,30.83,30.83,0,0,1,.31-5,31.38,31.38,0,0,1,1.08-4.89,32.65,32.65,0,0,1,1.83-4.66c.74-1.5,1.59-2.94,2-3.66l.43-.72"/><path class="cls-68" d="M559,110.09l.53-.64c.54-.65,1.6-1.94,2.76-3.14a31.7,31.7,0,0,1,8-6,31.71,31.71,0,0,1,4.59-2,34.78,34.78,0,0,0,4.83-1.79c1.64-.83,3.29-2.06,5-2.09s3.36,1.15,5,1.92a36.43,36.43,0,0,0,4.9,1.62,32.19,32.19,0,0,1,4.66,1.83,33.83,33.83,0,0,1,4.31,2.54,32.24,32.24,0,0,1,7.18,6.94,30.46,30.46,0,0,1,2.69,4.22,32.84,32.84,0,0,1,2,4.59,32.26,32.26,0,0,1,1.25,4.85,31.93,31.93,0,0,1,.48,5,32.13,32.13,0,0,1-1.39,9.88,31.32,31.32,0,0,1-4.38,9,31.95,31.95,0,0,1-15.74,11.87,32.26,32.26,0,0,1-4.85,1.25,31.68,31.68,0,0,1-14.87-.91,31.39,31.39,0,0,1-4.65-1.83A31.74,31.74,0,0,1,567,154.6a32.6,32.6,0,0,1-3.86-3.18,33.72,33.72,0,0,1-3.32-3.75,33.24,33.24,0,0,1-2.69-4.23,31.66,31.66,0,0,1-2-4.59,31.31,31.31,0,0,1-1.26-4.84,31,31,0,0,1-.47-5,32,32,0,0,1,.3-5,32.57,32.57,0,0,1,1.08-4.89,32.24,32.24,0,0,1,1.84-4.66c.73-1.5,1.58-2.94,2-3.67l.42-.72"/><path class="cls-69" d="M555.32,107.5l.61-.74c.6-.74,1.82-2.21,3.15-3.58a36.6,36.6,0,0,1,4.27-3.79,38.52,38.52,0,0,1,4.82-3.07,36.85,36.85,0,0,1,5.24-2.27,36.21,36.21,0,0,1,5.53-1.43,36.27,36.27,0,0,1,11.39-.2,36.81,36.81,0,0,1,5.58,1.23,36.19,36.19,0,0,1,5.31,2.1c1.71.83,3.36,1.8,5.22,2.59s3.93,1.38,5.3,2.7,2,3.38,2.89,5.21,1.88,3.44,2.78,5.13a36.44,36.44,0,0,1,3.7,10.77,36.2,36.2,0,0,1,.2,11.38,36,36,0,0,1-3.33,10.9,35.27,35.27,0,0,1-2.9,4.92,37.3,37.3,0,0,1-3.63,4.41,36.62,36.62,0,0,1-4.28,3.78,36.4,36.4,0,0,1-15.59,6.78,36.2,36.2,0,0,1-11.38.2,36.57,36.57,0,0,1-5.58-1.24,37.88,37.88,0,0,1-5.32-2.09,37.35,37.35,0,0,1-4.92-2.9,36.45,36.45,0,0,1-13.54-18,36.21,36.21,0,0,1-1.43-5.53,36.27,36.27,0,0,1-.2-11.39,36.84,36.84,0,0,1,1.24-5.58,37.29,37.29,0,0,1,2.09-5.31c.84-1.72,1.81-3.36,2.29-4.19l.49-.82"/><path class="cls-70" d="M555.24,107.45l.61-.74c.61-.74,1.83-2.22,3.16-3.6a36.8,36.8,0,0,1,4.29-3.79,36.25,36.25,0,0,1,4.83-3.08A37,37,0,0,1,573.38,94a36.64,36.64,0,0,1,5.54-1.43,36.47,36.47,0,0,1,17,1,36.15,36.15,0,0,1,10.27,5,37.56,37.56,0,0,1,4.41,3.64,36.78,36.78,0,0,1,3.8,4.29,36.29,36.29,0,0,1,5.36,10.08,36.76,36.76,0,0,1,1.43,5.55,36.45,36.45,0,0,1,.2,11.42,35.79,35.79,0,0,1-1.24,5.59,36.64,36.64,0,0,1-5,10.26,36.57,36.57,0,0,1-12.76,11.29,36,36,0,0,1-5.26,2.28,35.24,35.24,0,0,1-5.54,1.44,36.45,36.45,0,0,1-11.42.2,37,37,0,0,1-5.59-1.24,36.3,36.3,0,0,1-10.26-5,35,35,0,0,1-4.42-3.64,36.7,36.7,0,0,1-9.16-14.37c-.62-1.81-1.1-3.66-2-5.54s-2.09-3.76-2.12-5.67,1.13-3.84,1.92-5.74,1.2-3.78,1.76-5.6a36.42,36.42,0,0,1,2.1-5.33c.84-1.72,1.81-3.37,2.3-4.2l.48-.82"/><path class="cls-71" d="M552.37,105.44l.67-.81c.67-.81,2-2.43,3.46-3.94a39.93,39.93,0,0,1,10-7.53,39.9,39.9,0,0,1,11.83-4.07,38.44,38.44,0,0,1,6.24-.6,40,40,0,0,1,18.23,4A39.74,39.74,0,0,1,613,99.7a39.93,39.93,0,0,1,7.53,10,40.26,40.26,0,0,1,2.5,5.76,40,40,0,0,1-9,40.79,39.74,39.74,0,0,1-10,7.53,39.66,39.66,0,0,1-5.75,2.5c-2,.69-4,1.21-6,4.09s-4,8.09-6.11,8.13-4.28-5.11-6.4-7.92-4.17-3.25-6.17-3.86a42.4,42.4,0,0,1-5.84-2.3,40.09,40.09,0,0,1-5.4-3.19,40.16,40.16,0,0,1-16.45-25.81,40.83,40.83,0,0,1-.6-6.25A40.52,40.52,0,0,1,547,116.78a41.42,41.42,0,0,1,2.3-5.84c.92-1.88,2-3.69,2.52-4.6l.53-.9"/><path class="cls-72" d="M552.25,105.35l.67-.81c.67-.82,2-2.44,3.47-4a39.85,39.85,0,0,1,4.72-4.18A40.77,40.77,0,0,1,566.42,93a40.44,40.44,0,0,1,11.87-4.09,40.49,40.49,0,0,1,12.56-.22A40.43,40.43,0,0,1,597,90.08a41,41,0,0,1,5.86,2.31,40.27,40.27,0,0,1,10.28,7.21,40.67,40.67,0,0,1,4.18,4.71,41.45,41.45,0,0,1,3.38,5.31,39.44,39.44,0,0,1,2.51,5.78,40.19,40.19,0,0,1,1.58,6.1,41.21,41.21,0,0,1,.6,6.27,40,40,0,0,1-.38,6.28,40.46,40.46,0,0,1-1.37,6.15,39.8,39.8,0,0,1-2.3,5.86,41.58,41.58,0,0,1-3.2,5.43,40.33,40.33,0,0,1-8.72,9,38.86,38.86,0,0,1-5.32,3.38,40,40,0,0,1-5.77,2.52c-2,.68-4,1.21-6.05,4.21s-4,8.46-6.13,8.5-4.3-5.36-6.43-8.29-4.18-3.38-6.19-4a41,41,0,0,1-5.86-2.31,40,40,0,0,1-14.46-11.92,40.46,40.46,0,0,1-3.39-5.31,41.71,41.71,0,0,1-2.51-5.78,40,40,0,0,1-1.79-18.65,40.43,40.43,0,0,1,1.36-6.15,39.85,39.85,0,0,1,2.31-5.86c.92-1.89,2-3.7,2.52-4.61l.54-.91"/><path class="cls-73" d="M551.89,105.1l.68-.82c.68-.82,2-2.47,3.51-4a39.79,39.79,0,0,1,4.77-4.21,39,39,0,0,1,5.37-3.42,40.17,40.17,0,0,1,5.83-2.54,40.42,40.42,0,0,1,12.5-2.21,42.27,42.27,0,0,1,6.36.39,41.24,41.24,0,0,1,6.21,1.38A40.33,40.33,0,0,1,603.05,92a41.24,41.24,0,0,1,5.48,3.23,40.65,40.65,0,0,1,9.13,8.82,39.65,39.65,0,0,1,3.42,5.37,40.28,40.28,0,0,1,2.54,5.84,41,41,0,0,1,1.6,6.16,40.52,40.52,0,0,1,.22,12.69,41.1,41.1,0,0,1-1.38,6.22,40.65,40.65,0,0,1-2.33,5.92,40.53,40.53,0,0,1-29.42,22.17A40.87,40.87,0,0,1,586,169a39.68,39.68,0,0,1-6.35-.39,38.81,38.81,0,0,1-6.22-1.38,40.55,40.55,0,0,1-20.54-14.38,40.77,40.77,0,0,1-6-11.2c-.69-2-1.22-4.08-5.45-6.1s-12.14-4-12.18-6.14,7.81-4.38,12-6.55,4.61-4.25,5.23-6.28a41.52,41.52,0,0,1,2.34-5.93c.93-1.91,2-3.74,2.55-4.66l.54-.92"/><path class="cls-74" d="M550,103.8l.71-.87c.72-.87,2.15-2.61,3.71-4.22A42.7,42.7,0,0,1,571.32,88a42.68,42.68,0,0,1,13.19-2.32,41.78,41.78,0,0,1,6.71.41,43.54,43.54,0,0,1,6.57,1.45A43,43,0,0,1,604,90a42.05,42.05,0,0,1,5.79,3.41A41.62,41.62,0,0,1,615,97.65a43.47,43.47,0,0,1,4.45,5,42.48,42.48,0,0,1,3.61,5.67A42.88,42.88,0,0,1,626.23,141a42.63,42.63,0,0,1-2.47,6.26,36.77,36.77,0,0,0-2.8,6.37c-.68,2.43-.9,5.33-2.46,6.95s-4.45,1.93-6.85,2.69a37.34,37.34,0,0,0-6.28,3,42.73,42.73,0,0,1-32.63,3.14,42.58,42.58,0,0,1-6.26-2.46,44.84,44.84,0,0,1-5.79-3.41,42.79,42.79,0,0,1-13.25-15,42.85,42.85,0,0,1-4.6-26.08,43.12,43.12,0,0,1,3.92-12.81c1-2,2.13-4,2.7-4.93l.57-1"/><path class="cls-75" d="M549.66,103.54l.72-.88c.73-.88,2.17-2.63,3.75-4.26a43.23,43.23,0,0,1,23.62-12.56,43.51,43.51,0,0,1,13.54-.24,44.35,44.35,0,0,1,6.63,1.47A43.16,43.16,0,0,1,610.09,93a43.42,43.42,0,0,1,5.24,4.32,43.38,43.38,0,0,1,8.15,10.82,44,44,0,0,1,2.71,6.22,25,25,0,0,0,2.82,6.56c1.51,2.21,4,4.44,4,6.7s-2.34,4.58-3.77,6.84a24.68,24.68,0,0,0-2.59,6.65,44.6,44.6,0,0,1-2.49,6.32,43.41,43.41,0,0,1-7.77,11.09,44.48,44.48,0,0,1-5.09,4.51,43.32,43.32,0,0,1-5.73,3.64,41.47,41.47,0,0,1-6.23,2.71,43.4,43.4,0,0,1-20.11,1.94,43.81,43.81,0,0,1-6.63-1.47,43,43,0,0,1-6.32-2.49,43.69,43.69,0,0,1-11.1-7.77,43.46,43.46,0,0,1-4.5-5.08,44.44,44.44,0,0,1-3.65-5.73,43.31,43.31,0,0,1-3.17-33,42.32,42.32,0,0,1,2.49-6.32c1-2,2.15-4,2.72-5l.58-1"/><path class="cls-76" d="M549.28,103.27l.73-.89c.73-.88,2.19-2.65,3.78-4.3a43.72,43.72,0,0,1,10.93-8.24,43.76,43.76,0,0,1,12.95-4.46,44.61,44.61,0,0,1,6.83-.65,43.61,43.61,0,0,1,6.85.42,42.62,42.62,0,0,1,6.7,1.48,43.28,43.28,0,0,1,6.39,2.52,21.64,21.64,0,0,0,6.8,2.56c2.76.4,6.31,0,8,1.61s1.39,5.15,1.89,7.9a21.45,21.45,0,0,0,2.8,6.71,45,45,0,0,1,2.74,6.29,43.84,43.84,0,0,1,2,20.34,44,44,0,0,1-1.48,6.7,42.73,42.73,0,0,1-2.52,6.38,43.92,43.92,0,0,1-3.48,5.92,44.42,44.42,0,0,1-4.37,5.3,43.74,43.74,0,0,1-37.56,12.93,43.52,43.52,0,0,1-19-7.49,43.4,43.4,0,0,1-5.3-4.36,45.41,45.41,0,0,1-4.55-5.15,43.59,43.59,0,0,1-3.68-5.79,42.29,42.29,0,0,1-2.74-6.29,43.64,43.64,0,0,1-.47-27,44.36,44.36,0,0,1,2.51-6.39c1-2.06,2.17-4,2.76-5l.58-1"/><path class="cls-77" d="M549.15,103.18l.73-.89c.74-.89,2.2-2.67,3.8-4.32a43.91,43.91,0,0,1,5.16-4.57,44.6,44.6,0,0,1,5.81-3.7A43.76,43.76,0,0,1,571,87a44.72,44.72,0,0,1,6.67-1.72A43.8,43.8,0,0,1,604.51,89a43.17,43.17,0,0,1,5.94,3.49,44.6,44.6,0,0,1,5.31,4.38,45.69,45.69,0,0,1,4.57,5.16,44,44,0,0,1,6.45,12.13c.74,2.18,1.32,4.41,3.35,6.64s5.53,4.48,5.57,6.78-3.37,4.65-5.33,7-2.45,4.55-3.12,6.75a43.12,43.12,0,0,1-2.53,6.41,42.58,42.58,0,0,1-3.49,5.94,44.61,44.61,0,0,1-4.39,5.32,43,43,0,0,1-5.16,4.56A44.16,44.16,0,0,1,599.56,170a43,43,0,0,1-6.67,1.72,45.15,45.15,0,0,1-6.86.67,44,44,0,0,1-6.88-.43,44.08,44.08,0,0,1-13.13-4,43.65,43.65,0,0,1-5.94-3.5,44.53,44.53,0,0,1-5.32-4.38,43.91,43.91,0,0,1-13-37.69,43,43,0,0,1,1.5-6.73,43.51,43.51,0,0,1,2.52-6.41c1-2.07,2.18-4,2.76-5l.59-1"/></g></g></svg>