<svg xmlns="http://www.w3.org/2000/svg" viewBox="0 0 895 119.75"><defs><style>.cls-1{fill:none;stroke-miterlimit:10;}.cls-1,.cls-2{stroke:#000;stroke-width:3px;}.cls-2{fill:#f2eadb;}.cls-3{font-size:18px;font-family:LeagueSpartan-Bold, League Spartan;font-weight:700;}</style></defs><title>Asset 53taxonomy-timeline</title><g id="Layer_2" data-name="Layer 2"><g id="Layer_1-2" data-name="Layer 1"><line class="cls-1" y1="83.8" x2="895" y2="83.8"/><path class="cls-2" d="M43.69,5.4c2.58-2.37,9.2,2.62,23.39,8a150,150,0,0,0,18.33,5.67s4.22,1.22,27,13.35c1.75.93,5.82,3.14,5.58,5.52-.31,3.17-7.94,2.76-11.22,8.5-1.57,2.74-2.31,7.14,0,10.1a7.62,7.62,0,0,0,7,2.85c2-.4,2.88-1.85,3.92-1.39s1.8,3.14.8,4.52c-1.6,2.2-5.1,3.84-4.72,6.71,0,.19.27,2-.33,2.32-1.55.71-4.63-11-12.36-13.35C94.81,56.28,90.43,62,84.88,59.35c-2-1-1-1.93-5.58-7.24-3.21-3.71-3.14-5.17-4.18-6.12-5.67-5.14-27.29,12.44-31.23,8.51-1.22-1.22,1-2.8.47-8.44-.6-6.45-4.1-10.35-.54-14.28C49.85,26.18,39.7,9.07,43.69,5.4Z"/><path class="cls-2" d="M337,5.31C342.27-1.44,358.9,2.55,364.78,4c2.2.52,4,1.08,5.15,1.48,3.69,5.27-3.53,15.33,1.38,20.75a28.13,28.13,0,0,0,4.26,3.64c2.16,1.52,3.65,1.28,5.7,3.09.61.54.85.87,2,1.87a24.64,24.64,0,0,0,2.88,2.25A22.21,22.21,0,0,0,389,38.63a25.48,25.48,0,0,0,4.26,2.4c1.19.54,2,.82,2.47,1,3.39,1.21,6,4,7.08,5.22,1.92,2.08,7.29,7.93,5.63,11.47-2,4.36-13.16,1.85-15.32,7.21-.56,1.4-.2,2.55-1,2.89-2.09.92-5.68-7.44-10.58-7-2.18.19-4.8,2.14-5.15,2.41-1.07.81-1.29,1.23-2.61,2.19-2.06,1.5-3.3,2.41-4.47,2.13-1.52-.35-2.26-2.59-3.57-6.73-1.15-3.62-1.21-5.22-2-5.36-1.6-.27-3.54,6.07-4.74,5.77s.52-5.72-2.41-8.72a6.28,6.28,0,0,0-4.32-1.86c-7.28.1-11.92,17.8-13.95,17.18-.65-.2-.44-2.11-.34-7.15.14-7.34-.27-5.66-.14-14.15.12-7.57.43-8.49.14-12.71-.09-1.16-.18-2.16-.29-3-.35-3-.85-5.53-.88-5.7C335.17,17.55,333.61,9.56,337,5.31Z"/><path class="cls-2" d="M472.83,48.35c-4.45-36.29-3-45.33-.57-45.92,3.79-.9,9.69,18,30.69,37.91,4.66,4.41,15.23,13.76,20.81,10.81,3.4-1.8,7.59-9.54,7.53-10.71a.14.14,0,0,1,0-.1c.43-.4,4.27,5,9.63,5.84.8.12,1,0,1.37.25,1.81.92,1.4,3.85,2.63,9,.95,4,1.72,4.46,2.12,4.59,1.58.53,2.71-1.88,4.62-1.55,2.42.42,2.47,4.57,5,5,1.56.29,2.13-1.17,4.07-1.11,2.33.06,5,2.27,4.87,3.85-.38,4.18-21.06,9.22-27.5,1.68a9.33,9.33,0,0,1-1.93-4.42C534.69,57.4,521.87,50.79,472.83,48.35Z"/><path class="cls-2" d="M610.87,10c5.54-8.56,21.76-10.09,31.3-5.53a99.81,99.81,0,0,1,9,5.53c5.9,3.82,10,6.87,11.48,7.93,11,8,14.92,8.46,27.68,17.18,18.45,12.62,20.26,18.52,20.81,21.23.92,4.57.58,11.65-3,13.46-6.4,3.27-24.95-9.69-30.56-20.48-.54-1-1.78-3.62-4.05-4-3.07-.58-4.66,3.41-9.58,6.28-5.63,3.27-14,4.14-18.67.33-2.21-1.81-3-4.17-3.72-6.61-3.25-10.56,2.06-18.45,0-19.91-3.88-2.73-24.45,24.18-30.23,20.82-1.38-.8-1.12-2.86-1.07-10.9C610.4,14.3,608.7,13.35,610.87,10Z"/><path class="cls-2" d="M771.24,50.24c.76-3.74,15.28-.21,24-10.81,3.43-4.17,4.79-9.1,6.1-8.77,2.27.56-2.07,15.12,3.16,18.46,4,2.52,8.8-4.36,18.32-4.36,10.95,0,21.95,9.13,21,14.39-.67,3.66-7.11,5.32-11.16,6.32C803.47,72.67,770.06,56,771.24,50.24Z"/><path class="cls-2" d="M232.52,27.6c-10,.42-17.83,9.33-22.43,14.58-4,4.52-7.06,9.78-6,10.85,1.75,1.78,13-10.21,19.86-6.81,4,2,2.8,7.26,7.48,9.37,2.25,1,3.5.23,12.31-1.24,11.35-1.89,12.84-1.16,13.7-.37,2,1.8,1.5,4.64,4.84,7.84.52.5,1,.9,1.9,1.84,2,2.12,2.11,2.89,3.45,4a6.27,6.27,0,0,0,3.81,1.69c2.41,0,3-2.09,5.27-2,1.91.09,2.69,1.6,3.67,1.17s1.43-2.49,1-4a3.76,3.76,0,0,0-.66-1.31A39.75,39.75,0,0,0,268,52.15c-5.83-2.76-16.24-1.95-20.15-6C241,39.08,241.69,27.22,232.52,27.6Z"/><text class="cls-3" transform="translate(26.79 113.43)">1870</text><circle class="cls-2" cx="34.5" cy="83.3" r="7.5"/><text class="cls-3" transform="translate(171.36 113.43)">1890</text><circle class="cls-2" cx="177.5" cy="83.3" r="7.5"/><text class="cls-3" transform="translate(319.33 113.43)">1898</text><circle class="cls-2" cx="324.5" cy="84.3" r="7.5"/><text class="cls-3" transform="translate(463.54 113.43)">1944</text><circle class="cls-2" cx="465.5" cy="84.3" r="7.5"/><text class="cls-3" transform="translate(596.73 113.43)">1956</text><circle class="cls-2" cx="599" cy="83.8" r="7.5"/><text class="cls-3" transform="translate(747.58 113.43)">1984</text><circle class="cls-2" cx="752" cy="83.8" r="7.5"/></g></g></svg>