<svg xmlns="http://www.w3.org/2000/svg" viewBox="0 0 75 75"><defs><style>.cls-1{fill:#f4ecdb;}</style></defs><title>Asset 76TRY</title><g id="Layer_2" data-name="Layer 2"><g id="Layer_1-2" data-name="Layer 1"><path id="Path_5666" data-name="Path 5666" d="M37.5,0A37.5,37.5,0,1,1,0,37.5,37.5,37.5,0,0,1,37.5,0Z"/><path class="cls-1" d="M20.53,30.7H30.79v2.92H27.32V45.3H24V33.62H20.53Z"/><path class="cls-1" d="M37.21,30.7C39.91,30.7,42,32.17,42,35a4.19,4.19,0,0,1-3,4.23l5,6H39.77l-4.46-5.77V45.3H32V30.7ZM35.7,37.18c1.26,0,2.76-.09,2.76-1.91S37,33.36,35.7,33.36h-.39v3.82Z"/><path class="cls-1" d="M45.47,30.7l3,4.67,3-4.67h4l-5.38,8.05V45.3H46.85V38.75l-5.38-8Z"/></g></g></svg>