<svg xmlns="http://www.w3.org/2000/svg" viewBox="0 0 75 75"><defs><style>.cls-1{fill:#f4ecdb;}</style></defs><title>Asset 89WHAT</title><g id="Layer_2" data-name="Layer 2"><g id="Layer_1-2" data-name="Layer 1"><path id="Path_5666" data-name="Path 5666" d="M37.5,0A37.5,37.5,0,1,1,0,37.5,37.5,37.5,0,0,1,37.5,0Z"/><path class="cls-1" d="M21.37,35.58,19.18,43l-3.35,0L12.22,29.68l3.34,0,2.16,9.09h.08l2.5-9,2.27,0,2.3,9.08H25l2.36-9,3.33,0L26.73,43.05,23.4,43Z"/><path class="cls-1" d="M34.22,43.13l-3,0,.14-13.2,3,0-.06,5.26,4.26.05L38.62,30l3,0-.15,13.2-3,0,.06-5.3-4.25,0Z"/><path class="cls-1" d="M55.44,43.37l-3.24,0-1-2.65-5-.06-1,2.63-3.23,0,5.48-13.15,2.78,0Zm-6.61-9.2h0L47.28,38l3,0Z"/><path class="cls-1" d="M54.49,30.15l9.28.1,0,2.64-3.14,0-.11,10.56-3,0,.12-10.56-3.14,0Z"/></g></g></svg>