<svg xmlns="http://www.w3.org/2000/svg" viewBox="0 0 75 75"><defs><style>.cls-1{fill:#f4ecdb;}</style></defs><title>Asset 75WHY</title><g id="Layer_2" data-name="Layer 2"><g id="Layer_1-2" data-name="Layer 1"><path id="Path_5666" data-name="Path 5666" d="M37.5,0A37.5,37.5,0,1,1,0,37.5,37.5,37.5,0,0,1,37.5,0Z"/><path class="cls-1" d="M25,36.41,23,43.72h-3.3L16,30.7h3.3l2.23,8.93h.07l2.37-8.93h2.24l2.37,8.93h.08l2.22-8.93h3.28l-3.71,13H27.12Z"/><path class="cls-1" d="M37.78,43.72h-3v-13h3v5.19H42V30.7h3v13H42V38.5h-4.2Z"/><path class="cls-1" d="M49.56,30.7l2.71,4.17L55,30.7h3.56l-4.79,7.18v5.84h-3V37.88L46,30.7Z"/></g></g></svg>