<svg xmlns="http://www.w3.org/2000/svg" viewBox="0 0 75 76"><defs><style>.cls-1{fill:#f5e7ce;}</style></defs><title>Asset 56year_1870</title><g id="Layer_2" data-name="Layer 2"><g id="Layer_1-2" data-name="Layer 1"><ellipse id="Ellipse_7" data-name="Ellipse 7" cx="37.5" cy="38" rx="37.5" ry="38"/><path class="cls-1" d="M19,33.72l3.53-2.28h1.34v12.4H21.07V35.2L19,36.52Z"/><path class="cls-1" d="M32.41,37.15a3.51,3.51,0,0,1,2.18,3.35c0,2.09-2.3,3.56-4.63,3.56s-4.64-1.47-4.64-3.56a3.49,3.49,0,0,1,2.16-3.35,3.07,3.07,0,0,1-1.64-2.81c0-1.83,2.06-3.13,4.11-3.13S34,32.51,34,34.34A3.07,3.07,0,0,1,32.41,37.15ZM30,41.63a1.58,1.58,0,1,0-1.57-1.58A1.5,1.5,0,0,0,30,41.63Zm0-8.28a1.39,1.39,0,1,0,0,2.78,1.32,1.32,0,0,0,1.37-1.38A1.34,1.34,0,0,0,30,33.35Z"/><path class="cls-1" d="M45.83,32.27,39.27,43.84H35.94l5.71-9.92H36.31V31.44h9.52Z"/><path class="cls-1" d="M50.92,31.21c2.66,0,5,2.14,5,6.44,0,4.59-2.37,6.41-5,6.41s-5.05-1.82-5.05-6.41C45.87,33.35,48.26,31.21,50.92,31.21Zm0,10.37c1.35,0,2.18-1.26,2.18-3.93,0-2.51-.83-4-2.18-4s-2.2,1.46-2.2,4C48.72,40.32,49.55,41.58,50.92,41.58Z"/></g></g></svg>