<svg xmlns="http://www.w3.org/2000/svg" viewBox="0 0 75 75"><defs><style>.cls-1{fill:none;stroke:#000;stroke-width:8px;}.cls-2{isolation:isolate;}.cls-3{fill:#f4ecdb;}</style></defs><title>Asset 27year_1944_solid_expand</title><g id="Layer_2" data-name="Layer 2"><g id="Layer_1-2" data-name="Layer 1"><g id="Ellipse_6" data-name="Ellipse 6"><circle cx="37.5" cy="37.5" r="37.5"/><circle class="cls-1" cx="37.5" cy="37.5" r="33.5"/></g><g id="_1944" data-name=" 1944" class="cls-2"><g class="cls-2"><path class="cls-3" d="M19.3,32.22l3.52-2.28h1.34V42.31H21.34V33.69L19.3,35Z"/><path class="cls-3" d="M30.34,38.07a2,2,0,0,1-.89.18,4.15,4.15,0,0,1-3.94-4.34c0-2.92,2.35-4.2,4.59-4.2,2.77,0,4.93,1.83,4.93,4.2,0,2.18-.66,3.18-2,4.94l-2.91,3.46H26.69Zm-.11-6a1.83,1.83,0,0,0-1.9,1.87,1.89,1.89,0,1,0,3.78,0A1.81,1.81,0,0,0,30.23,32Z"/><path class="cls-3" d="M45.19,37.23V39.7H43.75v2.61H41.11V39.7H35v-.84L41,29.94h2.79v7.29ZM41.08,33.7l-2.21,3.53h2.24V33.7Z"/><path class="cls-3" d="M55.18,37.23V39.7H53.74v2.61H51.1V39.7H45v-.84L51,29.94h2.79v7.29ZM51.07,33.7l-2.21,3.53H51.1V33.7Z"/></g></g></g></g></svg>