<svg xmlns="http://www.w3.org/2000/svg" viewBox="0 0 75 75"><defs><style>.cls-1{fill:#f4ecdb;}.cls-2{fill:none;stroke:#000;stroke-width:8px;}.cls-3{isolation:isolate;}</style></defs><title>Asset 29year_1956_expand</title><g id="Layer_2" data-name="Layer 2"><g id="Layer_1-2" data-name="Layer 1"><g id="Ellipse_5" data-name="Ellipse 5"><circle class="cls-1" cx="37.5" cy="37.5" r="37.5"/><circle class="cls-2" cx="37.5" cy="37.5" r="33.5"/></g><g class="cls-3"><g class="cls-3"><path d="M19.32,32l3.52-2.28h1.34V42.05H21.35V33.42l-2,1.32Z"/><path d="M30.35,37.8a1.88,1.88,0,0,1-.88.18,4.14,4.14,0,0,1-3.95-4.33c0-2.93,2.36-4.2,4.59-4.2,2.78,0,4.94,1.83,4.94,4.2,0,2.17-.66,3.18-1.95,4.93l-2.91,3.47H26.71Zm-.1-6a1.84,1.84,0,0,0-1.91,1.88,1.89,1.89,0,1,0,3.78,0A1.82,1.82,0,0,0,30.25,31.77Z"/><path d="M37.92,38.51a2,2,0,0,0,2.17,1.41,1.73,1.73,0,0,0,1.77-1.8c0-1.64-1.6-2.18-3.21-2.18a5.39,5.39,0,0,0-2.12.39l1-6.66h6.31v2.48H40l-.27,1.72h.35c2.34,0,4.62.91,4.62,4.35,0,2.37-1.94,4.06-4.59,4.06s-4-1.42-4.41-2.68Z"/><path d="M50.08,33.92a1.88,1.88,0,0,1,.88-.18,4.14,4.14,0,0,1,3.95,4.33c0,2.93-2.36,4.2-4.59,4.2-2.78,0-4.94-1.83-4.94-4.2,0-2.17.66-3.18,2-4.93l2.9-3.47h3.48Zm.1,6a1.84,1.84,0,0,0,1.91-1.88,1.89,1.89,0,1,0-3.78,0A1.82,1.82,0,0,0,50.18,40Z"/></g></g></g></g></svg>