<svg xmlns="http://www.w3.org/2000/svg" viewBox="0 0 75 76"><defs><style>.cls-1{isolation:isolate;}.cls-2{fill:#f4ecdb;}</style></defs><title>Asset 28year_1984_solid_expand</title><g id="Layer_2" data-name="Layer 2"><g id="Layer_1-2" data-name="Layer 1"><ellipse id="Ellipse_7" data-name="Ellipse 7" cx="37.5" cy="38" rx="37.5" ry="38"/><g id="_1984" data-name=" 1984" class="cls-1"><g class="cls-1"><path class="cls-2" d="M19.14,32.56l3.53-2.28H24V42.66H21.18V34l-2,1.32Z"/><path class="cls-2" d="M30.18,38.41a1.88,1.88,0,0,1-.88.18,4.14,4.14,0,0,1-3.95-4.33c0-2.93,2.36-4.2,4.59-4.2,2.78,0,4.94,1.83,4.94,4.2,0,2.17-.66,3.18-2,4.93L30,42.66H26.54Zm-.1-6a1.84,1.84,0,0,0-1.91,1.88,1.89,1.89,0,1,0,3.78,0A1.82,1.82,0,0,0,30.08,32.38Z"/><path class="cls-2" d="M42.84,36A3.51,3.51,0,0,1,45,39.33c0,2.08-2.3,3.55-4.62,3.55s-4.64-1.47-4.64-3.55A3.5,3.5,0,0,1,37.92,36a3.08,3.08,0,0,1-1.63-2.8c0-1.83,2.05-3.12,4.09-3.12s4,1.29,4,3.12A3.07,3.07,0,0,1,42.84,36Zm-2.46,4.47a1.58,1.58,0,1,0-1.56-1.57A1.5,1.5,0,0,0,40.38,40.45Zm0-8.26A1.36,1.36,0,0,0,39,33.58,1.35,1.35,0,0,0,40.4,35a1.31,1.31,0,0,0,1.36-1.38A1.33,1.33,0,0,0,40.4,32.19Z"/><path class="cls-2" d="M55.34,37.57v2.48H53.9v2.61H51.26V40.05H45.17v-.84l5.94-8.93H53.9v7.29Zm-4.11-3.52L49,37.57h2.24V34.05Z"/></g></g></g></g></svg>