<svg xmlns="http://www.w3.org/2000/svg" viewBox="0 0 83 84"><defs><style>.cls-1{fill:#f3ebdb;stroke:#000;stroke-width:8px;}</style></defs><title>Asset 62year_1890</title><g id="Layer_2" data-name="Layer 2"><g id="Layer_1-2" data-name="Layer 1"><ellipse id="Ellipse_7" data-name="Ellipse 7" class="cls-1" cx="41.5" cy="42" rx="37.5" ry="38"/><path d="M20,37.08l4-2.61h1.53V48.64H22.36V38.76L20,40.28Z"/><path d="M35.32,41a4,4,0,0,1,2.49,3.83c0,2.38-2.63,4.07-5.29,4.07s-5.31-1.69-5.31-4.07A4,4,0,0,1,29.69,41a3.53,3.53,0,0,1-1.87-3.21c0-2.1,2.35-3.58,4.68-3.58s4.64,1.48,4.64,3.58A3.53,3.53,0,0,1,35.32,41ZM32.5,46.11a1.8,1.8,0,1,0,0-3.6,1.73,1.73,0,0,0-1.78,1.8A1.71,1.71,0,0,0,32.5,46.11Zm0-9.46a1.57,1.57,0,0,0-1.6,1.6,1.55,1.55,0,0,0,1.6,1.58,1.5,1.5,0,0,0,1.56-1.58A1.52,1.52,0,0,0,32.52,36.65Z"/><path d="M44.45,43.78a2.23,2.23,0,0,1-1,.2,4.74,4.74,0,0,1-4.52-5c0-3.35,2.7-4.81,5.26-4.81,3.17,0,5.65,2.1,5.65,4.81,0,2.49-.76,3.64-2.24,5.65l-3.33,4h-4Zm-.12-6.9A2.1,2.1,0,0,0,42.15,39a2.17,2.17,0,1,0,4.33,0A2.08,2.08,0,0,0,44.33,36.88Z"/><path d="M56.48,34.21c3,0,5.76,2.44,5.76,7.35,0,5.26-2.72,7.34-5.76,7.34s-5.76-2.08-5.76-7.34C50.72,36.65,53.45,34.21,56.48,34.21Zm0,11.85c1.55,0,2.5-1.44,2.5-4.5,0-2.86-.95-4.51-2.5-4.51S54,38.71,54,41.56C54,44.62,54.92,46.06,56.48,46.06Z"/></g></g></svg>