<svg xmlns="http://www.w3.org/2000/svg" viewBox="0 0 83 84"><defs><style>.cls-1{fill:#f3ebdb;stroke:#000;stroke-width:8px;}</style></defs><title>Asset 61year_1898</title><g id="Layer_2" data-name="Layer 2"><g id="Layer_1-2" data-name="Layer 1"><ellipse id="Ellipse_7" data-name="Ellipse 7" class="cls-1" cx="41.5" cy="42" rx="37.5" ry="38"/><path d="M20,39.1l4.07-2.63h1.54V50.75H22.37v-10L20,42.32Z"/><path d="M35.43,43.05a4,4,0,0,1,2.51,3.86c0,2.4-2.65,4.1-5.33,4.1s-5.34-1.7-5.34-4.1a4,4,0,0,1,2.49-3.86,3.56,3.56,0,0,1-1.89-3.24c0-2.11,2.37-3.6,4.73-3.6s4.67,1.49,4.67,3.6A3.54,3.54,0,0,1,35.43,43.05ZM32.6,48.2a1.82,1.82,0,1,0-1.8-1.81A1.72,1.72,0,0,0,32.6,48.2Zm0-9.53A1.58,1.58,0,0,0,31,40.28a1.56,1.56,0,0,0,1.61,1.59,1.51,1.51,0,0,0,1.58-1.59A1.54,1.54,0,0,0,32.61,38.67Z"/><path d="M44.63,45.85a2.17,2.17,0,0,1-1,.21,4.79,4.79,0,0,1-4.55-5c0-3.38,2.72-4.85,5.3-4.85,3.2,0,5.69,2.11,5.69,4.85,0,2.51-.76,3.67-2.25,5.69l-3.36,4h-4Zm-.12-7a2.12,2.12,0,0,0-2.2,2.16,2.18,2.18,0,1,0,4.36,0A2.09,2.09,0,0,0,44.51,38.9Z"/><path d="M59.23,43.05a4,4,0,0,1,2.51,3.86c0,2.4-2.65,4.1-5.33,4.1s-5.35-1.7-5.35-4.1a4,4,0,0,1,2.5-3.86,3.56,3.56,0,0,1-1.89-3.24c0-2.11,2.37-3.6,4.72-3.6s4.67,1.49,4.67,3.6A3.55,3.55,0,0,1,59.23,43.05ZM56.39,48.2a1.82,1.82,0,1,0-1.8-1.81A1.73,1.73,0,0,0,56.39,48.2Zm0-9.53a1.6,1.6,0,1,0,0,3.2A1.51,1.51,0,0,0,58,40.28,1.53,1.53,0,0,0,56.41,38.67Z"/></g></g></svg>